<?xml version="1.0" encoding="UTF-8" standalone="no"?>
<!DOCTYPE svg PUBLIC "-//W3C//DTD SVG 1.1//EN"
 "http://www.w3.org/Graphics/SVG/1.1/DTD/svg11.dtd">
<!-- Generated by graphviz version 2.38.0 (20140413.2041)
 -->
<!-- Title: G Pages: 1 -->
<svg width="112pt" height="296pt"
 viewBox="0.00 0.00 112.00 296.00" xmlns="http://www.w3.org/2000/svg" xmlns:xlink="http://www.w3.org/1999/xlink">
<g id="graph0" class="graph" transform="scale(1 1) rotate(0) translate(4 292)">
<title>G</title>
<polygon fill="white" stroke="none" points="-4,4 -4,-292 108,-292 108,4 -4,4"/>
<!-- 1 -->
<g id="node1" class="node"><title>1</title>
<ellipse fill="none" stroke="black" cx="68" cy="-252" rx="36" ry="36"/>
</g>
<!-- 2 -->
<g id="node2" class="node"><title>2</title>
<ellipse fill="none" stroke="black" cx="36" cy="-144" rx="36" ry="36"/>
</g>
<!-- 1&#45;&gt;2 -->
<g id="edge1" class="edge"><title>1&#45;&gt;2</title>
<path fill="none" stroke="black" d="M57.787,-217.169C55.0448,-208.086 52.0405,-198.134 49.1626,-188.601"/>
<polygon fill="black" stroke="black" points="52.4665,-187.434 46.2257,-178.873 45.7652,-189.457 52.4665,-187.434"/>
</g>
<!-- 3 -->
<g id="node3" class="node"><title>3</title>
<ellipse fill="none" stroke="black" cx="68" cy="-36" rx="36" ry="36"/>
</g>
<!-- 2&#45;&gt;3 -->
<g id="edge2" class="edge"><title>2&#45;&gt;3</title>
<path fill="none" stroke="black" d="M46.213,-109.169C48.9552,-100.086 51.9595,-90.134 54.8374,-80.6012"/>
<polygon fill="black" stroke="black" points="58.2348,-81.4575 57.7743,-70.8727 51.5335,-79.4344 58.2348,-81.4575"/>
</g>
<!-- 3&#45;&gt;1 -->
<g id="edge3" class="edge"><title>3&#45;&gt;1</title>
<path fill="none" stroke="black" d="M75.612,-71.4952C77.8121,-83.0397 79.9122,-96.0192 81,-108 83.8935,-139.869 83.8935,-148.131 81,-180 80.2182,-188.611 78.9134,-197.738 77.4243,-206.478"/>
<polygon fill="black" stroke="black" points="73.9465,-206.042 75.612,-216.505 80.8349,-207.287 73.9465,-206.042"/>
</g>
</g>
</svg>
