<?xml version="1.0" encoding="UTF-8" standalone="no"?>
<svg
   xmlns:dc="http://purl.org/dc/elements/1.1/"
   xmlns:cc="http://creativecommons.org/ns#"
   xmlns:rdf="http://www.w3.org/1999/02/22-rdf-syntax-ns#"
   xmlns:svg="http://www.w3.org/2000/svg"
   xmlns="http://www.w3.org/2000/svg"
   xmlns:sodipodi="http://sodipodi.sourceforge.net/DTD/sodipodi-0.dtd"
   xmlns:inkscape="http://www.inkscape.org/namespaces/inkscape"
   class="svglite"
   width="432.00pt"
   height="288.00pt"
   viewBox="0 0 432.00 288.00"
   version="1.1"
   id="svg228"
   sodipodi:docname="DNS_Sim_Lines_zero_prime.svg"
   inkscape:version="0.92.5 (2060ec1f9f, 2020-04-08)">
  <metadata
     id="metadata232">
    <rdf:RDF>
      <cc:Work
         rdf:about="">
        <dc:format>image/svg+xml</dc:format>
        <dc:type
           rdf:resource="http://purl.org/dc/dcmitype/StillImage" />
        <dc:title></dc:title>
      </cc:Work>
    </rdf:RDF>
  </metadata>
  <sodipodi:namedview
     pagecolor="#ffffff"
     bordercolor="#666666"
     borderopacity="1"
     objecttolerance="10"
     gridtolerance="10"
     guidetolerance="10"
     inkscape:pageopacity="0"
     inkscape:pageshadow="2"
     inkscape:window-width="1920"
     inkscape:window-height="1009"
     id="namedview230"
     showgrid="false"
     inkscape:zoom="1.3651089"
     inkscape:cx="114.56052"
     inkscape:cy="236.94252"
     inkscape:window-x="0"
     inkscape:window-y="0"
     inkscape:window-maximized="1"
     inkscape:current-layer="svg228" />
  <defs
     id="defs4">
    <style
       type="text/css"
       id="style2"><![CDATA[
    .svglite line, .svglite polyline, .svglite polygon, .svglite path, .svglite rect, .svglite circle {
      fill: none;
      stroke: #000000;
      stroke-linecap: round;
      stroke-linejoin: round;
      stroke-miterlimit: 10.00;
    }
    .svglite text {
      white-space: pre;
    }
  ]]></style>
  </defs>
  <defs
     id="defs11">
    <clipPath
       id="cpMC4wMHw0MzIuMDB8MC4wMHwyODguMDA=">
      <rect
         x="0.00"
         y="0.00"
         width="432.00"
         height="288.00"
         id="rect8" />
    </clipPath>
  </defs>
  <defs
     id="defs20">
    <clipPath
       id="cpNDEuNzZ8NDIyLjA0fDUuNDh8MjE0LjYx">
      <rect
         x="41.76"
         y="5.48"
         width="380.27"
         height="209.13"
         id="rect17" />
    </clipPath>
  </defs>
  <polyline
     transform="translate(0,-2.473774e-6)"
     id="polyline32"
     style="fill:none;stroke:#ebebeb;stroke-width:0.52999997;stroke-linecap:butt;stroke-linejoin:round;stroke-miterlimit:10"
     points="41.76,14.99 422.04,14.99 " />
  <polyline
     transform="translate(0,-2.473774e-6)"
     id="polyline42"
     style="fill:none;stroke:#ebebeb;stroke-width:1.07000005;stroke-linecap:butt;stroke-linejoin:round;stroke-miterlimit:10"
     points="41.76,205.10 422.04,205.10 " />
  <polyline
     transform="translate(0,-2.473774e-6)"
     id="polyline62"
     style="fill:none;stroke:#9a281d;stroke-width:1.07000005;stroke-linecap:butt;stroke-linejoin:round;stroke-miterlimit:10;stroke-opacity:0.33000004"
     points="59.87,204.26 63.49,204.26 67.12,205.10 70.74,205.10 74.36,205.10 77.98,205.10 81.60,205.10 85.22,205.10 88.85,205.10 92.47,205.10 96.09,205.10 99.71,205.10 103.33,205.10 106.95,205.10 110.58,205.10 114.20,205.10 117.82,205.10 121.44,205.10 125.06,205.10 128.68,205.10 132.31,205.10 135.93,205.10 139.55,205.10 143.17,205.10 146.79,205.10 150.41,205.10 154.04,205.10 157.66,205.10 161.28,205.10 164.90,205.10 168.52,205.10 172.14,205.10 175.77,205.10 179.39,205.10 183.01,205.10 186.63,205.10 190.25,205.10 193.87,205.10 197.49,205.10 201.12,205.10 204.74,205.10 208.36,205.10 211.98,205.10 215.60,205.10 219.22,205.10 222.85,205.10 226.47,205.10 230.09,205.10 233.71,205.10 237.33,205.10 240.95,205.10 244.58,205.10 248.20,205.10 251.82,205.10 255.44,205.10 259.06,205.10 262.68,205.10 266.31,205.10 269.93,205.10 273.55,205.10 277.17,205.10 280.79,205.10 284.41,205.10 288.04,205.10 291.66,205.10 295.28,205.10 298.90,205.10 302.52,205.10 306.14,205.10 309.77,205.10 313.39,205.10 317.01,205.10 320.63,205.10 324.25,205.10 327.87,205.10 331.50,205.10 335.12,205.10 338.74,205.10 342.36,205.10 345.98,205.10 349.60,205.10 353.23,205.10 356.85,205.10 360.47,205.10 364.09,205.10 367.71,205.10 371.33,205.10 374.96,205.10 378.58,205.10 382.20,205.10 385.82,205.10 389.44,205.10 393.06,205.10 396.69,205.10 400.31,205.10 403.93,205.10 407.55,205.10 411.17,205.10 414.79,205.10 418.42,205.10 422.04,205.10 " />
  <polyline
     transform="translate(0,-2.473774e-6)"
     id="polyline64"
     style="fill:none;stroke:#297373;stroke-width:1.07000005;stroke-linecap:butt;stroke-linejoin:round;stroke-miterlimit:10;stroke-opacity:0.33000004"
     points="59.87,15.83 63.49,15.83 67.12,14.99 70.74,14.99 74.36,14.99 77.98,14.99 81.60,14.99 85.22,14.99 88.85,14.99 92.47,14.99 96.09,14.99 99.71,14.99 103.33,14.99 106.95,14.99 110.58,14.99 114.20,14.99 117.82,14.99 121.44,14.99 125.06,14.99 128.68,14.99 132.31,14.99 135.93,14.99 139.55,14.99 143.17,14.99 146.79,14.99 150.41,14.99 154.04,14.99 157.66,14.99 161.28,14.99 164.90,14.99 168.52,14.99 172.14,14.99 175.77,14.99 179.39,14.99 183.01,14.99 186.63,14.99 190.25,14.99 193.87,14.99 197.49,14.99 201.12,14.99 204.74,14.99 208.36,14.99 211.98,14.99 215.60,14.99 219.22,14.99 222.85,14.99 226.47,14.99 230.09,14.99 233.71,14.99 237.33,14.99 240.95,14.99 244.58,14.99 248.20,14.99 251.82,14.99 255.44,14.99 259.06,14.99 262.68,14.99 266.31,14.99 269.93,14.99 273.55,14.99 277.17,14.99 280.79,14.99 284.41,14.99 288.04,14.99 291.66,14.99 295.28,14.99 298.90,14.99 302.52,14.99 306.14,14.99 309.77,14.99 313.39,14.99 317.01,14.99 320.63,14.99 324.25,14.99 327.87,14.99 331.50,14.99 335.12,14.99 338.74,14.99 342.36,14.99 345.98,14.99 349.60,14.99 353.23,14.99 356.85,14.99 360.47,14.99 364.09,14.99 367.71,14.99 371.33,14.99 374.96,14.99 378.58,14.99 382.20,14.99 385.82,14.99 389.44,14.99 393.06,14.99 396.69,14.99 400.31,14.99 403.93,14.99 407.55,14.99 411.17,14.99 414.79,14.99 418.42,14.99 422.04,14.99 " />
  <polyline
     transform="translate(0,-2.473774e-6)"
     id="polyline90"
     style="fill:none;stroke:#9a281d;stroke-width:1.07000005;stroke-linecap:butt;stroke-linejoin:round;stroke-miterlimit:10;stroke-opacity:0.33000004"
     points="59.87,204.26 63.49,204.26 67.12,205.10 70.74,205.10 74.36,205.10 77.98,205.10 81.60,205.10 85.22,205.10 88.85,205.10 92.47,205.10 96.09,205.10 99.71,205.10 103.33,205.10 106.95,205.10 110.58,205.10 114.20,205.10 117.82,205.10 121.44,205.10 125.06,205.10 128.68,205.10 132.31,205.10 135.93,205.10 139.55,205.10 143.17,205.10 146.79,205.10 150.41,205.10 154.04,205.10 157.66,205.10 161.28,205.10 164.90,205.10 168.52,205.10 172.14,205.10 175.77,205.10 179.39,205.10 183.01,205.10 186.63,205.10 190.25,205.10 193.87,205.10 197.49,205.10 201.12,205.10 204.74,205.10 208.36,205.10 211.98,205.10 215.60,205.10 219.22,205.10 222.85,205.10 226.47,205.10 230.09,205.10 233.71,205.10 237.33,205.10 240.95,205.10 244.58,205.10 248.20,205.10 251.82,205.10 255.44,205.10 259.06,205.10 262.68,205.10 266.31,205.10 269.93,205.10 273.55,205.10 277.17,205.10 280.79,205.10 284.41,205.10 288.04,205.10 291.66,205.10 295.28,205.10 298.90,205.10 302.52,205.10 306.14,205.10 309.77,205.10 313.39,205.10 317.01,205.10 320.63,205.10 324.25,205.10 327.87,205.10 331.50,205.10 335.12,205.10 338.74,205.10 342.36,205.10 345.98,205.10 349.60,205.10 353.23,205.10 356.85,205.10 360.47,205.10 364.09,205.10 367.71,205.10 371.33,205.10 374.96,205.10 378.58,205.10 382.20,205.10 385.82,205.10 389.44,205.10 393.06,205.10 396.69,205.10 400.31,205.10 403.93,205.10 407.55,205.10 411.17,205.10 414.79,205.10 418.42,205.10 422.04,205.10 " />
  <polyline
     transform="translate(0,-2.473774e-6)"
     id="polyline92"
     style="fill:none;stroke:#297373;stroke-width:1.07000005;stroke-linecap:butt;stroke-linejoin:round;stroke-miterlimit:10;stroke-opacity:0.33000004"
     points="59.87,15.83 63.49,15.83 67.12,14.99 70.74,14.99 74.36,14.99 77.98,14.99 81.60,14.99 85.22,14.99 88.85,14.99 92.47,14.99 96.09,14.99 99.71,14.99 103.33,14.99 106.95,14.99 110.58,14.99 114.20,14.99 117.82,14.99 121.44,14.99 125.06,14.99 128.68,14.99 132.31,14.99 135.93,14.99 139.55,14.99 143.17,14.99 146.79,14.99 150.41,14.99 154.04,14.99 157.66,14.99 161.28,14.99 164.90,14.99 168.52,14.99 172.14,14.99 175.77,14.99 179.39,14.99 183.01,14.99 186.63,14.99 190.25,14.99 193.87,14.99 197.49,14.99 201.12,14.99 204.74,14.99 208.36,14.99 211.98,14.99 215.60,14.99 219.22,14.99 222.85,14.99 226.47,14.99 230.09,14.99 233.71,14.99 237.33,14.99 240.95,14.99 244.58,14.99 248.20,14.99 251.82,14.99 255.44,14.99 259.06,14.99 262.68,14.99 266.31,14.99 269.93,14.99 273.55,14.99 277.17,14.99 280.79,14.99 284.41,14.99 288.04,14.99 291.66,14.99 295.28,14.99 298.90,14.99 302.52,14.99 306.14,14.99 309.77,14.99 313.39,14.99 317.01,14.99 320.63,14.99 324.25,14.99 327.87,14.99 331.50,14.99 335.12,14.99 338.74,14.99 342.36,14.99 345.98,14.99 349.60,14.99 353.23,14.99 356.85,14.99 360.47,14.99 364.09,14.99 367.71,14.99 371.33,14.99 374.96,14.99 378.58,14.99 382.20,14.99 385.82,14.99 389.44,14.99 393.06,14.99 396.69,14.99 400.31,14.99 403.93,14.99 407.55,14.99 411.17,14.99 414.79,14.99 418.42,14.99 422.04,14.99 " />
</svg>
