<?xml version="1.0" encoding="UTF-8" standalone="no"?>
<svg
   xmlns:dc="http://purl.org/dc/elements/1.1/"
   xmlns:cc="http://creativecommons.org/ns#"
   xmlns:rdf="http://www.w3.org/1999/02/22-rdf-syntax-ns#"
   xmlns:svg="http://www.w3.org/2000/svg"
   xmlns="http://www.w3.org/2000/svg"
   xmlns:sodipodi="http://sodipodi.sourceforge.net/DTD/sodipodi-0.dtd"
   xmlns:inkscape="http://www.inkscape.org/namespaces/inkscape"
   class="svglite"
   width="432.00pt"
   height="288.00pt"
   viewBox="0 0 432.00 288.00"
   version="1.1"
   id="svg228"
   sodipodi:docname="DNS_Sim_Lines_one.svg"
   inkscape:version="0.92.5 (2060ec1f9f, 2020-04-08)">
  <metadata
     id="metadata232">
    <rdf:RDF>
      <cc:Work
         rdf:about="">
        <dc:format>image/svg+xml</dc:format>
        <dc:type
           rdf:resource="http://purl.org/dc/dcmitype/StillImage" />
        <dc:title></dc:title>
      </cc:Work>
    </rdf:RDF>
  </metadata>
  <sodipodi:namedview
     pagecolor="#ffffff"
     bordercolor="#666666"
     borderopacity="1"
     objecttolerance="10"
     gridtolerance="10"
     guidetolerance="10"
     inkscape:pageopacity="0"
     inkscape:pageshadow="2"
     inkscape:window-width="1920"
     inkscape:window-height="1009"
     id="namedview230"
     showgrid="false"
     inkscape:zoom="1.3651089"
     inkscape:cx="114.56052"
     inkscape:cy="236.94252"
     inkscape:window-x="0"
     inkscape:window-y="0"
     inkscape:window-maximized="1"
     inkscape:current-layer="svg228" />
  <defs
     id="defs4">
    <style
       type="text/css"
       id="style2"><![CDATA[
    .svglite line, .svglite polyline, .svglite polygon, .svglite path, .svglite rect, .svglite circle {
      fill: none;
      stroke: #000000;
      stroke-linecap: round;
      stroke-linejoin: round;
      stroke-miterlimit: 10.00;
    }
    .svglite text {
      white-space: pre;
    }
  ]]></style>
  </defs>
  <defs
     id="defs11">
    <clipPath
       id="cpMC4wMHw0MzIuMDB8MC4wMHwyODguMDA=">
      <rect
         x="0.00"
         y="0.00"
         width="432.00"
         height="288.00"
         id="rect8" />
    </clipPath>
  </defs>
  <defs
     id="defs20">
    <clipPath
       id="cpNDEuNzZ8NDIyLjA0fDUuNDh8MjE0LjYx">
      <rect
         x="41.76"
         y="5.48"
         width="380.27"
         height="209.13"
         id="rect17" />
    </clipPath>
  </defs>
  <polyline
     transform="translate(1.5509476e-7,1.6193446e-6)"
     id="polyline102"
     style="fill:none;stroke:#297373;stroke-width:3.20000005;stroke-linecap:butt;stroke-linejoin:round;stroke-miterlimit:10"
     points="59.87,15.83 63.49,16.68 67.12,17.20 70.74,18.89 74.36,20.27 77.98,22.48 81.60,25.86 85.22,29.77 88.85,34.21 92.47,40.23 96.09,46.88 99.71,55.02 103.33,64.10 106.95,73.39 110.58,85.96 114.20,96.00 117.82,106.24 121.44,113.74 125.06,122.82 128.68,131.80 132.31,140.46 135.93,143.84 139.55,148.17 143.17,152.40 146.79,155.46 150.41,159.48 154.04,165.28 157.66,166.55 161.28,166.55 164.90,170.99 168.52,167.71 172.14,167.29 175.77,169.30 179.39,170.78 183.01,170.99 186.63,173.42 190.25,174.05 193.87,172.15 197.49,174.16 201.12,172.36 204.74,169.51 208.36,171.62 211.98,170.25 215.60,168.98 219.22,170.46 222.85,170.67 226.47,171.30 230.09,172.57 233.71,170.99 237.33,169.93 240.95,169.09 244.58,173.10 248.20,173.10 251.82,172.15 255.44,173.31 259.06,174.26 262.68,173.95 266.31,174.26 269.93,173.84 273.55,173.42 277.17,174.90 280.79,173.10 284.41,174.58 288.04,173.10 291.66,173.31 295.28,176.16 298.90,173.31 302.52,172.99 306.14,172.57 309.77,173.95 313.39,172.57 317.01,172.78 320.63,174.37 324.25,171.62 327.87,174.58 331.50,173.31 335.12,174.26 338.74,173.73 342.36,174.05 345.98,172.04 349.60,170.78 353.23,172.04 356.85,173.95 360.47,171.41 364.09,173.10 367.71,172.89 371.33,172.47 374.96,175.32 378.58,173.21 382.20,171.41 385.82,172.68 389.44,174.05 393.06,171.41 396.69,173.10 400.31,173.84 403.93,171.09 407.55,170.67 411.17,171.94 414.79,174.79 418.42,171.09 422.04,172.68 " />
  <polyline
     transform="translate(1.5509476e-7,1.6193446e-6)"
     id="polyline104"
     style="fill:none;stroke:#9a281d;stroke-width:3.20000005;stroke-linecap:butt;stroke-linejoin:round;stroke-miterlimit:10"
     points="59.87,204.26 63.49,203.41 67.12,202.89 70.74,201.20 74.36,199.82 77.98,197.60 81.60,194.22 85.22,190.32 88.85,185.88 92.47,179.86 96.09,173.21 99.71,165.07 103.33,155.99 106.95,146.70 110.58,134.13 114.20,124.09 117.82,113.85 121.44,106.35 125.06,97.26 128.68,88.29 132.31,79.63 135.93,76.25 139.55,71.92 143.17,67.69 146.79,64.63 150.41,60.61 154.04,54.80 157.66,53.54 161.28,53.54 164.90,49.10 168.52,52.38 172.14,52.80 175.77,50.79 179.39,49.31 183.01,49.10 186.63,46.67 190.25,46.04 193.87,47.94 197.49,45.93 201.12,47.73 204.74,50.58 208.36,48.47 211.98,49.84 215.60,51.11 219.22,49.63 222.85,49.42 226.47,48.78 230.09,47.52 233.71,49.10 237.33,50.16 240.95,51.00 244.58,46.99 248.20,46.99 251.82,47.94 255.44,46.78 259.06,45.83 262.68,46.14 266.31,45.83 269.93,46.25 273.55,46.67 277.17,45.19 280.79,46.99 284.41,45.51 288.04,46.99 291.66,46.78 295.28,43.93 298.90,46.78 302.52,47.09 306.14,47.52 309.77,46.14 313.39,47.52 317.01,47.31 320.63,45.72 324.25,48.47 327.87,45.51 331.50,46.78 335.12,45.83 338.74,46.35 342.36,46.04 345.98,48.04 349.60,49.31 353.23,48.04 356.85,46.14 360.47,48.68 364.09,46.99 367.71,47.20 371.33,47.62 374.96,44.77 378.58,46.88 382.20,48.68 385.82,47.41 389.44,46.04 393.06,48.68 396.69,46.99 400.31,46.25 403.93,49.00 407.55,49.42 411.17,48.15 414.79,45.30 418.42,49.00 422.04,47.41 " />
</svg>
