<?xml version="1.0" encoding="UTF-8" standalone="no"?>
<!-- Created with Inkscape (http://www.inkscape.org/) -->

<svg
   xmlns:dc="http://purl.org/dc/elements/1.1/"
   xmlns:cc="http://creativecommons.org/ns#"
   xmlns:rdf="http://www.w3.org/1999/02/22-rdf-syntax-ns#"
   xmlns:svg="http://www.w3.org/2000/svg"
   xmlns="http://www.w3.org/2000/svg"
   xmlns:sodipodi="http://sodipodi.sourceforge.net/DTD/sodipodi-0.dtd"
   xmlns:inkscape="http://www.inkscape.org/namespaces/inkscape"
   width="129.67871mm"
   height="83.152901mm"
   viewBox="0 0 459.4915 294.63626"
   id="svg4698"
   version="1.1"
   inkscape:version="0.91 r"
   sodipodi:docname="bear2.svg">
  <defs
     id="defs4700" />
  <sodipodi:namedview
     id="base"
     pagecolor="#ffffff"
     bordercolor="#666666"
     borderopacity="1.0"
     inkscape:pageopacity="0.0"
     inkscape:pageshadow="2"
     inkscape:zoom="0.35"
     inkscape:cx="-453.82568"
     inkscape:cy="13.032415"
     inkscape:document-units="px"
     inkscape:current-layer="layer1"
     showgrid="false"
     fit-margin-top="0"
     fit-margin-left="0"
     fit-margin-right="0"
     fit-margin-bottom="0"
     inkscape:window-width="960"
     inkscape:window-height="1028"
     inkscape:window-x="0"
     inkscape:window-y="0"
     inkscape:window-maximized="1" />
  <metadata
     id="metadata4703">
    <rdf:RDF>
      <cc:Work
         rdf:about="">
        <dc:format>image/svg+xml</dc:format>
        <dc:type
           rdf:resource="http://purl.org/dc/dcmitype/StillImage" />
        <dc:title></dc:title>
      </cc:Work>
    </rdf:RDF>
  </metadata>
  <g
     inkscape:label="Layer 1"
     inkscape:groupmode="layer"
     id="layer1"
     transform="translate(-133.1114,-250.75837)">
    <path
       inkscape:connector-curvature="0"
       id="path80"
       style="fill:#edecea;fill-opacity:1;fill-rule:nonzero;stroke:none"
       d="m 419.13288,545.39462 c -91.34375,0 -165.3925,-6.53125 -165.3925,-14.58888 0,-3.91112 17.45625,-7.46237 45.86625,-10.0825 -0.48,1.51513 -0.82125,3.19288 -0.9825,5.05763 -0.36,4.16737 12.4825,8.30262 26.64875,8.30262 8.6425,-10e-4 17.77875,-1.54 24.705,-5.55025 3.87625,-2.24362 7.9675,-6.34762 12.01,-11.41987 17.81125,-0.57863 37.0575,-0.895 57.145,-0.895 24.235,0 47.25125,0.45987 67.9925,1.28612 -9.29,12.27638 7.85875,14.4975 33.85125,14.4975 6.37625,0 13.285,-0.13375 20.46625,-0.28512 6.1775,-0.13088 8.95875,-1.981 11.2575,-9.51463 20.01,2.41113 31.825,5.38613 31.825,8.6035 0,8.05763 -74.04875,14.58888 -165.3925,14.58888" />
    <path
       inkscape:connector-curvature="0"
       id="path108"
       style="fill:#774b2d;fill-opacity:1;fill-rule:nonzero;stroke:none"
       d="m 159.23663,339.95587 c 0,0 -10.46375,-12.98875 -7.21625,-18.76125 3.2475,-5.77375 23.09125,-4.33 28.50375,0 0,0 -12.2675,17.67875 -21.2875,18.76125" />
    <path
       inkscape:connector-curvature="0"
       id="path110"
       style="fill:#5e3c26;fill-opacity:1;fill-rule:nonzero;stroke:none"
       d="m 158.55788,339.07462 c -1.90375,-2.53375 -7.15625,-9.995 -7.1625,-15.2025 -10e-4,-0.99125 0.1875,-1.9 0.625,-2.6775 1.50875,-2.68375 6.605,-3.8075 12.16875,-3.8075 4.355,0 8.99625,0.6875 12.4325,1.85625 -7.65875,4.9575 -13.89,11.38875 -18.06375,19.83125" />
    <path
       inkscape:connector-curvature="0"
       id="path112"
       style="fill:#5d3721;fill-opacity:1;fill-rule:nonzero;stroke:none"
       d="m 342.88288,523.96337 c 0,0 40.40875,7.57625 51.23375,0 10.82375,-7.57763 38.24375,-52.6775 42.57375,-66.3875 4.33,-13.71 -55.5625,-4.33 -55.5625,-4.33 l -38.245,70.7175" />
    <path
       inkscape:connector-curvature="0"
       id="path114"
       style="fill:#5d3721;fill-opacity:1;fill-rule:nonzero;stroke:none"
       d="m 437.69788,515.98587 c 5.7725,10.86862 47.39125,11.58987 67.54375,2.9825 23.09125,-9.86138 -30.30625,-78.71125 -30.30625,-78.71125 l -30.66875,13.71125 c 0,0 9.83625,16.445 11.63875,31.19625 0.79375,6.4975 1.13875,8.09125 -10.63125,16.02875 -8.13625,5.4875 -9.525,11.12362 -7.57625,14.7925" />
    <path
       inkscape:connector-curvature="0"
       id="path116"
       style="fill:#774b2d;fill-opacity:1;fill-rule:nonzero;stroke:none"
       d="m 137.34788,415.00212 c 0,0 15.39375,-13.47 15.39375,-48.1075 0,-34.63625 20.205,-50.03 47.145,-57.7275 26.93875,-7.69625 50.9925,-14.43125 81.78,-38.485 30.78875,-24.05375 71.19875,-3.8475 111.6075,0 40.41,3.84875 68.31125,9.62125 105.835,11.545 37.5225,1.925 75.09375,37.40625 81.48,98.65 3.8475,36.89 -9.94,46.9875 -18.8875,94.3625 -9.20375,48.73112 -7.6075,56.21012 -20.25875,56.47725 -42.33375,0.895 -75.2,1.16012 -45.37375,-22.89363 0,0 8.29125,4.0665 -16.145,-39.37362 -3.31625,-5.895 -10.11625,-8.9 -16.7125,-7.3975 -12.2375,2.7875 -33.22125,6.54625 -54.68,5.70875 -10.4775,-0.4075 -20.265,5.17125 -25.06875,14.49 -8.345,16.1875 -21.88375,39.56612 -33.485,46.28237 -18.28,10.5825 -51.9325,3.9575 -51.35375,-2.75237 1.44375,-16.71638 17.3475,-18.41025 18.6425,-22.26375 3.265,-9.72375 -26.4025,-24.10125 -36.58625,-72.67625 -2.0575,-9.8125 -12.34125,-15.52375 -21.80125,-12.205 -15.92125,5.58375 -39.84625,13.5425 -69.57375,9.3275 0,0 -23.8475,15.27625 -44.0525,2.76875 -20.20375,-12.5075 -7.905,-15.73 -7.905,-15.73" />
    <path
       inkscape:connector-curvature="0"
       id="path118"
       style="fill:#774b2d;fill-opacity:1;fill-rule:nonzero;stroke:none"
       d="m 197.48163,344.28462 c 0,0 15.875,-6.1325 20.20375,0 4.33,6.13375 0.36125,21.64875 -3.24625,24.535 0,0 -0.36125,-16.23625 -16.9575,-24.535" />
    <path
       inkscape:connector-curvature="0"
       id="path120"
       style="fill:#5e3c26;fill-opacity:1;fill-rule:nonzero;stroke:none"
       d="m 214.43913,368.81962 c 0,0 -0.36125,-16.23625 -16.9575,-24.535 l 0,0 c 16.59625,8.29875 16.9575,24.535 16.9575,24.535 3.6075,-2.88625 7.57625,-18.40125 3.24625,-24.535 -1.4425,-2.04375 -4.16875,-2.725 -7.1625,-2.725 -5.98625,0 -13.04125,2.725 -13.04125,2.725 0,0 10.88375,-4.88875 18.25625,-4.88875 2.55125,0 4.6825,0.58625 5.79625,2.1625 4.33,6.13375 1.2725,21.97 -7.095,27.26125" />
    <path
       inkscape:connector-curvature="0"
       id="path122"
       style="fill:#5e3c26;fill-opacity:1;fill-rule:nonzero;stroke:none"
       d="m 214.43913,368.81962 c 0,0 -0.36125,-16.23625 -16.9575,-24.535 l 0,0 c 0,0 7.055,-2.725 13.04125,-2.725 2.99375,0 5.72,0.68125 7.1625,2.725 4.33,6.13375 0.36125,21.64875 -3.24625,24.535" />
    <path
       inkscape:connector-curvature="0"
       id="path124"
       style="fill:#5e3c26;fill-opacity:1;fill-rule:nonzero;stroke:none"
       d="m 186.47538,396.90712 c -2.1925,0 -3.96875,-1.77625 -3.96875,-3.96875 0,-2.19125 1.77625,-3.96875 3.96875,-3.96875 2.19125,0 3.96875,1.7775 3.96875,3.96875 0,2.1925 -1.7775,3.96875 -3.96875,3.96875" />
    <path
       inkscape:connector-curvature="0"
       id="path126"
       style="fill:#774b2d;fill-opacity:1;fill-rule:nonzero;stroke:none"
       d="m 592.52663,350.97712 c 1.60375,5.95875 -22.55625,2.5575 -28.4225,0.0238 -7.26875,-3.1375 -7.1825,-3.755 -9.1675,-12.35125 -1.98375,-8.5975 -3.1125,-17.01 4.6025,-18.79125 0,0 25.69125,4.02125 32.9875,31.11875" />
    <path
       inkscape:connector-curvature="0"
       id="path128"
       style="fill:#bfa08a;fill-opacity:1;fill-rule:nonzero;stroke:none"
       d="m 151.26413,384.49962 c -3.8525,21.6875 -13.91625,30.5025 -13.91625,30.5025 0,0 -7.0675,10.62375 9.03,17.89375 20.94625,9.46 42.9275,-4.9325 42.9275,-4.9325 -10.6275,-29.33875 -27.5225,-40.79125 -38.04125,-43.46375" />
    <path
       inkscape:connector-curvature="0"
       id="path130"
       style="fill:#55473a;fill-opacity:1;fill-rule:nonzero;stroke:none"
       d="m 145.25038,432.19712 c 0,0 11.065,-12.29 -2.405,-19.8675 -13.47,-7.57625 -13.22875,15.53875 2.405,19.8675" />
    <path
       inkscape:connector-curvature="0"
       id="path426"
       style="fill:#774b2d;fill-opacity:1;fill-rule:nonzero;stroke:none"
       d="m 301.01913,261.59587 c 0,0 15.2325,-10.365 25.40625,-8.23 1.38125,2.6025 -6.39,5.835 -6.39,5.835 0,0 7.30875,-2.885 14.8325,-1.79875 0.08,2.03375 -10.38625,6.6425 -10.38625,6.6425 l -23.4625,-2.44875" />
    <path
       inkscape:connector-curvature="0"
       id="path428"
       style="fill:#774b2d;fill-opacity:1;fill-rule:nonzero;stroke:none"
       d="m 309.59413,264.04462 c 0,0 7.40375,-6.6425 -0.22875,-13.28625 0,0 -12.99,2.89875 -25.12,18.03" />
  </g>
</svg>
