<?xml version="1.0" encoding="UTF-8" standalone="no"?>
<!-- Created with Inkscape (http://www.inkscape.org/) -->

<svg
   xmlns:dc="http://purl.org/dc/elements/1.1/"
   xmlns:cc="http://creativecommons.org/ns#"
   xmlns:rdf="http://www.w3.org/1999/02/22-rdf-syntax-ns#"
   xmlns:svg="http://www.w3.org/2000/svg"
   xmlns="http://www.w3.org/2000/svg"
   xmlns:sodipodi="http://sodipodi.sourceforge.net/DTD/sodipodi-0.dtd"
   xmlns:inkscape="http://www.inkscape.org/namespaces/inkscape"
   width="376.4538"
   height="294.52875"
   id="svg4431"
   version="1.1"
   inkscape:version="0.48.4 r9939"
   sodipodi:docname="New document 18">
  <defs
     id="defs4433" />
  <metadata
     id="metadata4436">
    <rdf:RDF>
      <cc:Work
         rdf:about="">
        <dc:format>image/svg+xml</dc:format>
        <dc:type
           rdf:resource="http://purl.org/dc/dcmitype/StillImage" />
        <dc:title></dc:title>
      </cc:Work>
    </rdf:RDF>
  </metadata>
  <g
     inkscape:label="Layer 1"
     inkscape:groupmode="layer"
     id="layer1"
     transform="translate(-186.77311,-385.09781)">
    <path
       inkscape:connector-curvature="0"
       id="path458"
       style="fill:#855434;fill-opacity:1;fill-rule:nonzero;stroke:none"
       d="m 226.40315,643.66656 c -4.28375,-12.28375 -11.425,-24.2775 -10.24625,-37.33 0.91375,-10.13 2.43125,-15.2025 11.17875,-19.17625 -19.9875,-24.10375 -29.23125,-58.0075 -24.49625,-89.84625 4.735,-31.83875 22.505,-47.58125 48.495,-63.84 36.375,-22.755 79.86125,7.42875 121.6475,13.1325 30.8075,4.20625 63.5925,-17.3975 92.17,-4.37125 28.57625,13.0275 55.61875,21.3575 69.1125,51.32 0,0 -31.2875,48.46875 -34.12625,57.75875 -2.98125,0.71375 -5.94625,1.81 -8.7725,2.915 -8.54625,3.34125 -17.09375,6.68375 -25.64,10.02625 2.425,-5.42875 3.27625,-10.80125 1.65625,-17.35 -2.23125,-9.02 -8.4125,-16.335 -15.20125,-22.1825 -9.58375,-8.25375 -21.83875,-14.51 -33.91875,-12.04125 -12.07,2.4675 -21.36125,13.1775 -26.95125,24.89875 -8.62875,18.09125 -0.0425,35.89375 0.29125,55.6625 -6.5525,2.5625 -13.10375,5.125 -19.65625,7.6875 -16.09,6.29125 -33.055,13.33375 -44.7575,26.24375 -2.68625,-0.3425 -5.39875,-0.7125 -8.16125,-1.13125 -5.63375,-0.855 -10.99625,-3.3525 -16.19375,-5.92875 -9.5925,12.3775 -20.53125,27.67375 -31.86375,35.04375 -1.57125,12.2475 21.30625,1.061 22.51875,24.46875 l -67.665,0 c -4.905,-21.90388 4.46875,-24.80763 0.58,-35.96" />
    <path
       inkscape:connector-curvature="0"
       id="path460"
       style="fill:#855434;fill-opacity:1;fill-rule:nonzero;stroke:none"
       d="m 230.47065,510.42656 c -11.4875,2.69625 -24.2975,0.3275 -33.245,-7.84875 -8.94625,-8.17625 -13.13,-22.48125 -8.62625,-34.11875 4.5025,-11.6375 18.27125,-18.61875 29.0325,-13.54 8.18,3.86 13.09625,13.295 14.45125,22.7575 1.35625,9.4625 -0.26875,19.09125 -1.88875,28.5075" />
    <path
       inkscape:connector-curvature="0"
       id="path462"
       style="fill:#d0885a;fill-opacity:1;fill-rule:nonzero;stroke:none"
       d="m 371.94565,600.93031 c 39.8075,-15.5675 79.61375,-31.135 119.42,-46.70125 2.82625,-1.105 5.79125,-2.20125 8.7725,-2.915 -10.69625,35.0125 -56.1575,90.77625 -172.95,75.86 11.7025,-12.91 28.6675,-19.9525 44.7575,-26.24375" />
    <path
       inkscape:connector-curvature="0"
       id="path464"
       style="fill:#855434;fill-opacity:1;fill-rule:nonzero;stroke:none"
       d="m 522.41065,406.27031 c 0,11.69375 9.47875,21.1725 21.1725,21.1725 11.6925,0 17.47875,-9.47875 17.47875,-21.1725 0,-11.6925 -5.78625,-21.1725 -17.47875,-21.1725 -11.69375,0 -21.1725,9.48 -21.1725,21.1725" />
    <path
       inkscape:connector-curvature="0"
       id="path466"
       style="fill:#d0885a;fill-opacity:1;fill-rule:nonzero;stroke:none"
       d="m 522.41065,411.68656 c 0,8.70125 7.05375,15.75625 15.75625,15.75625 8.7025,0 13.00875,-7.055 13.00875,-15.75625 0,-8.7025 -4.30625,-15.7575 -13.00875,-15.7575 -8.7025,0 -15.75625,7.055 -15.75625,15.7575" />
    <path
       inkscape:connector-curvature="0"
       id="path468"
       style="fill:#855434;fill-opacity:1;fill-rule:nonzero;stroke:none"
       d="m 462.57315,406.27031 c 0,11.69375 -9.47875,21.1725 -21.1725,21.1725 -11.6925,0 -17.47875,-9.47875 -17.47875,-21.1725 0,-11.6925 5.78625,-21.1725 17.47875,-21.1725 11.69375,0 21.1725,9.48 21.1725,21.1725" />
    <path
       inkscape:connector-curvature="0"
       id="path470"
       style="fill:#d0885a;fill-opacity:1;fill-rule:nonzero;stroke:none"
       d="m 462.57315,411.68656 c 0,8.70125 -7.05375,15.75625 -15.75625,15.75625 -8.7025,0 -13.00875,-7.055 -13.00875,-15.75625 0,-8.7025 4.30625,-15.7575 13.00875,-15.7575 8.7025,0 15.75625,7.055 15.75625,15.7575" />
    <path
       inkscape:connector-curvature="0"
       id="path472"
       style="fill:#855434;fill-opacity:1;fill-rule:nonzero;stroke:none"
       d="m 421.7569,464.86531 c 0,39.065 31.66875,58.42375 70.735,58.42375 39.06625,0 70.735,-19.35875 70.735,-58.42375 0,-39.06625 -31.66875,-70.73625 -70.735,-70.73625 -39.06625,0 -70.735,31.67 -70.735,70.73625" />
    <path
       inkscape:connector-curvature="0"
       id="path474"
       style="fill:#d0885a;fill-opacity:1;fill-rule:nonzero;stroke:none"
       d="m 487.43565,523.90406 c -11.9025,-0.0413 -22.975,-8.65375 -21.745,-22.1875 2.30625,-12.68125 12.95125,-19.96125 21.29,-28.54375 1.085,-1.1175 2.56875,-1.75125 4.1275,-1.75125 l 2.7675,0 c 1.55875,0 3.0425,0.63375 4.1275,1.75125 8.33875,8.5825 18.98375,15.8625 21.29,28.54375 1.23,13.53375 -9.8425,22.14625 -21.745,22.1875 l -10.1125,0" />
    <path
       inkscape:connector-curvature="0"
       id="path476"
       style="fill:#855434;fill-opacity:1;fill-rule:nonzero;stroke:none"
       d="m 391.6019,593.24281 c -0.33375,-19.76875 -8.92,-37.57125 -0.29125,-55.6625 5.59,-11.72125 14.88125,-22.43125 26.95125,-24.89875 12.08,-2.46875 24.335,3.7875 33.91875,12.04125 6.78875,5.8475 12.97,13.1625 15.20125,22.1825 1.62,6.54875 0.76875,11.92125 -1.65625,17.35 -0.915,2.04875 -2.0475,4.10375 -3.365,6.235 -10.47625,16.9325 -21.23,34.625 -23.7975,54.75125 -1.42125,11.14375 -1.59,22.31125 2.1275,32.82875 7.735,3.92875 27.32625,3.23637 26.26375,21.55625 l -56.17875,0 c -14.79,-22.65775 -21.79625,-52.45125 -19.39125,-79.82625 0.195,-2.21125 0.25375,-4.395 0.2175,-6.5575" />
    <path
       inkscape:connector-curvature="0"
       id="path478"
       style="fill:#3e2735;fill-opacity:1;fill-rule:nonzero;stroke:none"
       d="m 466.55815,462.00906 c 0,2.67125 -2.165,4.83625 -4.835,4.83625 -2.67125,0 -4.83625,-2.165 -4.83625,-4.83625 0,-2.67 2.165,-4.835 4.83625,-4.835 2.67,0 4.835,2.165 4.835,4.835" />
    <path
       inkscape:connector-curvature="0"
       id="path480"
       style="fill:none;stroke:#3e2735;stroke-width:1.25;stroke-linecap:butt;stroke-linejoin:miter;stroke-miterlimit:10;stroke-opacity:1;stroke-dasharray:none"
       d="m 466.55815,462.00906 c 0,2.67125 -2.165,4.83625 -4.835,4.83625 -2.67125,0 -4.83625,-2.165 -4.83625,-4.83625 0,-2.67 2.165,-4.835 4.83625,-4.835 2.67,0 4.835,2.165 4.835,4.835 z" />
    <path
       inkscape:connector-curvature="0"
       id="path482"
       style="fill:#3e2735;fill-opacity:1;fill-rule:nonzero;stroke:none"
       d="m 517.8869,462.00906 c 0,2.67125 2.165,4.83625 4.835,4.83625 2.67125,0 4.83625,-2.165 4.83625,-4.83625 0,-2.67 -2.165,-4.835 -4.83625,-4.835 -2.67,0 -4.835,2.165 -4.835,4.835" />
    <path
       inkscape:connector-curvature="0"
       id="path484"
       style="fill:none;stroke:#3e2735;stroke-width:1.25;stroke-linecap:butt;stroke-linejoin:miter;stroke-miterlimit:10;stroke-opacity:1;stroke-dasharray:none"
       d="m 517.8869,462.00906 c 0,2.67125 2.165,4.83625 4.835,4.83625 2.67125,0 4.83625,-2.165 4.83625,-4.83625 0,-2.67 -2.165,-4.835 -4.83625,-4.835 -2.67,0 -4.835,2.165 -4.835,4.835 z" />
    <path
       inkscape:connector-curvature="0"
       id="path486"
       style="fill:#3e2735;fill-opacity:1;fill-rule:nonzero;stroke:none"
       d="m 481.2194,491.91781 c 0,4.49875 4.92625,8.14625 11.0025,8.14625 6.0775,0 11.00375,-3.6475 11.00375,-8.14625 0,-4.49875 -4.92625,-8.14625 -11.00375,-8.14625 -6.07625,0 -11.0025,3.6475 -11.0025,8.14625" />
  </g>
</svg>
