<?xml version="1.0" encoding="UTF-8" standalone="no"?>
<!-- Created with Inkscape (http://www.inkscape.org/) -->

<svg
   xmlns:dc="http://purl.org/dc/elements/1.1/"
   xmlns:cc="http://creativecommons.org/ns#"
   xmlns:rdf="http://www.w3.org/1999/02/22-rdf-syntax-ns#"
   xmlns:svg="http://www.w3.org/2000/svg"
   xmlns="http://www.w3.org/2000/svg"
   xmlns:sodipodi="http://sodipodi.sourceforge.net/DTD/sodipodi-0.dtd"
   xmlns:inkscape="http://www.inkscape.org/namespaces/inkscape"
   width="72.742424mm"
   height="31.170168mm"
   viewBox="0 0 257.74875 110.44548"
   id="svg4106"
   version="1.1"
   inkscape:version="0.91 r"
   sodipodi:docname="beaver.svg">
  <defs
     id="defs4108" />
  <sodipodi:namedview
     id="base"
     pagecolor="#ffffff"
     bordercolor="#666666"
     borderopacity="1.0"
     inkscape:pageopacity="0.0"
     inkscape:pageshadow="2"
     inkscape:zoom="0.35"
     inkscape:cx="-34.697056"
     inkscape:cy="-24.777265"
     inkscape:document-units="px"
     inkscape:current-layer="layer1"
     showgrid="false"
     fit-margin-top="0"
     fit-margin-left="0"
     fit-margin-right="0"
     fit-margin-bottom="0"
     inkscape:window-width="959"
     inkscape:window-height="1028"
     inkscape:window-x="960"
     inkscape:window-y="0"
     inkscape:window-maximized="0" />
  <metadata
     id="metadata4111">
    <rdf:RDF>
      <cc:Work
         rdf:about="">
        <dc:format>image/svg+xml</dc:format>
        <dc:type
           rdf:resource="http://purl.org/dc/dcmitype/StillImage" />
        <dc:title></dc:title>
      </cc:Work>
    </rdf:RDF>
  </metadata>
  <g
     inkscape:label="Layer 1"
     inkscape:groupmode="layer"
     id="layer1"
     transform="translate(286.01723,-397.13946)">
    <path
       inkscape:connector-curvature="0"
       id="path92"
       style="fill:#efeeed;fill-opacity:1;fill-rule:nonzero;stroke:none"
       d="m -207.14348,501.22994 c -43.56125,0 -78.87375,-3.7575 -78.87375,-8.3925 0,-4.63375 35.3125,-8.39125 78.87375,-8.39125 43.56125,0 78.875,3.7575 78.875,8.39125 0,4.635 -35.31375,8.3925 -78.875,8.3925" />
    <path
       inkscape:connector-curvature="0"
       id="path94"
       style="fill:#efeeed;fill-opacity:1;fill-rule:nonzero;stroke:none"
       d="m -76.822232,507.58494 c -26.814998,0 -48.552498,-3.75625 -48.552498,-8.39125 0,-4.635 21.7375,-8.39125 48.552498,-8.39125 26.81625,0 48.55375,3.75625 48.55375,8.39125 0,4.635 -21.7375,8.39125 -48.55375,8.39125" />
    <path
       inkscape:connector-curvature="0"
       id="path96"
       style="fill:#554135;fill-opacity:1;fill-rule:nonzero;stroke:none"
       d="m -137.72473,474.88369 c 0,0 19.805,27.20375 52.813748,28.08125 33.00875,0.8775 48.2525,1.54375 42.97125,-13.08125 -4.9575,-13.72625 -38.715,-12.30375 -57.5175,-7.695 -20.252498,4.965 -27.406248,-12.715 -31.037498,-13.5925 -3.63,-0.8775 -11.01625,-1.20125 -7.23,6.2875" />
    <path
       inkscape:connector-curvature="0"
       id="path98"
       style="fill:#91541f;fill-opacity:1;fill-rule:nonzero;stroke:none"
       d="m -268.35223,419.27869 c -0.695,-6.50375 19.385,-21.755 39.01375,-17.10875 9.1975,2.1775 16.1975,9.265 22.195,9.83625 11.4425,1.09125 40.76375,-11.09875 66.2275,2.3475 19.01125,10.04 26.08,38.4325 19.1425,65.63625 -3.96375,15.5475 -31.32125,20.2175 -46.23875,19.0475 -14.9175,-1.17 -37.9525,0.39625 -44.095,-3.40625 -6.1425,-3.8025 -1.46625,-8.635 11.6275,-10.86625 0,0 -9.0675,-9.36 -5.5575,-18.135 l -6.2925,-2.3975 c -3.39125,-1.29125 -7.07,-1.59375 -10.63125,-0.89625 -5.82875,1.14 -14.02875,0.3825 -28.01375,-5.8375 -3.835,-1.705 -12.10125,-4.03125 -17.65875,-4.90875 -5.5575,-0.8775 -1.10625,-10.40125 10.4025,-7.50375 3.4375,0.865 6.76875,1.64125 9.6325,1.38125 4.79,-0.435 4.70375,-7.32875 0.75125,-10.06875 -6.8325,-4.73625 -19.22375,-5.145 -20.505,-17.12" />
    <path
       inkscape:connector-curvature="0"
       id="path100"
       style="fill:#82441b;fill-opacity:1;fill-rule:nonzero;stroke:none"
       d="m -226.44473,406.99119 c -2.59125,2.1475 -7.29625,2.905 -9.19875,0.6075 -1.90375,-2.2975 -0.285,-6.78 2.305,-8.92625 2.59125,-2.14625 6.23375,-2.02375 8.1375,0.2725 1.90375,2.2975 1.34625,5.9 -1.24375,8.04625" />
    <path
       inkscape:connector-curvature="0"
       id="path102"
       style="fill:#ac6a39;fill-opacity:1;fill-rule:nonzero;stroke:none"
       d="m -154.55723,481.54744 c -9.11875,-10.9675 -9.8225,-27.25125 -22.10875,-32.30125 -3.735,-1.535 -20.80125,-5.53875 -29.37125,17.38375 -3.51,8.775 5.5575,18.135 5.5575,18.135 -9.02125,0 -18.79625,3.535 -18.79625,12.87125 15.23375,1.80625 36.2375,0.23125 51.155,1.40125 14.355,1.12625 44.765,-3.73375 44.765,-18.67125 -2.43125,10.4525 -20.50125,14.0525 -31.20125,1.18125" />
    <path
       inkscape:connector-curvature="0"
       id="path104"
       style="fill:#4d4338;fill-opacity:1;fill-rule:nonzero;stroke:none"
       d="m -262.84723,419.35119 c 0,0 -1.29125,-5.9225 -4.33875,-3.63 -3.0475,2.2925 -3.46375,5.99 -1.2875,7.2225 2.175,1.23375 6.88375,2.005 5.62625,-3.5925" />
    <path
       inkscape:connector-curvature="0"
       id="path106"
       style="fill:#623518;fill-opacity:1;fill-rule:nonzero;stroke:none"
       d="m -245.90848,418.12619 c 0,1.07125 -0.8675,1.94 -1.93875,1.94 -1.07125,0 -1.94,-0.86875 -1.94,-1.94 0,-1.07125 0.86875,-1.93875 1.94,-1.93875 1.07125,0 1.93875,0.8675 1.93875,1.93875" />
  </g>
</svg>
