<?xml version="1.0" encoding="UTF-8" standalone="no"?>
<!-- Created with Inkscape (http://www.inkscape.org/) -->

<svg
   xmlns:dc="http://purl.org/dc/elements/1.1/"
   xmlns:cc="http://creativecommons.org/ns#"
   xmlns:rdf="http://www.w3.org/1999/02/22-rdf-syntax-ns#"
   xmlns:svg="http://www.w3.org/2000/svg"
   xmlns="http://www.w3.org/2000/svg"
   xmlns:sodipodi="http://sodipodi.sourceforge.net/DTD/sodipodi-0.dtd"
   xmlns:inkscape="http://www.inkscape.org/namespaces/inkscape"
   width="368.22122"
   height="535.60516"
   id="svg4530"
   version="1.1"
   inkscape:version="0.48.4 r9939"
   sodipodi:docname="New document 21">
  <defs
     id="defs4532" />
  <sodipodi:namedview
     id="base"
     pagecolor="#ffffff"
     bordercolor="#666666"
     borderopacity="1.0"
     inkscape:pageopacity="0.0"
     inkscape:pageshadow="2"
     inkscape:zoom="0.35"
     inkscape:cx="184.08625"
     inkscape:cy="267.77124"
     inkscape:document-units="px"
     inkscape:current-layer="layer1"
     showgrid="false"
     fit-margin-top="0"
     fit-margin-left="0"
     fit-margin-right="0"
     fit-margin-bottom="0"
     inkscape:window-width="472"
     inkscape:window-height="415"
     inkscape:window-x="1448"
     inkscape:window-y="24"
     inkscape:window-maximized="0" />
  <metadata
     id="metadata4535">
    <rdf:RDF>
      <cc:Work
         rdf:about="">
        <dc:format>image/svg+xml</dc:format>
        <dc:type
           rdf:resource="http://purl.org/dc/dcmitype/StillImage" />
        <dc:title></dc:title>
      </cc:Work>
    </rdf:RDF>
  </metadata>
  <g
     inkscape:label="Layer 1"
     inkscape:groupmode="layer"
     id="layer1"
     transform="translate(-190.91375,-264.52824)">
    <path
       inkscape:connector-curvature="0"
       id="path48"
       style="fill:#f2e4cf;fill-opacity:1;fill-rule:nonzero;stroke:none"
       d="m 452.45625,487.4797 c 2.7475,37.49125 -1.0825,75.44125 -11.1375,111.66 1.07125,-1.51625 1.75875,-2.4575 1.75875,-2.4575 24.1575,-23.96 32.6375,-48.2025 26.51875,-139.1975 l -15.98,-2.9725 c -0.58125,1.83125 -1.035,3.70125 -1.3525,5.57375 -1.52625,9.02875 -0.4775,18.2625 0.1925,27.39375" />
    <path
       inkscape:connector-curvature="0"
       id="path50"
       style="fill:#f2e4cf;fill-opacity:1;fill-rule:nonzero;stroke:none"
       d="m 191.46312,541.3172 c -0.18462,0.26875 -0.3735,0.53375 -0.54937,0.8075 7.1295,7.0025 16.59525,11.585 26.51037,12.83375 5.435,0.68375 10.36963,-0.12 14.2665,-3.97 1.85688,-1.8325 3.28313,-4.2275 4.16563,-6.80625 -14.39563,-3.955 -29.607,-4.92375 -44.39313,-2.865" />
    <path
       inkscape:connector-curvature="0"
       id="path52"
       style="fill:#d0885a;fill-opacity:1;fill-rule:nonzero;stroke:none"
       d="m 235.85625,544.1822 c 0.97,-2.835 1.27875,-5.8925 0.69125,-8.70125 -6.59463,-5.69625 -15.71138,-8.3575 -24.33488,-7.10125 -8.30075,1.2075 -15.99662,6.03125 -20.7495,12.9375 14.78613,-2.05875 29.9975,-1.09 44.39313,2.865" />
    <path
       inkscape:connector-curvature="0"
       id="path54"
       style="fill:#3e2735;fill-opacity:1;fill-rule:nonzero;stroke:none"
       d="m 245.28,800.13333 19.835,0 -8.49625,-12.5435 c -0.09,-0.3725 -0.17125,-0.72513 -0.25875,-1.09125 -4.53625,3.41837 -9.28875,6.54875 -14.215,9.376 1.59,2.2675 3.135,4.25875 3.135,4.25875" />
    <path
       inkscape:connector-curvature="0"
       id="path56"
       style="fill:#3e2735;fill-opacity:1;fill-rule:nonzero;stroke:none"
       d="m 413.20375,800.06445 c 8.26625,-0.25337 13.705,0.249 21.97,-0.005 -3.39,-3.67875 -6.78125,-9.021 -10.17125,-12.69975 0.0187,-0.83888 0.0263,-1.68163 0.0437,-2.52138 -5.24125,2.53125 -10.70625,4.58388 -16.315,6.13763 1.09625,3.76125 2.53375,6.87987 4.4725,9.08837" />
    <path
       inkscape:connector-curvature="0"
       id="path58"
       style="fill:#d0885a;fill-opacity:1;fill-rule:nonzero;stroke:none"
       d="m 452.26375,460.08595 c 0.3175,-1.8725 0.77125,-3.7425 1.3525,-5.57375 l -25.3525,-4.71625 c 4.27125,51.71625 -30.275,65.145 -30.275,65.145 -30.34125,9.11625 -62.46,12.28125 -93.9975,9.2625 -16.60125,-1.58875 -33.655,-4.8325 -49.69625,-0.2725 -16.37625,4.655 -30.10975,17.73875 -35.55213,33.8725 -5.44237,16.13125 -2.44187,34.86125 7.76813,48.48625 0.26212,20.36375 -2.63188,43.70125 -21.80563,50.56875 24.436,41.85625 17.51463,88.07125 34.16963,133.58738 0.465,1.269 1.88375,3.45412 3.27,5.42875 4.92625,-2.82725 9.67875,-5.95763 14.215,-9.376 -8.2475,-34.59763 -6.0825,-45.18388 -10.4375,-87.04763 -0.695,-6.69125 -1.4425,-28.645 1.35,-34.76375 3.845,-8.42875 31.42625,-30.1975 32.0075,-49.7525 36.50625,12.935 79.27625,-3.1375 115.7825,9.7975 6.84375,24.97375 1.94875,47.35875 2.03625,73.25375 11.38,22.4725 4.9525,70.07613 11.6325,92.99013 5.60875,-1.55375 11.07375,-3.60638 16.315,-6.13763 1.00625,-47.55625 -0.1,-95.6025 0.9825,-143.14125 0.165,-7.24375 0.35,-14.61125 2.6175,-21.4925 1.73125,-5.2525 9.22,-16.18 12.6725,-21.065 10.055,-36.21875 13.885,-74.16875 11.1375,-111.66 -0.67,-9.13125 -1.71875,-18.365 -0.1925,-27.39375" />
    <path
       inkscape:connector-curvature="0"
       id="path60"
       style="fill:none;stroke:#855434;stroke-width:7.5;stroke-linecap:round;stroke-linejoin:round;stroke-miterlimit:10;stroke-opacity:1;stroke-dasharray:none"
       d="m 440.065,394.8897 c -3.08625,-11.8075 -12.74,-20.7825 -23.035,-27.3375 -10.295,-6.555 -21.675,-11.41875 -31.345,-18.865 -23.66,-18.2175 -33.8825,-52.07875 -24.25625,-80.34625" />
    <path
       inkscape:connector-curvature="0"
       id="path62"
       style="fill:none;stroke:#855434;stroke-width:5;stroke-linecap:round;stroke-linejoin:round;stroke-miterlimit:10;stroke-opacity:1;stroke-dasharray:none"
       d="M 343.22375,331.09095 C 354.17,346.1822 372.47125,355.6647 391.1125,355.9022" />
    <path
       inkscape:connector-curvature="0"
       id="path64"
       style="fill:none;stroke:#855434;stroke-width:5;stroke-linecap:round;stroke-linejoin:round;stroke-miterlimit:10;stroke-opacity:1;stroke-dasharray:none"
       d="m 380.0225,335.6922 c 5.495,-12.47875 10.99125,-14.96875 16.48625,-27.44625 3.34625,-7.59625 6.6675,-21.53125 2.72375,-28.835" />
    <path
       inkscape:connector-curvature="0"
       id="path66"
       style="fill:none;stroke:#855434;stroke-width:5;stroke-linecap:round;stroke-linejoin:round;stroke-miterlimit:10;stroke-opacity:1;stroke-dasharray:none"
       d="m 415.97625,361.8972 c 3.57375,-4.76375 7.14875,-9.5275 10.72375,-14.29125 3.31125,-4.4125 6.685,-8.94375 8.2925,-14.22125 1.6075,-5.27875 1.12125,-11.5425 -2.63375,-15.58375" />
    <path
       inkscape:connector-curvature="0"
       id="path68"
       style="fill:none;stroke:#855434;stroke-width:7.5;stroke-linecap:round;stroke-linejoin:round;stroke-miterlimit:10;stroke-opacity:1;stroke-dasharray:none"
       d="m 459.745,394.8897 c 3.08625,-11.8075 12.74,-20.7825 23.035,-27.3375 10.29625,-6.555 21.675,-11.41875 31.345,-18.865 23.66,-18.2175 33.8825,-52.07875 24.2575,-80.34625" />
    <path
       inkscape:connector-curvature="0"
       id="path70"
       style="fill:none;stroke:#855434;stroke-width:5;stroke-linecap:round;stroke-linejoin:round;stroke-miterlimit:10;stroke-opacity:1;stroke-dasharray:none"
       d="M 556.58625,331.09095 C 545.64,346.1822 527.34,355.6647 508.6975,355.9022" />
    <path
       inkscape:connector-curvature="0"
       id="path72"
       style="fill:none;stroke:#855434;stroke-width:5;stroke-linecap:round;stroke-linejoin:round;stroke-miterlimit:10;stroke-opacity:1;stroke-dasharray:none"
       d="m 519.78875,335.6922 c -5.49625,-12.47875 -10.9925,-14.96875 -16.4875,-27.44625 -3.34625,-7.59625 -6.66625,-21.53125 -2.7225,-28.835" />
    <path
       inkscape:connector-curvature="0"
       id="path74"
       style="fill:none;stroke:#855434;stroke-width:5;stroke-linecap:round;stroke-linejoin:round;stroke-miterlimit:10;stroke-opacity:1;stroke-dasharray:none"
       d="m 483.835,361.8972 c -3.575,-4.76375 -7.15,-9.5275 -10.725,-14.29125 -3.31125,-4.4125 -6.68375,-8.94375 -8.29125,-14.22125 -1.60875,-5.27875 -1.1225,-11.5425 2.6325,-15.58375" />
    <path
       inkscape:connector-curvature="0"
       id="path76"
       style="fill:#3e2735;fill-opacity:1;fill-rule:nonzero;stroke:none"
       d="m 507.81875,365.7097 c 4.55125,2.945 8.41375,6.96125 11.0775,11.685 1.21625,2.155 2.1475,4.4575 2.8525,6.82875 3.76,-6.66 5.8525,-13.97875 5.8525,-20.88625 -6.13875,0.3375 -13.215,0.83125 -19.7825,2.3725" />
    <path
       inkscape:connector-curvature="0"
       id="path78"
       style="fill:#3e2735;fill-opacity:1;fill-rule:nonzero;stroke:none"
       d="m 391.99125,365.7097 c -6.56625,-1.54125 -13.6425,-2.035 -19.7825,-2.3725 0,6.9075 2.09375,14.225 5.8525,20.88625 0.705,-2.37125 1.63625,-4.67375 2.8525,-6.82875 2.66375,-4.72375 6.52625,-8.74 11.0775,-11.685" />
    <path
       inkscape:connector-curvature="0"
       id="path80"
       style="fill:#d0885a;fill-opacity:1;fill-rule:nonzero;stroke:none"
       d="m 507.81875,365.7097 c -5.11625,1.20125 -9.925,3.03875 -13.74,5.93375 -15.28,11.59375 -15.625,25.28 -16.44625,25.09 -18.58375,-4.31 -37.07,-3.5525 -55.455,0 -0.8275,0.16 -1.16625,-13.49625 -16.44625,-25.09 -3.815,-2.895 -8.6225,-4.7325 -13.74,-5.93375 -4.55125,2.945 -8.41375,6.96125 -11.0775,11.685 -1.21625,2.155 -2.1475,4.4575 -2.8525,6.82875 2.5875,4.58375 5.95875,8.86 10.00875,12.46375 5.95625,5.3 18.7025,10.81375 26.64875,10.16875 0,0 -0.7825,5.1825 -0.45,16.475 0.54,18.35375 8.69875,34.94 13.95,40.34 1.13375,1.165 2.5775,2.83875 4.20625,4.68375 2.3075,-9.78375 9.26,-16.89375 17.48,-16.89375 8.22,0 15.17375,7.11 17.48,16.89375 1.62875,-1.845 3.07375,-3.51875 4.20625,-4.68375 5.2525,-5.4 13.41,-21.98625 13.95,-40.34 0.3325,-11.2925 -0.45,-16.475 -0.45,-16.475 7.94625,0.645 20.6925,-4.86875 26.64875,-10.16875 4.05,-3.60375 7.42125,-7.88 10.00875,-12.46375 -0.705,-2.37125 -1.63625,-4.67375 -2.8525,-6.82875 -2.66375,-4.72375 -6.52625,-8.74 -11.0775,-11.685" />
    <path
       inkscape:connector-curvature="0"
       id="path82"
       style="fill:#3e2735;fill-opacity:1;fill-rule:nonzero;stroke:none"
       d="m 467.7775,430.34345 c 0,2.20625 1.78875,3.995 3.995,3.995 2.20625,0 3.995,-1.78875 3.995,-3.995 0,-2.20625 -1.78875,-3.995 -3.995,-3.995 -2.20625,0 -3.995,1.78875 -3.995,3.995" />
    <path
       inkscape:connector-curvature="0"
       id="path84"
       style="fill:#3e2735;fill-opacity:1;fill-rule:nonzero;stroke:none"
       d="m 432.0325,430.34345 c 0,2.20625 -1.78875,3.995 -3.995,3.995 -2.20625,0 -3.995,-1.78875 -3.995,-3.995 0,-2.20625 1.78875,-3.995 3.995,-3.995 2.20625,0 3.995,1.78875 3.995,3.995" />
    <path
       inkscape:connector-curvature="0"
       id="path86"
       style="fill:#f2e4cf;fill-opacity:1;fill-rule:nonzero;stroke:none"
       d="m 449.905,451.46095 c -8.22,0 -15.1725,7.11 -17.48,16.89375 5.26875,5.97 12.48375,13.76125 17.48,12.12875 4.9975,1.6325 12.2125,-6.15875 17.48,-12.12875 -2.30625,-9.78375 -9.25875,-16.89375 -17.48,-16.89375" />
    <path
       inkscape:connector-curvature="0"
       id="path88"
       style="fill:#3e2735;fill-opacity:1;fill-rule:nonzero;stroke:none"
       d="m 458.99625,466.1547 c 0,3.71625 -4.07,6.73 -9.09125,6.73 -5.02,0 -9.09,-3.01375 -9.09,-6.73 0,-3.7175 4.07,-6.73125 9.09,-6.73125 5.02125,0 9.09125,3.01375 9.09125,6.73125" />
    <path
       inkscape:connector-curvature="0"
       id="path90"
       style="fill:#f2e4cf;fill-opacity:1;fill-rule:nonzero;stroke:none"
       d="m 267.0375,538.1322 c 0,3.7025 -3.00125,6.70375 -6.70375,6.70375 -3.7025,0 -6.70375,-3.00125 -6.70375,-6.70375 0,-3.70375 3.00125,-6.705 6.70375,-6.705 3.7025,0 6.70375,3.00125 6.70375,6.705" />
    <path
       inkscape:connector-curvature="0"
       id="path92"
       style="fill:#f2e4cf;fill-opacity:1;fill-rule:nonzero;stroke:none"
       d="m 310.76375,541.48345 c 0,1.85125 -1.5,3.3525 -3.35125,3.3525 -1.85125,0 -3.3525,-1.50125 -3.3525,-3.3525 0,-1.85125 1.50125,-3.35125 3.3525,-3.35125 1.85125,0 3.35125,1.5 3.35125,3.35125" />
    <path
       inkscape:connector-curvature="0"
       id="path94"
       style="fill:#f2e4cf;fill-opacity:1;fill-rule:nonzero;stroke:none"
       d="m 346.22375,536.45595 c 0,2.77625 -2.25125,5.0275 -5.0275,5.0275 -2.7775,0 -5.02875,-2.25125 -5.02875,-5.0275 0,-2.7775 2.25125,-5.02875 5.02875,-5.02875 2.77625,0 5.0275,2.25125 5.0275,5.02875" />
    <path
       inkscape:connector-curvature="0"
       id="path96"
       style="fill:#f2e4cf;fill-opacity:1;fill-rule:nonzero;stroke:none"
       d="m 367.16875,549.5047 c 0,2.57875 -2.09125,4.67 -4.67,4.67 -2.57875,0 -4.66875,-2.09125 -4.66875,-4.67 0,-2.57875 2.09,-4.66875 4.66875,-4.66875 2.57875,0 4.67,2.09 4.67,4.66875" />
    <path
       inkscape:connector-curvature="0"
       id="path98"
       style="fill:#f2e4cf;fill-opacity:1;fill-rule:nonzero;stroke:none"
       d="m 391.99125,536.37345 c 0,2.73125 -2.21375,4.945 -4.945,4.945 -2.73125,0 -4.94625,-2.21375 -4.94625,-4.945 0,-2.73125 2.215,-4.94625 4.94625,-4.94625 2.73125,0 4.945,2.215 4.945,4.94625" />
    <path
       inkscape:connector-curvature="0"
       id="path100"
       style="fill:#f2e4cf;fill-opacity:1;fill-rule:nonzero;stroke:none"
       d="m 415.97625,520.45345 c 0,2 -1.6225,3.6225 -3.6225,3.6225 -2,0 -3.6225,-1.6225 -3.6225,-3.6225 0,-2 1.6225,-3.62125 3.6225,-3.62125 2,0 3.6225,1.62125 3.6225,3.62125" />
  </g>
</svg>
