<?xml version="1.0" encoding="UTF-8" standalone="no"?>
<!-- Created with Inkscape (http://www.inkscape.org/) -->

<svg
   xmlns:dc="http://purl.org/dc/elements/1.1/"
   xmlns:cc="http://creativecommons.org/ns#"
   xmlns:rdf="http://www.w3.org/1999/02/22-rdf-syntax-ns#"
   xmlns:svg="http://www.w3.org/2000/svg"
   xmlns="http://www.w3.org/2000/svg"
   xmlns:sodipodi="http://sodipodi.sourceforge.net/DTD/sodipodi-0.dtd"
   xmlns:inkscape="http://www.inkscape.org/namespaces/inkscape"
   width="63.287827mm"
   height="57.46838mm"
   viewBox="0 0 224.2482 203.62812"
   id="svg4624"
   version="1.1"
   inkscape:version="0.91 r"
   sodipodi:docname="duck.svg">
  <defs
     id="defs4626" />
  <sodipodi:namedview
     id="base"
     pagecolor="#ffffff"
     bordercolor="#666666"
     borderopacity="1.0"
     inkscape:pageopacity="0.0"
     inkscape:pageshadow="2"
     inkscape:zoom="0.35"
     inkscape:cx="-588.59019"
     inkscape:cy="24.671205"
     inkscape:document-units="px"
     inkscape:current-layer="layer1"
     showgrid="false"
     fit-margin-top="0"
     fit-margin-left="0"
     fit-margin-right="0"
     fit-margin-bottom="0"
     inkscape:window-width="960"
     inkscape:window-height="1028"
     inkscape:window-x="0"
     inkscape:window-y="0"
     inkscape:window-maximized="1" />
  <metadata
     id="metadata4629">
    <rdf:RDF>
      <cc:Work
         rdf:about="">
        <dc:format>image/svg+xml</dc:format>
        <dc:type
           rdf:resource="http://purl.org/dc/dcmitype/StillImage" />
        <dc:title></dc:title>
      </cc:Work>
    </rdf:RDF>
  </metadata>
  <g
     inkscape:label="Layer 1"
     inkscape:groupmode="layer"
     id="layer1"
     transform="translate(-267.8759,-353.40529)">
    <path
       inkscape:connector-curvature="0"
       id="path78"
       style="fill:#edecea;fill-opacity:1;fill-rule:nonzero;stroke:none"
       d="m 355.12693,557.03341 c -36.66088,0 -66.38013,-2.095 -66.38013,-4.6775 0,-2.58375 29.71925,-4.67875 66.38013,-4.67875 36.66,0 66.38,2.095 66.38,4.67875 0,2.5825 -29.72,4.6775 -66.38,4.6775" />
    <path
       inkscape:connector-curvature="0"
       id="path254"
       style="fill:#c17049;fill-opacity:1;fill-rule:nonzero;stroke:none"
       d="m 387.51193,548.53466 c -3.23875,-4.275 -1.14125,-12.74375 3.75,-23.75 l -7.5,0 c 0,0 -5.3125,20 -7.34375,21.5625 -1.51625,1.165 -11.1175,0.59125 -15.89625,0.225 -0.0125,-0.1275 -0.0412,-0.25 -0.0412,-0.38125 0,-4.6875 8.125,-25 8.125,-25 l -12.0925,-2.5 c 0,0 -0.82125,22.88375 -4.25875,27.57125 -3.4375,4.6875 -32.15313,2.895 -34.65313,6.3325 0,0 -1.63375,1.43625 20.58313,1.43625 19.91375,0 58.61375,1.52 59.72875,-0.66125 1.28375,-2.5125 -8.26125,-2.01 -10.40125,-4.835" />
    <path
       inkscape:connector-curvature="0"
       id="path256"
       style="fill:#564d4d;fill-opacity:1;fill-rule:nonzero;stroke:none"
       d="m 321.10568,396.50342 c 0,0 2.1875,10.625 -9.0625,26.5625 -11.25,15.9375 -26.5625,35.93749 -7.1875,66.56249 l 45.15625,-56.38999 c 0,0 -3.905,-7.6725 0,-15.485 3.90625,-7.8125 15.15625,-44.6875 -9.84375,-59.375 -25,-14.6875 -37.5,7.5 -39.6875,10.9375 -2.1875,3.4375 -2.89213,9.375 -4.88325,10.9375 0,0 6.01562,-2.1875 8.10587,-1.5625 2.08988,0.625 -0.41012,11.875 3.33988,14.0625 0,0 10.625,-1.875 14.0625,3.75" />
    <path
       inkscape:connector-curvature="0"
       id="path258"
       style="fill:#ffffff;fill-opacity:1;fill-rule:nonzero;stroke:none"
       d="m 348.66318,421.64717 c -2.96875,-1.3425 -6.68375,-3.04625 -9.745,-4.51875 -4.315,-2.0775 -14.36525,-5.07125 -20.01613,-6.6825 -1.1665,3.08375 -2.88725,6.59875 -5.40187,10.46125 8.126,-0.9025 16.47425,4.61625 20.88675,5.90875 4.32,1.26375 10.69125,2.2425 14.38875,2.74625 -0.4775,-2.08875 -0.7575,-4.8875 -0.1125,-7.915" />
    <path
       inkscape:connector-curvature="0"
       id="path260"
       style="fill:#edc962;fill-opacity:1;fill-rule:nonzero;stroke:none"
       d="m 295.59693,380.25342 c 0,0 -11.99125,8.75 -19.80375,12.5 -7.8125,3.75 -10.54,8.0025 -5,8.75 6.95312,0.9375 36.25,-8.75 36.25,-8.75 0,0 4.05025,-22.695 -11.44625,-12.5" />
    <path
       inkscape:connector-curvature="0"
       id="path262"
       style="fill:#499435;fill-opacity:1;fill-rule:nonzero;stroke:none"
       d="m 340.16818,358.37842 c -25,-14.6875 -37.5,7.5 -39.6875,10.9375 -2.1875,3.4375 -2.89213,9.375 -4.88375,10.9375 0,0 6.01662,-2.1875 8.10587,-1.5625 2.09038,0.625 -0.40962,11.875 3.34038,14.0625 0,0 10.625,-1.875 14.0625,3.75 0,0 1.19675,5.84375 -2.76613,15.36 6.55913,1.34375 15.19988,7.87875 19.53738,9.6525 3.96875,1.62375 8.645,2.27875 10.7925,0.105 0.27,-1.26375 0.69,-2.5625 1.3425,-3.8675 3.90625,-7.8125 15.15625,-44.6875 -9.84375,-59.375" />
    <path
       inkscape:connector-curvature="0"
       id="path264"
       style="fill:#83807e;fill-opacity:1;fill-rule:nonzero;stroke:none"
       d="m 304.85568,489.62841 c 0,0 29.6875,41.5625 86.875,37.8125 0,0 30.9375,-6.25 48.75,-7.8125 17.8125,-1.5625 47.1875,-11.25 51.25,-17.5 4.0625,-6.25 -24.375,-14.6875 -37.5,-25.3125 -13.125,-10.625 -28.6425,-34.92874 -70.3125,-43.74999 -27.2375,-5.76625 -44.6875,-2.5 -55,12.8125 0,0 -31.5625,16.56249 -24.0625,43.74999" />
    <path
       inkscape:connector-curvature="0"
       id="path266"
       style="fill:#e8e7e6;fill-opacity:1;fill-rule:nonzero;stroke:none"
       d="m 477.91068,490.34216 c -14.57625,9.2825 -31.175,7.09 -48.26625,5.84875 -20.19,-1.4675 -36.21875,-4.4975 -48.53875,-8.75 -7.90625,-2.73 -45.3125,-9.375 -52.3525,-41.47374 -2.3225,1.2675 -31.09675,17.56499 -23.8975,43.66124 0,0 29.6875,41.5625 86.875,37.8125 0,0 30.9375,-6.25 48.75,-7.8125 17.8125,-1.5625 47.1875,-11.25 51.25,-17.5 2.15375,-3.31375 -4.82875,-7.2425 -13.82,-11.78625" />
    <path
       inkscape:connector-curvature="0"
       id="path268"
       style="fill:#564d4d;fill-opacity:1;fill-rule:nonzero;stroke:none"
       d="m 381.10568,487.44091 c 63.12375,24.06125 97.07625,3.04 97.07625,3.04 -8.02125,-4.06125 -17.71375,-8.61625 -23.95125,-13.665 -3.13625,-2.53875 -7.2075,-6.2975 -11.95625,-10.555 -6.84875,-1.69125 -12.63,-4.1325 -12.63,-4.1325 4.7875,6.25 16.46125,13.125 16.46125,13.125 -12.1875,4.6875 -40.9375,0 -40.9375,0 9.0625,7.8125 24.47625,9.6875 24.47625,9.6875 -14.275,3.75 -48.53875,2.5 -48.53875,2.5" />
    <path
       inkscape:connector-curvature="0"
       id="path270"
       style="fill:#1f1714;fill-opacity:1;fill-rule:nonzero;stroke:none"
       d="m 315.58468,370.98217 c 0,1.3225 -1.07275,2.39625 -2.396,2.39625 -1.32325,0 -2.3955,-1.07375 -2.3955,-2.39625 0,-1.32375 1.07225,-2.39625 2.3955,-2.39625 1.32325,0 2.396,1.0725 2.396,2.39625" />
  </g>
</svg>
