<?xml version="1.0" encoding="UTF-8" standalone="no"?>
<!-- Created with Inkscape (http://www.inkscape.org/) -->

<svg
   xmlns:dc="http://purl.org/dc/elements/1.1/"
   xmlns:cc="http://creativecommons.org/ns#"
   xmlns:rdf="http://www.w3.org/1999/02/22-rdf-syntax-ns#"
   xmlns:svg="http://www.w3.org/2000/svg"
   xmlns="http://www.w3.org/2000/svg"
   xmlns:sodipodi="http://sodipodi.sourceforge.net/DTD/sodipodi-0.dtd"
   xmlns:inkscape="http://www.inkscape.org/namespaces/inkscape"
   width="100.59256mm"
   height="63.528999mm"
   viewBox="0 0 356.43033 225.10275"
   id="svg4307"
   version="1.1"
   inkscape:version="0.91 r"
   sodipodi:docname="fox2.svg">
  <defs
     id="defs4309" />
  <sodipodi:namedview
     id="base"
     pagecolor="#ffffff"
     bordercolor="#666666"
     borderopacity="1.0"
     inkscape:pageopacity="0.0"
     inkscape:pageshadow="2"
     inkscape:zoom="0.35"
     inkscape:cx="-925.35626"
     inkscape:cy="326.83709"
     inkscape:document-units="px"
     inkscape:current-layer="layer1"
     showgrid="false"
     fit-margin-top="0"
     fit-margin-left="0"
     fit-margin-right="0"
     fit-margin-bottom="0"
     inkscape:window-width="960"
     inkscape:window-height="1028"
     inkscape:window-x="0"
     inkscape:window-y="0"
     inkscape:window-maximized="1" />
  <metadata
     id="metadata4312">
    <rdf:RDF>
      <cc:Work
         rdf:about="">
        <dc:format>image/svg+xml</dc:format>
        <dc:type
           rdf:resource="http://purl.org/dc/dcmitype/StillImage" />
        <dc:title></dc:title>
      </cc:Work>
    </rdf:RDF>
  </metadata>
  <g
     inkscape:label="Layer 1"
     inkscape:groupmode="layer"
     id="layer1"
     transform="translate(-604.64197,-634.09654)">
    <path
       inkscape:connector-curvature="0"
       id="path82"
       style="fill:#edecea;fill-opacity:1;fill-rule:nonzero;stroke:none"
       d="m 755.44478,859.19904 c -26.78875,0 -48.50625,-2.095 -48.50625,-4.6775 0,-2.49125 20.18375,-4.52625 45.6375,-4.67 1.7625,1.9075 3.52125,3.30875 5.21,3.94375 3.205,1.20375 6.46125,1.6775 9.4475,1.6775 6.8625,0 12.31125,-2.5 12.5,-4.3875 0.02,-0.1925 0.005,-0.39875 -0.0425,-0.61625 14.50125,0.80875 24.26,2.32125 24.26,4.0525 0,2.5825 -21.71625,4.6775 -48.50625,4.6775" />
    <path
       inkscape:connector-curvature="0"
       id="path90"
       style="fill:#edecea;fill-opacity:1;fill-rule:nonzero;stroke:none"
       d="m 862.34478,859.19904 c -26.79,0 -48.50625,-2.095 -48.50625,-4.6775 0,-1.115 4.0425,-2.13875 10.79375,-2.9425 0.8575,1.81625 1.96125,2.84 3.39125,3.3775 1.01625,0.38125 2.195,0.5175 3.5675,0.5175 0.004,0 0.007,0 0.0112,0 0.006,0 0.0138,0 0.0213,0 0.005,0 0.01,0 0.0162,0 0.01,0 0.0188,0 0.0275,0 0.004,0 0.009,0 0.0125,0 0.009,0 0.02,0 0.03,0 0.004,0 0.007,0 0.01,-10e-4 0.0125,0 0.025,0 0.0375,0 l 0,0 c 2.69375,-0.02 6.63125,-0.0762 9.64625,-0.78375 3.64625,-0.71125 6.56625,-2.0625 6.0525,-4.62125 3.705,-0.115 7.6025,-0.18875 11.6375,-0.21375 2.98,2.20625 6.91125,3.06375 11.05625,3.06375 1.2925,-10e-4 2.60375,-0.0837 3.91375,-0.23625 1.98375,-0.20875 3.90375,-0.58125 5.6525,-1.05375 l 0,0 c 0,0 0.19375,-0.58375 0.27125,-1.465 18.065,0.68 30.86375,2.375 30.86375,4.35875 0,2.5825 -21.7175,4.6775 -48.50625,4.6775" />
    <path
       inkscape:connector-curvature="0"
       id="path198"
       style="fill:#322a25;fill-opacity:1;fill-rule:nonzero;stroke:none"
       d="m 738.54853,765.73529 c 0,0 2.43875,17.61125 -4.06375,28.17875 -6.5025,10.5675 -15.715,15.98625 -16.79875,19.2375 -1.085,3.25125 1.55375,32.91625 7.58625,39.0175 3.25125,3.28875 20.05,2.98 20.5925,0 0.54125,-2.98 1.625,-8.94125 -10.29625,-8.94125 0,0 -7.8575,-16.2575 3.5225,-28.72125 11.38,-12.46375 27.36625,-18.96625 -0.5425,-48.77125" />
    <path
       inkscape:connector-curvature="0"
       id="path200"
       style="fill:#ee7128;fill-opacity:1;fill-rule:nonzero;stroke:none"
       d="m 946.82853,690.02404 c -3.6325,-3.34625 -6.135,-7.68125 -7.53625,-12.4175 -0.9825,-3.31875 -3.0825,-7.2475 -7.55375,-9.68625 -8.94125,-4.8775 -7.315,-7.315 -7.315,-7.315 0,0 5.69,-21.045 4.60625,-26.50875 0,0 -6.77375,1.85125 -13.5475,11.87625 0,0 -1.8975,-2.70875 -3.79375,-3.52125 0,0 -8.12875,3.52125 -14.36125,20.8625 0,0 -12.73375,6.2325 -23.03,17.88375 -10.29625,11.65 -20.3225,14.08875 -43.62375,15.715 -9.13875,0.6375 -19.15125,0.44125 -29.02625,0.245 -15.30625,-0.3025 -30.28125,-0.60625 -41.15125,2.19375 -17.8825,4.60625 -41.9975,18.37625 -71.8025,46.58 -29.805,28.2025 -43.62375,33.08 -60.4225,41.48 -16.8,8.39875 -30.3475,26.5525 -20.05125,59.33875 0,0 16.52875,-15.445 35.225,-13.5475 18.695,1.89625 58.79625,-14.9025 70.71875,-39.83 11.92125,-24.92875 8.39875,-44.16625 11.10875,-45.7925 0,0 1.355,13.54875 20.05,43.0825 l -11.38,25.19875 c 0,0 13.2775,33.9625 23.84375,37.93375 10.5675,3.97125 21.6775,0 21.9475,-2.71 0.27125,-2.71 -6.23125,-8.12875 -14.9025,-7.58625 -8.67,0.54125 -11.92125,-24.38625 -7.045,-31.16 4.8775,-6.77375 31.7025,-13.00625 33.0575,-38.205 0,0 17.34,8.67125 36.03625,5.96125 0,0 -5.69,34.41125 -4.8775,53.3775 0.81375,18.9675 2.98125,22.0525 9.755,22 6.77375,-0.0525 21.405,-0.32375 9.48375,-10.62 0,0 -5.42,1.355 -4.60625,-14.63125 0.8125,-15.98625 13.005,-44.165 13.005,-44.165 0,0 3.79375,35.22375 4.065,51.48125 0.27,16.2575 15.98625,16.79875 26.01125,14.09 0,0 2.98,-8.9425 -9.755,-9.755 0,0 -4.87625,0.27125 -3.25125,-28.72125 1.62625,-28.99125 18.9675,-39.0175 18.9675,-39.0175 0,0 17.34,-2.98 27.63625,-35.765 0,0 2.16875,-29.805 13.81875,-28.45125 0,0 16.7525,4.27 26.55375,0.5425 0,0 11.38,-5.69 3.79375,-11.38 -3.4775,-2.60875 -7.41125,-6.07 -10.65125,-9.05625" />
    <path
       inkscape:connector-curvature="0"
       id="path202"
       style="fill:#f3ebe5;fill-opacity:1;fill-rule:nonzero;stroke:none"
       d="m 866.98103,739.45279 c -0.8125,-9.755 19.9925,-45.2225 24.65625,-47.4175 9.2125,-4.335 19.95625,-1.85625 27.38625,4.04375 6.91125,5.48625 16.71,10.2875 24.6575,12.215 5.9175,1.435 11.64125,1.20375 11.64125,1.20375 -8.3225,5.6375 -28.19,0.42 -28.19,0.42 -11.65,-1.35375 -13.81875,28.45125 -13.81875,28.45125 -10.29625,32.785 -27.63625,35.765 -27.63625,35.765 0,0 -12.5925,5.22875 -32.78625,6.50375 0,0 6.7925,-5.76875 11.65125,-14.9025 6.77375,-12.735 3.25125,-16.52875 2.43875,-26.2825" />
    <path
       inkscape:connector-curvature="0"
       id="path204"
       style="fill:#f3ebe5;fill-opacity:1;fill-rule:nonzero;stroke:none"
       d="m 829.31853,765.73529 -2.88,17.14875 c 0.2725,-1.76375 0.44125,-2.78875 0.44125,-2.78875 -18.69625,2.71 -36.03625,-5.96125 -36.03625,-5.96125 l 0,-13.005 c 0,0 14.90125,6.23125 38.475,4.60625" />
    <path
       inkscape:connector-curvature="0"
       id="path206"
       style="fill:#f3ebe5;fill-opacity:1;fill-rule:nonzero;stroke:none"
       d="m 619.43603,793.08904 c 6.0825,-1.2675 13.1725,-2.26375 17.77625,-1.3425 0,0 -6.2325,4.60625 -6.2325,7.315 l 6.2325,0 c 0,0 -3.25125,4.8775 -3.25125,6.50375 11.73375,2.17125 19.6625,9.38 24.0425,16.68125 -4.84125,4.0125 -12.13375,7.1125 -11.61,11.08875 -1.0275,-0.004 -2.02125,-0.0388 -2.94875,-0.1325 -18.69625,-1.8975 -35.225,13.5475 -35.225,13.5475 -8.39625,-26.7375 -0.93375,-43.74125 11.21625,-53.66125" />
    <path
       inkscape:connector-curvature="0"
       id="path208"
       style="fill:#322a25;fill-opacity:1;fill-rule:nonzero;stroke:none"
       d="m 759.41228,789.75404 10.29625,6.87 c 5.66125,0 11.94,-3.9425 16.5525,-7.60375 -8.195,13.26625 -24.745,18.13875 -28.475,23.31875 -4.87625,6.77375 -1.625,31.70125 7.045,31.16 8.67125,-0.5425 15.17375,4.87625 14.9025,7.58625 -0.27,2.71 -11.38,6.68 -21.9475,2.71 -10.56625,-3.97125 -23.84375,-37.93375 -23.84375,-37.93375 l 11.38,-25.19875 2.98125,0.725 11.10875,-1.63375" />
    <path
       inkscape:connector-curvature="0"
       id="path210"
       style="fill:#322a25;fill-opacity:1;fill-rule:nonzero;stroke:none"
       d="m 822.00228,833.47279 c -0.8125,-18.96625 4.8775,-53.3775 4.8775,-53.3775 l 7.045,2.78875 5.96125,-7.875 c 0,0 2.43875,5.08625 4.87625,5.62875 2.43875,0.54125 17.64625,-11.275 17.64625,-11.275 -5.275,7.93625 -9.5175,11.275 -9.5175,11.275 19.2375,-1.62625 27.6375,-4.585 32.78625,-6.50375 -5.16,4.64 -17.81,18.37625 -18.9675,39.0175 -1.625,28.9925 3.25125,28.72125 3.25125,28.72125 8.79,0.56125 10.0925,4.99375 10.05625,7.6875 l -0.30125,2.0675 c -11.4475,2.9125 -25.745,1.94125 -26.01125,-14.09 -0.27125,-16.2575 -4.065,-51.48125 -4.065,-51.48125 0,0 -12.1925,28.17875 -13.005,44.165 -0.81375,15.98625 4.60625,14.63125 4.60625,14.63125 2.84375,0.74625 4.44125,2.06875 5.2825,3.2525 4.76625,6.70125 -8.9,7.3225 -14.76625,7.3675 -6.77375,0.0525 -8.94125,-3.0325 -9.755,-22" />
    <path
       inkscape:connector-curvature="0"
       id="path212"
       style="fill:#322a25;fill-opacity:1;fill-rule:nonzero;stroke:none"
       d="m 911.68853,642.45029 c 0,0 -5.94125,9.01125 -5.12875,21.74625 0,0 -1.93625,-2.035 -9.2325,-0.8825 6.2325,-17.34125 14.36125,-20.86375 14.36125,-20.86375" />
    <path
       inkscape:connector-curvature="0"
       id="path214"
       style="fill:#322a25;fill-opacity:1;fill-rule:nonzero;stroke:none"
       d="m 915.48228,645.97279 c 6.77375,-10.025 13.5475,-11.87625 13.5475,-11.87625 -7.325,9.40875 -9.29,18.30375 -9.815,22.67375 -0.39375,-4.82625 -3.7325,-10.7975 -3.7325,-10.7975" />
    <path
       inkscape:connector-curvature="0"
       id="path216"
       style="fill:#322a25;fill-opacity:1;fill-rule:nonzero;stroke:none"
       d="m 957.47978,699.08029 c 0,0 -3.23125,-1.015 -4.315,2.77875 -1.08375,3.79375 2.1575,7.63875 2.1575,7.63875 0,0 11.35,-6.69375 2.1575,-10.4175" />
    <path
       inkscape:connector-curvature="0"
       id="path218"
       style="fill:#322a25;fill-opacity:1;fill-rule:nonzero;stroke:none"
       d="m 924.24978,689.84154 c 0,0 0.71125,1.965 3.04875,1.965 2.13375,0 3.0475,-1.965 3.0475,-1.965 0,0 -1.4225,-1.96375 -3.0475,-1.96375 -1.8975,0 -3.04875,1.96375 -3.04875,1.96375" />
    <path
       inkscape:connector-curvature="0"
       id="path220"
       style="fill:#f8f7f7;fill-opacity:1;fill-rule:nonzero;stroke:none"
       d="m 819.41478,780.62029 c -15.56375,0 -28.5075,-6.45375 -28.57125,-6.48625 l 0,0 0,0 c 0,0 12.96375,6.48375 28.56125,6.48625 0.004,0 0.006,0 0.01,0 l 0,0" />
    <path
       inkscape:connector-curvature="0"
       id="path222"
       style="fill:#e56d28;fill-opacity:1;fill-rule:nonzero;stroke:none"
       d="m 819.41478,780.62029 c -0.004,0 -0.006,0 -0.01,0 0.004,0 0.006,0 0.01,0 l 0,0 m -28.57125,-6.48625 -10e-4,0 c 10e-4,-10e-4 10e-4,-0.002 10e-4,-0.004 l 0,0.004" />
    <path
       inkscape:connector-curvature="0"
       id="path224"
       style="fill:#e56d28;fill-opacity:1;fill-rule:nonzero;stroke:none"
       d="m 790.84353,764.78779 c -1.05625,-20.225 -8.47875,-36.105 -8.47875,-36.105 11.82375,5.42 12.29125,24.6575 20.14875,35.225 0.11125,0.14875 0.225,0.2975 0.34,0.445 -7.68,-1.41375 -12.01,-3.22375 -12.01,-3.22375 l 0,3.65875" />
    <path
       inkscape:connector-curvature="0"
       id="path226"
       style="fill:#eae1da;fill-opacity:1;fill-rule:nonzero;stroke:none"
       d="m 819.41478,780.62029 c -0.004,0 -0.006,0 -0.01,0 -15.5975,-0.002 -28.56125,-6.48625 -28.56125,-6.48625 l 0,-0.004 c 0.17375,-3.18625 0.1575,-6.31375 0,-9.3425 l 0,-3.65875 c 0,0 4.33,1.81 12.01,3.22375 7.9825,10.28 24.02625,15.7425 24.02625,15.7425 -0.21625,0.0312 -0.43375,0.0613 -0.65,0.09 -2.305,0.3025 -4.58875,0.435 -6.815,0.435" />
    <path
       inkscape:connector-curvature="0"
       id="path228"
       style="fill:#ffffff;fill-opacity:1;fill-rule:nonzero;stroke:none"
       d="m 646.49478,833.34779 0,0 c 0.20125,0 0.40625,-10e-4 0.61125,-0.005 -0.205,0.004 -0.41,0.005 -0.61125,0.005 m 0,0 c -1.07,0 -2.0875,-0.0475 -3.05,-0.145 l 0,0 c 0.96125,0.0975 1.98125,0.145 3.05,0.145 m 0.87625,-0.01 0.002,0 -0.002,0 m 66.61,-39.59125 c 0.0187,-0.0375 0.0375,-0.075 0.0562,-0.11375 -0.0187,0.0387 -0.0375,0.0763 -0.0562,0.11375 m 0.1,-0.205 c 0.0275,-0.0563 0.055,-0.1125 0.0825,-0.16875 0.01,-0.0238 0.0225,-0.0475 0.0325,-0.07 -0.0113,0.0225 -0.0213,0.0462 -0.0325,0.07 -0.0275,0.0563 -0.055,0.1125 -0.0825,0.16875 m 0.1225,-0.25375 c 0.007,-0.0162 0.0175,-0.0362 0.025,-0.0525 -0.008,0.0163 -0.0175,0.035 -0.025,0.0525 m 0.0362,-0.0775 c 0.008,-0.015 0.015,-0.03 0.0225,-0.045 -0.008,0.0138 -0.015,0.0312 -0.0225,0.045 m 0.0337,-0.0688 c 0.006,-0.015 0.0125,-0.0275 0.02,-0.0425 -0.008,0.0138 -0.0138,0.0288 -0.02,0.0425 m 0.0338,-0.0725 c 0.007,-0.0162 0.0138,-0.0288 0.0225,-0.0462 -0.007,0.0162 -0.015,0.0312 -0.0225,0.0462 m 0.0312,-0.065 c 0.01,-0.0225 0.0212,-0.0462 0.0325,-0.0687 -0.0113,0.0225 -0.0213,0.0462 -0.0325,0.0687 m 0.0337,-0.0712 c 0.01,-0.0225 0.02,-0.0438 0.0312,-0.0662 -0.01,0.0212 -0.0213,0.045 -0.0312,0.0662 m 0.0412,-0.0875 c 0.006,-0.015 0.0138,-0.03 0.0213,-0.045 -0.008,0.015 -0.015,0.03 -0.0213,0.045 m 0.035,-0.0737 c 0.006,-0.0138 0.0125,-0.0263 0.0187,-0.04 -0.006,0.0125 -0.0125,0.0263 -0.0187,0.04 m 0.0312,-0.0688 c 0.006,-0.0125 0.0138,-0.03 0.0212,-0.0437 -0.007,0.015 -0.015,0.03 -0.0212,0.0437 m 0.0312,-0.0662 c 0.01,-0.0212 0.0187,-0.0387 0.0288,-0.06 -0.01,0.0213 -0.0188,0.04 -0.0288,0.06 m 0.0312,-0.0675 c 0.0112,-0.0238 0.0225,-0.0462 0.0337,-0.0712 -0.0113,0.025 -0.0225,0.0475 -0.0337,0.0712 m 0.0337,-0.0712 c 0.0113,-0.025 0.0225,-0.0475 0.0337,-0.0725 -0.0113,0.0237 -0.0225,0.0487 -0.0337,0.0725 m 0.0337,-0.0725 c 0.0113,-0.0238 0.0225,-0.0475 0.0325,-0.07 -0.01,0.0238 -0.0212,0.0463 -0.0325,0.07 m 0.035,-0.0763 c 0.01,-0.0213 0.02,-0.0412 0.03,-0.0625 -0.01,0.0213 -0.02,0.0425 -0.03,0.0625 m 0.035,-0.0737 c 0.009,-0.02 0.0175,-0.0388 0.0263,-0.0588 -0.009,0.02 -0.0175,0.0387 -0.0263,0.0588 m 0.0325,-0.0713 c 9.5775,-20.7125 8.57375,-37.3075 9.69875,-42.79625 0.002,-0.005 0.005,-0.01 0.008,-0.015 -1.13375,5.4625 -0.11375,22.0675 -9.70625,42.81125" />
    <path
       inkscape:connector-curvature="0"
       id="path230"
       style="fill:#ec5622;fill-opacity:1;fill-rule:nonzero;stroke:none"
       d="m 646.49478,833.34779 0,0 c -1.06875,0 -2.08875,-0.0475 -3.05,-0.145 0.9275,0.0937 1.92125,0.12875 2.94875,0.1325 -0.52375,-3.97625 6.76875,-7.07625 11.61,-11.08875 -3.2075,-5.3475 -8.3175,-10.64375 -15.43375,-13.95 15.44875,-2.94125 38.4775,-4.3425 50.47875,-13.41 14.04,-10.6075 27.8525,-38.155 31.3625,-45.47875 -1.125,5.48875 -0.12125,22.08375 -9.69875,42.79625 -0.003,0.005 -0.004,0.008 -0.006,0.0125 -0.009,0.02 -0.0175,0.0387 -0.0263,0.0588 -0.002,0.004 -0.004,0.007 -0.005,0.0112 -0.01,0.0213 -0.02,0.0412 -0.03,0.0625 0,0.001 -10e-4,0.005 -0.002,0.006 -0.01,0.0225 -0.0212,0.0463 -0.0325,0.07 0,10e-4 0,-10e-4 0,0 -0.0113,0.025 -0.0225,0.0475 -0.0337,0.0725 l 0,0 c -0.0113,0.025 -0.0225,0.0475 -0.0337,0.0712 0,10e-4 -0.002,0.006 -0.002,0.007 -0.01,0.0213 -0.0188,0.0388 -0.0288,0.06 -0.004,0.008 -0.008,0.015 -0.01,0.0225 -0.007,0.0137 -0.015,0.0312 -0.0212,0.0437 -0.004,0.01 -0.009,0.0188 -0.0125,0.0288 -0.006,0.0138 -0.0125,0.0263 -0.0187,0.04 -0.005,0.01 -0.009,0.0187 -0.0138,0.0288 -0.008,0.015 -0.015,0.03 -0.0213,0.045 -0.004,0.006 -0.007,0.015 -0.01,0.0213 -0.0113,0.0225 -0.0213,0.0437 -0.0312,0.0662 -10e-4,10e-4 -10e-4,10e-4 -10e-4,0.002 -0.0113,0.0225 -0.0225,0.0462 -0.0325,0.0687 -0.003,0.005 -0.008,0.0137 -0.009,0.0188 -0.009,0.0175 -0.015,0.03 -0.0225,0.0462 -0.005,0.0112 -0.009,0.02 -0.0138,0.03 -0.008,0.015 -0.0138,0.0275 -0.02,0.0425 -0.004,0.009 -0.007,0.0163 -0.0112,0.0238 -0.008,0.015 -0.015,0.03 -0.0225,0.045 -0.004,0.009 -0.006,0.0162 -0.0112,0.025 -0.008,0.0163 -0.0175,0.0363 -0.025,0.0525 -0.002,0.005 -0.005,0.009 -0.007,0.015 -0.01,0.0225 -0.0225,0.0462 -0.0325,0.07 -0.0275,0.0563 -0.055,0.1125 -0.0825,0.16875 -0.0138,0.0312 -0.0288,0.0613 -0.0438,0.0913 -0.0187,0.0387 -0.0375,0.0763 -0.0562,0.11375 -11.3425,23.09625 -46.82125,39.1225 -66.6075,39.59125 l -0.002,0 c -0.09,0.002 -0.17625,0.004 -0.265,0.005 -0.205,0.004 -0.41,0.005 -0.61125,0.005 m -6.27,-0.30625 -10e-4,0 10e-4,0" />
    <path
       inkscape:connector-curvature="0"
       id="path232"
       style="fill:#f1e6df;fill-opacity:1;fill-rule:nonzero;stroke:none"
       d="m 608.21978,846.75029 c 0.79375,-17.14 11.13,-27.2975 21.60625,-34.3325 2.7425,-1.84125 7.26625,-3.0775 12.74375,-4.12125 7.11625,3.30625 12.22625,8.6025 15.43375,13.95 -4.84125,4.0125 -12.13375,7.1125 -11.61,11.08875 -1.0275,-0.004 -2.02125,-0.0388 -2.94875,-0.1325 l 0,0 c -1.08125,-0.11 -2.15625,-0.16125 -3.22,-0.16125 l -10e-4,0 0,0 c -17.33375,-0.002 -32.00375,13.70875 -32.00375,13.70875" />
    <path
       inkscape:connector-curvature="0"
       id="path430"
       style="fill:#ee7128;fill-opacity:1;fill-rule:nonzero;stroke:none"
       d="m 744.05478,706.72404 -11.80125,0 6.49875,3.8925 5.3025,-3.8925" />
    <path
       inkscape:connector-curvature="0"
       id="path432"
       style="fill:#ee7128;fill-opacity:1;fill-rule:nonzero;stroke:none"
       d="m 740.73728,707.95029 -18.21625,3.29 c 0,0 10.27125,2.42875 17.49,-1.18" />
  </g>
</svg>
