<?xml version="1.0" encoding="UTF-8" standalone="no"?>
<!-- Created with Inkscape (http://www.inkscape.org/) -->

<svg
   xmlns:dc="http://purl.org/dc/elements/1.1/"
   xmlns:cc="http://creativecommons.org/ns#"
   xmlns:rdf="http://www.w3.org/1999/02/22-rdf-syntax-ns#"
   xmlns:svg="http://www.w3.org/2000/svg"
   xmlns="http://www.w3.org/2000/svg"
   xmlns:sodipodi="http://sodipodi.sourceforge.net/DTD/sodipodi-0.dtd"
   xmlns:inkscape="http://www.inkscape.org/namespaces/inkscape"
   id="svg2"
   version="1.1"
   inkscape:version="0.48.4 r9939"
   width="408.56824"
   height="132.32748"
   xml:space="preserve"
   sodipodi:docname="49152-O5Z9PH.eps"><metadata
     id="metadata8"><rdf:RDF><cc:Work
         rdf:about=""><dc:format>image/svg+xml</dc:format><dc:type
           rdf:resource="http://purl.org/dc/dcmitype/StillImage" /><dc:title></dc:title></cc:Work></rdf:RDF></metadata><defs
     id="defs6" /><sodipodi:namedview
     pagecolor="#ffffff"
     bordercolor="#666666"
     borderopacity="1"
     objecttolerance="10"
     gridtolerance="10"
     guidetolerance="10"
     inkscape:pageopacity="0"
     inkscape:pageshadow="2"
     inkscape:window-width="721"
     inkscape:window-height="480"
     id="namedview4"
     showgrid="false"
     showguides="true"
     inkscape:guide-bbox="true"
     fit-margin-top="0"
     fit-margin-left="0"
     fit-margin-right="0"
     fit-margin-bottom="0"
     inkscape:zoom="0.472"
     inkscape:cx="242.51387"
     inkscape:cy="19.199746"
     inkscape:window-x="65"
     inkscape:window-y="24"
     inkscape:window-maximized="0"
     inkscape:current-layer="g10" /><g
     id="g10"
     inkscape:groupmode="layer"
     inkscape:label="ink_ext_XXXXXX"
     transform="matrix(1.25,0,0,-1.25,-47.61425,581.65)"><path
       inkscape:connector-curvature="0"
       id="path1274"
       style="fill:#1f6534;fill-opacity:1;fill-rule:nonzero;stroke:none"
       d="m 65.1777,390.241 c 0,0 -2.2757,8.457 -4.0972,14.83 -1.8203,6.373 -3.1864,14.758 -3.1864,14.758 l 16.3875,-19.31 c 0,0 3.1868,24.581 4.5524,32.775 1.3664,8.194 5.0078,18.401 5.0078,18.401 l 0,-37.52 17.2982,12.291 -8.1943,-21.85 21.3953,19.727 -4.666,-19.7 14.226,1.338 -12.33,-15.74 -46.3933,0" /><path
       inkscape:connector-curvature="0"
       id="path1276"
       style="fill:#299740;fill-opacity:1;fill-rule:nonzero;stroke:none"
       d="m 114.848,375.535 c 0,0 1.214,18.208 0,29.133 -1.213,10.925 0,23.671 0,23.671 l 12.139,-35.81 c 0,0 9.713,23.064 23.065,35.81 13.352,12.746 21.85,15.173 21.85,15.173 0,0 -27.325,-46.115 -28.797,-55.838 -2.158,-14.264 -3.069,-12.139 -3.069,-12.139 l -25.188,0" /><path
       inkscape:connector-curvature="0"
       id="path1278"
       style="fill:#1f6534;fill-opacity:1;fill-rule:nonzero;stroke:none"
       d="m 161.041,368.746 c 0,0 -1.821,9.561 -4.552,17.299 -2.731,7.739 -7.739,18.207 -7.739,18.207 l 12.291,-14.567 5.008,42.791 4.096,-31.864 12.747,15.931 -5.463,-26.858 c 0,0 9.104,10.319 20.94,18.816 11.836,8.498 20.485,8.498 20.485,8.498 0,0 -20.94,-13.657 -24.582,-22.76 -3.642,-9.104 -4.552,-25.493 -4.552,-25.493 l -28.679,0" /><path
       inkscape:connector-curvature="0"
       id="path1280"
       style="fill:#299740;fill-opacity:1;fill-rule:nonzero;stroke:none"
       d="m 67.4211,372.202 c 0,0 -4.5523,15.741 -5.4633,19.839 -0.9105,4.098 0,9.751 0,9.751 l 9.5602,-14.794 1.3652,38.123 6.8281,-26.459 15.9332,26.459 -6.8281,-33.536 c 0,0 9.559,10.47 15.9326,12.746 6.373,2.276 15.022,1.973 15.022,1.973 0,0 -10.015,-6.07 -13.201,-9.71 -3.187,-3.643 -6.378,-9.351 -6.378,-9.351 l 30.504,11.419 c 0,0 -8.649,-9.353 -12.746,-14.36 -4.097,-5.007 -6.741,-11.987 -6.741,-11.987 l -43.7879,-0.113" /><path
       inkscape:connector-curvature="0"
       id="path1282"
       style="fill:#41b93c;fill-opacity:1;fill-rule:nonzero;stroke:none"
       d="m 67.225,359.514 c 0,0 -7.2832,26.707 -10.9246,36.418 -3.6422,9.71 -18.209,31.561 -18.209,31.561 0,0 30.3481,-27.921 33.9902,-33.99 3.6414,-6.07 15.7805,-33.989 15.7805,-33.989 l -20.6371,0" /><path
       inkscape:connector-curvature="0"
       id="path1284"
       style="fill:#216d34;fill-opacity:1;fill-rule:nonzero;stroke:none"
       d="m 98.1813,409.396 c 0,0 2.4267,19.422 8.4967,32.775 6.07,13.354 18.209,23.066 18.209,23.066 0,0 -17.222,-44.843 -17.222,-55.77 0,-10.925 0.228,-49.841 0.228,-49.841 l -16.9957,0 7.284,49.77" /><path
       inkscape:connector-curvature="0"
       id="path1286"
       style="fill:#41b93c;fill-opacity:1;fill-rule:nonzero;stroke:none"
       d="m 79.6352,359.57 c 0,0 1.214,18.208 0,29.134 -1.2133,10.925 0,23.671 0,23.671 l 12.139,-35.81 c 0,0 9.7128,23.064 23.0648,35.81 13.353,12.746 21.851,15.173 21.851,15.173 0,0 -27.326,-46.114 -28.797,-55.84 -2.159,-14.263 -3.07,-12.138 -3.07,-12.138 l -25.1878,0" /><path
       inkscape:connector-curvature="0"
       id="path1288"
       style="fill:#41b93c;fill-opacity:1;fill-rule:nonzero;stroke:none"
       d="m 101.671,359.626 c 0,0 -1.821,9.559 -4.5526,17.299 -2.7313,7.737 -7.7391,18.208 -7.7391,18.208 l 12.2917,-14.566 5.007,42.79 4.097,-31.866 12.746,15.933 -5.463,-26.857 c 0,0 9.105,10.319 20.941,18.815 11.835,8.497 20.484,8.497 20.484,8.497 0,0 -20.94,-13.655 -24.581,-22.762 -3.642,-9.103 -4.553,-25.491 -4.553,-25.491 l -28.678,0" /><path
       inkscape:connector-curvature="0"
       id="path1290"
       style="fill:#41b93c;fill-opacity:1;fill-rule:nonzero;stroke:none"
       d="m 129.443,359.514 c 0,0 -4.553,15.74 -5.463,19.838 -0.91,4.096 0,9.751 0,9.751 l 9.56,-14.794 1.365,38.122 6.828,-26.457 15.933,26.457 -6.828,-33.534 c 0,0 9.559,10.469 15.933,12.746 6.373,2.276 15.022,1.971 15.022,1.971 0,0 -10.015,-6.069 -13.202,-9.711 -3.186,-3.64 -6.377,-9.35 -6.377,-9.35 l 30.504,11.421 c 0,0 -8.649,-9.354 -12.746,-14.362 -4.097,-5.006 -6.741,-11.986 -6.741,-11.986 l -43.788,-0.112" /><path
       inkscape:connector-curvature="0"
       id="path1292"
       style="fill:#41b93c;fill-opacity:1;fill-rule:nonzero;stroke:none"
       d="m 171.853,359.514 c 0,0 -2.276,8.457 -4.097,14.83 -1.82,6.374 -3.186,14.759 -3.186,14.759 l 16.388,-19.311 c 0,0 3.187,24.582 4.552,32.775 1.366,8.195 5.007,18.401 5.007,18.401 l 0,-37.52 17.298,12.292 -8.193,-21.851 21.395,19.725 -4.666,-19.698 14.226,1.338 -12.329,-15.74 -46.395,0" /><path
       inkscape:connector-curvature="0"
       id="path1294"
       style="fill:#1f6534;fill-opacity:1;fill-rule:nonzero;stroke:none"
       d="m 199.547,390.326 c 0,0 -2.276,8.457 -4.097,14.83 -1.821,6.372 -3.186,14.759 -3.186,14.759 l 16.387,-19.313 c 0,0 3.186,24.584 4.553,32.776 1.365,8.195 5.007,18.402 5.007,18.402 l 0,-37.52 17.298,12.29 -8.194,-21.85 21.395,19.726 -4.665,-19.7 14.226,1.34 -12.33,-15.74 -46.394,0" /><path
       inkscape:connector-curvature="0"
       id="path1296"
       style="fill:#299740;fill-opacity:1;fill-rule:nonzero;stroke:none"
       d="m 249.217,375.618 c 0,0 1.214,18.21 0,29.134 -1.213,10.926 0,23.671 0,23.671 l 12.139,-35.81 c 0,0 9.713,23.065 23.065,35.81 13.352,12.748 21.851,15.175 21.851,15.175 0,0 -27.326,-46.116 -28.797,-55.84 -2.159,-14.264 -3.069,-12.14 -3.069,-12.14 l -25.189,0" /><path
       inkscape:connector-curvature="0"
       id="path1298"
       style="fill:#1f6534;fill-opacity:1;fill-rule:nonzero;stroke:none"
       d="m 295.411,368.831 c 0,0 -1.822,9.56 -4.553,17.299 -2.731,7.737 -7.739,18.207 -7.739,18.207 l 12.292,-14.566 5.007,42.791 4.097,-31.866 12.746,15.932 -5.463,-26.857 c 0,0 9.105,10.318 20.941,18.816 11.835,8.498 20.484,8.498 20.484,8.498 0,0 -20.94,-13.657 -24.581,-22.763 -3.642,-9.103 -4.553,-25.491 -4.553,-25.491 l -28.678,0" /><path
       inkscape:connector-curvature="0"
       id="path1300"
       style="fill:#299740;fill-opacity:1;fill-rule:nonzero;stroke:none"
       d="m 201.791,372.288 c 0,0 -4.553,15.74 -5.463,19.837 -0.911,4.097 0,9.752 0,9.752 l 9.559,-14.795 1.366,38.123 6.828,-26.459 15.933,26.459 -6.828,-33.535 c 0,0 9.559,10.47 15.932,12.747 6.373,2.275 15.022,1.971 15.022,1.971 0,0 -10.014,-6.069 -13.201,-9.711 -3.187,-3.641 -6.377,-9.351 -6.377,-9.351 l 30.503,11.42 c 0,0 -8.648,-9.351 -12.745,-14.359 -4.097,-5.008 -6.741,-11.987 -6.741,-11.987 l -43.788,-0.112" /><path
       inkscape:connector-curvature="0"
       id="path1302"
       style="fill:#41b93c;fill-opacity:1;fill-rule:nonzero;stroke:none"
       d="m 201.595,359.599 c 0,0 -7.284,26.706 -10.926,36.417 -3.641,9.71 -18.209,31.561 -18.209,31.561 0,0 30.349,-27.919 33.991,-33.988 3.641,-6.07 15.78,-33.99 15.78,-33.99 l -20.636,0" /><path
       inkscape:connector-curvature="0"
       id="path1304"
       style="fill:#216d34;fill-opacity:1;fill-rule:nonzero;stroke:none"
       d="m 232.55,409.479 c 0,0 2.427,19.424 8.498,32.776 6.07,13.354 18.208,23.065 18.208,23.065 0,0 -17.222,-44.843 -17.222,-55.768 0,-10.924 0.228,-49.841 0.228,-49.841 l -16.995,0 7.283,49.768" /><path
       inkscape:connector-curvature="0"
       id="path1306"
       style="fill:#41b93c;fill-opacity:1;fill-rule:nonzero;stroke:none"
       d="m 214.005,359.654 c 0,0 1.214,18.21 0,29.134 -1.214,10.924 0,23.67 0,23.67 l 12.139,-35.81 c 0,0 9.712,23.064 23.065,35.81 13.352,12.748 21.85,15.175 21.85,15.175 0,0 -27.326,-46.116 -28.797,-55.839 -2.159,-14.265 -3.069,-12.14 -3.069,-12.14 l -25.188,0" /><path
       inkscape:connector-curvature="0"
       id="path1308"
       style="fill:#41b93c;fill-opacity:1;fill-rule:nonzero;stroke:none"
       d="m 236.04,359.711 c 0,0 -1.821,9.56 -4.552,17.297 -2.732,7.74 -7.739,18.209 -7.739,18.209 l 12.291,-14.567 5.008,42.79 4.096,-31.865 12.747,15.932 -5.463,-26.857 c 0,0 9.104,10.319 20.94,18.815 11.835,8.497 20.485,8.497 20.485,8.497 0,0 -20.94,-13.655 -24.582,-22.759 -3.642,-9.104 -4.552,-25.492 -4.552,-25.492 l -28.679,0" /><path
       inkscape:connector-curvature="0"
       id="path1310"
       style="fill:#41b93c;fill-opacity:1;fill-rule:nonzero;stroke:none"
       d="m 263.812,359.599 c 0,0 -4.552,15.74 -5.463,19.836 -0.91,4.098 0,9.752 0,9.752 l 9.56,-14.793 1.365,38.121 6.829,-26.458 15.933,26.458 -6.829,-33.535 c 0,0 9.56,10.47 15.933,12.748 6.373,2.274 15.022,1.972 15.022,1.972 0,0 -10.015,-6.069 -13.202,-9.712 -3.186,-3.642 -6.377,-9.35 -6.377,-9.35 l 30.504,11.419 c 0,0 -8.649,-9.352 -12.746,-14.359 -4.097,-5.008 -6.741,-11.987 -6.741,-11.987 l -43.788,-0.112" /><path
       inkscape:connector-curvature="0"
       id="path1312"
       style="fill:#41b93c;fill-opacity:1;fill-rule:nonzero;stroke:none"
       d="m 306.223,359.599 c 0,0 -2.276,8.457 -4.097,14.831 -1.821,6.371 -3.187,14.757 -3.187,14.757 l 16.388,-19.31 c 0,0 3.187,24.581 4.552,32.776 1.366,8.192 5.008,18.399 5.008,18.399 l 0,-37.519 17.298,12.29 -8.194,-21.848 21.395,19.725 -4.666,-19.7 14.226,1.339 -12.329,-15.74 -46.394,0" /></g></svg>