<?xml version="1.0" encoding="UTF-8" standalone="no"?>
<!-- Created with Inkscape (http://www.inkscape.org/) -->

<svg
   xmlns:dc="http://purl.org/dc/elements/1.1/"
   xmlns:cc="http://creativecommons.org/ns#"
   xmlns:rdf="http://www.w3.org/1999/02/22-rdf-syntax-ns#"
   xmlns:svg="http://www.w3.org/2000/svg"
   xmlns="http://www.w3.org/2000/svg"
   xmlns:sodipodi="http://sodipodi.sourceforge.net/DTD/sodipodi-0.dtd"
   xmlns:inkscape="http://www.inkscape.org/namespaces/inkscape"
   id="svg2"
   version="1.1"
   inkscape:version="0.48.4 r9939"
   width="182.7924"
   height="123.81625"
   xml:space="preserve"
   sodipodi:docname="42864-O3GIUV.eps"><metadata
     id="metadata8"><rdf:RDF><cc:Work
         rdf:about=""><dc:format>image/svg+xml</dc:format><dc:type
           rdf:resource="http://purl.org/dc/dcmitype/StillImage" /><dc:title></dc:title></cc:Work></rdf:RDF></metadata><defs
     id="defs6"><clipPath
       clipPathUnits="userSpaceOnUse"
       id="clipPath338"><path
         d="m 6293.54,3775.37 c -75.45,73.55 -96.38,180.38 -85.32,285.16 11.06,104.78 60.05,210.28 42.17,314.11 -26.81,155.61 -171.1,293.72 -325.31,327.67 -154.2,33.95 -321.37,-19.88 -437.94,-126.39 -106.02,-96.88 -173.54,-243.6 -149.18,-385.13 24.36,-141.54 155.66,-265 298.94,-255.33 -54.6,5.91 -86.79,75.7 -64.61,125.94 22.19,50.23 83.81,75.16 137.98,66.15 54.17,-9.02 100.36,-45.89 133.36,-89.78 33.01,-43.89 54.89,-94.91 78.41,-144.54 23.51,-49.62 49.61,-99.28 88.97,-137.58 61.42,-59.77 153.75,-85.88 237.37,-67.13"
         id="path340"
         inkscape:connector-curvature="0" /></clipPath><clipPath
       clipPathUnits="userSpaceOnUse"
       id="clipPath400"><path
         d="m 4273.9,6127.34 c -117.8,241.74 -348.88,236.8 -352.25,236.72 -3.38,0.08 -234.46,5.02 -352.26,-236.72 -24.51,-50.28 -43.15,-189.36 -100.69,-198.83 0,0 158.17,-269.75 452.95,-260.38 294.77,-9.37 452.94,260.38 452.94,260.38 -57.53,9.47 -76.18,148.55 -100.69,198.83 z"
         id="path402"
         inkscape:connector-curvature="0" /></clipPath><clipPath
       clipPathUnits="userSpaceOnUse"
       id="clipPath422"><path
         d="m 4901.42,5525.39 c 85.32,-4.92 160.72,67.77 183.23,150.21 22.51,82.44 2.85,170.64 -27.15,250.65 -30,80.02 -70.36,156.47 -91.27,239.33 -51.99,206.05 33.2,439.8 205.58,564.07 172.38,124.28 421.07,131.24 600.13,16.8 -92.74,16.26 -206.15,-14.64 -278.35,-75.07 -111.47,-93.29 -134.35,-255.32 -127.84,-400.53 6.5,-145.21 33.95,-294.09 -7.03,-433.55 -60.19,-204.87 -245.26,-337.08 -457.3,-311.91 z"
         id="path424"
         inkscape:connector-curvature="0" /></clipPath></defs><sodipodi:namedview
     pagecolor="#ffffff"
     bordercolor="#666666"
     borderopacity="1"
     objecttolerance="10"
     gridtolerance="10"
     guidetolerance="10"
     inkscape:pageopacity="0"
     inkscape:pageshadow="2"
     inkscape:window-width="927"
     inkscape:window-height="1148"
     id="namedview4"
     showgrid="false"
     fit-margin-top="0"
     fit-margin-left="0"
     fit-margin-right="0"
     fit-margin-bottom="0"
     inkscape:zoom="0.90509668"
     inkscape:cx="-58.294682"
     inkscape:cy="-77.071611"
     inkscape:window-x="65"
     inkscape:window-y="24"
     inkscape:window-maximized="0"
     inkscape:current-layer="g10" /><g
     id="g10"
     inkscape:groupmode="layer"
     inkscape:label="ink_ext_XXXXXX"
     transform="matrix(1.25,0,0,-1.25,-743.72707,954.15993)"><path
       inkscape:connector-curvature="0"
       id="path130"
       style="fill:#d0885a;fill-opacity:1;fill-rule:nonzero;stroke:none"
       d="m 685.09266,680.66194 c 0,0 -0.288,-16.1 5.175,-16.387 l 9.775,0 c 0,0 0.575,6.037 -3.738,6.325 -4.312,0.287 -2.587,11.727 -2.587,11.727 l -8.625,-1.665" /><path
       inkscape:connector-curvature="0"
       id="path132"
       style="fill:#d0885a;fill-opacity:1;fill-rule:nonzero;stroke:none"
       d="m 628.68666,680.66194 c 0,0 -0.287,-16.1 5.175,-16.387 l 9.775,0 c 0,0 0.575,6.037 -3.737,6.325 -4.313,0.287 -2.588,11.727 -2.588,11.727 l -8.625,-1.665" /><path
       inkscape:connector-curvature="0"
       id="path134"
       style="fill:#cfc9ae;fill-opacity:1;fill-rule:nonzero;stroke:none"
       d="m 720.39966,697.77094 c 0,-25.96 -24.116,-23.497 -53.864,-23.497 -29.749,0 -53.865,-2.463 -53.865,23.497 0,25.959 24.116,47.004 53.865,47.004 29.748,0 53.864,-21.045 53.864,-47.004" /><path
       inkscape:connector-curvature="0"
       id="path136"
       style="fill:#cfc9ae;fill-opacity:1;fill-rule:nonzero;stroke:none"
       d="m 737.70466,711.11794 c 0,-11.091 -11.327,-20.082 -25.3,-20.082 -13.973,0 -25.3,8.991 -25.3,20.082 0,11.091 11.327,20.082 25.3,20.082 13.973,0 25.3,-8.991 25.3,-20.082" /><path
       inkscape:connector-curvature="0"
       id="path138"
       style="fill:#cfc9ae;fill-opacity:1;fill-rule:nonzero;stroke:none"
       d="m 700.38866,730.92994 2.236,8.829 0.727,-7.567 -2.963,-1.262" /><path
       inkscape:connector-curvature="0"
       id="path140"
       style="fill:#cfc9ae;fill-opacity:1;fill-rule:nonzero;stroke:none"
       d="m 698.64966,728.89794 4.502,17.784 1.465,-15.242 -5.967,-2.542" /><path
       inkscape:connector-curvature="0"
       id="path142"
       style="fill:#cfc9ae;fill-opacity:1;fill-rule:nonzero;stroke:none"
       d="m 690.77566,735.18694 4.633,9.84 -1.377,-10.789 -3.256,0.949" /><path
       inkscape:connector-curvature="0"
       id="path144"
       style="fill:#cfc9ae;fill-opacity:1;fill-rule:nonzero;stroke:none"
       d="m 692.44166,735.93794 0.589,-0.172 0.248,1.952 -0.837,-1.78 z m 2.592,-3.228 -5.925,1.725 8.43,17.902 -2.505,-19.627" /><path
       inkscape:connector-curvature="0"
       id="path146"
       style="fill:#cfc9ae;fill-opacity:1;fill-rule:nonzero;stroke:none"
       d="m 685.43566,739.17494 3.547,8.95 -0.618,-9.607 -2.929,0.657" /><path
       inkscape:connector-curvature="0"
       id="path148"
       style="fill:#cfc9ae;fill-opacity:1;fill-rule:nonzero;stroke:none"
       d="m 687.05066,740.02994 0.218,-0.049 0.046,0.713 -0.264,-0.664 z m 2.41,-2.975 -5.64,1.266 6.829,17.234 -1.189,-18.5" /><path
       inkscape:connector-curvature="0"
       id="path150"
       style="fill:#cfc9ae;fill-opacity:1;fill-rule:nonzero;stroke:none"
       d="m 681.76566,738.19294 -3.055,13.13 6.951,-11.55 -3.896,-1.58" /><path
       inkscape:connector-curvature="0"
       id="path152"
       style="fill:#cfc9ae;fill-opacity:1;fill-rule:nonzero;stroke:none"
       d="m 681.57166,744.26594 1.036,-4.451 1.32,0.536 -2.356,3.915 z m -0.648,-7.695 -5.075,21.808 11.546,-19.185 -6.471,-2.623" /><path
       inkscape:connector-curvature="0"
       id="path154"
       style="fill:#cfc9ae;fill-opacity:1;fill-rule:nonzero;stroke:none"
       d="m 668.11766,738.86594 6.184,16.48 -0.633,-18.681 -5.551,2.201" /><path
       inkscape:connector-curvature="0"
       id="path156"
       style="fill:#cfc9ae;fill-opacity:1;fill-rule:nonzero;stroke:none"
       d="m 669.63966,739.53894 2.9,-1.149 0.33,9.76 -3.23,-8.611 z m 5.158,-4.599 -8.201,3.252 9.137,24.35 -0.936,-27.602" /><path
       inkscape:connector-curvature="0"
       id="path158"
       style="fill:#cfc9ae;fill-opacity:1;fill-rule:nonzero;stroke:none"
       d="m 665.87566,743.53094 1.086,5.84 0.766,-5.891 -1.852,0.051" /><path
       inkscape:connector-curvature="0"
       id="path160"
       style="fill:#cfc9ae;fill-opacity:1;fill-rule:nonzero;stroke:none"
       d="m 669.08366,742.25394 -4.63,0.127 2.717,14.604 1.913,-14.731" /><path
       inkscape:connector-curvature="0"
       id="path162"
       style="fill:#cfc9ae;fill-opacity:1;fill-rule:nonzero;stroke:none"
       d="m 660.04466,744.08194 0.251,6.147 1.654,-5.926 -1.905,-0.221" /><path
       inkscape:connector-curvature="0"
       id="path164"
       style="fill:#cfc9ae;fill-opacity:1;fill-rule:nonzero;stroke:none"
       d="m 658.80066,742.74194 0.616,15.05 4.052,-14.508 -4.668,-0.542" /><path
       inkscape:connector-curvature="0"
       id="path166"
       style="fill:#cfc9ae;fill-opacity:1;fill-rule:nonzero;stroke:none"
       d="m 653.16766,738.40994 -4.72,15.111 9.319,-14.02 -4.599,-1.091" /><path
       inkscape:connector-curvature="0"
       id="path168"
       style="fill:#cfc9ae;fill-opacity:1;fill-rule:nonzero;stroke:none"
       d="m 652.05866,745.94394 1.913,-6.123 1.863,0.442 -3.776,5.681 z m 0.306,-8.945 -7.528,24.1 14.862,-22.36 -7.334,-1.74" /><path
       inkscape:connector-curvature="0"
       id="path170"
       style="fill:#cfc9ae;fill-opacity:1;fill-rule:nonzero;stroke:none"
       d="m 645.45266,738.96194 0.824,12.433 3.046,-12.083 -3.87,-0.35" /><path
       inkscape:connector-curvature="0"
       id="path172"
       style="fill:#cfc9ae;fill-opacity:1;fill-rule:nonzero;stroke:none"
       d="m 646.96366,743.80994 -0.234,-3.54 1.101,0.1 -0.867,3.44 z m -2.788,-6.156 1.415,21.325 5.222,-20.724 -6.637,-0.601" /><path
       inkscape:connector-curvature="0"
       id="path174"
       style="fill:#cfc9ae;fill-opacity:1;fill-rule:nonzero;stroke:none"
       d="m 636.19066,735.82394 4.054,13.644 0.461,-14.961 -4.515,1.317" /><path
       inkscape:connector-curvature="0"
       id="path176"
       style="fill:#cfc9ae;fill-opacity:1;fill-rule:nonzero;stroke:none"
       d="m 637.66866,736.62994 1.8,-0.525 -0.185,5.965 -1.615,-5.44 z m 4.274,-3.721 -7.231,2.109 6.492,21.849 0.739,-23.958" /><path
       inkscape:connector-curvature="0"
       id="path178"
       style="fill:#cfc9ae;fill-opacity:1;fill-rule:nonzero;stroke:none"
       d="m 631.84566,729.78894 0.638,19.796 5.491,-19.03 -6.129,-0.766" /><path
       inkscape:connector-curvature="0"
       id="path180"
       style="fill:#cfc9ae;fill-opacity:1;fill-rule:nonzero;stroke:none"
       d="m 633.42866,742.02894 -0.352,-10.889 3.372,0.421 -3.02,10.468 z m -2.815,-13.591 0.925,28.702 7.962,-27.59 -8.887,-1.112" /><path
       inkscape:connector-curvature="0"
       id="path182"
       style="fill:#cfc9ae;fill-opacity:1;fill-rule:nonzero;stroke:none"
       d="m 626.11566,726.02394 -1.174,18.054 9.228,-13.16 -8.054,-4.894" /><path
       inkscape:connector-curvature="0"
       id="path184"
       style="fill:#cfc9ae;fill-opacity:1;fill-rule:nonzero;stroke:none"
       d="m 626.40166,739.92794 0.772,-11.873 5.296,3.218 -6.068,8.655 z m -1.343,-15.936 -1.577,24.236 12.387,-17.667 -10.81,-6.569" /><path
       inkscape:connector-curvature="0"
       id="path186"
       style="fill:#cfc9ae;fill-opacity:1;fill-rule:nonzero;stroke:none"
       d="m 624.64866,726.80694 -4.54,8.016 6.788,-6.228 -2.248,-1.788" /><path
       inkscape:connector-curvature="0"
       id="path188"
       style="fill:#cfc9ae;fill-opacity:1;fill-rule:nonzero;stroke:none"
       d="m 624.84866,728.86194 0.149,-0.262 0.073,0.06 -0.222,0.202 z m -0.549,-3.849 -8.931,15.769 13.354,-12.252 -4.423,-3.517" /><path
       inkscape:connector-curvature="0"
       id="path190"
       style="fill:#cfc9ae;fill-opacity:1;fill-rule:nonzero;stroke:none"
       d="m 620.60466,721.18594 -6.101,11.021 9.199,-8.606 -3.098,-2.415" /><path
       inkscape:connector-curvature="0"
       id="path192"
       style="fill:#cfc9ae;fill-opacity:1;fill-rule:nonzero;stroke:none"
       d="m 619.18466,726.20094 1.786,-3.225 0.905,0.707 -2.691,2.518 z m 1.053,-6.806 -10.415,18.817 15.706,-14.694 -5.291,-4.123" /><path
       inkscape:connector-curvature="0"
       id="path194"
       style="fill:#cfc9ae;fill-opacity:1;fill-rule:nonzero;stroke:none"
       d="m 617.06766,715.04494 -11.084,9.257 13.396,-5.393 -2.312,-3.864" /><path
       inkscape:connector-curvature="0"
       id="path196"
       style="fill:#cfc9ae;fill-opacity:1;fill-rule:nonzero;stroke:none"
       d="m 612.51866,720.39094 4.244,-3.544 0.886,1.48 -5.13,2.064 z m 4.854,-7.147 -17.922,14.969 21.662,-8.722 -3.74,-6.247" /><path
       inkscape:connector-curvature="0"
       id="path198"
       style="fill:#cfc9ae;fill-opacity:1;fill-rule:nonzero;stroke:none"
       d="m 619.48166,706.04094 -17.371,9.854 19.562,-4.024 -2.191,-5.83" /><path
       inkscape:connector-curvature="0"
       id="path200"
       style="fill:#cfc9ae;fill-opacity:1;fill-rule:nonzero;stroke:none"
       d="m 609.23966,713.21694 9.62,-5.457 1.213,3.228 -10.833,2.229 z m 10.866,-8.894 -25.124,14.251 28.291,-5.819 -3.167,-8.432" /><path
       inkscape:connector-curvature="0"
       id="path202"
       style="fill:#cfc9ae;fill-opacity:1;fill-rule:nonzero;stroke:none"
       d="m 614.18066,703.88894 -7.932,3.721 8.692,-1.097 -0.76,-2.624" /><path
       inkscape:connector-curvature="0"
       id="path204"
       style="fill:#cfc9ae;fill-opacity:1;fill-rule:nonzero;stroke:none"
       d="m 614.93366,702.22494 -15.999,7.503 17.533,-2.21 -1.534,-5.293" /><path
       inkscape:connector-curvature="0"
       id="path206"
       style="fill:#cfc9ae;fill-opacity:1;fill-rule:nonzero;stroke:none"
       d="m 613.47066,696.81094 -7.922,4.991 9.499,-0.24 -1.577,-4.751" /><path
       inkscape:connector-curvature="0"
       id="path208"
       style="fill:#cfc9ae;fill-opacity:1;fill-rule:nonzero;stroke:none"
       d="m 609.83466,700.50594 2.988,-1.883 0.593,1.792 -3.581,0.091 z m 4.286,-5.508 -12.858,8.101 15.416,-0.391 -2.558,-7.71" /><path
       inkscape:connector-curvature="0"
       id="path210"
       style="fill:#cfc9ae;fill-opacity:1;fill-rule:nonzero;stroke:none"
       d="m 615.77166,694.18294 -10.327,0.204 9.888,2.987 0.439,-3.191" /><path
       inkscape:connector-curvature="0"
       id="path212"
       style="fill:#cfc9ae;fill-opacity:1;fill-rule:nonzero;stroke:none"
       d="m 612.98766,695.42594 1.419,-0.029 -0.061,0.439 -1.358,-0.41 z m 4.148,-2.457 -19.235,0.379 18.419,5.565 0.816,-5.944" /><path
       inkscape:connector-curvature="0"
       id="path214"
       style="fill:#cfc9ae;fill-opacity:1;fill-rule:nonzero;stroke:none"
       d="m 616.45866,712.77894 -8.869,6.297 10.377,-3.26 -1.508,-3.037" /><path
       inkscape:connector-curvature="0"
       id="path216"
       style="fill:#cfc9ae;fill-opacity:1;fill-rule:nonzero;stroke:none"
       d="m 614.41066,715.68894 1.603,-1.137 0.272,0.548 -1.875,0.589 z m 2.493,-4.683 -16.136,11.457 18.881,-5.93 -2.745,-5.527" /><path
       inkscape:connector-curvature="0"
       id="path218"
       style="fill:#cfc9ae;fill-opacity:1;fill-rule:nonzero;stroke:none"
       d="m 618.08566,717.99294 -4.816,8.641 7.379,-6.195 -2.563,-2.446" /><path
       inkscape:connector-curvature="0"
       id="path220"
       style="fill:#cfc9ae;fill-opacity:1;fill-rule:nonzero;stroke:none"
       d="m 617.44966,721.57494 0.927,-1.664 0.494,0.471 -1.421,1.193 z m 0.347,-5.5 -8.707,15.618 13.338,-11.198 -4.631,-4.42" /><path
       inkscape:connector-curvature="0"
       id="path222"
       style="fill:#cfc9ae;fill-opacity:1;fill-rule:nonzero;stroke:none"
       d="m 623.31266,724.46194 -8.778,10.231 11.502,-7.03 -2.724,-3.201" /><path
       inkscape:connector-curvature="0"
       id="path224"
       style="fill:#cfc9ae;fill-opacity:1;fill-rule:nonzero;stroke:none"
       d="m 620.33366,729.75794 2.975,-3.469 0.925,1.086 -3.9,2.383 z m 2.982,-7.123 -14.58,16.995 19.106,-11.678 -4.526,-5.317" /><path
       inkscape:connector-curvature="0"
       id="path226"
       style="fill:#cfc9ae;fill-opacity:1;fill-rule:nonzero;stroke:none"
       d="m 629.78866,725.80494 -13.092,13.971 16.759,-9.26 -3.667,-4.711" /><path
       inkscape:connector-curvature="0"
       id="path228"
       style="fill:#cfc9ae;fill-opacity:1;fill-rule:nonzero;stroke:none"
       d="m 622.70766,735.09794 6.997,-7.468 1.961,2.518 -8.958,4.95 z m 7.164,-11.118 -19.184,20.473 24.559,-13.569 -5.375,-6.904" /><path
       inkscape:connector-curvature="0"
       id="path230"
       style="fill:#cfc9ae;fill-opacity:1;fill-rule:nonzero;stroke:none"
       d="m 631.07266,733.69794 -0.269,5.934 2.084,-5.563 -1.815,-0.371" /><path
       inkscape:connector-curvature="0"
       id="path232"
       style="fill:#cfc9ae;fill-opacity:1;fill-rule:nonzero;stroke:none"
       d="m 629.94966,732.25494 -0.672,14.838 5.209,-13.907 -4.537,-0.931" /><path
       inkscape:connector-curvature="0"
       id="path234"
       style="fill:#cfc9ae;fill-opacity:1;fill-rule:nonzero;stroke:none"
       d="m 636.33266,736.55894 0.252,6.147 1.654,-5.925 -1.906,-0.222" /><path
       inkscape:connector-curvature="0"
       id="path236"
       style="fill:#cfc9ae;fill-opacity:1;fill-rule:nonzero;stroke:none"
       d="m 635.08966,735.21894 0.616,15.053 4.049,-14.51 -4.665,-0.543" /><path
       inkscape:connector-curvature="0"
       id="path238"
       style="fill:#cfc9ae;fill-opacity:1;fill-rule:nonzero;stroke:none"
       d="m 641.75566,736.17894 -3.532,15.111 8.131,-14.02 -4.599,-1.091" /><path
       inkscape:connector-curvature="0"
       id="path240"
       style="fill:#cfc9ae;fill-opacity:1;fill-rule:nonzero;stroke:none"
       d="m 641.19366,743.80294 1.447,-6.193 1.885,0.446 -3.332,5.747 z m -0.322,-9.055 -5.617,24.029 12.929,-22.293 -7.312,-1.736" /><path
       inkscape:connector-curvature="0"
       id="path242"
       style="fill:#cfc9ae;fill-opacity:1;fill-rule:nonzero;stroke:none"
       d="m 647.51066,740.06494 -2.739,12.434 6.609,-12.083 -3.87,-0.351" /><path
       inkscape:connector-curvature="0"
       id="path244"
       style="fill:#cfc9ae;fill-opacity:1;fill-rule:nonzero;stroke:none"
       d="m 647.71966,744.63594 0.726,-3.295 1.025,0.094 -1.751,3.201 z m -1.143,-5.848 -4.752,21.573 11.468,-20.964 -6.716,-0.609" /><path
       inkscape:connector-curvature="0"
       id="path246"
       style="fill:#cfc9ae;fill-opacity:1;fill-rule:nonzero;stroke:none"
       d="m 651.47866,740.49294 0.49,13.645 6.402,-14.962 -6.892,1.317" /><path
       inkscape:connector-curvature="0"
       id="path248"
       style="fill:#cfc9ae;fill-opacity:1;fill-rule:nonzero;stroke:none"
       d="m 652.70166,741.46894 3.699,-0.707 -3.435,8.03 -0.264,-7.323 z m 7.639,-3.878 -10.085,1.928 0.717,19.964 9.368,-21.892" /><path
       inkscape:connector-curvature="0"
       id="path250"
       style="fill:#cfc9ae;fill-opacity:1;fill-rule:nonzero;stroke:none"
       d="m 655.76966,739.99494 5.297,16.309 3.837,-18.978 -9.134,2.669" /><path
       inkscape:connector-curvature="0"
       id="path252"
       style="fill:#cfc9ae;fill-opacity:1;fill-rule:nonzero;stroke:none"
       d="m 657.27666,740.79194 6.073,-1.776 -2.551,12.621 -3.522,-10.845 z m 9.181,-5.157 -12.196,3.564 7.073,21.772 5.123,-25.336" /><path
       inkscape:connector-curvature="0"
       id="path254"
       style="fill:#cfc9ae;fill-opacity:1;fill-rule:nonzero;stroke:none"
       d="m 667.04866,737.64394 1.202,18.054 4.475,-17.912 -5.677,-0.142" /><path
       inkscape:connector-curvature="0"
       id="path256"
       style="fill:#cfc9ae;fill-opacity:1;fill-rule:nonzero;stroke:none"
       d="m 668.93166,748.06894 -0.612,-9.206 2.895,0.072 -2.283,9.134 z m -3.154,-11.645 1.791,26.904 6.668,-26.693 -8.459,-0.211" /><path
       inkscape:connector-curvature="0"
       id="path258"
       style="fill:#cfc9ae;fill-opacity:1;fill-rule:nonzero;stroke:none"
       d="m 676.63166,741.60594 1.744,9.046 1.127,-9.143 -2.871,0.097" /><path
       inkscape:connector-curvature="0"
       id="path260"
       style="fill:#cfc9ae;fill-opacity:1;fill-rule:nonzero;stroke:none"
       d="m 678.05966,742.74594 0.094,-0.004 -0.036,0.298 -0.058,-0.294 z m 2.791,-2.471 -5.648,0.191 3.432,17.799 2.216,-17.99" /><path
       inkscape:connector-curvature="0"
       id="path262"
       style="fill:#cfc9ae;fill-opacity:1;fill-rule:nonzero;stroke:none"
       d="m 681.60266,736.95294 1.056,12.553 2.862,-12.268 -3.918,-0.285" /><path
       inkscape:connector-curvature="0"
       id="path264"
       style="fill:#cfc9ae;fill-opacity:1;fill-rule:nonzero;stroke:none"
       d="m 683.21066,741.91194 -0.309,-3.674 1.147,0.084 -0.838,3.59 z m -2.908,-6.243 1.804,21.43 4.885,-20.943 -6.689,-0.487" /><path
       inkscape:connector-curvature="0"
       id="path266"
       style="fill:#cfc9ae;fill-opacity:1;fill-rule:nonzero;stroke:none"
       d="m 685.91666,733.71394 4.787,13.624 -0.357,-14.436 -4.43,0.812" /><path
       inkscape:connector-curvature="0"
       id="path268"
       style="fill:#cfc9ae;fill-opacity:1;fill-rule:nonzero;stroke:none"
       d="m 687.49766,734.63094 1.696,-0.311 0.137,5.528 -1.833,-5.217 z m 4.001,-3.147 -7.162,1.313 7.739,22.032 -0.577,-23.345" /><path
       inkscape:connector-curvature="0"
       id="path270"
       style="fill:#cfc9ae;fill-opacity:1;fill-rule:nonzero;stroke:none"
       d="m 696.47666,726.69394 -1.262,19.379 6.997,-16.95 -5.735,-2.429" /><path
       inkscape:connector-curvature="0"
       id="path272"
       style="fill:#cfc9ae;fill-opacity:1;fill-rule:nonzero;stroke:none"
       d="m 696.86866,738.95594 0.684,-10.517 3.112,1.317 -3.796,9.2 z m -1.468,-14.007 -1.839,28.242 10.197,-24.703 -8.358,-3.539" /><path
       inkscape:connector-curvature="0"
       id="path274"
       style="fill:#cfc9ae;fill-opacity:1;fill-rule:nonzero;stroke:none"
       d="m 700.16666,727.99894 -0.032,8.76 2.729,-8.324 -2.697,-0.436" /><path
       inkscape:connector-curvature="0"
       id="path276"
       style="fill:#cfc9ae;fill-opacity:1;fill-rule:nonzero;stroke:none"
       d="m 698.98366,726.60494 -0.063,17.671 5.503,-16.792 -5.44,-0.879" /><path
       inkscape:connector-curvature="0"
       id="path278"
       style="fill:#cfc9ae;fill-opacity:1;fill-rule:nonzero;stroke:none"
       d="m 700.22866,731.19894 4.595,7.902 -1.938,-8.933 -2.657,1.031" /><path
       inkscape:connector-curvature="0"
       id="path280"
       style="fill:#cfc9ae;fill-opacity:1;fill-rule:nonzero;stroke:none"
       d="m 701.95466,731.80294 0.066,-0.025 0.048,0.223 -0.114,-0.198 z m 1.798,-3.244 -5.249,2.036 9.075,15.606 -3.826,-17.642" /><path
       inkscape:connector-curvature="0"
       id="path282"
       style="fill:#cfc9ae;fill-opacity:1;fill-rule:nonzero;stroke:none"
       d="m 725.10666,727.98194 5.39,7.623 -2.779,-8.913 -2.611,1.29" /><path
       inkscape:connector-curvature="0"
       id="path284"
       style="fill:#cfc9ae;fill-opacity:1;fill-rule:nonzero;stroke:none"
       d="m 726.87866,728.43094 0.119,-0.059 0.128,0.407 -0.247,-0.348 z m 1.559,-3.42 -5.103,2.52 10.532,14.9 -5.429,-17.42" /><path
       inkscape:connector-curvature="0"
       id="path286"
       style="fill:#cfc9ae;fill-opacity:1;fill-rule:nonzero;stroke:none"
       d="m 718.05466,732.01694 2.634,5.56 -0.794,-6.101 -1.84,0.541" /><path
       inkscape:connector-curvature="0"
       id="path288"
       style="fill:#cfc9ae;fill-opacity:1;fill-rule:nonzero;stroke:none"
       d="m 720.89266,729.94394 -4.506,1.327 6.451,13.614 -1.945,-14.941" /><path
       inkscape:connector-curvature="0"
       id="path290"
       style="fill:#cfc9ae;fill-opacity:1;fill-rule:nonzero;stroke:none"
       d="m 714.16566,728.48694 -0.965,12.618 4.805,-11.707 -3.84,-0.911" /><path
       inkscape:connector-curvature="0"
       id="path292"
       style="fill:#cfc9ae;fill-opacity:1;fill-rule:nonzero;stroke:none"
       d="m 714.95666,733.69594 0.287,-3.733 1.136,0.27 -1.423,3.463 z m -1.87,-6.685 -1.643,21.502 8.188,-19.95 -6.545,-1.552" /><path
       inkscape:connector-curvature="0"
       id="path294"
       style="fill:#cfc9ae;fill-opacity:1;fill-rule:nonzero;stroke:none"
       d="m 707.76866,729.03894 0.635,9.576 2.345,-9.306 -2.98,-0.27" /><path
       inkscape:connector-curvature="0"
       id="path296"
       style="fill:#cfc9ae;fill-opacity:1;fill-rule:nonzero;stroke:none"
       d="m 709.08966,731.03194 -0.045,-0.686 0.213,0.02 -0.168,0.666 z m -2.598,-3.301 1.225,18.467 4.524,-17.947 -5.749,-0.52" /><path
       inkscape:connector-curvature="0"
       id="path298"
       style="fill:#cfc9ae;fill-opacity:1;fill-rule:nonzero;stroke:none"
       d="m 703.39666,727.92094 2.227,12.544 1.745,-12.62 -3.972,0.076" /><path
       inkscape:connector-curvature="0"
       id="path300"
       style="fill:#cfc9ae;fill-opacity:1;fill-rule:nonzero;stroke:none"
       d="m 704.80866,729.08094 1.195,-0.022 -0.526,3.793 -0.669,-3.771 z m 3.926,-2.45 -6.75,0.129 3.786,21.319 2.964,-21.448" /><path
       inkscape:connector-curvature="0"
       id="path302"
       style="fill:#cfc9ae;fill-opacity:1;fill-rule:nonzero;stroke:none"
       d="m 709.35766,730.14194 0.716,10.798 2.645,-10.493 -3.361,-0.305" /><path
       inkscape:connector-curvature="0"
       id="path304"
       style="fill:#cfc9ae;fill-opacity:1;fill-rule:nonzero;stroke:none"
       d="m 710.76066,733.35494 -0.126,-1.905 0.592,0.055 -0.466,1.85 z m -2.68,-4.521 1.305,19.69 4.824,-19.134 -6.129,-0.556" /><path
       inkscape:connector-curvature="0"
       id="path306"
       style="fill:#cfc9ae;fill-opacity:1;fill-rule:nonzero;stroke:none"
       d="m 712.82166,730.24994 4.864,10.32 -1.449,-11.317 -3.415,0.997" /><path
       inkscape:connector-curvature="0"
       id="path308"
       style="fill:#cfc9ae;fill-opacity:1;fill-rule:nonzero;stroke:none"
       d="m 714.48766,730.99994 0.748,-0.218 0.317,2.48 -1.065,-2.262 z m 2.751,-3.276 -6.084,1.776 8.663,18.379 -2.579,-20.155" /><path
       inkscape:connector-curvature="0"
       id="path310"
       style="fill:#cfc9ae;fill-opacity:1;fill-rule:nonzero;stroke:none"
       d="m 718.76766,728.37994 8.759,12.713 -4.417,-14.793 -4.342,2.08" /><path
       inkscape:connector-curvature="0"
       id="path312"
       style="fill:#cfc9ae;fill-opacity:1;fill-rule:nonzero;stroke:none"
       d="m 720.53366,728.85094 1.836,-0.88 1.868,6.255 -3.704,-5.375 z m 3.316,-4.222 -6.848,3.28 13.816,20.051 -6.968,-23.331" /><path
       inkscape:connector-curvature="0"
       id="path314"
       style="fill:#cfc9ae;fill-opacity:1;fill-rule:nonzero;stroke:none"
       d="m 727.71066,724.98894 7.349,7.127 -4.796,-9.044 -2.553,1.917" /><path
       inkscape:connector-curvature="0"
       id="path316"
       style="fill:#cfc9ae;fill-opacity:1;fill-rule:nonzero;stroke:none"
       d="m 729.53466,725.10394 0.331,-0.248 0.62,1.17 -0.951,-0.922 z m 1.126,-3.815 -4.774,3.586 13.748,13.331 -8.974,-16.917" /><path
       inkscape:connector-curvature="0"
       id="path318"
       style="fill:#d0885a;fill-opacity:1;fill-rule:nonzero;stroke:none"
       d="m 712.44166,698.78694 c -5.035,0 -9.24,-5.153 -10.306,-12.047 1.376,-0.665 2.792,-1.258 4.231,-1.789 0.758,-1.515 3.188,-2.624 6.075,-2.624 2.886,0 5.316,1.109 6.075,2.624 1.439,0.531 2.855,1.124 4.231,1.789 -1.067,6.894 -5.271,12.047 -10.306,12.047" /><path
       inkscape:connector-curvature="0"
       id="path320"
       style="fill:#f2e4cf;fill-opacity:1;fill-rule:nonzero;stroke:none"
       d="m 729.44066,720.57794 c -5.96,-3.633 -10.08,1.416 -16.999,0.342 -6.919,1.074 -11.04,-3.975 -16.999,-0.342 -1.374,-2.084 -3.393,-3.696 -5.77,-4.572 -1.603,-7.757 -1.512,-15.738 3.035,-21.847 2.517,-3.381 5.821,-5.676 9.428,-7.419 1.066,6.894 5.271,12.047 10.306,12.047 5.035,0 9.239,-5.153 10.306,-12.047 3.607,1.743 6.911,4.038 9.428,7.419 4.547,6.109 4.637,14.09 3.035,21.847 -2.378,0.876 -4.397,2.488 -5.77,4.572" /><path
       inkscape:connector-curvature="0"
       id="path322"
       style="fill:#d0885a;fill-opacity:1;fill-rule:nonzero;stroke:none"
       d="m 695.44266,720.57794 c -0.117,0.071 -0.23,0.123 -0.348,0.202 -0.363,-0.143 -0.605,0.466 -0.969,0.324 -0.05,2.485 -0.749,4.935 -2.697,6.084 -1.948,1.149 -4.78,1.128 -6.146,-0.82 -4.827,-6.884 2.518,-11.317 4.439,-10.112 -0.018,-0.083 -0.032,-0.167 -0.049,-0.25 2.377,0.876 4.396,2.488 5.77,4.572" /><path
       inkscape:connector-curvature="0"
       id="path324"
       style="fill:#d0885a;fill-opacity:1;fill-rule:nonzero;stroke:none"
       d="m 739.59966,726.36794 c -1.365,1.948 -4.197,1.969 -6.145,0.82 -1.948,-1.149 -2.647,-3.599 -2.698,-6.084 -0.363,0.142 -0.605,-0.467 -0.968,-0.324 -0.118,-0.079 -0.231,-0.131 -0.348,-0.202 1.373,-2.084 3.392,-3.696 5.77,-4.572 -0.017,0.083 -0.032,0.167 -0.049,0.25 1.921,-1.205 9.266,3.228 4.438,10.112" /><path
       inkscape:connector-curvature="0"
       id="path326"
       style="fill:#3e2735;fill-opacity:1;fill-rule:nonzero;stroke:none"
       d="m 723.11166,706.41394 c 0,-1.639 1.329,-2.968 2.969,-2.968 1.639,0 2.968,1.329 2.968,2.968 0,1.64 -1.329,2.969 -2.968,2.969 -1.64,0 -2.969,-1.329 -2.969,-2.969" /><path
       inkscape:connector-curvature="0"
       id="path328"
       style="fill:#3e2735;fill-opacity:1;fill-rule:nonzero;stroke:none"
       d="m 703.68166,706.41394 c 0,-1.639 -1.329,-2.968 -2.969,-2.968 -1.639,0 -2.968,1.329 -2.968,2.968 0,1.64 1.329,2.969 2.968,2.969 1.64,0 2.969,-1.329 2.969,-2.969" /><path
       inkscape:connector-curvature="0"
       id="path330"
       style="fill:#3e2735;fill-opacity:1;fill-rule:nonzero;stroke:none"
       d="m 716.45066,688.85394 c 0,-1.64 -1.795,-2.969 -4.009,-2.969 -2.215,0 -4.01,1.329 -4.01,2.969 0,1.639 1.795,2.968 4.01,2.968 2.214,0 4.009,-1.329 4.009,-2.968" /></g></svg>