<?xml version="1.0" encoding="UTF-8" standalone="no"?>
<!-- Created with Inkscape (http://www.inkscape.org/) -->

<svg
   xmlns:dc="http://purl.org/dc/elements/1.1/"
   xmlns:cc="http://creativecommons.org/ns#"
   xmlns:rdf="http://www.w3.org/1999/02/22-rdf-syntax-ns#"
   xmlns:svg="http://www.w3.org/2000/svg"
   xmlns="http://www.w3.org/2000/svg"
   xmlns:sodipodi="http://sodipodi.sourceforge.net/DTD/sodipodi-0.dtd"
   xmlns:inkscape="http://www.inkscape.org/namespaces/inkscape"
   width="178.20625"
   height="203.32001"
   id="svg4070"
   version="1.1"
   inkscape:version="0.48.4 r9939"
   sodipodi:docname="owl.svg">
  <defs
     id="defs4072" />
  <sodipodi:namedview
     id="base"
     pagecolor="#ffffff"
     bordercolor="#666666"
     borderopacity="1.0"
     inkscape:pageopacity="0.0"
     inkscape:pageshadow="2"
     inkscape:zoom="0.35"
     inkscape:cx="215.5317"
     inkscape:cy="78.802857"
     inkscape:document-units="px"
     inkscape:current-layer="layer1"
     showgrid="false"
     inkscape:window-width="472"
     inkscape:window-height="415"
     inkscape:window-x="992"
     inkscape:window-y="612"
     inkscape:window-maximized="0"
     fit-margin-top="0"
     fit-margin-left="0"
     fit-margin-right="0"
     fit-margin-bottom="0" />
  <metadata
     id="metadata4075">
    <rdf:RDF>
      <cc:Work
         rdf:about="">
        <dc:format>image/svg+xml</dc:format>
        <dc:type
           rdf:resource="http://purl.org/dc/dcmitype/StillImage" />
        <dc:title />
      </cc:Work>
    </rdf:RDF>
  </metadata>
  <g
     inkscape:label="Layer 1"
     inkscape:groupmode="layer"
     id="layer1"
     transform="translate(-159.4683,-407.84504)">
    <path
       inkscape:connector-curvature="0"
       id="path362"
       style="fill:none;stroke:#d0885a;stroke-width:7.5;stroke-linecap:round;stroke-linejoin:round;stroke-miterlimit:10;stroke-opacity:1;stroke-dasharray:none"
       d="m 250.3433,584.62004 0,16.89 c 0,0 15.875,-6.165 14.8025,5.905" />
    <path
       inkscape:connector-curvature="0"
       id="path364"
       style="fill:#bf7956;fill-opacity:1;fill-rule:nonzero;stroke:none"
       d="m 218.8608,560.03254 c -0.2625,1.0475 -59.3925,26.6875 -59.3925,26.6875 0,0 30.35,15.43625 70.38125,-2.355 l -10.98875,-24.3325" />
    <path
       inkscape:connector-curvature="0"
       id="path366"
       style="fill:#f2e4cf;fill-opacity:1;fill-rule:nonzero;stroke:none"
       d="m 295.11955,580.38129 c 25.1725,-18.615 33.8925,-56.2975 19.45625,-84.07875 -5.18625,-9.98125 -13.9525,-19.14625 -25.1225,-20.475 -11.0875,-1.31875 -21.5275,5.29625 -29.94625,12.63125 -27.5175,23.975 -75.1225,99.84375 -8.08375,104.1475 15.3825,0.98625 31.22625,-3.0025 43.69625,-12.225" />
    <path
       inkscape:connector-curvature="0"
       id="path368"
       style="fill:#d0885a;fill-opacity:1;fill-rule:nonzero;stroke:none"
       d="m 337.67455,452.38254 c 0,23.86625 -22.00875,37.88875 -49.1575,37.88875 -27.14875,0 -49.1575,-14.0225 -49.1575,-37.88875 0,-23.865 22.00875,-43.2125 49.1575,-43.2125 27.14875,0 49.1575,19.3475 49.1575,43.2125" />
    <path
       inkscape:connector-curvature="0"
       id="path370"
       style="fill:#f2e4cf;fill-opacity:1;fill-rule:nonzero;stroke:none"
       d="m 316.0658,428.65379 c -5.62,-2.955 -12.59625,-4.015 -18.49375,-1.61125 -4.4525,1.81375 -8.11,5.88375 -9.055,10.35875 -0.94625,-4.475 -4.60375,-8.545 -9.055,-10.35875 -5.8975,-2.40375 -12.875,-1.34375 -18.495,1.61125 -9.295,4.88625 -15.325,14.83875 -15.65875,25.0175 -0.33375,10.18 4.95625,20.14625 13.1325,26.6225 13.47,10.6675 45.605,11.48125 60.1525,0 8.1875,-6.4625 13.46625,-16.4425 13.1325,-26.6225 -0.33375,-10.17875 -6.365,-20.13125 -15.66,-25.0175" />
    <path
       inkscape:connector-curvature="0"
       id="path372"
       style="fill:#d0885a;fill-opacity:1;fill-rule:nonzero;stroke:none"
       d="m 235.49455,486.89879 c -8.4475,5.2375 -14.29375,13.79625 -18.83375,22.63875 -4.54125,8.8425 -8.04375,18.225 -13.1925,26.7275 -8.3525,13.7925 -21.01625,24.93125 -35.76125,31.45625 19.73125,13.33375 46.24625,15.98 68.2225,6.8075 21.97625,-9.1725 38.74375,-29.8825 43.14,-53.2875 5.09,-27.09125 -16.8675,-50.9 -43.575,-34.3425" />
    <path
       inkscape:connector-curvature="0"
       id="path374"
       style="fill:#d0885a;fill-opacity:1;fill-rule:nonzero;stroke:none"
       d="m 293.65205,468.75754 -4.92,7.645 -4.92,-7.645 c -1.72875,-2.6875 0.2,-6.22375 3.39625,-6.22375 l 3.04875,0 c 3.195,0 5.125,3.53625 3.395,6.22375" />
    <path
       inkscape:connector-curvature="0"
       id="path376"
       style="fill:#3e2735;fill-opacity:1;fill-rule:nonzero;stroke:none"
       d="m 308.82955,451.82879 c 0,2.40625 1.95125,4.35875 4.35875,4.35875 2.4075,0 4.35875,-1.9525 4.35875,-4.35875 0,-2.4075 -1.95125,-4.35875 -4.35875,-4.35875 -2.4075,0 -4.35875,1.95125 -4.35875,4.35875" />
    <path
       inkscape:connector-curvature="0"
       id="path378"
       style="fill:#3e2735;fill-opacity:1;fill-rule:nonzero;stroke:none"
       d="m 269.83205,451.82879 c 0,2.40625 -1.9525,4.35875 -4.35875,4.35875 -2.4075,0 -4.35875,-1.9525 -4.35875,-4.35875 0,-2.4075 1.95125,-4.35875 4.35875,-4.35875 2.40625,0 4.35875,1.95125 4.35875,4.35875" />
    <path
       inkscape:connector-curvature="0"
       id="path380"
       style="fill:#d0885a;fill-opacity:1;fill-rule:nonzero;stroke:none"
       d="m 251.5433,407.84504 -3.0125,22.4525 14.855,-10.55375 -11.8425,-11.89875" />
    <path
       inkscape:connector-curvature="0"
       id="path382"
       style="fill:#d0885a;fill-opacity:1;fill-rule:nonzero;stroke:none"
       d="m 325.4908,407.84504 3.01125,22.4525 -14.85375,-10.55375 11.8425,-11.89875" />
  </g>
</svg>
