<?xml version="1.0" encoding="UTF-8" standalone="no"?>
<!-- Created with Inkscape (http://www.inkscape.org/) -->

<svg
   xmlns:dc="http://purl.org/dc/elements/1.1/"
   xmlns:cc="http://creativecommons.org/ns#"
   xmlns:rdf="http://www.w3.org/1999/02/22-rdf-syntax-ns#"
   xmlns:svg="http://www.w3.org/2000/svg"
   xmlns="http://www.w3.org/2000/svg"
   xmlns:sodipodi="http://sodipodi.sourceforge.net/DTD/sodipodi-0.dtd"
   xmlns:inkscape="http://www.inkscape.org/namespaces/inkscape"
   width="44.513264mm"
   height="35.365639mm"
   viewBox="0 0 157.72416 125.31132"
   id="svg3970"
   version="1.1"
   inkscape:version="0.91 r"
   sodipodi:docname="rabbit.svg">
  <defs
     id="defs3972" />
  <sodipodi:namedview
     id="base"
     pagecolor="#ffffff"
     bordercolor="#666666"
     borderopacity="1.0"
     inkscape:pageopacity="0.0"
     inkscape:pageshadow="2"
     inkscape:zoom="0.35"
     inkscape:cx="139.57637"
     inkscape:cy="22.655655"
     inkscape:document-units="px"
     inkscape:current-layer="layer1"
     showgrid="false"
     fit-margin-top="0"
     fit-margin-left="0"
     fit-margin-right="0"
     fit-margin-bottom="0"
     inkscape:window-width="959"
     inkscape:window-height="1028"
     inkscape:window-x="960"
     inkscape:window-y="0"
     inkscape:window-maximized="0" />
  <metadata
     id="metadata3975">
    <rdf:RDF>
      <cc:Work
         rdf:about="">
        <dc:format>image/svg+xml</dc:format>
        <dc:type
           rdf:resource="http://purl.org/dc/dcmitype/StillImage" />
        <dc:title></dc:title>
      </cc:Work>
    </rdf:RDF>
  </metadata>
  <g
     inkscape:label="Layer 1"
     inkscape:groupmode="layer"
     id="layer1"
     transform="translate(-235.42363,-429.70654)">
    <path
       inkscape:connector-curvature="0"
       id="path352"
       style="fill:#edecea;fill-opacity:1;fill-rule:nonzero;stroke:none"
       d="m 310.54655,555.01786 c -36.66038,0 -66.37963,-2.095 -66.37963,-4.67875 0,-2.5825 29.71925,-4.6775 66.37963,-4.6775 36.66,0 66.38,2.095 66.38,4.6775 0,2.58375 -29.72,4.67875 -66.38,4.67875" />
    <path
       inkscape:connector-curvature="0"
       id="path354"
       style="fill:#bab9b8;fill-opacity:1;fill-rule:nonzero;stroke:none"
       d="m 373.03155,495.26786 c 0,0 -7.67875,18.32375 -13.44625,22.83 -5.7675,4.5075 -15.4925,11.4275 -10.51125,16.15125 4.98125,4.72375 -20.59125,5.665 -20.59125,5.665 l -18.785,-1.41625 4.7325,-72.72375 c 0,0 11.20125,4.91625 15.925,4.9 4.72375,-0.0175 24.41125,-3.3375 24.41125,-3.3375 l 18.265,27.93125" />
    <path
       inkscape:connector-curvature="0"
       id="path356"
       style="fill:#9f9f9e;fill-opacity:1;fill-rule:nonzero;stroke:none"
       d="m 355.1303,464.03786 c 4.26125,0.32375 8.3925,0.1775 11.25125,-3.42125 0.6775,-0.85375 1.23125,-1.8025 1.69,-2.80875 -1.705,0.0788 -8.62375,-0.6925 -19.05,-16.11375 -8.1175,-12.00875 -16.96,-11.63125 -25.64375,-11.605 -1.7175,0.005 -3.47,-0.0925 -5.1575,-0.19125 -5.285,-0.3075 -9.9325,-0.615 -10.8675,2.255 -1.175,3.60125 5.275,6.63 11.36875,12.21375 6.30375,5.775 13.97125,13.145 25.59875,18.10625 3.5875,0.64 7.17875,1.2875 10.81,1.565" />
    <path
       inkscape:connector-curvature="0"
       id="path358"
       style="fill:#b1b1b0;fill-opacity:1;fill-rule:nonzero;stroke:none"
       d="m 250.21917,523.86161 c 0,0 -18.186,-14.0875 -14.23337,-29.2125 3.95262,-15.12625 10.164,-9.47375 11.09225,-4.60625 0.92875,4.8675 -0.0942,26.23875 3.14112,33.81875" />
    <path
       inkscape:connector-curvature="0"
       id="path360"
       style="fill:#edecea;fill-opacity:1;fill-rule:nonzero;stroke:none"
       d="m 371.76905,498.14161 c 0.16625,-0.36875 0.31875,-0.71 0.45625,-1.01875 -0.0987,0.26625 -0.26,0.61875 -0.45625,1.01875 m 1.1525,-3.04125 -18.155,-27.76375 c 0,0 -10.295,1.73625 -17.7825,2.70375 -11.6,-4.96125 -19.25375,-12.31875 -25.54875,-18.08625 -6.09375,-5.5825 -12.545,-8.61125 -11.37,-12.2125 0.645,-1.9775 3.05,-2.44625 6.2125,-2.44625 1.22375,0 2.56,0.07 3.95125,0.15 2.2325,1.92375 5.40875,4.095 8.4925,6.92125 6.30375,5.775 13.97125,13.145 25.59875,18.10625 3.5875,0.64 7.17875,1.2875 10.81,1.565 0.88625,0.0675 1.76625,0.11375 2.63,0.11375 3.29375,0 6.3575,-0.685 8.62125,-3.535 0.6775,-0.85375 1.23125,-1.8025 1.69,-2.80875 -0.0613,0.002 -0.12875,0.005 -0.20375,0.005 -0.5825,0 -1.57125,-0.10625 -2.93,-0.62375 2.17,0 4.4025,0.24625 6.64875,0.76125 1.91,0.4375 3.70125,1.1475 5.37,2.05125 0.0775,8.68 -0.1025,17.415 -1.91625,25.9275 -0.79,3.70875 -1.12375,6.0375 -2.11875,9.17125" />
    <path
       inkscape:connector-curvature="0"
       id="path362"
       style="fill:#acaaa8;fill-opacity:1;fill-rule:nonzero;stroke:none"
       d="m 365.92405,502.79536 c -1.10625,0 -2.21625,-0.1175 -3.3225,-0.37125 -13.24,-3.035 -21.955,-19.565 -19.47625,-30.3825 0.0725,-0.3175 0.18375,-0.61625 0.27375,-0.92625 -2.12875,-0.305 -4.24875,-0.67625 -6.365,-1.05375 -0.0162,-0.007 -0.0338,-0.0137 -0.05,-0.0212 7.4875,-0.9675 17.7825,-2.70375 17.7825,-2.70375 l 18.155,27.76375 c -0.20125,0.63375 -0.43,1.3025 -0.69625,2.02125 0,10e-4 0,10e-4 0,10e-4 -0.1375,0.30875 -0.29,0.65 -0.45625,1.01875 -0.67875,1.38125 -1.7775,3.33 -2.13,4.23375 -1.2275,0.27125 -2.46875,0.42 -3.715,0.42" />
    <path
       inkscape:connector-curvature="0"
       id="path364"
       style="fill:#939393;fill-opacity:1;fill-rule:nonzero;stroke:none"
       d="m 357.7603,464.15161 c -0.86375,0 -1.74375,-0.0462 -2.63,-0.11375 -3.63125,-0.2775 -7.2225,-0.925 -10.81,-1.565 -11.6275,-4.96125 -19.295,-12.33125 -25.59875,-18.10625 -3.08375,-2.82625 -6.26,-4.9975 -8.4925,-6.92125 0.23375,0.0138 0.46875,0.0275 0.705,0.0412 1.64625,0.0962 3.35375,0.19125 5.03125,0.19125 0.0412,0 0.0838,0 0.12625,0 0.70125,-0.001 1.40375,-0.006 2.1075,-0.006 7.99875,0 16.07375,0.5725 23.53625,11.61125 0.95125,1.4075 1.87375,2.6925 2.765,3.86625 2.53625,3.33625 6.4775,5.24875 10.55625,5.24875 1.05625,0 2.12125,-0.1275 3.17375,-0.3925 2.12375,-0.535 4.3775,-0.81625 6.7025,-0.81625 0.002,0 0.004,0 0.005,0 1.35875,0.5175 2.3475,0.62375 2.93,0.62375 0.075,0 0.1425,-0.002 0.20375,-0.005 -0.45875,1.00625 -1.0125,1.955 -1.69,2.80875 -2.26375,2.85 -5.3275,3.535 -8.62125,3.535" />
    <path
       inkscape:connector-curvature="0"
       id="path366"
       style="fill:#bab9b8;fill-opacity:1;fill-rule:nonzero;stroke:none"
       d="m 371.58655,457.94911 c -4.65625,-1.06625 -9.24875,-0.9775 -13.35625,0.0562 -5.1175,1.2875 -10.5375,-0.655 -13.73,-4.8575 -0.89125,-1.1725 -1.81375,-2.4575 -2.765,-3.86625 -8.11875,-12.0075 -16.96125,-11.63 -25.64375,-11.60375 -7.09625,0.0213 -14.79125,-1.7225 -16.02625,2.06375 -1.175,3.60125 5.27625,6.63 11.37,12.2125 6.30375,5.77625 13.97125,13.14625 25.59875,18.1075 2.11625,0.3775 4.23625,0.74875 6.365,1.05375 -0.09,0.30875 -0.20125,0.60875 -0.27375,0.92625 -2.47875,10.8175 6.24375,22.04625 19.4825,25.08 13.24,3.035 27.03125,-7.8525 28.46125,-14.09125 1.43,-6.24 -6.24375,-22.04625 -19.4825,-25.08125" />
    <path
       inkscape:connector-curvature="0"
       id="path368"
       style="fill:#edc9d2;fill-opacity:1;fill-rule:nonzero;stroke:none"
       d="m 344.78405,465.77411 c 0,0 -8.15125,0.555 -14.21375,-4.175 -12.8175,-9.9975 -20.05625,-14.73 -20.02375,-17.55625 0.0325,-2.825 15.89125,-0.1675 19.05375,1.125 3.1625,1.2925 12.6375,10.275 15.18375,20.60625" />
    <path
       inkscape:connector-curvature="0"
       id="path370"
       style="fill:#666466;fill-opacity:1;fill-rule:nonzero;stroke:none"
       d="m 369.23655,470.67411 c 0,1.25 -1.01375,2.26375 -2.265,2.26375 -1.25,0 -2.26375,-1.01375 -2.26375,-2.26375 0,-1.25125 1.01375,-2.265 2.26375,-2.265 1.25125,0 2.265,1.01375 2.265,2.265" />
    <path
       inkscape:connector-curvature="0"
       id="path372"
       style="fill:#bab9b8;fill-opacity:1;fill-rule:nonzero;stroke:none"
       d="m 341.29905,502.42411 c 0,22.85375 -22.45625,41.38 -50.15875,41.38 -27.70188,0 -50.159,-18.52625 -50.159,-41.38 0,-22.85375 22.45712,-41.38 50.159,-41.38 27.7025,0 50.15875,18.52625 50.15875,41.38" />
    <path
       inkscape:connector-curvature="0"
       id="path374"
       style="fill:#b1b1b0;fill-opacity:1;fill-rule:nonzero;stroke:none"
       d="m 316.17655,550.31036 -52.22738,0 c -10.1065,0 -18.29987,-8.19375 -18.29987,-18.3 l 55.00225,0 c 8.57375,0 15.525,6.95125 15.525,15.52625 l 0,2.77375" />
    <path
       inkscape:connector-curvature="0"
       id="path376"
       style="fill:#bab9b8;fill-opacity:1;fill-rule:nonzero;stroke:none"
       d="m 359.5853,548.65536 c 0,1.5325 -1.24125,2.77375 -2.77375,2.77375 l -11.77,0 c -10.10625,0 -17.79125,-8.1925 -17.79125,-18.3 l -0.50875,0 17.3175,0 c 8.575,0 15.52625,6.95125 15.52625,15.52625 l 0,0" />
    <path
       inkscape:connector-curvature="0"
       id="path378"
       style="fill:#666466;fill-opacity:1;fill-rule:nonzero;stroke:none"
       d="m 389.1378,482.25161 c 0.49625,0.6525 0.9475,1.2875 1.345,1.93 1.53375,-0.6 2.665,-2.535 2.665,-4.85625 0,-2.7975 -1.63375,-5.065 -3.65125,-5.065 -1.93875,0 -3.50875,2.10375 -3.6275,4.7525 1.365,0.67375 2.285,1.945 3.26875,3.23875" />
    <path
       inkscape:connector-curvature="0"
       id="path380"
       style="fill:#b1b1b0;fill-opacity:1;fill-rule:nonzero;stroke:none"
       d="m 292.68655,523.86161 c 0,14.62375 -11.85375,26.4775 -26.47713,26.4775 -14.62362,0 -22.979,-11.85375 -22.979,-26.4775 0,-14.6225 8.35538,-26.4775 22.979,-26.4775 14.62338,0 26.47713,11.855 26.47713,26.4775" />
  </g>
</svg>
