<?xml version="1.0" encoding="UTF-8" standalone="no"?>
<!-- Created with Inkscape (http://www.inkscape.org/) -->

<svg
   xmlns:dc="http://purl.org/dc/elements/1.1/"
   xmlns:cc="http://creativecommons.org/ns#"
   xmlns:rdf="http://www.w3.org/1999/02/22-rdf-syntax-ns#"
   xmlns:svg="http://www.w3.org/2000/svg"
   xmlns="http://www.w3.org/2000/svg"
   xmlns:sodipodi="http://sodipodi.sourceforge.net/DTD/sodipodi-0.dtd"
   xmlns:inkscape="http://www.inkscape.org/namespaces/inkscape"
   width="287.905"
   height="229.9938"
   id="svg3953"
   version="1.1"
   inkscape:version="0.48.4 r9939"
   sodipodi:docname="New document 2">
  <defs
     id="defs3955">
    <clipPath
       clipPathUnits="userSpaceOnUse"
       id="clipPath422">
      <path
         inkscape:connector-curvature="0"
         d="m 4901.42,5525.39 c 85.32,-4.92 160.72,67.77 183.23,150.21 22.51,82.44 2.85,170.64 -27.15,250.65 -30,80.02 -70.36,156.47 -91.27,239.33 -51.99,206.05 33.2,439.8 205.58,564.07 172.38,124.28 421.07,131.24 600.13,16.8 -92.74,16.26 -206.15,-14.64 -278.35,-75.07 -111.47,-93.29 -134.35,-255.32 -127.84,-400.53 6.5,-145.21 33.95,-294.09 -7.03,-433.55 -60.19,-204.87 -245.26,-337.08 -457.3,-311.91 z"
         id="path424" />
    </clipPath>
    <clipPath
       clipPathUnits="userSpaceOnUse"
       id="clipPath400">
      <path
         inkscape:connector-curvature="0"
         d="m 4273.9,6127.34 c -117.8,241.74 -348.88,236.8 -352.25,236.72 -3.38,0.08 -234.46,5.02 -352.26,-236.72 -24.51,-50.28 -43.15,-189.36 -100.69,-198.83 0,0 158.17,-269.75 452.95,-260.38 294.77,-9.37 452.94,260.38 452.94,260.38 -57.53,9.47 -76.18,148.55 -100.69,198.83 z"
         id="path402" />
    </clipPath>
  </defs>
  <sodipodi:namedview
     id="base"
     pagecolor="#ffffff"
     bordercolor="#666666"
     borderopacity="1.0"
     inkscape:pageopacity="0.0"
     inkscape:pageshadow="2"
     inkscape:zoom="0.35"
     inkscape:cx="141.80964"
     inkscape:cy="17.854044"
     inkscape:document-units="px"
     inkscape:current-layer="layer1"
     showgrid="false"
     fit-margin-top="0"
     fit-margin-left="0"
     fit-margin-right="0"
     fit-margin-bottom="0"
     inkscape:window-width="472"
     inkscape:window-height="415"
     inkscape:window-x="992"
     inkscape:window-y="612"
     inkscape:window-maximized="0" />
  <metadata
     id="metadata3958">
    <rdf:RDF>
      <cc:Work
         rdf:about="">
        <dc:format>image/svg+xml</dc:format>
        <dc:type
           rdf:resource="http://purl.org/dc/dcmitype/StillImage" />
        <dc:title></dc:title>
      </cc:Work>
    </rdf:RDF>
  </metadata>
  <g
     inkscape:label="Layer 1"
     inkscape:groupmode="layer"
     id="layer1"
     transform="translate(-233.19036,-320.22242)">
    <path
       inkscape:connector-curvature="0"
       id="path384"
       style="fill:#5e5954;fill-opacity:1;fill-rule:nonzero;stroke:none"
       d="m 412.28036,483.02263 c 10.665,0.615 20.09,-8.47125 22.90375,-18.77625 2.81375,-10.305 0.35625,-21.33 -3.39375,-31.33125 -3.75,-10.0025 -8.795,-19.55875 -11.40875,-29.91625 -6.49875,-25.75625 4.15,-54.975 25.6975,-70.50875 21.5475,-15.535 52.63375,-16.405 75.01625,-2.1 -11.5925,-2.0325 -25.76875,1.83 -34.79375,9.38375 -13.93375,11.66125 -16.79375,31.915 -15.98,50.06625 0.8125,18.15125 4.24375,36.76125 -0.87875,54.19375 -7.52375,25.60875 -30.6575,42.135 -57.1625,38.98875" />
    <path
       inkscape:connector-curvature="0"
       id="path386"
       style="fill:#fffbf5;fill-opacity:1;fill-rule:nonzero;stroke:none"
       d="m 362.83411,512.46138 c 9.91875,-0.095 20.07875,-2.2875 28.10375,-7.86625 8.105,-5.63375 16.0875,-17.11875 10.7225,-26.40125 -5.405,-9.35 -16.23125,-16.0675 -27.17375,-17.6075 -13.1425,-1.84875 -27.13125,3.50125 -35.32,13.51 -6.42625,7.85375 -9.9425,19.74875 -7.2375,29.6075 2.705,9.86375 21.6975,8.84625 30.905,8.7575" />
    <path
       inkscape:connector-curvature="0"
       id="path388"
       style="fill:#a1988c;fill-opacity:1;fill-rule:nonzero;stroke:none"
       d="m 443.08036,465.75763 c -3.04625,-17.77125 -16.7225,-33.50875 -34.42875,-39.61625 -19.85875,-6.85 -41.7975,-1.9075 -62.2525,3.0825 -22.86,5.57625 -44.26125,11.73375 -66.70875,17.475 -1.325,16.65875 4.3075,31.17625 14.5025,44.35875 4.10875,5.31375 20.67375,22.73625 21.54875,26.2625 2.00875,8.0975 0.8525,19.99875 -7.13,23.3025 -10.86875,4.5 -11.52375,6.82 -8.82625,9.49125 15.2175,0.7975 27.14625,-3.3275 27.14625,-3.3275 2.3775,-16.9325 18.53125,-47.64 12.39625,-67.04625 l 39.14125,-6.4425 c -16.85,18.075 1.2175,40.6025 13.03375,59.10375 -3.555,5.71 -17.3675,8.26875 -20.39125,9.67 -3.02375,1.40125 -4.4475,4.82875 -2.5375,7.47375 21.72875,0.33875 41.06,-0.78625 42.5775,-14.075 -3.41375,-3.72125 -2.30625,-8.0425 0.7875,-12.0125 3.09375,-3.97125 7.69125,-6.555 11.745,-9.635 14.73875,-11.2 22.44375,-30.29375 19.39625,-48.065" />
    <path
       inkscape:connector-curvature="0"
       id="path390"
       style="fill:#5e5954;fill-opacity:1;fill-rule:nonzero;stroke:none"
       d="m 269.00911,387.22388 c -4.50375,-6.145 -10.95,-10.05375 -17.6375,-10.69625 -3.04,-0.29125 -6.56875,0.38625 -8.1975,3.57125 -0.9725,1.9 -1.0375,4.2875 -0.9325,6.53125 0.35375,7.48375 2.3125,14.8425 5.62125,21.12375 11.80125,-1.5475 19.46,-6.01125 21.14625,-20.53" />
    <path
       inkscape:connector-curvature="0"
       id="path392"
       style="fill:#5e5954;fill-opacity:1;fill-rule:nonzero;stroke:none"
       d="m 310.60786,387.22388 c 4.50375,-6.145 10.95,-10.05375 17.6375,-10.69625 3.04,-0.29125 6.56875,0.38625 8.19875,3.57125 0.97125,1.9 1.0375,4.2875 0.93125,6.53125 -0.35375,7.48375 -2.31125,14.8425 -5.62125,21.12375 -11.8,-1.5475 -19.46,-6.01125 -21.14625,-20.53" />
    <path
       inkscape:connector-curvature="0"
       id="path394"
       style="fill:#fffbf5;fill-opacity:1;fill-rule:nonzero;stroke:none"
       d="m 333.84036,407.77888 c -14.725,-30.2175 -43.61,-29.6 -44.03125,-29.59 -0.4225,-0.01 -29.3075,-0.6275 -44.0325,29.59 -3.06375,6.285 -5.39375,23.67 -12.58625,24.85375 0,0 19.77125,33.71875 56.61875,32.5475 36.84625,1.17125 56.6175,-32.5475 56.6175,-32.5475 -7.19125,-1.18375 -9.5225,-18.56875 -12.58625,-24.85375" />
    <g
       id="g396"
       transform="matrix(0.125,0,0,-0.125,-200.39714,1173.6964)">
      <g
         clip-path="url(#clipPath400)"
         id="g398">
        <path
           inkscape:connector-curvature="0"
           id="path404"
           style="fill:#a1988c;fill-opacity:1;fill-rule:nonzero;stroke:none"
           d="m 4347.33,6132.43 c -72.58,96.84 -203.19,127.33 -302.38,70.59 -57.12,-32.68 -100.7,-92.62 -123.3,-161.56 -22.61,68.94 -66.19,128.88 -123.31,161.56 -99.19,56.74 -229.8,26.25 -302.38,-70.59 0,0 153.23,280.86 425.69,280.86 272.45,0 425.68,-280.86 425.68,-280.86" />
        <path
           inkscape:connector-curvature="0"
           id="path406"
           style="fill:#5e5954;fill-opacity:1;fill-rule:nonzero;stroke:none"
           d="m 3776.09,5638.41 c -33.81,41.74 -51.8,102.84 -47.72,162.13 4.08,59.29 30.14,115.63 69.15,149.48 24.81,21.53 56.36,37.01 68.1,71.88 15.37,45.63 -16.34,99.79 -54.87,110.57 -38.53,10.77 -78.38,-10.54 -110.75,-38.88 -32.38,-28.34 -60.62,-64.14 -94.98,-88.53 -34.36,-24.38 -78.32,-35.84 -112.92,-11.98 -45.93,-29.08 -73.29,-73.97 -68.6,-126.33 9.03,-100.72 97.59,-189.89 202.62,-204.03 48.67,-6.54 106.07,-3.21 149.97,-24.31" />
        <path
           inkscape:connector-curvature="0"
           id="path408"
           style="fill:#5e5954;fill-opacity:1;fill-rule:nonzero;stroke:none"
           d="m 4351.19,5993.08 c -34.6,-23.86 -78.56,-12.4 -112.92,11.98 -34.36,24.39 -62.6,60.19 -94.98,88.53 -32.37,28.34 -72.22,49.65 -110.75,38.88 -38.53,-10.78 -70.24,-64.94 -54.87,-110.57 11.74,-34.87 43.29,-50.35 68.11,-71.88 39,-33.85 65.07,-90.19 69.14,-149.48 4.08,-59.29 -13.9,-120.39 -47.72,-162.13 162.9,21.16 289.52,135.28 332.38,286.54 5.09,17.97 8.73,37.71 0.73,54.68 -8,16.97 -33.31,24.36 -49.12,13.45" />
      </g>
    </g>
    <path
       inkscape:connector-curvature="0"
       id="path410"
       style="fill:#a1988c;fill-opacity:1;fill-rule:nonzero;stroke:none"
       d="m 362.83411,495.55388 c 9.91875,-0.0962 20.07875,-2.28875 28.10375,-7.86625 8.105,-5.63375 16.0875,-17.12 10.7225,-26.40125 -5.405,-9.35 -16.23125,-16.0675 -27.17375,-17.6075 -13.1425,-1.85 -27.13125,3.50125 -35.32,13.51 -6.42625,7.85375 -9.9425,19.74875 -7.2375,29.60625 2.705,9.865 21.6975,8.8475 30.905,8.75875" />
    <path
       inkscape:connector-curvature="0"
       id="path412"
       style="fill:#3e2735;fill-opacity:1;fill-rule:nonzero;stroke:none"
       d="m 309.88036,422.43513 c 0,2.795 2.00875,5.06 4.48625,5.06 2.47875,0 4.4875,-2.265 4.4875,-5.06 0,-2.79375 -2.00875,-5.05875 -4.4875,-5.05875 -2.4775,0 -4.48625,2.265 -4.48625,5.05875" />
    <path
       inkscape:connector-curvature="0"
       id="path414"
       style="fill:#3e2735;fill-opacity:1;fill-rule:nonzero;stroke:none"
       d="m 269.73661,422.43513 c 0,2.795 -2.00875,5.06 -4.48625,5.06 -2.4775,0 -4.48625,-2.265 -4.48625,-5.06 0,-2.79375 2.00875,-5.05875 4.48625,-5.05875 2.4775,0 4.48625,2.265 4.48625,5.05875" />
    <path
       inkscape:connector-curvature="0"
       id="path416"
       style="fill:#3e2735;fill-opacity:1;fill-rule:nonzero;stroke:none"
       d="m 290.76411,458.00513 5.93375,-7.29625 c 1.26375,-1.555 0.28625,-4.06125 -1.58375,-4.06125 l -11.86625,0 c -1.87125,0 -2.84875,2.50625 -1.585,4.06125 l 5.93375,7.29625 c 0.85125,1.0475 2.31625,1.0475 3.1675,0" />
    <g
       id="g418"
       transform="matrix(0.125,0,0,-0.125,-200.39714,1173.6964)">
      <g
         clip-path="url(#clipPath422)"
         id="g420">
        <path
           inkscape:connector-curvature="0"
           id="path426"
           style="fill:none;stroke:#3e2735;stroke-width:100;stroke-linecap:butt;stroke-linejoin:miter;stroke-miterlimit:10;stroke-opacity:1;stroke-dasharray:none"
           d="m 4914.09,6011.06 c 100.46,38.45 218.37,28.06 310.56,-27.36 92.2,-55.41 156.7,-154.66 169.88,-261.42" />
        <path
           inkscape:connector-curvature="0"
           id="path428"
           style="fill:none;stroke:#3e2735;stroke-width:100;stroke-linecap:butt;stroke-linejoin:miter;stroke-miterlimit:10;stroke-opacity:1;stroke-dasharray:none"
           d="m 4868.21,6190.35 c 150.85,137.4 387.73,89.44 570.54,-1.19" />
        <path
           inkscape:connector-curvature="0"
           id="path430"
           style="fill:none;stroke:#3e2735;stroke-width:100;stroke-linecap:butt;stroke-linejoin:miter;stroke-miterlimit:10;stroke-opacity:1;stroke-dasharray:none"
           d="m 4908.81,6569.1 c 114.5,9.51 232.63,18.62 341.84,-17.09 109.21,-35.7 208.32,-128.15 215.01,-242.85 -4.95,9.48 -9.89,18.96 -14.84,28.45" />
        <path
           inkscape:connector-curvature="0"
           id="path432"
           style="fill:none;stroke:#3e2735;stroke-width:100;stroke-linecap:butt;stroke-linejoin:miter;stroke-miterlimit:10;stroke-opacity:1;stroke-dasharray:none"
           d="m 5181.6,6850.21 c 176.13,-32.7 334.99,-148.46 420.08,-306.11" />
      </g>
    </g>
  </g>
</svg>
