<?xml version="1.0" encoding="UTF-8" standalone="no"?>
<!-- Created with Inkscape (http://www.inkscape.org/) -->

<svg
   xmlns:dc="http://purl.org/dc/elements/1.1/"
   xmlns:cc="http://creativecommons.org/ns#"
   xmlns:rdf="http://www.w3.org/1999/02/22-rdf-syntax-ns#"
   xmlns:svg="http://www.w3.org/2000/svg"
   xmlns="http://www.w3.org/2000/svg"
   xmlns:sodipodi="http://sodipodi.sourceforge.net/DTD/sodipodi-0.dtd"
   xmlns:inkscape="http://www.inkscape.org/namespaces/inkscape"
   width="262.28165"
   height="186.21472"
   id="svg4344"
   version="1.1"
   inkscape:version="0.48.4 r9939"
   sodipodi:docname="New document 15">
  <defs
     id="defs4346">
    <clipPath
       clipPathUnits="userSpaceOnUse"
       id="clipPath338">
      <path
         inkscape:connector-curvature="0"
         d="m 6293.54,3775.37 c -75.45,73.55 -96.38,180.38 -85.32,285.16 11.06,104.78 60.05,210.28 42.17,314.11 -26.81,155.61 -171.1,293.72 -325.31,327.67 -154.2,33.95 -321.37,-19.88 -437.94,-126.39 -106.02,-96.88 -173.54,-243.6 -149.18,-385.13 24.36,-141.54 155.66,-265 298.94,-255.33 -54.6,5.91 -86.79,75.7 -64.61,125.94 22.19,50.23 83.81,75.16 137.98,66.15 54.17,-9.02 100.36,-45.89 133.36,-89.78 33.01,-43.89 54.89,-94.91 78.41,-144.54 23.51,-49.62 49.61,-99.28 88.97,-137.58 61.42,-59.77 153.75,-85.88 237.37,-67.13"
         id="path340" />
    </clipPath>
  </defs>
  <sodipodi:namedview
     id="base"
     pagecolor="#ffffff"
     bordercolor="#666666"
     borderopacity="1.0"
     inkscape:pageopacity="0.0"
     inkscape:pageshadow="2"
     inkscape:zoom="0.35"
     inkscape:cx="163.28369"
     inkscape:cy="233.10736"
     inkscape:document-units="px"
     inkscape:current-layer="layer1"
     showgrid="false"
     fit-margin-top="0"
     fit-margin-left="0"
     fit-margin-right="0"
     fit-margin-bottom="0"
     inkscape:window-width="472"
     inkscape:window-height="415"
     inkscape:window-x="1448"
     inkscape:window-y="24"
     inkscape:window-maximized="0" />
  <metadata
     id="metadata4349">
    <rdf:RDF>
      <cc:Work
         rdf:about="">
        <dc:format>image/svg+xml</dc:format>
        <dc:type
           rdf:resource="http://purl.org/dc/dcmitype/StillImage" />
        <dc:title></dc:title>
      </cc:Work>
    </rdf:RDF>
  </metadata>
  <g
     inkscape:label="Layer 1"
     inkscape:groupmode="layer"
     id="layer1"
     transform="translate(-211.71631,-579.25482)">
    <path
       inkscape:connector-curvature="0"
       id="path332"
       style="fill:#3e2735;fill-opacity:1;fill-rule:nonzero;stroke:none"
       d="m 331.78583,696.38704 c -9.43125,-9.19375 -10.70375,-22.5475 -9.32125,-35.645 1.3825,-13.0975 6.1625,-26.285 3.9275,-39.26375 -3.35125,-19.45125 -21.38751,-36.715 -40.66376,-40.95875 -19.275,-4.24375 -40.17125,2.485 -54.7425,15.79875 -13.2525,12.11 -21.6925,30.45 -18.6475,48.14125 3.045,17.6925 19.4575,33.125 37.3675,31.91625 -6.825,-0.73875 -10.84875,-9.4625 -8.07625,-15.7425 2.77375,-6.27875 10.47625,-9.395 17.2475,-8.26875 6.77125,1.1275 12.545,5.73625 16.67,11.2225 4.12625,5.48625 6.86125,11.86375 9.80125,18.0675 2.93875,6.2025 6.20125,12.41 11.12125,17.1975 7.6775,7.47125 19.21876,10.735 29.67126,8.39125" />
    <g
       id="g334"
       transform="matrix(0.125,0,0,-0.125,-454.90667,1168.3083)">
      <g
         clip-path="url(#clipPath338)"
         id="g336">
        <path
           inkscape:connector-curvature="0"
           id="path342"
           style="fill:#f2e4cf;fill-opacity:1;fill-rule:nonzero;stroke:none"
           d="m 5628.08,3956.06 c 0,0 -1.91,0 -5.61,0.01 -3.62,-0.08 -9.3,0.04 -16.89,0.89 -7.35,0.9 -16.54,2.1 -27.26,4.52 -10.85,2.16 -23,5.97 -36.3,11.46 -26.6,10.78 -58.56,28.23 -89,57.36 -15.34,14.41 -29.92,31.81 -43.69,51.86 -13.38,20.27 -25.31,43.51 -34.62,69.71 -4.54,13.12 -8.09,27.03 -10.92,41.54 l -1.01,5.47 -0.25,1.38 -0.13,0.69 c -0.07,0.96 -0.01,-1.17 -0.19,2.32 l -0.36,2.15 -1.42,8.9 c -0.35,4.29 -0.71,8.6 -1.07,12.93 -0.19,3.9 -0.39,7.83 -0.59,11.77 -0.76,30.92 2.85,62.07 9.92,92.83 14.94,61.32 43.3,121.4 88.58,175.62 22.45,27.31 50.12,52.42 83.67,74.15 4.18,2.72 8.6,5.27 12.93,7.89 l 13.15,7.11 9.39,5.11 c 3.8,1.92 9.51,4.46 14.28,6.5 l 15.08,6.3 13.66,4.81 13.67,4.64 13.86,3.82 c 74.21,20.49 153.29,18.64 227.55,-1.91 9.27,-2.64 18.38,-5.97 27.54,-9.04 9.08,-3.34 18.01,-7.18 26.97,-10.85 8.84,-4.05 17.57,-8.39 26.29,-12.68 l 12.77,-7.19 6.36,-3.64 3.17,-1.83 1.58,-0.92 4.19,-2.62 9.12,-6.04 4.56,-3.01 c 1.57,-1.07 2.77,-1.75 5.22,-3.63 8.45,-6.39 17.68,-13.21 25.13,-19.58 14.52,-12.37 28.23,-25.43 40.9,-39.22 12.62,-13.82 24.48,-28.13 35.03,-43.16 10.5,-15.08 20.04,-30.61 28.48,-46.52 17,-31.76 30.17,-64.85 38.53,-98.6 4.34,-16.8 7.61,-33.73 9.9,-50.61 1.01,-8.48 2.36,-16.81 2.75,-25.29 l 0.65,-12.62 0.48,-8.73 -0.12,-4.99 -0.25,-9.92 -0.55,-13.57 c -0.32,-9.75 -1.25,-16.98 -2.03,-24.75 -1.73,-15.29 -3.92,-29.5 -6.7,-43.17 -5.55,-27.08 -11.49,-51.57 -17.35,-74.28 -6.08,-22.65 -11.38,-43.59 -15.68,-62.81 -2.25,-9.58 -4.14,-18.74 -5.66,-27.45 -0.66,-4.22 -1.31,-8.38 -1.96,-12.5 -0.45,-5.88 -0.92,-8.57 -1.4,-12.84 -1.8,-16.78 -1.57,-33.04 -0.48,-48.32 2.35,-30.56 9.08,-57.22 18.86,-77.54 9.92,-20.1 21.45,-35.18 31.1,-44.02 9.52,-9 15.66,-13.38 15.66,-13.38 l -3.98,-11.32 c 0,0 -1.79,0.66 -5.26,1.94 -3.46,1.29 -8.56,3.37 -14.94,6.64 -12.71,6.47 -30.78,18.16 -48.25,38.41 -17.53,20.06 -34.05,48.46 -45.08,83.53 -5.57,17.51 -9.84,36.64 -12.27,57.1 -2.47,20.39 -2.45,42.34 -1.12,64.53 2.63,44.59 10.68,91.76 15.46,141.37 2.29,24.97 3.66,49.85 1.7,75.73 -2.15,25.3 -7.28,51.39 -15.42,76.73 -16.22,50.8 -44.61,99.76 -83.59,139.81 -9.73,10.02 -20.16,19.38 -31.07,28.2 -5.43,4.4 -11.08,8.24 -16.6,12.42 -5.84,4.02 -12.19,7.89 -18.26,11.85 -23.49,14.19 -50.2,25.5 -77.28,33.05 -54.32,15.64 -112.82,17.34 -166.92,4.27 l -10.13,-2.45 -9.91,-3.11 -9.88,-3.13 -9.44,-3.7 c -3.15,-1.26 -6.26,-2.34 -9.45,-3.75 l -9.65,-4.58 c -3.01,-1.46 -6.86,-3.17 -9.17,-4.43 -2.95,-1.66 -5.95,-3.19 -8.85,-4.93 -23.33,-13.67 -44.22,-31.16 -62.42,-50.56 -36.42,-38.89 -62.86,-84.86 -78.2,-131.23 -15.7,-46.46 -18.53,-93.43 -9.16,-134.86 9.04,-41.5 27.4,-76.98 47.92,-104.81 20.63,-27.96 43.81,-48.17 64.36,-62.23 20.6,-14.15 38.74,-22.09 51.17,-26.96 6.18,-2.24 10.96,-3.95 14.45,-4.94 3.39,-1.05 5.14,-1.59 5.14,-1.59 l -3.39,-11.51" />
      </g>
    </g>
    <path
       inkscape:connector-curvature="0"
       id="path344"
       style="fill:#f2e4cf;fill-opacity:1;fill-rule:nonzero;stroke:none"
       d="m 352.04958,689.54079 c 11.31375,1.3975 21.8375,6.355 32.1025,11.3125 10.265,4.9575 20.69875,10.04625 31.97125,11.74125 9.51875,1.4325 19.8775,0.0575 27.76,-5.22125 l 1.11,-7.80625 c -9.255,6.18875 -21.90375,4.11625 -31.81625,-0.95375 -9.91125,-5.07 -18.28875,-12.73875 -28.08125,-18.0375 -19.61,-10.60875 -45.71125,-10.14 -62.89375,4.06875 -7.17125,5.93 -12.15626,14.32375 -14.50876,23.33625 0.39,-0.55875 0.77375,-1.1225 1.195,-1.65875 9.95626,-12.70375 27.14376,-18.76125 43.16126,-16.78125" />
    <path
       inkscape:connector-curvature="0"
       id="path346"
       style="fill:#3e2735;fill-opacity:1;fill-rule:nonzero;stroke:none"
       d="m 416.12333,712.59454 c -11.2725,-1.695 -21.70625,-6.78375 -31.97125,-11.74125 -10.265,-4.9575 -20.78875,-9.915 -32.1025,-11.3125 -16.0175,-1.98 -33.205,4.0775 -43.16126,16.78125 -0.42125,0.53625 -0.805,1.1 -1.195,1.65875 -3.28375,12.58625 -1.42625,26.38125 6.86876,36.38 6.06875,7.3175 11.0575,11.96625 14.03375,20.995 8.5325,-0.395 3.6275,0.39375 12.16,0 0.45125,-7.3475 1.205,-13.19875 2.08875,-19.6475 13.915,-2.24375 28.12625,-0.3725 42.09625,1.5 4.83375,0.6475 9.93625,1.4075 13.72875,4.47375 2.4175,1.955 3.10625,5.135 3.68,8.355 0.56875,3.19875 3.42625,5.485 6.67375,5.3425 1.67,-0.0725 3.07625,-0.1775 6.60625,-0.0238 0.3575,-6.19125 0.2475,-10.82375 3.3775,-15.34125 3.13,-4.51625 15.31875,-13.77 20.51375,-11.9775 l 4.3625,-30.66375 c -7.8825,5.27875 -18.24125,6.65375 -27.76,5.22125" />
    <path
       inkscape:connector-curvature="0"
       id="path348"
       style="fill:#3e2735;fill-opacity:1;fill-rule:nonzero;stroke:none"
       d="m 335.66208,758.02329 c -4.60625,0 -8.34125,2.26875 -8.34125,5.0675 0,0.86 0.355,1.66875 0.9775,2.37875 l 14.7275,0 c 0.6225,-0.71 0.97875,-1.51875 0.97875,-2.37875 0,-2.79875 -3.735,-5.0675 -8.3425,-5.0675" />
    <path
       inkscape:connector-curvature="0"
       id="path350"
       style="fill:#3e2735;fill-opacity:1;fill-rule:nonzero;stroke:none"
       d="m 421.18333,763.09079 c 0,-2.79875 -3.73375,-5.0675 -8.34125,-5.0675 -4.6075,0 -8.34125,2.26875 -8.34125,5.0675 0,0.86 0.355,1.66875 0.9775,2.37875 l 14.7275,0 c 0.6225,-0.71 0.9775,-1.51875 0.9775,-2.37875" />
    <path
       inkscape:connector-curvature="0"
       id="path352"
       style="fill:#3e2735;fill-opacity:1;fill-rule:nonzero;stroke:none"
       d="m 468.94708,707.47454 c -0.4275,-4.0775 -1.09875,-6.79125 -1.70875,-8.545 -0.595,-1.71 0.13,-3.56375 1.63125,-4.57625 4.50375,-3.03875 5.55375,-6.51125 4.98875,-9.765 -1.14625,-6.59125 -10.0925,-7.865 -13.135,-1.9075 l -1.165,2.28375 c -3.87625,-3.87625 -30.5425,-3.87625 -34.41875,0 l -1.6725,-2.51875 c -3.37125,-5.07125 -11.23875,-3.95 -12.88,1.915 -0.965,3.45125 -0.2075,7.16875 4.84625,10.105 1.6975,0.98625 2.505,2.9825 1.89625,4.8475 -0.5725,1.7575 -1.18125,4.37 -1.57875,8.16125 -0.27625,2.62625 -0.32125,5.8775 -0.41625,9.02375 -0.2625,8.79875 4.775,16.8925 12.775,20.56375 0.25,0.115 0.5,0.2275 0.7525,0.33875 1.2175,0.54 2.4625,1.045 3.72,1.49375 6.00375,2.145 13.53,2.145 19.53375,0 1.25625,-0.44875 2.5025,-0.95375 3.72,-1.49375 0.2525,-0.11125 0.5025,-0.22375 0.7525,-0.33875 8,-3.67125 13.0375,-11.765 12.77375,-20.56375 -0.0937,-3.14625 -0.14,-6.3975 -0.415,-9.02375" />
    <path
       inkscape:connector-curvature="0"
       id="path354"
       style="fill:#79747a;fill-opacity:1;fill-rule:nonzero;stroke:none"
       d="m 455.72458,719.47829 c 0,1.55875 1.26375,2.8225 2.8225,2.8225 1.55875,0 2.8225,-1.26375 2.8225,-2.8225 0,-1.55875 -1.26375,-2.8225 -2.8225,-2.8225 -1.55875,0 -2.8225,1.26375 -2.8225,2.8225" />
    <path
       inkscape:connector-curvature="0"
       id="path356"
       style="fill:#79747a;fill-opacity:1;fill-rule:nonzero;stroke:none"
       d="m 430.47208,719.47829 c 0,1.55875 -1.26375,2.8225 -2.8225,2.8225 -1.55875,0 -2.8225,-1.26375 -2.8225,-2.8225 0,-1.55875 1.26375,-2.8225 2.8225,-2.8225 1.55875,0 2.8225,1.26375 2.8225,2.8225" />
    <path
       inkscape:connector-curvature="0"
       id="path358"
       style="fill:#79747a;fill-opacity:1;fill-rule:nonzero;stroke:none"
       d="m 443.25833,737.88704 3.11875,-3.4 c 0.665,-0.725 0.15,-1.89375 -0.8325,-1.89375 l -6.23625,0 c -0.98375,0 -1.4975,1.16875 -0.8325,1.89375 l 3.1175,3.4 c 0.4475,0.48875 1.2175,0.48875 1.665,0" />
    <path
       inkscape:connector-curvature="0"
       id="path360"
       style="fill:#f2e4cf;fill-opacity:1;fill-rule:nonzero;stroke:none"
       d="m 455.23333,682.67079 c -6.41125,-2.4475 -19.335,-2.44875 -25.75875,-0.004 l 12.90375,42.46375 12.855,-42.46" />
  </g>
</svg>
