<?xml version="1.0" encoding="UTF-8" standalone="no"?>
<!-- Created with Inkscape (http://www.inkscape.org/) -->

<svg
   xmlns:dc="http://purl.org/dc/elements/1.1/"
   xmlns:cc="http://creativecommons.org/ns#"
   xmlns:rdf="http://www.w3.org/1999/02/22-rdf-syntax-ns#"
   xmlns:svg="http://www.w3.org/2000/svg"
   xmlns="http://www.w3.org/2000/svg"
   xmlns:sodipodi="http://sodipodi.sourceforge.net/DTD/sodipodi-0.dtd"
   xmlns:inkscape="http://www.inkscape.org/namespaces/inkscape"
   width="174.89096"
   height="171.18352"
   id="svg4086"
   version="1.1"
   inkscape:version="0.48.4 r9939"
   sodipodi:docname="New document 7">
  <defs
     id="defs4088" />
  <sodipodi:namedview
     id="base"
     pagecolor="#ffffff"
     bordercolor="#666666"
     borderopacity="1.0"
     inkscape:pageopacity="0.0"
     inkscape:pageshadow="2"
     inkscape:zoom="0.35"
     inkscape:cx="45.302621"
     inkscape:cy="71.306041"
     inkscape:document-units="px"
     inkscape:current-layer="layer1"
     showgrid="false"
     fit-margin-top="0"
     fit-margin-left="0"
     fit-margin-right="0"
     fit-margin-bottom="0"
     inkscape:window-width="472"
     inkscape:window-height="415"
     inkscape:window-x="1448"
     inkscape:window-y="343"
     inkscape:window-maximized="0" />
  <metadata
     id="metadata4091">
    <rdf:RDF>
      <cc:Work
         rdf:about="">
        <dc:format>image/svg+xml</dc:format>
        <dc:type
           rdf:resource="http://purl.org/dc/dcmitype/StillImage" />
        <dc:title></dc:title>
      </cc:Work>
    </rdf:RDF>
  </metadata>
  <g
     inkscape:label="Layer 1"
     inkscape:groupmode="layer"
     id="layer1"
     transform="translate(-329.69738,-432.48471)">
    <path
       inkscape:connector-curvature="0"
       id="path102"
       style="fill:#855434;fill-opacity:1;fill-rule:nonzero;stroke:none"
       d="m 345.72459,512.36596 c -5.9625,0 -10.79875,4.8025 -10.8625,10.74875 l 21.725,0 c -0.065,-5.94625 -4.9,-10.74875 -10.8625,-10.74875" />
    <path
       inkscape:connector-curvature="0"
       id="path104"
       style="fill:#d0885a;fill-opacity:1;fill-rule:nonzero;stroke:none"
       d="m 334.86209,523.11471 c -0.001,0.04 -0.006,0.08 -0.006,0.12 0,6.0025 4.86625,16.24375 10.86875,16.24375 6.0025,0 10.86875,-10.24125 10.86875,-16.24375 0,-0.04 -0.006,-0.08 -0.006,-0.12 l -21.725,0" />
    <path
       inkscape:connector-curvature="0"
       id="path106"
       style="fill:none;stroke:#855434;stroke-width:2.5;stroke-linecap:butt;stroke-linejoin:miter;stroke-miterlimit:10;stroke-opacity:1;stroke-dasharray:none"
       d="m 345.72459,508.44096 0,9.16875" />
    <path
       inkscape:connector-curvature="0"
       id="path108"
       style="fill:#ce3e21;fill-opacity:1;fill-rule:nonzero;stroke:none"
       d="m 464.60959,568.22471 c 12.85125,-16.555 16.24625,-38.9725 13.37,-59.73125 -1.0525,-7.59375 -2.88,-15.1425 -2.6925,-22.80625 0.18625,-7.66375 2.75375,-15.7375 8.835,-20.405 6.0825,-4.6675 16.1125,-4.41125 20.46625,1.89875 -2.91125,-19.2 -22.2725,-33.62125 -41.69,-33.34875 -19.4175,0.27125 -37.3625,13.52 -45.8475,30.9875 -8.48375,17.4675 -8.25625,38.35125 -2.09625,56.76875 3.56375,10.655 9.23125,20.835 10.86625,32.06625 1.53,10.505 -4.5775,19.01 -4.07875,28.84987 0.9575,18.88525 37.7575,-7.69737 42.8675,-14.27987" />
    <path
       inkscape:connector-curvature="0"
       id="path110"
       style="fill:none;stroke:#f25425;stroke-width:1.25;stroke-linecap:butt;stroke-linejoin:miter;stroke-miterlimit:10;stroke-opacity:1;stroke-dasharray:none"
       d="m 373.37334,594.45471 c 1.2575,0.39362 2.60375,0.7325 4.06125,0.99862 0,0 -1.60125,-0.44637 -4.06125,-0.99862 z" />
    <path
       inkscape:connector-curvature="0"
       id="path112"
       style="fill:#f2e4cf;fill-opacity:1;fill-rule:nonzero;stroke:none"
       d="m 379.41959,591.94346 c -9.55625,-6.27238 -12.6725,-19.3025 -6.83375,-28.575 2.81,-4.46125 7.2775,-7.92375 10.125,-12.36625 5.9075,-9.21875 3.17375,-22.1825 -6.0725,-28.79625 -4.89,-3.49875 -11.2775,-4.96875 -17.48375,-4.5175 -1.11875,7.335 -8.9275,57.2375 4.965,71.38 4.88375,2.13875 10.13125,3.3175 15.3,2.875" />
    <path
       inkscape:connector-curvature="0"
       id="path114"
       style="fill:#f25425;fill-opacity:1;fill-rule:nonzero;stroke:none"
       d="m 421.36334,529.14596 c -14.41375,-14.415 -36.895,-29.9825 -35.79875,-41.515 1.095,-11.53125 -19.085,0 -19.085,0 0,1.49 -5.28625,16.68375 -7.325,30.0575 6.20625,-0.45125 12.59375,1.01875 17.48375,4.5175 9.24625,6.61375 11.98,19.5775 6.0725,28.79625 -2.8475,4.4425 -7.315,7.905 -10.125,12.36625 -5.83875,9.2725 -2.7225,22.30262 6.83375,28.575 -5.16875,0.4425 -10.41625,-0.73625 -15.3,-2.875 2.25125,2.29112 5.2675,4.14112 9.25375,5.38625 2.46,0.55225 4.06125,0.99862 4.06125,0.99862 -1.4575,-0.26612 -2.80375,-0.605 -4.06125,-0.99862 -7.23,-1.6225 -21.90375,-4.1635 -25.345,0.99862 -4.6125,6.91988 0,8.07275 0,8.07275 l 50.16375,0 c 0,0 22.0325,2.67475 33.06125,-15.18125 12.10875,-19.60512 4.525,-44.78387 -9.89,-59.19887" />
    <path
       inkscape:connector-curvature="0"
       id="path116"
       style="fill:#f25425;fill-opacity:1;fill-rule:nonzero;stroke:none"
       d="m 409.83584,432.48471 -20.19125,18.6025 c -4.25,-4.25 -33.48,-4.25 -37.72875,0 l -21.335,-17.25875 c 0,0 -6.24125,21.54875 14.45375,29.43625 0,0 -2.3675,2.54375 -3.41125,12.4975 -0.815,7.7625 0.20125,20.49 -2.92,22.57125 0,0 7.89,6.06875 17.29125,10.235 1.27125,-3.325 7.4,-5.84875 14.785,-5.84875 7.385,0 13.51375,2.52375 14.785,5.84875 9.40125,-4.16625 17.29125,-10.235 17.29125,-10.235 -3.12,-2.08125 -2.105,-14.80875 -2.92,-22.57125 -1.04375,-9.95375 -3.41125,-12.4975 -3.41125,-12.4975 20.2075,-9.71625 13.31125,-30.78 13.31125,-30.78" />
    <path
       inkscape:connector-curvature="0"
       id="path118"
       style="fill:#f2e4cf;fill-opacity:1;fill-rule:nonzero;stroke:none"
       d="m 370.77959,502.71971 c -7.385,0 -13.51375,2.52375 -14.785,5.84875 1.33625,0.59125 2.70125,1.145 4.07875,1.6375 6.58125,2.35 9.24,3.3 10.32625,3.6875 l 0.005,0.27 c 0,0 0.006,-0.002 0.375,-0.13375 0.36875,0.13125 0.375,0.13375 0.375,0.13375 l 0.006,-0.27 c 1.085,-0.3875 3.74375,-1.3375 10.325,-3.6875 1.3775,-0.4925 2.74375,-1.04625 4.07875,-1.6375 -1.27125,-3.325 -7.4,-5.84875 -14.785,-5.84875" />
    <path
       inkscape:connector-curvature="0"
       id="path120"
       style="fill:#f25425;fill-opacity:1;fill-rule:nonzero;stroke:none"
       d="m 392.68959,517.73971 c 0,0 -19.2875,10.43625 -29.2375,4.9225 -9.94875,-5.515 -15.96875,-4.82375 -18.13375,0.98875 -2.16625,5.8125 5.8025,8.15625 12.95375,7.92125 0,0 8.89625,16.8775 36.1775,11.395" />
    <path
       inkscape:connector-curvature="0"
       id="path122"
       style="fill:#3e2735;fill-opacity:1;fill-rule:nonzero;stroke:none"
       d="m 385.44209,488.92096 c 0,1.70875 1.385,3.09375 3.09375,3.09375 1.70875,0 3.095,-1.385 3.095,-3.09375 0,-1.70875 -1.38625,-3.09375 -3.095,-3.09375 -1.70875,0 -3.09375,1.385 -3.09375,3.09375" />
    <path
       inkscape:connector-curvature="0"
       id="path124"
       style="fill:#3e2735;fill-opacity:1;fill-rule:nonzero;stroke:none"
       d="m 357.75959,488.92096 c 0,1.70875 -1.385,3.09375 -3.09375,3.09375 -1.70875,0 -3.09375,-1.385 -3.09375,-3.09375 0,-1.70875 1.385,-3.09375 3.09375,-3.09375 1.70875,0 3.09375,1.385 3.09375,3.09375" />
    <path
       inkscape:connector-curvature="0"
       id="path126"
       style="fill:#3e2735;fill-opacity:1;fill-rule:nonzero;stroke:none"
       d="m 371.77709,509.10096 3.41875,-3.7275 c 0.7275,-0.795 0.165,-2.07625 -0.9125,-2.07625 l -6.8375,0 c -1.0775,0 -1.64,1.28125 -0.9125,2.07625 l 3.41875,3.7275 c 0.49,0.535 1.33375,0.535 1.825,0" />
    <path
       inkscape:connector-curvature="0"
       id="path128"
       style="fill:#ce3e21;fill-opacity:1;fill-rule:nonzero;stroke:none"
       d="m 387.59084,449.91596 c -7.02875,-2.68375 -26.57,-2.685 -33.61125,-0.004 l 16.8325,46.54875 16.77875,-46.545" />
  </g>
</svg>
