<?xml version="1.0" encoding="UTF-8" standalone="no"?>
<!-- Created with Inkscape (http://www.inkscape.org/) -->

<svg
   xmlns:dc="http://purl.org/dc/elements/1.1/"
   xmlns:cc="http://creativecommons.org/ns#"
   xmlns:rdf="http://www.w3.org/1999/02/22-rdf-syntax-ns#"
   xmlns:svg="http://www.w3.org/2000/svg"
   xmlns="http://www.w3.org/2000/svg"
   xmlns:sodipodi="http://sodipodi.sourceforge.net/DTD/sodipodi-0.dtd"
   xmlns:inkscape="http://www.inkscape.org/namespaces/inkscape"
   width="34.040596mm"
   height="30.199055mm"
   viewBox="0 0 120.61629 107.00452"
   id="svg3374"
   version="1.1"
   inkscape:version="0.91 r"
   sodipodi:docname="tick.svg">
  <defs
     id="defs3376" />
  <sodipodi:namedview
     id="base"
     pagecolor="#ffffff"
     bordercolor="#666666"
     borderopacity="1.0"
     inkscape:pageopacity="0.0"
     inkscape:pageshadow="2"
     inkscape:zoom="0.35"
     inkscape:cx="118.16528"
     inkscape:cy="-6.4977375"
     inkscape:document-units="px"
     inkscape:current-layer="layer1"
     showgrid="false"
     fit-margin-top="0"
     fit-margin-left="0"
     fit-margin-right="0"
     fit-margin-bottom="0"
     inkscape:window-width="960"
     inkscape:window-height="1028"
     inkscape:window-x="960"
     inkscape:window-y="0"
     inkscape:window-maximized="1" />
  <metadata
     id="metadata3379">
    <rdf:RDF>
      <cc:Work
         rdf:about="">
        <dc:format>image/svg+xml</dc:format>
        <dc:type
           rdf:resource="http://purl.org/dc/dcmitype/StillImage" />
        <dc:title></dc:title>
      </cc:Work>
    </rdf:RDF>
  </metadata>
  <g
     inkscape:label="Layer 1"
     inkscape:groupmode="layer"
     id="layer1"
     transform="translate(-256.83472,-418.85994)">
    <path
       inkscape:connector-curvature="0"
       d="m 257.84591,449.36822 c 1.962,2.615 7.323,5.623 14.777,5.623 7.454,0 13.077,-1.308 16.869,-2.746 3.792,-1.438 7.061,-3.531 7.977,-2.746 0.916,0.785 1.438,0.654 0.262,3.792 -1.177,3.138 -3.269,7.846 -4.054,8.369 -0.785,0.523 -8.369,4.838 -11.377,7.977 -3.008,3.139 -9.415,11.377 -10.854,13.208 -1.439,1.831 -2.746,4.577 -1.177,5.492 1.569,0.916 4.839,-1.7 9.023,-6.538 4.185,-4.838 11.377,-13.731 12.423,-13.077 1.046,0.653 1.308,6.931 -0.785,10.2 -2.093,3.269 -3.4,2.615 -4.185,3.923 -0.785,1.308 -7.584,14.515 -9.154,18.569 -1.57,4.054 -6.539,17.13 -4.315,22.1 2.224,4.97 5.361,1.046 4.315,-2.484 -1.046,-3.531 2.092,-16.607 5.623,-22.492 3.531,-5.884 3.007,-2.615 4.969,-7.192 1.961,-4.577 2.615,-6.669 3.661,-4.969 1.046,1.7 1.046,1.7 1.046,1.7 0,0 2.463,12.938 10.854,19.746 6.689,5.427 12.97,5.129 13.399,5.102 0.43,0.027 6.71,0.325 13.399,-5.102 8.39,-6.807 10.854,-19.746 10.854,-19.746 0,0 0,0 1.046,-1.7 1.046,-1.7 1.7,0.392 3.662,4.969 1.961,4.577 1.438,1.308 4.969,7.192 3.531,5.885 6.669,18.961 5.623,22.492 -1.046,3.531 2.092,7.454 4.315,2.484 2.223,-4.969 -2.747,-18.046 -4.315,-22.1 -1.569,-4.054 -8.369,-17.261 -9.154,-18.569 -0.785,-1.308 -2.092,-0.654 -4.185,-3.923 -2.093,-3.269 -1.831,-9.546 -0.785,-10.2 1.046,-0.654 8.238,8.238 12.423,13.077 4.185,4.839 7.454,7.454 9.023,6.538 1.569,-0.916 0.262,-3.662 -1.177,-5.492 -1.439,-1.83 -7.846,-10.069 -10.854,-13.208 -3.007,-3.138 -10.592,-7.454 -11.376,-7.977 -0.785,-0.523 -2.877,-5.231 -4.054,-8.369 -1.177,-3.139 -0.654,-3.008 0.261,-3.792 0.916,-0.785 4.185,1.308 7.977,2.746 3.792,1.438 9.415,2.746 16.869,2.746 7.454,0 12.815,-3.007 14.777,-5.623 1.961,-2.616 0.915,-5.623 -1.831,-3.662 -2.746,1.961 -8.762,4.185 -10.854,4.708 -2.093,0.523 -5.231,-2.223 -8.108,-1.569 -2.877,0.654 -6.015,-1.046 -8.892,-1.831 -2.877,-0.785 -11.115,-1.569 -11.9,-2.223 -0.785,-0.654 -2.615,-4.446 -2.354,-6.015 0.261,-1.569 -2.223,-2.354 8.5,0.523 10.723,2.877 20.661,-1.308 25.369,-3.269 4.708,-1.961 6.277,-9.023 6.277,-10.984 0,-1.961 -1.308,-6.669 -3.662,-6.146 -2.354,0.523 -1.438,3.923 -1.177,6.538 0.261,2.615 -3.139,6.539 -5.754,7.977 -2.615,1.438 -6.539,1.438 -11.115,2.093 -4.577,0.654 -3.4,-1.569 -11.115,-3.008 -7.715,-1.439 -10.2,1.046 -11.246,2.615 -1.046,1.569 -2.223,1.177 -4.446,-0.131 -2.223,-1.308 -3.139,-1.177 -2.354,-2.484 0.785,-1.307 1.569,-1.438 0.523,-4.446 -0.979,-2.814 -4.666,-3.101 -5.135,-3.126 l 0,-0.002 c 0,0 -0.016,0 -0.025,10e-4 -0.009,0 -0.025,-10e-4 -0.025,-10e-4 l 0,0.002 c -0.47,0.025 -4.157,0.312 -5.136,3.126 -1.046,3.008 -0.261,3.139 0.523,4.446 0.785,1.308 -0.13,1.177 -2.354,2.484 -2.224,1.307 -3.4,1.7 -4.446,0.131 -1.046,-1.569 -3.531,-4.054 -11.246,-2.615 -7.715,1.438 -6.539,3.662 -11.115,3.008 -4.577,-0.654 -8.5,-0.654 -11.115,-2.093 -2.616,-1.438 -6.016,-5.361 -5.754,-7.977 0.262,-2.616 1.177,-6.015 -1.177,-6.538 -2.354,-0.523 -3.662,4.185 -3.662,6.146 0,1.961 1.569,9.023 6.277,10.984 4.708,1.961 14.646,6.146 25.369,3.269 10.723,-2.877 8.238,-2.092 8.5,-0.523 0.262,1.569 -1.569,5.361 -2.354,6.015 -0.785,0.654 -9.023,1.438 -11.899,2.223 -2.877,0.785 -6.016,2.484 -8.893,1.831 -2.876,-0.654 -6.015,2.092 -8.107,1.569 -2.092,-0.523 -8.107,-2.746 -10.854,-4.708 -2.747,-1.962 -3.789,1.047 -1.828,3.662 z"
       id="path9" />
  </g>
</svg>
