<?xml version="1.0" encoding="UTF-8" standalone="no"?>
<!-- Generated by graphviz version 2.36.0 (20140111.2315)
 -->

<!-- Title: G Pages: 1 -->

<svg
   xmlns:dc="http://purl.org/dc/elements/1.1/"
   xmlns:cc="http://creativecommons.org/ns#"
   xmlns:rdf="http://www.w3.org/1999/02/22-rdf-syntax-ns#"
   xmlns:svg="http://www.w3.org/2000/svg"
   xmlns="http://www.w3.org/2000/svg"
   xmlns:sodipodi="http://sodipodi.sourceforge.net/DTD/sodipodi-0.dtd"
   xmlns:inkscape="http://www.inkscape.org/namespaces/inkscape"
   width="1182.5"
   height="562.65668"
   viewBox="0 0 945.33759 450.12534"
   id="svg5033"
   version="1.1"
   inkscape:version="0.48.4 r9939"
   sodipodi:docname="PuntaBanda-ParCon_5_0.dot.svg">
  <metadata
     id="metadata5251">
    <rdf:RDF>
      <cc:Work
         rdf:about="">
        <dc:format>image/svg+xml</dc:format>
        <dc:type
           rdf:resource="http://purl.org/dc/dcmitype/StillImage" />
      </cc:Work>
    </rdf:RDF>
  </metadata>
  <defs
     id="defs5249" />
  <sodipodi:namedview
     pagecolor="#ffffff"
     bordercolor="#666666"
     borderopacity="1"
     objecttolerance="10"
     gridtolerance="10"
     guidetolerance="10"
     inkscape:pageopacity="0"
     inkscape:pageshadow="2"
     inkscape:window-width="701"
     inkscape:window-height="480"
     id="namedview5247"
     showgrid="false"
     fit-margin-top="0"
     fit-margin-left="0"
     fit-margin-right="0"
     fit-margin-bottom="0"
     inkscape:zoom="0.19790356"
     inkscape:cx="591.13176"
     inkscape:cy="281.32494"
     inkscape:window-x="65"
     inkscape:window-y="24"
     inkscape:window-maximized="0"
     inkscape:current-layer="svg5033" />
  <g
     id="graph0"
     class="graph"
     transform="matrix(0,-1,1,0,945.84,449.5)">
    <title
       id="title5036">G</title>
    <!-- 1 -->
    <g
       id="node1"
       class="node">
      <title
         id="title5039">1</title>
      <path
         d="m 126.678,-857 c 0,0 88.25,0 88.25,0 0,-1.56 -0.041,-3.119 -0.123,-4.677 -0.082,-1.558 -0.205,-3.113 -0.369,-4.664 -0.165,-1.551 -0.37,-3.098 -0.615,-4.638 -0.246,-1.541 -0.532,-3.074 -0.859,-4.599 -0.326,-1.525 -0.693,-3.041 -1.1,-4.547 -0.406,-1.506 -0.852,-3 -1.337,-4.482 -0.486,-1.483 -1.01,-2.951 -1.572,-4.406 -0.563,-1.454 -1.164,-2.893 -1.802,-4.315 -0.639,-1.423 -1.315,-2.828 -2.027,-4.215 -0.713,-1.386 -1.462,-2.754 -2.247,-4.1 -0.784,-1.347 -1.604,-2.673 -2.459,-3.976 -0.854,-1.304 -1.743,-2.584 -2.665,-3.841 -0.922,-1.256 -1.877,-2.488 -2.864,-3.693 -0.987,-1.206 -2.006,-2.385 -3.055,-3.537 -1.049,-1.152 -2.128,-2.275 -3.236,-3.37 -1.109,-1.094 -2.246,-2.159 -3.41,-3.193 -1.165,-1.034 -2.356,-2.037 -3.573,-3.008 -1.218,-0.972 -2.46,-1.91 -3.727,-2.815 -1.267,-0.905 -2.558,-1.777 -3.87,-2.614 -1.313,-0.836 -2.648,-1.638 -4.003,-2.404 -1.355,-0.766 -2.73,-1.496 -4.123,-2.189 -1.393,-0.693 -2.805,-1.349 -4.233,-1.968 -1.428,-0.618 -2.872,-1.198 -4.331,-1.74 -1.458,-0.542 -2.931,-1.045 -4.416,-1.508 -1.485,-0.464 -2.983,-0.888 -4.49,-1.273 -1.508,-0.384 -3.025,-0.728 -4.551,-1.032 -1.525,-0.304 -3.059,-0.568 -4.598,-0.79 -1.54,-0.223 -3.085,-0.405 -4.634,-0.545 -1.549,-0.141 -3.102,-0.241 -4.656,-0.299 -1.554,-0.058 -3.11,-0.076 -4.665,-0.051 -1.556,0.024 -3.11,0.089 -4.662,0.195 -1.552,0.107 -3.101,0.254 -4.645,0.443 0,0 10.667,87.851 10.667,87.851"
         id="path5041"
         inkscape:connector-curvature="0"
         style="fill:#abdda4;stroke:#000000;stroke-width:0.5" />
      <path
         d="m 126.678,-857 c 0,0 -10.667,-87.851 -10.667,-87.851 -2.535,0.309 -5.056,0.729 -7.555,1.258 -2.499,0.529 -4.974,1.167 -7.418,1.911 -2.4445,0.744 -4.8552,1.594 -7.2257,2.548 -2.3705,0.954 -4.6986,2.011 -6.9776,3.167 -2.2791,1.157 -4.5071,2.412 -6.6776,3.762 -2.1705,1.351 -4.2815,2.795 -6.3271,4.329 -2.0456,1.534 -4.0238,3.156 -5.929,4.862 -1.9053,1.706 -3.7358,3.494 -5.4864,5.359 -1.7505,1.866 -3.4195,3.806 -5.0022,5.817 -1.5828,2.01 -3.0777,4.089 -4.4806,6.229 -1.4029,2.141 -2.7125,4.341 -3.9251,6.596 -1.2125,2.254 -2.3269,4.56 -3.34,6.912 -1.0131,2.351 -1.9239,4.745 -2.7298,7.176 -0.806,2.431 -1.5063,4.895 -2.0991,7.387 -0.5927,2.491 -1.0774,5.007 -1.4525,7.541 -0.3751,2.534 -0.6403,5.083 -0.7949,7.639 -0.1547,2.557 -0.1985,5.119 -0.1315,7.68 0.067,2.561 0.2448,5.117 0.533,7.662 0.2882,2.545 0.6864,5.077 1.1935,7.587 0.5071,2.511 1.1227,4.998 1.845,7.455 0.7222,2.457 1.5505,4.881 2.4825,7.266 0.932,2.385 1.9668,4.728 3.1015,7.023 1.1347,2.295 2.3682,4.539 3.697,6.727 1.3288,2.187 2.7517,4.316 4.2647,6.379 1.5129,2.064 3.1145,4.061 4.8002,5.986 1.6857,1.924 3.4539,3.774 5.2996,5.545 1.8458,1.77 3.7673,3.46 5.7592,5.063 1.9918,1.604 4.0522,3.12 6.1752,4.544 2.123,1.424 4.3067,2.755 6.5448,3.989 2.2382,1.235 4.5287,2.371 6.8651,3.406 2.3365,1.035 4.7166,1.968 7.1337,2.796 2.4171,0.827 4.8691,1.55 7.3491,2.164 0,0 21.175,-85.914 21.175,-85.914"
         id="path5043"
         inkscape:connector-curvature="0"
         style="fill:#2b83ba;stroke:#000000;stroke-width:0.5" />
      <path
         d="m 126.678,-857 c 0,0 -21.175,85.914 -21.175,85.914 2.806,0.696 5.645,1.253 8.506,1.669 2.861,0.416 5.741,0.691 8.629,0.824 2.888,0.133 5.78,0.123 8.667,-0.029 2.887,-0.152 5.765,-0.446 8.623,-0.881 2.858,-0.435 5.694,-1.011 8.495,-1.726 2.802,-0.714 5.567,-1.566 8.286,-2.553 2.718,-0.986 5.387,-2.106 7.996,-3.355 2.608,-1.249 5.154,-2.626 7.628,-4.126 2.475,-1.5 4.874,-3.121 7.189,-4.857 2.315,-1.736 4.544,-3.585 6.679,-5.54 2.134,-1.956 4.171,-4.015 6.104,-6.171 1.933,-2.156 3.759,-4.406 5.472,-6.742 1.712,-2.335 3.309,-4.754 4.785,-7.247 1.476,-2.493 2.829,-5.057 4.054,-7.683 1.225,-2.626 2.32,-5.311 3.282,-8.045 0.962,-2.734 1.79,-5.514 2.48,-8.329 0,0 -85.7,-21.123 -85.7,-21.123"
         id="path5045"
         inkscape:connector-curvature="0"
         style="fill:#fdae61;stroke:#000000;stroke-width:0.5" />
      <path
         d="m 126.678,-857 c 0,0 85.7,21.123 85.7,21.123 0.423,-1.726 0.794,-3.465 1.113,-5.213 0.318,-1.749 0.584,-3.507 0.798,-5.271 0.213,-1.765 0.373,-3.536 0.479,-5.31 0.107,-1.774 0.16,-3.551 0.16,-5.329 0,0 -88.25,0 -88.25,0"
         id="path5047"
         inkscape:connector-curvature="0"
         style="fill:#d7191c;stroke:#000000;stroke-width:0.5" />
      <ellipse
         cx="126.678"
         cy="-857"
         rx="88.25"
         ry="88.5"
         id="ellipse5049"
         d="m 214.928,-857 c 0,48.8772 -39.51087,88.5 -88.25,88.5 -48.739128,0 -88.249999,-39.6228 -88.249999,-88.5 0,-48.8772 39.510871,-88.5 88.249999,-88.5 48.73913,0 88.25,39.6228 88.25,88.5 z"
         sodipodi:cx="126.678"
         sodipodi:cy="-857"
         sodipodi:rx="88.25"
         sodipodi:ry="88.5"
         style="fill:none;stroke:#000000" />
    </g>
    <!-- 1&#45;&gt;1 -->
    <g
       id="edge1"
       class="edge">
      <title
         id="title5052">1-&gt;1</title>
      <path
         d="m 206.189,-896.056 c 15.49,4.535 26.489,17.554 26.489,39.056 0,16.798 -6.713,28.419 -17.036,34.862"
         id="path5054"
         inkscape:connector-curvature="0"
         style="fill:none;stroke:#000000;stroke-width:1.86667001" />
      <polygon
         points="216.749,-818.8 206.189,-817.944 213.91,-825.199 216.749,-818.8 "
         id="polygon5056"
         style="fill:#000000;stroke:#000000;stroke-width:1.86667001" />
    </g>
    <!-- 2 -->
    <g
       id="node2"
       class="node">
      <title
         id="title5059">2</title>
      <path
         d="m 126.678,-639 c 0,0 92.5,0 92.5,0 0,-2.561 -0.105,-5.12 -0.315,-7.672 -0.21,-2.552 -0.525,-5.095 -0.944,-7.621 -0.418,-2.525 -0.941,-5.033 -1.566,-7.515 -0.624,-2.483 -1.351,-4.939 -2.177,-7.361 -0.826,-2.422 -1.751,-4.809 -2.774,-7.154 -1.022,-2.346 -2.14,-4.648 -3.351,-6.901 -1.211,-2.252 -2.514,-4.454 -3.906,-6.598 -1.392,-2.145 -2.871,-4.231 -4.434,-6.253 -1.564,-2.021 -3.209,-3.977 -4.933,-5.863 -1.723,-1.885 -3.524,-3.698 -5.396,-5.434 -1.873,-1.736 -3.816,-3.393 -5.824,-4.968 -2.009,-1.574 -4.081,-3.065 -6.212,-4.467 -2.131,-1.403 -4.319,-2.717 -6.557,-3.938 -2.239,-1.221 -4.527,-2.349 -6.858,-3.38 -2.332,-1.031 -4.704,-1.965 -7.112,-2.8 -2.408,-0.834 -4.85,-1.568 -7.318,-2.2 0,0 -22.823,90.125 -22.823,90.125"
         id="path5061"
         inkscape:connector-curvature="0"
         style="fill:#2b83ba;stroke:#000000;stroke-width:0.5" />
      <path
         d="m 126.678,-639 c 0,0 22.823,-90.125 22.823,-90.125 -2.317,-0.593 -4.655,-1.095 -7.011,-1.506 -2.355,-0.411 -4.726,-0.73 -7.106,-0.956 -2.38,-0.226 -4.768,-0.36 -7.158,-0.4 -2.391,-0.04 -4.782,0.013 -7.168,0.159 -2.386,0.146 -4.766,0.385 -7.134,0.716 -2.368,0.332 -4.722,0.755 -7.057,1.27 -2.335,0.515 -4.65,1.121 -6.9384,1.816 -2.2886,0.695 -4.5495,1.479 -6.7776,2.35 -2.2281,0.871 -4.4218,1.829 -6.5762,2.871 -2.1543,1.042 -4.2676,2.168 -6.3352,3.375 -2.0676,1.206 -4.0879,2.493 -6.0563,3.857 -1.9684,1.364 -3.8835,2.805 -5.7409,4.318 -1.8574,1.513 -3.6558,3.098 -5.391,4.752 -1.7353,1.653 -3.4062,3.373 -5.0089,5.157 -1.6027,1.783 -3.136,3.629 -4.5965,5.532 -1.4605,1.903 -2.8471,3.862 -4.1566,5.873 -1.3095,2.011 -2.541,4.072 -3.6916,6.179 -1.1507,2.107 -2.2197,4.258 -3.2046,6.448 -0.985,2.19 -1.8851,4.418 -2.6983,6.678 -0.8133,2.26 -1.539,4.551 -2.1757,6.868 -0.6367,2.317 -1.1838,4.658 -1.6402,7.017 -0.4563,2.36 -0.8214,4.736 -1.0946,7.124 -0.2732,2.388 -0.4542,4.785 -0.5426,7.187 -0.0884,2.402 -0.0842,4.807 0.0127,7.209 0.0968,2.401 0.2863,4.798 0.5679,7.185 0.2816,2.387 0.6551,4.762 1.1197,7.12 0.4646,2.358 1.02,4.696 1.6648,7.011 0.6449,2.314 1.3787,4.603 2.1999,6.86 0.8212,2.258 1.7291,4.482 2.7218,6.669 0.9926,2.186 2.0692,4.334 3.2272,6.436 1.1581,2.103 2.3969,4.16 3.7135,6.166 1.3165,2.007 2.71,3.961 4.1772,5.859 1.4672,1.897 3.007,3.737 4.6159,5.515 1.609,1.778 3.2859,3.492 5.027,5.139 1.7411,1.648 3.545,3.226 5.4078,4.733 1.8627,1.507 3.7828,2.94 5.756,4.297 1.9732,1.357 3.998,2.637 6.0698,3.836 2.0719,1.2 4.1891,2.318 6.3471,3.352 2.158,1.035 4.3551,1.984 6.5862,2.848 2.2312,0.863 4.4949,1.639 6.7857,2.326 2.291,0.687 4.608,1.284 6.945,1.791 2.337,0.506 4.692,0.921 7.061,1.244 2.369,0.323 4.75,0.554 7.137,0.692 2.387,0.137 4.778,0.182 7.168,0.133 2.39,-0.049 4.778,-0.191 7.157,-0.425 2.379,-0.235 4.749,-0.562 7.103,-0.982 2.354,-0.419 4.691,-0.93 7.005,-1.531 2.315,-0.601 4.606,-1.293 6.867,-2.072 2.261,-0.78 4.492,-1.648 6.687,-2.601 2.194,-0.954 4.351,-1.992 6.466,-3.114 2.114,-1.121 4.185,-2.325 6.206,-3.607 2.022,-1.283 3.994,-2.644 5.911,-4.081 1.916,-1.436 3.777,-2.947 5.578,-4.528 1.8,-1.581 3.539,-3.232 5.212,-4.949 1.674,-1.717 3.28,-3.498 4.816,-5.34 1.536,-1.842 3,-3.743 4.39,-5.699 1.389,-1.956 2.703,-3.965 3.938,-6.023 1.234,-2.059 2.389,-4.164 3.461,-6.312 1.073,-2.149 2.062,-4.338 2.966,-6.563 0.903,-2.226 1.721,-4.485 2.45,-6.774 0.73,-2.289 1.371,-4.606 1.922,-6.945 0.551,-2.338 1.012,-4.698 1.381,-7.073 0.369,-2.375 0.647,-4.763 0.832,-7.159 0.185,-2.397 0.277,-4.799 0.277,-7.203 0,0 -92.5,0 -92.5,0"
         id="path5063"
         inkscape:connector-curvature="0"
         style="fill:#d7191c;stroke:#000000;stroke-width:0.5" />
      <ellipse
         cx="126.678"
         cy="-639"
         rx="92.5"
         ry="93"
         id="ellipse5065"
         d="m 219.178,-639 c 0,51.36248 -41.41366,93 -92.5,93 -51.086338,0 -92.499999,-41.63752 -92.499999,-93 0,-51.36248 41.413661,-93 92.499999,-93 51.08634,0 92.5,41.63752 92.5,93 z"
         sodipodi:cx="126.678"
         sodipodi:cy="-639"
         sodipodi:rx="92.5"
         sodipodi:ry="93"
         style="fill:none;stroke:#000000" />
    </g>
    <!-- 1&#45;&gt;2 -->
    <g
       id="edge2"
       class="edge">
      <title
         id="title5068">1-&gt;2</title>
      <path
         d="m 120.037,-768.456 c -0.093,8.657 -0.126,17.497 -0.1,26.285"
         id="path5070"
         inkscape:connector-curvature="0"
         style="fill:none;stroke:#000000;stroke-width:1.76666999" />
      <polygon
         points="123.439,-741.913 119.996,-731.893 116.439,-741.873 123.439,-741.913 "
         id="polygon5072"
         style="fill:#000000;stroke:#000000;stroke-width:1.76666999" />
    </g>
    <!-- 3 -->
    <g
       id="node3"
       class="node">
      <title
         id="title5075">3</title>
      <ellipse
         cx="169.67799"
         cy="-67"
         rx="66.25"
         ry="66.5"
         id="ellipse5077"
         d="m 235.92799,-67 c 0,36.726936 -29.66113,66.5 -66.25,66.5 -36.58886,0 -66.25,-29.773064 -66.25,-66.5 0,-36.72694 29.66114,-66.5 66.25,-66.5 36.58887,0 66.25,29.77306 66.25,66.5 z"
         sodipodi:cx="169.67799"
         sodipodi:cy="-67"
         sodipodi:rx="66.25"
         sodipodi:ry="66.5"
         style="fill:#fdae61;stroke:#000000" />
    </g>
    <!-- 1&#45;&gt;3 -->
    <g
       id="edge3"
       class="edge">
      <title
         id="title5080">1-&gt;3</title>
      <path
         d="M 58.7316,-800.445 C 41.1365,-780.679 24.661,-757.06 15.6785,-732 c -27.8937,77.818 -11.11996,104.085 0,186 20.4487,150.636 80.8811,319.102 119.8405,410.349"
         id="path5082"
         inkscape:connector-curvature="0"
         style="fill:none;stroke:#000000;stroke-width:2.13333011" />
      <polygon
         points="138.824,-136.826 139.572,-126.257 132.397,-134.053 138.824,-136.826 "
         id="polygon5084"
         style="fill:#000000;stroke:#000000;stroke-width:2.13333011" />
    </g>
    <!-- 4 -->
    <g
       id="node4"
       class="node">
      <title
         id="title5087">4</title>
      <path
         d="m 223.678,-239 c 0,0 68.25,0 68.25,0 0,-2.307 -0.116,-4.612 -0.347,-6.907 -0.232,-2.296 -0.579,-4.578 -1.041,-6.838 -0.461,-2.26 -1.035,-4.495 -1.721,-6.696 -0.686,-2.202 -1.482,-4.368 -2.386,-6.489 0,0 -62.755,26.93 -62.755,26.93"
         id="path5089"
         inkscape:connector-curvature="0"
         style="fill:#fdae61;stroke:#000000;stroke-width:0.5" />
      <path
         d="m 223.678,-239 c 0,0 62.755,-26.93 62.755,-26.93 -0.822,-1.929 -1.731,-3.819 -2.726,-5.664 -0.995,-1.845 -2.073,-3.644 -3.232,-5.39 -1.159,-1.745 -2.398,-3.437 -3.711,-5.069 -1.314,-1.631 -2.702,-3.202 -4.159,-4.705 -1.457,-1.504 -2.983,-2.94 -4.571,-4.304 -1.589,-1.363 -3.239,-2.653 -4.946,-3.864 -1.706,-1.211 -3.467,-2.343 -5.277,-3.393 -1.81,-1.049 -3.667,-2.014 -5.566,-2.892 -1.898,-0.878 -3.836,-1.668 -5.806,-2.368 -1.971,-0.699 -3.972,-1.308 -5.998,-1.823 -2.027,-0.515 -4.075,-0.937 -6.14,-1.263 -2.065,-0.327 -4.143,-0.558 -6.229,-0.693 -2.086,-0.135 -4.177,-0.174 -6.267,-0.116 -2.089,0.057 -4.175,0.211 -6.25,0.461 -2.075,0.25 -4.138,0.595 -6.182,1.035 -2.044,0.439 -4.066,0.973 -6.061,1.599 -1.995,0.626 -3.961,1.344 -5.89,2.151 -1.929,0.807 -3.821,1.703 -5.668,2.684 -1.848,0.981 -3.649,2.047 -5.399,3.194 -1.75,1.148 -3.447,2.375 -5.084,3.679 -1.638,1.303 -3.215,2.681 -4.727,4.13 -1.512,1.449 -2.956,2.967 -4.329,4.549 -1.373,1.582 -2.673,3.226 -3.895,4.928 -1.223,1.701 -2.367,3.458 -3.429,5.265 -1.062,1.807 -2.04,3.662 -2.932,5.56 -0.893,1.897 -1.698,3.834 -2.413,5.805 -0.715,1.972 -1.339,3.975 -1.871,6.004 -0.532,2.029 -0.971,4.081 -1.315,6.15 -0.344,2.069 -0.593,4.153 -0.747,6.245 -0.154,2.093 -0.211,4.191 -0.173,6.288 0.038,2.098 0.172,4.193 0.402,6.278 0.23,2.085 0.555,4.158 0.975,6.214 0.419,2.055 0.932,4.09 1.538,6.097 0.605,2.008 1.302,3.987 2.089,5.931 0.786,1.944 1.661,3.85 2.622,5.713 0.961,1.863 2.006,3.681 3.133,5.448 1.127,1.767 2.334,3.481 3.618,5.136 1.284,1.656 2.643,3.252 4.072,4.782 1.43,1.53 2.929,2.994 4.493,4.386 1.563,1.393 3.189,2.712 4.874,3.955 1.684,1.242 3.424,2.407 5.215,3.489 1.79,1.082 3.629,2.081 5.511,2.994 1.882,0.913 3.805,1.738 5.763,2.474 1.957,0.736 3.947,1.381 5.964,1.933 2.016,0.552 4.057,1.011 6.115,1.376 2.059,0.364 4.133,0.633 6.216,0.807 2.083,0.173 4.173,0.25 6.263,0.231 2.09,-0.019 4.178,-0.135 6.258,-0.346 2.079,-0.212 4.148,-0.519 6.2,-0.921 2.051,-0.402 4.083,-0.899 6.089,-1.488 2.006,-0.589 3.984,-1.271 5.928,-2.042 1.944,-0.772 3.851,-1.633 5.716,-2.58 1.865,-0.947 3.686,-1.98 5.456,-3.095 1.771,-1.115 3.49,-2.311 5.151,-3.584 1.661,-1.273 3.263,-2.622 4.801,-4.043 1.538,-1.421 3.01,-2.912 4.411,-4.468 1.402,-1.557 2.731,-3.177 3.985,-4.856 1.253,-1.679 2.429,-3.414 3.524,-5.202 1.094,-1.787 2.106,-3.624 3.033,-5.504 0.927,-1.88 1.767,-3.803 2.518,-5.761 0.751,-1.957 1.411,-3.949 1.98,-5.967 0.569,-2.019 1.045,-4.063 1.427,-6.126 0.382,-2.062 0.669,-4.141 0.861,-6.23 0.191,-2.089 0.287,-4.186 0.287,-6.284 0,0 -68.25,0 -68.25,0"
         id="path5091"
         inkscape:connector-curvature="0"
         style="fill:#d7191c;stroke:#000000;stroke-width:0.5" />
      <ellipse
         cx="223.67799"
         cy="-239"
         rx="68.25"
         ry="68.5"
         id="ellipse5093"
         d="m 291.92799,-239 c 0,37.83151 -30.55656,68.5 -68.25,68.5 -37.69343,0 -68.25,-30.66849 -68.25,-68.5 0,-37.83151 30.55657,-68.5 68.25,-68.5 37.69344,0 68.25,30.66849 68.25,68.5 z"
         sodipodi:cx="223.67799"
         sodipodi:cy="-239"
         sodipodi:rx="68.25"
         sodipodi:ry="68.5"
         style="fill:none;stroke:#000000" />
    </g>
    <!-- 1&#45;&gt;4 -->
    <g
       id="edge4"
       class="edge">
      <title
         id="title5096">1-&gt;4</title>
      <path
         d="m 192.173,-797.037 c 17.778,18.665 34.763,40.815 44.505,65.037 29.336,72.936 5.175,294.954 -7.428,414.243"
         id="path5098"
         inkscape:connector-curvature="0"
         style="fill:none;stroke:#000000;stroke-width:1.89999998" />
      <polygon
         points="232.708,-317.173 228.179,-307.595 225.747,-317.907 232.708,-317.173 "
         id="polygon5100"
         style="fill:#000000;stroke:#000000;stroke-width:1.89999998" />
    </g>
    <!-- 5 -->
    <g
       id="node5"
       class="node">
      <title
         id="title5103">5</title>
      <ellipse
         cx="348.67801"
         cy="-427"
         rx="82.25"
         ry="82.5"
         id="ellipse5105"
         d="m 430.92801,-427 c 0,45.56349 -36.82458,82.5 -82.25,82.5 -45.42542,0 -82.25,-36.93651 -82.25,-82.5 0,-45.56349 36.82458,-82.5 82.25,-82.5 45.42542,0 82.25,36.93651 82.25,82.5 z"
         sodipodi:cx="348.67801"
         sodipodi:cy="-427"
         sodipodi:rx="82.25"
         sodipodi:ry="82.5"
         style="fill:#fdae61;stroke:#000000" />
    </g>
    <!-- 1&#45;&gt;5 -->
    <g
       id="edge5"
       class="edge">
      <title
         id="title5108">1-&gt;5</title>
      <path
         d="m 205.382,-816.94 c 33.637,20.679 70.178,49.249 92.296,84.94 39.403,63.58 50.982,148.355 53.375,212.228"
         id="path5110"
         inkscape:connector-curvature="0"
         style="fill:none;stroke:#000000;stroke-width:2.20000005" />
      <polygon
         points="354.553,-519.81 351.361,-509.707 347.556,-519.596 354.553,-519.81 "
         id="polygon5112"
         style="fill:#000000;stroke:#000000;stroke-width:2.20000005" />
    </g>
    <!-- 2&#45;&gt;1 -->
    <g
       id="edge6"
       class="edge">
      <title
         id="title5115">2-&gt;1</title>
      <path
         d="m 133.361,-731.893 c 0.073,-8.711 0.087,-17.566 0.041,-26.33"
         id="path5117"
         inkscape:connector-curvature="0"
         style="fill:none;stroke:#000000;stroke-width:1.73333001" />
      <polygon
         points="129.9,-758.428 133.32,-768.456 136.9,-758.484 129.9,-758.428 "
         id="polygon5119"
         style="fill:#000000;stroke:#000000;stroke-width:1.73333001" />
    </g>
    <!-- 2&#45;&gt;2 -->
    <g
       id="edge7"
       class="edge">
      <title
         id="title5122">2-&gt;2</title>
      <path
         d="m 211.542,-676.266 c 14.824,4.969 25.136,17.391 25.136,37.266 0,15.527 -6.294,26.506 -16.116,32.935"
         id="path5124"
         inkscape:connector-curvature="0"
         style="fill:none;stroke:#000000;stroke-width:1.66666996" />
      <polygon
         points="222.071,-602.907 211.542,-601.734 219.042,-609.218 222.071,-602.907 "
         id="polygon5126"
         style="fill:#000000;stroke:#000000;stroke-width:1.66666996" />
    </g>
    <!-- 2&#45;&gt;3 -->
    <g
       id="edge8"
       class="edge">
      <title
         id="title5129">2-&gt;3</title>
      <path
         d="m 118.501,-546.076 c -2.495,94.699 0.449,246.362 18.177,376.076 1.401,10.244 3.362,20.967 5.665,31.452"
         id="path5131"
         inkscape:connector-curvature="0"
         style="fill:none;stroke:#000000;stroke-width:4" />
      <polygon
         points="145.802,-139.124 144.648,-128.592 138.983,-137.545 145.802,-139.124 "
         id="polygon5133"
         style="fill:#000000;stroke:#000000;stroke-width:4" />
    </g>
    <!-- 2&#45;&gt;4 -->
    <g
       id="edge9"
       class="edge">
      <title
         id="title5136">2-&gt;4</title>
      <path
         d="m 143.04,-547.19 c 15.758,70.486 39.403,166.99 57.138,232.908"
         id="path5138"
         inkscape:connector-curvature="0"
         style="fill:none;stroke:#000000;stroke-width:1.70000005" />
      <polygon
         points="203.624,-314.947 202.86,-304.38 196.867,-313.117 203.624,-314.947 "
         id="polygon5140"
         style="fill:#000000;stroke:#000000;stroke-width:1.70000005" />
    </g>
    <!-- 2&#45;&gt;5 -->
    <g
       id="edge10"
       class="edge">
      <title
         id="title5143">2-&gt;5</title>
      <path
         d="m 190.593,-571.555 c 27.609,26.694 59.961,57.249 88.203,83.289"
         id="path5145"
         inkscape:connector-curvature="0"
         style="fill:none;stroke:#000000;stroke-width:3.9000001" />
      <polygon
         points="281.271,-490.745 286.262,-481.399 276.532,-485.592 281.271,-490.745 "
         id="polygon5147"
         style="fill:#000000;stroke:#000000;stroke-width:3.9000001" />
    </g>
    <!-- 3&#45;&gt;1 -->
    <g
       id="edge11"
       class="edge">
      <title
         id="title5150">3-&gt;1</title>
      <path
         d="M 149.532,-130.726 C 116.782,-220.734 54.5009,-392.611 33.6785,-546 c -11.12,-81.915 -27.89374,-108.182 0,-186 6.4477,-17.988 16.7562,-35.234 28.2226,-50.845"
         id="path5152"
         inkscape:connector-curvature="0"
         style="fill:none;stroke:#000000;stroke-width:1.70000005" />
      <polygon
         points="59.1512,-785.011 67.9886,-790.855 64.7244,-780.776 59.1512,-785.011 "
         id="polygon5154"
         style="fill:#000000;stroke:#000000;stroke-width:1.70000005" />
    </g>
    <!-- 3&#45;&gt;2 -->
    <g
       id="edge12"
       class="edge">
      <title
         id="title5157">3-&gt;2</title>
      <path
         d="m 161.231,-133.224 c -2.508,-12.148 -4.914,-24.79 -6.553,-36.776 -17.105,-125.154 -20.447,-270.74 -22.442,-365.881"
         id="path5159"
         inkscape:connector-curvature="0"
         style="fill:none;stroke:#000000;stroke-width:1.93333006" />
      <polygon
         points="128.733,-536.005 132.023,-546.076 135.732,-536.152 128.733,-536.005 "
         id="polygon5161"
         style="fill:#000000;stroke:#000000;stroke-width:1.93333006" />
    </g>
    <!-- 3&#45;&gt;3 -->
    <g
       id="edge13"
       class="edge">
      <title
         id="title5164">3-&gt;3</title>
      <path
         d="m 228.17,-98.8071 c 14.597,2.2243 25.508,12.8266 25.508,31.8071 0,14.5319 -6.395,24.1528 -15.945,28.8625"
         id="path5166"
         inkscape:connector-curvature="0"
         style="fill:none;stroke:#000000;stroke-width:3.26666999" />
      <polygon
         points="238.757,-34.7906 228.17,-35.1929 236.697,-41.4807 238.757,-34.7906 "
         id="polygon5168"
         style="fill:#000000;stroke:#000000;stroke-width:3.26666999" />
    </g>
    <!-- 3&#45;&gt;4 -->
    <g
       id="edge14"
       class="edge">
      <title
         id="title5171">3-&gt;4</title>
      <path
         d="m 195.385,-128.484 c 3.68,-10.853 7.387,-22.289 10.868,-33.513"
         id="path5173"
         inkscape:connector-curvature="0"
         style="fill:none;stroke:#000000;stroke-width:2.20000005" />
      <polygon
         points="202.975,-163.248 209.247,-171.787 209.669,-161.2 202.975,-163.248 "
         id="polygon5175"
         style="fill:#000000;stroke:#000000;stroke-width:2.20000005" />
    </g>
    <!-- 3&#45;&gt;5 -->
    <g
       id="edge15"
       class="edge">
      <title
         id="title5178">3-&gt;5</title>
      <path
         d="m 231.85,-90.921 c 34.297,-16.865 74.102,-43.127 95.828,-79.079 29.78,-49.28 37.203,-113.695 36.077,-165.58"
         id="path5180"
         inkscape:connector-curvature="0"
         style="fill:none;stroke:#000000;stroke-width:3.56666994" />
      <polygon
         points="360.25,-335.673 363.42,-345.782 367.246,-335.903 360.25,-335.673 "
         id="polygon5182"
         style="fill:#000000;stroke:#000000;stroke-width:3.56666994" />
    </g>
    <!-- 4&#45;&gt;1 -->
    <g
       id="edge16"
       class="edge">
      <title
         id="title5185">4-&gt;1</title>
      <path
         d="m 238.676,-306.217 c 19.513,-115.911 46.313,-350.423 16.002,-425.783 -10.213,-25.394 -28.387,-48.511 -47.919,-67.722"
         id="path5187"
         inkscape:connector-curvature="0"
         style="fill:none;stroke:#000000;stroke-width:1.76666999" />
      <polygon
         points="204.342,-797.19 199.513,-806.62 209.169,-802.26 204.342,-797.19 "
         id="polygon5189"
         style="fill:#000000;stroke:#000000;stroke-width:1.76666999" />
    </g>
    <!-- 4&#45;&gt;2 -->
    <g
       id="edge17"
       class="edge">
      <title
         id="title5192">4-&gt;2</title>
      <path
         d="m 212.605,-306.753 c -13.723,-63.674 -37.045,-160.352 -56.03,-232.854"
         id="path5194"
         inkscape:connector-curvature="0"
         style="fill:none;stroke:#000000;stroke-width:1.66666996" />
      <polygon
         points="153.086,-539.109 153.926,-549.671 159.856,-540.891 153.086,-539.109 "
         id="polygon5196"
         style="fill:#000000;stroke:#000000;stroke-width:1.66666996" />
    </g>
    <!-- 4&#45;&gt;3 -->
    <g
       id="edge18"
       class="edge">
      <title
         id="title5199">4-&gt;3</title>
      <path
         d="m 197.345,-175.664 c -3.683,10.921 -7.379,22.38 -10.835,33.582"
         id="path5201"
         inkscape:connector-curvature="0"
         style="fill:none;stroke:#000000;stroke-width:5" />
      <polygon
         points="190.638,-140.618 183.542,-132.325 182.267,-143.165 190.638,-140.618 "
         id="polygon5203"
         style="fill:#000000;stroke:#000000;stroke-width:5" />
    </g>
    <!-- 4&#45;&gt;4 -->
    <g
       id="edge19"
       class="edge">
      <title
         id="title5206">4-&gt;4</title>
      <path
         d="m 284.352,-270.681 c 14.548,2.476 25.326,13.036 25.326,31.681 0,14.275 -6.318,23.811 -15.808,28.608"
         id="path5208"
         inkscape:connector-curvature="0"
         style="fill:none;stroke:#000000;stroke-width:2.5999999" />
      <polygon
         points="294.944,-207.061 284.352,-207.319 292.793,-213.723 294.944,-207.061 "
         id="polygon5210"
         style="fill:#000000;stroke:#000000;stroke-width:2.5999999" />
    </g>
    <!-- 4&#45;&gt;5 -->
    <g
       id="edge20"
       class="edge">
      <title
         id="title5213">4-&gt;5</title>
      <path
         d="m 265.664,-293.292 c 11.639,-16.555 24.325,-35.177 36.214,-53.118"
         id="path5215"
         inkscape:connector-curvature="0"
         style="fill:none;stroke:#000000;stroke-width:4.86667013" />
      <polygon
         points="298.582,-349.147 307.642,-355.151 305.692,-344.458 298.582,-349.147 "
         id="polygon5217"
         style="fill:#000000;stroke:#000000;stroke-width:4.86667013" />
    </g>
    <!-- 5&#45;&gt;2 -->
    <g
       id="edge21"
       class="edge">
      <title
         id="title5220">5-&gt;2</title>
      <path
         d="m 291.971,-487.46 c -26.706,-25.951 -58.94,-56.504 -87.843,-83.281"
         id="path5222"
         inkscape:connector-curvature="0"
         style="fill:none;stroke:#000000;stroke-width:1.83333004" />
      <polygon
         points="201.434,-568.465 196.465,-577.822 206.185,-573.605 201.434,-568.465 "
         id="polygon5224"
         style="fill:#000000;stroke:#000000;stroke-width:1.83333004" />
    </g>
    <!-- 5&#45;&gt;3 -->
    <g
       id="edge22"
       class="edge">
      <title
         id="title5227">5-&gt;3</title>
      <path
         d="m 348.181,-344.318 c -0.527,53.237 -7.026,122.232 -38.503,174.318 -17.117,28.326 -45.457,50.636 -72.22,67.075"
         id="path5229"
         inkscape:connector-curvature="0"
         style="fill:none;stroke:#000000;stroke-width:1.66666996" />
      <polygon
         points="239.223,-99.9028 228.84,-97.7941 235.641,-105.917 239.223,-99.9028 "
         id="polygon5231"
         style="fill:#000000;stroke:#000000;stroke-width:1.66666996" />
    </g>
    <!-- 5&#45;&gt;4 -->
    <g
       id="edge23"
       class="edge">
      <title
         id="title5234">5-&gt;4</title>
      <path
         d="m 298.669,-361.207 c -12.047,17.389 -24.727,36.231 -36.182,53.76"
         id="path5236"
         inkscape:connector-curvature="0"
         style="fill:none;stroke:#000000;stroke-width:3.73333001" />
      <polygon
         points="265.355,-305.436 256.97,-298.959 259.486,-309.251 265.355,-305.436 "
         id="polygon5238"
         style="fill:#000000;stroke:#000000;stroke-width:3.73333001" />
    </g>
    <!-- 5&#45;&gt;5 -->
    <g
       id="edge24"
       class="edge">
      <title
         id="title5241">5-&gt;5</title>
      <path
         d="m 424.121,-460.563 c 14.385,4.016 24.557,15.204 24.557,33.563 0,14.056 -5.962,23.909 -15.213,29.558"
         id="path5243"
         inkscape:connector-curvature="0"
         style="fill:none;stroke:#000000;stroke-width:1.66666996" />
      <polygon
         points="434.691,-394.16 424.121,-393.437 431.933,-400.594 434.691,-394.16 "
         id="polygon5245"
         style="fill:#000000;stroke:#000000;stroke-width:1.66666996" />
    </g>
  </g>
</svg>
