<?xml version="1.0" encoding="UTF-8" standalone="no"?>
<!-- Generated by graphviz version 2.36.0 (20140111.2315)
 -->

<!-- Title: G Pages: 1 -->

<svg
   xmlns:dc="http://purl.org/dc/elements/1.1/"
   xmlns:cc="http://creativecommons.org/ns#"
   xmlns:rdf="http://www.w3.org/1999/02/22-rdf-syntax-ns#"
   xmlns:svg="http://www.w3.org/2000/svg"
   xmlns="http://www.w3.org/2000/svg"
   xmlns:sodipodi="http://sodipodi.sourceforge.net/DTD/sodipodi-0.dtd"
   xmlns:inkscape="http://www.inkscape.org/namespaces/inkscape"
   width="1188.125"
   height="494.25781"
   viewBox="0 0 950.5 395.40625"
   id="svg3503"
   version="1.1"
   inkscape:version="0.48.4 r9939"
   sodipodi:docname="PuntaBanda-Par_5_1.dot.svg">
  <metadata
     id="metadata3709">
    <rdf:RDF>
      <cc:Work
         rdf:about="">
        <dc:format>image/svg+xml</dc:format>
        <dc:type
           rdf:resource="http://purl.org/dc/dcmitype/StillImage" />
      </cc:Work>
    </rdf:RDF>
  </metadata>
  <defs
     id="defs3707" />
  <sodipodi:namedview
     pagecolor="#ffffff"
     bordercolor="#666666"
     borderopacity="1"
     objecttolerance="10"
     gridtolerance="10"
     guidetolerance="10"
     inkscape:pageopacity="0"
     inkscape:pageshadow="2"
     inkscape:window-width="701"
     inkscape:window-height="480"
     id="namedview3705"
     showgrid="false"
     fit-margin-top="0"
     fit-margin-left="0"
     fit-margin-right="0"
     fit-margin-bottom="0"
     inkscape:zoom="0.19707724"
     inkscape:cx="593.48959"
     inkscape:cy="246.82291"
     inkscape:window-x="65"
     inkscape:window-y="24"
     inkscape:window-maximized="0"
     inkscape:current-layer="svg3503" />
  <g
     id="graph0"
     class="graph"
     transform="matrix(0,-1,1,0,950.5,394.65625)">
    <title
       id="title3506">G</title>
    <!-- 1 -->
    <g
       id="node1"
       class="node">
      <title
         id="title3509">1</title>
      <path
         d="m 197,-873 c 0,0 77,0 77,0 0,-2.068 -0.083,-4.135 -0.25,-6.196 -0.166,-2.061 -0.415,-4.115 -0.747,-6.156 -0.332,-2.041 -0.746,-4.068 -1.24,-6.075 -0.495,-2.008 -1.071,-3.995 -1.726,-5.956 0,0 -73.037,24.383 -73.037,24.383"
         id="path3511"
         inkscape:connector-curvature="0"
         style="fill:#abdda4;stroke:#000000;stroke-width:0.5" />
      <path
         d="m 197,-873 c 0,0 73.037,-24.383 73.037,-24.383 -0.695,-2.084 -1.48,-4.138 -2.351,-6.155 -0.872,-2.017 -1.829,-3.995 -2.87,-5.93 -1.04,-1.935 -2.163,-3.825 -3.365,-5.664 -1.203,-1.839 -2.483,-3.626 -3.838,-5.355 -1.355,-1.73 -2.783,-3.401 -4.281,-5.008 -1.498,-1.607 -3.064,-3.15 -4.694,-4.623 -1.63,-1.474 -3.322,-2.877 -5.072,-4.205 -1.749,-1.329 -3.555,-2.582 -5.412,-3.757 -1.857,-1.174 -3.763,-2.268 -5.714,-3.279 -1.951,-1.012 -3.944,-1.939 -5.973,-2.78 -2.03,-0.841 -4.095,-1.594 -6.189,-2.258 -2.095,-0.664 -4.217,-1.239 -6.36,-1.721 -2.143,-0.483 -4.306,-0.874 -6.483,-1.172 -2.177,-0.297 -4.366,-0.502 -6.56,-0.612 -2.194,-0.111 -4.392,-0.128 -6.588,-0.05 -2.196,0.077 -4.387,0.249 -6.568,0.513 -2.181,0.265 -4.35,0.623 -6.501,1.074 -2.15,0.45 -4.28,0.992 -6.384,1.625 -2.104,0.632 -4.181,1.354 -6.223,2.164 -2.042,0.81 -4.049,1.707 -6.014,2.689 -1.966,0.982 -3.889,2.047 -5.763,3.193 -1.875,1.146 -3.699,2.372 -5.469,3.674 -1.77,1.302 -3.483,2.68 -5.135,4.128 -1.651,1.449 -3.241,2.968 -4.763,4.552 -1.522,1.585 -2.975,3.234 -4.356,4.943 -1.381,1.708 -2.688,3.476 -3.918,5.296 -1.23,1.821 -2.381,3.693 -3.451,5.613 -1.07,1.919 -2.057,3.883 -2.958,5.886 -0.902,2.004 -1.718,4.045 -2.445,6.118 -0.727,2.074 -1.365,4.177 -1.912,6.305 -0.547,2.128 -1.003,4.278 -1.367,6.445 -0.363,2.167 -0.634,4.348 -0.81,6.538 0,0 76.75,6.196 76.75,6.196"
         id="path3513"
         inkscape:connector-curvature="0"
         style="fill:#2b83ba;stroke:#000000;stroke-width:0.5" />
      <path
         d="m 197,-873 c 0,0 -76.75,-6.196 -76.75,-6.196 -0.188,2.319 -0.27,4.645 -0.246,6.971 0.023,2.327 0.152,4.651 0.386,6.965 0.234,2.315 0.572,4.618 1.015,6.902 0.442,2.283 0.988,4.546 1.635,6.781 0.647,2.234 1.396,4.438 2.242,6.605 0.847,2.167 1.792,4.294 2.831,6.375 1.04,2.082 2.173,4.115 3.396,6.093 1.224,1.979 2.536,3.901 3.934,5.761 1.397,1.86 2.879,3.655 4.439,5.381 1.56,1.726 3.197,3.38 4.907,4.957 1.71,1.578 3.491,3.077 5.336,4.493 1.846,1.416 3.755,2.748 5.721,3.992 1.966,1.243 3.988,2.397 6.059,3.457 2.07,1.06 4.188,2.026 6.346,2.895 2.158,0.868 4.355,1.639 6.583,2.308 2.228,0.67 4.485,1.239 6.764,1.704 2.279,0.465 4.579,0.827 6.891,1.084 2.312,0.257 4.635,0.41 6.96,0.456 2.326,0.047 4.653,-0.011 6.974,-0.175 2.32,-0.164 4.632,-0.433 6.929,-0.806 2.296,-0.373 4.574,-0.85 6.827,-1.43 2.253,-0.579 4.479,-1.261 6.67,-2.042 2.192,-0.78 4.346,-1.66 6.458,-2.636 2.112,-0.977 4.178,-2.048 6.193,-3.211 2.015,-1.163 3.976,-2.417 5.877,-3.758 1.901,-1.341 3.74,-2.767 5.512,-4.274 1.773,-1.507 3.475,-3.094 5.104,-4.756 1.628,-1.661 3.18,-3.396 4.652,-5.198 1.471,-1.802 2.86,-3.67 4.162,-5.597 1.302,-1.928 2.516,-3.914 3.639,-5.952 1.122,-2.037 2.152,-4.125 3.085,-6.256 0.933,-2.131 1.77,-4.303 2.506,-6.51 0,0 -73.037,-24.383 -73.037,-24.383"
         id="path3515"
         inkscape:connector-curvature="0"
         style="fill:#fdae61;stroke:#000000;stroke-width:0.5" />
      <path
         d="m 197,-873 c 0,0 73.037,24.383 73.037,24.383 0.655,-1.961 1.231,-3.948 1.726,-5.956 0.494,-2.007 0.908,-4.034 1.24,-6.075 0.332,-2.041 0.581,-4.095 0.747,-6.156 0.167,-2.061 0.25,-4.128 0.25,-6.196 0,0 -77,0 -77,0"
         id="path3517"
         inkscape:connector-curvature="0"
         style="fill:#d7191c;stroke:#000000;stroke-width:0.5" />
      <ellipse
         cx="197"
         cy="-873"
         rx="77"
         ry="77"
         id="ellipse3519"
         d="m 274,-873 c 0,42.52593 -34.47407,77 -77,77 -42.52593,0 -77,-34.47407 -77,-77 0,-42.52593 34.47407,-77 77,-77 42.52593,0 77,34.47407 77,77 z"
         sodipodi:cx="197"
         sodipodi:cy="-873"
         sodipodi:rx="77"
         sodipodi:ry="77"
         style="fill:none;stroke:#000000" />
    </g>
    <!-- 1&#45;&gt;1 -->
    <g
       id="edge1"
       class="edge">
      <title
         id="title3522">1-&gt;1</title>
      <path
         d="m 266.592,-906.386 c 14.754,3.39 25.408,14.519 25.408,33.386 0,14.445 -6.245,24.354 -15.794,29.727"
         id="path3524"
         inkscape:connector-curvature="0"
         style="fill:none;stroke:#000000;stroke-width:4.23332977" />
      <polygon
         points="277.255,-839.709 266.592,-839.614 274.62,-846.633 277.255,-839.709 "
         id="polygon3526"
         style="fill:#000000;stroke:#000000;stroke-width:4.23332977" />
    </g>
    <!-- 2 -->
    <g
       id="node2"
       class="node">
      <title
         id="title3529">2</title>
      <path
         d="m 197,-689 c 0,0 70.25,0 70.25,0 0,-2.232 -0.106,-4.464 -0.317,-6.686 -0.211,-2.222 -0.527,-4.433 -0.947,-6.626 -0.42,-2.192 -0.943,-4.363 -1.568,-6.505 -0.626,-2.143 -1.352,-4.254 -2.177,-6.327 -0.825,-2.073 -1.748,-4.106 -2.765,-6.091 -1.017,-1.986 -2.127,-3.922 -3.327,-5.801 -1.201,-1.88 -2.489,-3.701 -3.861,-5.458 -1.373,-1.757 -2.828,-3.448 -4.36,-5.066 0,0 -50.928,48.56 -50.928,48.56"
         id="path3531"
         inkscape:connector-curvature="0"
         style="fill:#abdda4;stroke:#000000;stroke-width:0.5" />
      <path
         d="m 197,-689 c 0,0 50.928,-48.56 50.928,-48.56 -1.153,-1.219 -2.35,-2.395 -3.588,-3.528 -1.237,-1.133 -2.515,-2.221 -3.83,-3.262 -1.315,-1.041 -2.666,-2.034 -4.052,-2.979 -1.386,-0.944 -2.805,-1.838 -4.254,-2.68 -1.45,-0.842 -2.929,-1.632 -4.434,-2.369 -1.506,-0.736 -3.038,-1.418 -4.592,-2.044 -1.554,-0.627 -3.13,-1.197 -4.725,-1.71 -1.595,-0.514 -3.208,-0.97 -4.835,-1.367 0,0 -16.618,68.499 -16.618,68.499"
         id="path3533"
         inkscape:connector-curvature="0"
         style="fill:#fdae61;stroke:#000000;stroke-width:0.5" />
      <path
         d="m 197,-689 c 0,0 16.618,-68.499 16.618,-68.499 -1.761,-0.43 -3.537,-0.792 -5.325,-1.084 -1.788,-0.292 -3.587,-0.515 -5.393,-0.668 -1.805,-0.153 -3.616,-0.235 -5.427,-0.247 -1.812,-0.013 -3.624,0.045 -5.431,0.174 -1.807,0.128 -3.609,0.327 -5.401,0.595 -1.792,0.268 -3.573,0.605 -5.339,1.012 -1.766,0.406 -3.516,0.881 -5.245,1.423 -1.729,0.542 -3.437,1.151 -5.12,1.825 -1.682,0.675 -3.338,1.415 -4.964,2.218 -1.625,0.803 -3.219,1.669 -4.778,2.595 -1.559,0.927 -3.081,1.914 -4.564,2.959 -1.483,1.045 -2.925,2.147 -4.323,3.303 -1.397,1.157 -2.75,2.368 -4.055,3.629 -1.304,1.262 -2.56,2.574 -3.764,3.933 -1.203,1.359 -2.354,2.764 -3.449,4.213 -1.095,1.448 -2.134,2.939 -3.115,4.468 -0.98,1.529 -1.901,3.095 -2.761,4.696 -0.86,1.6 -1.658,3.233 -2.392,4.896 -0.734,1.662 -1.403,3.352 -2.007,5.067 -0.604,1.714 -1.141,3.451 -1.611,5.207 -0.47,1.756 -0.872,3.53 -1.205,5.317 -0.334,1.787 -0.598,3.587 -0.792,5.394 -0.195,1.808 -0.32,3.623 -0.375,5.44 -0.055,1.818 -0.039,3.636 0.046,5.453 0.085,1.816 0.24,3.628 0.465,5.432 0.225,1.804 0.52,3.599 0.883,5.381 0.363,1.781 0.795,3.548 1.294,5.295 0.499,1.748 1.066,3.476 1.698,5.18 0.632,1.704 1.33,3.383 2.092,5.032 0.762,1.65 1.587,3.27 2.473,4.855 0.887,1.586 1.834,3.137 2.84,4.649 1.006,1.512 2.07,2.985 3.189,4.415 1.119,1.429 2.294,2.815 3.52,4.154 1.226,1.338 2.503,2.629 3.829,3.868 1.325,1.24 2.698,2.427 4.115,3.56 1.417,1.133 2.878,2.211 4.378,3.23 1.5,1.02 3.038,1.981 4.613,2.881 1.574,0.901 3.182,1.74 4.821,2.515 1.638,0.776 3.306,1.487 5,2.133 1.694,0.646 3.411,1.226 5.15,1.739 1.738,0.513 3.495,0.958 5.268,1.335 1.772,0.376 3.559,0.683 5.355,0.921 1.796,0.238 3.601,0.406 5.41,0.504 1.809,0.098 3.622,0.125 5.433,0.082 1.811,-0.042 3.62,-0.155 5.423,-0.339 1.802,-0.183 3.597,-0.436 5.38,-0.758 1.783,-0.323 3.553,-0.714 5.306,-1.174 1.753,-0.46 3.488,-0.987 5.2,-1.582 1.712,-0.594 3.401,-1.255 5.062,-1.98 1.662,-0.725 3.295,-1.515 4.895,-2.367 1.601,-0.852 3.168,-1.766 4.698,-2.74 1.53,-0.973 3.022,-2.006 4.473,-3.095 1.45,-1.09 2.858,-2.235 4.221,-3.434 1.362,-1.198 2.678,-2.45 3.944,-3.75 1.266,-1.301 2.481,-2.65 3.643,-4.045 1.162,-1.396 2.27,-2.835 3.321,-4.316 1.051,-1.481 2.045,-3.002 2.978,-4.56 0.934,-1.559 1.808,-3.152 2.619,-4.778 0.811,-1.626 1.559,-3.283 2.243,-4.967 0.683,-1.684 1.301,-3.393 1.853,-5.125 0.552,-1.732 1.037,-3.485 1.453,-5.254 0.417,-1.77 0.766,-3.555 1.045,-5.351 0.279,-1.797 0.489,-3.604 0.629,-5.416 0.14,-1.813 0.21,-3.631 0.21,-5.449 0,0 -70.25,0 -70.25,0"
         id="path3535"
         inkscape:connector-curvature="0"
         style="fill:#d7191c;stroke:#000000;stroke-width:0.5" />
      <ellipse
         cx="197"
         cy="-689"
         rx="70.25"
         ry="70.5"
         id="ellipse3537"
         d="m 267.25,-689 c 0,38.93607 -31.452,70.5 -70.25,70.5 -38.798,0 -70.25,-31.56393 -70.25,-70.5 0,-38.93607 31.452,-70.5 70.25,-70.5 38.798,0 70.25,31.56393 70.25,70.5 z"
         sodipodi:cx="197"
         sodipodi:cy="-689"
         sodipodi:rx="70.25"
         sodipodi:ry="70.5"
         style="fill:none;stroke:#000000" />
    </g>
    <!-- 1&#45;&gt;2 -->
    <g
       id="edge2"
       class="edge">
      <title
         id="title3540">1-&gt;2</title>
      <path
         d="m 190.334,-796.134 c -0.098,8.764 -0.11,17.719 -0.037,26.53"
         id="path3542"
         inkscape:connector-curvature="0"
         style="fill:none;stroke:#000000;stroke-width:1.86667001" />
      <polygon
         points="193.8,-769.39 190.423,-759.347 186.801,-769.304 193.8,-769.39 "
         id="polygon3544"
         style="fill:#000000;stroke:#000000;stroke-width:1.86667001" />
    </g>
    <!-- 3 -->
    <g
       id="node3"
       class="node">
      <title
         id="title3547">3</title>
      <path
         d="m 83,-84 c 0,0 83.25,0 83.25,0 0,-1.8989 -0.065,-3.7973 -0.194,-5.6919 -0.129,-1.8945 -0.322,-3.784 -0.58,-5.6653 -0.257,-1.8813 -0.579,-3.7533 -0.963,-5.6128 -0.385,-1.859 -0.833,-3.705 -1.343,-5.533 -0.51,-1.829 -1.083,-3.64 -1.716,-5.429 -0.633,-1.79 -1.327,-3.557 -2.081,-5.299 -0.753,-1.742 -1.566,-3.458 -2.436,-5.145 -0.87,-1.686 -1.797,-3.342 -2.78,-4.966 -0.983,-1.623 -2.02,-3.212 -3.111,-4.764 -1.091,-1.552 -2.234,-3.066 -3.428,-4.54 -1.193,-1.474 -2.437,-2.907 -3.728,-4.296 -1.291,-1.389 -2.629,-2.733 -4.012,-4.03 -1.382,-1.298 -2.808,-2.548 -4.276,-3.747 -1.467,-1.2 -2.975,-2.35 -4.52,-3.446 -1.546,-1.097 -3.128,-2.141 -4.745,-3.129 -1.616,-0.989 -3.266,-1.922 -4.946,-2.797 C 121.391,-158.091 83,-84 83,-84"
         id="path3549"
         inkscape:connector-curvature="0"
         style="fill:#abdda4;stroke:#000000;stroke-width:0.5" />
      <path
         d="m 83,-84 c 0,0 38.391,-74.091 38.391,-74.091 -1.682,-0.877 -3.394,-1.696 -5.132,-2.456 -1.739,-0.76 -3.502,-1.46 -5.288,-2.099 -1.786,-0.639 -3.593,-1.216 -5.418,-1.732 -1.826,-0.515 -3.668,-0.967 -5.524,-1.356 -1.8558,-0.389 -3.7245,-0.715 -5.6026,-0.976 -1.8782,-0.261 -3.7647,-0.457 -5.6562,-0.589 -1.8915,-0.132 -3.787,-0.199 -5.6831,-0.201 -1.8961,-0.002 -3.7917,0.061 -5.6835,0.189 -1.8918,0.128 -3.7787,0.32 -5.6574,0.577 -1.8787,0.258 -3.7481,0.579 -5.6049,0.964 -1.8568,0.385 -3.7,0.834 -5.5263,1.345 -1.8262,0.512 -3.6345,1.085 -5.4217,1.721 -1.7872,0.635 -3.5523,1.331 -5.2921,2.087 -1.7398,0.756 -3.4533,1.572 -5.1376,2.445 -1.6842,0.874 -3.3383,1.805 -4.9592,2.792 -1.6208,0.986 -3.2077,2.028 -4.7576,3.124 -1.5499,1.095 -3.0621,2.244 -4.5339,3.443 -1.4718,1.199 -2.9023,2.448 -4.289,3.745 -1.3867,1.297 -2.7288,2.641 -4.0241,4.03 -1.2952,1.389 -2.5427,2.822 -3.7403,4.296 -1.1977,1.474 -2.3448,2.989 -3.4393,4.542 -1.0945,1.553 -2.1358,3.143 -3.122,4.768 -0.9863,1.624 -1.91691,3.281 -2.79031,4.969 -0.87339,1.689 -1.68904,3.406 -2.44551,5.15 -0.75646,1.744 -1.45331,3.513 -2.08932,5.305 -0.636,1.791 -1.2108,3.604 -1.72338,5.435 -0.51258,1.831 -0.96264,3.679 -1.3494,5.541 -0.38676,1.8617 -0.709995,3.7362 -0.969132,5.6202 -0.259136,1.8839 -0.4540273,3.7762 -0.5843313,5.6735 -0.1303037,1.8973 -0.1959447,3.7985 -0.1968077,5.7003 -8.64e-4,1.9018 0.063052,3.803 0.1916333,5.7005 0.1285817,1.8974 0.3217547,3.7898 0.5791817,5.674 C 0.520824,-72.6635 83,-84 83,-84"
         id="path3551"
         inkscape:connector-curvature="0"
         style="fill:#2b83ba;stroke:#000000;stroke-width:0.5" />
      <path
         d="m 83,-84 c 0,0 -82.479176,11.3365 -82.479176,11.3365 0.257553,1.8851 0.579276,3.7608 0.964596,5.6239 0.38532,1.8631 0.83402,3.7124 1.34532,5.5447 0.51129,1.8323 1.08487,3.6466 1.71975,5.4396 0.63487,1.793 1.33066,3.5637 2.08615,5.309 0.75549,1.7454 1.57024,3.4643 2.44282,5.1538 0.87258,1.6895 1.80244,3.3486 2.78804,4.9744 0.9856,1.6257 2.0263,3.2172 3.1203,4.7717 1.094,1.5545 2.2407,3.071 3.438,4.5468 1.1973,1.4759 2.4445,2.9103 3.7395,4.3007 1.295,1.3905 2.637,2.7361 4.0237,4.0345 1.3867,1.2985 2.8172,2.549 4.289,3.7494 1.4719,1.2004 2.9842,2.3501 4.5344,3.4468 1.5501,1.0968 3.1372,2.1402 4.7584,3.1282 1.6212,0.988 3.2757,1.9202 4.9604,2.79483 1.6847,0.87465 3.3987,1.6913 5.1391,2.4485 1.7403,0.7572 3.506,1.45451 5.2938,2.09071 1.7879,0.63621 3.5969,1.21094 5.4239,1.72318 1.827,0.51224 3.6709,0.96169 5.5285,1.34758 1.8576,0.38588 3.7278,0.70797 5.6074,0.96569 1.8795,0.25772 3.7673,0.450932 5.66,0.579292 1.8927,0.128359 3.7892,0.191792 5.6863,0.190188 1.897,-0.001604 3.7934,-0.068244 5.6859,-0.199803 1.8925,-0.13156 3.78,-0.327967 5.6591,-0.588867 1.8791,-0.2609 3.7488,-0.58614 5.6058,-0.97517 1.857,-0.38902 3.7,-0.84159 5.526,-1.35692 1.826,-0.51533 3.634,-1.09312 5.421,-1.73235 1.787,-0.63922 3.551,-1.33952 5.29,-2.09966 1.74,-0.76014 3.452,-1.57969 5.135,-2.45719 1.684,-0.87751 3.337,-1.81241 4.956,-2.80321 1.62,-0.9908 3.205,-2.0368 4.753,-3.1362 1.549,-1.0994 3.059,-2.2516 4.529,-3.4545 1.47,-1.2029 2.898,-2.4558 4.283,-3.7566 C 139.914,-23.0605 83,-84 83,-84"
         id="path3553"
         inkscape:connector-curvature="0"
         style="fill:#fdae61;stroke:#000000;stroke-width:0.5" />
      <path
         d="m 83,-84 c 0,0 56.914,60.9395 56.914,60.9395 2.071,-1.9462 4.042,-3.9973 5.904,-6.1454 1.863,-2.1481 3.614,-4.3903 5.249,-6.7179 1.634,-2.3275 3.148,-4.7374 4.537,-7.2201 1.389,-2.4827 2.65,-5.035 3.779,-7.6469 1.128,-2.6119 2.123,-5.28 2.98,-7.9939 0.858,-2.7138 1.576,-5.4699 2.152,-8.2573 0.576,-2.7874 1.01,-5.6026 1.3,-8.4345 0.29,-2.8319 0.435,-5.6767 0.435,-8.5235 0,0 -83.25,0 -83.25,0"
         id="path3555"
         inkscape:connector-curvature="0"
         style="fill:#d7191c;stroke:#000000;stroke-width:0.5" />
      <ellipse
         cx="83"
         cy="-84"
         rx="83.25"
         ry="83.5"
         id="ellipse3557"
         d="m 166.25,-84 c 0,46.115777 -37.27229,83.5 -83.25,83.5 -45.977705,0 -83.25,-37.384223 -83.25,-83.5 0,-46.11578 37.272295,-83.5 83.25,-83.5 45.97771,0 83.25,37.38422 83.25,83.5 z"
         sodipodi:cx="83"
         sodipodi:cy="-84"
         sodipodi:rx="83.25"
         sodipodi:ry="83.5"
         style="fill:none;stroke:#000000" />
    </g>
    <!-- 1&#45;&gt;3 -->
    <g
       id="edge3"
       class="edge">
      <title
         id="title3560">1-&gt;3</title>
      <path
         d="m 144.49,-816.671 c -14.874,17.331 -30.314,37.07 -42.49,56.671 -45.4838,73.219 -59.5261,93.594 -77,178 -1.7326,8.369 0.928,377.687 1,378 2.8829,12.542 7.2455,25.311 12.2996,37.602"
         id="path3562"
         inkscape:connector-curvature="0"
         style="fill:none;stroke:#000000;stroke-width:3.73333001" />
      <polygon
         points="41.5608,-167.674 42.2862,-157.104 35.1276,-164.914 41.5608,-167.674 "
         id="polygon3564"
         style="fill:#000000;stroke:#000000;stroke-width:3.73333001" />
    </g>
    <!-- 4 -->
    <g
       id="node4"
       class="node">
      <title
         id="title3567">4</title>
      <path
         d="m 297,-283 c 0,0 78.5,0 78.5,0 0,-2.006 -0.076,-4.011 -0.228,-6.012 -0.151,-2 -0.379,-3.993 -0.681,-5.976 -0.303,-1.983 -0.68,-3.953 -1.132,-5.907 -0.451,-1.954 -0.976,-3.89 -1.574,-5.804 0,0 -74.885,23.699 -74.885,23.699"
         id="path3569"
         inkscape:connector-curvature="0"
         style="fill:#2b83ba;stroke:#000000;stroke-width:0.5" />
      <path
         d="m 297,-283 c 0,0 74.885,-23.699 74.885,-23.699 -0.599,-1.916 -1.27,-3.809 -2.013,-5.673 -0.742,-1.865 -1.554,-3.701 -2.435,-5.503 0,0 -70.437,34.875 -70.437,34.875"
         id="path3571"
         inkscape:connector-curvature="0"
         style="fill:#fdae61;stroke:#000000;stroke-width:0.5" />
      <path
         d="m 297,-283 c 0,0 70.437,-34.875 70.437,-34.875 -1.052,-2.152 -2.201,-4.254 -3.442,-6.3 -1.242,-2.046 -2.576,-4.034 -3.997,-5.958 -1.421,-1.924 -2.929,-3.782 -4.518,-5.568 -1.59,-1.786 -3.259,-3.499 -5.003,-5.132 -1.744,-1.633 -3.561,-3.186 -5.446,-4.653 -1.884,-1.467 -3.834,-2.847 -5.843,-4.135 -2.009,-1.289 -4.075,-2.485 -6.192,-3.584 -2.117,-1.099 -4.283,-2.101 -6.491,-3.002 -2.208,-0.902 -4.455,-1.701 -6.735,-2.397 -2.28,-0.695 -4.59,-1.286 -6.923,-1.77 -2.334,-0.484 -4.688,-0.86 -7.055,-1.129 -2.367,-0.268 -4.746,-0.428 -7.128,-0.479 -2.381,-0.051 -4.764,0.007 -7.141,0.175 -2.377,0.167 -4.744,0.443 -7.096,0.827 -2.352,0.384 -4.685,0.875 -6.992,1.473 -2.307,0.598 -4.586,1.3 -6.83,2.107 -2.243,0.806 -4.449,1.714 -6.611,2.722 -2.161,1.008 -4.276,2.115 -6.338,3.317 -2.061,1.201 -4.068,2.497 -6.012,3.882 -1.945,1.385 -3.825,2.859 -5.637,4.416 -1.811,1.558 -3.551,3.197 -5.214,4.914 -1.663,1.717 -3.248,3.509 -4.749,5.37 -1.501,1.862 -2.917,3.792 -4.244,5.783 -1.327,1.991 -2.563,4.042 -3.704,6.147 -1.141,2.104 -2.187,4.26 -3.134,6.46 -0.946,2.2 -1.793,4.443 -2.537,6.72 -0.744,2.278 -1.384,4.589 -1.919,6.925 -0.535,2.336 -0.965,4.696 -1.286,7.071 -0.322,2.376 -0.536,4.765 -0.642,7.16 -0.106,2.395 -0.104,4.794 0.007,7.189 0.111,2.395 0.33,4.784 0.657,7.159 0.327,2.375 0.761,4.733 1.3,7.068 0.54,2.336 1.186,4.645 1.934,6.921 0.749,2.276 1.6,4.517 2.551,6.715 0.951,2.198 2.001,4.352 3.147,6.454 1.146,2.102 2.386,4.15 3.717,6.139 1.331,1.988 2.751,3.915 4.256,5.774 1.505,1.858 3.093,3.647 4.76,5.36 1.666,1.713 3.41,3.349 5.224,4.903 1.815,1.554 3.699,3.023 5.646,4.404 1.947,1.382 3.956,2.673 6.02,3.87 2.064,1.198 4.181,2.3 6.345,3.303 2.163,1.004 4.371,1.908 6.617,2.709 2.245,0.802 4.525,1.5 6.834,2.093 2.308,0.592 4.642,1.079 6.995,1.458 2.352,0.379 4.72,0.65 7.097,0.813 2.377,0.162 4.76,0.215 7.142,0.16 2.382,-0.056 4.76,-0.221 7.127,-0.495 2.366,-0.273 4.72,-0.655 7.052,-1.144 2.332,-0.488 4.641,-1.084 6.92,-1.784 2.278,-0.7 4.524,-1.505 6.73,-2.41 2.206,-0.906 4.369,-1.912 6.484,-3.016 2.115,-1.104 4.179,-2.304 6.185,-3.597 2.007,-1.292 3.954,-2.676 5.835,-4.147 1.881,-1.471 3.695,-3.028 5.436,-4.665 1.741,-1.636 3.406,-3.352 4.992,-5.142 1.586,-1.789 3.089,-3.65 4.507,-5.577 1.417,-1.927 2.747,-3.918 3.984,-5.967 1.238,-2.049 2.382,-4.153 3.429,-6.307 1.048,-2.153 1.997,-4.353 2.845,-6.594 0.849,-2.24 1.595,-4.518 2.238,-6.827 0.642,-2.309 1.18,-4.646 1.612,-7.003 0.431,-2.358 0.755,-4.735 0.972,-7.123 0.217,-2.387 0.325,-4.783 0.325,-7.181 0,0 -78.5,0 -78.5,0"
         id="path3573"
         inkscape:connector-curvature="0"
         style="fill:#d7191c;stroke:#000000;stroke-width:0.5" />
      <ellipse
         cx="297"
         cy="-283"
         rx="78.5"
         ry="79"
         id="ellipse3575"
         d="m 375.5,-283 c 0,43.6305 -35.14565,79 -78.5,79 -43.35435,0 -78.5,-35.3695 -78.5,-79 0,-43.6305 35.14565,-79 78.5,-79 43.35435,0 78.5,35.3695 78.5,79 z"
         sodipodi:cx="297"
         sodipodi:cy="-283"
         sodipodi:rx="78.5"
         sodipodi:ry="79"
         style="fill:none;stroke:#000000" />
    </g>
    <!-- 1&#45;&gt;4 -->
    <g
       id="edge4"
       class="edge">
      <title
         id="title3578">1-&gt;4</title>
      <path
         d="m 249.133,-815.875 c 13.978,16.548 27.487,35.68 35.867,55.875 52.669,126.928 38.18,289.802 24.023,388.367"
         id="path3580"
         inkscape:connector-curvature="0"
         style="fill:none;stroke:#000000;stroke-width:1.96667004" />
      <polygon
         points="312.482,-371.096 307.569,-361.709 305.556,-372.111 312.482,-371.096 "
         id="polygon3582"
         style="fill:#000000;stroke:#000000;stroke-width:1.96667004" />
    </g>
    <!-- 5 -->
    <g
       id="node5"
       class="node">
      <title
         id="title3585">5</title>
      <path
         d="m 168,-490 c 0,0 91.25,0 91.25,0 0,-2.778 -0.126,-5.554 -0.378,-8.32 -0.252,-2.766 -0.629,-5.519 -1.131,-8.251 -0.501,-2.731 -1.127,-5.438 -1.874,-8.113 -0.747,-2.675 -1.616,-5.314 -2.602,-7.909 -0.987,-2.595 -2.091,-5.144 -3.309,-7.639 -1.218,-2.495 -2.549,-4.932 -3.988,-7.306 -1.439,-2.373 -2.985,-4.679 -4.633,-6.912 -1.649,-2.232 -3.397,-4.388 -5.241,-6.46 -1.844,-2.073 -3.781,-4.06 -5.806,-5.956 -2.024,-1.896 -4.133,-3.699 -6.321,-5.403 -2.188,-1.703 -4.452,-3.306 -6.785,-4.803 -2.333,-1.497 -4.733,-2.887 -7.192,-4.165 -2.46,-1.278 -4.976,-2.443 -7.541,-3.492 -2.565,-1.048 -5.176,-1.979 -7.825,-2.79 -2.65,-0.81 -5.335,-1.499 -8.047,-2.065 -2.712,-0.565 -5.448,-1.007 -8.2,-1.322 -2.752,-0.316 -5.517,-0.506 -8.286,-0.57 -2.769,-0.064 -5.54,-10e-4 -8.303,0.188 -2.764,0.189 -5.518,0.505 -8.252,0.945 -2.735,0.44 -5.449,1.005 -8.133,1.693 -2.683,0.688 -5.334,1.498 -7.945,2.427 -2.61,0.93 -5.176,1.978 -7.692,3.142 -2.515,1.164 -4.976,2.442 -7.375,3.83 -2.399,1.389 -4.734,2.886 -6.997,4.487 -2.263,1.601 -4.453,3.305 -6.562,5.106 -2.108,1.801 -4.134,3.697 -6.071,5.683 -1.937,1.986 -3.7821,4.059 -5.5307,6.213 -1.7486,2.154 -3.3985,4.387 -4.9446,6.692 -1.546,2.305 -2.9866,4.679 -4.3172,7.115 -1.3307,2.436 -2.55,4.931 -3.6543,7.479 -1.1042,2.547 -2.0922,5.143 -2.9609,7.781 -0.8687,2.637 -1.6171,5.313 -2.2431,8.019 -0.6259,2.705 -1.1286,5.438 -1.5066,8.19 -0.378,2.752 -0.6308,5.519 -0.7578,8.294 -0.1269,2.774 -0.1277,5.553 -0.0025,8.328 0.1252,2.775 0.3763,5.542 0.7526,8.294 0.3763,2.752 0.8774,5.485 1.5016,8.191 0.6243,2.706 1.3711,5.382 2.2382,8.02 0.867,2.638 1.8534,5.235 2.9561,7.783 1.1026,2.548 2.3204,5.045 3.6496,7.482 1.3291,2.437 2.7683,4.811 4.3129,7.117 1.5446,2.306 3.1931,4.54 4.9404,6.695 1.7473,2.155 3.5913,4.229 5.5273,6.216 1.935,1.987 3.96,3.885 6.068,5.687 2.107,1.803 4.296,3.508 6.558,5.11 2.262,1.603 4.596,3.102 6.994,4.491 2.399,1.39 4.859,2.67 7.373,3.835 2.515,1.165 5.081,2.215 7.69,3.147 2.61,0.931 5.26,1.743 7.944,2.432 2.683,0.69 5.396,1.256 8.131,1.698 2.735,0.442 5.488,0.759 8.251,0.95 2.764,0.191 5.534,0.255 8.304,0.193 2.769,-0.062 5.534,-0.25 8.286,-0.564 2.752,-0.314 5.489,-0.754 8.201,-1.318 2.712,-0.564 5.398,-1.251 8.048,-2.06 2.65,-0.808 5.261,-1.738 7.827,-2.785 2.566,-1.047 5.083,-2.21 7.543,-3.487 2.46,-1.277 4.86,-2.665 7.195,-4.16 2.334,-1.496 4.599,-3.097 6.787,-4.8 2.189,-1.702 4.3,-3.503 6.325,-5.398 2.026,-1.895 3.964,-3.881 5.809,-5.952 1.845,-2.072 3.595,-4.227 5.245,-6.458 1.65,-2.231 3.197,-4.537 4.638,-6.909 1.441,-2.372 2.773,-4.809 3.992,-7.303 0,0 -81.931,-40.283 -81.931,-40.283"
         id="path3587"
         inkscape:connector-curvature="0"
         style="fill:#fdae61;stroke:#000000;stroke-width:0.5" />
      <path
         d="m 168,-490 c 0,0 81.931,40.283 81.931,40.283 0.763,-1.561 1.482,-3.143 2.155,-4.745 0.673,-1.601 1.301,-3.222 1.882,-4.859 0.581,-1.638 1.116,-3.292 1.603,-4.96 0.487,-1.668 0.927,-3.35 1.319,-5.043 0.391,-1.693 0.735,-3.397 1.03,-5.11 0.295,-1.713 0.541,-3.434 0.738,-5.16 0.197,-1.727 0.345,-3.459 0.444,-5.195 0.099,-1.735 0.148,-3.473 0.148,-5.211 0,0 -91.25,0 -91.25,0"
         id="path3589"
         inkscape:connector-curvature="0"
         style="fill:#d7191c;stroke:#000000;stroke-width:0.5" />
      <ellipse
         cx="168"
         cy="-490"
         rx="91.25"
         ry="91.5"
         id="ellipse3591"
         d="m 259.25,-490 c 0,50.53405 -40.85402,91.5 -91.25,91.5 -50.39598,0 -91.25,-40.96595 -91.25,-91.5 0,-50.53405 40.85402,-91.5 91.25,-91.5 50.39598,0 91.25,40.96595 91.25,91.5 z"
         sodipodi:cx="168"
         sodipodi:cy="-490"
         sodipodi:rx="91.25"
         sodipodi:ry="91.5"
         style="fill:none;stroke:#000000" />
    </g>
    <!-- 1&#45;&gt;5 -->
    <g
       id="edge5"
       class="edge">
      <title
         id="title3594">1-&gt;5</title>
      <path
         d="m 146.107,-815.025 c -11.878,16.616 -22.872,35.569 -29.107,55.025 -19.2601,60.1 -11.977,80.036 0,142 2.237,11.573 5.522,23.43 9.365,35.026"
         id="path3596"
         inkscape:connector-curvature="0"
         style="fill:none;stroke:#000000;stroke-width:4.16666985" />
      <polygon
         points="129.886,-583.949 129.714,-573.307 122.996,-581.562 129.886,-583.949 "
         id="polygon3598"
         style="fill:#000000;stroke:#000000;stroke-width:4.16666985" />
    </g>
    <!-- 2&#45;&gt;1 -->
    <g
       id="edge6"
       class="edge">
      <title
         id="title3601">2-&gt;1</title>
      <path
         d="m 203.577,-759.347 c 0.142,-8.74 0.197,-17.763 0.164,-26.72"
         id="path3603"
         inkscape:connector-curvature="0"
         style="fill:none;stroke:#000000;stroke-width:4.93333006" />
      <polygon
         points="199.424,-786.102 203.666,-796.134 208.057,-786.166 199.424,-786.102 "
         id="polygon3605"
         style="fill:#000000;stroke:#000000;stroke-width:4.93333006" />
    </g>
    <!-- 2&#45;&gt;2 -->
    <g
       id="edge7"
       class="edge">
      <title
         id="title3608">2-&gt;2</title>
      <path
         d="m 258.682,-722.961 c 15.089,2.516 26.318,13.836 26.318,33.961 0,15.565 -6.717,25.864 -16.743,30.895"
         id="path3610"
         inkscape:connector-curvature="0"
         style="fill:none;stroke:#000000;stroke-width:1.76666999" />
      <polygon
         points="269.273,-654.755 258.682,-655.039 267.138,-661.422 269.273,-654.755 "
         id="polygon3612"
         style="fill:#000000;stroke:#000000;stroke-width:1.76666999" />
    </g>
    <!-- 2&#45;&gt;3 -->
    <g
       id="edge8"
       class="edge">
      <title
         id="title3615">2-&gt;3</title>
      <path
         d="M 133.333,-658.533 C 104.475,-640.508 73.4909,-614.619 58,-582 -4.69502,-449.985 22.5253,-275.232 50.7607,-171.995"
         id="path3617"
         inkscape:connector-curvature="0"
         style="fill:none;stroke:#000000;stroke-width:2.96667004" />
      <polygon
         points="54.1685,-172.804 53.4933,-162.231 47.4275,-170.918 54.1685,-172.804 "
         id="polygon3619"
         style="fill:#000000;stroke:#000000;stroke-width:2.96667004" />
    </g>
    <!-- 2&#45;&gt;4 -->
    <g
       id="edge9"
       class="edge">
      <title
         id="title3622">2-&gt;4</title>
      <path
         d="m 234.878,-629.4 c 9.324,14.731 18.265,31.029 24.122,47.4 24.209,67.664 30.728,149.156 33.021,209.807"
         id="path3624"
         inkscape:connector-curvature="0"
         style="fill:none;stroke:#000000;stroke-width:1.70000005" />
      <polygon
         points="295.529,-371.999 292.379,-361.883 288.534,-371.756 295.529,-371.999 "
         id="polygon3626"
         style="fill:#000000;stroke:#000000;stroke-width:1.70000005" />
    </g>
    <!-- 2&#45;&gt;5 -->
    <g
       id="edge10"
       class="edge">
      <title
         id="title3629">2-&gt;5</title>
      <path
         d="m 180.57,-620.204 c -1.548,9.252 -3.069,18.905 -4.507,28.586"
         id="path3631"
         inkscape:connector-curvature="0"
         style="fill:none;stroke:#000000;stroke-width:1.83333004" />
      <polygon
         points="179.5,-590.928 174.597,-581.536 172.573,-591.935 179.5,-590.928 "
         id="polygon3633"
         style="fill:#000000;stroke:#000000;stroke-width:1.83333004" />
    </g>
    <!-- 3&#45;&gt;2 -->
    <g
       id="edge11"
       class="edge">
      <title
         id="title3636">3-&gt;2</title>
      <path
         d="M 64.9619,-165.754 C 41.6759,-268.068 12.0232,-447.286 76,-582 c 11.7975,-24.842 32.581,-45.78 53.664,-62.315"
         id="path3638"
         inkscape:connector-curvature="0"
         style="fill:none;stroke:#000000;stroke-width:1.93333006" />
      <polygon
         points="127.657,-647.185 137.741,-650.435 131.885,-641.606 127.657,-647.185 "
         id="polygon3640"
         style="fill:#000000;stroke:#000000;stroke-width:1.93333006" />
    </g>
    <!-- 3&#45;&gt;3 -->
    <g
       id="edge12"
       class="edge">
      <title
         id="title3643">3-&gt;3</title>
      <path
         d="m 158.321,-119.593 c 14.99,4.006 25.679,15.87 25.679,35.593 0,15.2542 -6.394,25.8076 -16.227,31.6602"
         id="path3645"
         inkscape:connector-curvature="0"
         style="fill:none;stroke:#000000;stroke-width:2.26666999" />
      <polygon
         points="168.898,-49.0172 158.321,-48.4068 166.209,-55.48 168.898,-49.0172 "
         id="polygon3647"
         style="fill:#000000;stroke:#000000;stroke-width:2.26666999" />
    </g>
    <!-- 3&#45;&gt;4 -->
    <g
       id="edge13"
       class="edge">
      <title
         id="title3650">3-&gt;4</title>
      <path
         d="m 146.655,-138.015 c 27.969,-25.002 60.663,-55.014 88.43,-81.152"
         id="path3652"
         inkscape:connector-curvature="0"
         style="fill:none;stroke:#000000;stroke-width:2.66667008" />
      <polygon
         points="232.729,-221.756 242.404,-226.075 237.534,-216.665 232.729,-221.756 "
         id="polygon3654"
         style="fill:#000000;stroke:#000000;stroke-width:2.66667008" />
    </g>
    <!-- 3&#45;&gt;5 -->
    <g
       id="edge14"
       class="edge">
      <title
         id="title3657">3-&gt;5</title>
      <path
         d="m 100.022,-165.904 c 13.601,-64.646 32.721,-155.52 47.22,-224.434"
         id="path3659"
         inkscape:connector-curvature="0"
         style="fill:none;stroke:#000000;stroke-width:4.56666994" />
      <polygon
         points="143.377,-391.377 149.346,-400.34 151.198,-389.732 143.377,-391.377 "
         id="polygon3661"
         style="fill:#000000;stroke:#000000;stroke-width:4.56666994" />
    </g>
    <!-- 4&#45;&gt;1 -->
    <g
       id="edge15"
       class="edge">
      <title
         id="title3664">4-&gt;1</title>
      <path
         d="M 319.498,-358.763 C 339.744,-455.51 358.032,-627.377 303,-760 c -8.678,-20.912 -22.855,-40.685 -38.09,-57.629"
         id="path3666"
         inkscape:connector-curvature="0"
         style="fill:none;stroke:#000000;stroke-width:4.26667023" />
      <polygon
         points="261.934,-815.346 257.851,-825.208 267.398,-820.434 261.934,-815.346 "
         id="polygon3668"
         style="fill:#000000;stroke:#000000;stroke-width:4.26667023" />
    </g>
    <!-- 4&#45;&gt;2 -->
    <g
       id="edge16"
       class="edge">
      <title
         id="title3671">4-&gt;2</title>
      <path
         d="M 307.015,-361.568 C 308.443,-423.071 302.653,-510.3 277,-582 c -5.926,-16.562 -15.007,-33.049 -24.985,-47.913"
         id="path3673"
         inkscape:connector-curvature="0"
         style="fill:none;stroke:#000000;stroke-width:1.70000005" />
      <polygon
         points="248.9,-628.261 246.053,-638.467 254.643,-632.264 248.9,-628.261 "
         id="polygon3675"
         style="fill:#000000;stroke:#000000;stroke-width:1.70000005" />
    </g>
    <!-- 4&#45;&gt;3 -->
    <g
       id="edge17"
       class="edge">
      <title
         id="title3678">4-&gt;3</title>
      <path
         d="m 236.761,-232.034 c -27.465,24.486 -60.011,54.306 -88.095,80.675"
         id="path3680"
         inkscape:connector-curvature="0"
         style="fill:none;stroke:#000000;stroke-width:2.33332992" />
      <polygon
         points="150.931,-148.685 141.25,-144.379 146.133,-153.782 150.931,-148.685 "
         id="polygon3682"
         style="fill:#000000;stroke:#000000;stroke-width:2.33332992" />
    </g>
    <!-- 4&#45;&gt;4 -->
    <g
       id="edge18"
       class="edge">
      <title
         id="title3685">4-&gt;4</title>
      <path
         d="m 366.897,-319.028 c 15.13,3.522 26.103,15.532 26.103,36.028 0,15.852 -6.564,26.628 -16.539,32.327"
         id="path3687"
         inkscape:connector-curvature="0"
         style="fill:none;stroke:#000000;stroke-width:3.33332992" />
      <polygon
         points="377.486,-247.317 366.897,-246.972 374.96,-253.845 377.486,-247.317 "
         id="polygon3689"
         style="fill:#000000;stroke:#000000;stroke-width:3.33332992" />
    </g>
    <!-- 5&#45;&gt;2 -->
    <g
       id="edge19"
       class="edge">
      <title
         id="title3692">5-&gt;2</title>
      <path
         d="m 187.747,-579.499 c 1.475,-9.613 2.882,-19.354 4.167,-28.852"
         id="path3694"
         inkscape:connector-curvature="0"
         style="fill:none;stroke:#000000;stroke-width:5" />
      <polygon
         points="187.613,-609.203 193.258,-618.545 196.288,-608.059 187.613,-609.203 "
         id="polygon3696"
         style="fill:#000000;stroke:#000000;stroke-width:5" />
    </g>
    <!-- 5&#45;&gt;4 -->
    <g
       id="edge20"
       class="edge">
      <title
         id="title3699">5-&gt;4</title>
      <path
         d="m 216.402,-412.082 c 10.897,17.318 22.45,35.676 33.302,52.921"
         id="path3701"
         inkscape:connector-curvature="0"
         style="fill:none;stroke:#000000;stroke-width:3.33332992" />
      <polygon
         points="252.944,-360.584 255.307,-350.256 247.019,-356.855 252.944,-360.584 "
         id="polygon3703"
         style="fill:#000000;stroke:#000000;stroke-width:3.33332992" />
    </g>
  </g>
</svg>
