<?xml version="1.0" encoding="UTF-8" standalone="no"?>
<!-- Generated by graphviz version 2.36.0 (20140111.2315)
 -->

<!-- Title: G Pages: 1 -->

<svg
   xmlns:dc="http://purl.org/dc/elements/1.1/"
   xmlns:cc="http://creativecommons.org/ns#"
   xmlns:rdf="http://www.w3.org/1999/02/22-rdf-syntax-ns#"
   xmlns:svg="http://www.w3.org/2000/svg"
   xmlns="http://www.w3.org/2000/svg"
   xmlns:sodipodi="http://sodipodi.sourceforge.net/DTD/sodipodi-0.dtd"
   xmlns:inkscape="http://www.inkscape.org/namespaces/inkscape"
   width="1184.0182"
   height="504.16501"
   viewBox="0 0 948.00005 403.33201"
   id="svg5253"
   version="1.1"
   inkscape:version="0.48.4 r9939"
   sodipodi:docname="PuntaBanda-ParCon_5_1.dot.svg">
  <metadata
     id="metadata5453">
    <rdf:RDF>
      <cc:Work
         rdf:about="">
        <dc:format>image/svg+xml</dc:format>
        <dc:type
           rdf:resource="http://purl.org/dc/dcmitype/StillImage" />
      </cc:Work>
    </rdf:RDF>
  </metadata>
  <defs
     id="defs5451" />
  <sodipodi:namedview
     pagecolor="#ffffff"
     bordercolor="#666666"
     borderopacity="1"
     objecttolerance="10"
     gridtolerance="10"
     guidetolerance="10"
     inkscape:pageopacity="0"
     inkscape:pageshadow="2"
     inkscape:window-width="701"
     inkscape:window-height="480"
     id="namedview5449"
     showgrid="false"
     fit-margin-top="0"
     fit-margin-left="0"
     fit-margin-right="0"
     fit-margin-bottom="0"
     inkscape:zoom="0.19748954"
     inkscape:cx="591.87834"
     inkscape:cy="252.10018"
     inkscape:window-x="65"
     inkscape:window-y="24"
     inkscape:window-maximized="0"
     inkscape:current-layer="svg5253" />
  <g
     id="graph0"
     class="graph"
     transform="matrix(0,-1,1,0,948,402.69736)">
    <title
       id="title5256">G</title>
    <!-- 1 -->
    <g
       id="node1"
       class="node">
      <title
         id="title5259">1</title>
      <path
         d="m 146.341,-877 c 0,0 70.25,0 70.25,0 0,-1.673 -0.059,-3.346 -0.178,-5.015 -0.118,-1.669 -0.296,-3.334 -0.533,-4.99 -0.236,-1.656 -0.532,-3.304 -0.885,-4.939 -0.354,-1.635 -0.765,-3.258 -1.233,-4.864 -0.469,-1.605 -0.994,-3.194 -1.575,-4.763 -0.581,-1.568 -1.218,-3.115 -1.909,-4.638 -0.691,-1.523 -1.435,-3.021 -2.232,-4.491 -0.797,-1.469 -1.646,-2.91 -2.545,-4.319 0,0 -59.16,38.019 -59.16,38.019"
         id="path5261"
         inkscape:connector-curvature="0"
         style="fill:#abdda4;stroke:#000000;stroke-width:0.5" />
      <path
         d="m 146.341,-877 c 0,0 59.16,-38.019 59.16,-38.019 -0.904,-1.416 -1.857,-2.799 -2.859,-4.146 -1.002,-1.348 -2.052,-2.659 -3.147,-3.931 -1.096,-1.272 -2.236,-2.504 -3.419,-3.694 -1.183,-1.191 -2.408,-2.338 -3.673,-3.44 -1.265,-1.103 -2.569,-2.159 -3.909,-3.168 -1.34,-1.009 -2.716,-1.969 -4.124,-2.879 -1.409,-0.91 -2.849,-1.769 -4.319,-2.576 -1.47,-0.807 -2.968,-1.561 -4.491,-2.26 -1.524,-0.699 -3.072,-1.343 -4.641,-1.931 -1.569,-0.589 -3.159,-1.12 -4.766,-1.594 -1.608,-0.475 -3.231,-0.891 -4.868,-1.248 -1.637,-0.358 -3.286,-0.657 -4.944,-0.896 -1.658,-0.239 -3.325,-0.419 -4.996,-0.539 -1.67,-0.12 -3.345,-0.179 -5.02,-0.179 -1.676,0 -3.35,0.061 -5.021,0.181 -1.671,0.121 -3.337,0.302 -4.995,0.542 0,0 10.032,69.777 10.032,69.777"
         id="path5263"
         inkscape:connector-curvature="0"
         style="fill:#2b83ba;stroke:#000000;stroke-width:0.5" />
      <path
         d="m 146.341,-877 c 0,0 -10.032,-69.777 -10.032,-69.777 -1.655,0.239 -3.301,0.538 -4.934,0.896 -1.634,0.357 -3.254,0.773 -4.858,1.246 -1.604,0.474 -3.191,1.005 -4.757,1.592 -1.566,0.587 -3.111,1.23 -4.632,1.928 -1.52,0.697 -3.015,1.449 -4.483,2.254 -1.467,0.805 -2.905,1.662 -4.311,2.57 -1.406,0.908 -2.779,1.866 -4.117,2.872 -1.338,1.006 -2.64,2.06 -3.903,3.159 -1.2631,1.099 -2.4867,2.243 -3.6684,3.43 -1.1818,1.187 -2.3209,2.416 -3.4152,3.685 -1.0944,1.268 -2.1433,2.576 -3.1447,3.919 -1.0014,1.344 -1.9547,2.723 -2.858,4.135 -0.9033,1.412 -1.7562,2.856 -2.5569,4.329 -0.8007,1.473 -1.5487,2.974 -2.2426,4.5 -0.694,1.527 -1.3334,3.078 -1.9171,4.65 -0.5837,1.572 -1.1113,3.165 -1.5817,4.775 -0.4704,1.61 -0.8834,3.237 -1.2382,4.877 -0.3548,1.639 -0.6512,3.291 -0.8885,4.952 -0.2374,1.661 -0.4156,3.33 -0.5342,5.003 -0.1187,1.674 -0.1778,3.351 -0.1773,5.029 6e-4,1.678 0.0609,3.356 0.1807,5.029 0.1198,1.674 0.2992,3.342 0.5377,5.003 0.2384,1.661 0.5359,3.313 0.8919,4.952 0.3559,1.639 0.77,3.266 1.2415,4.875 0.4716,1.61 1.0002,3.202 1.585,4.774 0.5848,1.572 1.2253,3.123 1.9203,4.649 0.695,1.526 1.444,3.027 2.2457,4.499 0.8017,1.472 1.6556,2.916 2.5599,4.327 0.9043,1.411 1.8585,2.79 2.8608,4.133 1.0024,1.342 2.0521,2.649 3.1474,3.917 1.0952,1.268 2.2352,2.496 3.4177,3.682 1.1826,1.186 2.4069,2.329 3.6712,3.428 1.263,1.098 2.566,2.151 3.905,3.156 1.338,1.006 2.712,1.963 4.119,2.869 1.407,0.907 2.845,1.763 4.313,2.567 1.468,0.804 2.963,1.555 4.484,2.251 1.521,0.697 3.067,1.339 4.633,1.925 1.567,0.586 3.154,1.116 4.758,1.588 1.605,0.473 3.225,0.887 4.859,1.244 1.634,0.356 3.28,0.654 4.935,0.892 1.655,0.239 3.318,0.418 4.985,0.537 1.668,0.12 3.339,0.179 5.011,0.179 1.672,0 3.344,-0.06 5.011,-0.18 1.668,-0.12 3.331,-0.3 4.986,-0.539 1.655,-0.239 3.3,-0.537 4.934,-0.894 1.634,-0.357 3.254,-0.773 4.858,-1.246 1.605,-0.472 3.191,-1.003 4.758,-1.589 1.566,-0.587 3.111,-1.229 4.632,-1.927 1.521,-0.697 3.016,-1.448 4.484,-2.253 1.467,-0.804 2.905,-1.661 4.312,-2.568 1.406,-0.907 2.78,-1.864 4.118,-2.87 1.339,-1.006 2.641,-2.059 3.904,-3.158 1.264,-1.099 2.488,-2.243 3.67,-3.429 1.182,-1.187 2.321,-2.415 3.416,-3.683 1.095,-1.269 2.144,-2.576 3.146,-3.919 1.002,-1.343 1.956,-2.722 2.86,-4.134 0.903,-1.411 1.757,-2.855 2.558,-4.327 0.801,-1.473 1.55,-2.974 2.244,-4.5 0.695,-1.527 1.335,-3.077 1.919,-4.649 0.584,-1.572 1.112,-3.165 1.583,-4.775 0.471,-1.61 0.885,-3.236 1.24,-4.876 0.356,-1.639 0.652,-3.291 0.89,-4.952 0.238,-1.661 0.417,-3.33 0.536,-5.003 0.12,-1.674 0.179,-3.351 0.179,-5.029 0,0 -70.25,0 -70.25,0"
         id="path5265"
         inkscape:connector-curvature="0"
         style="fill:#fdae61;stroke:#000000;stroke-width:0.5" />
      <ellipse
         cx="146.341"
         cy="-877"
         rx="70.25"
         ry="70.5"
         id="ellipse5267"
         d="m 216.591,-877 c 0,38.93607 -31.45199,70.5 -70.25,70.5 -38.798,0 -70.249997,-31.56393 -70.249997,-70.5 0,-38.93607 31.451997,-70.5 70.249997,-70.5 38.79801,0 70.25,31.56393 70.25,70.5 z"
         sodipodi:cx="146.341"
         sodipodi:cy="-877"
         sodipodi:rx="70.25"
         sodipodi:ry="70.5"
         style="fill:none;stroke:#000000" />
    </g>
    <!-- 1&#45;&gt;1 -->
    <g
       id="edge1"
       class="edge">
      <title
         id="title5270">1-&gt;1</title>
      <path
         d="m 206.392,-914.17 c 15.904,2.124 27.949,14.514 27.949,37.17 0,17.7 -7.352,29.134 -18.152,34.303"
         id="path5272"
         inkscape:connector-curvature="0"
         style="fill:none;stroke:#000000;stroke-width:2.53332996" />
      <polygon
         points="216.972,-839.28 206.392,-839.83 215.006,-845.998 216.972,-839.28 "
         id="polygon5274"
         style="fill:#000000;stroke:#000000;stroke-width:2.53332996" />
    </g>
    <!-- 3 -->
    <g
       id="node3"
       class="node">
      <title
         id="title5277">3</title>
      <path
         d="m 146.341,-677 c 0,0 92.5,0 92.5,0 0,-1.704 -0.046,-3.407 -0.139,-5.108 -0.093,-1.701 -0.233,-3.399 -0.419,-5.092 -0.186,-1.693 -0.418,-3.381 -0.696,-5.062 -0.278,-1.68 -0.602,-3.353 -0.971,-5.015 -0.37,-1.663 -0.784,-3.315 -1.244,-4.955 -0.46,-1.639 -0.964,-3.266 -1.513,-4.878 -0.548,-1.612 -1.141,-3.208 -1.777,-4.787 -0.636,-1.579 -1.314,-3.14 -2.036,-4.682 -0.721,-1.541 -1.484,-3.063 -2.288,-4.562 -0.804,-1.5 -1.649,-2.977 -2.534,-4.429 -0.885,-1.453 -1.81,-2.881 -2.773,-4.283 -0.962,-1.402 -1.964,-2.777 -3.002,-4.123 -1.038,-1.346 -2.112,-2.664 -3.222,-3.951 -1.11,-1.287 -2.256,-2.543 -3.434,-3.767 -1.179,-1.224 -2.391,-2.415 -3.635,-3.572 -1.243,-1.157 -2.518,-2.279 -3.824,-3.366 0,0 -58.993,71.632 -58.993,71.632"
         id="path5279"
         inkscape:connector-curvature="0"
         style="fill:#abdda4;stroke:#000000;stroke-width:0.5" />
      <path
         d="m 146.341,-677 c 0,0 58.993,-71.632 58.993,-71.632 -2.299,-1.913 -4.688,-3.714 -7.16,-5.396 -2.473,-1.681 -5.024,-3.242 -7.646,-4.675 -2.623,-1.434 -5.312,-2.739 -8.06,-3.911 -2.748,-1.172 -5.55,-2.209 -8.398,-3.109 -2.847,-0.9 -5.736,-1.66 -8.657,-2.279 -2.921,-0.619 -5.869,-1.095 -8.836,-1.427 -2.966,-0.332 -5.947,-0.519 -8.932,-0.562 -2.984,-0.042 -5.969,0.061 -8.943,0.309 -2.975,0.248 -5.936,0.64 -8.873,1.176 -2.937,0.535 -5.846,1.214 -8.717,2.032 -2.872,0.819 -5.703,1.776 -8.482,2.87 -2.78,1.094 -5.505,2.322 -8.166,3.681 -2.662,1.358 -5.2559,2.846 -7.7743,4.456 -2.5183,1.611 -4.9576,3.344 -7.3094,5.192 -2.3517,1.848 -4.6131,3.809 -6.7762,5.877 -2.1631,2.067 -4.2254,4.239 -6.1796,6.507 0,0 69.9165,60.891 69.9165,60.891"
         id="path5281"
         inkscape:connector-curvature="0"
         style="fill:#2b83ba;stroke:#000000;stroke-width:0.5" />
      <path
         d="m 146.341,-677 c 0,0 -69.9165,-60.891 -69.9165,-60.891 -1.6652,1.933 -3.2505,3.934 -4.7517,5.998 -1.5012,2.065 -2.917,4.19 -4.244,6.372 -1.3269,2.181 -2.5638,4.417 -3.7075,6.701 -1.1437,2.284 -2.1933,4.614 -3.1459,6.985 0,0 85.7656,34.835 85.7656,34.835"
         id="path5283"
         inkscape:connector-curvature="0"
         style="fill:#fdae61;stroke:#000000;stroke-width:0.5" />
      <path
         d="m 146.341,-677 c 0,0 -85.7656,-34.835 -85.7656,-34.835 -0.6363,1.583 -1.229,3.184 -1.7776,4.8 -0.5486,1.617 -1.0527,3.248 -1.512,4.892 -0.4592,1.644 -0.8733,3.301 -1.2418,4.968 -0.3685,1.667 -0.6912,3.344 -0.9678,5.029 -0.2767,1.685 -0.5071,3.377 -0.691,5.075 -0.184,1.698 -0.3214,3.4 -0.412,5.106 -0.0907,1.705 -0.1347,3.413 -0.1318,5.12 0.0028,1.708 0.0524,3.416 0.1488,5.121 0.0963,1.705 0.2394,3.407 0.429,5.104 0.1895,1.697 0.4256,3.388 0.7078,5.072 0.2822,1.685 0.6106,3.36 0.9846,5.026 0.374,1.666 0.7936,3.321 1.2583,4.964 0.4647,1.643 0.9743,3.272 1.5282,4.887 0.554,1.614 1.152,3.213 1.7935,4.794 0.6415,1.581 1.3262,3.145 2.0534,4.688 0.7271,1.543 1.4964,3.066 2.3069,4.567 0.8106,1.501 1.6621,2.979 2.5536,4.433 0.8915,1.453 1.8227,2.882 2.7924,4.284 0.9698,1.402 1.9778,2.777 3.0228,4.124 1.0451,1.346 2.1269,2.663 3.2441,3.949 1.1172,1.287 2.2694,2.542 3.4554,3.765 1.186,1.222 2.4052,2.412 3.6563,3.567 1.2511,1.155 2.5337,2.275 3.8461,3.359 1.3125,1.084 2.6544,2.132 4.0243,3.142 1.3698,1.009 2.7671,1.981 4.1902,2.914 1.423,0.932 2.8714,1.825 4.3429,2.677 1.472,0.852 2.968,1.664 4.484,2.433 1.516,0.77 3.054,1.497 4.61,2.181 1.556,0.685 3.131,1.326 4.722,1.923 1.592,0.597 3.199,1.15 4.821,1.658 1.621,0.508 3.257,0.972 4.904,1.389 1.647,0.418 3.305,0.79 4.972,1.116 1.668,0.325 3.344,0.605 5.026,0.838 1.683,0.233 3.372,0.42 5.065,0.559 1.693,0.14 3.389,0.232 5.087,0.278 1.698,0.045 3.397,0.044 5.095,-0.004 1.698,-0.049 3.394,-0.144 5.087,-0.287 1.692,-0.142 3.381,-0.331 5.063,-0.567 1.683,-0.236 3.358,-0.518 5.025,-0.847 1.667,-0.329 3.324,-0.703 4.971,-1.124 1.646,-0.42 3.281,-0.886 4.901,-1.397 1.621,-0.511 3.228,-1.067 4.818,-1.667 1.59,-0.599 3.164,-1.243 4.719,-1.93 1.555,-0.687 3.091,-1.417 4.606,-2.189 1.516,-0.772 3.009,-1.586 4.48,-2.441 1.47,-0.854 2.917,-1.75 4.339,-2.684 1.421,-0.935 2.817,-1.909 4.185,-2.921 1.368,-1.012 2.708,-2.062 4.019,-3.148 1.311,-1.087 2.591,-2.209 3.841,-3.366 1.249,-1.158 2.466,-2.349 3.65,-3.574 1.184,-1.224 2.334,-2.482 3.449,-3.77 1.115,-1.288 2.195,-2.607 3.238,-3.955 1.043,-1.348 2.048,-2.725 3.016,-4.128 0.967,-1.404 1.896,-2.834 2.785,-4.29 0.889,-1.455 1.738,-2.934 2.546,-4.436 0.808,-1.503 1.575,-3.027 2.3,-4.572 0.724,-1.544 1.406,-3.109 2.045,-4.691 0.639,-1.582 1.234,-3.182 1.786,-4.797 0.551,-1.616 1.058,-3.246 1.52,-4.889 0.462,-1.644 0.879,-3.3 1.25,-4.966 0.371,-1.667 0.697,-3.343 0.976,-5.028 0.279,-1.684 0.513,-3.376 0.699,-5.074 0.187,-1.697 0.327,-3.399 0.421,-5.105 0.093,-1.705 0.14,-3.412 0.14,-5.12 0,0 -92.5,0 -92.5,0"
         id="path5285"
         inkscape:connector-curvature="0"
         style="fill:#d7191c;stroke:#000000;stroke-width:0.5" />
      <ellipse
         cx="146.341"
         cy="-677"
         rx="92.5"
         ry="93"
         id="ellipse5287"
         d="m 238.841,-677 c 0,51.36248 -41.41366,93 -92.5,93 -51.086336,0 -92.499997,-41.63752 -92.499997,-93 0,-51.36248 41.413661,-93 92.499997,-93 51.08634,0 92.5,41.63752 92.5,93 z"
         sodipodi:cx="146.341"
         sodipodi:cy="-677"
         sodipodi:rx="92.5"
         sodipodi:ry="93"
         style="fill:none;stroke:#000000" />
    </g>
    <!-- 1&#45;&gt;3 -->
    <g
       id="edge2"
       class="edge">
      <title
         id="title5290">1-&gt;3</title>
      <path
         d="m 139.87,-806.749 c -0.167,8.669 -0.259,17.675 -0.276,26.714"
         id="path5292"
         inkscape:connector-curvature="0"
         style="fill:none;stroke:#000000;stroke-width:2.03332996" />
      <polygon
         points="143.094,-779.836 139.607,-769.832 136.094,-779.827 143.094,-779.836 "
         id="polygon5294"
         style="fill:#000000;stroke:#000000;stroke-width:2.03332996" />
    </g>
    <!-- 4 -->
    <g
       id="node4"
       class="node">
      <title
         id="title5297">4</title>
      <path
         d="m 136.341,-82 c 0,0 81.25,0 81.25,0 0,-1.9343 -0.068,-3.8679 -0.206,-5.7973 -0.137,-1.9294 -0.342,-3.8532 -0.616,-5.7679 -0.274,-1.9147 -0.615,-3.819 -1.024,-5.7093 -0.409,-1.8905 -0.884,-3.7655 -1.426,-5.6215 0,0 -77.978,22.896 -77.978,22.896"
         id="path5299"
         inkscape:connector-curvature="0"
         style="fill:#fdae61;stroke:#000000;stroke-width:0.5" />
      <path
         d="m 136.341,-82 c 0,0 77.978,-22.896 77.978,-22.896 -0.713,-2.444 -1.54,-4.854 -2.479,-7.22 -0.938,-2.367 -1.986,-4.688 -3.141,-6.955 -1.155,-2.268 -2.415,-4.481 -3.776,-6.63 -1.361,-2.15 -2.823,-4.234 -4.379,-6.247 -1.555,-2.012 -3.205,-3.95 -4.941,-5.808 -1.737,-1.857 -3.56,-3.632 -5.463,-5.318 -1.902,-1.687 -3.883,-3.282 -5.934,-4.783 -2.052,-1.5 -4.172,-2.903 -6.355,-4.204 -2.182,-1.301 -4.424,-2.499 -6.719,-3.589 -2.294,-1.091 -4.638,-2.073 -7.024,-2.943 -2.386,-0.87 -4.811,-1.628 -7.268,-2.271 -2.457,-0.642 -4.942,-1.169 -7.448,-1.578 -2.506,-0.409 -5.03,-0.7 -7.563,-0.872 -2.533,-0.172 -5.072,-0.225 -7.61,-0.158 -2.538,0.066 -5.072,0.252 -7.592,0.557 -2.521,0.304 -5.026,0.727 -7.507,1.267 -2.481,0.54 -4.936,1.196 -7.356,1.966 -2.42,0.77 -4.803,1.654 -7.14,2.648 -2.337,0.994 -4.627,2.098 -6.8614,3.307 -2.2345,1.209 -4.4111,2.523 -6.5229,3.936 -2.1118,1.414 -4.1564,2.926 -6.127,4.532 -1.9706,1.606 -3.8651,3.303 -5.6773,5.087 -1.8122,1.783 -3.54,3.651 -5.1778,5.597 -1.6378,1.946 -3.1837,3.968 -4.6328,6.059 -1.449,2.091 -2.7996,4.249 -4.0472,6.467 -1.2475,2.218 -2.3908,4.494 -3.426,6.819 -1.0351,2.325 -1.9611,4.698 -2.7747,7.11 -0.8137,2.413 -1.5142,4.862 -2.0992,7.34 -0.585,2.4784 -1.0539,4.9827 -1.4052,7.5048 -0.3512,2.5222 -0.5844,5.0595 -0.6988,7.6036 -0.1144,2.5441 -0.1098,5.0921 0.0137,7.6358 0.1235,2.5437 0.3658,5.0801 0.726,7.601 0.3603,2.5209 0.8382,5.0235 1.4321,7.4995 0.5939,2.476 1.3031,4.9227 2.1255,7.3321 0.8223,2.4094 1.7567,4.7788 2.8002,7.1004 1.0435,2.3217 2.1949,4.5929 3.4504,6.8064 1.2555,2.2135 2.6138,4.3667 4.0703,6.4526 1.4566,2.0859 3.0098,4.1022 4.6545,6.0422 1.6448,1.94 3.3793,3.8016 5.1978,5.5787 1.8185,1.7771 3.7191,3.4677 5.6955,5.0663 1.9764,1.5985 4.0263,3.1033 6.1432,4.5093 2.1168,1.4061 4.2982,2.7118 6.5369,3.9129 2.2392,1.20116 4.5322,2.29637 6.8732,3.28207 2.341,0.9857 4.727,1.86079 7.15,2.6224 2.422,0.76161 4.879,1.4089 7.362,1.93973 2.483,0.53084 4.99,0.94464 7.512,1.24005 2.521,0.2954 5.055,0.472082 7.594,0.529461 2.538,0.057379 5.077,-0.004609 7.61,-0.18576 2.532,-0.18115 5.055,-0.481261 7.559,-0.899351 2.505,-0.41809 4.988,-0.9537 7.442,-1.60506 2.455,-0.65136 4.877,-1.41775 7.26,-2.29666 2.383,-0.87891 4.724,-1.86937 7.014,-2.96812 2.29,-1.09874 4.528,-2.30456 6.706,-3.61346 2.178,-1.309 4.293,-2.7196 6.34,-4.2272 2.046,-1.5077 4.02,-3.1107 5.917,-4.8038 1.896,-1.6931 3.713,-3.4744 5.443,-5.3382 1.73,-1.8637 3.372,-3.8077 4.921,-5.8257 1.549,-2.0179 3.002,-4.1076 4.356,-6.2621 1.354,-2.1545 2.606,-4.3714 3.753,-6.6435 1.146,-2.2721 2.186,-4.5969 3.116,-6.9667 0.93,-2.3698 1.748,-4.782 2.453,-7.2286 0.704,-2.4467 1.294,-4.9251 1.767,-7.4272 0.473,-2.5021 0.829,-5.025 1.067,-7.5605 0.237,-2.5355 0.356,-5.0807 0.356,-7.6274 0,0 -81.25,0 -81.25,0"
         id="path5301"
         inkscape:connector-curvature="0"
         style="fill:#d7191c;stroke:#000000;stroke-width:0.5" />
      <ellipse
         cx="136.341"
         cy="-82"
         rx="81.25"
         ry="81.5"
         id="ellipse5303"
         d="m 217.591,-82 c 0,45.011207 -36.37686,81.5 -81.25,81.5 -44.873133,0 -81.249997,-36.488793 -81.249997,-81.5 0,-45.01121 36.376864,-81.5 81.249997,-81.5 44.87314,0 81.25,36.48879 81.25,81.5 z"
         sodipodi:cx="136.341"
         sodipodi:cy="-82"
         sodipodi:rx="81.25"
         sodipodi:ry="81.5"
         style="fill:none;stroke:#000000" />
    </g>
    <!-- 1&#45;&gt;4 -->
    <g
       id="edge3"
       class="edge">
      <title
         id="title5306">1-&gt;4</title>
      <path
         d="m 87.4518,-838.054 c -20.7451,18.129 -41.4667,41.642 -52.1106,68.054 -83.403,206.958 2.2804,474.533 59.2824,606.337"
         id="path5308"
         inkscape:connector-curvature="0"
         style="fill:none;stroke:#000000;stroke-width:2.26666999" />
      <polygon
         points="97.8701,-164.975 98.6755,-154.411 91.4579,-162.167 97.8701,-164.975 "
         id="polygon5310"
         style="fill:#000000;stroke:#000000;stroke-width:2.26666999" />
    </g>
    <!-- 5 -->
    <g
       id="node5"
       class="node">
      <title
         id="title5313">5</title>
      <ellipse
         cx="321.341"
         cy="-466"
         rx="81.25"
         ry="81.5"
         id="ellipse5315"
         d="m 402.591,-466 c 0,45.01121 -36.37686,81.5 -81.25,81.5 -44.87313,0 -81.25,-36.48879 -81.25,-81.5 0,-45.01121 36.37687,-81.5 81.25,-81.5 44.87314,0 81.25,36.48879 81.25,81.5 z"
         sodipodi:cx="321.341"
         sodipodi:cy="-466"
         sodipodi:rx="81.25"
         sodipodi:ry="81.5"
         style="fill:#fdae61;stroke:#000000" />
    </g>
    <!-- 1&#45;&gt;5 -->
    <g
       id="edge4"
       class="edge">
      <title
         id="title5318">1-&gt;5</title>
      <path
         d="m 207.944,-842.511 c 26.952,17.903 56.276,42.482 73.397,72.511 36.722,64.404 45.274,148.765 45.468,212.113"
         id="path5320"
         inkscape:connector-curvature="0"
         style="fill:none;stroke:#000000;stroke-width:3.4000001" />
      <polygon
         points="330.307,-557.495 326.767,-547.509 323.307,-557.523 330.307,-557.495 "
         id="polygon5322"
         style="fill:#000000;stroke:#000000;stroke-width:3.4000001" />
    </g>
    <!-- 2 -->
    <g
       id="node2"
       class="node">
      <title
         id="title5325">2</title>
      <path
         d="m 192.341,-274 c 0,0 74,0 74,0 0,-1.615 -0.053,-3.229 -0.158,-4.84 -0.106,-1.611 -0.264,-3.218 -0.475,-4.819 -0.211,-1.601 -0.474,-3.194 -0.789,-4.778 -0.315,-1.583 -0.681,-3.156 -1.099,-4.716 -0.418,-1.559 -0.887,-3.105 -1.406,-4.634 -0.519,-1.528 -1.088,-3.04 -1.706,-4.532 -0.618,-1.491 -1.284,-2.962 -1.998,-4.41 -0.714,-1.448 -1.476,-2.873 -2.283,-4.271 0,0 -64.086,37 -64.086,37"
         id="path5327"
         inkscape:connector-curvature="0"
         style="fill:#abdda4;stroke:#000000;stroke-width:0.5" />
      <path
         d="m 192.341,-274 c 0,0 64.086,-37 64.086,-37 -1.009,-1.748 -2.089,-3.454 -3.238,-5.113 -1.149,-1.66 -2.365,-3.272 -3.645,-4.832 -1.28,-1.56 -2.624,-3.067 -4.028,-4.518 -1.403,-1.45 -2.866,-2.842 -4.383,-4.173 -1.518,-1.331 -3.089,-2.599 -4.71,-3.801 -1.621,-1.203 -3.291,-2.338 -5.005,-3.404 -1.714,-1.066 -3.471,-2.061 -5.266,-2.983 -1.795,-0.922 -3.628,-1.771 -5.492,-2.543 -1.865,-0.772 -3.76,-1.468 -5.682,-2.086 -1.922,-0.617 -3.868,-1.156 -5.833,-1.614 -1.966,-0.458 -3.949,-0.836 -5.946,-1.132 -1.996,-0.296 -4.004,-0.511 -6.018,-0.643 -2.014,-0.132 -4.032,-0.181 -6.051,-0.148 -2.018,0.033 -4.033,0.149 -6.042,0.346 -2.009,0.198 -4.008,0.478 -5.994,0.839 -1.986,0.362 -3.956,0.804 -5.905,1.326 -1.95,0.523 -3.877,1.125 -5.778,1.805 -1.9,0.68 -3.772,1.437 -5.61,2.27 -1.839,0.833 -3.642,1.741 -5.406,2.721 -1.764,0.981 -3.488,2.033 -5.166,3.154 -1.678,1.122 -3.31,2.311 -4.891,3.566 -1.581,1.254 -3.11,2.573 -4.583,3.953 -1.473,1.38 -2.889,2.819 -4.244,4.315 -1.356,1.495 -2.649,3.045 -3.878,4.647 -1.229,1.601 -2.391,3.252 -3.485,4.948 -1.094,1.696 -2.118,3.437 -3.069,5.217 -0.951,1.78 -1.83,3.598 -2.632,5.45 -0.803,1.851 -1.53,3.735 -2.179,5.646 -0.648,1.912 -1.219,3.849 -1.709,5.806 -0.49,1.958 -0.901,3.935 -1.229,5.927 -0.329,1.991 -0.576,3.995 -0.741,6.007 -0.165,2.011 -0.248,4.029 -0.248,6.047 0,0 74,0 74,0"
         id="path5329"
         inkscape:connector-curvature="0"
         style="fill:#2b83ba;stroke:#000000;stroke-width:0.5" />
      <path
         d="m 192.341,-274 c 0,0 -74,0 -74,0 0,2.153 0.094,4.305 0.282,6.45 0.187,2.144 0.469,4.28 0.842,6.4 0.374,2.12 0.84,4.223 1.398,6.303 0.557,2.079 1.205,4.133 1.941,6.156 0.736,2.024 1.561,4.014 2.47,5.965 0.91,1.951 1.905,3.862 2.981,5.726 1.077,1.864 2.234,3.681 3.469,5.445 1.235,1.763 2.546,3.472 3.93,5.121 1.384,1.65 2.839,3.238 4.361,4.76 1.523,1.522 3.111,2.977 4.76,4.361 1.649,1.384 3.358,2.695 5.122,3.93 1.763,1.235 3.58,2.392 5.444,3.469 1.865,1.076 3.775,2.071 5.726,2.981 1.952,0.91 3.942,1.734 5.965,2.47 2.023,0.737 4.077,1.384 6.157,1.942 2.079,0.557 4.182,1.023 6.302,1.397 2.12,0.374 4.256,0.655 6.401,0.842 2.144,0.188 4.296,0.282 6.449,0.282 2.153,0 4.305,-0.094 6.45,-0.282 2.144,-0.187 4.28,-0.468 6.4,-0.842 2.12,-0.374 4.223,-0.84 6.303,-1.397 2.079,-0.558 4.134,-1.205 6.157,-1.942 2.023,-0.736 4.013,-1.56 5.964,-2.47 1.951,-0.91 3.862,-1.905 5.726,-2.981 1.865,-1.077 3.681,-2.234 5.445,-3.469 1.763,-1.235 3.472,-2.546 5.122,-3.93 1.649,-1.384 3.237,-2.839 4.759,-4.361 1.522,-1.522 2.978,-3.11 4.362,-4.76 1.383,-1.649 2.695,-3.358 3.929,-5.121 1.235,-1.764 2.393,-3.581 3.469,-5.445 1.077,-1.864 2.071,-3.775 2.981,-5.726 0.91,-1.951 1.734,-3.941 2.47,-5.965 0,0 -69.537,-25.309 -69.537,-25.309"
         id="path5331"
         inkscape:connector-curvature="0"
         style="fill:#fdae61;stroke:#000000;stroke-width:0.5" />
      <path
         d="m 192.341,-274 c 0,0 69.537,25.309 69.537,25.309 0.737,-2.023 1.385,-4.077 1.942,-6.156 0.557,-2.08 1.023,-4.183 1.397,-6.303 0.374,-2.12 0.655,-4.256 0.843,-6.4 0.187,-2.145 0.281,-4.297 0.281,-6.45 0,0 -74,0 -74,0"
         id="path5333"
         inkscape:connector-curvature="0"
         style="fill:#d7191c;stroke:#000000;stroke-width:0.5" />
      <ellipse
         cx="192.341"
         cy="-274"
         rx="74"
         ry="74"
         id="ellipse5335"
         d="m 266.341,-274 c 0,40.86907 -33.13093,74 -74,74 -40.86907,0 -74,-33.13093 -74,-74 0,-40.86907 33.13093,-74 74,-74 40.86907,0 74,33.13093 74,74 z"
         sodipodi:cx="192.341"
         sodipodi:cy="-274"
         sodipodi:rx="74"
         sodipodi:ry="74"
         style="fill:none;stroke:#000000" />
    </g>
    <!-- 2&#45;&gt;1 -->
    <g
       id="edge5"
       class="edge">
      <title
         id="title5338">2-&gt;1</title>
      <path
         d="m 196.492,-348.121 c 4.599,-55.719 14.162,-133.843 33.849,-199.879 5.056,-16.957 13.129,-18.735 17,-36 18.088,-80.664 30.711,-109.25 0,-186 -8.353,-20.875 -22.991,-39.979 -38.574,-56.044"
         id="path5340"
         inkscape:connector-curvature="0"
         style="fill:none;stroke:#000000;stroke-width:3.56666994" />
      <polygon
         points="206.185,-823.675 201.559,-833.207 211.12,-828.64 206.185,-823.675 "
         id="polygon5342"
         style="fill:#000000;stroke:#000000;stroke-width:3.56666994" />
    </g>
    <!-- 2&#45;&gt;2 -->
    <g
       id="edge6"
       class="edge">
      <title
         id="title5345">2-&gt;2</title>
      <path
         d="m 257.668,-309.288 c 15.349,2.9 26.673,14.663 26.673,35.288 0,15.952 -6.774,26.603 -16.945,31.952"
         id="path5347"
         inkscape:connector-curvature="0"
         style="fill:none;stroke:#000000;stroke-width:3.53332996" />
      <polygon
         points="268.262,-238.645 257.668,-238.712 265.992,-245.267 268.262,-238.645 "
         id="polygon5349"
         style="fill:#000000;stroke:#000000;stroke-width:3.53332996" />
    </g>
    <!-- 2&#45;&gt;3 -->
    <g
       id="edge7"
       class="edge">
      <title
         id="title5352">2-&gt;3</title>
      <path
         d="m 189.296,-348.236 c -5.65,-63.479 -16.061,-155.969 -25.388,-226.526"
         id="path5354"
         inkscape:connector-curvature="0"
         style="fill:none;stroke:#000000;stroke-width:1.86667001" />
      <polygon
         points="160.394,-574.632 162.54,-585.007 167.333,-575.558 160.394,-574.632 "
         id="polygon5356"
         style="fill:#000000;stroke:#000000;stroke-width:1.86667001" />
    </g>
    <!-- 2&#45;&gt;4 -->
    <g
       id="edge8"
       class="edge">
      <title
         id="title5359">2-&gt;4</title>
      <path
         d="m 165.695,-204.674 c -3.352,10.697 -6.726,21.885 -9.943,32.959"
         id="path5361"
         inkscape:connector-curvature="0"
         style="fill:none;stroke:#000000;stroke-width:1.93333006" />
      <polygon
         points="159.094,-170.673 152.969,-162.028 152.366,-172.606 159.094,-170.673 "
         id="polygon5363"
         style="fill:#000000;stroke:#000000;stroke-width:1.93333006" />
    </g>
    <!-- 2&#45;&gt;5 -->
    <g
       id="edge9"
       class="edge">
      <title
         id="title5366">2-&gt;5</title>
      <path
         d="m 237.648,-332.512 c 12.016,-17.007 24.992,-35.923 37.073,-54.015"
         id="path5368"
         inkscape:connector-curvature="0"
         style="fill:none;stroke:#000000;stroke-width:2.73333001" />
      <polygon
         points="272.121,-388.939 280.571,-395.33 277.951,-385.064 272.121,-388.939 "
         id="polygon5370"
         style="fill:#000000;stroke:#000000;stroke-width:2.73333001" />
    </g>
    <!-- 3&#45;&gt;1 -->
    <g
       id="edge10"
       class="edge">
      <title
         id="title5373">3-&gt;1</title>
      <path
         d="m 153.075,-769.832 c 0.04,-8.924 0.006,-17.927 -0.102,-26.716"
         id="path5375"
         inkscape:connector-curvature="0"
         style="fill:none;stroke:#000000;stroke-width:3.33332992" />
      <polygon
         points="149.47,-796.695 152.813,-806.749 156.469,-796.805 149.47,-796.695 "
         id="polygon5377"
         style="fill:#000000;stroke:#000000;stroke-width:3.33332992" />
    </g>
    <!-- 3&#45;&gt;2 -->
    <g
       id="edge11"
       class="edge">
      <title
         id="title5380">3-&gt;2</title>
      <path
         d="m 151.114,-584.002 c 6.498,68.51 17.204,161.208 26.274,227.156"
         id="path5382"
         inkscape:connector-curvature="0"
         style="fill:none;stroke:#000000;stroke-width:1.76666999" />
      <polygon
         points="180.859,-357.296 178.771,-346.909 173.926,-356.331 180.859,-357.296 "
         id="polygon5384"
         style="fill:#000000;stroke:#000000;stroke-width:1.76666999" />
    </g>
    <!-- 3&#45;&gt;4 -->
    <g
       id="edge12"
       class="edge">
      <title
         id="title5387">3-&gt;4</title>
      <path
         d="m 122.594,-586.773 c -18.302,95.784 -37.5645,252.327 -22.253,386.773 1.171,10.281 2.903,20.974 5,31.532"
         id="path5389"
         inkscape:connector-curvature="0"
         style="fill:none;stroke:#000000;stroke-width:1.66666996" />
      <polygon
         points="108.824,-168.91 107.457,-158.404 101.974,-167.47 108.824,-168.91 "
         id="polygon5391"
         style="fill:#000000;stroke:#000000;stroke-width:1.66666996" />
    </g>
    <!-- 3&#45;&gt;5 -->
    <g
       id="edge13"
       class="edge">
      <title
         id="title5394">3-&gt;5</title>
      <path
         d="m 205.588,-605.242 c 18.539,22.14 38.972,46.543 57.445,68.606"
         id="path5396"
         inkscape:connector-curvature="0"
         style="fill:none;stroke:#000000;stroke-width:3.73333001" />
      <polygon
         points="265.743,-538.852 269.479,-528.938 260.376,-534.358 265.743,-538.852 "
         id="polygon5398"
         style="fill:#000000;stroke:#000000;stroke-width:3.73333001" />
    </g>
    <!-- 4&#45;&gt;1 -->
    <g
       id="edge14"
       class="edge">
      <title
         id="title5401">4-&gt;1</title>
      <path
         d="M 107.753,-158.51 C 57.9156,-288.385 -31.1639,-560.307 53.3412,-770 c 7.6007,-18.861 20.3403,-36.243 34.0162,-51.242"
         id="path5403"
         inkscape:connector-curvature="0"
         style="fill:none;stroke:#000000;stroke-width:4.80000019" />
      <polygon
         points="84.6473,-824.489 94.572,-828.864 90.7476,-818.714 84.6473,-824.489 "
         id="polygon5405"
         style="fill:#000000;stroke:#000000;stroke-width:4.80000019" />
    </g>
    <!-- 4&#45;&gt;2 -->
    <g
       id="edge15"
       class="edge">
      <title
         id="title5408">4-&gt;2</title>
      <path
         d="m 165.154,-158.299 c 3.388,-10.994 6.759,-22.357 9.93,-33.463"
         id="path5410"
         inkscape:connector-curvature="0"
         style="fill:none;stroke:#000000;stroke-width:3.83332992" />
      <polygon
         points="171.73,-192.766 177.814,-201.44 178.468,-190.865 171.73,-192.766 "
         id="polygon5412"
         style="fill:#000000;stroke:#000000;stroke-width:3.83332992" />
    </g>
    <!-- 4&#45;&gt;3 -->
    <g
       id="edge16"
       class="edge">
      <title
         id="title5415">4-&gt;3</title>
      <path
         d="m 124.283,-162.828 c -2.403,-12.367 -4.562,-25.055 -5.942,-37.172 -14.675,-128.856 2.409,-278.01 15.859,-374.517"
         id="path5417"
         inkscape:connector-curvature="0"
         style="fill:none;stroke:#000000;stroke-width:1.66666996" />
      <polygon
         points="130.754,-575.147 135.612,-584.562 137.686,-574.172 130.754,-575.147 "
         id="polygon5419"
         style="fill:#000000;stroke:#000000;stroke-width:1.66666996" />
    </g>
    <!-- 4&#45;&gt;4 -->
    <g
       id="edge17"
       class="edge">
      <title
         id="title5422">4-&gt;4</title>
      <path
         d="m 210.17,-116.515 c 14.694,3.885 25.171,15.39 25.171,34.515 0,14.792 -6.268,25.0256 -15.906,30.7008"
         id="path5424"
         inkscape:connector-curvature="0"
         style="fill:none;stroke:#000000;stroke-width:2.29999995" />
      <polygon
         points="220.75,-48.0555 210.17,-47.4854 218.085,-54.5285 220.75,-48.0555 "
         id="polygon5426"
         style="fill:#000000;stroke:#000000;stroke-width:2.29999995" />
    </g>
    <!-- 4&#45;&gt;5 -->
    <g
       id="edge18"
       class="edge">
      <title
         id="title5429">4-&gt;5</title>
      <path
         d="m 210.682,-115.508 c 33.911,-19.733 70.963,-48.162 91.659,-84.492 30.118,-52.87 36.68,-121.362 34.72,-175.469"
         id="path5431"
         inkscape:connector-curvature="0"
         style="fill:none;stroke:#000000;stroke-width:5" />
      <polygon
         points="332.677,-375.549 336.58,-385.743 341.418,-375.959 332.677,-375.549 "
         id="polygon5433"
         style="fill:#000000;stroke:#000000;stroke-width:5" />
    </g>
    <!-- 5&#45;&gt;2 -->
    <g
       id="edge19"
       class="edge">
      <title
         id="title5436">5-&gt;2</title>
      <path
         d="m 271.612,-401.204 c -12.147,17.325 -25.021,36.207 -36.797,53.963"
         id="path5438"
         inkscape:connector-curvature="0"
         style="fill:none;stroke:#000000;stroke-width:1.70000005" />
      <polygon
         points="237.559,-345.046 229.129,-338.627 231.717,-348.901 237.559,-345.046 "
         id="polygon5440"
         style="fill:#000000;stroke:#000000;stroke-width:1.70000005" />
    </g>
    <!-- 5&#45;&gt;4 -->
    <g
       id="edge20"
       class="edge">
      <title
         id="title5443">5-&gt;4</title>
      <path
         d="m 321.529,-384.253 c 0.142,55.317 -5.415,128.478 -37.188,184.253 -16.397,28.785 -43.062,52.609 -69.304,71.078"
         id="path5445"
         inkscape:connector-curvature="0"
         style="fill:none;stroke:#000000;stroke-width:4" />
      <polygon
         points="216.775,-125.87 206.545,-123.114 212.823,-131.648 216.775,-125.87 "
         id="polygon5447"
         style="fill:#000000;stroke:#000000;stroke-width:4" />
    </g>
  </g>
</svg>
