<?xml version="1.0" encoding="UTF-8" standalone="no"?>
<!-- Generated by graphviz version 2.36.0 (20140111.2315)
 -->

<!-- Title: G Pages: 1 -->

<svg
   xmlns:dc="http://purl.org/dc/elements/1.1/"
   xmlns:cc="http://creativecommons.org/ns#"
   xmlns:rdf="http://www.w3.org/1999/02/22-rdf-syntax-ns#"
   xmlns:svg="http://www.w3.org/2000/svg"
   xmlns="http://www.w3.org/2000/svg"
   xmlns:sodipodi="http://sodipodi.sourceforge.net/DTD/sodipodi-0.dtd"
   xmlns:inkscape="http://www.inkscape.org/namespaces/inkscape"
   width="3166.9614"
   height="1388.7769"
   viewBox="0 0 2534.4999 1111.0215"
   id="svg5455"
   version="1.1"
   inkscape:version="0.48.4 r9939"
   sodipodi:docname="PuntaBanda-ParCon_10_0.dot.svg">
  <metadata
     id="metadata6028">
    <rdf:RDF>
      <cc:Work
         rdf:about="">
        <dc:format>image/svg+xml</dc:format>
        <dc:type
           rdf:resource="http://purl.org/dc/dcmitype/StillImage" />
      </cc:Work>
    </rdf:RDF>
  </metadata>
  <defs
     id="defs6026" />
  <sodipodi:namedview
     pagecolor="#ffffff"
     bordercolor="#666666"
     borderopacity="1"
     objecttolerance="10"
     gridtolerance="10"
     guidetolerance="10"
     inkscape:pageopacity="0"
     inkscape:pageshadow="2"
     inkscape:window-width="701"
     inkscape:window-height="480"
     id="namedview6024"
     showgrid="false"
     fit-margin-top="0"
     fit-margin-left="0"
     fit-margin-right="0"
     fit-margin-bottom="0"
     inkscape:zoom="0.074272227"
     inkscape:cx="1583.2452"
     inkscape:cy="694.72277"
     inkscape:window-x="65"
     inkscape:window-y="24"
     inkscape:window-maximized="0"
     inkscape:current-layer="svg5455" />
  <g
     id="graph0"
     class="graph"
     transform="matrix(0,-1,1,0,2534,1109.6238)">
    <title
       id="title5458">G</title>
    <!-- 1 -->
    <g
       id="node1"
       class="node">
      <title
         id="title5461">1</title>
      <path
         d="m 329.274,-2365 c 0,0 168.25,0 168.25,0 0,-3.29 -0.096,-6.57 -0.288,-9.85 -0.192,-3.28 -0.479,-6.56 -0.862,-9.82 -0.383,-3.26 -0.862,-6.51 -1.435,-9.75 -0.572,-3.24 -1.24,-6.45 -2.001,-9.65 -0.76,-3.2 -1.614,-6.37 -2.56,-9.52 -0.947,-3.14 -1.984,-6.26 -3.113,-9.35 -1.128,-3.08 -2.346,-6.13 -3.652,-9.15 -1.307,-3.01 -2.701,-5.99 -4.181,-8.92 -1.48,-2.93 -3.045,-5.82 -4.694,-8.66 -1.649,-2.84 -3.38,-5.64 -5.192,-8.38 -1.812,-2.74 -3.704,-5.42 -5.672,-8.05 -1.969,-2.63 -4.014,-5.2 -6.133,-7.71 -2.119,-2.51 -4.31,-4.95 -6.572,-7.33 -2.261,-2.39 -4.592,-4.7 -6.989,-6.94 -2.397,-2.25 -4.858,-4.42 -7.382,-6.52 -2.524,-2.1 -5.108,-4.13 -7.75,-6.08 -2.642,-1.94 -5.34,-3.81 -8.092,-5.61 -2.751,-1.79 -5.554,-3.5 -8.405,-5.12 -2.851,-1.63 -5.749,-3.17 -8.69,-4.63 -2.941,-1.45 -5.924,-2.82 -8.945,-4.11 -3.021,-1.28 -6.079,-2.47 -9.17,-3.57 -3.09,-1.11 -6.213,-2.12 -9.363,-3.04 -3.149,-0.92 -6.326,-1.75 -9.524,-2.48 -3.198,-0.74 -6.417,-1.38 -9.653,-1.92 -3.235,-0.55 -6.486,-1 -9.748,-1.35 -3.262,-0.36 -6.533,-0.62 -9.81,-0.78 -3.277,-0.16 -6.559,-0.23 -9.84,-0.2 -3.281,0.03 -6.56,0.15 -9.834,0.37 -3.273,0.22 -6.54,0.54 -9.795,0.95 -3.255,0.41 -6.498,0.92 -9.724,1.52 -3.225,0.6 -6.433,1.3 -9.617,2.09 -3.185,0.79 -6.347,1.67 -9.48,2.65 0,0 49.916,160.91 49.916,160.91"
         id="path5463"
         inkscape:connector-curvature="0"
         style="fill:#abdda4;stroke:#000000;stroke-width:0.5" />
      <path
         d="m 329.274,-2365 c 0,0 -49.916,-160.91 -49.916,-160.91 -2.349,0.73 -4.682,1.51 -6.997,2.34 -2.314,0.84 -4.611,1.72 -6.887,2.65 -2.276,0.94 -4.531,1.92 -6.764,2.96 -2.233,1.03 -4.443,2.11 -6.629,3.24 -2.186,1.13 -4.346,2.31 -6.48,3.53 -2.134,1.23 -4.241,2.5 -6.32,3.82 -2.078,1.32 -4.127,2.68 -6.146,4.09 -2.019,1.41 -4.006,2.86 -5.961,4.35 -1.956,1.5 -3.878,3.03 -5.766,4.61 -1.887,1.58 -3.74,3.2 -5.557,4.86 -1.817,1.66 -3.597,3.37 -5.34,5.1 -1.742,1.74 -3.446,3.52 -5.111,5.33 -1.664,1.82 -3.289,3.67 -4.872,5.55 -1.584,1.89 -3.126,3.81 -4.626,5.76 -1.499,1.95 -2.956,3.94 -4.368,5.96 -1.413,2.01 -2.781,4.06 -4.104,6.14 -1.323,2.07 -2.6,4.18 -3.831,6.31 -1.231,2.13 -2.415,4.29 -3.551,6.48 -1.136,2.18 -2.224,4.39 -3.264,6.63 -1.039,2.23 -2.03,4.48 -2.97,6.76 -0.941,2.28 -1.832,4.57 -2.672,6.89 -0.84,2.31 -1.63,4.65 -2.368,7 -0.738,2.35 -1.424,4.71 -2.058,7.09 -0.635,2.38 -1.217,4.78 -1.747,7.18 -0.529,2.41 -1.006,4.83 -1.43,7.25 -0.423,2.43 -0.794,4.86 -1.111,7.31 -0.317,2.44 -0.581,4.89 -0.791,7.34 -0.21,2.46 -0.366,4.92 -0.468,7.38 -0.102,2.46 -0.15,4.92 -0.145,7.39 0.006,2.46 0.066,4.92 0.179,7.38 0.114,2.47 0.281,4.92 0.502,7.38 0.221,2.45 0.496,4.9 0.824,7.34 0.329,2.44 0.71,4.88 1.145,7.3 0.435,2.42 0.923,4.84 1.464,7.24 0.54,2.41 1.133,4.8 1.779,7.17 0.645,2.38 1.342,4.74 2.091,7.09 0.749,2.35 1.549,4.68 2.4,6.99 0.85,2.31 1.752,4.6 2.703,6.87 0.951,2.28 1.952,4.53 3.001,6.75 1.05,2.23 2.148,4.44 3.294,6.62 1.147,2.18 2.34,4.33 3.581,6.46 1.24,2.12 2.527,4.22 3.86,6.3 1.332,2.07 2.71,4.11 4.132,6.12 1.422,2.01 2.887,3.99 4.396,5.93 1.508,1.95 3.059,3.86 4.651,5.74 1.593,1.88 3.226,3.72 4.899,5.52 1.672,1.81 3.385,3.58 5.135,5.31 1.75,1.73 3.538,3.42 5.363,5.08 1.824,1.65 3.685,3.26 5.58,4.83 1.895,1.57 3.824,3.1 5.786,4.59 1.962,1.48 3.956,2.92 5.981,4.32 2.025,1.4 4.081,2.76 6.165,4.06 2.084,1.31 4.197,2.57 6.337,3.79 2.14,1.21 4.306,2.38 6.496,3.5 2.191,1.12 4.406,2.19 6.644,3.22 2.238,1.02 4.497,1.99 6.778,2.92 2.28,0.92 4.58,1.79 6.899,2.62 2.319,0.82 4.655,1.59 7.007,2.31 2.353,0.72 4.721,1.39 7.102,2.01 2.382,0.61 4.777,1.18 7.183,1.69 2.406,0.51 4.824,0.97 7.25,1.37 2.426,0.4 4.861,0.76 7.303,1.05 2.442,0.3 4.89,0.55 7.342,0.74 2.453,0.19 4.909,0.32 7.367,0.41 0,0 5.631,-168.41 5.631,-168.41"
         id="path5465"
         inkscape:connector-curvature="0"
         style="fill:#2b83ba;stroke:#000000;stroke-width:0.5" />
      <path
         d="m 329.274,-2365 c 0,0 -5.631,168.41 -5.631,168.41 2.813,0.09 5.628,0.11 8.442,0.07 2.814,-0.05 5.627,-0.17 8.435,-0.36 2.808,-0.19 5.611,-0.44 8.406,-0.77 2.796,-0.33 5.582,-0.73 8.357,-1.2 2.776,-0.47 5.539,-1.01 8.287,-1.62 2.748,-0.61 5.481,-1.28 8.195,-2.03 2.714,-0.74 5.409,-1.56 8.083,-2.44 2.673,-0.88 5.325,-1.83 7.951,-2.84 2.626,-1.01 5.226,-2.09 7.798,-3.24 2.572,-1.14 5.115,-2.35 7.626,-3.62 2.512,-1.28 4.991,-2.61 7.435,-4.01 2.445,-1.4 4.854,-2.85 7.225,-4.37 2.372,-1.52 4.705,-3.1 6.997,-4.73 2.293,-1.64 4.544,-3.33 6.752,-5.08 2.207,-1.75 4.371,-3.55 6.488,-5.41 2.118,-1.85 4.188,-3.76 6.21,-5.73 0,0 -117.056,-121.03 -117.056,-121.03"
         id="path5467"
         inkscape:connector-curvature="0"
         style="fill:#fdae61;stroke:#000000;stroke-width:0.5" />
      <path
         d="m 329.274,-2365 c 0,0 117.056,121.03 117.056,121.03 2.017,-1.95 3.986,-3.96 5.903,-6.02 1.918,-2.05 3.784,-4.16 5.596,-6.31 1.812,-2.14 3.57,-4.34 5.273,-6.58 1.702,-2.23 3.349,-4.51 4.937,-6.84 1.589,-2.32 3.119,-4.68 4.589,-7.07 1.471,-2.4 2.881,-4.83 4.23,-7.3 1.349,-2.47 2.636,-4.97 3.86,-7.5 1.224,-2.53 2.384,-5.1 3.48,-7.69 1.095,-2.59 2.126,-5.2 3.091,-7.85 0.965,-2.64 1.863,-5.31 2.695,-7.99 0.831,-2.69 1.595,-5.4 2.292,-8.12 0.696,-2.73 1.324,-5.47 1.883,-8.23 0.559,-2.75 1.049,-5.53 1.469,-8.31 0.421,-2.78 0.772,-5.57 1.052,-8.37 0.281,-2.8 0.492,-5.6 0.633,-8.41 0.141,-2.81 0.211,-5.63 0.211,-8.44 0,0 -168.25,0 -168.25,0"
         id="path5469"
         inkscape:connector-curvature="0"
         style="fill:#d7191c;stroke:#000000;stroke-width:0.5" />
      <ellipse
         cx="329.27399"
         cy="-2365"
         rx="168.25"
         ry="168.5"
         id="ellipse5471"
         d="m 497.52399,-2365 c 0,93.06 -75.32809,168.5 -168.25,168.5 -92.92191,0 -168.25,-75.44 -168.25,-168.5 0,-93.06 75.32809,-168.5 168.25,-168.5 92.92191,0 168.25,75.44 168.25,168.5 z"
         sodipodi:cx="329.27399"
         sodipodi:cy="-2365"
         sodipodi:rx="168.25"
         sodipodi:ry="168.5"
         style="fill:none;stroke:#000000" />
    </g>
    <!-- 1&#45;&gt;1 -->
    <g
       id="edge1"
       class="edge">
      <title
         id="title5474">1-&gt;1</title>
      <path
         d="m 489.986,-2415.64 c 15.479,10.28 25.288,27.16 25.288,50.64 0,19.08 -6.475,33.8 -17.206,44.16"
         id="path5476"
         inkscape:connector-curvature="0"
         style="fill:none;stroke:#000000;stroke-width:3.46667004" />
      <polygon
         points="499.978,-2317.88 489.986,-2314.36 495.601,-2323.35 499.978,-2317.88 "
         id="polygon5478"
         style="fill:#000000;stroke:#000000;stroke-width:3.46667004" />
    </g>
    <!-- 2 -->
    <g
       id="node2"
       class="node">
      <title
         id="title5481">2</title>
      <path
         d="m 329.274,-2030 c 0,0 130,0 130,0 0,-1.82 -0.038,-3.65 -0.115,-5.47 -0.077,-1.82 -0.192,-3.64 -0.345,-5.46 -0.153,-1.81 -0.345,-3.63 -0.574,-5.44 -0.23,-1.8 -0.497,-3.61 -0.803,-5.41 -0.305,-1.79 -0.649,-3.58 -1.029,-5.37 -0.381,-1.78 -0.799,-3.56 -1.255,-5.32 -0.455,-1.77 -0.948,-3.52 -1.477,-5.27 -0.529,-1.74 -1.095,-3.48 -1.697,-5.2 -0.603,-1.72 -1.241,-3.43 -1.915,-5.12 -0.674,-1.69 -1.384,-3.37 -2.128,-5.04 -0.745,-1.66 -1.525,-3.31 -2.339,-4.94 -0.814,-1.63 -1.662,-3.25 -2.544,-4.84 -0.882,-1.6 -1.798,-3.18 -2.746,-4.73 -0.948,-1.56 -1.929,-3.1 -2.942,-4.61 -1.013,-1.52 -2.058,-3.01 -3.134,-4.49 -1.076,-1.47 -2.182,-2.92 -3.319,-4.34 -1.137,-1.43 -2.304,-2.83 -3.499,-4.21 -1.196,-1.37 -2.421,-2.72 -3.673,-4.05 -1.253,-1.32 -2.533,-2.62 -3.84,-3.89 -1.308,-1.28 -2.642,-2.52 -4.001,-3.73 -1.36,-1.22 -2.745,-2.4 -4.154,-3.56 -1.409,-1.16 -2.843,-2.28 -4.3,-3.38 -1.457,-1.1 -2.937,-2.16 -4.438,-3.2 -1.502,-1.03 -3.025,-2.03 -4.569,-3 -1.544,-0.97 -3.108,-1.91 -4.691,-2.82 -1.583,-0.9 -3.186,-1.77 -4.805,-2.61 -1.62,-0.83 -3.258,-1.64 -4.911,-2.41 -1.654,-0.76 -3.324,-1.5 -5.008,-2.19 -1.685,-0.7 -3.384,-1.36 -5.096,-1.99 -1.713,-0.63 -3.438,-1.22 -5.175,-1.77 -1.737,-0.55 -3.486,-1.07 -5.245,-1.55 -1.759,-0.48 -3.528,-0.92 -5.305,-1.33 -1.778,-0.41 -3.564,-0.77 -5.357,-1.11 -1.793,-0.33 -3.593,-0.62 -5.398,-0.87 -1.806,-0.26 -3.616,-0.48 -5.431,-0.65 -1.814,-0.18 -3.633,-0.32 -5.453,-0.43 -1.82,-0.1 -3.643,-0.16 -5.466,-0.19 -1.823,-0.02 -3.647,-0.01 -5.469,0.04 -1.823,0.05 -3.644,0.14 -5.463,0.27 -1.819,0.13 -3.635,0.29 -5.447,0.5 -1.811,0.2 -3.619,0.44 -5.42,0.72 -1.802,0.28 -3.598,0.6 -5.386,0.96 -1.788,0.35 -3.569,0.75 -5.34,1.18 -1.772,0.43 -3.535,0.9 -5.287,1.4 -1.752,0.51 -3.493,1.05 -5.222,1.63 -1.73,0.57 -3.447,1.19 -5.15,1.84 -1.703,0.65 -3.393,1.33 -5.067,2.06 -1.675,0.72 -3.334,1.47 -4.977,2.26 -1.643,0.8 -3.269,1.62 -4.877,2.48 -1.608,0.86 -3.197,1.75 -4.768,2.68 -1.57,0.93 -3.121,1.89 -4.651,2.88 -1.53,0.99 -3.039,2.01 -4.526,3.07 -1.487,1.05 -2.952,2.14 -4.393,3.26 -1.442,1.11 -2.859,2.26 -4.252,3.44 -1.394,1.17 -2.762,2.38 -4.104,3.61 -1.342,1.23 -2.659,2.5 -3.948,3.79 -1.289,1.29 -2.551,2.6 -3.785,3.94 -1.234,1.35 -2.44,2.71 -3.616,4.11 -1.176,1.39 -2.323,2.81 -3.44,4.25 -1.117,1.44 -2.203,2.91 -3.258,4.39 -1.055,1.49 -2.079,3 -3.07,4.53 -0.992,1.53 -1.951,3.08 -2.878,4.65 -0.926,1.57 -1.819,3.16 -2.679,4.77 -0.859,1.61 -1.685,3.23 -2.476,4.88 0,0 117.126,56.4 117.126,56.4"
         id="path5483"
         inkscape:connector-curvature="0"
         style="fill:#2b83ba;stroke:#000000;stroke-width:0.5" />
      <path
         d="m 329.274,-2030 c 0,0 -117.126,-56.4 -117.126,-56.4 -1.055,2.19 -2.048,4.41 -2.978,6.65 -0.931,2.25 -1.798,4.52 -2.601,6.81 -0.803,2.3 -1.541,4.62 -2.214,6.95 -0.673,2.34 -1.281,4.69 -1.822,7.06 -0.541,2.37 -1.015,4.76 -1.422,7.15 -0.408,2.4 -0.748,4.81 -1.02,7.22 -0.272,2.42 -0.476,4.84 -0.613,7.27 -0.136,2.43 -0.204,4.86 -0.204,7.29 0,2.43 0.068,4.86 0.204,7.29 0.137,2.43 0.341,4.85 0.613,7.27 0.272,2.41 0.612,4.82 1.02,7.22 0.407,2.39 0.881,4.78 1.422,7.15 0.541,2.37 1.149,4.72 1.822,7.06 0.673,2.33 1.411,4.65 2.214,6.95 0.803,2.29 1.67,4.56 2.601,6.81 0.93,2.24 1.923,4.46 2.978,6.65 1.055,2.2 2.171,4.36 3.347,6.48 1.176,2.13 2.411,4.23 3.705,6.28 1.293,2.06 2.644,4.08 4.051,6.07 1.407,1.98 2.869,3.92 4.385,5.82 1.516,1.9 3.084,3.76 4.704,5.58 1.62,1.81 3.291,3.57 5.01,5.29 1.719,1.72 3.486,3.39 5.299,5.01 1.813,1.62 3.67,3.19 5.571,4.71 1.901,1.51 3.844,2.98 5.827,4.38 1.982,1.41 4.004,2.76 6.063,4.05 2.058,1.3 4.153,2.53 6.28,3.71 2.128,1.18 4.289,2.29 6.479,3.35 2.19,1.05 4.41,2.04 6.656,2.97 2.246,0.93 4.518,1.8 6.813,2.6 2.294,0.81 4.611,1.55 6.947,2.22 2.336,0.67 4.691,1.28 7.061,1.82 2.37,0.54 4.755,1.02 7.152,1.42 2.397,0.41 4.805,0.75 7.22,1.02 2.416,0.27 4.839,0.48 7.267,0.62 2.427,0.13 4.858,0.2 7.289,0.2 2.431,0 4.862,-0.07 7.289,-0.2 2.427,-0.14 4.85,-0.35 7.266,-0.62 2.416,-0.27 4.824,-0.61 7.221,-1.02 2.396,-0.4 4.781,-0.88 7.152,-1.42 2.37,-0.54 4.724,-1.15 7.06,-1.82 2.337,-0.67 4.653,-1.41 6.948,-2.22 2.295,-0.8 4.567,-1.67 6.813,-2.6 2.246,-0.93 4.465,-1.92 6.656,-2.97 2.19,-1.06 4.351,-2.17 6.478,-3.35 2.128,-1.18 4.223,-2.41 6.281,-3.71 2.059,-1.29 4.08,-2.64 6.063,-4.05 1.983,-1.4 3.926,-2.87 5.827,-4.38 1.9,-1.52 3.758,-3.09 5.571,-4.71 1.813,-1.62 3.58,-3.29 5.299,-5.01 1.719,-1.72 3.389,-3.48 5.009,-5.29 1.62,-1.82 3.189,-3.68 4.705,-5.58 1.516,-1.9 2.978,-3.84 4.385,-5.82 1.407,-1.99 2.758,-4.01 4.051,-6.07 1.293,-2.05 2.529,-4.15 3.705,-6.28 1.176,-2.12 2.292,-4.28 3.347,-6.48 1.055,-2.19 2.048,-4.41 2.978,-6.65 0.931,-2.25 1.798,-4.52 2.601,-6.81 0.803,-2.3 1.541,-4.62 2.214,-6.95 0.673,-2.34 1.281,-4.69 1.821,-7.06 0.541,-2.37 1.016,-4.76 1.423,-7.15 0.407,-2.4 0.747,-4.81 1.019,-7.22 0.273,-2.42 0.477,-4.84 0.613,-7.27 0.137,-2.43 0.205,-4.86 0.205,-7.29 0,0 -130,0 -130,0"
         id="path5485"
         inkscape:connector-curvature="0"
         style="fill:#d7191c;stroke:#000000;stroke-width:0.5" />
      <ellipse
         cx="329.27399"
         cy="-2030"
         rx="130"
         ry="130"
         id="ellipse5487"
         d="m 459.27399,-2030 c 0,71.797 -58.20299,130 -130,130 -71.79702,0 -130,-58.203 -130,-130 0,-71.797 58.20298,-130 130,-130 71.79701,0 130,58.203 130,130 z"
         sodipodi:cx="329.27399"
         sodipodi:cy="-2030"
         sodipodi:rx="130"
         sodipodi:ry="130"
         style="fill:none;stroke:#000000" />
    </g>
    <!-- 1&#45;&gt;2 -->
    <g
       id="edge2"
       class="edge">
      <title
         id="title5490">1-&gt;2</title>
      <path
         d="m 322.524,-2196.52 c 0.002,8.84 0.029,17.69 0.082,26.43"
         id="path5492"
         inkscape:connector-curvature="0"
         style="fill:none;stroke:#000000;stroke-width:3.46667004" />
      <polygon
         points="326.107,-2169.91 322.679,-2159.89 319.107,-2169.86 326.107,-2169.91 "
         id="polygon5494"
         style="fill:#000000;stroke:#000000;stroke-width:3.46667004" />
    </g>
    <!-- 3 -->
    <g
       id="node3"
       class="node">
      <title
         id="title5497">3</title>
      <ellipse
         cx="476.27399"
         cy="-1510"
         rx="81.25"
         ry="81.5"
         id="ellipse5499"
         d="m 557.52399,-1510 c 0,45.0112 -36.37687,81.5 -81.25,81.5 -44.87314,0 -81.25,-36.4888 -81.25,-81.5 0,-45.0112 36.37686,-81.5 81.25,-81.5 44.87313,0 81.25,36.4888 81.25,81.5 z"
         sodipodi:cx="476.27399"
         sodipodi:cy="-1510"
         sodipodi:rx="81.25"
         sodipodi:ry="81.5"
         style="fill:#fdae61;stroke:#000000" />
    </g>
    <!-- 1&#45;&gt;3 -->
    <g
       id="edge3"
       class="edge">
      <title
         id="title5502">1-&gt;3</title>
      <path
         d="m 438.099,-2236.43 c 15.992,23.89 30.106,49.78 39.175,76.43 64.851,190.6 34.313,431.26 13.002,559.28"
         id="path5504"
         inkscape:connector-curvature="0"
         style="fill:none;stroke:#000000;stroke-width:3.73333001" />
      <polygon
         points="493.679,-1599.85 488.567,-1590.57 486.776,-1601.01 493.679,-1599.85 "
         id="polygon5506"
         style="fill:#000000;stroke:#000000;stroke-width:3.73333001" />
    </g>
    <!-- 4 -->
    <g
       id="node4"
       class="node">
      <title
         id="title5509">4</title>
      <path
         d="m 420.274,-316 c 0,0 95.25,0 95.25,0 0,-1.663 -0.043,-3.326 -0.13,-4.986 -0.087,-1.661 -0.217,-3.319 -0.39,-4.973 -0.172,-1.654 -0.389,-3.303 -0.647,-4.946 -0.259,-1.643 -0.561,-3.278 -0.905,-4.905 -0.344,-1.627 -0.73,-3.245 -1.159,-4.851 -0.428,-1.607 -0.898,-3.202 -1.41,-4.784 -0.511,-1.582 -1.063,-3.15 -1.657,-4.703 -0.593,-1.553 -1.226,-3.091 -1.899,-4.61 0,0 -87.053,38.758 -87.053,38.758"
         id="path5511"
         inkscape:connector-curvature="0"
         style="fill:#2b83ba;stroke:#000000;stroke-width:0.5" />
      <path
         d="m 420.274,-316 c 0,0 87.053,-38.758 87.053,-38.758 -1.181,-2.667 -2.484,-5.278 -3.903,-7.825 -1.42,-2.548 -2.955,-5.028 -4.601,-7.435 -1.646,-2.406 -3.402,-4.735 -5.26,-6.98 -1.859,-2.245 -3.82,-4.404 -5.876,-6.469 -2.056,-2.065 -4.205,-4.035 -6.441,-5.903 -2.236,-1.867 -4.556,-3.631 -6.953,-5.286 -2.397,-1.655 -4.868,-3.199 -7.406,-4.627 -2.538,-1.428 -5.14,-2.738 -7.797,-3.927 -2.658,-1.19 -5.369,-2.256 -8.124,-3.196 -2.755,-0.94 -5.551,-1.753 -8.38,-2.437 -2.83,-0.683 -5.689,-1.237 -8.569,-1.658 -2.879,-0.421 -5.777,-0.709 -8.683,-0.864 -2.906,-0.155 -5.818,-0.177 -8.726,-0.064 -2.908,0.112 -5.809,0.358 -8.695,0.737 -2.886,0.378 -5.752,0.889 -8.591,1.531 -2.839,0.642 -5.647,1.414 -8.416,2.314 -2.768,0.899 -5.494,1.926 -8.169,3.076 -2.675,1.149 -5.295,2.422 -7.854,3.812 -2.558,1.391 -5.052,2.898 -7.473,4.517 -2.421,1.62 -4.766,3.35 -7.029,5.184 -2.263,1.835 -4.441,3.773 -6.527,5.808 -2.086,2.034 -4.078,4.164 -5.969,6.381 -1.892,2.218 -3.681,4.521 -5.362,6.903 -1.681,2.382 -3.252,4.84 -4.709,7.366 -1.457,2.526 -2.797,5.117 -4.017,7.767 -1.22,2.649 -2.318,5.352 -3.291,8.102 -0.973,2.75 -1.82,5.544 -2.538,8.371 -0.718,2.828 -1.306,5.687 -1.763,8.569 -0.457,2.882 -0.782,5.783 -0.974,8.694 -0.192,2.912 -0.25,5.831 -0.176,8.748 0.075,2.916 0.283,5.828 0.623,8.726 0.341,2.898 0.814,5.779 1.418,8.633 0.603,2.855 1.337,5.68 2.199,8.467 0.862,2.787 1.85,5.533 2.963,8.229 1.112,2.696 2.347,5.34 3.701,7.923 1.354,2.583 2.825,5.102 4.409,7.55 1.584,2.448 3.279,4.821 5.08,7.114 1.801,2.292 3.706,4.5 5.708,6.617 2.002,2.118 4.101,4.142 6.288,6.067 2.187,1.924 4.461,3.748 6.815,5.464 2.354,1.716 4.785,3.322 7.286,4.815 2.5,1.493 5.068,2.87 7.694,4.127 2.626,1.257 5.309,2.393 8.039,3.404 2.73,1.011 5.505,1.895 8.315,2.651 2.811,0.756 5.655,1.383 8.523,1.878 2.868,0.495 5.757,0.858 8.659,1.088 2.901,0.229 5.811,0.326 8.721,0.288 2.91,-0.037 5.817,-0.208 8.711,-0.513 2.895,-0.304 5.773,-0.741 8.628,-1.31 2.854,-0.568 5.681,-1.268 8.472,-2.096 2.79,-0.828 5.542,-1.784 8.245,-2.865 2.703,-1.08 5.356,-2.285 7.949,-3.609 2.593,-1.324 5.125,-2.767 7.586,-4.323 2.462,-1.557 4.851,-3.226 7.16,-5.002 2.309,-1.776 4.536,-3.657 6.673,-5.637 2.137,-1.981 4.183,-4.058 6.131,-6.226 1.947,-2.169 3.795,-4.425 5.536,-6.763 1.742,-2.338 3.375,-4.754 4.896,-7.242 1.521,-2.488 2.927,-5.044 4.215,-7.661 1.287,-2.617 2.454,-5.291 3.497,-8.015 1.043,-2.724 1.961,-5.495 2.752,-8.303 0.79,-2.809 1.451,-5.652 1.981,-8.521 0.531,-2.869 0.93,-5.761 1.196,-8.666 0.266,-2.906 0.4,-5.822 0.4,-8.74 0,0 -95.25,0 -95.25,0"
         id="path5513"
         inkscape:connector-curvature="0"
         style="fill:#fdae61;stroke:#000000;stroke-width:0.5" />
      <ellipse
         cx="420.27399"
         cy="-316"
         rx="95.25"
         ry="95.5"
         id="ellipse5515"
         d="m 515.52399,-316 c 0,52.74319 -42.64488,95.5 -95.25,95.5 -52.60513,0 -95.25,-42.75681 -95.25,-95.5 0,-52.74319 42.64487,-95.5 95.25,-95.5 52.60512,0 95.25,42.75681 95.25,95.5 z"
         sodipodi:cx="420.27399"
         sodipodi:cy="-316"
         sodipodi:rx="95.25"
         sodipodi:ry="95.5"
         style="fill:none;stroke:#000000" />
    </g>
    <!-- 1&#45;&gt;4 -->
    <g
       id="edge4"
       class="edge">
      <title
         id="title5518">1-&gt;4</title>
      <path
         d="m 207.386,-2248.77 c -22.192,27.36 -43.041,57.69 -58.112,88.77 -81.7997,168.71 -86.0001,225.51 -86.0001,413 0,0 0,0 0,766 0,237.834 177.3191,474.46 282.0831,590.418"
         id="path5520"
         inkscape:connector-curvature="0"
         style="fill:none;stroke:#000000;stroke-width:4.19999981" />
      <polygon
         points="348.136,-392.989 352.15,-383.12 342.701,-388.041 348.136,-392.989 "
         id="polygon5522"
         style="fill:#000000;stroke:#000000;stroke-width:4.19999981" />
    </g>
    <!-- 5 -->
    <g
       id="node5"
       class="node">
      <title
         id="title5525">5</title>
      <path
         d="m 616.274,-513 c 0,0 65,0 65,0 0,-2.432 -0.137,-4.861 -0.409,-7.278 -0.272,-2.416 -0.68,-4.815 -1.221,-7.186 -0.541,-2.371 -1.215,-4.709 -2.018,-7.004 -0.803,-2.295 -1.734,-4.544 -2.789,-6.734 -1.055,-2.191 -2.232,-4.321 -3.526,-6.38 -1.294,-2.059 -2.702,-4.044 -4.218,-5.945 -1.516,-1.901 -3.138,-3.716 -4.857,-5.435 -1.72,-1.719 -3.534,-3.341 -5.435,-4.857 -1.901,-1.516 -3.886,-2.924 -5.945,-4.218 -2.059,-1.294 -4.189,-2.471 -6.38,-3.526 -2.191,-1.055 -4.439,-1.986 -6.734,-2.789 -2.295,-0.804 -4.634,-1.477 -7.004,-2.018 -2.371,-0.541 -4.77,-0.949 -7.186,-1.221 -2.417,-0.273 -4.847,-0.409 -7.278,-0.409 -2.432,0 -4.861,0.136 -7.278,0.409 -2.416,0.272 -4.815,0.68 -7.186,1.221 0,0 14.464,63.37 14.464,63.37"
         id="path5527"
         inkscape:connector-curvature="0"
         style="fill:#fdae61;stroke:#000000;stroke-width:0.5" />
      <path
         d="m 616.274,-513 c 0,0 -14.464,-63.37 -14.464,-63.37 -1.481,0.338 -2.951,0.728 -4.405,1.169 -1.454,0.441 -2.892,0.933 -4.312,1.475 -1.419,0.542 -2.819,1.133 -4.197,1.773 -1.379,0.64 -2.734,1.328 -4.064,2.063 -1.33,0.736 -2.634,1.517 -3.909,2.343 -1.275,0.827 -2.521,1.698 -3.735,2.611 -1.214,0.914 -2.396,1.87 -3.543,2.867 -1.147,0.996 -2.259,2.033 -3.333,3.107 -1.075,1.075 -2.111,2.186 -3.108,3.333 -0.996,1.148 -1.952,2.329 -2.866,3.543 -0.914,1.215 -1.784,2.46 -2.611,3.735 -0.826,1.276 -1.608,2.579 -2.343,3.909 -0.735,1.33 -1.423,2.685 -2.063,4.064 -0.64,1.378 -1.231,2.778 -1.773,4.198 -0.542,1.419 -1.034,2.857 -1.475,4.311 -0.441,1.455 -0.831,2.924 -1.169,4.405 -0.339,1.482 -0.625,2.974 -0.858,4.476 -0.234,1.501 -0.414,3.011 -0.542,4.525 -0.128,1.514 -0.202,3.032 -0.224,4.551 -0.021,1.52 0.011,3.039 0.096,4.557 0.085,1.517 0.224,3.03 0.415,4.538 0.191,1.507 0.435,3.008 0.732,4.498 0.296,1.49 0.645,2.97 1.045,4.436 0.4,1.465 0.852,2.917 1.353,4.351 0.502,1.434 1.054,2.851 1.655,4.246 0.602,1.396 1.251,2.77 1.949,4.12 0.697,1.35 1.442,2.675 2.232,3.973 0.791,1.298 1.626,2.567 2.505,3.807 0.88,1.239 1.802,2.447 2.766,3.622 0.964,1.174 1.969,2.315 3.013,3.419 1.044,1.104 2.126,2.171 3.245,3.2 1.119,1.028 2.273,2.017 3.461,2.964 1.188,0.947 2.409,1.853 3.66,2.715 1.252,0.862 2.533,1.679 3.842,2.451 1.309,0.772 2.644,1.498 4.004,2.177 1.36,0.678 2.743,1.309 4.146,1.89 1.404,0.582 2.828,1.114 4.269,1.595 1.441,0.482 2.899,0.913 4.37,1.293 1.472,0.379 2.956,0.707 4.45,0.983 1.495,0.275 2.998,0.498 4.508,0.668 1.51,0.17 3.026,0.288 4.544,0.351 1.518,0.064 3.038,0.075 4.557,0.032 1.519,-0.042 3.036,-0.138 4.548,-0.287 1.512,-0.149 3.019,-0.351 4.517,-0.605 1.498,-0.255 2.986,-0.562 4.463,-0.921 1.477,-0.359 2.94,-0.769 4.388,-1.231 1.448,-0.461 2.879,-0.973 4.291,-1.535 1.412,-0.562 2.803,-1.173 4.172,-1.832 1.369,-0.659 2.715,-1.366 4.034,-2.12 1.32,-0.754 2.612,-1.553 3.876,-2.397 1.263,-0.845 2.497,-1.733 3.698,-2.664 1.201,-0.93 2.369,-1.903 3.502,-2.915 1.133,-1.013 2.231,-2.065 3.29,-3.154 1.059,-1.09 2.08,-2.216 3.06,-3.377 0.981,-1.161 1.92,-2.356 2.817,-3.583 0.896,-1.226 1.749,-2.484 2.558,-3.771 0.808,-1.287 1.571,-2.601 2.288,-3.941 0.716,-1.34 1.385,-2.705 2.006,-4.092 0.62,-1.387 1.192,-2.795 1.714,-4.223 0.522,-1.427 0.994,-2.872 1.414,-4.332 0.421,-1.46 0.79,-2.934 1.108,-4.42 0.317,-1.486 0.582,-2.983 0.795,-4.488 0.212,-1.504 0.372,-3.016 0.478,-4.532 0.107,-1.515 0.16,-3.034 0.16,-4.554 0,0 -65,0 -65,0"
         id="path5529"
         inkscape:connector-curvature="0"
         style="fill:#d7191c;stroke:#000000;stroke-width:0.5" />
      <ellipse
         cx="616.27399"
         cy="-513"
         rx="65"
         ry="65"
         id="ellipse5531"
         d="m 681.27399,-513 c 0,35.89851 -29.10149,65 -65,65 -35.89851,0 -65,-29.10149 -65,-65 0,-35.89851 29.10149,-65 65,-65 35.89851,0 65,29.10149 65,65 z"
         sodipodi:cx="616.27399"
         sodipodi:cy="-513"
         sodipodi:rx="65"
         sodipodi:ry="65"
         style="fill:none;stroke:#000000" />
    </g>
    <!-- 1&#45;&gt;5 -->
    <g
       id="edge5"
       class="edge">
      <title
         id="title5534">1-&gt;5</title>
      <path
         d="m 488.733,-2310.48 c 78.466,33.05 169.488,82.35 232.541,150.48 185.446,200.38 179.076,300.55 234,568 87.456,425.88 284.086,631.869 21,978 -34.369,45.218 -190.175,75.366 -285.195,89.902"
         id="path5536"
         inkscape:connector-curvature="0"
         style="fill:none;stroke:#000000;stroke-width:3.5999999" />
      <polygon
         points="691.353,-520.599 680.944,-522.571 690.311,-527.521 691.353,-520.599 "
         id="polygon5538"
         style="fill:#000000;stroke:#000000;stroke-width:3.5999999" />
    </g>
    <!-- 6 -->
    <g
       id="node6"
       class="node">
      <title
         id="title5541">6</title>
      <ellipse
         cx="507.27399"
         cy="-92"
         rx="92"
         ry="92"
         id="ellipse5543"
         d="m 599.27399,-92 c 0,50.810197 -41.18981,92 -92,92 -50.8102,0 -92,-41.189803 -92,-92 0,-50.8102 41.1898,-92 92,-92 50.81019,0 92,41.1898 92,92 z"
         sodipodi:cx="507.27399"
         sodipodi:cy="-92"
         sodipodi:rx="92"
         sodipodi:ry="92"
         style="fill:#fdae61;stroke:#000000" />
    </g>
    <!-- 1&#45;&gt;6 -->
    <g
       id="edge6"
       class="edge">
      <title
         id="title5546">1-&gt;6</title>
      <path
         d="m 181.786,-2283.34 c -44.859,32.65 -89.6059,74.32 -117.5121,123.34 -91.6764,161.03 -57.00004,227.7 -57.00004,413 0,0 0,0 0,1235 0,135.672 -6.446625,195.58 89.00004,292 81.6011,82.433 216.2251,111.475 309.0901,121.6393"
         id="path5548"
         inkscape:connector-curvature="0"
         style="fill:none;stroke:#000000;stroke-width:4.33333015" />
      <polygon
         points="405.79,-102.129 415.344,-97.3232 405.006,-94.586 405.79,-102.129 "
         id="polygon5550"
         style="fill:#000000;stroke:#000000;stroke-width:4.33333015" />
    </g>
    <!-- 7 -->
    <g
       id="node7"
       class="node">
      <title
         id="title5553">7</title>
      <path
         d="m 727.274,-982 c 0,0 128,0 128,0 0,-2.482 -0.072,-4.964 -0.217,-7.443 -0.144,-2.478 -0.36,-4.951 -0.649,-7.417 -0.288,-2.466 -0.648,-4.92 -1.079,-7.37 -0.431,-2.44 -0.933,-4.87 -1.505,-7.29 0,0 -124.55,29.52 -124.55,29.52"
         id="path5555"
         inkscape:connector-curvature="0"
         style="fill:#2b83ba;stroke:#000000;stroke-width:0.5" />
      <path
         d="m 727.274,-982 c 0,0 124.55,-29.52 124.55,-29.52 -0.466,-1.96 -0.977,-3.91 -1.534,-5.85 -0.558,-1.94 -1.161,-3.86 -1.809,-5.77 -0.648,-1.91 -1.342,-3.81 -2.08,-5.69 -0.737,-1.87 -1.52,-3.73 -2.345,-5.57 -0.826,-1.84 -1.695,-3.66 -2.607,-5.46 -0.912,-1.8 -1.866,-3.58 -2.861,-5.33 -0.996,-1.76 -2.033,-3.49 -3.111,-5.19 -1.077,-1.71 -2.195,-3.39 -3.352,-5.04 -1.157,-1.65 -2.352,-3.27 -3.586,-4.87 -1.234,-1.6 -2.505,-3.16 -3.812,-4.7 -1.308,-1.53 -2.652,-3.04 -4.031,-4.51 -1.378,-1.47 -2.792,-2.91 -4.238,-4.32 -1.447,-1.4 -2.927,-2.77 -4.439,-4.11 -1.511,-1.33 -3.054,-2.63 -4.627,-3.9 -1.573,-1.26 -3.175,-2.48 -4.806,-3.67 -1.631,-1.19 -3.29,-2.33 -4.975,-3.44 -1.685,-1.11 -3.396,-2.18 -5.132,-3.21 -1.735,-1.02 -3.495,-2.01 -5.277,-2.95 -1.782,-0.95 -3.587,-1.85 -5.412,-2.71 -1.824,-0.86 -3.669,-1.67 -5.533,-2.45 -1.863,-0.77 -3.744,-1.5 -5.642,-2.18 -1.898,-0.68 -3.812,-1.32 -5.74,-1.91 -1.927,-0.59 -3.869,-1.14 -5.823,-1.64 -1.954,-0.5 -3.919,-0.96 -5.894,-1.37 -1.976,-0.4 -3.96,-0.76 -5.952,-1.08 -1.993,-0.31 -3.992,-0.58 -5.997,-0.8 -2.005,-0.22 -4.015,-0.39 -6.028,-0.52 -2.013,-0.12 -4.029,-0.2 -6.046,-0.23 -2.016,-0.03 -4.033,-0.01 -6.049,0.06 -2.016,0.06 -4.03,0.18 -6.04,0.34 -2.011,0.16 -4.017,0.37 -6.018,0.63 -2.001,0.25 -3.995,0.55 -5.981,0.9 -1.986,0.35 -3.964,0.75 -5.932,1.2 -1.967,0.44 -3.924,0.93 -5.868,1.47 -1.945,0.53 -3.876,1.11 -5.793,1.74 -1.917,0.63 -3.818,1.3 -5.703,2.02 -1.885,0.72 -3.753,1.48 -5.602,2.28 -1.849,0.81 -3.679,1.66 -5.488,2.55 -1.809,0.89 -3.597,1.83 -5.361,2.8 -1.765,0.98 -3.507,2 -5.223,3.06 -1.717,1.06 -3.408,2.16 -5.073,3.29 -1.665,1.14 -3.302,2.32 -4.911,3.54 -1.609,1.21 -3.189,2.47 -4.739,3.76 -1.55,1.29 -3.069,2.62 -4.556,3.98 -1.487,1.36 -2.941,2.76 -4.362,4.19 -1.421,1.43 -2.808,2.9 -4.16,4.39 -1.352,1.5 -2.668,3.03 -3.947,4.59 -1.28,1.56 -2.522,3.15 -3.727,4.76 -1.204,1.62 -2.37,3.27 -3.497,4.94 -1.127,1.67 -2.214,3.37 -3.26,5.1 -1.046,1.72 -2.052,3.47 -3.015,5.24 -0.964,1.77 -1.886,3.57 -2.765,5.38 -0.878,1.82 -1.714,3.65 -2.506,5.51 -0.792,1.85 -1.541,3.73 -2.244,5.62 -0.704,1.89 -1.363,3.79 -1.976,5.72 -0.614,1.92 -1.182,3.85 -1.704,5.8 -0.522,1.95 -0.998,3.91 -1.427,5.88 -0.429,1.97 -0.812,3.95 -1.148,5.94 -0.336,1.99 -0.624,3.986 -0.866,5.988 -0.241,2.002 -0.435,4.01 -0.582,6.022 -0.146,2.011 -0.245,4.026 -0.297,6.042 -0.051,2.017 -0.055,4.034 -0.011,6.05 0.044,2.017 0.136,4.032 0.275,6.044 0.139,2.012 0.326,4.021 0.56,6.024 0.235,2.003 0.516,4.001 0.845,5.991 0.328,1.99 0.704,3.972 1.126,5.944 0.422,1.972 0.891,3.934 1.406,5.884 0.515,1.95 1.076,3.888 1.682,5.811 0.607,1.924 1.258,3.833 1.955,5.726 0.697,1.892 1.438,3.768 2.224,5.626 0.785,1.858 1.614,3.697 2.486,5.515 0.873,1.819 1.788,3.617 2.745,5.392 0.957,1.775 1.956,3.528 2.996,5.256 1.04,1.728 2.121,3.431 3.242,5.108 1.12,1.677 2.28,3.327 3.479,4.949 1.198,1.623 2.435,3.216 3.709,4.78 1.274,1.564 2.584,3.097 3.931,4.599 1.346,1.502 2.728,2.972 4.143,4.408 1.416,1.437 2.866,2.839 4.348,4.207 1.482,1.368 2.996,2.701 4.541,3.998 1.545,1.296 3.121,2.556 4.725,3.778 1.605,1.222 3.238,2.406 4.899,3.551 1.66,1.144 3.347,2.25 5.06,3.315 1.713,1.065 3.451,2.089 5.212,3.072 1.761,0.983 3.545,1.924 5.351,2.823 1.806,0.899 3.632,1.755 5.478,2.567 1.846,0.812 3.711,1.581 5.594,2.305 1.882,0.724 3.782,1.404 5.696,2.038 1.915,0.634 3.844,1.224 5.786,1.767 1.943,0.543 3.898,1.04 5.864,1.491 1.965,0.451 3.942,0.855 5.927,1.213 1.985,0.357 3.978,0.668 5.978,0.931 1.999,0.263 4.005,0.479 6.015,0.648 2.01,0.168 4.023,0.289 6.039,0.362 2.015,0.074 4.032,0.099 6.049,0.077 2.017,-0.022 4.033,-0.091 6.046,-0.209 2.014,-0.117 4.024,-0.282 6.03,-0.494 2.006,-0.212 4.006,-0.472 6,-0.779 1.993,-0.307 3.979,-0.66 5.956,-1.061 1.976,-0.401 3.943,-0.848 5.899,-1.342 1.956,-0.493 3.899,-1.033 5.829,-1.619 1.93,-0.585 3.846,-1.216 5.747,-1.892 1.9,-0.676 3.784,-1.397 5.65,-2.162 1.866,-0.765 3.714,-1.574 5.542,-2.427 1.828,-0.852 3.635,-1.747 5.421,-2.685 1.786,-0.938 3.549,-1.918 5.288,-2.939 1.74,-1.021 3.455,-2.083 5.144,-3.186 1.689,-1.102 3.352,-2.244 4.987,-3.424 1.635,-1.181 3.242,-2.4 4.82,-3.657 1.577,-1.257 3.125,-2.551 4.641,-3.881 1.517,-1.329 3.001,-2.695 4.453,-4.095 1.452,-1.4 2.871,-2.834 4.255,-4.301 1.384,-1.467 2.733,-2.967 4.046,-4.498 1.313,-1.53 2.59,-3.092 3.83,-4.683 1.239,-1.591 2.441,-3.212 3.604,-4.859 1.163,-1.648 2.286,-3.324 3.37,-5.025 1.084,-1.701 2.127,-3.427 3.129,-5.177 1.002,-1.751 1.963,-3.525 2.881,-5.32 0.918,-1.796 1.794,-3.613 2.626,-5.451 0.833,-1.837 1.622,-3.693 2.366,-5.568 0.745,-1.874 1.445,-3.766 2.101,-5.673 0.655,-1.908 1.265,-3.831 1.829,-5.767 0.565,-1.936 1.083,-3.886 1.555,-5.846 0.473,-1.961 0.899,-3.933 1.278,-5.914 0.379,-1.981 0.711,-3.971 0.996,-5.967 0.285,-1.997 0.523,-4 0.713,-6.008 0.191,-2.008 0.334,-4.02 0.429,-6.035 0.095,-2.014 0.143,-4.031 0.143,-6.048 0,0 -128,0 -128,0"
         id="path5557"
         inkscape:connector-curvature="0"
         style="fill:#d7191c;stroke:#000000;stroke-width:0.5" />
      <ellipse
         cx="727.27399"
         cy="-982"
         rx="128"
         ry="128"
         id="ellipse5559"
         d="m 855.27399,-982 c 0,70.69245 -57.30756,128 -128,128 -70.69245,0 -128,-57.30755 -128,-128 0,-70.6924 57.30755,-128 128,-128 70.69244,0 128,57.3076 128,128 z"
         sodipodi:cx="727.27399"
         sodipodi:cy="-982"
         sodipodi:rx="128"
         sodipodi:ry="128"
         style="fill:none;stroke:#000000" />
    </g>
    <!-- 1&#45;&gt;7 -->
    <g
       id="edge7"
       class="edge">
      <title
         id="title5562">1-&gt;7</title>
      <path
         d="m 471.189,-2274 c 121.66,87.29 286.043,232.39 343.085,410 82.565,257.08 10.839,576.21 -42.297,751.16"
         id="path5564"
         inkscape:connector-curvature="0"
         style="fill:none;stroke:#000000;stroke-width:3.46667004" />
      <polygon
         points="775.26,-1111.61 768.984,-1103.07 768.567,-1113.66 775.26,-1111.61 "
         id="polygon5566"
         style="fill:#000000;stroke:#000000;stroke-width:3.46667004" />
    </g>
    <!-- 8 -->
    <g
       id="node8"
       class="node">
      <title
         id="title5569">8</title>
      <ellipse
         cx="364.27399"
         cy="-1269"
         rx="123"
         ry="123"
         id="ellipse5571"
         d="m 487.27399,-1269 c 0,67.931 -55.06898,123 -123,123 -67.93103,0 -123,-55.069 -123,-123 0,-67.931 55.06897,-123 123,-123 67.93102,0 123,55.069 123,123 z"
         sodipodi:cx="364.27399"
         sodipodi:cy="-1269"
         sodipodi:rx="123"
         sodipodi:ry="123"
         style="fill:#fdae61;stroke:#000000" />
    </g>
    <!-- 1&#45;&gt;8 -->
    <g
       id="edge8"
       class="edge">
      <title
         id="title5574">1-&gt;8</title>
      <path
         d="m 223.933,-2233.28 c -13.838,23.23 -25.894,48.09 -33.659,73.28 -83.335,270.3 35.997,599.55 114.578,771.88"
         id="path5576"
         inkscape:connector-curvature="0"
         style="fill:none;stroke:#000000;stroke-width:4.53332996" />
      <polygon
         points="308.462,-1389.76 309.03,-1379.02 301.252,-1386.45 308.462,-1389.76 "
         id="polygon5578"
         style="fill:#000000;stroke:#000000;stroke-width:4.53332996" />
    </g>
    <!-- 9 -->
    <g
       id="node9"
       class="node">
      <title
         id="title5581">9</title>
      <ellipse
         cx="866.27399"
         cy="-716"
         rx="101.25"
         ry="101.5"
         id="ellipse5583"
         d="m 967.52399,-716 c 0,56.0569 -45.33117,101.5 -101.25,101.5 -55.91883,0 -101.25,-45.4431 -101.25,-101.5 0,-56.0569 45.33117,-101.5 101.25,-101.5 55.91883,0 101.25,45.4431 101.25,101.5 z"
         sodipodi:cx="866.27399"
         sodipodi:cy="-716"
         sodipodi:rx="101.25"
         sodipodi:ry="101.5"
         style="fill:#fdae61;stroke:#000000" />
    </g>
    <!-- 1&#45;&gt;9 -->
    <g
       id="edge9"
       class="edge">
      <title
         id="title5586">1-&gt;9</title>
      <path
         d="m 495.805,-2339.14 c 189.287,31.95 480.962,93.66 549.465,179.14 114.99,143.47 24,229.13 24,413 0,0 0,0 0,479 0,168.82 -84.936,349.783 -144.927,456.545"
         id="path5588"
         inkscape:connector-curvature="0"
         style="fill:none;stroke:#000000;stroke-width:3.4000001" />
      <polygon
         points="927.318,-809.606 919.345,-802.629 921.227,-813.055 927.318,-809.606 "
         id="polygon5590"
         style="fill:#000000;stroke:#000000;stroke-width:3.4000001" />
    </g>
    <!-- 10 -->
    <g
       id="node10"
       class="node">
      <title
         id="title5593">10</title>
      <ellipse
         cx="669.27399"
         cy="-1746"
         rx="118"
         ry="118"
         id="ellipse5595"
         d="m 787.27399,-1746 c 0,65.1696 -52.8304,118 -118,118 -65.1696,0 -118,-52.8304 -118,-118 0,-65.1696 52.8304,-118 118,-118 65.1696,0 118,52.8304 118,118 z"
         sodipodi:cx="669.27399"
         sodipodi:cy="-1746"
         sodipodi:rx="118"
         sodipodi:ry="118"
         style="fill:#d7191c;stroke:#000000" />
    </g>
    <!-- 1&#45;&gt;10 -->
    <g
       id="edge10"
       class="edge">
      <title
         id="title5598">1-&gt;10</title>
      <path
         d="m 458.392,-2256.7 c 29.029,29 57.522,62.04 78.882,96.7 54.657,88.7 88.799,202.22 108.631,287.79"
         id="path5600"
         inkscape:connector-curvature="0"
         style="fill:none;stroke:#000000;stroke-width:3.4000001" />
      <polygon
         points="649.321,-1872.97 648.135,-1862.44 642.497,-1871.41 649.321,-1872.97 "
         id="polygon5602"
         style="fill:#000000;stroke:#000000;stroke-width:3.4000001" />
    </g>
    <!-- 2&#45;&gt;1 -->
    <g
       id="edge11"
       class="edge">
      <title
         id="title5605">2-&gt;1</title>
      <path
         d="m 335.868,-2159.89 c 0.074,-8.74 0.121,-17.62 0.143,-26.54"
         id="path5607"
         inkscape:connector-curvature="0"
         style="fill:none;stroke:#000000;stroke-width:3.33332992" />
      <polygon
         points="332.511,-2186.53 336.024,-2196.52 339.511,-2186.52 332.511,-2186.53 "
         id="polygon5609"
         style="fill:#000000;stroke:#000000;stroke-width:3.33332992" />
    </g>
    <!-- 2&#45;&gt;2 -->
    <g
       id="edge12"
       class="edge">
      <title
         id="title5612">2-&gt;2</title>
      <path
         d="m 450.633,-2076.96 c 16.018,8.01 26.641,23.66 26.641,46.96 0,18.75 -6.879,32.54 -17.912,41.39"
         id="path5614"
         inkscape:connector-curvature="0"
         style="fill:none;stroke:#000000;stroke-width:3.33332992" />
      <polygon
         points="460.947,-1985.47 450.633,-1983.04 457.182,-1991.37 460.947,-1985.47 "
         id="polygon5616"
         style="fill:#000000;stroke:#000000;stroke-width:3.33332992" />
    </g>
    <!-- 2&#45;&gt;3 -->
    <g
       id="edge13"
       class="edge">
      <title
         id="title5619">2-&gt;3</title>
      <path
         d="m 359.069,-1903.28 c 25.578,94.91 62.06,222.64 87.595,306.19"
         id="path5621"
         inkscape:connector-curvature="0"
         style="fill:none;stroke:#000000;stroke-width:8.13333035" />
      <polygon
         points="453.514,-1599.03 449.644,-1587.38 439.907,-1594.85 453.514,-1599.03 "
         id="polygon5623"
         style="fill:#000000;stroke:#000000;stroke-width:8.13333035" />
    </g>
    <!-- 2&#45;&gt;4 -->
    <g
       id="edge14"
       class="edge">
      <title
         id="title5626">2-&gt;4</title>
      <path
         d="m 297.664,-1903.64 c -26.205,128 -60.848,332.75 -74.39,511.64 -32.068,423.607 46.132,532.074 150,944 2.732,10.833 5.747,22.123 8.905,33.333"
         id="path5628"
         inkscape:connector-curvature="0"
         style="fill:none;stroke:#000000;stroke-width:4.86667013" />
      <polygon
         points="386.331,-415.636 384.988,-404.85 378.143,-413.293 386.331,-415.636 "
         id="polygon5630"
         style="fill:#000000;stroke:#000000;stroke-width:4.86667013" />
    </g>
    <!-- 2&#45;&gt;6 -->
    <g
       id="edge15"
       class="edge">
      <title
         id="title5633">2-&gt;6</title>
      <path
         d="m 257.298,-1921.46 c -60.791,101.37 -138.024,259.81 -138.024,410.46 0,0 0,0 0,530 0,340.632 -113.2061,488.365 91,761 46.527,62.118 129.548,94.19 196.008,110.547"
         id="path5635"
         inkscape:connector-curvature="0"
         style="fill:none;stroke:#000000;stroke-width:7.66666985" />
      <polygon
         points="408.199,-115.893 416.379,-107.056 405.1,-102.839 408.199,-115.893 "
         id="polygon5637"
         style="fill:#000000;stroke:#000000;stroke-width:7.66666985" />
    </g>
    <!-- 2&#45;&gt;8 -->
    <g
       id="edge16"
       class="edge">
      <title
         id="title5640">2-&gt;8</title>
      <path
         d="m 330.008,-1899.82 c 4.374,138.72 14.471,357.97 22.913,497.78"
         id="path5642"
         inkscape:connector-curvature="0"
         style="fill:none;stroke:#000000;stroke-width:6.4000001" />
      <polygon
         points="358.532,-1402.02 353.551,-1391.7 347.353,-1401.34 358.532,-1402.02 "
         id="polygon5644"
         style="fill:#000000;stroke:#000000;stroke-width:6.4000001" />
    </g>
    <!-- 2&#45;&gt;9 -->
    <g
       id="edge17"
       class="edge">
      <title
         id="title5647">2-&gt;9</title>
      <path
         d="m 459.006,-2020.75 c 109.625,14.46 261.817,53.33 346.268,156.75 213.666,261.66 74.624,416.86 96,754 7.199,113.55 17.608,143.593 0,256 -1.537,9.81 -3.657,19.877 -6.109,29.884"
         id="path5649"
         inkscape:connector-curvature="0"
         style="fill:none;stroke:#000000;stroke-width:3.4000001" />
      <polygon
         points="898.482,-822.96 892.612,-814.14 891.701,-824.696 898.482,-822.96 "
         id="polygon5651"
         style="fill:#000000;stroke:#000000;stroke-width:3.4000001" />
    </g>
    <!-- 2&#45;&gt;10 -->
    <g
       id="edge18"
       class="edge">
      <title
         id="title5654">2-&gt;10</title>
      <path
         d="m 428.988,-1946.3 c 44.733,37.11 97.346,80.74 141.919,117.71"
         id="path5656"
         inkscape:connector-curvature="0"
         style="fill:none;stroke:#000000;stroke-width:3.4000001" />
      <polygon
         points="573.383,-1831.08 578.846,-1822 568.914,-1825.69 573.383,-1831.08 "
         id="polygon5658"
         style="fill:#000000;stroke:#000000;stroke-width:3.4000001" />
    </g>
    <!-- 3&#45;&gt;1 -->
    <g
       id="edge19"
       class="edge">
      <title
         id="title5661">3-&gt;1</title>
      <path
         d="m 499.425,-1588.29 c 28.017,-124.33 62.865,-374.75 -4.151,-571.71 -9.24,-27.15 -23.715,-53.52 -40.361,-77.78"
         id="path5663"
         inkscape:connector-curvature="0"
         style="fill:none;stroke:#000000;stroke-width:3.53332996" />
      <polygon
         points="451.83,-2236.07 448.939,-2246.27 457.555,-2240.1 451.83,-2236.07 "
         id="polygon5665"
         style="fill:#000000;stroke:#000000;stroke-width:3.53332996" />
    </g>
    <!-- 3&#45;&gt;2 -->
    <g
       id="edge20"
       class="edge">
      <title
         id="title5668">3-&gt;2</title>
      <path
         d="m 458.921,-1589.81 c -21.144,-81.31 -57.224,-209.58 -86.029,-306.55"
         id="path5670"
         inkscape:connector-curvature="0"
         style="fill:none;stroke:#000000;stroke-width:3.5999999" />
      <polygon
         points="369.45,-1895.66 369.951,-1906.24 376.159,-1897.66 369.45,-1895.66 "
         id="polygon5672"
         style="fill:#000000;stroke:#000000;stroke-width:3.5999999" />
    </g>
    <!-- 3&#45;&gt;3 -->
    <g
       id="edge21"
       class="edge">
      <title
         id="title5675">3-&gt;3</title>
      <path
         d="m 545.21,-1553.64 c 17.204,3.05 30.064,17.6 30.064,43.64 0,20.96 -8.327,34.47 -20.544,40.54"
         id="path5677"
         inkscape:connector-curvature="0"
         style="fill:none;stroke:#000000;stroke-width:7.80000019" />
      <polygon
         points="556.833,-1462.97 545.21,-1466.36 552.602,-1475.95 556.833,-1462.97 "
         id="polygon5679"
         style="fill:#000000;stroke:#000000;stroke-width:7.80000019" />
    </g>
    <!-- 3&#45;&gt;4 -->
    <g
       id="edge22"
       class="edge">
      <title
         id="title5682">3-&gt;4</title>
      <path
         d="m 482.95,-1428.67 c 1.734,12.24 3.313,24.76 4.324,36.67 9.244,108.94 7.121,136.9 0,246 -9.576,146.713 -28.605,181.681 -43,328 -13.429,136.496 -22.816,294.467 -25.968,395.95"
         id="path5684"
         inkscape:connector-curvature="0"
         style="fill:none;stroke:#000000;stroke-width:4.86667013" />
      <polygon
         points="422.555,-421.668 418.003,-411.798 414.042,-421.919 422.555,-421.668 "
         id="polygon5686"
         style="fill:#000000;stroke:#000000;stroke-width:4.86667013" />
    </g>
    <!-- 3&#45;&gt;6 -->
    <g
       id="edge23"
       class="edge">
      <title
         id="title5689">3-&gt;6</title>
      <path
         d="m 396.447,-1493.76 c -56.389,15.36 -128.1,45.22 -164.173,101.76 -112.841,176.85 -15.718,734.398 -7,944 4.226,101.597 -38.586,144.193 19,228 37.663,54.813 105.771,86.797 163.241,104.956"
         id="path5691"
         inkscape:connector-curvature="0"
         style="fill:none;stroke:#000000;stroke-width:6.46667004" />
      <polygon
         points="409.466,-120.365 417.374,-112.03 406.157,-109.543 409.466,-120.365 "
         id="polygon5693"
         style="fill:#000000;stroke:#000000;stroke-width:6.46667004" />
    </g>
    <!-- 3&#45;&gt;8 -->
    <g
       id="edge24"
       class="edge">
      <title
         id="title5696">3-&gt;8</title>
      <path
         d="m 442.062,-1435.99 c -6.83,14.57 -14.172,30.24 -21.52,45.92"
         id="path5698"
         inkscape:connector-curvature="0"
         style="fill:none;stroke:#000000;stroke-width:6.73332977" />
      <polygon
         points="425.797,-1387.4 416.219,-1380.85 415.128,-1392.4 425.797,-1387.4 "
         id="polygon5700"
         style="fill:#000000;stroke:#000000;stroke-width:6.73332977" />
    </g>
    <!-- 3&#45;&gt;10 -->
    <g
       id="edge25"
       class="edge">
      <title
         id="title5703">3-&gt;10</title>
      <path
         d="m 531.336,-1570.53 c 18.877,-22.09 40.344,-47.82 60.638,-72.63"
         id="path5705"
         inkscape:connector-curvature="0"
         style="fill:none;stroke:#000000;stroke-width:3.86666989" />
      <polygon
         points="589.482,-1645.64 598.516,-1651.17 594.904,-1641.21 589.482,-1645.64 "
         id="polygon5707"
         style="fill:#000000;stroke:#000000;stroke-width:3.86666989" />
    </g>
    <!-- 4&#45;&gt;1 -->
    <g
       id="edge26"
       class="edge">
      <title
         id="title5710">4-&gt;1</title>
      <path
         d="M 358.435,-388.667 C 260.563,-503.918 81.2739,-741.849 81.2739,-981 c 0,-766 0,-766 0,-766 0,-187.49 4.2004,-244.29 86.0001,-413 11.851,-24.44 27.276,-48.42 43.899,-70.85"
         id="path5712"
         inkscape:connector-curvature="0"
         style="fill:none;stroke:#000000;stroke-width:3.33332992" />
      <polygon
         points="208.533,-2233.16 217.347,-2239.04 214.123,-2228.95 208.533,-2233.16 "
         id="polygon5714"
         style="fill:#000000;stroke:#000000;stroke-width:3.33332992" />
    </g>
    <!-- 4&#45;&gt;2 -->
    <g
       id="edge27"
       class="edge">
      <title
         id="title5717">4-&gt;2</title>
      <path
         d="m 401.388,-409.812 c -3.489,-12.791 -6.988,-25.789 -10.114,-38.188 -103.868,-411.926 -182.068,-520.393 -150,-944 13.116,-173.26 46.026,-370.78 67.871,-499.33"
         id="path5719"
         inkscape:connector-curvature="0"
         style="fill:none;stroke:#000000;stroke-width:3.53332996" />
      <polygon
         points="305.702,-1891.97 310.829,-1901.24 312.603,-1890.79 305.702,-1891.97 "
         id="polygon5721"
         style="fill:#000000;stroke:#000000;stroke-width:3.53332996" />
    </g>
    <!-- 4&#45;&gt;3 -->
    <g
       id="edge28"
       class="edge">
      <title
         id="title5724">4-&gt;3</title>
      <path
         d="m 431.31,-410.87 c 7.449,-100.778 17.032,-265.512 30.964,-407.13 14.395,-146.319 33.424,-181.287 43,-328 7.121,-109.1 9.244,-137.06 0,-246 -0.823,-9.7 -2.024,-19.81 -3.491,-29.84"
         id="path5726"
         inkscape:connector-curvature="0"
         style="fill:none;stroke:#000000;stroke-width:4" />
      <polygon
         points="498.308,-1421.41 500.23,-1431.83 505.225,-1422.48 498.308,-1421.41 "
         id="polygon5728"
         style="fill:#000000;stroke:#000000;stroke-width:4" />
    </g>
    <!-- 4&#45;&gt;4 -->
    <g
       id="edge29"
       class="edge">
      <title
         id="title5731">4-&gt;4</title>
      <path
         d="m 509.792,-349.679 c 13.963,5.035 23.482,16.261 23.482,33.679 0,13.336 -5.58,23.042 -14.462,29.119"
         id="path5733"
         inkscape:connector-curvature="0"
         style="fill:none;stroke:#000000;stroke-width:3.66667008" />
      <polygon
         points="520.296,-283.709 509.792,-282.321 517.137,-289.956 520.296,-283.709 "
         id="polygon5735"
         style="fill:#000000;stroke:#000000;stroke-width:3.66667008" />
    </g>
    <!-- 4&#45;&gt;5 -->
    <g
       id="edge30"
       class="edge">
      <title
         id="title5738">4-&gt;5</title>
      <path
         d="m 490.818,-380.838 c 25.153,-24.467 52.912,-52.158 75.937,-75.771"
         id="path5740"
         inkscape:connector-curvature="0"
         style="fill:none;stroke:#000000;stroke-width:4.86667013" />
      <polygon
         points="563.717,-459.593 573.74,-463.798 569.825,-453.658 563.717,-459.593 "
         id="polygon5742"
         style="fill:#000000;stroke:#000000;stroke-width:4.86667013" />
    </g>
    <!-- 4&#45;&gt;6 -->
    <g
       id="edge31"
       class="edge">
      <title
         id="title5745">4-&gt;6</title>
      <path
         d="m 454.784,-226.941 c 5.077,12.956 10.325,26.348 15.451,39.428"
         id="path5747"
         inkscape:connector-curvature="0"
         style="fill:none;stroke:#000000;stroke-width:4.19999981" />
      <polygon
         points="473.714,-188.707 473.941,-178.055 466.871,-186.025 473.714,-188.707 "
         id="polygon5749"
         style="fill:#000000;stroke:#000000;stroke-width:4.19999981" />
    </g>
    <!-- 4&#45;&gt;8 -->
    <g
       id="edge32"
       class="edge">
      <title
         id="title5752">4-&gt;8</title>
      <path
         d="m 411.103,-411.237 c -1.836,-12.331 -3.547,-24.824 -4.829,-36.763 -25.973,-241.783 -31.982,-525.656 -35.769,-688.03"
         id="path5754"
         inkscape:connector-curvature="0"
         style="fill:none;stroke:#000000;stroke-width:4.46667004" />
      <polygon
         points="366.597,-1135.97 370.27,-1146.06 374.411,-1136.16 366.597,-1135.97 "
         id="polygon5756"
         style="fill:#000000;stroke:#000000;stroke-width:4.46667004" />
    </g>
    <!-- 4&#45;&gt;10 -->
    <g
       id="edge33"
       class="edge">
      <title
         id="title5759">4-&gt;10</title>
      <path
         d="m 452.374,-405.963 c 3.543,-14.032 6.92,-28.404 9.9,-42.037 94.599,-432.785 117.886,-541.661 182,-980 9.087,-62.13 16.797,-131.44 21.783,-189.37"
         id="path5761"
         inkscape:connector-curvature="0"
         style="fill:none;stroke:#000000;stroke-width:3.93333006" />
      <polygon
         points="662.598,-1618.01 666.925,-1627.68 669.573,-1617.42 662.598,-1618.01 "
         id="polygon5763"
         style="fill:#000000;stroke:#000000;stroke-width:3.93333006" />
    </g>
    <!-- 5&#45;&gt;3 -->
    <g
       id="edge34"
       class="edge">
      <title
         id="title5766">5-&gt;3</title>
      <path
         d="m 611.33,-578.16 c -15.545,-201.553 -62.491,-808.99 -64.056,-813.84 -4.636,-14.38 -11.348,-28.83 -18.819,-42.43"
         id="path5768"
         inkscape:connector-curvature="0"
         style="fill:none;stroke:#000000;stroke-width:3.5999999" />
      <polygon
         points="525.348,-1432.81 523.45,-1443.24 531.434,-1436.27 525.348,-1432.81 "
         id="polygon5770"
         style="fill:#000000;stroke:#000000;stroke-width:3.5999999" />
    </g>
    <!-- 5&#45;&gt;4 -->
    <g
       id="edge35"
       class="edge">
      <title
         id="title5773">5-&gt;4</title>
      <path
         d="m 567.814,-469.447 c -23.092,22.023 -51.12,49.599 -76.537,75.222"
         id="path5775"
         inkscape:connector-curvature="0"
         style="fill:none;stroke:#000000;stroke-width:4.4000001" />
      <polygon
         points="493.954,-391.457 484.183,-387.057 488.48,-396.873 493.954,-391.457 "
         id="polygon5777"
         style="fill:#000000;stroke:#000000;stroke-width:4.4000001" />
    </g>
    <!-- 5&#45;&gt;5 -->
    <g
       id="edge36"
       class="edge">
      <title
         id="title5780">5-&gt;5</title>
      <path
         d="m 670.159,-549.694 c 16.341,0.92 29.115,13.151 29.115,36.694 0,18.393 -7.797,29.882 -19,34.467"
         id="path5782"
         inkscape:connector-curvature="0"
         style="fill:none;stroke:#000000;stroke-width:3.73333001" />
      <polygon
         points="680.678,-475.038 670.159,-476.306 679.172,-481.875 680.678,-475.038 "
         id="polygon5784"
         style="fill:#000000;stroke:#000000;stroke-width:3.73333001" />
    </g>
    <!-- 5&#45;&gt;6 -->
    <g
       id="edge37"
       class="edge">
      <title
         id="title5787">5-&gt;6</title>
      <path
         d="m 594.448,-451.508 c -16.811,59.119 -40.047,151.625 -61.174,231.508 -2.365,8.943 -4.857,18.231 -7.341,27.531"
         id="path5789"
         inkscape:connector-curvature="0"
         style="fill:none;stroke:#000000;stroke-width:5.06666994" />
      <polygon
         points="530.212,-191.308 523.354,-182.786 521.644,-193.591 530.212,-191.308 "
         id="polygon5791"
         style="fill:#000000;stroke:#000000;stroke-width:5.06666994" />
    </g>
    <!-- 5&#45;&gt;8 -->
    <g
       id="edge38"
       class="edge">
      <title
         id="title5794">5-&gt;8</title>
      <path
         d="M 592.459,-573.763 C 586.146,-586.828 579.652,-600.724 574.274,-614 501.83,-792.829 440.395,-1008.02 402.866,-1141.44"
         id="path5796"
         inkscape:connector-curvature="0"
         style="fill:none;stroke:#000000;stroke-width:5.93333006" />
      <polygon
         points="397.803,-1140.27 400.094,-1151.3 407.799,-1143.08 397.803,-1140.27 "
         id="polygon5798"
         style="fill:#000000;stroke:#000000;stroke-width:5.93333006" />
    </g>
    <!-- 5&#45;&gt;9 -->
    <g
       id="edge39"
       class="edge">
      <title
         id="title5801">5-&gt;9</title>
      <path
         d="m 668.781,-551.863 c 32.869,-25.412 75.895,-59.709 113.415,-90.298"
         id="path5803"
         inkscape:connector-curvature="0"
         style="fill:none;stroke:#000000;stroke-width:5.93333006" />
      <polygon
         points="779.084,-646.323 790.113,-648.628 785.652,-638.281 779.084,-646.323 "
         id="polygon5805"
         style="fill:#000000;stroke:#000000;stroke-width:5.93333006" />
    </g>
    <!-- 6&#45;&gt;1 -->
    <g
       id="edge40"
       class="edge">
      <title
         id="title5808">6-&gt;1</title>
      <path
         d="M 415.334,-98.8002 C 326.729,-109.351 194.729,-138.725 114.274,-220 18.8272,-316.42 25.2739,-376.328 25.2739,-512 c 0,-1235 0,-1235 0,-1235 0,-185.3 -34.6764,-251.97 57,-413 23.7561,-41.73 59.7161,-78.13 96.9141,-108.18"
         id="path5810"
         inkscape:connector-curvature="0"
         style="fill:none;stroke:#000000;stroke-width:3.33332992" />
      <polygon
         points="177.133,-2271.02 187.14,-2274.5 181.486,-2265.54 177.133,-2271.02 "
         id="polygon5812"
         style="fill:#000000;stroke:#000000;stroke-width:3.33332992" />
    </g>
    <!-- 6&#45;&gt;5 -->
    <g
       id="edge41"
       class="edge">
      <title
         id="title5815">6-&gt;5</title>
      <path
         d="m 539.928,-178.327 c 3.924,-13.915 7.779,-28.186 11.346,-41.673 19.624,-74.2 41.068,-159.291 54.1,-218.4"
         id="path5817"
         inkscape:connector-curvature="0"
         style="fill:none;stroke:#000000;stroke-width:3.79999995" />
      <polygon
         points="602.002,-439.364 607.549,-448.391 608.842,-437.875 602.002,-439.364 "
         id="polygon5819"
         style="fill:#000000;stroke:#000000;stroke-width:3.79999995" />
    </g>
    <!-- 6&#45;&gt;6 -->
    <g
       id="edge42"
       class="edge">
      <title
         id="title5822">6-&gt;6</title>
      <path
         d="m 590.261,-131.99 c 15.823,4.785 27.013,18.115 27.013,39.99 0,17.2607 -6.967,29.2012 -17.68,35.8215"
         id="path5824"
         inkscape:connector-curvature="0"
         style="fill:none;stroke:#000000;stroke-width:4.46667004" />
      <polygon
         points="600.986,-52.5196 590.261,-52.0098 597.798,-59.6567 600.986,-52.5196 "
         id="polygon5826"
         style="fill:#000000;stroke:#000000;stroke-width:4.46667004" />
    </g>
    <!-- 6&#45;&gt;7 -->
    <g
       id="edge43"
       class="edge">
      <title
         id="title5829">6-&gt;7</title>
      <path
         d="M 567.487,-161.654 C 618.964,-229.902 688.873,-339.76 717.274,-448 c 34.554,-131.687 35.683,-287.932 28.679,-397.083"
         id="path5831"
         inkscape:connector-curvature="0"
         style="fill:none;stroke:#000000;stroke-width:4.4000001" />
      <polygon
         points="742.104,-844.93 745.274,-855.166 749.787,-845.447 742.104,-844.93 "
         id="polygon5833"
         style="fill:#000000;stroke:#000000;stroke-width:4.4000001" />
    </g>
    <!-- 6&#45;&gt;8 -->
    <g
       id="edge44"
       class="edge">
      <title
         id="title5836">6-&gt;8</title>
      <path
         d="m 423.21,-130.104 c -37.286,-20.451 -77.46,-49.941 -98.936,-89.896 -160.121,-297.893 -62.192,-714.977 0.258,-921.64"
         id="path5838"
         inkscape:connector-curvature="0"
         style="fill:none;stroke:#000000;stroke-width:5.53332996" />
      <polygon
         points="319.934,-1143.16 327.477,-1151.32 329.198,-1140.35 319.934,-1143.16 "
         id="polygon5840"
         style="fill:#000000;stroke:#000000;stroke-width:5.53332996" />
    </g>
    <!-- 6&#45;&gt;9 -->
    <g
       id="edge45"
       class="edge">
      <title
         id="title5843">6-&gt;9</title>
      <path
         d="M 596.132,-116.341 C 651.19,-135.351 718.88,-167.784 759.274,-220 845.006,-330.822 865.465,-495.485 868.694,-604.014"
         id="path5845"
         inkscape:connector-curvature="0"
         style="fill:none;stroke:#000000;stroke-width:8.53332996" />
      <polygon
         points="861.238,-604.529 868.954,-614.338 876.166,-604.153 861.238,-604.529 "
         id="polygon5847"
         style="fill:#000000;stroke:#000000;stroke-width:8.53332996" />
    </g>
    <!-- 6&#45;&gt;10 -->
    <g
       id="edge46"
       class="edge">
      <title
         id="title5850">6-&gt;10</title>
      <path
         d="m 597.998,-108.77 c 70.126,-16.854 165.127,-49.887 226.276,-111.23 133.549,-133.973 124.538,-208.38 161,-394 67.296,-342.608 -13.32,-442.21 -109,-778 -26.102,-91.6 -29.811,-117.26 -77,-200 -11.871,-20.81 -26.422,-41.81 -41.456,-61.3"
         id="path5852"
         inkscape:connector-curvature="0"
         style="fill:none;stroke:#000000;stroke-width:4.5999999" />
      <polygon
         points="754.578,-1650.9 751.582,-1661.26 760.916,-1655.87 754.578,-1650.9 "
         id="polygon5854"
         style="fill:#000000;stroke:#000000;stroke-width:4.5999999" />
    </g>
    <!-- 7&#45;&gt;3 -->
    <g
       id="edge47"
       class="edge">
      <title
         id="title5857">7-&gt;3</title>
      <path
         d="m 698.688,-1106.95 c -22.816,-84.29 -59.898,-196.19 -113.414,-285.05 -11.613,-19.28 -26.805,-38.09 -42.142,-54.78"
         id="path5859"
         inkscape:connector-curvature="0"
         style="fill:none;stroke:#000000;stroke-width:4.66666985" />
      <polygon
         points="539.946,-1444.21 536.087,-1454.3 545.904,-1449.8 539.946,-1444.21 "
         id="polygon5861"
         style="fill:#000000;stroke:#000000;stroke-width:4.66666985" />
    </g>
    <!-- 7&#45;&gt;4 -->
    <g
       id="edge48"
       class="edge">
      <title
         id="title5864">7-&gt;4</title>
      <path
         d="m 663.054,-870.7 c -9.378,17.431 -18.614,35.41 -26.78,52.7 -48.923,103.584 -55.11,132.247 -94,240 -20.66,57.242 -17.573,74.71 -43,130 -6.525,14.187 -14.22,28.768 -22.203,42.813"
         id="path5866"
         inkscape:connector-curvature="0"
         style="fill:none;stroke:#000000;stroke-width:3.73333001" />
      <polygon
         points="480.1,-403.433 472.071,-396.52 474.036,-406.931 480.1,-403.433 "
         id="polygon5868"
         style="fill:#000000;stroke:#000000;stroke-width:3.73333001" />
    </g>
    <!-- 7&#45;&gt;5 -->
    <g
       id="edge49"
       class="edge">
      <title
         id="title5871">7-&gt;5</title>
      <path
         d="m 697.892,-857.385 c -20.519,86.33 -47.209,198.619 -64.38,270.86"
         id="path5873"
         inkscape:connector-curvature="0"
         style="fill:none;stroke:#000000;stroke-width:3.4000001" />
      <polygon
         points="636.872,-585.524 631.154,-576.605 630.062,-587.143 636.872,-585.524 "
         id="polygon5875"
         style="fill:#000000;stroke:#000000;stroke-width:3.4000001" />
    </g>
    <!-- 7&#45;&gt;6 -->
    <g
       id="edge50"
       class="edge">
      <title
         id="title5878">7-&gt;6</title>
      <path
         d="m 731.063,-853.81 c 3.93,109.433 3.696,270.572 -31.789,405.81 -26.332,100.351 -88.34,202.093 -134.889,270.778"
         id="path5880"
         inkscape:connector-curvature="0"
         style="fill:none;stroke:#000000;stroke-width:6.26667023" />
      <polygon
         points="568.665,-173.766 558.501,-168.594 559.604,-179.945 568.665,-173.766 "
         id="polygon5882"
         style="fill:#000000;stroke:#000000;stroke-width:6.26667023" />
    </g>
    <!-- 7&#45;&gt;7 -->
    <g
       id="edge51"
       class="edge">
      <title
         id="title5885">7-&gt;7</title>
      <path
         d="m 847.835,-1025.57 c 15.33,7.62 25.439,22.14 25.439,43.57 0,17.078 -6.419,29.77 -16.785,38.076"
         id="path5887"
         inkscape:connector-curvature="0"
         style="fill:none;stroke:#000000;stroke-width:3.33332992" />
      <polygon
         points="858.152,-940.834 847.835,-938.427 854.399,-946.743 858.152,-940.834 "
         id="polygon5889"
         style="fill:#000000;stroke:#000000;stroke-width:3.33332992" />
    </g>
    <!-- 7&#45;&gt;8 -->
    <g
       id="edge52"
       class="edge">
      <title
         id="title5892">7-&gt;8</title>
      <path
         d="m 629.219,-1064.83 c -49.005,-39.1 -108.36,-85.68 -158.475,-124.38"
         id="path5894"
         inkscape:connector-curvature="0"
         style="fill:none;stroke:#000000;stroke-width:7.73332977" />
      <polygon
         points="466.569,-1183.88 462.784,-1195.35 474.835,-1194.6 466.569,-1183.88 "
         id="polygon5896"
         style="fill:#000000;stroke:#000000;stroke-width:7.73332977" />
    </g>
    <!-- 7&#45;&gt;9 -->
    <g
       id="edge53"
       class="edge">
      <title
         id="title5899">7-&gt;9</title>
      <path
         d="m 786.626,-868.274 c 9.299,17.662 18.847,35.795 27.956,53.097"
         id="path5901"
         inkscape:connector-curvature="0"
         style="fill:none;stroke:#000000;stroke-width:7.5999999" />
      <polygon
         points="820.528,-818.158 819.303,-806.212 808.76,-811.962 820.528,-818.158 "
         id="polygon5903"
         style="fill:#000000;stroke:#000000;stroke-width:7.5999999" />
    </g>
    <!-- 7&#45;&gt;10 -->
    <g
       id="edge54"
       class="edge">
      <title
         id="title5906">7-&gt;10</title>
      <path
         d="m 730.266,-1110.12 c -2.493,-123.39 -11.777,-315.84 -28.992,-481.88 -0.977,-9.42 -2.12,-19.15 -3.39,-28.92"
         id="path5908"
         inkscape:connector-curvature="0"
         style="fill:none;stroke:#000000;stroke-width:3.4000001" />
      <polygon
         points="694.378,-1620.73 696.516,-1631.1 701.316,-1621.66 694.378,-1620.73 "
         id="polygon5910"
         style="fill:#000000;stroke:#000000;stroke-width:3.4000001" />
    </g>
    <!-- 8&#45;&gt;2 -->
    <g
       id="edge55"
       class="edge">
      <title
         id="title5913">8-&gt;2</title>
      <path
         d="m 363.759,-1392.15 c -4.181,-136.04 -14.221,-355.51 -22.722,-497.97"
         id="path5915"
         inkscape:connector-curvature="0"
         style="fill:none;stroke:#000000;stroke-width:4.06666994" />
      <polygon
         points="337.477,-1890.05 340.428,-1900.25 344.581,-1890.48 337.477,-1890.05 "
         id="polygon5917"
         style="fill:#000000;stroke:#000000;stroke-width:4.06666994" />
    </g>
    <!-- 8&#45;&gt;4 -->
    <g
       id="edge56"
       class="edge">
      <title
         id="title5920">8-&gt;4</title>
      <path
         d="m 357.946,-1146.06 c -1.897,160.498 3.811,451.215 30.328,698.06 1.045,9.729 2.374,19.826 3.906,29.903"
         id="path5922"
         inkscape:connector-curvature="0"
         style="fill:none;stroke:#000000;stroke-width:3.46667004" />
      <polygon
         points="395.665,-418.465 393.776,-408.04 388.752,-417.368 395.665,-418.465 "
         id="polygon5924"
         style="fill:#000000;stroke:#000000;stroke-width:3.46667004" />
    </g>
    <!-- 8&#45;&gt;5 -->
    <g
       id="edge57"
       class="edge">
      <title
         id="title5927">8-&gt;5</title>
      <path
         d="m 387.852,-1148 c 32.512,132.84 94.778,352.21 168.422,534 5.152,12.718 11.328,26.005 17.762,38.585"
         id="path5929"
         inkscape:connector-curvature="0"
         style="fill:none;stroke:#000000;stroke-width:6.86667013" />
      <polygon
         points="579.442,-578.043 578.756,-566.397 568.795,-572.471 579.442,-578.043 "
         id="polygon5931"
         style="fill:#000000;stroke:#000000;stroke-width:6.86667013" />
    </g>
    <!-- 8&#45;&gt;6 -->
    <g
       id="edge58"
       class="edge">
      <title
         id="title5934">8-&gt;6</title>
      <path
         d="m 317.916,-1154.93 c -69.414,201.601 -175.275,630.504 -11.642,934.93 22.341,41.564 64.916,71.803 105.191,92.323"
         id="path5936"
         inkscape:connector-curvature="0"
         style="fill:none;stroke:#000000;stroke-width:3.33332992" />
      <polygon
         points="413.138,-130.755 420.553,-123.188 410.037,-124.479 413.138,-130.755 "
         id="polygon5938"
         style="fill:#000000;stroke:#000000;stroke-width:3.33332992" />
    </g>
    <!-- 8&#45;&gt;7 -->
    <g
       id="edge59"
       class="edge">
      <title
         id="title5941">8-&gt;7</title>
      <path
         d="m 458.319,-1189.37 c 48.37,38.63 107.604,85.16 158.174,124.25"
         id="path5943"
         inkscape:connector-curvature="0"
         style="fill:none;stroke:#000000;stroke-width:3.46667004" />
      <polygon
         points="618.756,-1067.8 624.532,-1058.92 614.478,-1062.26 618.756,-1067.8 "
         id="polygon5945"
         style="fill:#000000;stroke:#000000;stroke-width:3.46667004" />
    </g>
    <!-- 8&#45;&gt;10 -->
    <g
       id="edge60"
       class="edge">
      <title
         id="title5948">8-&gt;10</title>
      <path
         d="m 474.892,-1322.79 c 42.779,-26.39 88.495,-61.99 118.382,-105.21 21.709,-31.4 43.978,-116.76 58.983,-191"
         id="path5950"
         inkscape:connector-curvature="0"
         style="fill:none;stroke:#000000;stroke-width:6.13332987" />
      <polygon
         points="647.018,-1620.17 654.234,-1628.93 657.544,-1618.08 647.018,-1620.17 "
         id="polygon5952"
         style="fill:#000000;stroke:#000000;stroke-width:6.13332987" />
    </g>
    <!-- 9&#45;&gt;2 -->
    <g
       id="edge61"
       class="edge">
      <title
         id="title5955">9-&gt;2</title>
      <path
         d="m 908.743,-808.166 c 4.44,-15.12 8.173,-30.779 10.531,-45.834 17.608,-112.407 7.199,-142.45 0,-256 -21.376,-337.14 117.666,-492.34 -96,-754 -85.458,-104.66 -240.282,-143.21 -353.932,-157.25"
         id="path5957"
         inkscape:connector-curvature="0"
         style="fill:none;stroke:#000000;stroke-width:3.33332992" />
      <polygon
         points="468.685,-2017.81 459.167,-2022.46 469.509,-2024.76 468.685,-2017.81 "
         id="polygon5959"
         style="fill:#000000;stroke:#000000;stroke-width:3.33332992" />
    </g>
    <!-- 9&#45;&gt;5 -->
    <g
       id="edge62"
       class="edge">
      <title
         id="title5962">9-&gt;5</title>
      <path
         d="m 785.366,-654.966 c -37.008,29.13 -79.903,63.704 -113.26,91.322"
         id="path5964"
         inkscape:connector-curvature="0"
         style="fill:none;stroke:#000000;stroke-width:8.80000019" />
      <polygon
         points="676.888,-557.606 664.276,-557.143 667.051,-569.455 676.888,-557.606 "
         id="polygon5966"
         style="fill:#000000;stroke:#000000;stroke-width:8.80000019" />
    </g>
    <!-- 9&#45;&gt;10 -->
    <g
       id="edge63"
       class="edge">
      <title
         id="title5969">9-&gt;10</title>
      <path
         d="m 888.399,-815.362 c 11.187,-79.889 18.947,-195.208 2.875,-294.638 -30.479,-188.56 -109.541,-396.58 -164.668,-521.46"
         id="path5971"
         inkscape:connector-curvature="0"
         style="fill:none;stroke:#000000;stroke-width:4.93333006" />
      <polygon
         points="722.627,-1629.78 722.514,-1640.67 730.517,-1633.29 722.627,-1629.78 "
         id="polygon5973"
         style="fill:#000000;stroke:#000000;stroke-width:4.93333006" />
    </g>
    <!-- 10&#45;&gt;3 -->
    <g
       id="edge64"
       class="edge">
      <title
         id="title5976">10-&gt;3</title>
      <path
         d="m 590.578,-1657.53 c -20.149,24.03 -41.363,49.85 -59.987,73.01"
         id="path5978"
         inkscape:connector-curvature="0"
         style="fill:none;stroke:#000000;stroke-width:10" />
      <polygon
         points="537.199,-1578.77 524.117,-1576.44 523.544,-1589.71 537.199,-1578.77 "
         id="polygon5980"
         style="fill:#000000;stroke:#000000;stroke-width:10" />
    </g>
    <!-- 10&#45;&gt;4 -->
    <g
       id="edge65"
       class="edge">
      <title
         id="title5983">10-&gt;4</title>
      <path
         d="m 650.96,-1629.17 c -6.834,60.15 -14.973,134.76 -24.686,201.17 -64.114,438.339 -87.401,547.215 -182,980 -1.949,8.918 -4.069,18.152 -6.23,27.401"
         id="path5985"
         inkscape:connector-curvature="0"
         style="fill:none;stroke:#000000;stroke-width:4.86667013" />
      <polygon
         points="442.121,-419.334 435.689,-410.572 433.83,-421.281 442.121,-419.334 "
         id="polygon5987"
         style="fill:#000000;stroke:#000000;stroke-width:4.86667013" />
    </g>
    <!-- 10&#45;&gt;6 -->
    <g
       id="edge66"
       class="edge">
      <title
         id="title5990">10-&gt;6</title>
      <path
         d="m 740.976,-1652.26 c 14.39,19.19 28.637,39.82 40.298,60.26 47.189,82.74 50.898,108.4 77,200 95.68,335.79 176.296,435.392 109,778 -36.462,185.62 -27.451,260.027 -161,394 -54.279,54.451 -135.231,86.597 -199.262,104.92"
         id="path5992"
         inkscape:connector-curvature="0"
         style="fill:none;stroke:#000000;stroke-width:8.60000038" />
      <polygon
         points="608.946,-107.808 597.29,-112.367 604.899,-122.303 608.946,-107.808 "
         id="polygon5994"
         style="fill:#000000;stroke:#000000;stroke-width:8.60000038" />
    </g>
    <!-- 10&#45;&gt;7 -->
    <g
       id="edge67"
       class="edge">
      <title
         id="title5997">10-&gt;7</title>
      <path
         d="m 679.007,-1628.19 c 1.569,12.2 3.048,24.43 4.267,36.19 16.757,161.63 26,348.28 32.655,471.9"
         id="path5999"
         inkscape:connector-curvature="0"
         style="fill:none;stroke:#000000;stroke-width:3.33332992" />
      <polygon
         points="719.439,-1120 716.484,-1109.82 712.449,-1119.62 719.439,-1120 "
         id="polygon6001"
         style="fill:#000000;stroke:#000000;stroke-width:3.33332992" />
    </g>
    <!-- 10&#45;&gt;8 -->
    <g
       id="edge68"
       class="edge">
      <title
         id="title6004">10-&gt;8</title>
      <path
         d="m 639.752,-1631.38 c -18,76.87 -41.551,170.22 -64.478,203.38 -24.945,36.08 -60.918,66.84 -96.135,91.37"
         id="path6006"
         inkscape:connector-curvature="0"
         style="fill:none;stroke:#000000;stroke-width:8.93332958" />
      <polygon
         points="483.357,-1330.05 470.69,-1330.85 474.531,-1342.95 483.357,-1330.05 "
         id="polygon6008"
         style="fill:#000000;stroke:#000000;stroke-width:8.93332958" />
    </g>
    <!-- 10&#45;&gt;9 -->
    <g
       id="edge69"
       class="edge">
      <title
         id="title6011">10-&gt;9</title>
      <path
         d="m 711.661,-1635.67 c 50.275,124.37 130.789,334.98 161.613,525.67 15.282,94.54 9.017,203.453 1.707,282.61"
         id="path6013"
         inkscape:connector-curvature="0"
         style="fill:none;stroke:#000000;stroke-width:6.66666985" />
      <polygon
         points="880.786,-826.809 874.039,-817.4 869.171,-827.904 880.786,-826.809 "
         id="polygon6015"
         style="fill:#000000;stroke:#000000;stroke-width:6.66666985" />
    </g>
    <!-- 10&#45;&gt;10 -->
    <g
       id="edge70"
       class="edge">
      <title
         id="title6018">10-&gt;10</title>
      <path
         d="m 780.793,-1785.02 c 14.719,6.65 24.481,19.66 24.481,39.02 0,15.12 -5.958,26.37 -15.583,33.74"
         id="path6020"
         inkscape:connector-curvature="0"
         style="fill:none;stroke:#000000;stroke-width:5.46667004" />
      <polygon
         points="791.834,-1707.97 780.793,-1706.98 786.953,-1716.2 791.834,-1707.97 "
         id="polygon6022"
         style="fill:#000000;stroke:#000000;stroke-width:5.46667004" />
    </g>
  </g>
</svg>
