<?xml version="1.0" encoding="UTF-8" standalone="no"?>
<!-- Generated by graphviz version 2.36.0 (20140111.2315)
 -->

<!-- Title: G Pages: 1 -->

<svg
   xmlns:dc="http://purl.org/dc/elements/1.1/"
   xmlns:cc="http://creativecommons.org/ns#"
   xmlns:rdf="http://www.w3.org/1999/02/22-rdf-syntax-ns#"
   xmlns:svg="http://www.w3.org/2000/svg"
   xmlns="http://www.w3.org/2000/svg"
   xmlns:sodipodi="http://sodipodi.sourceforge.net/DTD/sodipodi-0.dtd"
   xmlns:inkscape="http://www.inkscape.org/namespaces/inkscape"
   width="1181.25"
   height="560.45441"
   viewBox="0 0 944.54308 448.36353"
   id="svg3300"
   version="1.1"
   inkscape:version="0.48.4 r9939"
   sodipodi:docname="PuntaBanda-Par_5_0.dot.svg">
  <metadata
     id="metadata3501">
    <rdf:RDF>
      <cc:Work
         rdf:about="">
        <dc:format>image/svg+xml</dc:format>
        <dc:type
           rdf:resource="http://purl.org/dc/dcmitype/StillImage" />
      </cc:Work>
    </rdf:RDF>
  </metadata>
  <defs
     id="defs3499" />
  <sodipodi:namedview
     pagecolor="#ffffff"
     bordercolor="#666666"
     borderopacity="1"
     objecttolerance="10"
     gridtolerance="10"
     guidetolerance="10"
     inkscape:pageopacity="0"
     inkscape:pageshadow="2"
     inkscape:window-width="701"
     inkscape:window-height="480"
     id="namedview3497"
     showgrid="false"
     fit-margin-top="0"
     fit-margin-left="0"
     fit-margin-right="0"
     fit-margin-bottom="0"
     inkscape:zoom="0.19831933"
     inkscape:cx="590.57045"
     inkscape:cy="280.22955"
     inkscape:window-x="65"
     inkscape:window-y="24"
     inkscape:window-maximized="0"
     inkscape:current-layer="svg3300" />
  <g
     id="graph0"
     class="graph"
     transform="matrix(0,-1,1,0,944.39,447.6135)">
    <title
       id="title3303">G</title>
    <!-- 1 -->
    <g
       id="node1"
       class="node">
      <title
         id="title3306">1</title>
      <path
         d="m 265,-857 c 0,0 87,0 87,0 0,-1.822 -0.057,-3.644 -0.172,-5.463 -0.114,-1.818 -0.286,-3.633 -0.514,-5.441 -0.228,-1.808 -0.514,-3.608 -0.855,-5.398 -0.341,-1.79 -0.739,-3.569 -1.192,-5.334 -0.453,-1.765 -0.962,-3.515 -1.525,-5.248 -0.563,-1.734 -1.181,-3.449 -1.851,-5.143 -0.671,-1.694 -1.395,-3.367 -2.171,-5.016 -0.776,-1.649 -1.603,-3.273 -2.481,-4.87 -0.878,-1.596 -1.806,-3.165 -2.782,-4.704 -0.977,-1.539 -2.001,-3.046 -3.073,-4.52 -1.071,-1.475 -2.188,-2.915 -3.349,-4.319 -1.162,-1.404 -2.367,-2.771 -3.615,-4.1 -1.247,-1.328 -2.536,-2.617 -3.864,-3.864 -1.329,-1.248 -2.696,-2.453 -4.1,-3.615 -1.404,-1.161 -2.844,-2.278 -4.319,-3.349 -1.474,-1.072 -2.981,-2.096 -4.52,-3.073 0,0 -46.617,73.457 -46.617,73.457"
         id="path3308"
         inkscape:connector-curvature="0"
         style="fill:#abdda4;stroke:#000000;stroke-width:0.5" />
      <path
         d="m 265,-857 c 0,0 46.617,-73.457 46.617,-73.457 -1.442,-0.915 -2.912,-1.788 -4.405,-2.617 -1.494,-0.828 -3.012,-1.613 -4.552,-2.353 -1.54,-0.739 -3.102,-1.433 -4.682,-2.081 -1.581,-0.647 -3.181,-1.248 -4.797,-1.801 -1.616,-0.554 -3.249,-1.059 -4.895,-1.517 -1.646,-0.457 -3.305,-0.866 -4.975,-1.225 -1.67,-0.36 -3.35,-0.67 -5.039,-0.931 -1.688,-0.26 -3.384,-0.471 -5.085,-0.632 -1.7,-0.161 -3.406,-0.271 -5.113,-0.332 -1.707,-0.06 -3.416,-0.07 -5.124,-0.03 -1.708,0.04 -3.414,0.131 -5.116,0.272 -1.703,0.14 -3.401,0.331 -5.092,0.572 -1.692,0.241 -3.376,0.531 -5.05,0.871 -1.674,0.34 -3.338,0.729 -4.989,1.167 -1.651,0.438 -3.29,0.924 -4.912,1.458 -1.623,0.535 -3.229,1.117 -4.818,1.745 -1.588,0.629 -3.158,1.305 -4.706,2.026 -1.549,0.721 -3.076,1.488 -4.58,2.299 -1.503,0.812 -2.982,1.667 -4.435,2.565 -1.453,0.899 -2.88,1.84 -4.277,2.822 -1.398,0.982 -2.767,2.006 -4.104,3.068 -1.338,1.063 -2.643,2.165 -3.916,3.305 -1.272,1.14 -2.511,2.317 -3.714,3.53 -1.204,1.212 -2.371,2.46 -3.501,3.742 -1.129,1.281 -2.221,2.596 -3.274,3.942 -1.052,1.345 -2.064,2.722 -3.036,4.127 -0.971,1.405 -1.901,2.839 -2.788,4.299 -0.887,1.46 -1.73,2.946 -2.53,4.456 -0.799,1.51 -1.554,3.043 -2.263,4.597 -0.709,1.554 -1.372,3.129 -1.989,4.722 -0.616,1.594 -1.185,3.205 -1.707,4.832 -0.521,1.626 -0.995,3.268 -1.42,4.923 -0.425,1.655 -0.801,3.322 -1.127,4.998 -0.327,1.677 -0.604,3.363 -0.832,5.056 -0.227,1.694 -0.405,3.393 -0.532,5.097 -0.127,1.703 -0.204,3.41 -0.231,5.118 -0.027,1.709 -0.004,3.417 0.07,5.124 0.074,1.707 0.198,3.411 0.372,5.11 0.174,1.7 0.398,3.394 0.672,5.08 0.274,1.686 0.598,3.364 0.97,5.031 0.373,1.668 0.795,3.324 1.265,4.966 0.47,1.642 0.988,3.271 1.554,4.882 0.566,1.612 1.18,3.207 1.84,4.783 0.66,1.576 1.366,3.132 2.118,4.666 0.751,1.534 1.548,3.046 2.388,4.533 0.841,1.487 1.725,2.949 2.652,4.384 0.927,1.436 1.895,2.843 2.905,4.221 1.009,1.378 2.059,2.727 3.148,4.043 1.089,1.316 2.217,2.6 3.381,3.85 1.165,1.25 2.366,2.465 3.602,3.645 1.236,1.179 2.507,2.321 3.81,3.426 1.304,1.104 2.639,2.17 4.005,3.196 1.367,1.025 2.763,2.011 4.187,2.954 1.424,0.944 2.876,1.845 4.353,2.703 1.477,0.858 2.979,1.672 4.505,2.442 1.525,0.77 3.072,1.494 4.64,2.173 1.568,0.678 3.156,1.31 4.761,1.895 1.605,0.585 3.227,1.123 4.863,1.612 1.637,0.49 3.288,0.931 4.951,1.323 1.662,0.393 3.336,0.736 5.019,1.03 1.683,0.293 3.374,0.537 5.072,0.731 1.697,0.195 3.4,0.339 5.105,0.433 1.706,0.093 3.414,0.137 5.123,0.13 1.708,-0.006 3.416,-0.063 5.121,-0.171 0,0 -5.463,-86.828 -5.463,-86.828"
         id="path3310"
         inkscape:connector-curvature="0"
         style="fill:#2b83ba;stroke:#000000;stroke-width:0.5" />
      <path
         d="m 265,-857 c 0,0 5.463,86.828 5.463,86.828 1.818,-0.114 3.633,-0.286 5.441,-0.514 1.808,-0.228 3.608,-0.514 5.398,-0.855 1.79,-0.341 3.569,-0.739 5.334,-1.192 1.765,-0.453 3.515,-0.962 5.248,-1.525 1.734,-0.563 3.449,-1.181 5.143,-1.851 1.694,-0.671 3.367,-1.395 5.016,-2.171 1.649,-0.776 3.273,-1.603 4.87,-2.481 1.596,-0.878 3.165,-1.806 4.704,-2.782 0,0 -46.617,-73.457 -46.617,-73.457"
         id="path3312"
         inkscape:connector-curvature="0"
         style="fill:#fdae61;stroke:#000000;stroke-width:0.5" />
      <path
         d="m 265,-857 c 0,0 46.617,73.457 46.617,73.457 1.539,-0.977 3.046,-2.001 4.52,-3.073 1.475,-1.071 2.915,-2.188 4.319,-3.349 1.404,-1.162 2.771,-2.367 4.1,-3.615 1.328,-1.247 2.617,-2.536 3.864,-3.864 1.248,-1.329 2.453,-2.696 3.615,-4.1 1.161,-1.404 2.278,-2.844 3.349,-4.319 1.072,-1.474 2.096,-2.981 3.073,-4.52 0.976,-1.539 1.904,-3.108 2.782,-4.704 0.878,-1.597 1.705,-3.221 2.481,-4.87 0.776,-1.649 1.5,-3.322 2.171,-5.016 0.67,-1.694 1.288,-3.409 1.851,-5.143 0.563,-1.733 1.072,-3.483 1.525,-5.248 0.453,-1.765 0.851,-3.544 1.192,-5.334 0.341,-1.79 0.627,-3.59 0.855,-5.398 0.228,-1.808 0.4,-3.623 0.514,-5.441 0.115,-1.819 0.172,-3.641 0.172,-5.463 0,0 -87,0 -87,0"
         id="path3314"
         inkscape:connector-curvature="0"
         style="fill:#d7191c;stroke:#000000;stroke-width:0.5" />
      <ellipse
         cx="265"
         cy="-857"
         rx="87"
         ry="87"
         id="ellipse3316"
         d="m 352,-857 c 0,48.04877 -38.95123,87 -87,87 -48.04877,0 -87,-38.95123 -87,-87 0,-48.04877 38.95123,-87 87,-87 48.04877,0 87,38.95123 87,87 z"
         sodipodi:cx="265"
         sodipodi:cy="-857"
         sodipodi:rx="87"
         sodipodi:ry="87"
         style="fill:none;stroke:#000000" />
    </g>
    <!-- 1&#45;&gt;1 -->
    <g
       id="edge1"
       class="edge">
      <title
         id="title3319">1-&gt;1</title>
      <path
         d="m 342.844,-896.316 c 15.824,4.283 27.156,17.388 27.156,39.316 0,17.302 -7.055,29.112 -17.806,35.428"
         id="path3321"
         inkscape:connector-curvature="0"
         style="fill:none;stroke:#000000;stroke-width:1.89999998" />
      <polygon
         points="353.421,-818.292 342.844,-817.684 350.734,-824.755 353.421,-818.292 "
         id="polygon3323"
         style="fill:#000000;stroke:#000000;stroke-width:1.89999998" />
    </g>
    <!-- 2 -->
    <g
       id="node2"
       class="node">
      <title
         id="title3326">2</title>
      <path
         d="m 190,-638 c 0,0 96,0 96,0 0,-2.472 -0.096,-4.944 -0.286,-7.409 -0.191,-2.465 -0.477,-4.922 -0.858,-7.364 -0.38,-2.443 -0.855,-4.871 -1.423,-7.277 -0.567,-2.406 -1.228,-4.79 -1.98,-7.145 -0.752,-2.355 -1.594,-4.681 -2.526,-6.971 -0.931,-2.29 -1.951,-4.543 -3.056,-6.755 -1.106,-2.212 -2.296,-4.38 -3.569,-6.499 -1.273,-2.12 -2.627,-4.189 -4.059,-6.204 0,0 -78.243,55.624 -78.243,55.624"
         id="path3328"
         inkscape:connector-curvature="0"
         style="fill:#abdda4;stroke:#000000;stroke-width:0.5" />
      <path
         d="m 190,-638 c 0,0 78.243,-55.624 78.243,-55.624 -1.194,-1.68 -2.442,-3.32 -3.741,-4.919 -1.299,-1.599 -2.65,-3.155 -4.049,-4.667 -1.399,-1.512 -2.847,-2.979 -4.341,-4.398 -1.494,-1.418 -3.033,-2.789 -4.615,-4.109 -1.582,-1.319 -3.206,-2.588 -4.87,-3.803 -1.663,-1.215 -3.366,-2.377 -5.104,-3.482 -1.739,-1.106 -3.512,-2.156 -5.318,-3.147 -1.806,-0.992 -3.643,-1.925 -5.509,-2.798 0,0 -40.696,86.947 -40.696,86.947"
         id="path3330"
         inkscape:connector-curvature="0"
         style="fill:#2b83ba;stroke:#000000;stroke-width:0.5" />
      <path
         d="m 190,-638 c 0,0 40.696,-86.947 40.696,-86.947 -1.586,-0.743 -3.192,-1.442 -4.817,-2.096 -1.624,-0.655 -3.266,-1.264 -4.923,-1.829 -1.658,-0.565 -3.331,-1.084 -5.017,-1.557 -1.686,-0.473 -3.384,-0.9 -5.094,-1.281 -1.709,-0.38 -3.429,-0.713 -5.156,-0.999 -1.728,-0.287 -3.463,-0.525 -5.204,-0.717 -1.74,-0.191 -3.486,-0.335 -5.234,-0.43 -1.749,-0.096 -3.5,-0.144 -5.251,-0.144 -1.751,0 -3.502,0.048 -5.251,0.144 -1.748,0.095 -3.494,0.239 -5.234,0.43 -1.741,0.192 -3.476,0.43 -5.204,0.717 -1.727,0.286 -3.447,0.619 -5.156,0.999 -1.71,0.381 -3.408,0.808 -5.094,1.281 -1.686,0.473 -3.359,0.992 -5.017,1.557 -1.657,0.565 -3.299,1.174 -4.923,1.829 -1.625,0.654 -3.231,1.353 -4.817,2.096 -1.586,0.742 -3.151,1.528 -4.694,2.356 -1.543,0.827 -3.063,1.698 -4.559,2.609 -1.495,0.911 -2.966,1.863 -4.409,2.854 -1.443,0.992 -2.859,2.023 -4.246,3.092 -1.387,1.069 -2.745,2.175 -4.071,3.319 -1.327,1.143 -2.622,2.322 -3.884,3.536 -1.262,1.215 -2.49,2.463 -3.684,3.744 -1.193,1.282 -2.352,2.595 -3.474,3.94 -1.121,1.345 -2.206,2.72 -3.253,4.124 -1.046,1.404 -2.054,2.836 -3.022,4.295 -0.969,1.46 -1.897,2.945 -2.784,4.455 -0.887,1.51 -1.732,3.044 -2.535,4.6 -0.803,1.556 -1.563,3.134 -2.28,4.732 -0.717,1.598 -1.39,3.215 -2.018,4.849 -0.6282,1.635 -1.2116,3.286 -1.7495,4.953 -0.538,1.666 -1.0302,3.347 -1.4762,5.041 0,0 92.8347,24.448 92.8347,24.448"
         id="path3332"
         inkscape:connector-curvature="0"
         style="fill:#fdae61;stroke:#000000;stroke-width:0.5" />
      <path
         d="m 190,-638 c 0,0 -92.8347,-24.448 -92.8347,-24.448 -0.4328,1.643 -0.8219,3.298 -1.1669,4.962 -0.345,1.665 -0.6457,3.338 -0.9019,5.018 -0.2562,1.68 -0.4676,3.367 -0.6342,5.058 -0.1666,1.692 -0.2883,3.387 -0.3648,5.085 -0.0766,1.698 -0.1081,3.398 -0.0944,5.098 0.0137,1.699 0.0725,3.398 0.1764,5.095 0.1039,1.696 0.2528,3.389 0.4466,5.078 0.1938,1.689 0.4324,3.372 0.7155,5.048 0.2832,1.675 0.6108,3.344 0.9825,5.002 0.3718,1.659 0.7875,3.307 1.2467,4.943 0.4593,1.637 0.9619,3.261 1.5074,4.87 0.5454,1.61 1.1338,3.205 1.7638,4.784 0.63,1.578 1.302,3.14 2.015,4.683 0.713,1.542 1.467,3.066 2.261,4.569 0.794,1.503 1.628,2.984 2.5,4.443 0.873,1.458 1.784,2.893 2.733,4.303 0.949,1.411 1.935,2.795 2.957,4.153 1.023,1.358 2.081,2.688 3.174,3.99 1.093,1.302 2.22,2.574 3.381,3.816 1.16,1.241 2.354,2.452 3.578,3.631 1.225,1.178 2.481,2.324 3.767,3.435 1.285,1.112 2.6,2.189 3.943,3.231 1.343,1.042 2.713,2.048 4.11,3.017 1.396,0.97 2.818,1.901 4.263,2.795 1.446,0.894 2.915,1.749 4.406,2.565 1.492,0.815 3.004,1.591 4.537,2.326 1.532,0.736 3.083,1.43 4.653,2.083 1.569,0.653 3.155,1.264 4.757,1.833 1.602,0.569 3.218,1.095 4.848,1.578 1.629,0.483 3.271,0.922 4.924,1.318 1.653,0.396 3.316,0.747 4.988,1.055 1.672,0.307 3.351,0.57 5.037,0.788 1.685,0.219 3.376,0.392 5.071,0.52 1.695,0.129 3.393,0.212 5.092,0.251 1.699,0.038 3.399,0.031 5.098,-0.021 1.699,-0.052 3.396,-0.149 5.09,-0.291 1.694,-0.142 3.383,-0.329 5.067,-0.561 1.684,-0.232 3.361,-0.508 5.03,-0.829 1.669,-0.321 3.33,-0.686 4.979,-1.095 1.65,-0.409 3.288,-0.862 4.914,-1.358 1.626,-0.496 3.238,-1.035 4.835,-1.616 1.597,-0.582 3.178,-1.206 4.742,-1.871 1.564,-0.666 3.11,-1.373 4.637,-2.121 1.526,-0.747 3.032,-1.535 4.517,-2.363 1.484,-0.828 2.947,-1.694 4.385,-2.6 1.439,-0.905 2.853,-1.848 4.241,-2.829 1.389,-0.98 2.751,-1.997 4.085,-3.05 1.335,-1.052 2.641,-2.14 3.918,-3.262 1.276,-1.122 2.523,-2.278 3.738,-3.466 1.215,-1.189 2.399,-2.409 3.55,-3.66 1.15,-1.251 2.267,-2.532 3.35,-3.843 1.082,-1.31 2.13,-2.649 3.141,-4.015 1.011,-1.366 1.986,-2.759 2.924,-4.176 0.937,-1.418 1.837,-2.86 2.698,-4.326 0.86,-1.465 1.682,-2.954 2.464,-4.463 0.782,-1.509 1.524,-3.039 2.224,-4.587 0.701,-1.549 1.36,-3.115 1.978,-4.699 0.617,-1.583 1.192,-3.183 1.725,-4.797 0.532,-1.614 1.022,-3.242 1.468,-4.882 0.446,-1.64 0.848,-3.292 1.207,-4.953 0.358,-1.662 0.672,-3.333 0.942,-5.011 0.27,-1.678 0.495,-3.363 0.675,-5.053 0.18,-1.69 0.315,-3.384 0.406,-5.082 0.09,-1.697 0.135,-3.396 0.135,-5.096 0,0 -96,0 -96,0"
         id="path3334"
         inkscape:connector-curvature="0"
         style="fill:#d7191c;stroke:#000000;stroke-width:0.5" />
      <ellipse
         cx="190"
         cy="-638"
         rx="96"
         ry="96"
         id="ellipse3336"
         d="m 286,-638 c 0,53.01934 -42.98066,96 -96,96 -53.01934,0 -96,-42.98066 -96,-96 0,-53.01934 42.98066,-96 96,-96 53.01934,0 96,42.98066 96,96 z"
         sodipodi:cx="190"
         sodipodi:cy="-638"
         sodipodi:rx="96"
         sodipodi:ry="96"
         style="fill:none;stroke:#000000" />
    </g>
    <!-- 1&#45;&gt;2 -->
    <g
       id="edge2"
       class="edge">
      <title
         id="title3339">1-&gt;2</title>
      <path
         d="m 236.859,-774.58 c -4.067,11.767 -8.29,23.988 -12.463,36.06"
         id="path3341"
         inkscape:connector-curvature="0"
         style="fill:none;stroke:#000000;stroke-width:1.76666999" />
      <polygon
         points="227.64,-737.191 221.065,-728.883 221.024,-739.477 227.64,-737.191 "
         id="polygon3343"
         style="fill:#000000;stroke:#000000;stroke-width:1.76666999" />
    </g>
    <!-- 3 -->
    <g
       id="node3"
       class="node">
      <title
         id="title3346">3</title>
      <ellipse
         cx="67"
         cy="-438"
         rx="67.25"
         ry="67.5"
         id="ellipse3348"
         d="m 134.25,-438 c 0,37.27922 -30.10885,67.5 -67.25,67.5 -37.141149,0 -67.25,-30.22078 -67.25,-67.5 0,-37.27922 30.108851,-67.5 67.25,-67.5 37.14115,0 67.25,30.22078 67.25,67.5 z"
         sodipodi:cx="67"
         sodipodi:cy="-438"
         sodipodi:rx="67.25"
         sodipodi:ry="67.5"
         style="fill:#fdae61;stroke:#000000" />
    </g>
    <!-- 1&#45;&gt;3 -->
    <g
       id="edge3"
       class="edge">
      <title
         id="title3351">1-&gt;3</title>
      <path
         d="M 183.658,-825.779 C 143.876,-805.765 99.6476,-775.49 76,-734 37.6717,-666.753 38.2643,-576.325 47.0587,-513.385"
         id="path3353"
         inkscape:connector-curvature="0"
         style="fill:none;stroke:#000000;stroke-width:3.79999995" />
      <polygon
         points="50.5736,-513.547 48.5984,-503.138 43.6513,-512.507 50.5736,-513.547 "
         id="polygon3355"
         style="fill:#000000;stroke:#000000;stroke-width:3.79999995" />
    </g>
    <!-- 4 -->
    <g
       id="node4"
       class="node">
      <title
         id="title3358">4</title>
      <path
         d="m 190,-75 c 0,0 74.5,0 74.5,0 0,-2.1099 -0.088,-4.2189 -0.265,-6.3213 -0.177,-2.1024 -0.441,-4.1964 -0.793,-6.2763 -0.352,-2.0799 -0.792,-4.144 -1.316,-6.1867 -0.525,-2.0426 -1.136,-4.0621 -1.83,-6.0529 C 260.296,-99.8372 190,-75 190,-75"
         id="path3360"
         inkscape:connector-curvature="0"
         style="fill:#fdae61;stroke:#000000;stroke-width:0.5" />
      <path
         d="m 190,-75 c 0,0 70.296,-24.8372 70.296,-24.8372 -0.764,-2.1918 -1.629,-4.3468 -2.592,-6.4578 -0.962,-2.111 -2.022,-4.176 -3.175,-6.188 -1.154,-2.012 -2.399,-3.969 -3.733,-5.865 -1.333,-1.895 -2.754,-3.728 -4.256,-5.491 -1.503,-1.762 -3.086,-3.454 -4.744,-5.069 -1.659,-1.615 -3.391,-3.152 -5.191,-4.605 -1.801,-1.453 -3.667,-2.821 -5.593,-4.1 -1.927,-1.279 -3.911,-2.467 -5.947,-3.56 -2.036,-1.093 -4.121,-2.091 -6.249,-2.989 -2.128,-0.899 -4.296,-1.697 -6.497,-2.393 -2.202,-0.696 -4.434,-1.289 -6.69,-1.776 -2.256,-0.487 -4.534,-0.869 -6.825,-1.143 -2.291,-0.275 -4.594,-0.442 -6.901,-0.502 -2.306,-0.059 -4.615,-0.01 -6.917,0.146 -2.302,0.156 -4.596,0.42 -6.874,0.791 -2.278,0.371 -4.537,0.848 -6.771,1.429 -2.234,0.582 -4.44,1.268 -6.61,2.056 -2.171,0.788 -4.304,1.677 -6.393,2.664 -2.089,0.987 -4.131,2.072 -6.119,3.25 -1.989,1.178 -3.922,2.448 -5.794,3.807 -1.872,1.359 -3.679,2.804 -5.418,4.332 -1.738,1.527 -3.405,3.135 -4.995,4.819 -1.59,1.683 -3.102,3.44 -4.53,5.265 -1.428,1.824 -2.771,3.715 -4.025,5.665 -1.253,1.95 -2.416,3.958 -3.485,6.016 -1.069,2.059 -2.042,4.167 -2.916,6.316 -0.875,2.15 -1.649,4.3396 -2.322,6.5617 -0.672,2.2221 -1.242,4.4745 -1.707,6.7498 -0.465,2.2753 -0.824,4.5711 -1.077,6.88 -0.253,2.3089 -0.4,4.6284 -0.439,6.951 -0.039,2.3226 0.028,4.6458 0.203,6.9621 0.175,2.3162 0.457,4.6231 0.844,6.913 0.388,2.2899 0.881,4.5605 1.478,6.8044 0.597,2.2438 1.297,4.4586 2.098,6.637 0.801,2.1784 1.703,4.3182 2.701,6.4125 0.998,2.0942 2.093,4.1406 3.28,6.1326 1.187,1.9919 2.465,3.9273 3.831,5.7998 1.365,1.8725 2.817,3.6801 4.349,5.4171 1.532,1.7369 3.143,3.4012 4.829,4.9875 1.686,1.5863 3.444,3.093 5.268,4.515 1.825,1.4221 3.714,2.7581 5.662,4.0036 1.947,1.2456 3.951,2.39934 6.005,3.45762 2.055,1.05827 4.156,2.01991 6.299,2.88179 2.143,0.86189 4.324,1.62309 6.537,2.28114 2.213,0.65806 4.455,1.21226 6.719,1.66081 2.264,0.448559 4.548,0.790981 6.843,1.026164 2.296,0.235183 4.601,0.3628723 6.909,0.38265595 2.307,0.01978365 4.614,-0.06836015 6.913,-0.26414595 2.299,-0.195787 4.588,-0.499004 6.86,-0.908674 2.271,-0.40966 4.522,-0.92534 6.746,-1.54536 2.224,-0.62001 4.417,-1.3437 6.574,-2.16871 2.158,-0.82502 4.275,-1.75048 6.347,-2.77338 2.072,-1.0229 4.095,-2.14215 6.064,-3.35411 1.968,-1.212 3.88,-2.5153 5.728,-3.9059 1.848,-1.3906 3.631,-2.8669 5.344,-4.4241 1.712,-1.5572 3.351,-3.1936 4.913,-4.904 1.561,-1.7104 3.042,-3.4929 4.439,-5.3417 1.397,-1.8488 2.708,-3.762 3.929,-5.7333 1.221,-1.9713 2.35,-3.9986 3.383,-6.0755 1.034,-2.0768 1.971,-4.2008 2.809,-6.3652 0.838,-2.1644 1.575,-4.3668 2.21,-6.6001 0.635,-2.2333 1.166,-4.4951 1.593,-6.778 0.426,-2.283 0.747,-4.5846 0.961,-6.8976 0.214,-2.3129 0.321,-4.6346 0.321,-6.9575 0,0 -74.5,0 -74.5,0"
         id="path3362"
         inkscape:connector-curvature="0"
         style="fill:#d7191c;stroke:#000000;stroke-width:0.5" />
      <ellipse
         cx="190"
         cy="-75"
         rx="74.5"
         ry="75"
         id="ellipse3364"
         d="m 264.5,-75 c 0,41.421356 -33.35479,75 -74.5,75 -41.14521,0 -74.5,-33.578644 -74.5,-75 0,-41.42136 33.35479,-75 74.5,-75 41.14521,0 74.5,33.57864 74.5,75 z"
         sodipodi:cx="190"
         sodipodi:cy="-75"
         sodipodi:rx="74.5"
         sodipodi:ry="75"
         style="fill:none;stroke:#000000" />
    </g>
    <!-- 1&#45;&gt;4 -->
    <g
       id="edge4"
       class="edge">
      <title
         id="title3367">1-&gt;4</title>
      <path
         d="m 317.431,-787.366 c 10.434,16.687 20.142,35.03 26.569,53.366 80.784,230.455 162.925,336.991 40,548 -24.37,41.833 -71.218,69.044 -112.771,85.936"
         id="path3369"
         inkscape:connector-curvature="0"
         style="fill:none;stroke:#000000;stroke-width:1.86667001" />
      <polygon
         points="272.491,-96.7998 261.904,-96.4068 269.935,-103.317 272.491,-96.7998 "
         id="polygon3371"
         style="fill:#000000;stroke:#000000;stroke-width:1.86667001" />
    </g>
    <!-- 5 -->
    <g
       id="node5"
       class="node">
      <title
         id="title3374">5</title>
      <ellipse
         cx="301"
         cy="-260"
         rx="74"
         ry="74"
         id="ellipse3376"
         d="m 375,-260 c 0,40.86907 -33.13093,74 -74,74 -40.86907,0 -74,-33.13093 -74,-74 0,-40.86907 33.13093,-74 74,-74 40.86907,0 74,33.13093 74,74 z"
         sodipodi:cx="301"
         sodipodi:cy="-260"
         sodipodi:rx="74"
         sodipodi:ry="74"
         style="fill:#fdae61;stroke:#000000" />
    </g>
    <!-- 1&#45;&gt;5 -->
    <g
       id="edge5"
       class="edge">
      <title
         id="title3379">1-&gt;5</title>
      <path
         d="m 292.967,-774.559 c 4.5,13.312 8.488,27.142 11.033,40.559 25.548,134.713 12.678,294.842 3.123,389.973"
         id="path3381"
         inkscape:connector-curvature="0"
         style="fill:none;stroke:#000000;stroke-width:2.93333006" />
      <polygon
         points="310.586,-343.487 306.094,-333.891 303.622,-344.194 310.586,-343.487 "
         id="polygon3383"
         style="fill:#000000;stroke:#000000;stroke-width:2.93333006" />
    </g>
    <!-- 2&#45;&gt;2 -->
    <g
       id="edge6"
       class="edge">
      <title
         id="title3386">2-&gt;2</title>
      <path
         d="m 279.845,-672.534 c 14.34,5.054 24.155,16.565 24.155,34.534 0,13.898 -5.872,23.932 -15.167,30.104"
         id="path3388"
         inkscape:connector-curvature="0"
         style="fill:none;stroke:#000000;stroke-width:1.73333001" />
      <polygon
         points="290.362,-604.747 279.845,-603.466 287.268,-611.026 290.362,-604.747 "
         id="polygon3390"
         style="fill:#000000;stroke:#000000;stroke-width:1.73333001" />
    </g>
    <!-- 2&#45;&gt;3 -->
    <g
       id="edge7"
       class="edge">
      <title
         id="title3393">2-&gt;3</title>
      <path
         d="m 134.951,-559.029 c -10.933,17.233 -22.136,35.357 -32.229,52.151"
         id="path3395"
         inkscape:connector-curvature="0"
         style="fill:none;stroke:#000000;stroke-width:1.66666996" />
      <polygon
         points="105.688,-505.017 97.5532,-498.229 99.679,-508.608 105.688,-505.017 "
         id="polygon3397"
         style="fill:#000000;stroke:#000000;stroke-width:1.66666996" />
    </g>
    <!-- 2&#45;&gt;4 -->
    <g
       id="edge8"
       class="edge">
      <title
         id="title3400">2-&gt;4</title>
      <path
         d="m 184.783,-541.834 c -2.117,106.989 -2.041,279.091 0.226,381.451"
         id="path3402"
         inkscape:connector-curvature="0"
         style="fill:none;stroke:#000000;stroke-width:1.79999995" />
      <polygon
         points="188.515,-160.169 185.25,-150.089 181.517,-160.005 188.515,-160.169 "
         id="polygon3404"
         style="fill:#000000;stroke:#000000;stroke-width:1.79999995" />
    </g>
    <!-- 2&#45;&gt;5 -->
    <g
       id="edge9"
       class="edge">
      <title
         id="title3407">2-&gt;5</title>
      <path
         d="m 211.522,-544.056 c 17.371,62.933 41.747,145.152 60.759,204.75"
         id="path3409"
         inkscape:connector-curvature="0"
         style="fill:none;stroke:#000000;stroke-width:1.73333001" />
      <polygon
         points="275.682,-340.161 275.404,-329.57 269.017,-338.023 275.682,-340.161 "
         id="polygon3411"
         style="fill:#000000;stroke:#000000;stroke-width:1.73333001" />
    </g>
    <!-- 3&#45;&gt;1 -->
    <g
       id="edge10"
       class="edge">
      <title
         id="title3414">3-&gt;1</title>
      <path
         d="M 62.0478,-505.529 C 56.3845,-568.612 54.0461,-663.901 94,-734 c 19.223,-33.727 52.046,-60.044 83.859,-79.461"
         id="path3416"
         inkscape:connector-curvature="0"
         style="fill:none;stroke:#000000;stroke-width:1.73333001" />
      <polygon
         points="176.405,-816.668 186.793,-818.756 179.974,-810.646 176.405,-816.668 "
         id="polygon3418"
         style="fill:#000000;stroke:#000000;stroke-width:1.73333001" />
    </g>
    <!-- 3&#45;&gt;2 -->
    <g
       id="edge11"
       class="edge">
      <title
         id="title3421">3-&gt;2</title>
      <path
         d="m 106.516,-492.821 c 10.465,-16.027 21.888,-34.064 32.843,-51.815"
         id="path3423"
         inkscape:connector-curvature="0"
         style="fill:none;stroke:#000000;stroke-width:2.46667004" />
      <polygon
         points="136.476,-546.629 144.693,-553.317 142.44,-542.965 136.476,-546.629 "
         id="polygon3425"
         style="fill:#000000;stroke:#000000;stroke-width:2.46667004" />
    </g>
    <!-- 3&#45;&gt;3 -->
    <g
       id="edge12"
       class="edge">
      <title
         id="title3428">3-&gt;3</title>
      <path
         d="m 125.795,-470.976 c 14.968,2.168 26.205,13.16 26.205,32.976 0,15.172 -6.587,25.171 -16.392,29.998"
         id="path3430"
         inkscape:connector-curvature="0"
         style="fill:none;stroke:#000000;stroke-width:3.70000005" />
      <polygon
         points="136.38,-404.579 125.795,-405.024 134.347,-411.278 136.38,-404.579 "
         id="polygon3432"
         style="fill:#000000;stroke:#000000;stroke-width:3.70000005" />
    </g>
    <!-- 3&#45;&gt;4 -->
    <g
       id="edge13"
       class="edge">
      <title
         id="title3435">3-&gt;4</title>
      <path
         d="m 83.6741,-372.46 c 19.0899,61.275 50.3869,153.47 74.1859,218.754"
         id="path3437"
         inkscape:connector-curvature="0"
         style="fill:none;stroke:#000000;stroke-width:2.26666999" />
      <polygon
         points="161.162,-154.87 161.315,-144.276 154.589,-152.462 161.162,-154.87 "
         id="polygon3439"
         style="fill:#000000;stroke:#000000;stroke-width:2.26666999" />
    </g>
    <!-- 3&#45;&gt;5 -->
    <g
       id="edge14"
       class="edge">
      <title
         id="title3442">3-&gt;5</title>
      <path
         d="m 120.391,-396.843 c 33.734,25.373 77.603,58.368 113.658,85.487"
         id="path3444"
         inkscape:connector-curvature="0"
         style="fill:none;stroke:#000000;stroke-width:3.63333011" />
      <polygon
         points="236.2,-314.118 242.088,-305.31 231.993,-308.524 236.2,-314.118 "
         id="polygon3446"
         style="fill:#000000;stroke:#000000;stroke-width:3.63333011" />
    </g>
    <!-- 4&#45;&gt;2 -->
    <g
       id="edge15"
       class="edge">
      <title
         id="title3449">4-&gt;2</title>
      <path
         d="m 194.75,-150.089 c 2.425,-97.706 2.645,-270.236 0.659,-381.507"
         id="path3451"
         inkscape:connector-curvature="0"
         style="fill:none;stroke:#000000;stroke-width:1.66666996" />
      <polygon
         points="191.906,-531.77 195.217,-541.834 198.904,-531.902 191.906,-531.77 "
         id="polygon3453"
         style="fill:#000000;stroke:#000000;stroke-width:1.66666996" />
    </g>
    <!-- 4&#45;&gt;3 -->
    <g
       id="edge16"
       class="edge">
      <title
         id="title3456">4-&gt;3</title>
      <path
         d="M 171.054,-147.796 C 151.098,-211.22 119.756,-303.18 96.5837,-366.28"
         id="path3458"
         inkscape:connector-curvature="0"
         style="fill:none;stroke:#000000;stroke-width:5" />
      <polygon
         points="92.4424,-364.865 93.0823,-375.761 100.651,-367.896 92.4424,-364.865 "
         id="polygon3460"
         style="fill:#000000;stroke:#000000;stroke-width:5" />
    </g>
    <!-- 4&#45;&gt;4 -->
    <g
       id="edge17"
       class="edge">
      <title
         id="title3463">4-&gt;4</title>
      <path
         d="m 256.985,-108.481 c 14.5,3.274 25.015,14.4341 25.015,33.481 0,14.5828 -6.164,24.5425 -15.561,29.8794"
         id="path3465"
         inkscape:connector-curvature="0"
         style="fill:none;stroke:#000000;stroke-width:2.5" />
      <polygon
         points="267.576,-41.8082 256.985,-41.5192 265.084,-48.3497 267.576,-41.8082 "
         id="polygon3467"
         style="fill:#000000;stroke:#000000;stroke-width:2.5" />
    </g>
    <!-- 4&#45;&gt;5 -->
    <g
       id="edge18"
       class="edge">
      <title
         id="title3470">4-&gt;5</title>
      <path
         d="m 233.014,-136.38 c 9.775,-15.502 20.082,-32.357 29.649,-48.468"
         id="path3472"
         inkscape:connector-curvature="0"
         style="fill:none;stroke:#000000;stroke-width:1.73333001" />
      <polygon
         points="259.796,-186.876 267.894,-193.708 265.824,-183.317 259.796,-186.876 "
         id="polygon3474"
         style="fill:#000000;stroke:#000000;stroke-width:1.73333001" />
    </g>
    <!-- 5&#45;&gt;1 -->
    <g
       id="edge19"
       class="edge">
      <title
         id="title3477">5-&gt;1</title>
      <path
         d="M 318.276,-332.276 C 333.517,-425.524 348.632,-593.572 322,-734 c -2.366,-12.474 -5.979,-25.304 -10.278,-37.743"
         id="path3479"
         inkscape:connector-curvature="0"
         style="fill:none;stroke:#000000;stroke-width:1.66666996" />
      <polygon
         points="308.424,-770.573 308.311,-781.167 315.006,-772.956 308.424,-770.573 "
         id="polygon3481"
         style="fill:#000000;stroke:#000000;stroke-width:1.66666996" />
    </g>
    <!-- 5&#45;&gt;2 -->
    <g
       id="edge20"
       class="edge">
      <title
         id="title3484">5-&gt;2</title>
      <path
         d="m 285.293,-332.615 c -15.619,-58.07 -39.772,-140.561 -59.927,-205.022"
         id="path3486"
         inkscape:connector-curvature="0"
         style="fill:none;stroke:#000000;stroke-width:1.70000005" />
      <polygon
         points="221.952,-536.827 222.296,-547.416 228.631,-538.924 221.952,-536.827 "
         id="polygon3488"
         style="fill:#000000;stroke:#000000;stroke-width:1.70000005" />
    </g>
    <!-- 5&#45;&gt;4 -->
    <g
       id="edge21"
       class="edge">
      <title
         id="title3491">5-&gt;4</title>
      <path
         d="m 258.435,-199.332 c -9.721,15.401 -19.989,32.176 -29.547,48.252"
         id="path3493"
         inkscape:connector-curvature="0"
         style="fill:none;stroke:#000000;stroke-width:4.63332987" />
      <polygon
         points="232.237,-148.779 223.659,-142.233 225.257,-152.905 232.237,-148.779 "
         id="polygon3495"
         style="fill:#000000;stroke:#000000;stroke-width:4.63332987" />
    </g>
  </g>
</svg>
