<?xml version="1.0" encoding="UTF-8" standalone="no"?>
<!-- Generated by graphviz version 2.36.0 (20140111.2315)
 -->

<!-- Title: G Pages: 1 -->

<svg
   xmlns:dc="http://purl.org/dc/elements/1.1/"
   xmlns:cc="http://creativecommons.org/ns#"
   xmlns:rdf="http://www.w3.org/1999/02/22-rdf-syntax-ns#"
   xmlns:svg="http://www.w3.org/2000/svg"
   xmlns="http://www.w3.org/2000/svg"
   xmlns:sodipodi="http://sodipodi.sourceforge.net/DTD/sodipodi-0.dtd"
   xmlns:inkscape="http://www.inkscape.org/namespaces/inkscape"
   width="560.625"
   height="265.46875"
   viewBox="0 0 448.5 212.375"
   id="svg4931"
   version="1.1"
   inkscape:version="0.48.4 r9939"
   sodipodi:docname="PuntaBanda-ParCon_3_1.dot.svg">
  <metadata
     id="metadata5031">
    <rdf:RDF>
      <cc:Work
         rdf:about="">
        <dc:format>image/svg+xml</dc:format>
        <dc:type
           rdf:resource="http://purl.org/dc/dcmitype/StillImage" />
      </cc:Work>
    </rdf:RDF>
  </metadata>
  <defs
     id="defs5029" />
  <sodipodi:namedview
     pagecolor="#ffffff"
     bordercolor="#666666"
     borderopacity="1"
     objecttolerance="10"
     gridtolerance="10"
     guidetolerance="10"
     inkscape:pageopacity="0"
     inkscape:pageshadow="2"
     inkscape:window-width="701"
     inkscape:window-height="480"
     id="namedview5027"
     showgrid="false"
     fit-margin-top="0"
     fit-margin-left="0"
     fit-margin-right="0"
     fit-margin-bottom="0"
     inkscape:zoom="0.41403509"
     inkscape:cx="280.4"
     inkscape:cy="100.48327"
     inkscape:window-x="65"
     inkscape:window-y="24"
     inkscape:window-maximized="0"
     inkscape:current-layer="svg4931" />
  <g
     id="graph0"
     class="graph"
     transform="matrix(0,-1,1,0,448.5,211.625)">
    <title
       id="title4934">G</title>
    <!-- 1 -->
    <g
       id="node1"
       class="node">
      <title
         id="title4937">1</title>
      <path
         d="m 128,-383 c 0,0 65,0 65,0 0,-1.326 -0.041,-2.652 -0.122,-3.976 -0.081,-1.323 -0.202,-2.644 -0.364,-3.96 -0.162,-1.316 -0.364,-2.627 -0.606,-3.931 -0.243,-1.304 -0.525,-2.6 -0.846,-3.887 -0.321,-1.286 -0.682,-2.563 -1.081,-3.827 -0.4,-1.265 -0.838,-2.516 -1.314,-3.754 -0.476,-1.238 -0.99,-2.461 -1.541,-3.667 -0.551,-1.206 -1.138,-2.395 -1.762,-3.566 0,0 -57.364,30.568 -57.364,30.568"
         id="path4939"
         inkscape:connector-curvature="0"
         style="fill:#abdda4;stroke:#000000;stroke-width:0.5" />
      <path
         d="m 128,-383 c 0,0 57.364,-30.568 57.364,-30.568 -0.78,-1.463 -1.615,-2.895 -2.504,-4.294 -0.889,-1.399 -1.831,-2.764 -2.825,-4.091 -0.993,-1.327 -2.037,-2.616 -3.129,-3.863 -1.092,-1.247 -2.231,-2.452 -3.415,-3.612 -1.184,-1.161 -2.412,-2.275 -3.682,-3.341 -1.269,-1.066 -2.578,-2.084 -3.925,-3.05 -1.348,-0.966 -2.731,-1.88 -4.148,-2.741 -1.417,-0.86 -2.866,-1.666 -4.345,-2.416 -1.478,-0.749 -2.985,-1.442 -4.517,-2.076 -1.531,-0.635 -3.086,-1.21 -4.662,-1.726 -1.575,-0.515 -3.17,-0.97 -4.78,-1.364 -1.611,-0.393 -3.235,-0.725 -4.871,-0.994 -1.636,-0.27 -3.281,-0.476 -4.933,-0.62 -1.651,-0.143 -3.307,-0.224 -4.965,-0.241 -1.658,-0.017 -3.315,0.03 -4.969,0.14 -1.654,0.11 -3.304,0.283 -4.944,0.519 0,0 9.25,64.338 9.25,64.338"
         id="path4941"
         inkscape:connector-curvature="0"
         style="fill:#2b83ba;stroke:#000000;stroke-width:0.5" />
      <path
         d="m 128,-383 c 0,0 -9.25,-64.338 -9.25,-64.338 -1.751,0.251 -3.49,0.574 -5.214,0.968 -1.724,0.393 -3.431,0.857 -5.117,1.389 0,0 19.581,61.981 19.581,61.981"
         id="path4943"
         inkscape:connector-curvature="0"
         style="fill:#fdae61;stroke:#000000;stroke-width:0.5" />
      <path
         d="m 128,-383 c 0,0 -19.581,-61.981 -19.581,-61.981 -1.423,0.45 -2.829,0.948 -4.218,1.494 -1.388,0.547 -2.757,1.141 -4.104,1.781 -1.3478,0.64 -2.6728,1.327 -3.973,2.059 -1.3002,0.731 -2.5748,1.507 -3.8216,2.327 -1.2467,0.819 -2.4649,1.681 -3.6524,2.584 -1.1874,0.903 -2.3434,1.847 -3.4659,2.83 -1.1225,0.983 -2.2109,2.004 -3.2631,3.061 -1.0522,1.058 -2.0677,2.152 -3.0447,3.279 -0.977,1.128 -1.9149,2.288 -2.812,3.48 -0.8971,1.192 -1.7529,2.415 -2.5658,3.666 -0.813,1.251 -1.5827,2.529 -2.3077,3.833 -0.7249,1.304 -1.4048,2.633 -2.0384,3.983 -0.6336,1.351 -1.2204,2.723 -1.7596,4.114 -0.5391,1.391 -1.0302,2.8 -1.4724,4.225 -0.4421,1.425 -0.8351,2.865 -1.1782,4.317 -0.3431,1.452 -0.6361,2.915 -0.8785,4.387 -0.2424,1.472 -0.4341,2.952 -0.5746,4.437 -0.1406,1.486 -0.2299,2.975 -0.268,4.467 -0.038,1.491 -0.0247,2.983 0.04,4.474 0.0646,1.49 0.1806,2.978 0.3476,4.461 0.167,1.482 0.3851,2.959 0.6537,4.426 0.2686,1.468 0.5877,2.925 0.9567,4.371 0.3689,1.445 0.7875,2.878 1.2551,4.295 0.4675,1.416 0.9837,2.817 1.5476,4.198 0.5638,1.381 1.1751,2.742 1.8327,4.082 0.6576,1.339 1.361,2.655 2.1092,3.946 0.7481,1.29 1.5405,2.555 2.3756,3.791 0.8352,1.236 1.7127,2.444 2.6309,3.619 0.9183,1.176 1.8767,2.32 2.8737,3.43 0.9969,1.11 2.0318,2.185 3.1027,3.224 1.071,1.038 2.1774,2.04 3.3172,3.002 1.1399,0.963 2.3125,1.886 3.5159,2.768 1.2034,0.882 2.4368,1.722 3.698,2.519 1.2612,0.797 2.5494,1.55 3.8625,2.258 1.313,0.709 2.65,1.371 4.0088,1.988 1.359,0.616 2.738,1.185 4.136,1.707 1.398,0.521 2.813,0.994 4.243,1.418 1.431,0.424 2.875,0.799 4.332,1.123 1.456,0.325 2.923,0.599 4.398,0.823 1.475,0.223 2.957,0.396 4.444,0.518 1.487,0.121 2.978,0.192 4.469,0.211 1.492,0.019 2.984,-0.014 4.474,-0.097 1.489,-0.084 2.975,-0.219 4.456,-0.405 1.48,-0.186 2.953,-0.423 4.417,-0.71 1.464,-0.287 2.918,-0.625 4.359,-1.012 1.44,-0.387 2.867,-0.824 4.278,-1.31 1.411,-0.485 2.804,-1.019 4.178,-1.601 1.374,-0.581 2.728,-1.21 4.058,-1.884 1.331,-0.675 2.638,-1.395 3.919,-2.16 1.281,-0.764 2.535,-1.573 3.761,-2.424 1.225,-0.851 2.421,-1.743 3.585,-2.676 1.164,-0.934 2.296,-1.907 3.393,-2.918 1.097,-1.011 2.159,-2.059 3.184,-3.143 1.025,-1.084 2.012,-2.203 2.96,-3.355 0.948,-1.152 1.856,-2.337 2.722,-3.551 0.867,-1.215 1.691,-2.459 2.472,-3.73 0.781,-1.271 1.518,-2.569 2.209,-3.891 0.692,-1.322 1.337,-2.667 1.936,-4.034 0.599,-1.366 1.151,-2.753 1.654,-4.157 0.504,-1.405 0.959,-2.826 1.365,-4.261 0.405,-1.436 0.761,-2.885 1.067,-4.346 0.306,-1.46 0.562,-2.93 0.767,-4.408 0.205,-1.478 0.358,-2.962 0.461,-4.45 0.103,-1.489 0.154,-2.98 0.154,-4.472 0,0 -65,0 -65,0"
         id="path4945"
         inkscape:connector-curvature="0"
         style="fill:#d7191c;stroke:#000000;stroke-width:0.5" />
      <ellipse
         cx="128"
         cy="-383"
         rx="65"
         ry="65"
         id="ellipse4947"
         d="m 193,-383 c 0,35.89851 -29.10149,65 -65,65 -35.898509,0 -65,-29.10149 -65,-65 0,-35.89851 29.101491,-65 65,-65 35.89851,0 65,29.10149 65,65 z"
         sodipodi:cx="128"
         sodipodi:cy="-383"
         sodipodi:rx="65"
         sodipodi:ry="65"
         style="fill:none;stroke:#000000" />
    </g>
    <!-- 1&#45;&gt;1 -->
    <g
       id="edge1"
       class="edge">
      <title
         id="title4950">1-&gt;1</title>
      <path
         d="m 185.411,-414.123 c 14.616,2.045 25.589,12.42 25.589,31.123 0,14.173 -6.301,23.564 -15.715,28.171"
         id="path4952"
         inkscape:connector-curvature="0"
         style="fill:none;stroke:#000000;stroke-width:1.22000003" />
      <polygon
         points="195.995,-351.388 185.411,-351.877 193.99,-358.094 195.995,-351.388 "
         id="polygon4954"
         style="fill:#000000;stroke:#000000;stroke-width:1.22000003" />
    </g>
    <!-- 2 -->
    <g
       id="node2"
       class="node">
      <title
         id="title4957">2</title>
      <path
         d="m 67,-214 c 0,0 67.25,0 67.25,0 0,-1.699 -0.064,-3.397 -0.191,-5.09 -0.128,-1.694 -0.319,-3.382 -0.574,-5.062 -0.254,-1.679 -0.572,-3.348 -0.952,-5.003 -0.38,-1.655 -0.822,-3.296 -1.325,-4.917 -0.503,-1.622 -1.068,-3.224 -1.691,-4.803 -0.624,-1.579 -1.307,-3.134 -2.047,-4.662 -0.741,-1.527 -1.538,-3.026 -2.392,-4.493 -0.853,-1.467 -1.761,-2.901 -2.722,-4.299 0,0 -55.356,38.329 -55.356,38.329"
         id="path4959"
         inkscape:connector-curvature="0"
         style="fill:#abdda4;stroke:#000000;stroke-width:0.5" />
      <path
         d="m 67,-214 c 0,0 55.356,-38.329 55.356,-38.329 -1.147,-1.669 -2.368,-3.285 -3.66,-4.844 -1.292,-1.558 -2.653,-3.058 -4.08,-4.493 -1.426,-1.436 -2.917,-2.806 -4.466,-4.107 -1.549,-1.301 -3.156,-2.531 -4.816,-3.687 -1.66,-1.156 -3.37,-2.236 -5.127,-3.237 -1.7566,-1.001 -3.5573,-1.922 -5.3965,-2.761 -1.8392,-0.838 -3.7151,-1.593 -5.622,-2.262 -1.9069,-0.669 -3.8429,-1.251 -5.802,-1.746 -1.9592,-0.494 -3.9395,-0.899 -5.935,-1.214 -1.9955,-0.315 -4.0041,-0.54 -6.0197,-0.673 -2.0157,-0.134 -4.0363,-0.176 -6.0557,-0.127 -2.0195,0.049 -4.0357,0.189 -6.0426,0.42 -2.0068,0.231 -4.0023,0.553 -5.9803,0.964 -1.978,0.412 -3.9365,0.913 -5.8696,1.501 -1.9331,0.588 -3.8388,1.264 -5.7113,2.024 -1.8725,0.761 -3.7099,1.606 -5.5067,2.533 0,0 30.7344,60.038 30.7344,60.038"
         id="path4961"
         inkscape:connector-curvature="0"
         style="fill:#2b83ba;stroke:#000000;stroke-width:0.5" />
      <path
         d="m 67,-214 c 0,0 -30.7344,-60.038 -30.7344,-60.038 -1.6027,0.826 -3.1718,1.717 -4.7032,2.67 -1.5315,0.953 -3.0242,1.968 -4.4745,3.041 -1.4503,1.074 -2.8571,2.205 -4.2168,3.392 -1.3598,1.187 -2.6714,2.428 -3.9319,3.721 -1.2604,1.292 -2.4686,2.635 -3.6215,4.025 -1.153,1.39 -2.2498,2.826 -3.2879,4.304 -1.038,1.479 -2.0165,2.998 -2.93293,4.556 -0.91645,1.557 -1.77017,3.151 -2.5591,4.777 -0.78892,1.626 -1.51241,3.283 -2.16871,4.968 -0.6563,1.684 -1.24489,3.394 -1.76433,5.126 -0.51945,1.732 -0.96933,3.484 -1.34857,5.252 -0.379229,1.768 -0.687505,3.551 -0.924079,5.344 -0.2365728,1.793 -0.4012518,3.595 -0.493638,5.401 -0.092386,1.807 -0.112404,3.616 -0.060005,5.424 0.052398,1.808 0.1771697,3.613 0.374014,5.411 0.196843,1.797 0.4656,3.587 0.805618,5.363 0.34002,1.776 0.75102,3.538 1.23202,5.281 0.481,1.743 1.0316,3.466 1.65047,5.164 0.61888,1.699 1.30552,3.372 2.05827,5.015 0.75275,1.644 1.571,3.256 2.45276,4.833 0.88177,1.578 1.82631,3.119 2.83141,4.62 1.0051,1.501 2.0699,2.961 3.1918,4.376 1.122,1.416 2.3001,2.785 3.5316,4.106 1.2316,1.32 2.5155,2.59 3.8486,3.807 1.3332,1.217 2.7145,2.379 4.1407,3.485 1.4262,1.105 2.8961,2.153 4.4061,3.14 1.51,0.987 3.0589,1.912 4.643,2.775 1.5841,0.862 3.2021,1.66 4.85,2.391 1.648,0.732 3.3245,1.397 5.0257,1.993 1.7011,0.597 3.4255,1.124 5.1688,1.582 1.7434,0.457 3.5044,0.844 5.2787,1.16 1.7744,0.315 3.5606,0.559 5.3545,0.731 0,0 6.3775,-67.196 6.3775,-67.196"
         id="path4963"
         inkscape:connector-curvature="0"
         style="fill:#fdae61;stroke:#000000;stroke-width:0.5" />
      <path
         d="m 67,-214 c 0,0 -6.3775,67.196 -6.3775,67.196 2.3238,0.222 4.6576,0.323 6.9918,0.301 2.3343,-0.021 4.6658,-0.165 6.9852,-0.429 2.3194,-0.265 4.6235,-0.651 6.9029,-1.156 2.2794,-0.505 4.5311,-1.13 6.7458,-1.87 2.2148,-0.74 4.3897,-1.596 6.5158,-2.563 2.1261,-0.967 4.2006,-2.045 6.215,-3.229 2.015,-1.184 3.966,-2.472 5.847,-3.86 1.881,-1.387 3.689,-2.872 5.416,-4.448 1.727,-1.577 3.371,-3.242 4.926,-4.99 1.554,-1.748 3.017,-3.576 4.382,-5.476 1.366,-1.901 2.631,-3.871 3.792,-5.904 1.161,-2.033 2.216,-4.125 3.16,-6.268 0.945,-2.142 1.777,-4.333 2.494,-6.563 0.718,-2.229 1.319,-4.495 1.801,-6.787 0.483,-2.293 0.846,-4.609 1.089,-6.939 0.242,-2.331 0.364,-4.672 0.364,-7.015 0,0 -67.25,0 -67.25,0"
         id="path4965"
         inkscape:connector-curvature="0"
         style="fill:#d7191c;stroke:#000000;stroke-width:0.5" />
      <ellipse
         cx="67"
         cy="-214"
         rx="67.25"
         ry="67.5"
         id="ellipse4967"
         d="m 134.25,-214 c 0,37.27922 -30.10885,67.5 -67.25,67.5 -37.141149,0 -67.25,-30.22078 -67.25,-67.5 0,-37.27922 30.108851,-67.5 67.25,-67.5 37.14115,0 67.25,30.22078 67.25,67.5 z"
         sodipodi:cx="67"
         sodipodi:cy="-214"
         sodipodi:rx="67.25"
         sodipodi:ry="67.5"
         style="fill:none;stroke:#000000" />
    </g>
    <!-- 1&#45;&gt;2 -->
    <g
       id="edge2"
       class="edge">
      <title
         id="title4970">1-&gt;2</title>
      <path
         d="M 100.376,-324.06 C 96,-312.8 91.5523,-300.853 87.3738,-289.154"
         id="path4972"
         inkscape:connector-curvature="0"
         style="fill:none;stroke:#000000;stroke-width:2.25999999" />
      <polygon
         points="90.5622,-287.671 83.9346,-279.405 83.961,-290 90.5622,-287.671 "
         id="polygon4974"
         style="fill:#000000;stroke:#000000;stroke-width:2.25999999" />
    </g>
    <!-- 3 -->
    <g
       id="node3"
       class="node">
      <title
         id="title4977">3</title>
      <path
         d="m 128,-55 c 0,0 54.25,0 54.25,0 0,-1.0522 -0.03,-2.1041 -0.091,-3.1545 -0.061,-1.0504 -0.151,-2.0988 -0.272,-3.1439 0,0 -53.887,6.2984 -53.887,6.2984"
         id="path4979"
         inkscape:connector-curvature="0"
         style="fill:#2b83ba;stroke:#000000;stroke-width:0.5" />
      <path
         d="m 128,-55 c 0,0 53.887,-6.2984 53.887,-6.2984 -0.202,-1.7393 -0.487,-3.4677 -0.854,-5.1794 -0.367,-1.7117 -0.816,-3.4047 -1.345,-5.0729 -0.529,-1.6683 -1.138,-3.31 -1.825,-4.9194 -0.687,-1.6094 -1.45,-3.1846 -2.288,-4.7201 -0.837,-1.5355 -1.748,-3.0296 -2.729,-4.4771 -0.98,-1.4474 -2.03,-2.8466 -3.145,-4.1925 -1.115,-1.346 -2.294,-2.6371 -3.532,-3.8691 -1.239,-1.2319 -2.536,-2.4032 -3.886,-3.5097 -1.351,-1.1065 -2.754,-2.1469 -4.205,-3.1174 -1.45,-0.971 -2.947,-1.871 -4.483,-2.697 -1.537,-0.826 -3.113,-1.578 -4.721,-2.251 -1.609,-0.674 -3.249,-1.269 -4.915,-1.784 -1.666,-0.516 -3.355,-0.95 -5.063,-1.301 -1.707,-0.352 -3.431,-0.621 -5.164,-0.806 -1.733,-0.185 -3.474,-0.286 -5.217,-0.303 -1.743,-0.016 -3.485,0.052 -5.222,0.204 -1.736,0.151 -3.464,0.387 -5.178,0.706 -1.714,0.319 -3.411,0.721 -5.086,1.204 -1.676,0.484 -3.327,1.048 -4.948,1.691 -1.621,0.643 -3.211,1.364 -4.763,2.16 -1.552,0.797 -3.065,1.668 -4.5334,2.611 -1.4686,0.943 -2.8911,1.9565 -4.2626,3.037 -1.3715,1.0806 -2.6903,2.2269 -3.952,3.435 -1.2616,1.2081 -2.4645,2.4765 -3.6046,3.801 -1.1401,1.3244 -2.216,2.7032 -3.2239,4.1317 -1.008,1.4285 -1.9468,2.905 -2.8132,4.4242 -0.8665,1.5193 -1.6595,3.0797 -2.3765,4.6757 -0.7169,1.5959 -1.3568,3.2257 -1.9176,4.8836 -0.5607,1.6579 -1.0416,3.3419 -1.4409,5.0463 -0.3994,1.7044 -0.7168,3.4271 -0.951,5.1622 -0.2343,1.7351 -0.3852,3.4805 -0.4522,5.2302 -0.067,1.7497 -0.05,3.5016 0.0509,5.2496 0.1008,1.748 0.2855,3.4902 0.5533,5.2203 0.2679,1.7302 0.6185,3.4464 1.0508,5.1427 0.4323,1.6962 0.9458,3.3706 1.5385,5.0172 0.5928,1.6466 1.2641,3.2635 2.0118,4.8452 0.7477,1.5817 1.5709,3.1262 2.4666,4.6283 0.8957,1.502 1.863,2.9598 2.8984,4.3684 1.0354,1.4085 2.1378,2.766 3.3033,4.0679 1.1655,1.3019 2.3928,2.5466 3.6776,3.7298 1.2848,1.1832 2.6256,2.3035 4.0178,3.357 1.3921,1.0535 2.834,2.03905 4.3206,2.95311 1.4863,0.91407 3.0163,1.75563 4.5833,2.52176 1.567,0.76613 3.17,1.45594 4.804,2.06703 1.633,0.61108 3.295,1.14274 4.979,1.59311 1.684,0.45038 3.389,0.81895 5.109,1.10443 1.72,0.285482 3.452,0.487545 5.191,0.605486 1.739,0.11794 3.482,0.151622 5.225,0.100927 1.742,-0.050695 3.481,-0.185708 5.21,-0.404568 1.729,-0.218865 3.447,-0.521315 5.147,-0.906305 1.701,-0.385 3.381,-0.85209 5.037,-1.39964 1.655,-0.54756 3.284,-1.17495 4.879,-1.87999 1.595,-0.70504 3.156,-1.4869 4.677,-2.34288 1.52,-0.85598 2.999,-1.78507 4.43,-2.78407 1.431,-0.9989 2.814,-2.0666 4.143,-3.1993 1.329,-1.1327 2.603,-2.3291 3.818,-3.5851 1.214,-1.2559 2.368,-2.5699 3.456,-3.9373 1.089,-1.3675 2.111,-2.7869 3.064,-4.2533 0.952,-1.4663 1.834,-2.9779 2.642,-4.5296 0.807,-1.5516 1.54,-3.1414 2.195,-4.7639 0.656,-1.6225 1.233,-3.2758 1.73,-4.9541 0.497,-1.6783 0.913,-3.3797 1.247,-5.0982 0.333,-1.7186 0.585,-3.4523 0.752,-5.1951 0.168,-1.7429 0.252,-3.4928 0.252,-5.2438 0,0 -54.25,0 -54.25,0"
         id="path4981"
         inkscape:connector-curvature="0"
         style="fill:#fdae61;stroke:#000000;stroke-width:0.5" />
      <ellipse
         cx="128"
         cy="-55"
         rx="54.25"
         ry="54.5"
         id="ellipse4983"
         d="m 182.25,-55 c 0,30.099519 -24.28855,54.5 -54.25,54.5 -29.961448,0 -54.25,-24.400481 -54.25,-54.5 0,-30.099519 24.288552,-54.5 54.25,-54.5 29.96145,0 54.25,24.400481 54.25,54.5 z"
         sodipodi:cx="128"
         sodipodi:cy="-55"
         sodipodi:rx="54.25"
         sodipodi:ry="54.5"
         style="fill:none;stroke:#000000" />
    </g>
    <!-- 1&#45;&gt;3 -->
    <g
       id="edge3"
       class="edge">
      <title
         id="title4986">1-&gt;3</title>
      <path
         d="m 143.15,-319.546 c 3.576,12.274 6.863,25.182 8.85,37.546 9.593,59.678 10.567,76.486 0,136 -1.663,9.364 -4.228,19.033 -7.109,28.403"
         id="path4988"
         inkscape:connector-curvature="0"
         style="fill:none;stroke:#000000;stroke-width:3" />
      <polygon
         points="148.188,-116.417 141.799,-107.965 141.523,-118.557 148.188,-116.417 "
         id="polygon4990"
         style="fill:#000000;stroke:#000000;stroke-width:3" />
    </g>
    <!-- 2&#45;&gt;1 -->
    <g
       id="edge4"
       class="edge">
      <title
         id="title4993">2-&gt;1</title>
      <path
         d="m 95.5365,-275.295 c 4.3676,-11.308 8.7835,-23.234 12.9095,-34.853"
         id="path4995"
         inkscape:connector-curvature="0"
         style="fill:none;stroke:#000000;stroke-width:1.15999997" />
      <polygon
         points="105.224,-311.537 111.836,-319.815 111.83,-309.221 105.224,-311.537 "
         id="polygon4997"
         style="fill:#000000;stroke:#000000;stroke-width:1.15999997" />
    </g>
    <!-- 2&#45;&gt;2 -->
    <g
       id="edge5"
       class="edge">
      <title
         id="title5000">2-&gt;2</title>
      <path
         d="m 127.742,-242.972 c 13.985,2.496 24.258,12.154 24.258,28.972 0,12.614 -5.779,21.2 -14.568,25.757"
         id="path5002"
         inkscape:connector-curvature="0"
         style="fill:none;stroke:#000000;stroke-width:1.38" />
      <polygon
         points="138.335,-184.855 127.742,-185.028 136.131,-191.499 138.335,-184.855 "
         id="polygon5004"
         style="fill:#000000;stroke:#000000;stroke-width:1.38" />
    </g>
    <!-- 2&#45;&gt;3 -->
    <g
       id="edge6"
       class="edge">
      <title
         id="title5007">2-&gt;3</title>
      <path
         d="m 85.336,-148.689 c 4.4096,11.776 9.199,23.993 13.9376,35.543"
         id="path5009"
         inkscape:connector-curvature="0"
         style="fill:none;stroke:#000000;stroke-width:2.66000009" />
      <polygon
         points="102.625,-114.204 103.233,-103.626 96.1612,-111.516 102.625,-114.204 "
         id="polygon5011"
         style="fill:#000000;stroke:#000000;stroke-width:2.66000009" />
    </g>
    <!-- 3&#45;&gt;1 -->
    <g
       id="edge7"
       class="edge">
      <title
         id="title5014">3-&gt;1</title>
      <path
         d="m 156.751,-101.385 c 5.666,-14.021 10.601,-29.704 13.249,-44.615 10.567,-59.514 9.593,-76.322 0,-136 -1.795,-11.169 -4.65,-22.78 -8.075,-33.968"
         id="path5016"
         inkscape:connector-curvature="0"
         style="fill:none;stroke:#000000;stroke-width:1.91999996" />
      <polygon
         points="158.534,-315.077 158.78,-325.669 165.193,-317.236 158.534,-315.077 "
         id="polygon5018"
         style="fill:#000000;stroke:#000000;stroke-width:1.91999996" />
    </g>
    <!-- 3&#45;&gt;2 -->
    <g
       id="edge8"
       class="edge">
      <title
         id="title5021">3-&gt;2</title>
      <path
         d="m 114.213,-107.941 c -4.125,-11.435 -8.794,-23.721 -13.563,-35.718"
         id="path5023"
         inkscape:connector-curvature="0"
         style="fill:none;stroke:#000000;stroke-width:1.01999998" />
      <polygon
         points="97.2984,-142.613 96.8124,-153.197 103.792,-145.227 97.2984,-142.613 "
         id="polygon5025"
         style="fill:#000000;stroke:#000000;stroke-width:1.01999998" />
    </g>
  </g>
</svg>
