<?xml version="1.0" encoding="UTF-8" standalone="no"?>
<!-- Generated by graphviz version 2.36.0 (20140111.2315)
 -->

<!-- Title: G Pages: 1 -->

<svg
   xmlns:dc="http://purl.org/dc/elements/1.1/"
   xmlns:cc="http://creativecommons.org/ns#"
   xmlns:rdf="http://www.w3.org/1999/02/22-rdf-syntax-ns#"
   xmlns:svg="http://www.w3.org/2000/svg"
   xmlns="http://www.w3.org/2000/svg"
   xmlns:sodipodi="http://sodipodi.sourceforge.net/DTD/sodipodi-0.dtd"
   xmlns:inkscape="http://www.inkscape.org/namespaces/inkscape"
   width="300.625"
   height="156.40625"
   viewBox="0 0 240.5 125.125"
   id="svg4765"
   version="1.1"
   inkscape:version="0.48.4 r9939"
   sodipodi:docname="PuntaBanda-ParCon_2_1.dot.svg">
  <metadata
     id="metadata4828">
    <rdf:RDF>
      <cc:Work
         rdf:about="">
        <dc:format>image/svg+xml</dc:format>
        <dc:type
           rdf:resource="http://purl.org/dc/dcmitype/StillImage" />
      </cc:Work>
    </rdf:RDF>
  </metadata>
  <defs
     id="defs4826" />
  <sodipodi:namedview
     pagecolor="#ffffff"
     bordercolor="#666666"
     borderopacity="1"
     objecttolerance="10"
     gridtolerance="10"
     guidetolerance="10"
     inkscape:pageopacity="0"
     inkscape:pageshadow="2"
     inkscape:window-width="701"
     inkscape:window-height="480"
     id="namedview4824"
     showgrid="false"
     fit-margin-top="0"
     fit-margin-left="0"
     fit-margin-right="0"
     fit-margin-bottom="0"
     inkscape:zoom="0.76129032"
     inkscape:cx="150.55625"
     inkscape:cy="72.279202"
     inkscape:window-x="65"
     inkscape:window-y="24"
     inkscape:window-maximized="0"
     inkscape:current-layer="svg4765" />
  <g
     id="graph0"
     class="graph"
     transform="matrix(0,-1,1,0,240.5,124.375)">
    <title
       id="title4768">G</title>
    <!-- 1 -->
    <g
       id="node1"
       class="node">
      <title
         id="title4771">1</title>
      <path
         d="m 53,-192 c 0,0 48,0 48,0 0,-1.588 -0.079,-3.174 -0.236,-4.754 -0.157,-1.58 -0.393,-3.151 -0.706,-4.708 -0.3127,-1.556 -0.7027,-3.096 -1.1683,-4.614 -0.4656,-1.518 -1.0062,-3.012 -1.6198,-4.476 C 97.2699,-210.552 53,-192 53,-192"
         id="path4773"
         inkscape:connector-curvature="0"
         style="fill:#abdda4;stroke:#000000;stroke-width:0.5" />
      <path
         d="m 53,-192 c 0,0 44.2699,-18.552 44.2699,-18.552 -0.5113,-1.22 -1.0729,-2.419 -1.6832,-3.592 -0.6103,-1.174 -1.2689,-2.322 -1.9741,-3.442 -0.7052,-1.119 -1.4564,-2.209 -2.2516,-3.266 -0.7952,-1.057 -1.6338,-2.081 -2.5136,-3.069 C 88.8474,-223.921 53,-192 53,-192"
         id="path4775"
         inkscape:connector-curvature="0"
         style="fill:#2b83ba;stroke:#000000;stroke-width:0.5" />
      <path
         d="m 53,-192 c 0,0 35.8474,-31.921 35.8474,-31.921 -0.9018,-1.013 -1.8461,-1.987 -2.8304,-2.92 -0.9843,-0.932 -2.0076,-1.823 -3.0673,-2.669 -1.0597,-0.846 -2.1548,-1.647 -3.2823,-2.401 -1.1275,-0.753 -2.2865,-1.458 -3.4737,-2.113 -1.1872,-0.656 -2.4017,-1.26 -3.6401,-1.813 -1.2385,-0.552 -2.4998,-1.052 -3.7805,-1.497 -1.2807,-0.446 -2.5798,-0.837 -3.8936,-1.173 -1.3139,-0.335 -2.6414,-0.615 -3.979,-0.838 -1.3375,-0.224 -2.6839,-0.39 -4.0356,-0.499 -1.3516,-0.109 -2.7073,-0.161 -4.0633,-0.156 -1.3561,0.006 -2.7112,0.069 -4.0619,0.189 -1.3507,0.121 -2.6957,0.298 -4.0314,0.533 -1.3356,0.234 -2.6608,0.525 -3.9718,0.871 -1.3111,0.346 -2.6068,0.748 -3.8839,1.205 -1.277,0.456 -2.5341,0.966 -3.7679,1.528 -1.2338,0.563 -2.4433,1.178 -3.625,1.843 -1.1818,0.665 -2.3349,1.38 -3.4561,2.142 -1.1213,0.763 -2.2097,1.573 -3.2623,2.428 -1.0527,0.854 -2.0687,1.754 -3.0452,2.694 -0.9766,0.941 -1.9128,1.923 -2.8062,2.943 -0.8934,1.02 -1.7432,2.078 -2.547,3.17 -0.8039,1.092 -1.5611,2.218 -2.2696,3.374 -0.7086,1.156 -1.3678,2.342 -1.9759,3.554 -0.60814,1.212 -1.16463,2.449 -1.66799,3.709 -0.50336,1.259 -0.95314,2.539 -1.34812,3.836 -0.39498,1.297 -0.73481,2.611 -1.01858,3.937 -0.28376,1.326 -0.51121,2.663 -0.68172,4.008 -0.17052,1.346 -0.28395,2.698 -0.33999,4.052 -0.05604,1.355 -0.05463,2.712 0.00421,4.067 0.05883,1.354 0.17506,2.706 0.34835,4.051 0.1733,1.345 0.4035,2.682 0.69001,4.007 0.28651,1.326 0.62905,2.639 1.02671,3.935 0.39766,1.296 0.85008,2.575 1.35605,3.834 0.50596,1.258 1.06501,2.494 1.67567,3.705 0.6106,1.21 1.2723,2.395 1.9832,3.549 0.7109,1.155 1.4705,2.279 2.2766,3.37 0.8061,1.09 1.658,2.146 2.5535,3.164 0.8955,1.019 1.8338,1.998 2.8123,2.937 0.9785,0.939 1.9963,1.836 3.0507,2.689 1.0545,0.852 2.1446,1.66 3.2674,2.42 1.1228,0.761 2.2773,1.473 3.4605,2.136 1.1831,0.662 2.3938,1.275 3.6288,1.835 1.235,0.56 2.4931,1.067 3.7711,1.521 1.278,0.453 2.5746,0.852 3.8863,1.196 1.3118,0.344 2.6375,0.632 3.9736,0.863 1.3362,0.232 2.6815,0.407 4.0325,0.524 1.3509,0.118 2.7062,0.178 4.0623,0.181 1.356,0.003 2.7116,-0.052 4.063,-0.164 1.3514,-0.112 2.6975,-0.281 4.0346,-0.507 1.3371,-0.226 2.664,-0.509 3.9771,-0.847 1.3132,-0.338 2.6114,-0.732 3.8913,-1.18 1.2798,-0.449 2.54,-0.951 3.7773,-1.506 1.2373,-0.555 2.4505,-1.162 3.6364,-1.82 1.1859,-0.657 2.3433,-1.365 3.4693,-2.121 1.126,-0.755 2.2194,-1.558 3.2773,-2.407 1.058,-0.848 2.0795,-1.741 3.0619,-2.676 0.9823,-0.934 1.9246,-1.91 2.8243,-2.925 0.8997,-1.015 1.756,-2.067 2.5667,-3.154 0.8106,-1.087 1.5747,-2.208 2.2904,-3.36 0.7157,-1.152 1.3823,-2.333 1.9979,-3.541 0.6156,-1.209 1.1798,-2.442 1.691,-3.699 0.5111,-1.256 0.9688,-2.533 1.3718,-3.827 0.4031,-1.295 0.751,-2.606 1.043,-3.931 0.2919,-1.324 0.5279,-2.66 0.7069,-4.004 0,0 -47.581,-6.331 -47.581,-6.331"
         id="path4777"
         inkscape:connector-curvature="0"
         style="fill:#fdae61;stroke:#000000;stroke-width:0.5" />
      <path
         d="m 53,-192 c 0,0 47.581,6.331 47.581,6.331 0.139,-1.049 0.244,-2.103 0.314,-3.159 0.07,-1.056 0.105,-2.114 0.105,-3.172 0,0 -48,0 -48,0"
         id="path4779"
         inkscape:connector-curvature="0"
         style="fill:#d7191c;stroke:#000000;stroke-width:0.5" />
      <ellipse
         cx="53"
         cy="-192"
         rx="48"
         ry="48"
         id="ellipse4781"
         d="m 101,-192 c 0,26.50967 -21.490332,48 -48,48 -26.509668,0 -48,-21.49033 -48,-48 0,-26.50967 21.490332,-48 48,-48 26.509668,0 48,21.49033 48,48 z"
         sodipodi:cx="53"
         sodipodi:cy="-192"
         sodipodi:rx="48"
         sodipodi:ry="48"
         style="fill:none;stroke:#000000" />
    </g>
    <!-- 1&#45;&gt;1 -->
    <g
       id="edge1"
       class="edge">
      <title
         id="title4784">1-&gt;1</title>
      <path
         d="M 93.6035,-217.869 C 107.654,-218.142 119,-209.52 119,-192 c 0,13.14 -6.382,21.275 -15.501,24.406"
         id="path4786"
         inkscape:connector-curvature="0"
         style="fill:none;stroke:#000000;stroke-width:1.12" />
      <polygon
         points="104.008,-164.131 93.6035,-166.131 102.984,-171.056 104.008,-164.131 "
         id="polygon4788"
         style="fill:#000000;stroke:#000000;stroke-width:1.12" />
    </g>
    <!-- 2 -->
    <g
       id="node2"
       class="node">
      <title
         id="title4791">2</title>
      <path
         d="m 53,-54 c 0,0 53.25,0 53.25,0 0,-1.8758 -0.098,-3.7504 -0.294,-5.6158 -0.196,-1.8655 -0.49,-3.7193 -0.879,-5.5538 -0.39,-1.8345 -0.876,-3.6471 -1.455,-5.4304 -0.579,-1.7832 -1.252,-3.5346 -2.014,-5.247 C 101.608,-75.847 53,-54 53,-54"
         id="path4793"
         inkscape:connector-curvature="0"
         style="fill:#abdda4;stroke:#000000;stroke-width:0.5" />
      <path
         d="m 53,-54 c 0,0 48.608,-21.847 48.608,-21.847 -0.719,-1.6155 -1.518,-3.1941 -2.3932,-4.7301 -0.8751,-1.536 -1.8255,-3.0274 -2.8477,-4.4688 -1.0222,-1.4413 -2.115,-2.8308 -3.2743,-4.1633 -1.1593,-1.3325 -2.3837,-2.6064 -3.6687,-3.817 -1.2849,-1.2106 -2.6289,-2.3564 -4.0269,-3.4331 -1.398,-1.0768 -2.8484,-2.0832 -4.3457,-3.0155 -1.4973,-0.9322 -3.0397,-1.7892 -4.6216,-2.5682 -1.5818,-0.779 -3.2012,-1.478 -4.852,-2.095 -1.6509,-0.618 -3.3312,-1.153 -5.0348,-1.603 -1.7036,-0.45 -3.4284,-0.815 -5.168,-1.093 -1.7397,-0.279 -3.492,-0.47 -5.2505,-0.574 -1.7585,-0.104 -3.521,-0.12 -5.2811,-0.048 -1.7601,0.072 -3.5156,0.231 -5.2599,0.477 -1.7444,0.247 -3.4755,0.58 -5.187,0.999 -1.7115,0.419 -3.4012,0.923 -5.063,1.51 -1.6618,0.587 -3.2935,1.257 -4.8892,2.007 C 30.4444,-102.463 53,-54 53,-54"
         id="path4795"
         inkscape:connector-curvature="0"
         style="fill:#2b83ba;stroke:#000000;stroke-width:0.5" />
      <path
         d="m 53,-54 c 0,0 -22.5556,-48.463 -22.5556,-48.463 -1.4882,0.699 -2.9433,1.467 -4.3608,2.301 -1.4175,0.8342 -2.7958,1.734 -4.1305,2.6963 -1.3347,0.9623 -2.6243,1.9862 -3.8648,3.0683 -1.2405,1.0821 -2.4304,2.2213 -3.5661,3.4139 C 14.5222,-90.9835 53,-54 53,-54"
         id="path4797"
         inkscape:connector-curvature="0"
         style="fill:#fdae61;stroke:#000000;stroke-width:0.5" />
      <path
         d="m 53,-54 c 0,0 -38.4778,-36.9835 -38.4778,-36.9835 -1.4977,1.573 -2.8986,3.2363 -4.1946,4.9807 -1.29605,1.7444 -2.48492,3.5667 -3.55999,5.4566 -1.07507,1.89 -2.03432,3.8441 -2.87242,5.8514 -0.8381,2.0074 -1.55347,4.0643 -2.14214,6.1592 -0.58866,2.095 -1.04951,4.224 -1.379983,6.3754 -0.3304731,2.1513 -0.52995,4.3209 -0.597319,6.4967 -0.067369,2.1758 -0.002504,4.3536 0.1942328,6.5214 0.1967372,2.1679 0.5249792,4.3216 0.9828962,6.4492 0.457913,2.1277 1.044653,4.2253 1.756943,6.2811 0.71229,2.0558 1.5488,4.066 2.50486,6.0195 0.95606,1.9534 2.0299,3.8464 3.21552,5.6683 1.18562,1.822 2.4808,3.5696 3.8784,5.233 1.3975,1.6635 2.8948,3.2397 4.4835,4.7198 1.5887,1.4802 3.2658,2.8615 5.022,4.1364 1.7562,1.27481 3.5882,2.44079 5.4858,3.49139 1.8976,1.0506 3.8573,1.98386 5.868,2.79457 2.0108,0.81072 4.069,1.49739 6.163,2.05617 2.0941,0.55878 4.2201,0.98863 6.3663,1.28717 2.1461,0.298531 4.3084,0.465186 6.4748,0.499032 2.1664,0.033847 4.3328,-0.065178 6.4872,-0.296521 2.1544,-0.231341 4.2927,-0.594571 6.403,-1.087671 2.1103,-0.49309 4.1887,-1.11513 6.2236,-1.86264 2.0349,-0.74751 4.0225,-1.6191 5.9517,-2.60991 1.9292,-0.99081 3.7964,-2.09899 5.5912,-3.31836 1.7948,-1.21933 3.5139,-2.54763 5.1476,-3.97743 1.6338,-1.4298 3.1791,-2.9585 4.6275,-4.5775 1.4483,-1.6189 2.797,-3.3252 4.0384,-5.1093 1.2414,-1.784 2.3733,-3.6425 3.3898,-5.5651 1.016,-1.9227 1.914,-3.9058 2.69,-5.9384 0.775,-2.0325 1.426,-4.1108 1.95,-6.2231 0.524,-2.1123 0.918,-4.2547 1.182,-6.4154 0.264,-2.1606 0.396,-4.3354 0.396,-6.5122 0,0 -53.25,0 -53.25,0"
         id="path4799"
         inkscape:connector-curvature="0"
         style="fill:#d7191c;stroke:#000000;stroke-width:0.5" />
      <ellipse
         cx="53"
         cy="-54"
         rx="53.25"
         ry="53.5"
         id="ellipse4801"
         d="m 106.25,-54 c 0,29.547234 -23.840837,53.5 -53.25,53.5 -29.409163,0 -53.25,-23.952766 -53.25,-53.5 0,-29.547234 23.840837,-53.5 53.25,-53.5 29.409163,0 53.25,23.952766 53.25,53.5 z"
         sodipodi:cx="53"
         sodipodi:cy="-54"
         sodipodi:rx="53.25"
         sodipodi:ry="53.5"
         style="fill:none;stroke:#000000" />
    </g>
    <!-- 1&#45;&gt;2 -->
    <g
       id="edge2"
       class="edge">
      <title
         id="title4804">1-&gt;2</title>
      <path
         d="m 46.5503,-144.197 c -0.2512,8.598 -0.3448,17.697 -0.2808,26.669"
         id="path4806"
         inkscape:connector-curvature="0"
         style="fill:none;stroke:#000000;stroke-width:1.03999996" />
      <polygon
         points="49.7696,-117.534 46.4086,-107.487 42.7703,-117.437 49.7696,-117.534 "
         id="polygon4808"
         style="fill:#000000;stroke:#000000;stroke-width:1.03999996" />
    </g>
    <!-- 2&#45;&gt;1 -->
    <g
       id="edge3"
       class="edge">
      <title
         id="title4811">2-&gt;1</title>
      <path
         d="m 59.5914,-107.487 c 0.1806,-8.692 0.207,-17.74 0.0791,-26.536"
         id="path4813"
         inkscape:connector-curvature="0"
         style="fill:none;stroke:#000000;stroke-width:2" />
      <polygon
         points="56.1677,-134.123 59.4497,-144.197 63.166,-134.275 56.1677,-134.123 "
         id="polygon4815"
         style="fill:#000000;stroke:#000000;stroke-width:2" />
    </g>
    <!-- 2&#45;&gt;2 -->
    <g
       id="edge4"
       class="edge">
      <title
         id="title4818">2-&gt;2</title>
      <path
         d="M 99.7738,-79.7976 C 113.426,-78.9058 124,-70.3066 124,-54 c 0,12.1026 -5.825,19.9596 -14.41,23.571"
         id="path4820"
         inkscape:connector-curvature="0"
         style="fill:none;stroke:#000000;stroke-width:0.72000003" />
      <polygon
         points="110.3,-27.0012 99.7738,-28.2024 108.752,-33.8278 110.3,-27.0012 "
         id="polygon4822"
         style="fill:#000000;stroke:#000000;stroke-width:0.72000003" />
    </g>
  </g>
</svg>
