<?xml version="1.0" encoding="UTF-8" standalone="no"?>
<!-- Generated by graphviz version 2.36.0 (20140111.2315)
 -->

<!-- Title: G Pages: 1 -->

<svg
   xmlns:dc="http://purl.org/dc/elements/1.1/"
   xmlns:cc="http://creativecommons.org/ns#"
   xmlns:rdf="http://www.w3.org/1999/02/22-rdf-syntax-ns#"
   xmlns:svg="http://www.w3.org/2000/svg"
   xmlns="http://www.w3.org/2000/svg"
   xmlns:sodipodi="http://sodipodi.sourceforge.net/DTD/sodipodi-0.dtd"
   xmlns:inkscape="http://www.inkscape.org/namespaces/inkscape"
   width="3245"
   height="1323.0536"
   viewBox="0 0 2595.1689 1058.4429"
   id="svg6030"
   version="1.1"
   inkscape:version="0.48.4 r9939"
   sodipodi:docname="PuntaBanda-ParCon_10_1.dot.svg">
  <metadata
     id="metadata6592">
    <rdf:RDF>
      <cc:Work
         rdf:about="">
        <dc:format>image/svg+xml</dc:format>
        <dc:type
           rdf:resource="http://purl.org/dc/dcmitype/StillImage" />
      </cc:Work>
    </rdf:RDF>
  </metadata>
  <defs
     id="defs6590" />
  <sodipodi:namedview
     pagecolor="#ffffff"
     bordercolor="#666666"
     borderopacity="1"
     objecttolerance="10"
     gridtolerance="10"
     guidetolerance="10"
     inkscape:pageopacity="0"
     inkscape:pageshadow="2"
     inkscape:window-width="701"
     inkscape:window-height="480"
     id="namedview6588"
     showgrid="false"
     fit-margin-top="0"
     fit-margin-left="0"
     fit-margin-right="0"
     fit-margin-bottom="0"
     inkscape:zoom="0.07250384"
     inkscape:cx="1621.9484"
     inkscape:cy="661.51775"
     inkscape:window-x="65"
     inkscape:window-y="24"
     inkscape:window-maximized="0"
     inkscape:current-layer="svg6030" />
  <g
     id="graph0"
     class="graph"
     transform="matrix(0,-1,1,0,2595.83,1056.5)">
    <title
       id="title6033">G</title>
    <!-- 1 -->
    <g
       id="node1"
       class="node">
      <title
         id="title6036">1</title>
      <path
         d="m 232.656,-2470 c 0,0 125.25,0 125.25,0 0,-3.16 -0.119,-6.32 -0.357,-9.47 -0.238,-3.15 -0.595,-6.3 -1.07,-9.42 -0.475,-3.13 -1.068,-6.23 -1.776,-9.31 -0.709,-3.08 -1.534,-6.13 -2.473,-9.15 -0.939,-3.02 -1.991,-6 -3.155,-8.94 -1.163,-2.94 -2.437,-5.83 -3.818,-8.67 -1.382,-2.84 -2.87,-5.63 -4.462,-8.36 -1.591,-2.73 -3.285,-5.4 -5.078,-8 -1.793,-2.6 -3.683,-5.13 -5.666,-7.59 -1.984,-2.46 -4.059,-4.84 -6.222,-7.14 -2.163,-2.3 -4.412,-4.52 -6.742,-6.65 -2.33,-2.13 -4.74,-4.17 -7.224,-6.12 -2.484,-1.95 -5.04,-3.8 -7.664,-5.56 -2.623,-1.75 -5.312,-3.41 -8.061,-4.96 -2.748,-1.55 -5.554,-3 -8.411,-4.34 -2.858,-1.34 -5.765,-2.57 -8.715,-3.69 -2.95,-1.12 -5.941,-2.12 -8.967,-3.02 -3.026,-0.89 -6.085,-1.67 -9.17,-2.33 -3.084,-0.66 -6.193,-1.21 -9.319,-1.63 -3.125,-0.43 -6.266,-0.74 -9.415,-0.93 -3.149,-0.18 -6.304,-0.25 -9.458,-0.2 -3.154,0.05 -6.305,0.21 -9.447,0.5 -3.141,0.29 -6.271,0.7 -9.382,1.22 -3.11,0.53 -6.2,1.17 -9.263,1.93 -3.062,0.76 -6.095,1.63 -9.091,2.62 -2.997,0.99 -5.955,2.09 -8.868,3.3 -2.914,1.21 -5.78,2.54 -8.594,3.96 -2.814,1.43 -5.573,2.97 -8.271,4.61 -2.699,1.63 -5.334,3.37 -7.901,5.21 -2.568,1.84 -5.064,3.77 -7.486,5.8 -2.421,2.02 -4.766,4.14 -7.028,6.34 -2.262,2.21 -4.44,4.49 -6.529,6.86 0,0 93.833,83.13 93.833,83.13"
         id="path6038"
         inkscape:connector-curvature="0"
         style="fill:#abdda4;stroke:#000000;stroke-width:0.5" />
      <path
         d="m 232.656,-2470 c 0,0 -93.833,-83.13 -93.833,-83.13 -1.462,1.66 -2.88,3.35 -4.253,5.08 -1.372,1.74 -2.699,3.5 -3.978,5.31 -1.279,1.8 -2.511,3.63 -3.693,5.5 -1.183,1.87 -2.316,3.77 -3.398,5.69 -1.082,1.93 -2.114,3.89 -3.093,5.87 -0.979,1.98 -1.906,3.99 -2.779,6.02 -0.874,2.03 -1.693,4.08 -2.458,6.16 -0.765,2.07 -1.475,4.17 -2.13,6.28 -0.654,2.11 -1.253,4.24 -1.795,6.38 -0.543,2.15 -1.028,4.31 -1.457,6.47 -0.428,2.17 -0.8,4.35 -1.113,6.54 -0.314,2.19 -0.569,4.39 -0.767,6.59 -0.198,2.2 -0.337,4.41 -0.418,6.62 -0.081,2.21 -0.104,4.42 -0.069,6.63 0.036,2.22 0.129,4.43 0.281,6.63 0.152,2.21 0.362,4.41 0.63,6.61 0.269,2.19 0.595,4.38 0.978,6.56 0.384,2.17 0.824,4.34 1.322,6.5 0.498,2.15 1.053,4.29 1.663,6.42 0.611,2.12 1.278,4.23 1.999,6.32 0.722,2.09 1.499,4.16 2.33,6.21 0.831,2.05 1.716,4.07 2.654,6.08 0.938,2 1.929,3.97 2.971,5.92 1.042,1.95 2.136,3.87 3.279,5.77 1.144,1.89 2.337,3.75 3.579,5.58 1.242,1.82 2.531,3.62 3.868,5.38 1.336,1.76 2.719,3.48 4.146,5.17 1.427,1.69 2.899,3.34 4.413,4.94 1.514,1.61 3.071,3.18 4.668,4.71 1.597,1.53 3.233,3.01 4.909,4.45 1.675,1.44 3.388,2.83 5.137,4.18 1.749,1.35 3.533,2.65 5.35,3.91 1.818,1.25 3.668,2.46 5.549,3.62 1.881,1.15 3.792,2.26 5.732,3.32 1.939,1.05 3.906,2.05 5.899,3.01 1.992,0.95 4.01,1.85 6.049,2.69 2.04,0.84 4.102,1.63 6.183,2.37 2.082,0.74 4.182,1.42 6.3,2.04 2.117,0.62 4.251,1.19 6.398,1.7 2.147,0.51 4.308,0.97 6.479,1.36 2.171,0.4 4.352,0.74 6.542,1.02 2.189,0.28 4.385,0.51 6.586,0.67 2.201,0.17 4.406,0.27 6.612,0.32 2.207,0.05 4.414,0.04 6.62,-0.03 2.206,-0.07 4.41,-0.2 6.609,-0.38 2.2,-0.19 4.394,-0.43 6.58,-0.73 2.186,-0.3 4.365,-0.66 6.532,-1.08 2.168,-0.42 4.324,-0.89 6.466,-1.42 2.143,-0.53 4.271,-1.12 6.382,-1.77 2.112,-0.64 4.206,-1.34 6.28,-2.09 2.075,-0.76 4.129,-1.57 6.161,-2.43 2.032,-0.86 4.041,-1.78 6.024,-2.75 1.984,-0.97 3.941,-1.99 5.871,-3.07 1.93,-1.07 3.831,-2.19 5.701,-3.37 1.87,-1.17 3.709,-2.4 5.515,-3.67 1.806,-1.27 3.578,-2.59 5.314,-3.95 1.736,-1.37 3.436,-2.78 5.098,-4.24 1.662,-1.45 3.285,-2.95 4.867,-4.49 1.583,-1.54 3.125,-3.13 4.624,-4.75 1.5,-1.62 2.956,-3.28 4.367,-4.98 1.412,-1.7 2.778,-3.44 4.098,-5.21 1.32,-1.78 2.593,-3.58 3.818,-5.42 1.225,-1.84 2.4,-3.71 3.526,-5.62 1.126,-1.9 2.202,-3.83 3.226,-5.79 0,0 -110.951,-58.23 -110.951,-58.23"
         id="path6040"
         inkscape:connector-curvature="0"
         style="fill:#2b83ba;stroke:#000000;stroke-width:0.5" />
      <path
         d="m 232.656,-2470 c 0,0 110.951,58.23 110.951,58.23 1.168,-2.23 2.269,-4.5 3.301,-6.81 1.032,-2.3 1.994,-4.63 2.886,-6.99 0.892,-2.36 1.712,-4.75 2.46,-7.15 0.748,-2.41 1.423,-4.85 2.025,-7.3 0.601,-2.45 1.129,-4.91 1.582,-7.4 0.453,-2.48 0.832,-4.97 1.135,-7.48 0.303,-2.5 0.53,-5.02 0.682,-7.54 0.152,-2.51 0.228,-5.04 0.228,-7.56 0,0 -125.25,0 -125.25,0"
         id="path6042"
         inkscape:connector-curvature="0"
         style="fill:#fdae61;stroke:#000000;stroke-width:0.5" />
      <ellipse
         cx="232.65601"
         cy="-2470"
         rx="125.25"
         ry="125.5"
         id="ellipse6044"
         d="m 357.90601,-2470 c 0,69.3117 -56.07634,125.5 -125.25,125.5 -69.17367,0 -125.25,-56.1883 -125.25,-125.5 0,-69.3117 56.07633,-125.5 125.25,-125.5 69.17366,0 125.25,56.1883 125.25,125.5 z"
         sodipodi:cx="232.65601"
         sodipodi:cy="-2470"
         sodipodi:rx="125.25"
         sodipodi:ry="125.5"
         style="fill:none;stroke:#000000" />
    </g>
    <!-- 1&#45;&gt;1 -->
    <g
       id="edge1"
       class="edge">
      <title
         id="title6047">1-&gt;1</title>
      <path
         d="m 350.739,-2512.26 c 15.016,7.39 24.917,21.47 24.917,42.26 0,16.56 -6.287,28.87 -16.44,36.93"
         id="path6049"
         inkscape:connector-curvature="0"
         style="fill:none;stroke:#000000;stroke-width:3.4000001" />
      <polygon
         points="361.068,-2430.1 350.739,-2427.74 357.341,-2436.02 361.068,-2430.1 "
         id="polygon6051"
         style="fill:#000000;stroke:#000000;stroke-width:3.4000001" />
    </g>
    <!-- 2 -->
    <g
       id="node2"
       class="node">
      <title
         id="title6054">2</title>
      <path
         d="m 326.656,-2212 c 0,0 95.25,0 95.25,0 0,-1.67 -0.044,-3.33 -0.131,-5 -0.087,-1.66 -0.217,-3.33 -0.391,-4.98 -0.174,-1.66 -0.391,-3.32 -0.651,-4.96 -0.26,-1.65 -0.563,-3.29 -0.909,-4.92 -0.346,-1.63 -0.734,-3.25 -1.165,-4.86 -0.43,-1.61 -0.903,-3.21 -1.416,-4.8 -0.514,-1.58 -1.07,-3.15 -1.666,-4.71 -0.596,-1.56 -1.232,-3.1 -1.909,-4.62 -0.676,-1.52 -1.392,-3.03 -2.147,-4.51 -0.755,-1.49 -1.549,-2.95 -2.38,-4.4 -0.832,-1.44 -1.701,-2.86 -2.607,-4.26 -0.905,-1.4 -1.847,-2.77 -2.825,-4.12 -0.977,-1.35 -1.99,-2.67 -3.037,-3.97 -1.046,-1.29 -2.126,-2.56 -3.239,-3.8 -1.113,-1.24 -2.258,-2.45 -3.434,-3.63 -1.176,-1.18 -2.382,-2.32 -3.618,-3.44 -1.236,-1.11 -2.501,-2.2 -3.793,-3.25 -1.292,-1.05 -2.612,-2.06 -3.957,-3.04 -1.346,-0.98 -2.716,-1.92 -4.111,-2.83 -1.395,-0.91 -2.813,-1.78 -4.253,-2.61 -1.44,-0.84 -2.902,-1.63 -4.384,-2.39 -1.481,-0.76 -2.983,-1.47 -4.502,-2.15 -1.519,-0.68 -3.056,-1.32 -4.608,-1.91 -1.552,-0.6 -3.12,-1.16 -4.702,-1.67 -1.581,-0.52 -3.176,-0.99 -4.782,-1.42 -1.606,-0.43 -3.224,-0.82 -4.85,-1.17 -1.627,-0.34 -3.262,-0.65 -4.904,-0.91 -1.643,-0.26 -3.292,-0.48 -4.945,-0.65 -1.654,-0.17 -3.312,-0.3 -4.973,-0.39 -1.66,-0.09 -3.323,-0.13 -4.985,-0.13 -1.663,0 -3.326,0.04 -4.986,0.13 -1.661,0.09 -3.319,0.22 -4.972,0.4 0,0 9.982,94.97 9.982,94.97"
         id="path6056"
         inkscape:connector-curvature="0"
         style="fill:#abdda4;stroke:#000000;stroke-width:0.5" />
      <path
         d="m 326.656,-2212 c 0,0 -9.982,-94.97 -9.982,-94.97 -1.656,0.17 -3.306,0.39 -4.95,0.65 -1.644,0.26 -3.28,0.57 -4.908,0.91 -1.628,0.35 -3.247,0.74 -4.854,1.18 -1.608,0.43 -3.204,0.9 -4.787,1.42 -1.582,0.52 -3.151,1.07 -4.705,1.67 -1.553,0.6 -3.091,1.24 -4.611,1.92 -1.52,0.68 -3.022,1.4 -4.505,2.16 -1.482,0.76 -2.945,1.56 -4.386,2.39 -1.441,0.84 -2.859,1.71 -4.254,2.62 -1.396,0.91 -2.767,1.86 -4.112,2.84 -1.346,0.98 -2.666,2 -3.959,3.05 -1.292,1.05 -2.557,2.14 -3.793,3.25 -1.236,1.12 -2.442,2.27 -3.618,3.45 -1.175,1.18 -2.32,2.4 -3.432,3.64 -1.113,1.24 -2.192,2.51 -3.238,3.81 -1.046,1.3 -2.058,2.62 -3.035,3.97 0,0 77.129,56.04 77.129,56.04"
         id="path6058"
         inkscape:connector-curvature="0"
         style="fill:#2b83ba;stroke:#000000;stroke-width:0.5" />
      <path
         d="m 326.656,-2212 c 0,0 -77.129,-56.04 -77.129,-56.04 -1.097,1.52 -2.149,3.07 -3.155,4.65 -1.006,1.58 -1.966,3.19 -2.877,4.83 -0.912,1.63 -1.775,3.3 -2.589,4.98 -0.814,1.69 -1.579,3.4 -2.292,5.14 -0.714,1.73 -1.376,3.48 -1.987,5.25 -0.61,1.78 -1.169,3.57 -1.674,5.37 -0.506,1.81 -0.958,3.63 -1.357,5.46 -0.398,1.83 -0.743,3.67 -1.034,5.52 -0.29,1.86 -0.526,3.72 -0.707,5.58 -0.182,1.87 -0.308,3.74 -0.38,5.61 -0.071,1.87 -0.087,3.75 -0.049,5.62 0.039,1.88 0.133,3.75 0.281,5.62 0.149,1.87 0.352,3.73 0.61,5.59 0.258,1.86 0.571,3.7 0.937,5.54 0.367,1.84 0.787,3.67 1.261,5.48 0.474,1.81 1.001,3.61 1.58,5.4 0.58,1.78 1.211,3.54 1.895,5.29 0.683,1.74 1.417,3.47 2.201,5.17 0.784,1.7 1.618,3.38 2.501,5.03 0.883,1.65 1.814,3.28 2.793,4.88 0.978,1.6 2.003,3.16 3.073,4.7 1.071,1.54 2.186,3.04 3.345,4.51 1.158,1.48 2.36,2.91 3.603,4.31 1.243,1.4 2.527,2.77 3.85,4.09 1.324,1.33 2.685,2.61 4.084,3.86 1.399,1.24 2.833,2.44 4.303,3.6 1.469,1.16 2.972,2.28 4.506,3.35 1.535,1.07 3.101,2.09 4.696,3.07 1.595,0.98 3.218,1.91 4.868,2.79 1.649,0.89 3.324,1.72 5.023,2.5 1.698,0.79 3.42,1.52 5.161,2.2 1.742,0.69 3.503,1.32 5.282,1.89 1.778,0.58 3.573,1.11 5.383,1.58 1.809,0.47 3.632,0.89 5.466,1.26 1.834,0.36 3.679,0.67 5.531,0.93 1.852,0.25 3.711,0.45 5.575,0.6 1.865,0.15 3.732,0.24 5.602,0.27 1.869,0.04 3.739,0.02 5.608,-0.06 1.868,-0.07 3.734,-0.2 5.594,-0.38 1.861,-0.19 3.716,-0.43 5.562,-0.72 1.847,-0.3 3.684,-0.65 5.511,-1.05 1.826,-0.4 3.64,-0.86 5.439,-1.37 1.799,-0.51 3.583,-1.07 5.349,-1.68 1.767,-0.62 3.515,-1.29 5.242,-2 1.727,-0.72 3.433,-1.49 5.115,-2.31 1.682,-0.82 3.339,-1.69 4.97,-2.6 1.631,-0.92 3.235,-1.88 4.809,-2.9 1.575,-1.01 3.119,-2.06 4.631,-3.17 1.513,-1.1 2.992,-2.25 4.437,-3.44 1.445,-1.18 2.855,-2.42 4.228,-3.69 1.372,-1.27 2.707,-2.59 4.003,-3.94 1.295,-1.35 2.551,-2.74 3.765,-4.16 1.214,-1.43 2.386,-2.89 3.514,-4.39 1.128,-1.49 2.212,-3.02 3.251,-4.58 1.038,-1.56 2.031,-3.15 2.976,-4.76 0.945,-1.62 1.842,-3.27 2.691,-4.94 0.849,-1.67 1.648,-3.36 2.397,-5.08 0.749,-1.72 1.448,-3.46 2.095,-5.22 0.646,-1.76 1.242,-3.53 1.784,-5.33 0.543,-1.79 1.033,-3.6 1.469,-5.42 0.436,-1.83 0.819,-3.66 1.148,-5.51 0.328,-1.84 0.602,-3.7 0.822,-5.56 0.22,-1.86 0.385,-3.73 0.495,-5.6 0.11,-1.87 0.165,-3.75 0.165,-5.62 0,0 -95.25,0 -95.25,0"
         id="path6060"
         inkscape:connector-curvature="0"
         style="fill:#fdae61;stroke:#000000;stroke-width:0.5" />
      <ellipse
         cx="326.65601"
         cy="-2212"
         rx="95.25"
         ry="95.5"
         id="ellipse6062"
         d="m 421.90601,-2212 c 0,52.7432 -42.64488,95.5 -95.25,95.5 -52.60513,0 -95.25,-42.7568 -95.25,-95.5 0,-52.7432 42.64487,-95.5 95.25,-95.5 52.60512,0 95.25,42.7568 95.25,95.5 z"
         sodipodi:cx="326.65601"
         sodipodi:cy="-2212"
         sodipodi:rx="95.25"
         sodipodi:ry="95.5"
         style="fill:none;stroke:#000000" />
    </g>
    <!-- 1&#45;&gt;2 -->
    <g
       id="edge2"
       class="edge">
      <title
         id="title6065">1-&gt;2</title>
      <path
         d="m 269.618,-2349.99 c 4.971,13.66 10.094,27.45 15.141,40.76"
         id="path6067"
         inkscape:connector-curvature="0"
         style="fill:none;stroke:#000000;stroke-width:5.06666994" />
      <polygon
         points="288.997,-2310.56 288.418,-2299.64 280.712,-2307.4 288.997,-2310.56 "
         id="polygon6069"
         style="fill:#000000;stroke:#000000;stroke-width:5.06666994" />
    </g>
    <!-- 3 -->
    <g
       id="node3"
       class="node">
      <title
         id="title6072">3</title>
      <path
         d="m 471.656,-379 c 0,0 139,0 139,0 0,-1.99 -0.043,-3.98 -0.128,-5.968 -0.086,-1.989 -0.214,-3.975 -0.385,-5.958 -0.17,-1.983 -0.384,-3.962 -0.639,-5.935 -0.256,-1.974 -0.554,-3.942 -0.894,-5.903 -0.341,-1.961 -0.723,-3.914 -1.147,-5.858 -0.424,-1.945 -0.89,-3.88 -1.397,-5.804 -0.508,-1.925 -1.056,-3.838 -1.645,-5.739 -0.59,-1.901 -1.22,-3.789 -1.89,-5.663 -0.671,-1.874 -1.382,-3.733 -2.132,-5.576 -0.75,-1.843 -1.54,-3.67 -2.369,-5.48 -0.828,-1.809 -1.696,-3.6 -2.602,-5.373 -0.905,-1.772 -1.849,-3.524 -2.83,-5.256 -0.981,-1.731 -1.999,-3.442 -3.053,-5.13 -1.055,-1.688 -2.145,-3.353 -3.271,-4.994 -1.126,-1.641 -2.287,-3.257 -3.482,-4.849 -1.196,-1.591 -2.425,-3.156 -3.688,-4.695 -1.262,-1.538 -2.558,-3.049 -3.885,-4.532 -1.327,-1.483 -2.687,-2.937 -4.076,-4.361 -1.39,-1.425 -2.811,-2.819 -4.26,-4.183 -1.45,-1.363 -2.929,-2.695 -4.436,-3.995 -1.507,-1.3 -3.042,-2.567 -4.603,-3.801 -1.562,-1.234 -3.149,-2.435 -4.762,-3.601 -1.613,-1.165 -3.251,-2.296 -4.912,-3.392 -1.662,-1.095 -3.347,-2.155 -5.054,-3.178 -1.707,-1.023 -3.436,-2.01 -5.185,-2.959 -1.749,-0.949 -3.519,-1.86 -5.307,-2.733 -1.789,-0.873 -3.596,-1.707 -5.42,-2.502 -1.825,-0.796 -3.666,-1.552 -5.523,-2.268 -1.856,-0.716 -3.728,-1.393 -5.614,-2.028 -1.886,-0.636 -3.785,-1.232 -5.697,-1.786 -1.911,-0.554 -3.834,-1.067 -5.768,-1.539 -1.933,-0.472 -3.877,-0.902 -5.829,-1.29 -1.951,-0.388 -3.911,-0.735 -5.878,-1.039 -1.967,-0.304 -3.94,-0.566 -5.918,-0.785 -1.978,-0.219 -3.961,-0.396 -5.946,-0.531 -1.986,-0.134 -3.974,-0.225 -5.964,-0.274 -1.989,-0.049 -3.98,-0.055 -5.97,-0.018 -1.989,0.036 -3.978,0.116 -5.965,0.238 -1.986,0.122 -3.97,0.286 -5.949,0.494 -1.979,0.207 -3.954,0.456 -5.923,0.748 -1.968,0.292 -3.93,0.627 -5.885,1.003 -1.954,0.376 -3.9,0.795 -5.836,1.254 -1.936,0.46 -3.863,0.962 -5.777,1.504 -1.915,0.543 -3.818,1.126 -5.708,1.751 -1.89,0.624 -3.766,1.289 -5.627,1.993 -1.861,0.705 -3.707,1.45 -5.536,2.234 -1.829,0.784 -3.641,1.608 -5.435,2.47 -1.794,0.861 -3.569,1.762 -5.324,2.7 -1.755,0.938 -3.49,1.914 -5.203,2.926 -1.714,1.013 -3.405,2.062 -5.073,3.148 -1.668,1.085 -3.313,2.206 -4.933,3.362 -1.62,1.156 -3.215,2.346 -4.784,3.571 -1.569,1.224 -3.112,2.482 -4.627,3.773 -1.514,1.291 -3.002,2.614 -4.46,3.968 -1.458,1.355 -2.887,2.74 -4.285,4.156 -1.399,1.416 -2.767,2.862 -4.103,4.336 -1.337,1.475 -2.641,2.978 -3.913,4.509 -1.272,1.53 -2.511,3.088 -3.716,4.672 -1.205,1.584 -2.376,3.193 -3.512,4.827 -1.136,1.635 -2.237,3.293 -3.302,4.974 -1.064,1.682 -2.093,3.386 -3.085,5.111 -0.991,1.726 -1.945,3.473 -2.862,5.239 -0.917,1.767 -1.795,3.553 -2.635,5.357 -0.84,1.804 -1.641,3.626 -2.402,5.465 0,0 128.419,53.193 128.419,53.193"
         id="path6074"
         inkscape:connector-curvature="0"
         style="fill:#2b83ba;stroke:#000000;stroke-width:0.5" />
      <path
         d="m 471.656,-379 c 0,0 -128.419,-53.193 -128.419,-53.193 -0.98,2.364 -1.893,4.755 -2.741,7.169 -0.847,2.415 -1.627,4.852 -2.34,7.31 -0.713,2.457 -1.357,4.934 -1.933,7.427 -0.576,2.494 -1.083,5.002 -1.521,7.523 -0.437,2.521 -0.805,5.054 -1.103,7.596 -0.297,2.541 -0.525,5.09 -0.681,7.644 -0.157,2.554 -0.244,5.112 -0.259,7.671 -0.016,2.559 0.039,5.118 0.164,7.673 0.126,2.556 0.322,5.108 0.588,7.653 0.267,2.545 0.604,5.082 1.01,7.608 0.407,2.527 0.883,5.041 1.428,7.541 0.545,2.5 1.16,4.985 1.842,7.451 0.683,2.466 1.433,4.913 2.251,7.338 0.817,2.425 1.701,4.826 2.652,7.202 0.95,2.376 1.965,4.725 3.045,7.045 1.08,2.32 2.224,4.609 3.43,6.866 1.206,2.257 2.474,4.48 3.803,6.666 1.329,2.187 2.718,4.337 4.166,6.447 1.448,2.11 2.953,4.179 4.515,6.206 1.562,2.027 3.18,4.01 4.851,5.948 1.671,1.938 3.396,3.829 5.172,5.671 1.775,1.842 3.602,3.635 5.476,5.377 1.875,1.741 3.798,3.431 5.766,5.066 1.968,1.636 3.98,3.217 6.036,4.741 2.055,1.524 4.152,2.991 6.288,4.4 2.137,1.408 4.311,2.758 6.522,4.046 2.211,1.289 4.457,2.516 6.735,3.68 2.279,1.165 4.589,2.266 6.928,3.303 2.34,1.037 4.707,2.009 7.1,2.916 2.393,0.906 4.811,1.746 7.25,2.519 2.439,0.772 4.9,1.478 7.378,2.115 2.478,0.637 4.974,1.205 7.483,1.704 2.51,0.499 5.033,0.929 7.566,1.289 2.534,0.36 5.077,0.65 7.626,0.869 2.55,0.22 5.104,0.369 7.662,0.448 2.558,0.078 5.117,0.086 7.675,0.023 2.558,-0.063 5.114,-0.196 7.665,-0.4 2.55,-0.204 5.095,-0.478 7.631,-0.823 2.535,-0.344 5.061,-0.758 7.573,-1.242 2.513,-0.484 5.012,-1.037 7.494,-1.659 2.482,-0.621 4.947,-1.312 7.391,-2.069 2.444,-0.758 4.867,-1.583 7.265,-2.475 2.399,-0.891 4.772,-1.849 7.118,-2.872 2.345,-1.022 4.662,-2.109 6.948,-3.26 2.286,-1.15 4.539,-2.364 6.758,-3.639 2.218,-1.274 4.401,-2.61 6.546,-4.006 2.145,-1.395 4.251,-2.85 6.316,-4.361 2.064,-1.512 4.087,-3.08 6.065,-4.704 1.978,-1.623 3.91,-3.3 5.796,-5.03 1.885,-1.731 3.722,-3.512 5.51,-5.344 1.787,-1.831 3.523,-3.712 5.206,-5.639 1.683,-1.927 3.313,-3.901 4.887,-5.918 1.574,-2.017 3.093,-4.077 4.553,-6.178 1.461,-2.102 2.863,-4.243 4.205,-6.421 1.343,-2.179 2.625,-4.394 3.845,-6.643 1.22,-2.249 2.377,-4.532 3.471,-6.845 1.094,-2.313 2.124,-4.656 3.089,-7.026 0.965,-2.37 1.864,-4.766 2.696,-7.186 0.833,-2.42 1.598,-4.862 2.296,-7.324 0.697,-2.462 1.327,-4.942 1.888,-7.439 0.56,-2.497 1.052,-5.008 1.474,-7.532 0.422,-2.524 0.774,-5.059 1.056,-7.602 0.282,-2.543 0.494,-5.094 0.635,-7.649 0.141,-2.555 0.212,-5.113 0.212,-7.672 0,0 -139,0 -139,0"
         id="path6076"
         inkscape:connector-curvature="0"
         style="fill:#d7191c;stroke:#000000;stroke-width:0.5" />
      <ellipse
         cx="471.65601"
         cy="-379"
         rx="139"
         ry="139"
         id="ellipse6078"
         d="m 610.65601,-379 c 0,76.76758 -62.23242,139 -139,139 -76.76758,0 -139,-62.23242 -139,-139 0,-76.76758 62.23242,-139 139,-139 76.76758,0 139,62.23242 139,139 z"
         sodipodi:cx="471.65601"
         sodipodi:cy="-379"
         sodipodi:rx="139"
         sodipodi:ry="139"
         style="fill:none;stroke:#000000" />
    </g>
    <!-- 1&#45;&gt;3 -->
    <g
       id="edge3"
       class="edge">
      <title
         id="title6081">1-&gt;3</title>
      <path
         d="m 146.995,-2378.06 c -16.605,21.63 -32.263,45.59 -43.339,70.06 -61.22,135.27 -58.0001,180.52 -58.0001,329 0,0 0,0 0,523 0,415.07 15.1681,554.398 242.0001,902 18.807,28.82 43.315,56.283 68.279,80.524"
         id="path6083"
         inkscape:connector-curvature="0"
         style="fill:none;stroke:#000000;stroke-width:3.33332992" />
      <polygon
         points="358.531,-475.836 363.336,-466.393 353.691,-470.778 358.531,-475.836 "
         id="polygon6085"
         style="fill:#000000;stroke:#000000;stroke-width:3.33332992" />
    </g>
    <!-- 4 -->
    <g
       id="node4"
       class="node">
      <title
         id="title6088">4</title>
      <path
         d="m 418.656,-662 c 0,0 107.25,0 107.25,0 0,-2.958 -0.122,-5.914 -0.365,-8.862 -0.243,-2.948 -0.608,-5.884 -1.093,-8.802 -0.485,-2.918 -1.09,-5.814 -1.813,-8.682 -0.723,-2.867 -1.564,-5.704 -2.521,-8.502 -0.956,-2.798 -2.028,-5.555 -3.211,-8.265 -1.184,-2.709 -2.478,-5.369 -3.88,-7.971 -1.403,-2.603 -2.912,-5.146 -4.523,-7.624 -1.612,-2.478 -3.325,-4.888 -5.134,-7.224 0,0 -84.71,65.932 -84.71,65.932"
         id="path6090"
         inkscape:connector-curvature="0"
         style="fill:#2b83ba;stroke:#000000;stroke-width:0.5" />
      <path
         d="m 418.656,-662 c 0,0 84.71,-65.932 84.71,-65.932 -1.927,-2.487 -3.962,-4.888 -6.099,-7.196 -2.137,-2.308 -4.374,-4.521 -6.705,-6.632 -2.331,-2.111 -4.753,-4.118 -7.26,-6.016 -2.506,-1.898 -5.095,-3.685 -7.758,-5.355 -2.663,-1.67 -5.398,-3.222 -8.197,-4.652 -2.799,-1.429 -5.659,-2.735 -8.573,-3.913 -2.913,-1.178 -5.877,-2.227 -8.882,-3.144 -3.005,-0.917 -6.049,-1.701 -9.123,-2.35 -3.074,-0.649 -6.175,-1.163 -9.294,-1.539 -3.119,-0.377 -6.253,-0.616 -9.393,-0.716 -3.139,-0.101 -6.282,-0.063 -9.419,0.113 -3.136,0.176 -6.263,0.49 -9.372,0.941 -3.11,0.451 -6.197,1.039 -9.255,1.762 -3.057,0.723 -6.082,1.58 -9.064,2.569 -2.983,0.989 -5.92,2.108 -8.805,3.356 -2.884,1.247 -5.713,2.621 -8.477,4.117 -2.764,1.497 -5.461,3.114 -8.083,4.848 -2.623,1.733 -5.168,3.581 -7.628,5.539 -2.461,1.958 -4.834,4.023 -7.114,6.189 -2.28,2.166 -4.463,4.432 -6.545,6.791 -2.081,2.358 -4.058,4.808 -5.925,7.34 -1.866,2.533 -3.621,5.146 -5.259,7.833 -1.638,2.687 -3.157,5.445 -4.553,8.265 -1.397,2.821 -2.669,5.702 -3.813,8.634 -1.144,2.933 -2.159,5.914 -3.041,8.936 -0.883,3.022 -1.633,6.081 -2.248,9.169 -0.615,3.088 -1.094,6.201 -1.437,9.331 -0.342,3.13 -0.547,6.274 -0.614,9.422 -0.067,3.148 0.004,6.298 0.213,9.439 0.209,3.142 0.556,6.273 1.039,9.385 0.483,3.111 1.102,6.199 1.856,9.256 0.754,3.057 1.641,6.079 2.659,9.058 1.019,2.979 2.167,5.911 3.442,8.789 1.276,2.877 2.676,5.697 4.198,8.452 1.523,2.754 3.165,5.44 4.922,8.05 1.758,2.61 3.629,5.142 5.608,7.587 1.979,2.445 4.064,4.802 6.25,7.064 2.185,2.262 4.469,4.426 6.844,6.487 2.375,2.061 4.84,4.016 7.386,5.86 2.546,1.844 5.172,3.575 7.87,5.188 2.698,1.613 5.466,3.106 8.294,4.476 2.829,1.369 5.717,2.613 8.654,3.729 2.938,1.115 5.923,2.101 8.947,2.953 3.024,0.853 6.084,1.572 9.171,2.155 3.088,0.584 6.199,1.031 9.325,1.341 3.126,0.31 6.264,0.481 9.406,0.515 3.141,0.033 6.282,-0.071 9.414,-0.314 3.132,-0.243 6.252,-0.624 9.351,-1.141 3.099,-0.518 6.173,-1.171 9.215,-1.959 3.041,-0.788 6.047,-1.71 9.007,-2.762 2.961,-1.052 5.874,-2.235 8.732,-3.543 2.857,-1.309 5.655,-2.743 8.387,-4.298 2.732,-1.555 5.394,-3.229 7.979,-5.019 2.585,-1.789 5.09,-3.691 7.509,-5.701 2.418,-2.009 4.747,-4.125 6.98,-6.339 2.233,-2.215 4.368,-4.527 6.399,-6.929 2.031,-2.403 3.955,-4.893 5.767,-7.465 1.813,-2.572 3.512,-5.222 5.092,-7.944 1.581,-2.721 3.041,-5.511 4.377,-8.36 1.336,-2.85 2.546,-5.758 3.628,-8.714 1.081,-2.956 2.033,-5.959 2.851,-8.999 0.818,-3.04 1.503,-6.114 2.052,-9.215 0.55,-3.1 0.963,-6.223 1.238,-9.359 0.276,-3.137 0.414,-6.284 0.414,-9.433 0,0 -107.25,0 -107.25,0"
         id="path6092"
         inkscape:connector-curvature="0"
         style="fill:#fdae61;stroke:#000000;stroke-width:0.5" />
      <ellipse
         cx="418.65601"
         cy="-662"
         rx="107.25"
         ry="107.5"
         id="ellipse6094"
         d="m 525.90601,-662 c 0,59.37061 -48.01746,107.5 -107.25,107.5 -59.23254,0 -107.25,-48.12939 -107.25,-107.5 0,-59.37061 48.01746,-107.5 107.25,-107.5 59.23254,0 107.25,48.12939 107.25,107.5 z"
         sodipodi:cx="418.65601"
         sodipodi:cy="-662"
         sodipodi:rx="107.25"
         sodipodi:ry="107.5"
         style="fill:none;stroke:#000000" />
    </g>
    <!-- 1&#45;&gt;4 -->
    <g
       id="edge4"
       class="edge">
      <title
         id="title6097">1-&gt;4</title>
      <path
         d="m 174.789,-2358.2 c -41.94,97.68 -91.1331,244.94 -91.1331,379.2 0,0 0,0 0,523 0,270.91 164.7701,557.428 263.2621,700.434"
         id="path6099"
         inkscape:connector-curvature="0"
         style="fill:none;stroke:#000000;stroke-width:3.33332992" />
      <polygon
         points="349.902,-757.405 352.723,-747.192 344.15,-753.417 349.902,-757.405 "
         id="polygon6101"
         style="fill:#000000;stroke:#000000;stroke-width:3.33332992" />
    </g>
    <!-- 6 -->
    <g
       id="node6"
       class="node">
      <title
         id="title6104">6</title>
      <path
         d="m 471.656,-102 c 0,0 101.25,0 101.25,0 0,-3.122 -0.144,-6.241 -0.431,-9.35 -0.286,-3.108 -0.716,-6.201 -1.287,-9.27 -0.572,-3.069 -1.284,-6.109 -2.134,-9.112 -0.851,-3.003 -1.84,-5.964 -2.963,-8.876 -1.123,-2.911 -2.379,-5.769 -3.765,-8.565 -1.386,-2.795 -2.9,-5.525 -4.537,-8.18 -1.636,-2.656 -3.394,-5.234 -5.268,-7.727 -1.874,-2.493 -3.862,-4.899 -5.957,-7.208 0,0 -74.908,68.288 -74.908,68.288"
         id="path6106"
         inkscape:connector-curvature="0"
         style="fill:#2b83ba;stroke:#000000;stroke-width:0.5" />
      <path
         d="m 471.656,-102 c 0,0 74.908,-68.288 74.908,-68.288 -1.967,-2.169 -4.028,-4.252 -6.176,-6.242 -2.147,-1.99 -4.38,-3.886 -6.691,-5.683 -2.311,-1.797 -4.699,-3.492 -7.157,-5.081 -2.458,-1.589 -4.983,-3.071 -7.569,-4.441 -2.585,-1.37 -5.229,-2.628 -7.923,-3.768 -2.694,-1.141 -5.437,-2.164 -8.219,-3.067 -2.783,-0.902 -5.603,-1.684 -8.454,-2.342 -2.85,-0.658 -5.727,-1.191 -8.623,-1.6 -2.896,-0.408 -5.809,-0.69 -8.729,-0.845 -2.921,-0.156 -5.847,-0.184 -8.77,-0.086 -2.923,0.099 -5.84,0.324 -8.744,0.676 -2.903,0.352 -5.79,0.829 -8.653,1.432 -2.862,0.602 -5.697,1.328 -8.497,2.177 -2.799,0.848 -5.561,1.818 -8.277,2.906 -2.715,1.088 -5.383,2.293 -7.995,3.613 -2.612,1.319 -5.165,2.752 -7.653,4.293 -2.488,1.541 -4.908,3.189 -7.254,4.941 -2.346,1.751 -4.615,3.603 -6.8,5.551 -2.186,1.948 -4.286,3.991 -6.296,6.121 -2.009,2.13 -3.925,4.347 -5.743,6.644 -1.818,2.297 -3.536,4.671 -5.149,7.117 -1.613,2.446 -3.119,4.961 -4.515,7.537 -1.395,2.577 -2.679,5.213 -3.847,7.901 -1.168,2.688 -2.219,5.425 -3.151,8.204 -0.931,2.78 -1.742,5.598 -2.43,8.448 -0.689,2.849 -1.253,5.727 -1.693,8.626 -0.439,2.898 -0.754,5.815 -0.941,8.741 -0.188,2.926 -0.249,5.858 -0.184,8.7894 0.066,2.9311 0.258,5.8581 0.576,8.7726 0.319,2.9145 0.763,5.8138 1.332,8.6897 0.568,2.876 1.261,5.7259 2.076,8.5417 0.815,2.8158 1.751,5.5949 2.806,8.3295 1.055,2.7346 2.227,5.4221 3.514,8.0549 1.287,2.6328 2.687,5.2085 4.196,7.7198 1.51,2.5113 3.127,4.9558 4.848,7.3268 1.72,2.3709 3.542,4.666 5.461,6.8788 1.919,2.2128 3.932,4.3412 6.035,6.3792 2.102,2.038 4.292,3.9838 6.562,5.8318 2.271,1.848 4.62,3.5965 7.042,5.2406 2.422,1.6441 4.913,3.1823 7.468,4.6101 2.554,1.4279 5.169,2.7441 7.837,3.94503 2.668,1.20092 5.387,2.28537 8.149,3.25032 2.761,0.96495 5.563,1.80949 8.398,2.53124 2.835,0.72175 5.699,1.32004 8.586,1.79317 2.886,0.47314 5.792,0.82068 8.708,1.041654 2.916,0.220972 5.841,0.315165 8.765,0.282315 2.925,-0.032851 5.847,-0.192714 8.757,-0.47914 2.911,-0.286429 5.808,-0.699149 8.683,-1.236999 2.875,-0.53785 5.726,-1.20033 8.543,-1.98558 2.818,-0.78524 5.601,-1.69252 8.34,-2.71926 2.74,-1.02675 5.434,-2.172 8.074,-3.43255 2.641,-1.2605 5.226,-2.6352 7.747,-4.1201 2.522,-1.4848 4.979,-3.0786 7.363,-4.7767 2.384,-1.698 4.694,-3.4989 6.923,-5.3974 2.228,-1.8986 4.374,-3.893 6.43,-5.9778 2.057,-2.0847 4.022,-4.2578 5.891,-6.5132 1.869,-2.2553 3.639,-4.5907 5.306,-6.9997 1.667,-2.409 3.23,-4.8893 4.682,-7.4339 1.453,-2.5445 2.796,-5.151 4.023,-7.8121 1.228,-2.661 2.34,-5.3742 3.334,-8.1317 0.993,-2.7576 1.867,-5.5571 2.619,-8.3905 0.751,-2.8334 1.38,-5.6982 1.885,-8.5862 0.504,-2.888 0.883,-5.7965 1.136,-8.7174 0.253,-2.921 0.38,-5.8515 0.38,-8.7834 0,0 -101.25,0 -101.25,0"
         id="path6108"
         inkscape:connector-curvature="0"
         style="fill:#fdae61;stroke:#000000;stroke-width:0.5" />
      <ellipse
         cx="471.65601"
         cy="-102"
         rx="101.25"
         ry="101.5"
         id="ellipse6110"
         d="m 572.90601,-102 c 0,56.056902 -45.33117,101.5 -101.25,101.5 -55.91884,0 -101.25,-45.443098 -101.25,-101.5 0,-56.0569 45.33116,-101.5 101.25,-101.5 55.91883,0 101.25,45.4431 101.25,101.5 z"
         sodipodi:cx="471.65601"
         sodipodi:cy="-102"
         sodipodi:rx="101.25"
         sodipodi:ry="101.5"
         style="fill:none;stroke:#000000" />
    </g>
    <!-- 1&#45;&gt;6 -->
    <g
       id="edge5"
       class="edge">
      <title
         id="title6113">1-&gt;6</title>
      <path
         d="m 127.269,-2402.05 c -31.7041,25.51 -63.1961,57.41 -82.6131,94.05 -68.8989,130.02 -36.99997,181.86 -36.99997,329 0,0 0,0 0,1318 0,193.281 -19.59283,276.704 109.00007,421 62.697,70.354 165.748,104.84 244.714,121.587"
         id="path6115"
         inkscape:connector-curvature="0"
         style="fill:none;stroke:#000000;stroke-width:4.46667004" />
      <polygon
         points="362.355,-122.201 371.364,-116.36 360.783,-114.544 362.355,-122.201 "
         id="polygon6117"
         style="fill:#000000;stroke:#000000;stroke-width:4.46667004" />
    </g>
    <!-- 7 -->
    <g
       id="node7"
       class="node">
      <title
         id="title6120">7</title>
      <path
         d="m 418.656,-1457 c 0,0 120.25,0 120.25,0 0,-2.62 -0.086,-5.25 -0.257,-7.87 -0.171,-2.62 -0.427,-5.23 -0.768,-7.83 -0.342,-2.6 -0.768,-5.19 -1.278,-7.77 -0.51,-2.57 -1.104,-5.13 -1.781,-7.67 -0.676,-2.53 -1.436,-5.04 -2.276,-7.53 -0.841,-2.49 -1.762,-4.94 -2.763,-7.37 -1,-2.42 -2.08,-4.82 -3.236,-7.17 -1.157,-2.36 -2.39,-4.67 -3.698,-6.95 0,0 -104.193,60.16 -104.193,60.16"
         id="path6122"
         inkscape:connector-curvature="0"
         style="fill:#fdae61;stroke:#000000;stroke-width:0.5" />
      <path
         d="m 418.656,-1457 c 0,0 104.193,-60.16 104.193,-60.16 -0.9,-1.56 -1.836,-3.11 -2.806,-4.63 -0.97,-1.53 -1.974,-3.03 -3.011,-4.51 -1.038,-1.48 -2.108,-2.93 -3.211,-4.36 -1.103,-1.43 -2.238,-2.84 -3.403,-4.22 -1.166,-1.38 -2.363,-2.73 -3.59,-4.06 -1.226,-1.32 -2.483,-2.62 -3.768,-3.89 -1.284,-1.27 -2.598,-2.51 -3.938,-3.72 -1.341,-1.21 -2.708,-2.39 -4.102,-3.53 -1.394,-1.15 -2.813,-2.27 -4.256,-3.35 -1.444,-1.09 -2.912,-2.14 -4.403,-3.15 -1.49,-1.02 -3.004,-2.01 -4.539,-2.96 -1.535,-0.95 -3.091,-1.86 -4.667,-2.74 -1.577,-0.88 -3.172,-1.72 -4.786,-2.53 -1.614,-0.81 -3.246,-1.58 -4.895,-2.31 -1.648,-0.74 -3.313,-1.43 -4.993,-2.09 -1.68,-0.66 -3.375,-1.28 -5.082,-1.86 -1.708,-0.59 -3.429,-1.13 -5.161,-1.64 -1.732,-0.5 -3.476,-0.97 -5.229,-1.39 -1.753,-0.43 -3.515,-0.82 -5.286,-1.16 -1.77,-0.35 -3.548,-0.66 -5.333,-0.92 -1.784,-0.27 -3.574,-0.5 -5.368,-0.68 -1.795,-0.19 -3.593,-0.33 -5.394,-0.44 -1.801,-0.1 -3.604,-0.17 -5.408,-0.19 -1.804,-0.02 -3.608,-0.01 -5.411,0.05 -1.803,0.06 -3.604,0.16 -5.403,0.3 -1.799,0.14 -3.594,0.32 -5.384,0.54 -1.791,0.22 -3.576,0.48 -5.355,0.78 -1.779,0.3 -3.551,0.64 -5.315,1.02 -1.763,0.38 -3.518,0.8 -5.263,1.26 -1.745,0.46 -3.479,0.96 -5.201,1.49 -1.722,0.54 -3.432,1.12 -5.129,1.73 -1.696,0.62 -3.379,1.27 -5.046,1.96 -1.667,0.69 -3.318,1.42 -4.953,2.19 -1.634,0.76 -3.251,1.56 -4.85,2.4 -1.598,0.84 -3.178,1.71 -4.737,2.62 -1.559,0.91 -3.097,1.86 -4.614,2.83 -1.517,0.98 -3.012,2 -4.483,3.04 -1.471,1.05 -2.919,2.13 -4.342,3.24 -1.423,1.11 -2.82,2.25 -4.192,3.43 -1.371,1.17 -2.716,2.38 -4.034,3.61 -1.317,1.24 -2.607,2.5 -3.867,3.79 -1.261,1.3 -2.492,2.62 -3.694,3.97 -1.201,1.34 -2.372,2.72 -3.512,4.12 -1.139,1.4 -2.247,2.83 -3.323,4.28 -1.075,1.45 -2.118,2.93 -3.127,4.43 -1.009,1.49 -1.985,3.02 -2.926,4.56 -0.941,1.54 -1.847,3.1 -2.718,4.69 -0.87,1.58 -1.705,3.18 -2.504,4.8 -0.799,1.62 -1.561,3.26 -2.286,4.92 -0.726,1.65 -1.414,3.32 -2.064,5.01 -0.65,1.69 -1.262,3.39 -1.836,5.1 -0.574,1.72 -1.109,3.44 -1.605,5.18 -0.497,1.74 -0.954,3.49 -1.371,5.25 -0.418,1.75 -0.796,3.52 -1.135,5.3 -0.338,1.77 -0.637,3.56 -0.895,5.35 -0.258,1.78 -0.476,3.58 -0.654,5.38 -0.178,1.8 -0.315,3.6 -0.412,5.41 -0.097,1.8 -0.153,3.61 -0.169,5.41 -0.015,1.81 0.01,3.62 0.075,5.43 0.066,1.8 0.172,3.61 0.318,5.41 0.147,1.8 0.334,3.6 0.561,5.39 0.228,1.8 0.495,3.58 0.803,5.37 0.307,1.78 0.655,3.55 1.042,5.32 0.387,1.76 0.814,3.52 1.28,5.27 0.466,1.74 0.972,3.48 1.516,5.2 0.544,1.72 1.127,3.44 1.747,5.13 0.621,1.7 1.28,3.38 1.977,5.05 0.696,1.67 1.43,3.32 2.201,4.95 0.77,1.64 1.577,3.26 2.421,4.85 0.843,1.6 1.722,3.18 2.636,4.74 0.914,1.56 1.863,3.1 2.846,4.61 0.983,1.52 2,3.01 3.051,4.48 1.05,1.47 2.133,2.92 3.248,4.34 1.115,1.42 2.262,2.81 3.44,4.18 1.178,1.37 2.386,2.71 3.624,4.03 1.238,1.31 2.506,2.6 3.801,3.86 1.296,1.26 2.62,2.48 3.971,3.68 1.351,1.2 2.729,2.37 4.132,3.5 1.404,1.14 2.832,2.24 4.285,3.31 1.453,1.08 2.93,2.11 4.43,3.12 1.5,1 3.022,1.98 4.565,2.91 1.543,0.94 3.107,1.84 4.691,2.7 1.583,0.87 3.186,1.7 4.807,2.49 1.621,0.8 3.26,1.55 4.915,2.27 1.655,0.72 3.325,1.4 5.011,2.05 1.685,0.64 3.385,1.25 5.098,1.82 1.713,0.56 3.438,1.09 5.175,1.58 1.736,0.49 3.483,0.94 5.24,1.35 1.757,0.42 3.523,0.79 5.296,1.12 1.773,0.33 3.554,0.62 5.341,0.87 1.786,0.25 3.578,0.46 5.374,0.63 1.796,0.17 3.595,0.3 5.397,0.39 1.802,0.09 3.606,0.14 5.409,0.15 1.804,0.01 3.608,-0.03 5.411,-0.1 1.802,-0.07 3.603,-0.19 5.4,-0.34 1.798,-0.16 3.591,-0.35 5.38,-0.59 1.789,-0.23 3.572,-0.51 5.348,-0.82 1.776,-0.32 3.545,-0.68 5.305,-1.07 1.76,-0.4 3.511,-0.83 5.252,-1.31 1.741,-0.47 3.471,-0.99 5.188,-1.54 1.718,-0.55 3.423,-1.14 5.114,-1.77 1.691,-0.63 3.368,-1.3 5.029,-2 1.661,-0.71 3.306,-1.45 4.934,-2.23 1.627,-0.78 3.237,-1.6 4.829,-2.45 1.591,-0.85 3.162,-1.74 4.714,-2.66 1.551,-0.92 3.081,-1.88 4.589,-2.87 1.509,-1 2.995,-2.02 4.457,-3.08 1.462,-1.06 2.9,-2.15 4.313,-3.27 1.414,-1.13 2.801,-2.28 4.163,-3.47 1.361,-1.18 2.695,-2.4 4.002,-3.65 1.307,-1.24 2.585,-2.52 3.835,-3.82 1.249,-1.31 2.469,-2.64 3.659,-4 1.189,-1.36 2.348,-2.74 3.476,-4.15 1.127,-1.42 2.223,-2.85 3.285,-4.31 1.063,-1.46 2.093,-2.95 3.09,-4.46 0.996,-1.5 1.958,-3.03 2.886,-4.58 0.927,-1.55 1.82,-3.12 2.677,-4.71 0.857,-1.59 1.678,-3.2 2.463,-4.83 0.784,-1.63 1.533,-3.28 2.243,-4.94 0.711,-1.66 1.385,-3.34 2.02,-5.03 0.636,-1.69 1.233,-3.4 1.792,-5.11 0.559,-1.72 1.079,-3.45 1.561,-5.2 0.481,-1.74 0.923,-3.49 1.325,-5.25 0.403,-1.77 0.766,-3.54 1.089,-5.32 0.323,-1.77 0.606,-3.56 0.849,-5.35 0.242,-1.79 0.445,-3.59 0.607,-5.39 0.162,-1.8 0.284,-3.6 0.365,-5.41 0.081,-1.8 0.122,-3.61 0.122,-5.42 0,0 -120.25,0 -120.25,0"
         id="path6124"
         inkscape:connector-curvature="0"
         style="fill:#d7191c;stroke:#000000;stroke-width:0.5" />
      <ellipse
         cx="418.65601"
         cy="-1457"
         rx="120.25"
         ry="120.5"
         id="ellipse6126"
         d="m 538.90601,-1457 c 0,66.5503 -53.83776,120.5 -120.25,120.5 -66.41225,0 -120.25,-53.9497 -120.25,-120.5 0,-66.5503 53.83775,-120.5 120.25,-120.5 66.41224,0 120.25,53.9497 120.25,120.5 z"
         sodipodi:cx="418.65601"
         sodipodi:cy="-1457"
         sodipodi:rx="120.25"
         sodipodi:ry="120.5"
         style="fill:none;stroke:#000000" />
    </g>
    <!-- 1&#45;&gt;7 -->
    <g
       id="edge6"
       class="edge">
      <title
         id="title6129">1-&gt;7</title>
      <path
         d="m 218.353,-2345.08 c -5.228,67.96 -7.533,153.52 3.303,229.08 27.619,192.6 100.061,406.99 148.967,537.15"
         id="path6131"
         inkscape:connector-curvature="0"
         style="fill:none;stroke:#000000;stroke-width:3.4000001" />
      <polygon
         points="373.994,-1579.83 374.25,-1569.23 367.445,-1577.36 373.994,-1579.83 "
         id="polygon6133"
         style="fill:#000000;stroke:#000000;stroke-width:3.4000001" />
    </g>
    <!-- 8 -->
    <g
       id="node8"
       class="node">
      <title
         id="title6136">8</title>
      <ellipse
         cx="644.65601"
         cy="-1187"
         rx="113"
         ry="113"
         id="ellipse6138"
         d="m 757.65601,-1187 c 0,62.4082 -50.59183,113 -113,113 -62.40818,0 -113,-50.5918 -113,-113 0,-62.4082 50.59182,-113 113,-113 62.40817,0 113,50.5918 113,113 z"
         sodipodi:cx="644.65601"
         sodipodi:cy="-1187"
         sodipodi:rx="113"
         sodipodi:ry="113"
         style="fill:#fdae61;stroke:#000000" />
    </g>
    <!-- 1&#45;&gt;8 -->
    <g
       id="edge7"
       class="edge">
      <title
         id="title6141">1-&gt;8</title>
      <path
         d="m 343.042,-2410.61 c 39.303,26.23 80.102,60.78 105.614,102.61 53.495,87.7 22.993,126.37 38,228 3.813,25.82 43.414,445.84 60,466 32.15,39.07 78.416,-5.05 108,36 56.284,78.09 46.992,189.68 27.588,273.5"
         id="path6143"
         inkscape:connector-curvature="0"
         style="fill:none;stroke:#000000;stroke-width:4.33333015" />
      <polygon
         points="685.909,-1303.52 679.895,-1294.68 678.533,-1305.29 685.909,-1303.52 "
         id="polygon6145"
         style="fill:#000000;stroke:#000000;stroke-width:4.33333015" />
    </g>
    <!-- 9 -->
    <g
       id="node9"
       class="node">
      <title
         id="title6148">9</title>
      <ellipse
         cx="668.65601"
         cy="-1727"
         rx="113"
         ry="113"
         id="ellipse6150"
         d="m 781.65601,-1727 c 0,62.4082 -50.59183,113 -113,113 -62.40818,0 -113,-50.5918 -113,-113 0,-62.4082 50.59182,-113 113,-113 62.40817,0 113,50.5918 113,113 z"
         sodipodi:cx="668.65601"
         sodipodi:cy="-1727"
         sodipodi:rx="113"
         sodipodi:ry="113"
         style="fill:#fdae61;stroke:#000000" />
    </g>
    <!-- 1&#45;&gt;9 -->
    <g
       id="edge8"
       class="edge">
      <title
         id="title6153">1-&gt;9</title>
      <path
         d="m 353.025,-2434.18 c 65.241,24.9 141.862,65.04 188.631,126.18 101.834,133.12 125.542,331.12 129.286,457.88"
         id="path6155"
         inkscape:connector-curvature="0"
         style="fill:none;stroke:#000000;stroke-width:3.93333006" />
      <polygon
         points="674.445,-1850.07 671.204,-1839.99 667.447,-1849.89 674.445,-1850.07 "
         id="polygon6157"
         style="fill:#000000;stroke:#000000;stroke-width:3.93333006" />
    </g>
    <!-- 10 -->
    <g
       id="node10"
       class="node">
      <title
         id="title6160">10</title>
      <ellipse
         cx="818.65601"
         cy="-1978"
         rx="101.25"
         ry="101.5"
         id="ellipse6162"
         d="m 919.90601,-1978 c 0,56.0569 -45.33117,101.5 -101.25,101.5 -55.91884,0 -101.25,-45.4431 -101.25,-101.5 0,-56.0569 45.33116,-101.5 101.25,-101.5 55.91883,0 101.25,45.4431 101.25,101.5 z"
         sodipodi:cx="818.65601"
         sodipodi:cy="-1978"
         sodipodi:rx="101.25"
         sodipodi:ry="101.5"
         style="fill:#d7191c;stroke:#000000" />
    </g>
    <!-- 1&#45;&gt;10 -->
    <g
       id="edge9"
       class="edge">
      <title
         id="title6165">1-&gt;10</title>
      <path
         d="m 356.632,-2449.27 c 94.709,20.77 223.155,61.96 309.024,141.27 63.861,58.99 103.333,149.99 126.153,221.35"
         id="path6167"
         inkscape:connector-curvature="0"
         style="fill:none;stroke:#000000;stroke-width:3.4000001" />
      <polygon
         points="795.271,-2087.31 794.919,-2076.72 788.591,-2085.22 795.271,-2087.31 "
         id="polygon6169"
         style="fill:#000000;stroke:#000000;stroke-width:3.4000001" />
    </g>
    <!-- 2&#45;&gt;1 -->
    <g
       id="edge10"
       class="edge">
      <title
         id="title6172">2-&gt;1</title>
      <path
         d="m 299.83,-2303.73 c -4.674,-13.25 -9.666,-27.08 -14.743,-40.85"
         id="path6174"
         inkscape:connector-curvature="0"
         style="fill:none;stroke:#000000;stroke-width:3.79999995" />
      <polygon
         points="281.753,-2343.51 281.563,-2354.1 288.317,-2345.94 281.753,-2343.51 "
         id="polygon6176"
         style="fill:#000000;stroke:#000000;stroke-width:3.79999995" />
    </g>
    <!-- 2&#45;&gt;2 -->
    <g
       id="edge11"
       class="edge">
      <title
         id="title6179">2-&gt;2</title>
      <path
         d="m 412.393,-2253.62 c 15.997,5.12 27.263,19 27.263,41.62 0,18.03 -7.154,30.5 -18.156,37.42"
         id="path6181"
         inkscape:connector-curvature="0"
         style="fill:none;stroke:#000000;stroke-width:3.53332996" />
      <polygon
         points="422.939,-2171.39 412.393,-2170.38 420.004,-2177.75 422.939,-2171.39 "
         id="polygon6183"
         style="fill:#000000;stroke:#000000;stroke-width:3.53332996" />
    </g>
    <!-- 2&#45;&gt;3 -->
    <g
       id="edge12"
       class="edge">
      <title
         id="title6186">2-&gt;3</title>
      <path
         d="m 313.103,-2117.24 c -12.169,123.5 -27.697,347.49 -33.447,539.24 -9.192,306.52 2.413,998.621 13,1024 13.171,31.573 35.027,60.587 59.039,85.5"
         id="path6188"
         inkscape:connector-curvature="0"
         style="fill:none;stroke:#000000;stroke-width:3.79999995" />
      <polygon
         points="354.325,-470.818 358.863,-461.244 349.345,-465.899 354.325,-470.818 "
         id="polygon6190"
         style="fill:#000000;stroke:#000000;stroke-width:3.79999995" />
    </g>
    <!-- 2&#45;&gt;4 -->
    <g
       id="edge13"
       class="edge">
      <title
         id="title6193">2-&gt;4</title>
      <path
         d="m 280.404,-2128.5 c -5.798,15.8 -10.73,32.43 -13.748,48.5 -38.226,203.55 -4.839,258.95 0,466 2.89,123.66 -1.656,155.18 13,278 23.781,199.29 72.651,428.089 105.805,561.022"
         id="path6195"
         inkscape:connector-curvature="0"
         style="fill:none;stroke:#000000;stroke-width:4.46667004" />
      <polygon
         points="389.276,-775.83 387.92,-765.18 381.695,-773.928 389.276,-775.83 "
         id="polygon6197"
         style="fill:#000000;stroke:#000000;stroke-width:4.46667004" />
    </g>
    <!-- 5 -->
    <g
       id="node5"
       class="node">
      <title
         id="title6200">5</title>
      <path
         d="m 665.656,-922 c 0,0 115.25,0 115.25,0 0,-2.744 -0.098,-5.486 -0.293,-8.223 -0.194,-2.736 -0.487,-5.465 -0.875,-8.181 -0.389,-2.716 -0.874,-5.417 -1.455,-8.098 -0.581,-2.681 -1.257,-5.34 -2.027,-7.973 0,0 -110.6,32.475 -110.6,32.475"
         id="path6202"
         inkscape:connector-curvature="0"
         style="fill:#2b83ba;stroke:#000000;stroke-width:0.5" />
      <path
         d="m 665.656,-922 c 0,0 110.6,-32.475 110.6,-32.475 -0.77,-2.636 -1.634,-5.244 -2.591,-7.818 -0.956,-2.574 -2.003,-5.114 -3.14,-7.613 -1.137,-2.5 -2.362,-4.958 -3.674,-7.369 -1.312,-2.412 -2.709,-4.776 -4.189,-7.088 -1.48,-2.312 -3.042,-4.571 -4.682,-6.771 -1.641,-2.201 -3.359,-4.342 -5.152,-6.419 -1.793,-2.078 -3.659,-4.087 -5.596,-6.037 -1.936,-1.94 -3.94,-3.82 -6.01,-5.62 0,0 -75.566,87.21 -75.566,87.21"
         id="path6204"
         inkscape:connector-curvature="0"
         style="fill:#fdae61;stroke:#000000;stroke-width:0.5" />
      <path
         d="m 665.656,-922 c 0,0 75.566,-87.21 75.566,-87.21 -2.46,-2.14 -5.01,-4.17 -7.642,-6.1 -2.633,-1.92 -5.345,-3.74 -8.131,-5.43 -2.785,-1.69 -5.641,-3.27 -8.56,-4.72 -2.919,-1.45 -5.898,-2.78 -8.929,-3.98 -3.03,-1.2 -6.111,-2.27 -9.232,-3.2 -3.121,-0.94 -6.281,-1.74 -9.47,-2.41 -3.19,-0.67 -6.406,-1.2 -9.64,-1.6 -3.235,-0.39 -6.484,-0.65 -9.74,-0.77 -3.257,-0.12 -6.516,-0.1 -9.771,0.05 -3.255,0.16 -6.501,0.46 -9.731,0.89 -3.229,0.43 -6.439,1 -9.621,1.71 -3.181,0.7 -6.331,1.54 -9.441,2.52 -3.111,0.97 -6.179,2.07 -9.196,3.31 -3.016,1.23 -5.98,2.59 -8.882,4.08 -2.902,1.48 -5.739,3.09 -8.505,4.82 -2.766,1.72 -5.458,3.57 -8.068,5.52 -2.61,1.96 -5.136,4.02 -7.571,6.19 -2.436,2.17 -4.778,4.44 -7.022,6.81 -2.243,2.369 -4.385,4.831 -6.42,7.381 -2.035,2.551 -3.961,5.186 -5.774,7.9 -1.812,2.714 -3.509,5.503 -5.085,8.361 -1.576,2.858 -3.031,5.782 -4.36,8.763 -1.329,2.981 -2.532,6.018 -3.604,9.101 -1.073,3.084 -2.014,6.212 -2.822,9.375 -0.808,3.164 -1.482,6.36 -2.019,9.581 -0.538,3.22 -0.939,6.462 -1.203,9.717 -0.263,3.255 -0.389,6.519 -0.376,9.785 0.012,3.265 0.163,6.529 0.451,9.781 0.289,3.253 0.715,6.492 1.277,9.708 0.563,3.217 1.261,6.408 2.093,9.565 0.832,3.157 1.798,6.277 2.894,9.353 1.096,3.075 2.321,6.102 3.673,9.073 1.352,2.971 2.829,5.883 4.428,8.729 1.598,2.846 3.316,5.622 5.149,8.322 1.833,2.7 3.779,5.32 5.834,7.855 2.054,2.534 4.215,4.98 6.477,7.331 2.261,2.351 4.621,4.605 7.073,6.755 2.452,2.151 4.994,4.196 7.619,6.131 2.625,1.934 5.33,3.757 8.11,5.462 2.779,1.704 5.628,3.29 8.542,4.753 2.913,1.463 5.886,2.801 8.913,4.012 3.026,1.21 6.102,2.291 9.22,3.24 3.118,0.949 6.274,1.765 9.461,2.446 3.187,0.681 6.401,1.227 9.634,1.635 3.232,0.408 6.481,0.678 9.737,0.81 3.255,0.133 6.515,0.126 9.771,-0.018 3.255,-0.145 6.502,-0.428 9.734,-0.849 3.231,-0.42 6.443,-0.978 9.627,-1.671 3.184,-0.693 6.337,-1.522 9.451,-2.483 3.114,-0.961 6.186,-2.054 9.208,-3.276 3.022,-1.221 5.99,-2.571 8.898,-4.045 2.907,-1.474 5.751,-3.071 8.524,-4.787 2.772,-1.715 5.471,-3.548 8.088,-5.493 2.618,-1.945 5.152,-4 7.595,-6.16 2.444,-2.16 4.795,-4.422 7.048,-6.782 2.252,-2.36 4.404,-4.814 6.449,-7.356 2.045,-2.543 3.981,-5.171 5.804,-7.877 1.822,-2.707 3.529,-5.49 5.117,-8.342 1.587,-2.852 3.053,-5.77 4.394,-8.746 1.34,-2.976 2.554,-6.008 3.638,-9.088 1.085,-3.079 2.038,-6.203 2.858,-9.363 0.82,-3.161 1.506,-6.354 2.056,-9.573 0.55,-3.219 0.964,-6.459 1.24,-9.713 0.276,-3.254 0.414,-6.518 0.414,-9.783 0,0 -115.25,0 -115.25,0"
         id="path6206"
         inkscape:connector-curvature="0"
         style="fill:#d7191c;stroke:#000000;stroke-width:0.5" />
      <ellipse
         cx="665.65601"
         cy="-922"
         rx="115.25"
         ry="115.5"
         id="ellipse6208"
         d="m 780.90601,-922 c 0,63.78889 -51.59919,115.5 -115.25,115.5 -63.65082,0 -115.25,-51.71111 -115.25,-115.5 0,-63.78889 51.59918,-115.5 115.25,-115.5 63.65081,0 115.25,51.71111 115.25,115.5 z"
         sodipodi:cx="665.65601"
         sodipodi:cy="-922"
         sodipodi:rx="115.25"
         sodipodi:ry="115.5"
         style="fill:none;stroke:#000000" />
    </g>
    <!-- 2&#45;&gt;5 -->
    <g
       id="edge14"
       class="edge">
      <title
         id="title6211">2-&gt;5</title>
      <path
         d="m 364.097,-2124.15 c 5.418,14.56 10.518,29.65 14.559,44.15 14.097,50.57 43.827,426.15 78,466 33.21,38.73 79.112,-5.35 109,36 31.504,43.58 22.754,193.27 0,242 -10.546,22.58 -32.454,13.42 -43,36 -42.5,91.01 -37.173,132.69 0,226 10.353,25.99 27.54,50.08 46.474,71.04"
         id="path6213"
         inkscape:connector-curvature="0"
         style="fill:none;stroke:#000000;stroke-width:3.46667004" />
      <polygon
         points="571.93,-1005.09 576.176,-995.383 566.803,-1000.32 571.93,-1005.09 "
         id="polygon6215"
         style="fill:#000000;stroke:#000000;stroke-width:3.46667004" />
    </g>
    <!-- 2&#45;&gt;6 -->
    <g
       id="edge15"
       class="edge">
      <title
         id="title6218">2-&gt;6</title>
      <path
         d="m 268.315,-2136.03 c -9.695,17.7 -18.304,36.98 -23.659,56.03 -110.687,393.76 -261.7404,1492.508 -46,1840 35.862,57.764 104.673,92.35 164.276,112.319"
         id="path6220"
         inkscape:connector-curvature="0"
         style="fill:none;stroke:#000000;stroke-width:4.19999981" />
      <polygon
         points="364.417,-131.063 372.794,-124.48 362.148,-124.072 364.417,-131.063 "
         id="polygon6222"
         style="fill:#000000;stroke:#000000;stroke-width:4.19999981" />
    </g>
    <!-- 2&#45;&gt;7 -->
    <g
       id="edge16"
       class="edge">
      <title
         id="title6225">2-&gt;7</title>
      <path
         d="m 333.556,-2116.39 c 13.797,134.08 43.626,379.77 64.207,530.14"
         id="path6227"
         inkscape:connector-curvature="0"
         style="fill:none;stroke:#000000;stroke-width:4.66666985" />
      <polygon
         points="401.85,-1586.5 399.166,-1576.03 393.759,-1585.38 401.85,-1586.5 "
         id="polygon6229"
         style="fill:#000000;stroke:#000000;stroke-width:4.66666985" />
    </g>
    <!-- 2&#45;&gt;8 -->
    <g
       id="edge17"
       class="edge">
      <title
         id="title6232">2-&gt;8</title>
      <path
         d="m 393.955,-2144.19 c 17.087,19.04 33.681,40.98 44.701,64.19 89.705,188.97 -61.841,300.43 66,466 25.324,32.8 61.101,2.88 86,36 57.065,75.91 65.342,184.72 62.486,268.13"
         id="path6234"
         inkscape:connector-curvature="0"
         style="fill:none;stroke:#000000;stroke-width:3.4000001" />
      <polygon
         points="656.638,-1309.68 652.741,-1299.83 649.643,-1309.96 656.638,-1309.68 "
         id="polygon6236"
         style="fill:#000000;stroke:#000000;stroke-width:3.4000001" />
    </g>
    <!-- 2&#45;&gt;10 -->
    <g
       id="edge18"
       class="edge">
      <title
         id="title6239">2-&gt;10</title>
      <path
         d="m 411.815,-2168.91 c 54.648,25.42 126.987,58.66 190.841,88.91 37.479,17.75 78.564,37.7 114.781,55.15"
         id="path6241"
         inkscape:connector-curvature="0"
         style="fill:none;stroke:#000000;stroke-width:3.4000001" />
      <polygon
         points="719.042,-2027.97 726.535,-2020.47 716.006,-2021.66 719.042,-2027.97 "
         id="polygon6243"
         style="fill:#000000;stroke:#000000;stroke-width:3.4000001" />
    </g>
    <!-- 3&#45;&gt;2 -->
    <g
       id="edge19"
       class="edge">
      <title
         id="title6246">3-&gt;2</title>
      <path
         d="m 366.956,-470.822 c -22.616,-24.387 -43.537,-52.581 -56.3,-83.178 -10.587,-25.379 -22.192,-717.48 -13,-1024 5.587,-186.29 20.402,-403.01 27.195,-528.45"
         id="path6248"
         inkscape:connector-curvature="0"
         style="fill:none;stroke:#000000;stroke-width:3.4000001" />
      <polygon
         points="321.356,-2106.64 325.385,-2116.44 328.346,-2106.27 321.356,-2106.64 "
         id="polygon6250"
         style="fill:#000000;stroke:#000000;stroke-width:3.4000001" />
    </g>
    <!-- 3&#45;&gt;3 -->
    <g
       id="edge20"
       class="edge">
      <title
         id="title6253">3-&gt;3</title>
      <path
         d="m 603.658,-423.011 c 15.156,8.183 24.998,22.853 24.998,44.011 0,16.86 -6.25,29.601 -16.458,38.222"
         id="path6255"
         inkscape:connector-curvature="0"
         style="fill:none;stroke:#000000;stroke-width:3.33332992" />
      <polygon
         points="613.899,-337.703 603.658,-334.989 609.971,-343.497 613.899,-337.703 "
         id="polygon6257"
         style="fill:#000000;stroke:#000000;stroke-width:3.33332992" />
    </g>
    <!-- 3&#45;&gt;4 -->
    <g
       id="edge21"
       class="edge">
      <title
         id="title6260">3-&gt;4</title>
      <path
         d="m 452.611,-516.752 c -1.931,-10.298 -3.915,-20.623 -5.911,-30.754"
         id="path6262"
         inkscape:connector-curvature="0"
         style="fill:none;stroke:#000000;stroke-width:6.46667004" />
      <polygon
         points="441.101,-546.652 444.702,-557.563 452.201,-548.857 441.101,-546.652 "
         id="polygon6264"
         style="fill:#000000;stroke:#000000;stroke-width:6.46667004" />
    </g>
    <!-- 3&#45;&gt;6 -->
    <g
       id="edge22"
       class="edge">
      <title
         id="title6267">3-&gt;6</title>
      <path
         d="m 471.656,-239.694 c 0,8.748 0,17.492 0,26.089"
         id="path6269"
         inkscape:connector-curvature="0"
         style="fill:none;stroke:#000000;stroke-width:7.06666994" />
      <polygon
         points="477.839,-213.587 471.656,-203.587 465.473,-213.587 477.839,-213.587 "
         id="polygon6271"
         style="fill:#000000;stroke:#000000;stroke-width:7.06666994" />
    </g>
    <!-- 3&#45;&gt;8 -->
    <g
       id="edge23"
       class="edge">
      <title
         id="title6274">3-&gt;8</title>
      <path
         d="m 543.857,-498.346 c 7.402,-18.197 13.694,-37.11 17.799,-55.654 20.748,-93.731 15.377,-121.24 0,-216 -2.702,-16.648 -9.299,-19.352 -12,-36 -16.517,-101.78 -31.088,-133.687 0,-232 5.353,-16.93 13.413,-33.6 22.626,-49.29"
         id="path6276"
         inkscape:connector-curvature="0"
         style="fill:none;stroke:#000000;stroke-width:7.46667004" />
      <polygon
         points="566.737,-1090.75 577.51,-1095.91 577.909,-1083.97 566.737,-1090.75 "
         id="polygon6278"
         style="fill:#000000;stroke:#000000;stroke-width:7.46667004" />
    </g>
    <!-- 3&#45;&gt;9 -->
    <g
       id="edge24"
       class="edge">
      <title
         id="title6281">3-&gt;9</title>
      <path
         d="m 575.39,-472.358 c 80.703,-79.309 186.421,-201.489 232.266,-333.642 112.827,-325.24 44.453,-444.95 -63,-772 -4.469,-13.6 -10.055,-27.48 -16.16,-41.03"
         id="path6283"
         inkscape:connector-curvature="0"
         style="fill:none;stroke:#000000;stroke-width:3.4000001" />
      <polygon
         points="725.209,-1617.8 724.194,-1628.34 731.564,-1620.73 725.209,-1617.8 "
         id="polygon6285"
         style="fill:#000000;stroke:#000000;stroke-width:3.4000001" />
    </g>
    <!-- 3&#45;&gt;10 -->
    <g
       id="edge25"
       class="edge">
      <title
         id="title6288">3-&gt;10</title>
      <path
         d="m 596.385,-440.958 c 49.281,-28.883 103.321,-67.18 142.271,-113.042 192.623,-226.809 221,-334.433 221,-632 0,-272 0,-272 0,-272 0,-172.14 -6.751,-219.65 -64,-382 -5.024,-14.25 -11.477,-28.74 -18.506,-42.71"
         id="path6290"
         inkscape:connector-curvature="0"
         style="fill:none;stroke:#000000;stroke-width:3.4000001" />
      <polygon
         points="873.933,-1881.31 872.457,-1891.8 880.153,-1884.52 873.933,-1881.31 "
         id="polygon6292"
         style="fill:#000000;stroke:#000000;stroke-width:3.4000001" />
    </g>
    <!-- 4&#45;&gt;1 -->
    <g
       id="edge26"
       class="edge">
      <title
         id="title6295">4-&gt;1</title>
      <path
         d="M 360.524,-752.349 C 268.926,-894.241 101.656,-1183.04 101.656,-1456 c 0,-523 0,-523 0,-523 0,-127.58 44.419,-266.9 81.608,-364.26"
         id="path6297"
         inkscape:connector-curvature="0"
         style="fill:none;stroke:#000000;stroke-width:3.4000001" />
      <polygon
         points="180.095,-2344.77 186.953,-2352.84 186.627,-2342.25 180.095,-2344.77 "
         id="polygon6299"
         style="fill:#000000;stroke:#000000;stroke-width:3.4000001" />
    </g>
    <!-- 4&#45;&gt;2 -->
    <g
       id="edge27"
       class="edge">
      <title
         id="title6302">4-&gt;2</title>
      <path
         d="M 399.774,-768.043 C 372.037,-899.842 321.856,-1133.2 297.656,-1336 c -14.656,-122.82 -10.11,-154.34 -13,-278 -4.839,-207.05 -38.226,-262.45 0,-466 1.966,-10.47 4.743,-21.17 7.954,-31.73"
         id="path6304"
         inkscape:connector-curvature="0"
         style="fill:none;stroke:#000000;stroke-width:3.4000001" />
      <polygon
         points="289.31,-2112.9 295.67,-2121.38 295.982,-2110.79 289.31,-2112.9 "
         id="polygon6306"
         style="fill:#000000;stroke:#000000;stroke-width:3.4000001" />
    </g>
    <!-- 4&#45;&gt;3 -->
    <g
       id="edge28"
       class="edge">
      <title
         id="title6309">4-&gt;3</title>
      <path
         d="m 432.053,-555.166 c 1.781,10.021 3.657,20.293 5.588,30.595"
         id="path6311"
         inkscape:connector-curvature="0"
         style="fill:none;stroke:#000000;stroke-width:3.73333001" />
      <polygon
         points="441.089,-525.169 439.506,-514.693 434.211,-523.87 441.089,-525.169 "
         id="polygon6313"
         style="fill:#000000;stroke:#000000;stroke-width:3.73333001" />
    </g>
    <!-- 4&#45;&gt;4 -->
    <g
       id="edge29"
       class="edge">
      <title
         id="title6316">4-&gt;4</title>
      <path
         d="m 515.877,-707.411 c 16.424,6.28 27.779,21.417 27.779,45.411 0,19.308 -7.353,32.88 -18.783,40.718"
         id="path6318"
         inkscape:connector-curvature="0"
         style="fill:none;stroke:#000000;stroke-width:6.80000019" />
      <polygon
         points="527.495,-615.939 515.877,-616.589 521.991,-626.49 527.495,-615.939 "
         id="polygon6320"
         style="fill:#000000;stroke:#000000;stroke-width:6.80000019" />
    </g>
    <!-- 4&#45;&gt;6 -->
    <g
       id="edge30"
       class="edge">
      <title
         id="title6323">4-&gt;6</title>
      <path
         d="m 351.825,-577.798 c -11.597,18.672 -21.924,39.111 -28.169,59.798 -35.709,118.283 -49.476,164.783 0,278 12.344,28.248 33.704,53.271 56.418,73.946"
         id="path6325"
         inkscape:connector-curvature="0"
         style="fill:none;stroke:#000000;stroke-width:6.53332996" />
      <polygon
         points="384.11,-170.116 387.818,-159.211 376.539,-161.549 384.11,-170.116 "
         id="polygon6327"
         style="fill:#000000;stroke:#000000;stroke-width:6.53332996" />
    </g>
    <!-- 4&#45;&gt;7 -->
    <g
       id="edge31"
       class="edge">
      <title
         id="title6330">4-&gt;7</title>
      <path
         d="m 423.438,-769.555 c 2.496,-144.263 2.618,-401.485 0.366,-556.785"
         id="path6332"
         inkscape:connector-curvature="0"
         style="fill:none;stroke:#000000;stroke-width:3.4000001" />
      <polygon
         points="420.303,-1326.37 423.652,-1336.42 427.302,-1326.48 420.303,-1326.37 "
         id="polygon6334"
         style="fill:#000000;stroke:#000000;stroke-width:3.4000001" />
    </g>
    <!-- 4&#45;&gt;8 -->
    <g
       id="edge32"
       class="edge">
      <title
         id="title6337">4-&gt;8</title>
      <path
         d="m 436.975,-768.372 c 18.797,-106.69 46.185,-257.678 52.681,-269.628 14.525,-26.73 35.582,-51.48 57.517,-72.79"
         id="path6339"
         inkscape:connector-curvature="0"
         style="fill:none;stroke:#000000;stroke-width:7.66666985" />
      <polygon
         points="542.767,-1115.86 554.637,-1117.88 552.009,-1106.13 542.767,-1115.86 "
         id="polygon6341"
         style="fill:#000000;stroke:#000000;stroke-width:7.66666985" />
    </g>
    <!-- 4&#45;&gt;10 -->
    <g
       id="edge33"
       class="edge">
      <title
         id="title6344">4-&gt;10</title>
      <path
         d="m 525.842,-671.21 c 92.302,-13.077 221.197,-46.968 290.814,-134.79 213.894,-269.83 68.942,-427.7 65,-772 -1.333,-116.47 14.846,-147.41 -6,-262 -2.207,-12.13 -5.323,-24.63 -8.983,-36.91"
         id="path6346"
         inkscape:connector-curvature="0"
         style="fill:none;stroke:#000000;stroke-width:4.06666994" />
      <polygon
         points="863.199,-1876.09 863.627,-1886.7 869.995,-1878.21 863.199,-1876.09 "
         id="polygon6348"
         style="fill:#000000;stroke:#000000;stroke-width:4.06666994" />
    </g>
    <!-- 5&#45;&gt;4 -->
    <g
       id="edge34"
       class="edge">
      <title
         id="title6351">5-&gt;4</title>
      <path
         d="m 586.144,-837.947 c -27.692,28.925 -58.778,61.396 -86.582,90.438"
         id="path6353"
         inkscape:connector-curvature="0"
         style="fill:none;stroke:#000000;stroke-width:3.53332996" />
      <polygon
         points="502.012,-745.007 492.568,-740.204 496.955,-749.847 502.012,-745.007 "
         id="polygon6355"
         style="fill:#000000;stroke:#000000;stroke-width:3.53332996" />
    </g>
    <!-- 5&#45;&gt;5 -->
    <g
       id="edge35"
       class="edge">
      <title
         id="title6358">5-&gt;5</title>
      <path
         d="m 772.361,-966.108 c 15.698,6.935 26.295,21.637 26.295,44.108 0,17.906 -6.729,30.88 -17.406,38.92"
         id="path6360"
         inkscape:connector-curvature="0"
         style="fill:none;stroke:#000000;stroke-width:3.33332992" />
      <polygon
         points="782.762,-879.91 772.361,-877.892 779.234,-885.956 782.762,-879.91 "
         id="polygon6362"
         style="fill:#000000;stroke:#000000;stroke-width:3.33332992" />
    </g>
    <!-- 5&#45;&gt;6 -->
    <g
       id="edge36"
       class="edge">
      <title
         id="title6365">5-&gt;6</title>
      <path
         d="m 681.644,-807.417 c 19.115,141.09 37.409,385.398 -52.988,567.417 -14.686,29.571 -39.01,55.05 -64.199,75.739"
         id="path6367"
         inkscape:connector-curvature="0"
         style="fill:none;stroke:#000000;stroke-width:5.73332977" />
      <polygon
         points="567.564,-160.323 556.621,-157.995 561.298,-168.159 567.564,-160.323 "
         id="polygon6369"
         style="fill:#000000;stroke:#000000;stroke-width:5.73332977" />
    </g>
    <!-- 5&#45;&gt;8 -->
    <g
       id="edge37"
       class="edge">
      <title
         id="title6372">5-&gt;8</title>
      <path
         d="m 663.209,-1037.55 c -0.664,-8.99 -1.38,-18.09 -2.134,-27.13"
         id="path6374"
         inkscape:connector-curvature="0"
         style="fill:none;stroke:#000000;stroke-width:8.19999981" />
      <polygon
         points="653.909,-1064.27 660.209,-1074.85 668.207,-1065.49 653.909,-1064.27 "
         id="polygon6376"
         style="fill:#000000;stroke:#000000;stroke-width:8.19999981" />
    </g>
    <!-- 5&#45;&gt;9 -->
    <g
       id="edge38"
       class="edge">
      <title
         id="title6379">5-&gt;9</title>
      <path
         d="m 737.72,-1012.44 c 11.915,-19.27 22.476,-40.28 28.936,-61.56 29.181,-96.11 12.273,-126.31 0,-226 -2.015,-16.37 -5.165,-19.96 -9,-36 -21.681,-90.69 -45.099,-193.52 -62.47,-270.81"
         id="path6381"
         inkscape:connector-curvature="0"
         style="fill:none;stroke:#000000;stroke-width:8.06667042" />
      <polygon
         points="688.295,-1605.29 692.991,-1616.59 702.069,-1608.38 688.295,-1605.29 "
         id="polygon6383"
         style="fill:#000000;stroke:#000000;stroke-width:8.06667042" />
    </g>
    <!-- 6&#45;&gt;2 -->
    <g
       id="edge39"
       class="edge">
      <title
         id="title6386">6-&gt;2</title>
      <path
         d="m 374.007,-129.267 c -56.23,-20.196 -122.42,-54.47 -157.351,-110.733 -215.740354,-347.492 -64.687,-1446.24 46,-1840 3.628,-12.91 8.751,-25.92 14.547,-38.48"
         id="path6388"
         inkscape:connector-curvature="0"
         style="fill:none;stroke:#000000;stroke-width:3.4000001" />
      <polygon
         points="274.061,-2120.02 281.531,-2127.54 280.377,-2117.01 274.061,-2120.02 "
         id="polygon6390"
         style="fill:#000000;stroke:#000000;stroke-width:3.4000001" />
    </g>
    <!-- 6&#45;&gt;5 -->
    <g
       id="edge40"
       class="edge">
      <title
         id="title6393">6-&gt;5</title>
      <path
         d="m 561.604,-149.313 c 32.944,-22.849 66.603,-53.539 85.052,-90.687 88.793,-178.788 72.718,-417.672 48.854,-559.806"
         id="path6395"
         inkscape:connector-curvature="0"
         style="fill:none;stroke:#000000;stroke-width:4.53332996" />
      <polygon
         points="691.564,-799.343 693.779,-809.871 699.383,-800.687 691.564,-799.343 "
         id="polygon6397"
         style="fill:#000000;stroke:#000000;stroke-width:4.53332996" />
    </g>
    <!-- 6&#45;&gt;6 -->
    <g
       id="edge41"
       class="edge">
      <title
         id="title6400">6-&gt;6</title>
      <path
         d="m 560.14,-151.696 c 17.798,5.504 30.516,22.069 30.516,49.696 0,22.4469 -8.396,37.5914 -21.091,45.4336"
         id="path6402"
         inkscape:connector-curvature="0"
         style="fill:none;stroke:#000000;stroke-width:4.66666985" />
      <polygon
         points="570.934,-52.704 560.14,-52.3039 567.569,-60.1451 570.934,-52.704 "
         id="polygon6404"
         style="fill:#000000;stroke:#000000;stroke-width:4.66666985" />
    </g>
    <!-- 6&#45;&gt;7 -->
    <g
       id="edge42"
       class="edge">
      <title
         id="title6407">6-&gt;7</title>
      <path
         d="M 382.616,-151.075 C 349.422,-173.151 315.333,-202.807 296.656,-240 113.265,-605.188 279.655,-1108.55 369.73,-1335.94"
         id="path6409"
         inkscape:connector-curvature="0"
         style="fill:none;stroke:#000000;stroke-width:4.06666994" />
      <polygon
         points="366.425,-1337.26 373.43,-1345.23 373.037,-1334.62 366.425,-1337.26 "
         id="polygon6411"
         style="fill:#000000;stroke:#000000;stroke-width:4.06666994" />
    </g>
    <!-- 6&#45;&gt;8 -->
    <g
       id="edge43"
       class="edge">
      <title
         id="title6414">6-&gt;8</title>
      <path
         d="m 565.906,-139.735 c 45.335,-22.366 96.497,-55.388 127.75,-100.265 146.648,-210.574 88.541,-310.659 114,-566 10.23,-102.602 41.743,-137.716 0,-232 -13.462,-30.41 -36.6,-57.24 -61.282,-79.42"
         id="path6416"
         inkscape:connector-curvature="0"
         style="fill:none;stroke:#000000;stroke-width:6" />
      <polygon
         points="742.747,-1113.61 738.673,-1124.15 749.658,-1121.52 742.747,-1113.61 "
         id="polygon6418"
         style="fill:#000000;stroke:#000000;stroke-width:6" />
    </g>
    <!-- 6&#45;&gt;9 -->
    <g
       id="edge44"
       class="edge">
      <title
         id="title6421">6-&gt;9</title>
      <path
         d="m 568.555,-132.224 c 60.457,-22.029 136.821,-57.195 191.101,-107.776 157.249,-146.534 238,-206.059 238,-421 0,-527 0,-527 0,-527 0,-183.45 -140.942,-357.23 -238.328,-455.41"
         id="path6423"
         inkscape:connector-curvature="0"
         style="fill:none;stroke:#000000;stroke-width:8.46667004" />
      <polygon
         points="753.933,-1638.33 752.102,-1650.64 764.411,-1648.81 753.933,-1638.33 "
         id="polygon6425"
         style="fill:#000000;stroke:#000000;stroke-width:8.46667004" />
    </g>
    <!-- 6&#45;&gt;10 -->
    <g
       id="edge45"
       class="edge">
      <title
         id="title6428">6-&gt;10</title>
      <path
         d="m 572.554,-111.701 c 93.994,-13.176 232.326,-46.138 320.102,-128.299 78.293,-73.285 161.004,-311.991 161.004,-421 0,-797 0,-797 0,-797 0,-176.19 -22.31,-226.96 -106.004,-382 -12.133,-22.47 -28.557,-44.41 -45.638,-63.9"
         id="path6430"
         inkscape:connector-curvature="0"
         style="fill:none;stroke:#000000;stroke-width:5.66666985" />
      <polygon
         points="898.164,-1900.77 895.189,-1911.53 905.553,-1907.39 898.164,-1900.77 "
         id="polygon6432"
         style="fill:#000000;stroke:#000000;stroke-width:5.66666985" />
    </g>
    <!-- 7&#45;&gt;2 -->
    <g
       id="edge46"
       class="edge">
      <title
         id="title6435">7-&gt;2</title>
      <path
         d="m 409.157,-1577.41 c -15.561,-146.17 -45.601,-391.32 -65.008,-529.92"
         id="path6437"
         inkscape:connector-curvature="0"
         style="fill:none;stroke:#000000;stroke-width:4.4000001" />
      <polygon
         points="340.294,-2107.09 342.712,-2117.53 347.919,-2108.17 340.294,-2107.09 "
         id="polygon6439"
         style="fill:#000000;stroke:#000000;stroke-width:4.4000001" />
    </g>
    <!-- 7&#45;&gt;4 -->
    <g
       id="edge47"
       class="edge">
      <title
         id="title6442">7-&gt;4</title>
      <path
         d="m 413.66,-1336.42 c -2.354,150.57 -2.339,407.569 0.046,556.755"
         id="path6444"
         inkscape:connector-curvature="0"
         style="fill:none;stroke:#000000;stroke-width:7" />
      <polygon
         points="419.832,-779.656 413.874,-769.555 407.584,-779.452 419.832,-779.656 "
         id="polygon6446"
         style="fill:#000000;stroke:#000000;stroke-width:7" />
    </g>
    <!-- 7&#45;&gt;5 -->
    <g
       id="edge48"
       class="edge">
      <title
         id="title6449">7-&gt;5</title>
      <path
         d="m 436.602,-1337.6 c 16.353,103.5 39.899,240.77 53.054,263.6 17.837,30.96 44.456,58.59 71.625,81.497"
         id="path6451"
         inkscape:connector-curvature="0"
         style="fill:none;stroke:#000000;stroke-width:3.33332992" />
      <polygon
         points="563.847,-994.924 569.335,-985.861 559.394,-989.523 563.847,-994.924 "
         id="polygon6453"
         style="fill:#000000;stroke:#000000;stroke-width:3.33332992" />
    </g>
    <!-- 7&#45;&gt;6 -->
    <g
       id="edge49"
       class="edge">
      <title
         id="title6456">7-&gt;6</title>
      <path
         d="m 365.072,-1349.05 c -96.723,220.61 -273.4208,736.665 -86.416,1109.05 19.442,38.716 55.584,69.265 91.414,91.599"
         id="path6458"
         inkscape:connector-curvature="0"
         style="fill:none;stroke:#000000;stroke-width:7.93333006" />
      <polygon
         points="373.717,-154.308 378.672,-143.189 366.522,-142.434 373.717,-154.308 "
         id="polygon6460"
         style="fill:#000000;stroke:#000000;stroke-width:7.93333006" />
    </g>
    <!-- 7&#45;&gt;7 -->
    <g
       id="edge50"
       class="edge">
      <title
         id="title6463">7-&gt;7</title>
      <path
         d="m 530.196,-1502.43 c 15.834,7.35 26.46,22.49 26.46,45.43 0,18.46 -6.88,31.87 -17.818,40.23"
         id="path6465"
         inkscape:connector-curvature="0"
         style="fill:none;stroke:#000000;stroke-width:3.4000001" />
      <polygon
         points="540.57,-1413.72 530.196,-1411.57 536.962,-1419.72 540.57,-1413.72 "
         id="polygon6467"
         style="fill:#000000;stroke:#000000;stroke-width:3.4000001" />
    </g>
    <!-- 7&#45;&gt;8 -->
    <g
       id="edge51"
       class="edge">
      <title
         id="title6470">7-&gt;8</title>
      <path
         d="m 492.166,-1361.14 c 22.281,26.87 46.894,56.03 69.736,82.62"
         id="path6472"
         inkscape:connector-curvature="0"
         style="fill:none;stroke:#000000;stroke-width:7.53332996" />
      <polygon
         points="567.085,-1282.6 568.611,-1270.72 557.092,-1274 567.085,-1282.6 "
         id="polygon6474"
         style="fill:#000000;stroke:#000000;stroke-width:7.53332996" />
    </g>
    <!-- 7&#45;&gt;9 -->
    <g
       id="edge52"
       class="edge">
      <title
         id="title6477">7-&gt;9</title>
      <path
         d="m 503.788,-1542.48 c 27.49,-28.91 57.841,-61.4 84.941,-90.92"
         id="path6479"
         inkscape:connector-curvature="0"
         style="fill:none;stroke:#000000;stroke-width:7.4000001" />
      <polygon
         points="584.015,-1637.84 595.546,-1640.83 593.562,-1629.09 584.015,-1637.84 "
         id="polygon6481"
         style="fill:#000000;stroke:#000000;stroke-width:7.4000001" />
    </g>
    <!-- 8&#45;&gt;2 -->
    <g
       id="edge53"
       class="edge">
      <title
         id="title6484">8-&gt;2</title>
      <path
         d="m 667.321,-1298.08 c 7.358,-84.71 1.13,-200.38 -58.665,-279.92 -24.899,-33.12 -60.676,-3.2 -86,-36 -127.841,-165.57 23.705,-277.03 -66,-466 -11.42,-24.06 -28.825,-46.74 -47.246,-66.25"
         id="path6486"
         inkscape:connector-curvature="0"
         style="fill:none;stroke:#000000;stroke-width:3.46667004" />
      <polygon
         points="406.761,-2143.95 402.311,-2153.57 411.785,-2148.83 406.761,-2143.95 "
         id="polygon6488"
         style="fill:#000000;stroke:#000000;stroke-width:3.46667004" />
    </g>
    <!-- 8&#45;&gt;3 -->
    <g
       id="edge54"
       class="edge">
      <title
         id="title6491">8-&gt;3</title>
      <path
         d="m 566.247,-1105.51 c -14.344,20.71 -27.111,43.86 -34.591,67.51 -31.088,98.313 -16.517,130.22 0,232 2.701,16.648 9.298,19.352 12,36 15.377,94.76 20.748,122.269 0,216 -2.812,12.703 -6.651,25.58 -11.105,38.28"
         id="path6493"
         inkscape:connector-curvature="0"
         style="fill:none;stroke:#000000;stroke-width:4" />
      <polygon
         points="535.74,-514.248 529.031,-506.047 529.162,-516.641 535.74,-514.248 "
         id="polygon6495"
         style="fill:#000000;stroke:#000000;stroke-width:4" />
    </g>
    <!-- 8&#45;&gt;5 -->
    <g
       id="edge55"
       class="edge">
      <title
         id="title6498">8-&gt;5</title>
      <path
         d="m 646.937,-1073.7 c 0.653,8.93 1.357,17.97 2.1,26.97"
         id="path6500"
         inkscape:connector-curvature="0"
         style="fill:none;stroke:#000000;stroke-width:3.4000001" />
      <polygon
         points="652.538,-1046.86 649.891,-1036.6 645.563,-1046.27 652.538,-1046.86 "
         id="polygon6502"
         style="fill:#000000;stroke:#000000;stroke-width:3.4000001" />
    </g>
    <!-- 8&#45;&gt;7 -->
    <g
       id="edge56"
       class="edge">
      <title
         id="title6505">8-&gt;7</title>
      <path
         d="m 576.119,-1276.86 c -21.942,-26.53 -46.531,-55.73 -69.646,-82.72"
         id="path6507"
         inkscape:connector-curvature="0"
         style="fill:none;stroke:#000000;stroke-width:5.93333006" />
      <polygon
         points="502.246,-1356.53 499.675,-1367.5 510.127,-1363.3 502.246,-1356.53 "
         id="polygon6509"
         style="fill:#000000;stroke:#000000;stroke-width:5.93333006" />
    </g>
    <!-- 8&#45;&gt;10 -->
    <g
       id="edge57"
       class="edge">
      <title
         id="title6512">8-&gt;10</title>
      <path
         d="m 694.555,-1288.83 c 35.801,-85.07 81.51,-210.89 105.101,-325.17 17.27,-83.66 24.109,-180.15 25.394,-252.61"
         id="path6514"
         inkscape:connector-curvature="0"
         style="fill:none;stroke:#000000;stroke-width:7.06666994" />
      <polygon
         points="818.868,-1866.77 825.195,-1876.68 831.233,-1866.59 818.868,-1866.77 "
         id="polygon6516"
         style="fill:#000000;stroke:#000000;stroke-width:7.06666994" />
    </g>
    <!-- 9&#45;&gt;2 -->
    <g
       id="edge58"
       class="edge">
      <title
         id="title6519">9-&gt;2</title>
      <path
         d="m 634.297,-1835.08 c -27.365,-74.09 -71.002,-172.07 -130.641,-244.92 -24.128,-29.47 -56.285,-55.85 -86.567,-77.07"
         id="path6521"
         inkscape:connector-curvature="0"
         style="fill:none;stroke:#000000;stroke-width:3.4000001" />
      <polygon
         points="414.853,-2154.36 408.606,-2162.92 418.826,-2160.12 414.853,-2154.36 "
         id="polygon6523"
         style="fill:#000000;stroke:#000000;stroke-width:3.4000001" />
    </g>
    <!-- 9&#45;&gt;7 -->
    <g
       id="edge59"
       class="edge">
      <title
         id="title6526">9-&gt;7</title>
      <path
         d="m 588.784,-1647.04 c -27.14,28.47 -57.543,60.95 -85.07,90.86"
         id="path6528"
         inkscape:connector-curvature="0"
         style="fill:none;stroke:#000000;stroke-width:6.4000001" />
      <polygon
         points="507.671,-1552.21 496.782,-1548.64 499.424,-1559.79 507.671,-1552.21 "
         id="polygon6530"
         style="fill:#000000;stroke:#000000;stroke-width:6.4000001" />
    </g>
    <!-- 9&#45;&gt;10 -->
    <g
       id="edge60"
       class="edge">
      <title
         id="title6533">9-&gt;10</title>
      <path
         d="m 731.351,-1821.19 c 11.631,-18.91 23.664,-38.86 34.949,-57.93"
         id="path6535"
         inkscape:connector-curvature="0"
         style="fill:none;stroke:#000000;stroke-width:5.13332987" />
      <polygon
         points="762.479,-1881.48 771.429,-1887.81 770.216,-1876.91 762.479,-1881.48 "
         id="polygon6537"
         style="fill:#000000;stroke:#000000;stroke-width:5.13332987" />
    </g>
    <!-- 10&#45;&gt;2 -->
    <g
       id="edge61"
       class="edge">
      <title
         id="title6540">10-&gt;2</title>
      <path
         d="m 729.945,-2026.99 c -34.056,-16.93 -73.332,-35.98 -109.289,-53.01 -65.149,-30.86 -139.129,-64.84 -196.631,-90.45"
         id="path6542"
         inkscape:connector-curvature="0"
         style="fill:none;stroke:#000000;stroke-width:4.80000019" />
      <polygon
         points="422.011,-2166.75 414.579,-2174.65 425.423,-2174.42 422.011,-2166.75 "
         id="polygon6544"
         style="fill:#000000;stroke:#000000;stroke-width:4.80000019" />
    </g>
    <!-- 10&#45;&gt;4 -->
    <g
       id="edge62"
       class="edge">
      <title
         id="title6547">10-&gt;4</title>
      <path
         d="m 847.685,-1880.73 c 3.991,13.5 7.535,27.34 9.971,40.73 20.846,114.59 4.667,145.53 6,262 3.942,344.3 148.894,502.17 -65,772 -63.698,80.355 -177.022,115.56 -263.431,130.983"
         id="path6549"
         inkscape:connector-curvature="0"
         style="fill:none;stroke:#000000;stroke-width:8.60000038" />
      <polygon
         points="536.489,-667.599 525.359,-673.321 533.939,-682.432 536.489,-667.599 "
         id="polygon6551"
         style="fill:#000000;stroke:#000000;stroke-width:8.60000038" />
    </g>
    <!-- 10&#45;&gt;5 -->
    <g
       id="edge63"
       class="edge">
      <title
         id="title6554">10-&gt;5</title>
      <path
         d="m 836.586,-1878.06 c 26.474,170.99 61.964,529.81 -46.93,804.06 -8.653,21.79 -21.674,42.83 -36.074,61.92"
         id="path6556"
         inkscape:connector-curvature="0"
         style="fill:none;stroke:#000000;stroke-width:3.33332992" />
      <polygon
         points="756.227,-1009.78 747.336,-1004.02 750.694,-1014.06 756.227,-1009.78 "
         id="polygon6558"
         style="fill:#000000;stroke:#000000;stroke-width:3.33332992" />
    </g>
    <!-- 10&#45;&gt;6 -->
    <g
       id="edge64"
       class="edge">
      <title
         id="title6561">10-&gt;6</title>
      <path
         d="m 886.286,-1901.88 c 15.938,18.98 31.654,40.18 43.37,61.88 83.694,155.04 106.004,205.81 106.004,382 0,0 0,0 0,797 0,109.009 -82.711,347.715 -161.004,421 -80.412,75.268 -203.253,109.246 -292.217,124.548"
         id="path6563"
         inkscape:connector-curvature="0"
         style="fill:none;stroke:#000000;stroke-width:9.39999962" />
      <polygon
         points="583.523,-107.295 572.308,-113.765 580.821,-123.521 583.523,-107.295 "
         id="polygon6565"
         style="fill:#000000;stroke:#000000;stroke-width:9.39999962" />
    </g>
    <!-- 10&#45;&gt;8 -->
    <g
       id="edge65"
       class="edge">
      <title
         id="title6568">10-&gt;8</title>
      <path
         d="m 810.234,-1876.68 c -3.848,73.42 -10.496,175.09 -28.578,262.68 -22.259,107.82 -64.209,225.93 -95.952,310.38"
         id="path6570"
         inkscape:connector-curvature="0"
         style="fill:none;stroke:#000000;stroke-width:10" />
      <polygon
         points="693.796,-1300.28 682.081,-1294.01 677.421,-1306.46 693.796,-1300.28 "
         id="polygon6572"
         style="fill:#000000;stroke:#000000;stroke-width:10" />
    </g>
    <!-- 10&#45;&gt;9 -->
    <g
       id="edge66"
       class="edge">
      <title
         id="title6575">10-&gt;9</title>
      <path
         d="m 762.09,-1893.74 c -11.469,18.51 -23.543,38.4 -35.071,57.74"
         id="path6577"
         inkscape:connector-curvature="0"
         style="fill:none;stroke:#000000;stroke-width:8.66666985" />
      <polygon
         points="733.392,-1831.88 721.765,-1827.16 720.354,-1839.63 733.392,-1831.88 "
         id="polygon6579"
         style="fill:#000000;stroke:#000000;stroke-width:8.66666985" />
    </g>
    <!-- 10&#45;&gt;10 -->
    <g
       id="edge67"
       class="edge">
      <title
         id="title6582">10-&gt;10</title>
      <path
         d="m 911.458,-2018.78 c 15.502,5.71 26.198,19.3 26.198,40.78 0,16.95 -6.66,28.99 -17.085,36.12"
         id="path6584"
         inkscape:connector-curvature="0"
         style="fill:none;stroke:#000000;stroke-width:8.19999981" />
      <polygon
         points="923.629,-1935.39 911.458,-1937.22 917.092,-1948.16 923.629,-1935.39 "
         id="polygon6586"
         style="fill:#000000;stroke:#000000;stroke-width:8.19999981" />
    </g>
  </g>
</svg>
