<?xml version="1.0" encoding="UTF-8" standalone="no"?>
<!-- Generated by graphviz version 2.36.0 (20140111.2315)
 -->

<!-- Title: G Pages: 1 -->

<svg
   xmlns:dc="http://purl.org/dc/elements/1.1/"
   xmlns:cc="http://creativecommons.org/ns#"
   xmlns:rdf="http://www.w3.org/1999/02/22-rdf-syntax-ns#"
   xmlns:svg="http://www.w3.org/2000/svg"
   xmlns="http://www.w3.org/2000/svg"
   xmlns:sodipodi="http://sodipodi.sourceforge.net/DTD/sodipodi-0.dtd"
   xmlns:inkscape="http://www.inkscape.org/namespaces/inkscape"
   width="559.57953"
   height="208.93021"
   viewBox="0 0 448.00002 167.14417"
   id="svg3205"
   version="1.1"
   inkscape:version="0.48.4 r9939"
   sodipodi:docname="PuntaBanda-Par_3_1.dot.svg">
  <metadata
     id="metadata3298">
    <rdf:RDF>
      <cc:Work
         rdf:about="">
        <dc:format>image/svg+xml</dc:format>
        <dc:type
           rdf:resource="http://purl.org/dc/dcmitype/StillImage" />
      </cc:Work>
    </rdf:RDF>
  </metadata>
  <defs
     id="defs3296" />
  <sodipodi:namedview
     pagecolor="#ffffff"
     bordercolor="#666666"
     borderopacity="1"
     objecttolerance="10"
     gridtolerance="10"
     guidetolerance="10"
     inkscape:pageopacity="0"
     inkscape:pageshadow="2"
     inkscape:window-width="701"
     inkscape:window-height="480"
     id="namedview3294"
     showgrid="false"
     fit-margin-top="0"
     fit-margin-left="0"
     fit-margin-right="0"
     fit-margin-bottom="0"
     inkscape:zoom="0.41403509"
     inkscape:cx="279.3464"
     inkscape:cy="104.5089"
     inkscape:window-x="65"
     inkscape:window-y="24"
     inkscape:window-maximized="0"
     inkscape:current-layer="svg3205" />
  <g
     id="graph0"
     class="graph"
     transform="matrix(0,-1,1,0,448,166.34843)">
    <title
       id="title3208">G</title>
    <!-- 1 -->
    <g
       id="node1"
       class="node">
      <title
         id="title3211">1</title>
      <path
         d="m 64,-383 c 0,0 64.25,0 64.25,0 0,-1.995 -0.092,-3.989 -0.276,-5.975 -0.184,-1.986 -0.46,-3.963 -0.827,-5.923 -0.366,-1.961 -0.823,-3.903 -1.369,-5.821 -0.546,-1.918 -1.18,-3.81 -1.901,-5.669 -0.72,-1.859 -1.526,-3.684 -2.415,-5.468 -0.889,-1.784 -1.86,-3.526 -2.91,-5.219 -1.05,-1.694 -2.177,-3.338 -3.379,-4.927 -1.201,-1.589 -2.476,-3.121 -3.819,-4.591 0,0 -47.354,43.593 -47.354,43.593"
         id="path3213"
         inkscape:connector-curvature="0"
         style="fill:#abdda4;stroke:#000000;stroke-width:0.5" />
      <path
         d="m 64,-383 c 0,0 47.354,-43.593 47.354,-43.593 -1.048,-1.147 -2.137,-2.256 -3.265,-3.325 -1.128,-1.068 -2.295,-2.095 -3.497,-3.079 -1.202,-0.984 -2.439,-1.923 -3.709,-2.817 -1.2704,-0.894 -2.5722,-1.741 -3.9032,-2.54 -1.331,-0.8 -2.6904,-1.55 -4.0756,-2.251 -1.3851,-0.7 -2.7951,-1.35 -4.2271,-1.948 -1.4319,-0.598 -2.885,-1.144 -4.3564,-1.636 -1.4713,-0.492 -2.9599,-0.931 -4.4629,-1.316 -1.5029,-0.384 -3.0193,-0.713 -4.546,-0.987 -1.5267,-0.275 -3.0628,-0.493 -4.6053,-0.656 -1.5424,-0.162 -3.0903,-0.269 -4.6404,-0.319 -1.5502,-0.05 -3.1016,-0.043 -4.6513,0.019 -1.5497,0.063 -3.0966,0.182 -4.6377,0.357 -1.5411,0.175 -3.0754,0.406 -4.5999,0.692 -1.5244,0.287 -3.0381,0.629 -4.5379,1.025 -1.4998,0.397 -2.9848,0.848 -4.4521,1.352 -1.4674,0.504 -2.916,1.062 -4.3431,1.671 -1.4271,0.61 -2.8318,1.271 -4.2113,1.983 -1.3794,0.712 -2.7328,1.473 -4.0573,2.283 -1.3246,0.81 -2.6195,1.668 -3.8822,2.572 -1.2627,0.904 -2.4924,1.854 -3.6866,2.847 -1.1943,0.994 -2.3523,2.03 -3.4718,3.108 -1.1195,1.077 -2.1998,2.195 -3.2388,3.351 -1.0389,1.156 -2.0358,2.349 -2.9887,3.578 -0.9529,1.228 -1.8612,2.491 -2.7231,3.785 -0.86189,1.295 -1.67681,2.62 -2.44315,3.974 -0.76634,1.353 -1.4836,2.734 -2.15038,4.14 -0.66678,1.406 -1.28264,2.835 -1.84637,4.286 -0.56372,1.45 -1.07495,2.921 -1.53267,4.409 -0.45772,1.487 -0.86163,2.991 -1.21094,4.508 -0.34931,1.517 -0.643794,3.046 -0.882867,4.585 -0.239074,1.538 -0.4225829,3.084 -0.5501658,4.636 0,0 64.0322428,5.306 64.0322428,5.306"
         id="path3215"
         inkscape:connector-curvature="0"
         style="fill:#2b83ba;stroke:#000000;stroke-width:0.5" />
      <path
         d="m 64,-383 c 0,0 -64.0322428,-5.306 -64.0322428,-5.306 -0.1548402,1.883 -0.2271692,3.772 -0.2167782,5.662 0.010392,1.89 0.103494,3.778 0.279037,5.659 0.175543,1.882 0.433358,3.754 0.772699,5.613 0.339345,1.859 0.759875,3.702 1.260395,5.523 0.50052,1.822 1.08054,3.62 1.73837,5.391 0.65784,1.77 1.39285,3.511 2.20293,5.217 0.81007,1.705 1.69442,3.374 2.65048,5.002 0.95606,1.628 1.98291,3.213 3.07761,4.75 1.0946,1.537 2.2561,3.025 3.4809,4.46 1.2248,1.435 2.5119,2.815 3.8574,4.136 1.3456,1.322 2.7483,2.583 4.2042,3.781 1.4559,1.198 2.9635,2.33 4.5184,3.395 1.555,1.065 3.1558,2.061 4.7979,2.985 1.642,0.923 3.3237,1.774 5.0402,2.55 1.7165,0.775 3.466,1.475 5.2437,2.096 1.7776,0.621 3.5816,1.164 5.4067,1.626 1.8251,0.462 3.6696,0.844 5.5281,1.144 1.8584,0.299 3.7291,0.517 5.6066,0.652 1.8775,0.134 3.76,0.186 5.6421,0.155 1.882,-0.031 3.7618,-0.145 5.6338,-0.342 1.8721,-0.197 3.7346,-0.476 5.5822,-0.837 1.8477,-0.361 3.6786,-0.803 5.4875,-1.326 1.809,-0.522 3.5942,-1.124 5.3505,-1.804 1.7563,-0.68 3.4819,-1.437 5.172,-2.268 1.6901,-0.832 3.343,-1.738 4.9538,-2.716 1.6109,-0.977 3.1785,-2.026 4.6975,-3.141 1.519,-1.116 2.989,-2.298 4.404,-3.543 1.416,-1.246 2.777,-2.553 4.078,-3.918 1.302,-1.365 2.543,-2.787 3.72,-4.262 1.177,-1.474 2.289,-3 3.332,-4.573 1.044,-1.572 2.018,-3.19 2.92,-4.848 0.902,-1.659 1.732,-3.356 2.485,-5.088 C 122.875,-357.175 64,-383 64,-383"
         id="path3217"
         inkscape:connector-curvature="0"
         style="fill:#fdae61;stroke:#000000;stroke-width:0.5" />
      <path
         d="m 64,-383 c 0,0 58.875,25.825 58.875,25.825 0.883,-2.029 1.662,-4.103 2.333,-6.213 0.671,-2.11 1.233,-4.253 1.684,-6.421 0.451,-2.168 0.791,-4.357 1.018,-6.56 0.226,-2.203 0.34,-4.416 0.34,-6.631 0,0 -64.25,0 -64.25,0"
         id="path3219"
         inkscape:connector-curvature="0"
         style="fill:#d7191c;stroke:#000000;stroke-width:0.5" />
      <ellipse
         cx="64"
         cy="-383"
         rx="64.25"
         ry="64.5"
         id="ellipse3221"
         d="m 128.25,-383 c 0,35.62237 -28.765705,64.5 -64.25,64.5 -35.484295,0 -64.25,-28.87763 -64.25,-64.5 0,-35.62237 28.765705,-64.5 64.25,-64.5 35.484295,0 64.25,28.87763 64.25,64.5 z"
         sodipodi:cx="64"
         sodipodi:cy="-383"
         sodipodi:rx="64.25"
         sodipodi:ry="64.5"
         style="fill:none;stroke:#000000" />
    </g>
    <!-- 1&#45;&gt;1 -->
    <g
       id="edge1"
       class="edge">
      <title
         id="title3224">1-&gt;1</title>
      <path
         d="m 121.099,-412.588 c 14.25,2.069 24.901,11.932 24.901,29.588 0,13.38 -6.117,22.285 -15.281,26.713"
         id="path3226"
         inkscape:connector-curvature="0"
         style="fill:none;stroke:#000000;stroke-width:2.1400001" />
      <polygon
         points="131.682,-352.922 121.099,-353.412 129.678,-359.629 131.682,-352.922 "
         id="polygon3228"
         style="fill:#000000;stroke:#000000;stroke-width:2.1400001" />
    </g>
    <!-- 2 -->
    <g
       id="node2"
       class="node">
      <title
         id="title3231">2</title>
      <path
         d="m 64,-222 c 0,0 59.5,0 59.5,0 0,-2.364 -0.139,-4.725 -0.415,-7.073 -0.276,-2.347 -0.69,-4.675 -1.238,-6.973 -0.549,-2.298 -1.232,-4.562 -2.046,-6.778 -0.813,-2.217 -1.756,-4.384 -2.823,-6.488 0,0 -52.978,27.312 -52.978,27.312"
         id="path3233"
         inkscape:connector-curvature="0"
         style="fill:#abdda4;stroke:#000000;stroke-width:0.5" />
      <path
         d="m 64,-222 c 0,0 52.978,-27.312 52.978,-27.312 -0.752,-1.484 -1.566,-2.936 -2.438,-4.352 -0.872,-1.416 -1.803,-2.794 -2.789,-4.132 -0.986,-1.338 -2.027,-2.633 -3.12,-3.884 -1.093,-1.25 -2.238,-2.454 -3.43,-3.608 -1.193,-1.154 -2.432,-2.258 -3.716,-3.308 -1.284,-1.05 -2.61,-2.045 -3.9759,-2.984 -1.3659,-0.939 -2.7699,-1.82 -4.2085,-2.641 -1.4387,-0.82 -2.9106,-1.58 -4.4119,-2.278 C 88.8887,-276.499 64,-222 64,-222"
         id="path3235"
         inkscape:connector-curvature="0"
         style="fill:#2b83ba;stroke:#000000;stroke-width:0.5" />
      <path
         d="m 64,-222 c 0,0 24.8887,-54.499 24.8887,-54.499 -1.2954,-0.601 -2.6117,-1.156 -3.9466,-1.662 -1.3348,-0.506 -2.6873,-0.963 -4.0548,-1.372 -1.3674,-0.408 -2.749,-0.766 -4.142,-1.074 -1.393,-0.308 -2.7965,-0.566 -4.2079,-0.772 0,0 -8.5374,59.379 -8.5374,59.379"
         id="path3237"
         inkscape:connector-curvature="0"
         style="fill:#fdae61;stroke:#000000;stroke-width:0.5" />
      <path
         d="m 64,-222 c 0,0 8.5374,-59.379 8.5374,-59.379 -1.4895,-0.218 -2.9868,-0.379 -4.4884,-0.482 -1.5017,-0.103 -3.0067,-0.149 -4.5118,-0.137 -1.5051,0.012 -3.0092,0.081 -4.5091,0.208 -1.4999,0.127 -2.9945,0.311 -4.4805,0.552 -1.4861,0.241 -2.9625,0.539 -4.4261,0.893 -1.4636,0.354 -2.9134,0.764 -4.3462,1.229 -1.4328,0.465 -2.8476,0.984 -4.2414,1.557 -1.3937,0.573 -2.7654,1.2 -4.112,1.878 -1.3467,0.678 -2.6673,1.407 -3.9591,2.186 -1.2918,0.779 -2.5538,1.607 -3.7833,2.483 -1.2295,0.875 -2.4257,1.797 -3.5858,2.764 -1.1602,0.967 -2.2836,1.978 -3.3677,3.031 -1.0841,1.053 -2.1283,2.147 -3.1301,3.28 -1.0019,1.132 -1.9608,2.303 -2.8746,3.509 -0.9138,1.206 -1.7819,2.447 -2.6025,3.719 -0.8205,1.272 -1.5929,2.576 -2.3154,3.907 -0.7225,1.332 -1.3946,2.69 -2.01497,4.073 -0.62034,1.383 -1.18842,2.789 -1.70301,4.216 -0.51459,1.426 -0.97533,2.872 -1.38121,4.333 -0.40589,1.462 -0.75663,2.938 -1.05147,4.427 -0.29484,1.488 -0.53357,2.987 -0.71567,4.494 -0.1821,1.507 -0.30744,3.02 -0.37576,4.536 -0.06831,1.516 -0.07954,3.034 -0.03367,4.551 0.04586,1.518 0.1488,3.032 0.30859,4.542 0.15978,1.509 0.3763,3.011 0.64909,4.504 0.27278,1.493 0.60163,2.974 0.98585,4.442 0.38421,1.467 0.8235,2.92 1.31693,4.354 0.49343,1.434 1.04064,2.848 1.64044,4.24 0.59976,1.392 1.25176,2.761 1.95456,4.103 0.7027,1.342 1.4557,2.657 2.2573,3.942 0.8016,1.284 1.6513,2.538 2.5471,3.758 0.8959,1.219 1.8374,2.404 2.8224,3.552 0.9849,1.147 2.0128,2.257 3.0812,3.326 1.0684,1.069 2.1767,2.097 3.3224,3.081 1.1458,0.985 2.3281,1.925 3.5445,2.819 1.2165,0.893 2.4661,1.741 3.7462,2.539 1.2801,0.798 2.5898,1.547 3.9263,2.245 1.3365,0.699 2.6987,1.345 4.0838,1.939 1.3851,0.594 2.7921,1.135 4.2178,1.622 1.4258,0.486 2.8693,0.918 4.3276,1.294 1.4582,0.376 2.9301,0.696 4.4124,0.959 1.4823,0.264 2.9739,0.47 4.4718,0.62 1.4978,0.149 3.0008,0.241 4.5055,0.276 1.5048,0.034 3.0103,0.011 4.5133,-0.07 1.503,-0.081 3.0025,-0.219 4.4951,-0.414 1.4927,-0.195 2.9774,-0.448 4.451,-0.757 1.4737,-0.309 2.9352,-0.674 4.3814,-1.094 1.4462,-0.421 2.876,-0.897 4.2864,-1.427 1.4104,-0.53 2.8004,-1.114 4.1669,-1.75 1.3665,-0.636 2.7086,-1.325 4.0233,-2.063 1.3147,-0.739 2.6012,-1.528 3.8566,-2.366 1.2554,-0.837 2.4789,-1.722 3.6676,-2.653 1.189,-0.931 2.342,-1.907 3.458,-2.926 1.115,-1.019 2.192,-2.08 3.228,-3.182 1.035,-1.101 2.029,-2.242 2.979,-3.419 0.95,-1.177 1.855,-2.391 2.714,-3.637 0.858,-1.247 1.67,-2.526 2.432,-3.835 0.762,-1.308 1.475,-2.646 2.137,-4.009 0.662,-1.363 1.272,-2.751 1.83,-4.161 0.557,-1.41 1.061,-2.841 1.511,-4.289 0.45,-1.448 0.845,-2.913 1.185,-4.392 0.34,-1.479 0.624,-2.97 0.851,-4.47 0.228,-1.501 0.399,-3.009 0.513,-4.523 0.114,-1.513 0.171,-3.03 0.171,-4.548 0,0 -59.5,0 -59.5,0"
         id="path3239"
         inkscape:connector-curvature="0"
         style="fill:#d7191c;stroke:#000000;stroke-width:0.5" />
      <ellipse
         cx="64"
         cy="-222"
         rx="59.5"
         ry="60"
         id="ellipse3241"
         d="m 123.5,-222 c 0,33.13708 -26.639057,60 -59.5,60 -32.860943,0 -59.5,-26.86292 -59.5,-60 0,-33.13708 26.639057,-60 59.5,-60 32.860943,0 59.5,26.86292 59.5,60 z"
         sodipodi:cx="64"
         sodipodi:cy="-222"
         sodipodi:rx="59.5"
         sodipodi:ry="60"
         style="fill:none;stroke:#000000" />
    </g>
    <!-- 1&#45;&gt;2 -->
    <g
       id="edge2"
       class="edge">
      <title
         id="title3244">1-&gt;2</title>
      <path
         d="m 57.3762,-318.702 c -0.14,8.872 -0.1635,18.025 -0.0706,26.991"
         id="path3246"
         inkscape:connector-curvature="0"
         style="fill:none;stroke:#000000;stroke-width:1.44000006" />
      <polygon
         points="60.8054,-291.744 57.4599,-281.691 53.8062,-291.636 60.8054,-291.744 "
         id="polygon3248"
         style="fill:#000000;stroke:#000000;stroke-width:1.44000006" />
    </g>
    <!-- 3 -->
    <g
       id="node3"
       class="node">
      <title
         id="title3251">3</title>
      <path
         d="m 64,-63 c 0,0 62.25,0 62.25,0 0,-1.4771 -0.052,-2.9537 -0.156,-4.4271 -0.105,-1.4734 -0.261,-2.9426 -0.469,-4.4049 -0.208,-1.4623 -0.467,-2.9167 -0.778,-4.3605 -0.31,-1.4438 -0.672,-2.8761 -1.083,-4.2942 -0.412,-1.4181 -0.873,-2.8212 -1.384,-4.2064 -0.511,-1.3853 -1.07,-2.7519 -1.677,-4.0974 -0.607,-1.3455 -1.262,-2.6689 -1.962,-3.9679 -0.701,-1.2989 -1.447,-2.5725 -2.237,-3.8183 -0.79,-1.2458 -1.624,-2.4632 -2.501,-3.6493 -0.876,-1.187 -1.794,-2.342 -2.752,-3.463 -0.957,-1.121 -1.955,-2.208 -2.989,-3.258 -1.034,-1.05 -2.106,-2.064 -3.212,-3.038 -1.106,-0.974 -2.246,-1.908 -3.418,-2.801 -1.172,-0.893 -2.3746,-1.744 -3.6066,-2.551 -1.2319,-0.808 -2.492,-1.571 -3.7779,-2.289 -1.2858,-0.717 -2.5966,-1.389 -3.9298,-2.014 -1.3333,-0.624 -2.6881,-1.201 -4.0621,-1.729 -1.3739,-0.528 -2.7661,-1.007 -4.1739,-1.436 -1.4077,-0.429 -2.8302,-0.808 -4.2647,-1.136 -1.4345,-0.328 -2.8801,-0.605 -4.3341,-0.83 -1.454,-0.225 -2.9155,-0.398 -4.3818,-0.519 -1.4662,-0.121 -2.9363,-0.19 -4.4074,-0.206 -1.4711,-0.017 -2.9423,0.019 -4.4109,0.108 -1.4685,0.088 -2.9335,0.228 -4.3922,0.421 -1.4586,0.192 -2.91,0.436 -4.3514,0.732 -1.4414,0.296 -2.872,0.643 -4.2889,1.04 -1.4169,0.397 -2.8194,0.845 -4.2047,1.342 -1.3853,0.498 -2.7527,1.044 -4.0995,1.638 -1.3467,0.595 -2.6721,1.237 -3.9735,1.926 -1.3015,0.689 -2.5782,1.424 -3.8278,2.203 -1.2496,0.78 -2.4713,1.604 -3.6627,2.47 -1.1915,0.867 -2.3519,1.775 -3.4793,2.724 -1.1273,0.95 -2.2207,1.938 -3.2783,2.965 -1.0575,1.027 -2.0784,2.091 -3.0609,3.191 -0.9824,1.099 -1.9257,2.233 -2.8281,3.4 -0.9024,1.167 -1.7633,2.3649 -2.5811,3.5928 -0.8178,1.2278 -1.5921,2.4844 -2.32119,3.7673 -0.72915,1.2829 -1.41276,2.5914 -2.04956,3.923 -0.6368,1.3315 -1.22638,2.6853 -1.76764,4.0588 -0.54126,1.3735 -1.03385,2.7659 -1.47685,4.1744 -0.443,1.4085 -0.83612,2.8324 -1.17863,4.2689 -0.34251,1.4365 -0.6342,2.8848 -0.8745,4.342 -0.24031,1.4573 -0.42908,2.9227 -0.56597,4.3933 -0.13689,1.4707 -0.22181,2.9458 -0.2546,4.4226 -0.03279,1.4767 -0.01342,2.9541 0.05806,4.4295 0.07147,1.4753 0.19502,2.9477 0.37041,4.4142 0.17538,1.4666 0.4025,2.9265 0.68091,4.3769 0.27841,1.4504 0.60795,2.8904 0.98799,4.3174 0.38004,1.427 0.81034,2.8399 1.2901,4.2363 0.47976,1.3963 1.00867,2.7752 1.58573,4.1339 0.57707,1.3587 1.20193,2.6965 1.87341,4.0108 0.67147,1.3142 1.38913,2.6042 2.15163,3.8674 0.7625,1.2632 1.5694,2.4989 2.4191,3.7047 0.8497,1.2058 1.7418,2.381 2.6744,3.5234 0.9327,1.1423 1.9054,2.2511 2.9163,3.3243 1.0109,1.0731 2.0594,2.11 3.1434,3.1086 1.0841,0.9985 2.2031,1.9582 3.3549,2.8771 1.1518,0.919 2.3357,1.7967 3.5494,2.6314 1.2138,0.8348 2.4566,1.62604 3.7262,2.37236 1.2696,0.74632 2.5651,1.44722 3.8842,2.10138 1.319,0.65415 2.6608,1.26116 4.0227,1.81986 1.3618,0.5587 2.743,1.06876 4.1409,1.52921 1.3979,0.46044 2.8116,0.87099 4.2385,1.23086 1.4268,0.35988 2.8659,0.66885 4.3146,0.92635 C 53.1483,-1.45698 64,-63 64,-63"
         id="path3253"
         inkscape:connector-curvature="0"
         style="fill:#fdae61;stroke:#000000;stroke-width:0.5" />
      <path
         d="m 64,-63 c 0,0 -10.8517,61.54302 -10.8517,61.54302 2.2302,0.39641 4.4804,0.670329 6.7404,0.820518 2.2599,0.150189 4.5264,0.176429 6.7892,0.078603 2.2629,-0.097826 4.5187,-0.319573 6.7574,-0.664251 2.2388,-0.34468 4.4572,-0.81177 6.6452,-1.3992 2.1881,-0.58743 4.3426,-1.29432 6.4539,-2.11751 2.1113,-0.82319 4.1763,-1.76146 6.1857,-2.81062 2.0095,-1.04916 3.9604,-2.20765 5.8441,-3.47026 1.8838,-1.2627 3.6978,-2.6276 5.4328,-4.0887 1.736,-1.4611 3.391,-3.0163 4.957,-4.6585 1.567,-1.6422 3.043,-3.369 4.422,-5.1727 1.38,-1.8038 2.66,-3.6818 3.835,-5.6256 1.176,-1.9438 2.245,-3.9506 3.202,-6.0114 0.958,-2.0608 1.803,-4.1726 2.531,-6.3258 0.728,-2.1533 1.339,-4.3448 1.829,-6.5649 0.491,-2.2201 0.86,-4.4654 1.107,-6.7259 0.246,-2.2604 0.37,-4.5328 0.37,-6.8068 0,0 -62.25,0 -62.25,0"
         id="path3255"
         inkscape:connector-curvature="0"
         style="fill:#d7191c;stroke:#000000;stroke-width:0.5" />
      <ellipse
         cx="64"
         cy="-63"
         rx="62.25"
         ry="62.5"
         id="ellipse3257"
         d="M 126.25,-63 C 126.25,-28.482203 98.379726,-0.5 64,-0.5 29.620274,-0.5 1.75,-28.482203 1.75,-63 c 0,-34.517797 27.870274,-62.5 62.25,-62.5 34.379726,0 62.25,27.982203 62.25,62.5 z"
         sodipodi:cx="64"
         sodipodi:cy="-63"
         sodipodi:rx="62.25"
         sodipodi:ry="62.5"
         style="fill:none;stroke:#000000" />
    </g>
    <!-- 1&#45;&gt;3 -->
    <g
       id="edge3"
       class="edge">
      <title
         id="title3260">1-&gt;3</title>
      <path
         d="m 112.563,-339.866 c 15.335,16.34 30.374,36.313 38.437,57.866 18.688,49.952 18.938,70.142 0,120 -7.017,18.474 -19.288,35.693 -32.439,50.383"
         id="path3262"
         inkscape:connector-curvature="0"
         style="fill:none;stroke:#000000;stroke-width:2.96000004" />
      <polygon
         points="121.003,-109.104 111.626,-104.173 115.881,-113.876 121.003,-109.104 "
         id="polygon3264"
         style="fill:#000000;stroke:#000000;stroke-width:2.96000004" />
    </g>
    <!-- 2&#45;&gt;1 -->
    <g
       id="edge4"
       class="edge">
      <title
         id="title3267">2-&gt;1</title>
      <path
         d="m 70.5401,-281.691 c 0.1805,-8.76 0.2446,-17.883 0.1923,-26.9"
         id="path3269"
         inkscape:connector-curvature="0"
         style="fill:none;stroke:#000000;stroke-width:3" />
      <polygon
         points="67.2315,-308.665 70.6238,-318.702 74.2311,-308.74 67.2315,-308.665 "
         id="polygon3271"
         style="fill:#000000;stroke:#000000;stroke-width:3" />
    </g>
    <!-- 2&#45;&gt;2 -->
    <g
       id="edge5"
       class="edge">
      <title
         id="title3274">2-&gt;2</title>
      <path
         d="m 116.184,-251.406 c 14.094,1.551 24.816,11.353 24.816,29.406 0,13.54 -6.031,22.438 -14.993,26.696"
         id="path3276"
         inkscape:connector-curvature="0"
         style="fill:none;stroke:#000000;stroke-width:1.55999994" />
      <polygon
         points="126.754,-191.88 116.184,-192.594 124.892,-198.628 126.754,-191.88 "
         id="polygon3278"
         style="fill:#000000;stroke:#000000;stroke-width:1.55999994" />
    </g>
    <!-- 2&#45;&gt;3 -->
    <g
       id="edge6"
       class="edge">
      <title
         id="title3281">2-&gt;3</title>
      <path
         d="m 57.4404,-162.092 c -0.1728,8.724 -0.228,17.793 -0.1655,26.737"
         id="path3283"
         inkscape:connector-curvature="0"
         style="fill:none;stroke:#000000;stroke-width:1.08000004" />
      <polygon
         points="60.7748,-135.376 57.3955,-125.334 53.7753,-135.292 60.7748,-135.376 "
         id="polygon3285"
         style="fill:#000000;stroke:#000000;stroke-width:1.08000004" />
    </g>
    <!-- 3&#45;&gt;2 -->
    <g
       id="edge7"
       class="edge">
      <title
         id="title3288">3-&gt;2</title>
      <path
         d="m 70.6045,-125.334 c 0.1495,-8.69 0.1838,-17.674 0.1029,-26.499"
         id="path3290"
         inkscape:connector-curvature="0"
         style="fill:none;stroke:#000000;stroke-width:2.68000007" />
      <polygon
         points="67.2041,-152.043 70.5596,-162.092 74.2034,-152.144 67.2041,-152.043 "
         id="polygon3292"
         style="fill:#000000;stroke:#000000;stroke-width:2.68000007" />
    </g>
  </g>
</svg>
