<?xml version="1.0" encoding="UTF-8" standalone="no"?>
<!-- Generated by graphviz version 2.36.0 (20140111.2315)
 -->

<!-- Title: G Pages: 1 -->

<svg
   xmlns:dc="http://purl.org/dc/elements/1.1/"
   xmlns:cc="http://creativecommons.org/ns#"
   xmlns:rdf="http://www.w3.org/1999/02/22-rdf-syntax-ns#"
   xmlns:svg="http://www.w3.org/2000/svg"
   xmlns="http://www.w3.org/2000/svg"
   xmlns:sodipodi="http://sodipodi.sourceforge.net/DTD/sodipodi-0.dtd"
   xmlns:inkscape="http://www.inkscape.org/namespaces/inkscape"
   width="556.25"
   height="266.28906"
   viewBox="0 0 445 213.03125"
   id="svg4830"
   version="1.1"
   inkscape:version="0.48.4 r9939"
   sodipodi:docname="PuntaBanda-ParCon_3_0.dot.svg">
  <metadata
     id="metadata4929">
    <rdf:RDF>
      <cc:Work
         rdf:about="">
        <dc:format>image/svg+xml</dc:format>
        <dc:type
           rdf:resource="http://purl.org/dc/dcmitype/StillImage" />
      </cc:Work>
    </rdf:RDF>
  </metadata>
  <defs
     id="defs4927" />
  <sodipodi:namedview
     pagecolor="#ffffff"
     bordercolor="#666666"
     borderopacity="1"
     objecttolerance="10"
     gridtolerance="10"
     guidetolerance="10"
     inkscape:pageopacity="0"
     inkscape:pageshadow="2"
     inkscape:window-width="701"
     inkscape:window-height="480"
     id="namedview4925"
     showgrid="false"
     fit-margin-top="0"
     fit-margin-left="0"
     fit-margin-right="0"
     fit-margin-bottom="0"
     inkscape:zoom="0.41769912"
     inkscape:cx="278.1125"
     inkscape:cy="133.1375"
     inkscape:window-x="65"
     inkscape:window-y="24"
     inkscape:window-maximized="0"
     inkscape:current-layer="svg4830" />
  <g
     id="graph0"
     class="graph"
     transform="matrix(0,-1,1,0,444.5,212.53125)">
    <title
       id="title4833">G</title>
    <!-- 1 -->
    <g
       id="node1"
       class="node">
      <title
         id="title4836">1</title>
      <path
         d="m 125,-375 c 0,0 69,0 69,0 0,-1.454 -0.046,-2.907 -0.138,-4.357 -0.092,-1.451 -0.229,-2.898 -0.412,-4.34 -0.184,-1.442 -0.412,-2.878 -0.686,-4.306 -0.274,-1.427 -0.593,-2.846 -0.957,-4.253 -0.363,-1.407 -0.771,-2.803 -1.223,-4.185 -0.451,-1.381 -0.947,-2.748 -1.485,-4.099 -0.538,-1.35 -1.118,-2.683 -1.74,-3.996 -0.623,-1.314 -1.286,-2.608 -1.99,-3.88 -0.704,-1.271 -1.448,-2.52 -2.231,-3.745 -0.783,-1.225 -1.604,-2.425 -2.463,-3.597 -0.858,-1.173 -1.754,-2.319 -2.685,-3.435 -0.931,-1.116 -1.897,-2.203 -2.896,-3.258 -1,-1.056 -2.033,-2.079 -3.097,-3.069 -1.064,-0.99 -2.159,-1.946 -3.284,-2.867 -1.125,-0.921 -2.278,-1.806 -3.459,-2.654 -1.18,-0.848 -2.387,-1.659 -3.619,-2.43 0,0 -36.635,58.471 -36.635,58.471"
         id="path4838"
         inkscape:connector-curvature="0"
         style="fill:#abdda4;stroke:#000000;stroke-width:0.5" />
      <path
         d="m 125,-375 c 0,0 36.635,-58.471 36.635,-58.471 -1.54,-0.965 -3.117,-1.869 -4.728,-2.709 -1.611,-0.84 -3.255,-1.616 -4.927,-2.327 -1.673,-0.71 -3.373,-1.354 -5.096,-1.931 -1.723,-0.576 -3.468,-1.084 -5.232,-1.522 -1.763,-0.439 -3.543,-0.808 -5.335,-1.106 -1.793,-0.298 -3.596,-0.525 -5.407,-0.68 -1.81,-0.156 -3.626,-0.24 -5.443,-0.252 -1.817,-0.013 -3.634,0.047 -5.446,0.178 -1.812,0.131 -3.619,0.334 -5.415,0.607 -1.796,0.274 -3.581,0.619 -5.35,1.033 -1.769,0.415 -3.521,0.899 -5.252,1.452 -1.731,0.553 -3.439,1.174 -5.1211,1.862 -1.6819,0.688 -3.3359,1.441 -4.9582,2.26 -1.6224,0.818 -3.2117,1.7 -4.7644,2.644 -1.5527,0.944 -3.0675,1.949 -4.5409,3.012 -1.4734,1.063 -2.9042,2.184 -4.2891,3.361 -1.3848,1.176 -2.7227,2.407 -4.0104,3.689 -1.2878,1.282 -2.5244,2.614 -3.7069,3.993 -1.1826,1.38 -2.3102,2.806 -3.3802,4.274 -1.07,1.469 -2.0816,2.979 -3.0324,4.528 -0.9508,1.548 -1.8401,3.133 -2.6657,4.752 -0.8257,1.619 -1.587,3.269 -2.2824,4.948 -0.6953,1.679 -1.3241,3.384 -1.8848,5.112 -0.5607,1.729 -1.053,3.479 -1.4755,5.246 -0.4226,1.767 -0.7752,3.55 -1.057,5.345 -0.2819,1.795 -0.4927,3.601 -0.632,5.413 -0.1393,1.811 -0.2069,3.628 -0.2028,5.445 0.0041,1.817 0.0799,3.633 0.2274,5.444 0.1475,1.811 0.3664,3.615 0.6563,5.409 0.29,1.794 0.6506,3.576 1.0812,5.341 0.4305,1.765 0.9307,3.513 1.4992,5.239 0.5685,1.725 1.2049,3.428 1.9078,5.104 0,0 63.6279,-26.693 63.6279,-26.693"
         id="path4840"
         inkscape:connector-curvature="0"
         style="fill:#2b83ba;stroke:#000000;stroke-width:0.5" />
      <path
         d="m 125,-375 c 0,0 -63.6279,26.693 -63.6279,26.693 0.6427,1.532 1.3405,3.04 2.092,4.521 0.7515,1.482 1.5563,2.936 2.4128,4.359 0.8564,1.424 1.764,2.816 2.721,4.174 0.9569,1.358 1.9626,2.681 3.015,3.966 1.0525,1.285 2.151,2.532 3.2934,3.738 1.1425,1.206 2.3281,2.371 3.5546,3.491 1.2265,1.121 2.493,2.197 3.7972,3.226 1.3041,1.029 2.645,2.01 4.02,2.943 0,0 38.7219,-57.111 38.7219,-57.111"
         id="path4842"
         inkscape:connector-curvature="0"
         style="fill:#fdae61;stroke:#000000;stroke-width:0.5" />
      <path
         d="m 125,-375 c 0,0 -38.7219,57.111 -38.7219,57.111 1.289,0.874 2.6073,1.704 3.9525,2.488 1.3452,0.785 2.7167,1.524 4.1119,2.216 1.3952,0.692 2.8135,1.337 4.2523,1.933 1.4392,0.596 2.8972,1.143 4.3732,1.64 1.476,0.497 2.968,0.945 4.475,1.341 1.506,0.396 3.025,0.741 4.554,1.035 1.53,0.293 3.069,0.535 4.615,0.724 1.545,0.19 3.097,0.326 4.652,0.411 1.556,0.084 3.113,0.116 4.67,0.095 1.558,-0.021 3.114,-0.095 4.666,-0.222 1.552,-0.126 3.1,-0.305 4.64,-0.536 1.54,-0.231 3.072,-0.514 4.593,-0.849 1.521,-0.335 3.03,-0.721 4.525,-1.158 1.495,-0.437 2.975,-0.924 4.436,-1.462 1.462,-0.537 2.906,-1.123 4.328,-1.758 1.422,-0.634 2.822,-1.317 4.198,-2.047 1.376,-0.729 2.727,-1.505 4.051,-2.326 1.323,-0.821 2.618,-1.686 3.883,-2.595 1.265,-0.909 2.499,-1.86 3.699,-2.852 1.201,-0.992 2.368,-2.024 3.498,-3.095 1.131,-1.071 2.225,-2.18 3.281,-3.325 1.055,-1.145 2.072,-2.326 3.048,-3.54 0.975,-1.214 1.91,-2.46 2.801,-3.737 0.891,-1.277 1.739,-2.584 2.542,-3.919 0.803,-1.334 1.561,-2.696 2.271,-4.081 0.711,-1.386 1.375,-2.795 1.99,-4.226 0.616,-1.431 1.183,-2.882 1.7,-4.351 0.517,-1.469 0.984,-2.955 1.401,-4.456 0.417,-1.5 0.782,-3.014 1.096,-4.54 0.315,-1.525 0.577,-3.061 0.787,-4.604 0.211,-1.543 0.369,-3.093 0.474,-4.647 0.105,-1.554 0.158,-3.111 0.158,-4.668 0,0 -69,0 -69,0"
         id="path4844"
         inkscape:connector-curvature="0"
         style="fill:#d7191c;stroke:#000000;stroke-width:0.5" />
      <ellipse
         cx="125"
         cy="-375"
         rx="69"
         ry="69"
         id="ellipse4846"
         d="m 194,-375 c 0,38.10765 -30.89235,69 -69,69 -38.107648,0 -69,-30.89235 -69,-69 0,-38.10765 30.892352,-69 69,-69 38.10765,0 69,30.89235 69,69 z"
         sodipodi:cx="125"
         sodipodi:cy="-375"
         sodipodi:rx="69"
         sodipodi:ry="69"
         style="fill:none;stroke:#000000" />
    </g>
    <!-- 1&#45;&gt;1 -->
    <g
       id="edge1"
       class="edge">
      <title
         id="title4849">1-&gt;1</title>
      <path
         d="m 186.776,-406.245 c 14.515,2.568 25.224,12.983 25.224,31.245 0,13.839 -6.15,23.172 -15.445,27.998"
         id="path4851"
         inkscape:connector-curvature="0"
         style="fill:none;stroke:#000000;stroke-width:1.03999996" />
      <polygon
         points="197.37,-343.585 186.776,-343.755 195.164,-350.228 197.37,-343.585 "
         id="polygon4853"
         style="fill:#000000;stroke:#000000;stroke-width:1.03999996" />
    </g>
    <!-- 2 -->
    <g
       id="node2"
       class="node">
      <title
         id="title4856">2</title>
      <ellipse
         cx="65"
         cy="-205"
         rx="65"
         ry="65"
         id="ellipse4858"
         d="m 130,-205 c 0,35.89851 -29.10149,65 -65,65 -35.898509,0 -65,-29.10149 -65,-65 0,-35.89851 29.101491,-65 65,-65 35.89851,0 65,29.10149 65,65 z"
         sodipodi:cx="65"
         sodipodi:cy="-205"
         sodipodi:rx="65"
         sodipodi:ry="65"
         style="fill:#fdae61;stroke:#000000" />
    </g>
    <!-- 1&#45;&gt;2 -->
    <g
       id="edge2"
       class="edge">
      <title
         id="title4861">1-&gt;2</title>
      <path
         d="m 96.2873,-311.92 c -4.2074,11.172 -8.4439,22.901 -12.3993,34.318"
         id="path4863"
         inkscape:connector-curvature="0"
         style="fill:none;stroke:#000000;stroke-width:1.75999999" />
      <polygon
         points="87.1873,-276.433 80.6384,-268.105 80.5643,-278.699 87.1873,-276.433 "
         id="polygon4865"
         style="fill:#000000;stroke:#000000;stroke-width:1.75999999" />
    </g>
    <!-- 3 -->
    <g
       id="node3"
       class="node">
      <title
         id="title4868">3</title>
      <path
         d="m 125,-52 c 0,0 52,0 52,0 0,-2.1789 -0.137,-4.3556 -0.41,-6.5173 -0.273,-2.1617 -0.682,-4.3041 -1.224,-6.4146 -0.542,-2.1104 -1.216,-4.1847 -2.018,-6.2106 -0.802,-2.0259 -1.73,-3.9993 -2.78,-5.9087 C 170.568,-77.0512 125,-52 125,-52"
         id="path4870"
         inkscape:connector-curvature="0"
         style="fill:#fdae61;stroke:#000000;stroke-width:0.5" />
      <path
         d="m 125,-52 c 0,0 45.568,-25.0512 45.568,-25.0512 -0.754,-1.3721 -1.57,-2.7095 -2.445,-4.008 -0.875,-1.2985 -1.809,-2.5569 -2.797,-3.7711 -0.989,-1.2143 -2.032,-2.3834 -3.126,-3.5035 -1.094,-1.1202 -2.238,-2.1904 -3.429,-3.2073 -1.19,-1.0169 -2.426,-1.9796 -3.704,-2.8849 -1.277,-0.9054 -2.595,-1.7526 -3.949,-2.5391 -1.354,-0.7865 -2.743,-1.5114 -4.162,-2.1725 -1.42,-0.6611 -2.868,-1.2574 -4.342,-1.7884 -1.473,-0.53 -2.969,-0.994 -4.484,-1.389 -1.516,-0.396 -3.048,-0.722 -4.592,-0.979 -1.545,-0.257 -3.1,-0.445 -4.662,-0.561 -1.561,-0.117 -3.127,-0.163 -4.693,-0.139 -1.565,0.025 -3.129,0.12 -4.686,0.286 -1.557,0.166 -3.106,0.402 -4.642,0.707 -1.535,0.306 -3.057,0.68 -4.559,1.123 -1.501,0.443 -2.983,0.953 -4.438,1.53 -1.456,0.576 -2.885,1.2179 -4.283,1.9233 -1.398,0.7054 -2.7637,1.4736 -4.0923,2.3022 -1.3286,0.8286 -2.6191,1.7168 -3.8676,2.6618 -1.2485,0.9451 -2.4536,1.9461 -3.6118,2.9999 -1.1581,1.0538 -2.268,2.1594 -3.3264,3.3134 -1.0583,1.154 -2.064,2.3552 -3.014,3.5999 -0.95,1.2448 -1.8432,2.5318 -2.677,3.8571 -0.8338,1.3254 -1.6074,2.6877 -2.3182,4.0829 -0.7109,1.3952 -1.3584,2.8217 -1.9405,4.2753 -0.5822,1.4536 -1.0983,2.9327 -1.547,4.4329 -0.4486,1.5002 -0.8293,3.0199 -1.1408,4.5544 -0.3115,1.5345 -0.5535,3.0823 -0.7254,4.6387 -0.1718,1.5564 -0.2732,3.1197 -0.304,4.6852 -0.0307,1.5656 0.0093,3.1317 0.1199,4.6936 0.1105,1.5619 0.2916,3.118 0.5426,4.6636 0.2511,1.5456 0.5718,3.079 0.9612,4.5957 0.3894,1.5166 0.8471,3.0149 1.3717,4.4902 0.5246,1.4753 1.1156,2.9262 1.7712,4.3482 0.6555,1.422 1.3749,2.8137 2.1561,4.1707 0.7811,1.3571 1.6232,2.6782 2.5235,3.9593 0.9004,1.2811 1.8581,2.5208 2.8704,3.7155 1.0122,1.1946 2.0779,2.3429 3.1938,3.4414 1.1158,1.0985 2.2807,2.146 3.4911,3.1393 1.2104,0.9934 2.4651,1.93156 3.7602,2.81169 1.295,0.88012 2.6292,1.70131 3.9984,2.46103 1.3689,0.75973 2.7719,1.45722 4.2039,2.09035 1.432,0.63313 2.892,1.20126 4.376,1.70263 1.483,0.50138 2.988,0.9355 4.511,1.30104 1.522,0.36553 3.061,0.662108 4.61,0.888821 1.549,0.226713 3.108,0.38333 4.672,0.4693721 1.563,0.0860424 3.13,0.1014225 4.694,0.0460931 1.565,-0.0553293 3.127,-0.1813112 4.68,-0.3775622 1.554,-0.19625 3.098,-0.462567 4.627,-0.798134 1.53,-0.33558 3.043,-0.74006 4.536,-1.21221 1.493,-0.47216 2.964,-1.01151 4.408,-1.6164 1.444,-0.60489 2.861,-1.27471 4.244,-2.00741 1.384,-0.73269 2.734,-1.52752 4.046,-2.38205 1.312,-0.85453 2.585,-1.76786 3.815,-2.73726 1.23,-0.9694 2.415,-1.9939 3.552,-3.0702 1.137,-1.0764 2.225,-2.2035 3.261,-3.3781 1.035,-1.1745 2.017,-2.3952 2.943,-3.6584 0.925,-1.2632 1.793,-2.5675 2.6,-3.9089 0.808,-1.3415 1.555,-2.7188 2.238,-4.1276 0.683,-1.4089 1.303,-2.8479 1.856,-4.3126 0.554,-1.4648 1.041,-2.9537 1.46,-4.4624 0.419,-1.5087 0.77,-3.0356 1.051,-4.5759 0.281,-1.5404 0.493,-3.0927 0.634,-4.6521 0.141,-1.5594 0.212,-3.1245 0.212,-4.6903 0,0 -52,0 -52,0"
         id="path4872"
         inkscape:connector-curvature="0"
         style="fill:#d7191c;stroke:#000000;stroke-width:0.5" />
      <ellipse
         cx="125"
         cy="-52"
         rx="52"
         ry="52"
         id="ellipse4874"
         d="m 177,-52 c 0,28.718807 -23.28119,52 -52,52 -28.718807,0 -52,-23.281193 -52,-52 0,-28.718807 23.281193,-52 52,-52 28.71881,0 52,23.281193 52,52 z"
         sodipodi:cx="125"
         sodipodi:cy="-52"
         sodipodi:rx="52"
         sodipodi:ry="52"
         style="fill:none;stroke:#000000" />
    </g>
    <!-- 1&#45;&gt;3 -->
    <g
       id="edge3"
       class="edge">
      <title
         id="title4877">1-&gt;3</title>
      <path
         d="m 139.806,-307.548 c 3.315,12.334 6.34,25.219 8.194,37.548 8.591,57.135 10.129,73.117 0,130 -1.616,9.076 -4.111,18.446 -6.91,27.524"
         id="path4879"
         inkscape:connector-curvature="0"
         style="fill:none;stroke:#000000;stroke-width:1.08000004" />
      <polygon
         points="144.36,-111.212 137.961,-102.767 137.697,-113.359 144.36,-111.212 "
         id="polygon4881"
         style="fill:#000000;stroke:#000000;stroke-width:1.08000004" />
    </g>
    <!-- 2&#45;&gt;1 -->
    <g
       id="edge4"
       class="edge">
      <title
         id="title4884">2-&gt;1</title>
      <path
         d="m 92.2025,-264.09 c 4.2179,-11.085 8.5025,-22.836 12.5395,-34.373"
         id="path4886"
         inkscape:connector-curvature="0"
         style="fill:none;stroke:#000000;stroke-width:1.01999998" />
      <polygon
         points="101.493,-299.776 108.068,-308.084 108.109,-297.489 101.493,-299.776 "
         id="polygon4888"
         style="fill:#000000;stroke:#000000;stroke-width:1.01999998" />
    </g>
    <!-- 2&#45;&gt;2 -->
    <g
       id="edge5"
       class="edge">
      <title
         id="title4891">2-&gt;2</title>
      <path
         d="M 123.936,-232.936 C 137.784,-230.64 148,-221.328 148,-205 c 0,12.246 -5.747,20.546 -14.462,24.899"
         id="path4893"
         inkscape:connector-curvature="0"
         style="fill:none;stroke:#000000;stroke-width:1.38" />
      <polygon
         points="134.526,-176.743 123.936,-177.064 132.415,-183.417 134.526,-176.743 "
         id="polygon4895"
         style="fill:#000000;stroke:#000000;stroke-width:1.38" />
    </g>
    <!-- 2&#45;&gt;3 -->
    <g
       id="edge6"
       class="edge">
      <title
         id="title4898">2-&gt;3</title>
      <path
         d="m 82.9264,-142.147 c 4.3832,11.454 9.152,23.34 13.8685,34.559"
         id="path4900"
         inkscape:connector-curvature="0"
         style="fill:none;stroke:#000000;stroke-width:1.72000003" />
      <polygon
         points="100.033,-108.918 100.735,-98.3466 93.5934,-106.173 100.033,-108.918 "
         id="polygon4902"
         style="fill:#000000;stroke:#000000;stroke-width:1.72000003" />
    </g>
    <!-- 3&#45;&gt;1 -->
    <g
       id="edge7"
       class="edge">
      <title
         id="title4905">3-&gt;1</title>
      <path
         d="m 152.776,-95.9758 c 5.659,-13.7782 10.6,-29.2892 13.224,-44.0242 10.129,-56.883 8.591,-72.865 0,-130 -1.651,-10.981 -4.231,-22.402 -7.335,-33.483"
         id="path4907"
         inkscape:connector-curvature="0"
         style="fill:none;stroke:#000000;stroke-width:1.01999998" />
      <polygon
         points="155.296,-302.531 155.812,-313.113 162.008,-304.519 155.296,-302.531 "
         id="polygon4909"
         style="fill:#000000;stroke:#000000;stroke-width:1.01999998" />
    </g>
    <!-- 3&#45;&gt;2 -->
    <g
       id="edge8"
       class="edge">
      <title
         id="title4912">3-&gt;2</title>
      <path
         d="m 111.621,-102.747 c -4.106,-11.152 -8.77,-23.156 -13.5347,-34.863"
         id="path4914"
         inkscape:connector-curvature="0"
         style="fill:none;stroke:#000000;stroke-width:3" />
      <polygon
         points="94.8265,-136.334 94.2517,-146.913 101.298,-139.002 94.8265,-136.334 "
         id="polygon4916"
         style="fill:#000000;stroke:#000000;stroke-width:3" />
    </g>
    <!-- 3&#45;&gt;3 -->
    <g
       id="edge9"
       class="edge">
      <title
         id="title4919">3-&gt;3</title>
      <path
         d="m 168.75,-80.5 c 14.583,0 26.25,9.5 26.25,28.5 0,14.3984 -6.7,23.3412 -16.292,26.8283"
         id="path4921"
         inkscape:connector-curvature="0"
         style="fill:none;stroke:#000000;stroke-width:1.24000001" />
      <polygon
         points="179.191,-21.7039 168.75,-23.5 178.033,-28.6073 179.191,-21.7039 "
         id="polygon4923"
         style="fill:#000000;stroke:#000000;stroke-width:1.24000001" />
    </g>
  </g>
</svg>
