<?xml version="1.0" encoding="UTF-8" standalone="no"?>
<!-- Created with Inkscape (http://www.inkscape.org/) -->

<svg
   xmlns:dc="http://purl.org/dc/elements/1.1/"
   xmlns:cc="http://creativecommons.org/ns#"
   xmlns:rdf="http://www.w3.org/1999/02/22-rdf-syntax-ns#"
   xmlns:svg="http://www.w3.org/2000/svg"
   xmlns="http://www.w3.org/2000/svg"
   xmlns:sodipodi="http://sodipodi.sourceforge.net/DTD/sodipodi-0.dtd"
   xmlns:inkscape="http://www.inkscape.org/namespaces/inkscape"
   id="svg2"
   version="1.1"
   inkscape:version="0.91 r13725"
   xml:space="preserve"
   width="111.78556"
   height="116.6918"
   viewBox="0 0 111.78556 116.6918"
   sodipodi:docname="InterSet.svg"><metadata
     id="metadata8"><rdf:RDF><cc:Work
         rdf:about=""><dc:format>image/svg+xml</dc:format><dc:type
           rdf:resource="http://purl.org/dc/dcmitype/StillImage" /><dc:title></dc:title></cc:Work></rdf:RDF></metadata><defs
     id="defs6" /><sodipodi:namedview
     pagecolor="#ffffff"
     bordercolor="#666666"
     borderopacity="1"
     objecttolerance="10"
     gridtolerance="10"
     guidetolerance="10"
     inkscape:pageopacity="0"
     inkscape:pageshadow="2"
     inkscape:window-width="1920"
     inkscape:window-height="1026"
     id="namedview4"
     showgrid="false"
     inkscape:zoom="4.7929619"
     inkscape:cx="14.87142"
     inkscape:cy="58.78558"
     inkscape:window-x="0"
     inkscape:window-y="0"
     inkscape:window-maximized="1"
     inkscape:current-layer="g10" /><g
     id="g10"
     inkscape:groupmode="layer"
     inkscape:label="InterSet"
     transform="matrix(1.25,0,0,-1.25,0,116.6918)"><g
       transform="matrix(1,0,0,-1,0,93.353439)"
       id="g14"><path
         inkscape:connector-curvature="0"
         id="path16"
         style="fill:#f0e3e3;fill-opacity:1;fill-rule:nonzero;stroke:#000000;stroke-width:0.0926725;stroke-linecap:butt;stroke-linejoin:round;stroke-miterlimit:10;stroke-dasharray:none;stroke-opacity:1"
         d="m 53.613,72.574 6.664,0 0,6.66 -6.664,0 0,-6.66 z" /></g><g
       transform="matrix(1,0,0,-1,0,93.353439)"
       id="g18"><path
         inkscape:connector-curvature="0"
         id="path20"
         style="fill:#e8d9d9;fill-opacity:1;fill-rule:nonzero;stroke:#000000;stroke-width:0.0926725;stroke-linecap:butt;stroke-linejoin:round;stroke-miterlimit:10;stroke-dasharray:none;stroke-opacity:1"
         d="m 60.488,23.605 6.66,0 0,6.66 -6.66,0 0,-6.66 z" /></g><g
       transform="matrix(1,0,0,-1,0,93.353439)"
       id="g22"><path
         inkscape:connector-curvature="0"
         id="path24"
         style="fill:#ebdede;fill-opacity:1;fill-rule:nonzero;stroke:#000000;stroke-width:0.0926725;stroke-linecap:butt;stroke-linejoin:round;stroke-miterlimit:10;stroke-dasharray:none;stroke-opacity:1"
         d="m 24.707,66.789 6.66,0 0,6.66 -6.66,0 0,-6.66 z" /></g><g
       transform="matrix(1,0,0,-1,0,93.353439)"
       id="g26"><path
         inkscape:connector-curvature="0"
         id="path28"
         style="fill:#e3cfcf;fill-opacity:1;fill-rule:nonzero;stroke:#000000;stroke-width:0.0926725;stroke-linecap:butt;stroke-linejoin:round;stroke-miterlimit:10;stroke-dasharray:none;stroke-opacity:1"
         d="m 62.703,74.898 6.66,0 0,6.66 -6.66,0 0,-6.66 z" /></g><g
       transform="matrix(1,0,0,-1,0,93.353439)"
       id="g30"><path
         inkscape:connector-curvature="0"
         id="path32"
         style="fill:#e6d4d4;fill-opacity:1;fill-rule:nonzero;stroke:#000000;stroke-width:0.0926725;stroke-linecap:butt;stroke-linejoin:round;stroke-miterlimit:10;stroke-dasharray:none;stroke-opacity:1"
         d="m 18.934,71.867 6.664,0 0,6.66 -6.664,0 0,-6.66 z" /></g><g
       transform="matrix(1,0,0,-1,0,93.353439)"
       id="g34"><path
         inkscape:connector-curvature="0"
         id="path36"
         style="fill:#e8d9d9;fill-opacity:1;fill-rule:nonzero;stroke:#000000;stroke-width:0.0926725;stroke-linecap:butt;stroke-linejoin:round;stroke-miterlimit:10;stroke-dasharray:none;stroke-opacity:1"
         d="m 2.227,28.953 6.66,0 0,6.66 -6.66,0 0,-6.66 z" /></g><g
       transform="matrix(1,0,0,-1,0,93.353439)"
       id="g38"><path
         inkscape:connector-curvature="0"
         id="path40"
         style="fill:#d9bdbd;fill-opacity:1;fill-rule:nonzero;stroke:#000000;stroke-width:0.0926725;stroke-linecap:butt;stroke-linejoin:round;stroke-miterlimit:10;stroke-dasharray:none;stroke-opacity:1"
         d="m 77.469,36.289 6.66,0 0,6.66 -6.66,0 0,-6.66 z" /></g><g
       transform="matrix(1,0,0,-1,0,93.353439)"
       id="g42"><path
         inkscape:connector-curvature="0"
         id="path44"
         style="fill:#dec5c5;fill-opacity:1;fill-rule:nonzero;stroke:#000000;stroke-width:0.0926725;stroke-linecap:butt;stroke-linejoin:round;stroke-miterlimit:10;stroke-dasharray:none;stroke-opacity:1"
         d="m 36.812,22.805 6.66,0 0,6.664 -6.66,0 0,-6.664 z" /></g><g
       transform="matrix(1,0,0,-1,0,93.353439)"
       id="g46"><path
         inkscape:connector-curvature="0"
         id="path48"
         style="fill:#dec7c7;fill-opacity:1;fill-rule:nonzero;stroke:#000000;stroke-width:0.0926725;stroke-linecap:butt;stroke-linejoin:round;stroke-miterlimit:10;stroke-dasharray:none;stroke-opacity:1"
         d="m 11.535,25.078 6.664,0 0,6.66 -6.664,0 0,-6.66 z" /></g><g
       transform="matrix(1,0,0,-1,0,93.353439)"
       id="g50"><path
         inkscape:connector-curvature="0"
         id="path52"
         style="fill:#e3cfcf;fill-opacity:1;fill-rule:nonzero;stroke:#000000;stroke-width:0.0926725;stroke-linecap:butt;stroke-linejoin:round;stroke-miterlimit:10;stroke-dasharray:none;stroke-opacity:1"
         d="m 3.004,21.766 6.66,0 0,6.664 -6.66,0 0,-6.664 z" /></g><g
       transform="matrix(1,0,0,-1,0,93.353439)"
       id="g54"><path
         inkscape:connector-curvature="0"
         id="path56"
         style="fill:#d9bdbd;fill-opacity:1;fill-rule:nonzero;stroke:#000000;stroke-width:0.0926725;stroke-linecap:butt;stroke-linejoin:round;stroke-miterlimit:10;stroke-dasharray:none;stroke-opacity:1"
         d="m 55.676,43.988 6.664,0 0,6.664 -6.664,0 0,-6.664 z" /></g><g
       transform="matrix(1,0,0,-1,0,93.353439)"
       id="g58"><path
         inkscape:connector-curvature="0"
         id="path60"
         style="fill:#d9bdbd;fill-opacity:1;fill-rule:nonzero;stroke:#000000;stroke-width:0.0926725;stroke-linecap:butt;stroke-linejoin:round;stroke-miterlimit:10;stroke-dasharray:none;stroke-opacity:1"
         d="m 67.488,33.812 6.66,0 0,6.66 -6.66,0 0,-6.66 z" /></g><g
       transform="matrix(1,0,0,-1,0,93.353439)"
       id="g62"><path
         inkscape:connector-curvature="0"
         id="path64"
         style="fill:#d9bdbd;fill-opacity:1;fill-rule:nonzero;stroke:#000000;stroke-width:0.0926725;stroke-linecap:butt;stroke-linejoin:round;stroke-miterlimit:10;stroke-dasharray:none;stroke-opacity:1"
         d="m 63.742,10.328 6.66,0 0,6.66 -6.66,0 0,-6.66 z" /></g><g
       transform="matrix(1,0,0,-1,0,93.353439)"
       id="g66"><path
         inkscape:connector-curvature="0"
         id="path68"
         style="fill:#dcc2c2;fill-opacity:1;fill-rule:nonzero;stroke:#000000;stroke-width:0.0926725;stroke-linecap:butt;stroke-linejoin:round;stroke-miterlimit:10;stroke-dasharray:none;stroke-opacity:1"
         d="m 0.949,63.559 6.66,0 0,6.664 -6.66,0 0,-6.664 z" /></g><g
       transform="matrix(1,0,0,-1,0,93.353439)"
       id="g70"><path
         inkscape:connector-curvature="0"
         id="path72"
         style="fill:#cca8a8;fill-opacity:1;fill-rule:nonzero;stroke:#000000;stroke-width:0.0926725;stroke-linecap:butt;stroke-linejoin:round;stroke-miterlimit:10;stroke-dasharray:none;stroke-opacity:1"
         d="m 22.305,78.027 6.66,0 0,6.66 -6.66,0 0,-6.66 z" /></g><g
       transform="matrix(1,0,0,-1,0,93.353439)"
       id="g74"><path
         inkscape:connector-curvature="0"
         id="path76"
         style="fill:#cca8a8;fill-opacity:1;fill-rule:nonzero;stroke:#000000;stroke-width:0.0926725;stroke-linecap:butt;stroke-linejoin:round;stroke-miterlimit:10;stroke-dasharray:none;stroke-opacity:1"
         d="m 39.895,8.18 6.66,0 0,6.66 -6.66,0 0,-6.66 z" /></g><g
       transform="matrix(1,0,0,-1,0,93.353439)"
       id="g78"><path
         inkscape:connector-curvature="0"
         id="path80"
         style="fill:#cfabab;fill-opacity:1;fill-rule:nonzero;stroke:#000000;stroke-width:0.0926725;stroke-linecap:butt;stroke-linejoin:round;stroke-miterlimit:10;stroke-dasharray:none;stroke-opacity:1"
         d="m 21.426,44.395 6.66,0 0,6.66 -6.66,0 0,-6.66 z" /></g><g
       transform="matrix(1,0,0,-1,0,93.353439)"
       id="g82"><path
         inkscape:connector-curvature="0"
         id="path84"
         style="fill:#d1b0b0;fill-opacity:1;fill-rule:nonzero;stroke:#000000;stroke-width:0.0926725;stroke-linecap:butt;stroke-linejoin:round;stroke-miterlimit:10;stroke-dasharray:none;stroke-opacity:1"
         d="m 6.973,56.02 6.66,0 0,6.66 -6.66,0 0,-6.66 z" /></g><g
       transform="matrix(1,0,0,-1,0,93.353439)"
       id="g86"><path
         inkscape:connector-curvature="0"
         id="path88"
         style="fill:#d4b5b5;fill-opacity:1;fill-rule:nonzero;stroke:#000000;stroke-width:0.0926725;stroke-linecap:butt;stroke-linejoin:round;stroke-miterlimit:10;stroke-dasharray:none;stroke-opacity:1"
         d="m 39.852,64.945 6.664,0 0,6.66 -6.664,0 0,-6.66 z" /></g><g
       transform="matrix(1,0,0,-1,0,93.353439)"
       id="g90"><path
         inkscape:connector-curvature="0"
         id="path92"
         style="fill:#d7baba;fill-opacity:1;fill-rule:nonzero;stroke:#000000;stroke-width:0.0926725;stroke-linecap:butt;stroke-linejoin:round;stroke-miterlimit:10;stroke-dasharray:none;stroke-opacity:1"
         d="m 43.508,16.914 6.66,0 0,6.66 -6.66,0 0,-6.66 z" /></g><g
       transform="matrix(1,0,0,-1,0,93.353439)"
       id="g94"><path
         inkscape:connector-curvature="0"
         id="path96"
         style="fill:#bf8f8f;fill-opacity:1;fill-rule:nonzero;stroke:#000000;stroke-width:0.0926725;stroke-linecap:butt;stroke-linejoin:round;stroke-miterlimit:10;stroke-dasharray:none;stroke-opacity:1"
         d="m 74.582,21.664 6.66,0 0,6.66 -6.66,0 0,-6.66 z" /></g><g
       transform="matrix(1,0,0,-1,0,93.353439)"
       id="g98"><path
         inkscape:connector-curvature="0"
         id="path100"
         style="fill:#bf8f8f;fill-opacity:1;fill-rule:nonzero;stroke:#000000;stroke-width:0.0926725;stroke-linecap:butt;stroke-linejoin:round;stroke-miterlimit:10;stroke-dasharray:none;stroke-opacity:1"
         d="m 28.84,26.02 6.66,0 0,6.66 -6.66,0 0,-6.66 z" /></g><g
       transform="matrix(1,0,0,-1,0,93.353439)"
       id="g102"><path
         inkscape:connector-curvature="0"
         id="path104"
         style="fill:#bd8c8c;fill-opacity:1;fill-rule:nonzero;stroke:#000000;stroke-width:0.0926725;stroke-linecap:butt;stroke-linejoin:round;stroke-miterlimit:10;stroke-dasharray:none;stroke-opacity:1"
         d="m 53.516,21.312 6.664,0 0,6.66 -6.664,0 0,-6.66 z" /></g><g
       transform="matrix(1,0,0,-1,0,93.353439)"
       id="g106"><path
         inkscape:connector-curvature="0"
         id="path108"
         style="fill:#bd8c8c;fill-opacity:1;fill-rule:nonzero;stroke:#000000;stroke-width:0.0926725;stroke-linecap:butt;stroke-linejoin:round;stroke-miterlimit:10;stroke-dasharray:none;stroke-opacity:1"
         d="m 50.844,35.91 6.66,0 0,6.66 -6.66,0 0,-6.66 z" /></g><g
       transform="matrix(1,0,0,-1,0,93.353439)"
       id="g110"><path
         inkscape:connector-curvature="0"
         id="path112"
         style="fill:#ba8787;fill-opacity:1;fill-rule:nonzero;stroke:#000000;stroke-width:0.0926725;stroke-linecap:butt;stroke-linejoin:round;stroke-miterlimit:10;stroke-dasharray:none;stroke-opacity:1"
         d="m 49.371,11.309 6.66,0 0,6.66 -6.66,0 0,-6.66 z" /></g><g
       transform="matrix(1,0,0,-1,0,93.353439)"
       id="g114"><path
         inkscape:connector-curvature="0"
         id="path116"
         style="fill:#b88585;fill-opacity:1;fill-rule:nonzero;stroke:#000000;stroke-width:0.0926725;stroke-linecap:butt;stroke-linejoin:round;stroke-miterlimit:10;stroke-dasharray:none;stroke-opacity:1"
         d="m 37.473,74.176 6.66,0 0,6.664 -6.66,0 0,-6.664 z" /></g><g
       transform="matrix(1,0,0,-1,0,93.353439)"
       id="g118"><path
         inkscape:connector-curvature="0"
         id="path120"
         style="fill:#b88282;fill-opacity:1;fill-rule:nonzero;stroke:#000000;stroke-width:0.0926725;stroke-linecap:butt;stroke-linejoin:round;stroke-miterlimit:10;stroke-dasharray:none;stroke-opacity:1"
         d="m 40.582,48.602 6.66,0 0,6.664 -6.66,0 0,-6.664 z" /></g><g
       transform="matrix(1,0,0,-1,0,93.353439)"
       id="g122"><path
         inkscape:connector-curvature="0"
         id="path124"
         style="fill:#c29797;fill-opacity:1;fill-rule:nonzero;stroke:#000000;stroke-width:0.0926725;stroke-linecap:butt;stroke-linejoin:round;stroke-miterlimit:10;stroke-dasharray:none;stroke-opacity:1"
         d="m 32.34,65.984 6.66,0 0,6.66 -6.66,0 0,-6.66 z" /></g><g
       transform="matrix(1,0,0,-1,0,93.353439)"
       id="g126"><path
         inkscape:connector-curvature="0"
         id="path128"
         style="fill:#b87f7f;fill-opacity:1;fill-rule:nonzero;stroke:#000000;stroke-width:0.0926725;stroke-linecap:butt;stroke-linejoin:round;stroke-miterlimit:10;stroke-dasharray:none;stroke-opacity:1"
         d="m 44.391,57.238 6.66,0 0,6.66 -6.66,0 0,-6.66 z" /></g><g
       transform="matrix(1,0,0,-1,0,93.353439)"
       id="g130"><path
         inkscape:connector-curvature="0"
         id="path132"
         style="fill:#b57d7d;fill-opacity:1;fill-rule:nonzero;stroke:#000000;stroke-width:0.0926725;stroke-linecap:butt;stroke-linejoin:round;stroke-miterlimit:10;stroke-dasharray:none;stroke-opacity:1"
         d="m 45.043,70.648 6.66,0 0,6.664 -6.66,0 0,-6.664 z" /></g><g
       transform="matrix(1,0,0,-1,0,93.353439)"
       id="g134"><path
         inkscape:connector-curvature="0"
         id="path136"
         style="fill:#b07373;fill-opacity:1;fill-rule:nonzero;stroke:#000000;stroke-width:0.0926725;stroke-linecap:butt;stroke-linejoin:round;stroke-miterlimit:10;stroke-dasharray:none;stroke-opacity:1"
         d="m 77.059,85.738 6.66,0 0,6.66 -6.66,0 0,-6.66 z" /></g><g
       transform="matrix(1,0,0,-1,0,93.353439)"
       id="g138"><path
         inkscape:connector-curvature="0"
         id="path140"
         style="fill:#b07373;fill-opacity:1;fill-rule:nonzero;stroke:#000000;stroke-width:0.0926725;stroke-linecap:butt;stroke-linejoin:round;stroke-miterlimit:10;stroke-dasharray:none;stroke-opacity:1"
         d="m 28.562,42.625 6.664,0 0,6.66 -6.664,0 0,-6.66 z" /></g><g
       transform="matrix(1,0,0,-1,0,93.353439)"
       id="g142"><path
         inkscape:connector-curvature="0"
         id="path144"
         style="fill:#ae7070;fill-opacity:1;fill-rule:nonzero;stroke:#000000;stroke-width:0.0926725;stroke-linecap:butt;stroke-linejoin:round;stroke-miterlimit:10;stroke-dasharray:none;stroke-opacity:1"
         d="m 76.387,65.008 6.66,0 0,6.66 -6.66,0 0,-6.66 z" /></g><g
       transform="matrix(1,0,0,-1,0,93.353439)"
       id="g146"><path
         inkscape:connector-curvature="0"
         id="path148"
         style="fill:#ab6e6e;fill-opacity:1;fill-rule:nonzero;stroke:#000000;stroke-width:0.0926725;stroke-linecap:butt;stroke-linejoin:round;stroke-miterlimit:10;stroke-dasharray:none;stroke-opacity:1"
         d="m 9.316,65.801 6.66,0 0,6.66 -6.66,0 0,-6.66 z" /></g><g
       transform="matrix(1,0,0,-1,0,93.353439)"
       id="g150"><path
         inkscape:connector-curvature="0"
         id="path152"
         style="fill:#ab6868;fill-opacity:1;fill-rule:nonzero;stroke:#000000;stroke-width:0.0926725;stroke-linecap:butt;stroke-linejoin:round;stroke-miterlimit:10;stroke-dasharray:none;stroke-opacity:1"
         d="m 36.117,57.289 6.66,0 0,6.66 -6.66,0 0,-6.66 z" /></g><g
       transform="matrix(1,0,0,-1,0,93.353439)"
       id="g154"><path
         inkscape:connector-curvature="0"
         id="path156"
         style="fill:#c79e9e;fill-opacity:1;fill-rule:nonzero;stroke:#000000;stroke-width:0.0926725;stroke-linecap:butt;stroke-linejoin:round;stroke-miterlimit:10;stroke-dasharray:none;stroke-opacity:1"
         d="m 7.695,61.035 6.664,0 0,6.66 -6.664,0 0,-6.66 z" /></g><g
       transform="matrix(1,0,0,-1,0,93.353439)"
       id="g158"><path
         inkscape:connector-curvature="0"
         id="path160"
         style="fill:#c59999;fill-opacity:1;fill-rule:nonzero;stroke:#000000;stroke-width:0.0926725;stroke-linecap:butt;stroke-linejoin:round;stroke-miterlimit:10;stroke-dasharray:none;stroke-opacity:1"
         d="m 10.293,48.16 6.66,0 0,6.66 -6.66,0 0,-6.66 z" /></g><g
       transform="matrix(1,0,0,-1,0,93.353439)"
       id="g162"><path
         inkscape:connector-curvature="0"
         id="path164"
         style="fill:#a86868;fill-opacity:1;fill-rule:nonzero;stroke:#000000;stroke-width:0.0926725;stroke-linecap:butt;stroke-linejoin:round;stroke-miterlimit:10;stroke-dasharray:none;stroke-opacity:1"
         d="m 10.211,7.453 6.66,0 0,6.66 -6.66,0 0,-6.66 z" /></g><g
       transform="matrix(1,0,0,-1,0,93.353439)"
       id="g166"><path
         inkscape:connector-curvature="0"
         id="path168"
         style="fill:#a36161;fill-opacity:1;fill-rule:nonzero;stroke:#000000;stroke-width:0.0926725;stroke-linecap:butt;stroke-linejoin:round;stroke-miterlimit:10;stroke-dasharray:none;stroke-opacity:1"
         d="m 14.723,33.754 6.66,0 0,6.66 -6.66,0 0,-6.66 z" /></g><g
       transform="matrix(1,0,0,-1,0,93.353439)"
       id="g170"><path
         inkscape:connector-curvature="0"
         id="path172"
         style="fill:#a35e5e;fill-opacity:1;fill-rule:nonzero;stroke:#000000;stroke-width:0.0926725;stroke-linecap:butt;stroke-linejoin:round;stroke-miterlimit:10;stroke-dasharray:none;stroke-opacity:1"
         d="m 61.164,37.934 6.66,0 0,6.664 -6.66,0 0,-6.664 z" /></g><g
       transform="matrix(1,0,0,-1,0,93.353439)"
       id="g174"><path
         inkscape:connector-curvature="0"
         id="path176"
         style="fill:#9e5454;fill-opacity:1;fill-rule:nonzero;stroke:#000000;stroke-width:0.0926725;stroke-linecap:butt;stroke-linejoin:round;stroke-miterlimit:10;stroke-dasharray:none;stroke-opacity:1"
         d="m 45.359,78.457 6.66,0 0,6.66 -6.66,0 0,-6.66 z" /></g><g
       transform="matrix(1,0,0,-1,0,93.353439)"
       id="g178"><path
         inkscape:connector-curvature="0"
         id="path180"
         style="fill:#9c5151;fill-opacity:1;fill-rule:nonzero;stroke:#000000;stroke-width:0.0926725;stroke-linecap:butt;stroke-linejoin:round;stroke-miterlimit:10;stroke-dasharray:none;stroke-opacity:1"
         d="m 16.98,50.281 6.664,0 0,6.66 -6.664,0 0,-6.66 z" /></g><g
       transform="matrix(1,0,0,-1,0,93.353439)"
       id="g182"><path
         inkscape:connector-curvature="0"
         id="path184"
         style="fill:#994c4c;fill-opacity:1;fill-rule:nonzero;stroke:#000000;stroke-width:0.0926725;stroke-linecap:butt;stroke-linejoin:round;stroke-miterlimit:10;stroke-dasharray:none;stroke-opacity:1"
         d="m 4.273,51.344 6.66,0 0,6.66 -6.66,0 0,-6.66 z" /></g><g
       transform="matrix(1,0,0,-1,0,93.353439)"
       id="g186"><path
         inkscape:connector-curvature="0"
         id="path188"
         style="fill:#994c4c;fill-opacity:1;fill-rule:nonzero;stroke:#000000;stroke-width:0.0926725;stroke-linecap:butt;stroke-linejoin:round;stroke-miterlimit:10;stroke-dasharray:none;stroke-opacity:1"
         d="m 75.805,10.605 6.66,0 0,6.664 -6.66,0 0,-6.664 z" /></g><g
       transform="matrix(1,0,0,-1,0,93.353439)"
       id="g190"><path
         inkscape:connector-curvature="0"
         id="path192"
         style="fill:#cfa8a8;fill-opacity:1;fill-rule:nonzero;stroke:#000000;stroke-width:0.0926725;stroke-linecap:butt;stroke-linejoin:round;stroke-miterlimit:10;stroke-dasharray:none;stroke-opacity:1"
         d="m 68.906,26.152 6.66,0 0,6.664 -6.66,0 0,-6.664 z" /></g><g
       transform="matrix(1,0,0,-1,0,93.353439)"
       id="g194"><path
         inkscape:connector-curvature="0"
         id="path196"
         style="fill:#c79e9e;fill-opacity:1;fill-rule:nonzero;stroke:#000000;stroke-width:0.0926725;stroke-linecap:butt;stroke-linejoin:round;stroke-miterlimit:10;stroke-dasharray:none;stroke-opacity:1"
         d="m 57.773,51.621 6.66,0 0,6.66 -6.66,0 0,-6.66 z" /></g><g
       transform="matrix(1,0,0,-1,0,93.353439)"
       id="g198"><path
         inkscape:connector-curvature="0"
         id="path200"
         style="fill:#c59999;fill-opacity:1;fill-rule:nonzero;stroke:#000000;stroke-width:0.0926725;stroke-linecap:butt;stroke-linejoin:round;stroke-miterlimit:10;stroke-dasharray:none;stroke-opacity:1"
         d="m 0.055,13.551 6.66,0 0,6.66 -6.66,0 0,-6.66 z" /></g><g
       transform="matrix(1,0,0,-1,0,93.353439)"
       id="g202"><path
         inkscape:connector-curvature="0"
         id="path204"
         style="fill:#9e5454;fill-opacity:1;fill-rule:nonzero;stroke:#000000;stroke-width:0.0926725;stroke-linecap:butt;stroke-linejoin:round;stroke-miterlimit:10;stroke-dasharray:none;stroke-opacity:1"
         d="m 55.543,81.84 6.66,0 0,6.66 -6.66,0 0,-6.66 z" /></g><g
       transform="matrix(1,0,0,-1,0,93.353439)"
       id="g206"><path
         inkscape:connector-curvature="0"
         id="path208"
         style="fill:#994c4c;fill-opacity:1;fill-rule:nonzero;stroke:#000000;stroke-width:0.0926725;stroke-linecap:butt;stroke-linejoin:round;stroke-miterlimit:10;stroke-dasharray:none;stroke-opacity:1"
         d="m 70.527,7.32 6.664,0 0,6.664 -6.664,0 0,-6.664 z" /></g><g
       transform="matrix(1,0,0,-1,0,93.353439)"
       id="g210"><path
         inkscape:connector-curvature="0"
         id="path212"
         style="fill:#974545;fill-opacity:1;fill-rule:nonzero;stroke:#000000;stroke-width:0.0926725;stroke-linecap:butt;stroke-linejoin:round;stroke-miterlimit:10;stroke-dasharray:none;stroke-opacity:1"
         d="m 17.336,16.457 6.66,0 0,6.664 -6.66,0 0,-6.664 z" /></g><g
       transform="matrix(1,0,0,-1,0,93.353439)"
       id="g214"><path
         inkscape:connector-curvature="0"
         id="path216"
         style="fill:#913f3f;fill-opacity:1;fill-rule:nonzero;stroke:#000000;stroke-width:0.0926725;stroke-linecap:butt;stroke-linejoin:round;stroke-miterlimit:10;stroke-dasharray:none;stroke-opacity:1"
         d="m 26.77,18.793 6.66,0 0,6.664 -6.66,0 0,-6.664 z" /></g><g
       transform="matrix(1,0,0,-1,0,93.353439)"
       id="g218"><path
         inkscape:connector-curvature="0"
         id="path220"
         style="fill:#8f3d3d;fill-opacity:1;fill-rule:nonzero;stroke:#000000;stroke-width:0.0926725;stroke-linecap:butt;stroke-linejoin:round;stroke-miterlimit:10;stroke-dasharray:none;stroke-opacity:1"
         d="m 8.84,16.953 6.66,0 0,6.66 -6.66,0 0,-6.66 z" /></g><g
       transform="matrix(1,0,0,-1,0,93.353439)"
       id="g222"><path
         inkscape:connector-curvature="0"
         id="path224"
         style="fill:#8f3838;fill-opacity:1;fill-rule:nonzero;stroke:#000000;stroke-width:0.0926725;stroke-linecap:butt;stroke-linejoin:round;stroke-miterlimit:10;stroke-dasharray:none;stroke-opacity:1"
         d="m 36.094,83.422 6.66,0 0,6.664 -6.66,0 0,-6.664 z" /></g><g
       transform="matrix(1,0,0,-1,0,93.353439)"
       id="g226"><path
         inkscape:connector-curvature="0"
         id="path228"
         style="fill:#8a3333;fill-opacity:1;fill-rule:nonzero;stroke:#000000;stroke-width:0.0926725;stroke-linecap:butt;stroke-linejoin:round;stroke-miterlimit:10;stroke-dasharray:none;stroke-opacity:1"
         d="m 49.215,51.496 6.664,0 0,6.66 -6.664,0 0,-6.66 z" /></g><g
       transform="matrix(1,0,0,-1,0,93.353439)"
       id="g230"><path
         inkscape:connector-curvature="0"
         id="path232"
         style="fill:#e3cfcf;fill-opacity:1;fill-rule:nonzero;stroke:#000000;stroke-width:0.0926725;stroke-linecap:butt;stroke-linejoin:round;stroke-miterlimit:10;stroke-dasharray:none;stroke-opacity:1"
         d="m 8.199,40.359 6.664,0 0,6.66 -6.664,0 0,-6.66 z" /></g><g
       transform="matrix(1,0,0,-1,0,93.353439)"
       id="g234"><path
         inkscape:connector-curvature="0"
         id="path236"
         style="fill:#d7b8b8;fill-opacity:1;fill-rule:nonzero;stroke:#000000;stroke-width:0.0926725;stroke-linecap:butt;stroke-linejoin:round;stroke-miterlimit:10;stroke-dasharray:none;stroke-opacity:1"
         d="m 21.117,36.492 6.66,0 0,6.664 -6.66,0 0,-6.664 z" /></g><g
       transform="matrix(1,0,0,-1,0,93.353439)"
       id="g238"><path
         inkscape:connector-curvature="0"
         id="path240"
         style="fill:#c7a1a1;fill-opacity:1;fill-rule:nonzero;stroke:#000000;stroke-width:0.0926725;stroke-linecap:butt;stroke-linejoin:round;stroke-miterlimit:10;stroke-dasharray:none;stroke-opacity:1"
         d="m 57.613,31.238 6.66,0 0,6.664 -6.66,0 0,-6.664 z" /></g><g
       transform="matrix(1,0,0,-1,0,93.353439)"
       id="g242"><path
         inkscape:connector-curvature="0"
         id="path244"
         style="fill:#c59999;fill-opacity:1;fill-rule:nonzero;stroke:#000000;stroke-width:0.0926725;stroke-linecap:butt;stroke-linejoin:round;stroke-miterlimit:10;stroke-dasharray:none;stroke-opacity:1"
         d="m 14.859,42.105 6.664,0 0,6.66 -6.664,0 0,-6.66 z" /></g><g
       transform="matrix(1,0,0,-1,0,93.353439)"
       id="g246"><path
         inkscape:connector-curvature="0"
         id="path248"
         style="fill:#994c4c;fill-opacity:1;fill-rule:nonzero;stroke:#000000;stroke-width:0.0926725;stroke-linecap:butt;stroke-linejoin:round;stroke-miterlimit:10;stroke-dasharray:none;stroke-opacity:1"
         d="m 63.684,57.188 6.66,0 0,6.664 -6.66,0 0,-6.664 z" /></g><g
       transform="matrix(1,0,0,-1,0,93.353439)"
       id="g250"><path
         inkscape:connector-curvature="0"
         id="path252"
         style="fill:#974545;fill-opacity:1;fill-rule:nonzero;stroke:#000000;stroke-width:0.0926725;stroke-linecap:butt;stroke-linejoin:round;stroke-miterlimit:10;stroke-dasharray:none;stroke-opacity:1"
         d="m 31.07,3.352 6.66,0 0,6.66 -6.66,0 0,-6.66 z" /></g><g
       transform="matrix(1,0,0,-1,0,93.353439)"
       id="g254"><path
         inkscape:connector-curvature="0"
         id="path256"
         style="fill:#8f3a3a;fill-opacity:1;fill-rule:nonzero;stroke:#000000;stroke-width:0.0926725;stroke-linecap:butt;stroke-linejoin:round;stroke-miterlimit:10;stroke-dasharray:none;stroke-opacity:1"
         d="m 53.668,57.891 6.66,0 0,6.664 -6.66,0 0,-6.664 z" /></g><g
       transform="matrix(1,0,0,-1,0,93.353439)"
       id="g258"><path
         inkscape:connector-curvature="0"
         id="path260"
         style="fill:#8a3030;fill-opacity:1;fill-rule:nonzero;stroke:#000000;stroke-width:0.0926725;stroke-linecap:butt;stroke-linejoin:round;stroke-miterlimit:10;stroke-dasharray:none;stroke-opacity:1"
         d="m 71.633,71.152 6.66,0 0,6.66 -6.66,0 0,-6.66 z" /></g><g
       transform="matrix(1,0,0,-1,0,93.353439)"
       id="g262"><path
         inkscape:connector-curvature="0"
         id="path264"
         style="fill:#8a3030;fill-opacity:1;fill-rule:nonzero;stroke:#000000;stroke-width:0.0926725;stroke-linecap:butt;stroke-linejoin:round;stroke-miterlimit:10;stroke-dasharray:none;stroke-opacity:1"
         d="m 65.336,18.613 6.664,0 0,6.66 -6.664,0 0,-6.66 z" /></g><g
       transform="matrix(1,0,0,-1,0,93.353439)"
       id="g266"><path
         inkscape:connector-curvature="0"
         id="path268"
         style="fill:#852828;fill-opacity:1;fill-rule:nonzero;stroke:#000000;stroke-width:0.0926725;stroke-linecap:butt;stroke-linejoin:round;stroke-miterlimit:10;stroke-dasharray:none;stroke-opacity:1"
         d="m 24.191,51.531 6.66,0 0,6.66 -6.66,0 0,-6.66 z" /></g><g
       transform="matrix(1,0,0,-1,0,93.353439)"
       id="g270"><path
         inkscape:connector-curvature="0"
         id="path272"
         style="fill:#822323;fill-opacity:1;fill-rule:nonzero;stroke:#000000;stroke-width:0.0926725;stroke-linecap:butt;stroke-linejoin:round;stroke-miterlimit:10;stroke-dasharray:none;stroke-opacity:1"
         d="m 56.906,5.75 6.66,0 0,6.664 -6.66,0 0,-6.664 z" /></g><g
       transform="matrix(1,0,0,-1,0,93.353439)"
       id="g274"><path
         inkscape:connector-curvature="0"
         id="path276"
         style="fill:#f3ebeb;fill-opacity:1;fill-rule:nonzero;stroke:#000000;stroke-width:0.0926725;stroke-linecap:butt;stroke-linejoin:round;stroke-miterlimit:10;stroke-dasharray:none;stroke-opacity:1"
         d="m 70.16,40.906 6.66,0 0,6.66 -6.66,0 0,-6.66 z" /></g><g
       transform="matrix(1,0,0,-1,0,93.353439)"
       id="g278"><path
         inkscape:connector-curvature="0"
         id="path280"
         style="fill:#e6d4d4;fill-opacity:1;fill-rule:nonzero;stroke:#000000;stroke-width:0.0926725;stroke-linecap:butt;stroke-linejoin:round;stroke-miterlimit:10;stroke-dasharray:none;stroke-opacity:1"
         d="m 63.691,46.863 6.66,0 0,6.664 -6.66,0 0,-6.664 z" /></g><g
       transform="matrix(1,0,0,-1,0,93.353439)"
       id="g282"><path
         inkscape:connector-curvature="0"
         id="path284"
         style="fill:#d7b8b8;fill-opacity:1;fill-rule:nonzero;stroke:#000000;stroke-width:0.0926725;stroke-linecap:butt;stroke-linejoin:round;stroke-miterlimit:10;stroke-dasharray:none;stroke-opacity:1"
         d="m 81.801,10.254 6.66,0 0,6.66 -6.66,0 0,-6.66 z" /></g><g
       transform="matrix(1,0,0,-1,0,93.353439)"
       id="g286"><path
         inkscape:connector-curvature="0"
         id="path288"
         style="fill:#caa1a1;fill-opacity:1;fill-rule:nonzero;stroke:#000000;stroke-width:0.0926725;stroke-linecap:butt;stroke-linejoin:round;stroke-miterlimit:10;stroke-dasharray:none;stroke-opacity:1"
         d="m 77.312,44.699 6.66,0 0,6.664 -6.66,0 0,-6.664 z" /></g><g
       transform="matrix(1,0,0,-1,0,93.353439)"
       id="g290"><path
         inkscape:connector-curvature="0"
         id="path292"
         style="fill:#c59c9c;fill-opacity:1;fill-rule:nonzero;stroke:#000000;stroke-width:0.0926725;stroke-linecap:butt;stroke-linejoin:round;stroke-miterlimit:10;stroke-dasharray:none;stroke-opacity:1"
         d="m 29.852,75.078 6.664,0 0,6.66 -6.664,0 0,-6.66 z" /></g><g
       transform="matrix(1,0,0,-1,0,93.353439)"
       id="g294"><path
         inkscape:connector-curvature="0"
         id="path296"
         style="fill:#994c4c;fill-opacity:1;fill-rule:nonzero;stroke:#000000;stroke-width:0.0926725;stroke-linecap:butt;stroke-linejoin:round;stroke-miterlimit:10;stroke-dasharray:none;stroke-opacity:1"
         d="m 3.754,68.562 6.66,0 0,6.66 -6.66,0 0,-6.66 z" /></g><g
       transform="matrix(1,0,0,-1,0,93.353439)"
       id="g298"><path
         inkscape:connector-curvature="0"
         id="path300"
         style="fill:#944242;fill-opacity:1;fill-rule:nonzero;stroke:#000000;stroke-width:0.0926725;stroke-linecap:butt;stroke-linejoin:round;stroke-miterlimit:10;stroke-dasharray:none;stroke-opacity:1"
         d="m 23.156,0.055 6.664,0 0,6.664 -6.664,0 0,-6.664 z" /></g><g
       transform="matrix(1,0,0,-1,0,93.353439)"
       id="g302"><path
         inkscape:connector-curvature="0"
         id="path304"
         style="fill:#8f3a3a;fill-opacity:1;fill-rule:nonzero;stroke:#000000;stroke-width:0.0926725;stroke-linecap:butt;stroke-linejoin:round;stroke-miterlimit:10;stroke-dasharray:none;stroke-opacity:1"
         d="m 57.492,15.109 6.66,0 0,6.664 -6.66,0 0,-6.664 z" /></g><g
       transform="matrix(1,0,0,-1,0,93.353439)"
       id="g306"><path
         inkscape:connector-curvature="0"
         id="path308"
         style="fill:#8a3030;fill-opacity:1;fill-rule:nonzero;stroke:#000000;stroke-width:0.0926725;stroke-linecap:butt;stroke-linejoin:round;stroke-miterlimit:10;stroke-dasharray:none;stroke-opacity:1"
         d="m 57.914,65.43 6.66,0 0,6.66 -6.66,0 0,-6.66 z" /></g><g
       transform="matrix(1,0,0,-1,0,93.353439)"
       id="g310"><path
         inkscape:connector-curvature="0"
         id="path312"
         style="fill:#872e2e;fill-opacity:1;fill-rule:nonzero;stroke:#000000;stroke-width:0.0926725;stroke-linecap:butt;stroke-linejoin:round;stroke-miterlimit:10;stroke-dasharray:none;stroke-opacity:1"
         d="m 42.891,39.992 6.66,0 0,6.66 -6.66,0 0,-6.66 z" /></g><g
       transform="matrix(1,0,0,-1,0,93.353439)"
       id="g314"><path
         inkscape:connector-curvature="0"
         id="path316"
         style="fill:#852626;fill-opacity:1;fill-rule:nonzero;stroke:#000000;stroke-width:0.0926725;stroke-linecap:butt;stroke-linejoin:round;stroke-miterlimit:10;stroke-dasharray:none;stroke-opacity:1"
         d="m 27.566,33.438 6.66,0 0,6.664 -6.66,0 0,-6.664 z" /></g><g
       transform="matrix(1,0,0,-1,0,93.353439)"
       id="g318"><path
         inkscape:connector-curvature="0"
         id="path320"
         style="fill:#822323;fill-opacity:1;fill-rule:nonzero;stroke:#000000;stroke-width:0.0926725;stroke-linecap:butt;stroke-linejoin:round;stroke-miterlimit:10;stroke-dasharray:none;stroke-opacity:1"
         d="m 65.867,64.895 6.66,0 0,6.66 -6.66,0 0,-6.66 z" /></g><g
       transform="matrix(1,0,0,-1,0,93.353439)"
       id="g322"><path
         inkscape:connector-curvature="0"
         id="path324"
         style="fill:#f5f0f0;fill-opacity:1;fill-rule:nonzero;stroke:#000000;stroke-width:0.0926725;stroke-linecap:butt;stroke-linejoin:round;stroke-miterlimit:10;stroke-dasharray:none;stroke-opacity:1"
         d="m 13.023,69.348 6.664,0 0,6.664 -6.664,0 0,-6.664 z" /></g><g
       transform="matrix(1,0,0,-1,0,93.353439)"
       id="g326"><path
         inkscape:connector-curvature="0"
         id="path328"
         style="fill:#f5ebeb;fill-opacity:1;fill-rule:nonzero;stroke:#000000;stroke-width:0.0926725;stroke-linecap:butt;stroke-linejoin:round;stroke-miterlimit:10;stroke-dasharray:none;stroke-opacity:1"
         d="m 78.891,16.121 6.66,0 0,6.664 -6.66,0 0,-6.664 z" /></g><g
       transform="matrix(1,0,0,-1,0,93.353439)"
       id="g330"><path
         inkscape:connector-curvature="0"
         id="path332"
         style="fill:#e8d9d9;fill-opacity:1;fill-rule:nonzero;stroke:#000000;stroke-width:0.0926725;stroke-linecap:butt;stroke-linejoin:round;stroke-miterlimit:10;stroke-dasharray:none;stroke-opacity:1"
         d="m 80.02,75.258 6.66,0 0,6.66 -6.66,0 0,-6.66 z" /></g><g
       transform="matrix(1,0,0,-1,0,93.353439)"
       id="g334"><path
         inkscape:connector-curvature="0"
         id="path336"
         style="fill:#d9bdbd;fill-opacity:1;fill-rule:nonzero;stroke:#000000;stroke-width:0.0926725;stroke-linecap:butt;stroke-linejoin:round;stroke-miterlimit:10;stroke-dasharray:none;stroke-opacity:1"
         d="m 48.949,64.023 6.66,0 0,6.664 -6.66,0 0,-6.664 z" /></g><g
       transform="matrix(1,0,0,-1,0,93.353439)"
       id="g338"><path
         inkscape:connector-curvature="0"
         id="path340"
         style="fill:#caa1a1;fill-opacity:1;fill-rule:nonzero;stroke:#000000;stroke-width:0.0926725;stroke-linecap:butt;stroke-linejoin:round;stroke-miterlimit:10;stroke-dasharray:none;stroke-opacity:1"
         d="m 34.887,31.809 6.66,0 0,6.66 -6.66,0 0,-6.66 z" /></g><g
       transform="matrix(1,0,0,-1,0,93.353439)"
       id="g342"><path
         inkscape:connector-curvature="0"
         id="path344"
         style="fill:#c79c9c;fill-opacity:1;fill-rule:nonzero;stroke:#000000;stroke-width:0.0926725;stroke-linecap:butt;stroke-linejoin:round;stroke-miterlimit:10;stroke-dasharray:none;stroke-opacity:1"
         d="m 21.328,8.555 6.664,0 0,6.664 -6.664,0 0,-6.664 z" /></g><g
       transform="matrix(1,0,0,-1,0,93.353439)"
       id="g346"><path
         inkscape:connector-curvature="0"
         id="path348"
         style="fill:#974747;fill-opacity:1;fill-rule:nonzero;stroke:#000000;stroke-width:0.0926725;stroke-linecap:butt;stroke-linejoin:round;stroke-miterlimit:10;stroke-dasharray:none;stroke-opacity:1"
         d="m 13.125,55.613 6.664,0 0,6.66 -6.664,0 0,-6.66 z" /></g><g
       transform="matrix(1,0,0,-1,0,93.353439)"
       id="g350"><path
         inkscape:connector-curvature="0"
         id="path352"
         style="fill:#913f3f;fill-opacity:1;fill-rule:nonzero;stroke:#000000;stroke-width:0.0926725;stroke-linecap:butt;stroke-linejoin:round;stroke-miterlimit:10;stroke-dasharray:none;stroke-opacity:1"
         d="m 15.758,63.344 6.66,0 0,6.66 -6.66,0 0,-6.66 z" /></g><g
       transform="matrix(1,0,0,-1,0,93.353439)"
       id="g354"><path
         inkscape:connector-curvature="0"
         id="path356"
         style="fill:#8c3535;fill-opacity:1;fill-rule:nonzero;stroke:#000000;stroke-width:0.0926725;stroke-linecap:butt;stroke-linejoin:round;stroke-miterlimit:10;stroke-dasharray:none;stroke-opacity:1"
         d="m 32.352,12.262 6.66,0 0,6.66 -6.66,0 0,-6.66 z" /></g><g
       transform="matrix(1,0,0,-1,0,93.353439)"
       id="g358"><path
         inkscape:connector-curvature="0"
         id="path360"
         style="fill:#8a3030;fill-opacity:1;fill-rule:nonzero;stroke:#000000;stroke-width:0.0926725;stroke-linecap:butt;stroke-linejoin:round;stroke-miterlimit:10;stroke-dasharray:none;stroke-opacity:1"
         d="m 70.797,14.406 6.66,0 0,6.66 -6.66,0 0,-6.66 z" /></g><g
       transform="matrix(1,0,0,-1,0,93.353439)"
       id="g362"><path
         inkscape:connector-curvature="0"
         id="path364"
         style="fill:#852828;fill-opacity:1;fill-rule:nonzero;stroke:#000000;stroke-width:0.0926725;stroke-linecap:butt;stroke-linejoin:round;stroke-miterlimit:10;stroke-dasharray:none;stroke-opacity:1"
         d="m 45.895,86.645 6.66,0 0,6.66 -6.66,0 0,-6.66 z" /></g><g
       transform="matrix(1,0,0,-1,0,93.353439)"
       id="g366"><path
         inkscape:connector-curvature="0"
         id="path368"
         style="fill:#822323;fill-opacity:1;fill-rule:nonzero;stroke:#000000;stroke-width:0.0926725;stroke-linecap:butt;stroke-linejoin:round;stroke-miterlimit:10;stroke-dasharray:none;stroke-opacity:1"
         d="m 50.129,45.164 6.66,0 0,6.66 -6.66,0 0,-6.66 z" /></g><g
       transform="matrix(1,0,0,-1,0,93.353439)"
       id="g370"><path
         inkscape:connector-curvature="0"
         id="path372"
         style="fill:#822323;fill-opacity:1;fill-rule:nonzero;stroke:#000000;stroke-width:0.0926725;stroke-linecap:butt;stroke-linejoin:round;stroke-miterlimit:10;stroke-dasharray:none;stroke-opacity:1"
         d="m 28.234,58.32 6.66,0 0,6.664 -6.66,0 0,-6.664 z" /></g><g
       transform="matrix(1,0,0,-1,0,93.353439)"
       id="g374"><path
         inkscape:connector-curvature="0"
         id="path376"
         style="fill:#faf5f5;fill-opacity:1;fill-rule:nonzero;stroke:#000000;stroke-width:0.0926725;stroke-linecap:butt;stroke-linejoin:round;stroke-miterlimit:10;stroke-dasharray:none;stroke-opacity:1"
         d="m 35.047,40.539 6.66,0 0,6.66 -6.66,0 0,-6.66 z" /></g><g
       transform="matrix(1,0,0,-1,0,93.353439)"
       id="g378"><path
         inkscape:connector-curvature="0"
         id="path380"
         style="fill:#faf5f5;fill-opacity:1;fill-rule:nonzero;stroke:#000000;stroke-width:0.0926725;stroke-linecap:butt;stroke-linejoin:round;stroke-miterlimit:10;stroke-dasharray:none;stroke-opacity:1"
         d="m 77.34,28.801 6.664,0 0,6.66 -6.664,0 0,-6.66 z" /></g><g
       transform="matrix(1,0,0,-1,0,93.353439)"
       id="g382"><path
         inkscape:connector-curvature="0"
         id="path384"
         style="fill:#f5f0f0;fill-opacity:1;fill-rule:nonzero;stroke:#000000;stroke-width:0.0926725;stroke-linecap:butt;stroke-linejoin:round;stroke-miterlimit:10;stroke-dasharray:none;stroke-opacity:1"
         d="m 47.5,26 6.66,0 0,6.66 -6.66,0 0,-6.66 z" /></g><g
       transform="matrix(1,0,0,-1,0,93.353439)"
       id="g386"><path
         inkscape:connector-curvature="0"
         id="path388"
         style="fill:#ebd9d9;fill-opacity:1;fill-rule:nonzero;stroke:#000000;stroke-width:0.0926725;stroke-linecap:butt;stroke-linejoin:round;stroke-miterlimit:10;stroke-dasharray:none;stroke-opacity:1"
         d="m 31.914,49.77 6.66,0 0,6.66 -6.66,0 0,-6.66 z" /></g><g
       transform="matrix(1,0,0,-1,0,93.353439)"
       id="g390"><path
         inkscape:connector-curvature="0"
         id="path392"
         style="fill:#d9bdbd;fill-opacity:1;fill-rule:nonzero;stroke:#000000;stroke-width:0.0926725;stroke-linecap:butt;stroke-linejoin:round;stroke-miterlimit:10;stroke-dasharray:none;stroke-opacity:1"
         d="m 72.406,58.016 6.66,0 0,6.664 -6.66,0 0,-6.664 z" /></g><g
       transform="matrix(1,0,0,-1,0,93.353439)"
       id="g394"><path
         inkscape:connector-curvature="0"
         id="path396"
         style="fill:#cca6a6;fill-opacity:1;fill-rule:nonzero;stroke:#000000;stroke-width:0.0926725;stroke-linecap:butt;stroke-linejoin:round;stroke-miterlimit:10;stroke-dasharray:none;stroke-opacity:1"
         d="m 66.035,84.773 6.664,0 0,6.66 -6.664,0 0,-6.66 z" /></g><g
       transform="matrix(1,0,0,-1,0,93.353439)"
       id="g398"><path
         inkscape:connector-curvature="0"
         id="path400"
         style="fill:#c79c9c;fill-opacity:1;fill-rule:nonzero;stroke:#000000;stroke-width:0.0926725;stroke-linecap:butt;stroke-linejoin:round;stroke-miterlimit:10;stroke-dasharray:none;stroke-opacity:1"
         d="m 20.16,26.98 6.66,0 0,6.66 -6.66,0 0,-6.66 z" /></g><g
       transform="matrix(1,0,0,-1,0,93.353439)"
       id="g402"><path
         inkscape:connector-curvature="0"
         id="path404"
         style="fill:#974747;fill-opacity:1;fill-rule:nonzero;stroke:#000000;stroke-width:0.0926725;stroke-linecap:butt;stroke-linejoin:round;stroke-miterlimit:10;stroke-dasharray:none;stroke-opacity:1"
         d="m 42.113,31.98 6.664,0 0,6.664 -6.664,0 0,-6.664 z" /></g><g
       transform="matrix(1,0,0,-1,0,93.353439)"
       id="g406"><path
         inkscape:connector-curvature="0"
         id="path408"
         style="fill:#8f3d3d;fill-opacity:1;fill-rule:nonzero;stroke:#000000;stroke-width:0.0926725;stroke-linecap:butt;stroke-linejoin:round;stroke-miterlimit:10;stroke-dasharray:none;stroke-opacity:1"
         d="m 70.617,49.488 6.66,0 0,6.664 -6.66,0 0,-6.664 z" /></g><g
       transform="matrix(1,0,0,-1,0,93.353439)"
       id="g410"><path
         inkscape:connector-curvature="0"
         id="path412"
         style="fill:#8c3535;fill-opacity:1;fill-rule:nonzero;stroke:#000000;stroke-width:0.0926725;stroke-linecap:butt;stroke-linejoin:round;stroke-miterlimit:10;stroke-dasharray:none;stroke-opacity:1"
         d="m 19.945,58.699 6.66,0 0,6.66 -6.66,0 0,-6.66 z" /></g><g
       transform="matrix(1,0,0,-1,0,93.353439)"
       id="g414"><path
         inkscape:connector-curvature="0"
         id="path416"
         style="fill:#872e2e;fill-opacity:1;fill-rule:nonzero;stroke:#000000;stroke-width:0.0926725;stroke-linecap:butt;stroke-linejoin:round;stroke-miterlimit:10;stroke-dasharray:none;stroke-opacity:1"
         d="m 78.379,52.863 6.66,0 0,6.66 -6.66,0 0,-6.66 z" /></g><g
       transform="matrix(1,0,0,-1,0,93.353439)"
       id="g418"><path
         inkscape:connector-curvature="0"
         id="path420"
         style="fill:#852626;fill-opacity:1;fill-rule:nonzero;stroke:#000000;stroke-width:0.0926725;stroke-linecap:butt;stroke-linejoin:round;stroke-miterlimit:10;stroke-dasharray:none;stroke-opacity:1"
         d="m 7.211,33.594 6.66,0 0,6.66 -6.66,0 0,-6.66 z" /></g><g
       transform="matrix(1,0,0,-1,0,93.353439)"
       id="g422"><path
         inkscape:connector-curvature="0"
         id="path424"
         style="fill:#822323;fill-opacity:1;fill-rule:nonzero;stroke:#000000;stroke-width:0.0926725;stroke-linecap:butt;stroke-linejoin:round;stroke-miterlimit:10;stroke-dasharray:none;stroke-opacity:1"
         d="m 82.711,59.863 6.66,0 0,6.66 -6.66,0 0,-6.66 z" /></g><g
       transform="matrix(1,0,0,-1,0,93.353439)"
       id="g426"><path
         inkscape:connector-curvature="0"
         id="path428"
         style="fill:#822323;fill-opacity:1;fill-rule:nonzero;stroke:#000000;stroke-width:0.0926725;stroke-linecap:butt;stroke-linejoin:round;stroke-miterlimit:10;stroke-dasharray:none;stroke-opacity:1"
         d="m 3.238,45.828 6.66,0 0,6.66 -6.66,0 0,-6.66 z" /></g></g></svg>