<?xml version="1.0" encoding="UTF-8" standalone="no"?>
<!-- Created with Inkscape (http://www.inkscape.org/) -->

<svg
   xmlns:dc="http://purl.org/dc/elements/1.1/"
   xmlns:cc="http://creativecommons.org/ns#"
   xmlns:rdf="http://www.w3.org/1999/02/22-rdf-syntax-ns#"
   xmlns:svg="http://www.w3.org/2000/svg"
   xmlns="http://www.w3.org/2000/svg"
   xmlns:sodipodi="http://sodipodi.sourceforge.net/DTD/sodipodi-0.dtd"
   xmlns:inkscape="http://www.inkscape.org/namespaces/inkscape"
   id="svg2"
   version="1.1"
   inkscape:version="0.91 r13725"
   xml:space="preserve"
   width="304.27756"
   height="133.84657"
   viewBox="0 0 304.27755 133.84657"
   sodipodi:docname="least_stable_explanation.svg"><metadata
     id="metadata8"><rdf:RDF><cc:Work
         rdf:about=""><dc:format>image/svg+xml</dc:format><dc:type
           rdf:resource="http://purl.org/dc/dcmitype/StillImage" /><dc:title></dc:title></cc:Work></rdf:RDF></metadata><defs
     id="defs6"><clipPath
       clipPathUnits="userSpaceOnUse"
       id="clipPath1372"><path
         d="m 133.41,226.599 230.379,0 0,-32.254 -230.379,0 0,32.254 z"
         id="path1374"
         inkscape:connector-curvature="0" /></clipPath><clipPath
       clipPathUnits="userSpaceOnUse"
       id="clipPath1382"><path
         d="m 133,193 232,0 0,35 -232,0 0,-35 z"
         id="path1384"
         inkscape:connector-curvature="0" /></clipPath><clipPath
       clipPathUnits="userSpaceOnUse"
       id="clipPath1392"><path
         d="m 133.07,227.379 231.676,0 0,-34.254 -231.676,0 0,34.254 z"
         id="path1394"
         inkscape:connector-curvature="0" /></clipPath><clipPath
       clipPathUnits="userSpaceOnUse"
       id="clipPath1402"><path
         d="m 133,193 232,0 0,35 -232,0 0,-35 z"
         id="path1404"
         inkscape:connector-curvature="0" /></clipPath><clipPath
       clipPathUnits="userSpaceOnUse"
       id="clipPath1412"><path
         d="m 133.41,227.371 231.016,0 0,-33.523 -231.016,0 0,33.523 z"
         id="path1414"
         inkscape:connector-curvature="0" /></clipPath><clipPath
       clipPathUnits="userSpaceOnUse"
       id="clipPath1422"><path
         d="m 133,193 232,0 0,35 -232,0 0,-35 z"
         id="path1424"
         inkscape:connector-curvature="0" /></clipPath><clipPath
       clipPathUnits="userSpaceOnUse"
       id="clipPath1432"><path
         d="m 133.07,227.379 231.676,0 0,-33.523 -231.676,0 0,33.523 z"
         id="path1434"
         inkscape:connector-curvature="0" /></clipPath><clipPath
       clipPathUnits="userSpaceOnUse"
       id="clipPath1442"><path
         d="m 133,194 232,0 0,34 -232,0 0,-34 z"
         id="path1444"
         inkscape:connector-curvature="0" /></clipPath><clipPath
       clipPathUnits="userSpaceOnUse"
       id="clipPath1452"><path
         d="m 133.41,227.371 231.016,0 0,-32.914 -231.016,0 0,32.914 z"
         id="path1454"
         inkscape:connector-curvature="0" /></clipPath><clipPath
       clipPathUnits="userSpaceOnUse"
       id="clipPath1462"><path
         d="m 133,193 232,0 0,35 -232,0 0,-35 z"
         id="path1464"
         inkscape:connector-curvature="0" /></clipPath><clipPath
       clipPathUnits="userSpaceOnUse"
       id="clipPath1472"><path
         d="m 133.07,227.379 231.676,0 0,-33.523 -231.676,0 0,33.523 z"
         id="path1474"
         inkscape:connector-curvature="0" /></clipPath><clipPath
       clipPathUnits="userSpaceOnUse"
       id="clipPath1482"><path
         d="m 133,194 232,0 0,34 -232,0 0,-34 z"
         id="path1484"
         inkscape:connector-curvature="0" /></clipPath><clipPath
       clipPathUnits="userSpaceOnUse"
       id="clipPath1492"><path
         d="m 133.41,227.371 231.016,0 0,-32.793 -231.016,0 0,32.793 z"
         id="path1494"
         inkscape:connector-curvature="0" /></clipPath><clipPath
       clipPathUnits="userSpaceOnUse"
       id="clipPath1502"><path
         d="m 132,194 233,0 0,35 -233,0 0,-35 z"
         id="path1504"
         inkscape:connector-curvature="0" /></clipPath><clipPath
       clipPathUnits="userSpaceOnUse"
       id="clipPath1512"><path
         d="m 132.41,228.105 232.336,0 0,-33.523 -232.336,0 0,33.523 z"
         id="path1514"
         inkscape:connector-curvature="0" /></clipPath><clipPath
       clipPathUnits="userSpaceOnUse"
       id="clipPath1522"><path
         d="m 133,194 232,0 0,34 -232,0 0,-34 z"
         id="path1524"
         inkscape:connector-curvature="0" /></clipPath><clipPath
       clipPathUnits="userSpaceOnUse"
       id="clipPath1668"><path
         d="m 129.453,115.583 224.934,0 0,-88.453 -224.934,0 0,88.453 z"
         id="path1670"
         inkscape:connector-curvature="0" /></clipPath><clipPath
       clipPathUnits="userSpaceOnUse"
       id="clipPath1678"><path
         d="m 129,27 226,0 0,90 -226,0 0,-90 z"
         id="path1680"
         inkscape:connector-curvature="0" /></clipPath><clipPath
       clipPathUnits="userSpaceOnUse"
       id="clipPath1720"><path
         d="m 134.023,319.099 229.926,0 0,-72.375 -229.926,0 0,72.375 z"
         id="path1722"
         inkscape:connector-curvature="0" /></clipPath><clipPath
       clipPathUnits="userSpaceOnUse"
       id="clipPath1730"><path
         d="m 133,246 232,0 0,75 -232,0 0,-75 z"
         id="path1732"
         inkscape:connector-curvature="0" /></clipPath><clipPath
       clipPathUnits="userSpaceOnUse"
       id="clipPath1740"><path
         d="m 133.188,320.426 231.75,0 0,-73.496 -231.75,0 0,73.496 z"
         id="path1742"
         inkscape:connector-curvature="0" /></clipPath><clipPath
       clipPathUnits="userSpaceOnUse"
       id="clipPath1750"><path
         d="m 133,247 232,0 0,74 -232,0 0,-74 z"
         id="path1752"
         inkscape:connector-curvature="0" /></clipPath></defs><sodipodi:namedview
     pagecolor="#ffffff"
     bordercolor="#666666"
     borderopacity="1"
     objecttolerance="10"
     gridtolerance="10"
     guidetolerance="10"
     inkscape:pageopacity="0"
     inkscape:pageshadow="2"
     inkscape:window-width="1920"
     inkscape:window-height="1026"
     id="namedview4"
     showgrid="false"
     fit-margin-top="0"
     fit-margin-left="0"
     fit-margin-right="0"
     fit-margin-bottom="0"
     inkscape:zoom="1.8388452"
     inkscape:cx="155.56037"
     inkscape:cy="-3.6735928"
     inkscape:window-x="0"
     inkscape:window-y="0"
     inkscape:window-maximized="1"
     inkscape:current-layer="g10" /><g
     id="g10"
     inkscape:groupmode="layer"
     inkscape:label="interfig-9"
     transform="matrix(1.25,0,0,-1.25,-139.15892,144.93148)"><g
       id="g1686"
       transform="translate(0,331.228)"
       style="stroke:#4592d1;stroke-opacity:1"><path
         d="m 139.676,-300.078 2.043,1.91 2.047,1.867 2.043,1.836 2.043,1.793 2.046,1.762 2.043,1.711 2.047,1.679 2.043,1.645 2.043,1.598 2.047,1.562 2.043,1.524 2.051,1.492 2.047,1.445 2.043,1.41 2.043,1.367 2.047,1.332 2.043,1.293 2.046,1.254 2.043,1.219 2.043,1.18 2.047,1.136 2.043,1.094 2.047,1.067 2.043,1.019 2.043,0.988 2.047,0.942 2.043,0.906 2.043,0.875 2.047,0.824 2.043,0.793 2.047,0.754 2.05,0.715 2.043,0.672 2.047,0.637 2.043,0.601 2.043,0.563 2.047,0.515 2.043,0.485 2.043,0.441 2.047,0.406 2.043,0.368 2.047,0.328 2.043,0.293 2.043,0.25 2.046,0.211 2.043,0.175 2.047,0.137 2.043,0.094 2.043,0.055 2.047,0.019 2.051,-0.019 2.043,-0.055 2.047,-0.094 2.043,-0.137 2.043,-0.175 2.047,-0.211 2.042,-0.25 2.047,-0.293 2.043,-0.328 2.043,-0.368 2.047,-0.406 2.043,-0.441 2.047,-0.485 2.043,-0.515 2.043,-0.563 2.047,-0.601 2.043,-0.637 2.043,-0.672 2.047,-0.715 2.043,-0.754 2.05,-0.793 2.047,-0.824 2.043,-0.875 2.047,-0.906 2.043,-0.942 2.043,-0.988 2.047,-1.019 2.043,-1.067 2.043,-1.094 2.047,-1.136 2.043,-1.18 2.047,-1.219 2.043,-1.254 2.043,-1.293 2.046,-1.332 2.043,-1.367 2.047,-1.41 2.043,-1.445 2.043,-1.492 2.047,-1.524 2.051,-1.562 2.043,-1.598 2.047,-1.645 2.043,-1.679 2.043,-1.711 2.046,-1.762 2.043,-1.793 2.047,-1.836 2.043,-1.867 2.043,-1.91"
         style="fill:none;stroke:#4592d1;stroke-width:1.157637;stroke-linecap:butt;stroke-linejoin:round;stroke-miterlimit:1;stroke-dasharray:none;stroke-opacity:1"
         id="path1688"
         inkscape:connector-curvature="0" /></g><g
       id="g1690"
       transform="translate(0,331.228)"
       style="stroke:#fed58c;stroke-opacity:1"><path
         d="m 139.676,-300.078 2.043,0.094 2.047,0.273 2.043,0.445 2.043,0.61 2.046,0.75 2.043,0.894 2.047,1.024 2.043,1.136 2.043,1.247 2.047,1.339 2.043,1.434 2.051,1.512 2.047,1.582 2.043,1.648 2.043,1.699 2.047,1.739 2.043,1.781 2.046,1.812 2.043,1.829 2.043,1.847 2.047,1.856 2.043,1.863 2.047,1.848 2.043,1.839 2.043,1.821 2.047,1.797 2.043,1.765 2.043,1.727 2.047,1.691 2.043,1.645 2.047,1.597 2.05,1.539 2.043,1.481 2.047,1.422 2.043,1.355 2.043,1.278 2.047,1.207 2.043,1.129 2.043,1.05 2.047,0.969 2.043,0.887 2.047,0.797 2.043,0.707 2.043,0.613 2.046,0.527 2.043,0.43 2.047,0.336 2.043,0.238 2.043,0.149 2.047,0.047 2.051,-0.047 2.043,-0.149 2.047,-0.238 2.043,-0.336 2.043,-0.43 2.047,-0.527 2.042,-0.613 2.047,-0.707 2.043,-0.797 2.043,-0.887 2.047,-0.969 2.043,-1.05 2.047,-1.129 2.043,-1.207 2.043,-1.278 2.047,-1.355 2.043,-1.422 2.043,-1.481 2.047,-1.539 2.043,-1.597 2.05,-1.645 2.047,-1.691 2.043,-1.727 2.047,-1.765 2.043,-1.797 2.043,-1.821 2.047,-1.839 2.043,-1.848 2.043,-1.863 2.047,-1.856 2.043,-1.847 2.047,-1.829 2.043,-1.812 2.043,-1.781 2.046,-1.739 2.043,-1.699 2.047,-1.648 2.043,-1.582 2.043,-1.512 2.047,-1.434 2.051,-1.339 2.043,-1.247 2.047,-1.136 2.043,-1.024 2.043,-0.894 2.046,-0.75 2.043,-0.61 2.047,-0.445 2.043,-0.273 2.043,-0.094"
         style="fill:none;stroke:#fed58c;stroke-width:1.157637;stroke-linecap:butt;stroke-linejoin:round;stroke-miterlimit:1;stroke-dasharray:none;stroke-opacity:1"
         id="path1692"
         inkscape:connector-curvature="0" /></g><g
       id="g1694"
       transform="translate(0,331.228)"
       style="stroke:#55c2bb;stroke-opacity:1"><path
         d="m 139.676,-300.078 2.043,0 2.047,0.035 2.043,0.074 2.043,0.141 2.046,0.23 2.043,0.325 2.047,0.433 2.043,0.555 2.043,0.68 2.047,0.804 2.043,0.946 2.051,1.078 2.047,1.211 2.043,1.339 2.043,1.477 2.047,1.598 2.043,1.718 2.046,1.829 2.043,1.937 2.043,2.031 2.047,2.117 2.043,2.196 2.047,2.254 2.043,2.316 2.043,2.356 2.047,2.39 2.043,2.41 2.043,2.414 2.047,2.411 2.043,2.398 2.047,2.363 2.05,2.328 2.043,2.274 2.047,2.215 2.043,2.132 2.043,2.059 2.047,1.953 2.043,1.856 2.043,1.742 2.047,1.625 2.043,1.488 2.047,1.352 2.043,1.207 2.043,1.062 2.046,0.906 2.043,0.747 2.047,0.589 2.043,0.418 2.043,0.25 2.047,0.09 2.051,-0.09 2.043,-0.25 2.047,-0.418 2.043,-0.589 2.043,-0.747 2.047,-0.906 2.042,-1.062 2.047,-1.207 2.043,-1.352 2.043,-1.488 2.047,-1.625 2.043,-1.742 2.047,-1.856 2.043,-1.953 2.043,-2.059 2.047,-2.132 2.043,-2.215 2.043,-2.274 2.047,-2.328 2.043,-2.363 2.05,-2.398 2.047,-2.411 2.043,-2.414 2.047,-2.41 2.043,-2.39 2.043,-2.356 2.047,-2.316 2.043,-2.254 2.043,-2.196 2.047,-2.117 2.043,-2.031 2.047,-1.937 2.043,-1.829 2.043,-1.718 2.046,-1.598 2.043,-1.477 2.047,-1.339 2.043,-1.211 2.043,-1.078 2.047,-0.946 2.051,-0.804 2.043,-0.68 2.047,-0.555 2.043,-0.433 2.043,-0.325 2.046,-0.23 2.043,-0.141 2.047,-0.074 2.043,-0.035 2.043,0"
         style="fill:none;stroke:#55c2bb;stroke-width:1.157637;stroke-linecap:butt;stroke-linejoin:round;stroke-miterlimit:1;stroke-dasharray:none;stroke-opacity:1"
         id="path1696"
         inkscape:connector-curvature="0" /></g><g
       id="g1698"
       transform="translate(0,331.228)"
       style="stroke:#f07973;stroke-opacity:1"><path
         d="m 139.676,-300.078 4.09,0 2.043,0.012 2.043,0.027 2.046,0.062 2.043,0.102 2.047,0.156 2.043,0.231 2.043,0.316 2.047,0.422 2.043,0.535 2.051,0.656 2.047,0.789 2.043,0.95 2.043,1.097 2.047,1.25 2.043,1.422 2.046,1.586 2.043,1.754 2.043,1.91 2.047,2.071 2.043,2.218 2.047,2.364 2.043,2.5 2.043,2.613 2.047,2.719 2.043,2.816 2.043,2.891 2.047,2.945 2.043,2.992 2.047,3.008 2.05,3.012 2.043,3 2.047,2.949 2.043,2.898 2.043,2.825 2.047,2.726 2.043,2.606 2.043,2.472 2.047,2.321 2.043,2.16 2.047,1.972 2.043,1.774 2.043,1.562 2.046,1.34 2.043,1.109 2.047,0.875 2.043,0.629 2.043,0.379 2.047,0.129 2.051,-0.129 2.043,-0.379 2.047,-0.629 2.043,-0.875 2.043,-1.109 2.047,-1.34 2.042,-1.562 2.047,-1.774 2.043,-1.972 2.043,-2.16 2.047,-2.321 2.043,-2.472 2.047,-2.606 2.043,-2.726 2.043,-2.825 2.047,-2.898 2.043,-2.949 2.043,-3 2.047,-3.012 2.043,-3.008 2.05,-2.992 2.047,-2.945 2.043,-2.891 2.047,-2.816 2.043,-2.719 2.043,-2.613 2.047,-2.5 2.043,-2.364 2.043,-2.218 2.047,-2.071 2.043,-1.91 2.047,-1.754 2.043,-1.586 2.043,-1.422 2.046,-1.25 2.043,-1.097 2.047,-0.95 2.043,-0.789 2.043,-0.656 2.047,-0.535 2.051,-0.422 2.043,-0.316 2.047,-0.231 2.043,-0.156 2.043,-0.102 2.046,-0.062 2.043,-0.027 2.047,-0.012 4.086,0"
         style="fill:none;stroke:#f07973;stroke-width:1.157637;stroke-linecap:butt;stroke-linejoin:round;stroke-miterlimit:1;stroke-dasharray:none;stroke-opacity:1"
         id="path1700"
         inkscape:connector-curvature="0" /></g><g
       id="g1702"
       transform="translate(0,331.228)"
       style="stroke:#f4e6d4;stroke-opacity:1"><path
         d="m 129.453,-215.645 224.934,0 0,-88.453 -224.934,0 0,88.453 z"
         style="fill:none;stroke:#f4e6d4;stroke-width:0.72436899;stroke-linecap:round;stroke-linejoin:round;stroke-miterlimit:10;stroke-dasharray:none;stroke-opacity:1"
         id="path1704"
         inkscape:connector-curvature="0" /></g><text
       xml:space="preserve"
       style="font-style:normal;font-variant:normal;font-weight:normal;font-stretch:normal;font-size:32px;line-height:125%;font-family:'Noto Mono';-inkscape-font-specification:'Noto Mono, Normal';text-align:start;letter-spacing:0px;word-spacing:0px;writing-mode:lr-tb;text-anchor:start;fill:#f4e6d4;fill-opacity:1;stroke:none;stroke-width:1px;stroke-linecap:butt;stroke-linejoin:miter;stroke-opacity:1"
       x="189.77849"
       y="-12.724673"
       id="text4196"
       sodipodi:linespacing="125%"
       transform="scale(1,-1)"><tspan
         sodipodi:role="line"
         id="tspan4198"
         x="189.77849"
         y="-12.724673"
         style="font-style:normal;font-variant:normal;font-weight:normal;font-stretch:normal;font-size:16px;line-height:125%;font-family:Alegreya;-inkscape-font-specification:'Alegreya, Normal';text-align:start;writing-mode:lr-tb;text-anchor:start;fill:#f4e6d4;fill-opacity:1;stroke:none;stroke-opacity:1">Resource Quality</tspan></text>
<text
       xml:space="preserve"
       style="font-style:normal;font-variant:normal;font-weight:normal;font-stretch:normal;font-size:32px;line-height:125%;font-family:'Noto Mono';-inkscape-font-specification:'Noto Mono, Normal';text-align:start;letter-spacing:0px;word-spacing:0px;writing-mode:lr-tb;text-anchor:start;fill:#f4e6d4;fill-opacity:1;stroke:none;stroke-width:1px;stroke-linecap:butt;stroke-linejoin:miter;stroke-opacity:1"
       x="23.851513"
       y="122.71914"
       id="text4200"
       sodipodi:linespacing="125%"
       transform="matrix(0,1,1,0,0,0)"><tspan
         sodipodi:role="line"
         id="tspan4202"
         x="23.851513"
         y="122.71914"
         style="font-style:normal;font-variant:normal;font-weight:normal;font-stretch:normal;font-size:16px;line-height:125%;font-family:Alegreya;-inkscape-font-specification:'Alegreya, Normal';text-align:start;writing-mode:lr-tb;text-anchor:start;fill:#f4e6d4;fill-opacity:1;stroke:none;stroke-opacity:1">Consumption</tspan></text>
</g></svg>