<?xml version="1.0" encoding="UTF-8" standalone="no"?>
<!-- Created with Inkscape (http://www.inkscape.org/) -->

<svg
   xmlns:dc="http://purl.org/dc/elements/1.1/"
   xmlns:cc="http://creativecommons.org/ns#"
   xmlns:rdf="http://www.w3.org/1999/02/22-rdf-syntax-ns#"
   xmlns:svg="http://www.w3.org/2000/svg"
   xmlns="http://www.w3.org/2000/svg"
   xmlns:sodipodi="http://sodipodi.sourceforge.net/DTD/sodipodi-0.dtd"
   xmlns:inkscape="http://www.inkscape.org/namespaces/inkscape"
   id="svg2"
   version="1.1"
   inkscape:version="0.91 r13725"
   xml:space="preserve"
   width="225"
   height="225"
   viewBox="0 0 225 225"
   sodipodi:docname="LV_2spp_stab_feas.svg"
   inkscape:export-filename="/home/mjsmith/Academic/Dissertation/defense/DissertationDefense_05.2018/Images/intrainterfigs/LV_2spp_stab_feas.png"
   inkscape:export-xdpi="300"
   inkscape:export-ydpi="300"><metadata
     id="metadata8"><rdf:RDF><cc:Work
         rdf:about=""><dc:format>image/svg+xml</dc:format><dc:type
           rdf:resource="http://purl.org/dc/dcmitype/StillImage" /><dc:title></dc:title></cc:Work></rdf:RDF></metadata><defs
     id="defs6"><clipPath
       clipPathUnits="userSpaceOnUse"
       id="clipPath32"><path
         d="m 44,37.28 121.6,0 0,128.32 -121.6,0 0,-128.32 z"
         id="path34"
         inkscape:connector-curvature="0" /></clipPath></defs><sodipodi:namedview
     pagecolor="#ffffff"
     bordercolor="#666666"
     borderopacity="1"
     objecttolerance="10"
     gridtolerance="10"
     guidetolerance="10"
     inkscape:pageopacity="0"
     inkscape:pageshadow="2"
     inkscape:window-width="1920"
     inkscape:window-height="1026"
     id="namedview4"
     showgrid="false"
     inkscape:zoom="3.5154167"
     inkscape:cx="114.49123"
     inkscape:cy="112.5"
     inkscape:window-x="0"
     inkscape:window-y="0"
     inkscape:window-maximized="1"
     inkscape:current-layer="g10" /><g
     id="g10"
     inkscape:groupmode="layer"
     inkscape:label="LV_2spp_stab_feas"
     transform="matrix(1.25,0,0,-1.25,0,225)"><g
       id="g12" /><g
       id="g14" /><g
       id="g16" /><g
       id="g22" /><g
       id="g24" /><g
       id="g26" /><path
       d="m 44,55.29 121.6,0"
       style="fill:none;stroke:#fafafa;stroke-width:0.4;stroke-linecap:butt;stroke-linejoin:round;stroke-miterlimit:10;stroke-dasharray:none;stroke-opacity:1"
       id="path38"
       inkscape:connector-curvature="0" /><path
       d="m 44,79.64 121.6,0"
       style="fill:none;stroke:#fafafa;stroke-width:0.4;stroke-linecap:butt;stroke-linejoin:round;stroke-miterlimit:10;stroke-dasharray:none;stroke-opacity:1"
       id="path40"
       inkscape:connector-curvature="0" /><path
       d="m 44,103.99 121.6,0"
       style="fill:none;stroke:#fafafa;stroke-width:0.4;stroke-linecap:butt;stroke-linejoin:round;stroke-miterlimit:10;stroke-dasharray:none;stroke-opacity:1"
       id="path42"
       inkscape:connector-curvature="0" /><path
       d="m 44,128.34 121.6,0"
       style="fill:none;stroke:#fafafa;stroke-width:0.4;stroke-linecap:butt;stroke-linejoin:round;stroke-miterlimit:10;stroke-dasharray:none;stroke-opacity:1"
       id="path44"
       inkscape:connector-curvature="0" /><path
       d="m 44,152.69 121.6,0"
       style="fill:none;stroke:#fafafa;stroke-width:0.4;stroke-linecap:butt;stroke-linejoin:round;stroke-miterlimit:10;stroke-dasharray:none;stroke-opacity:1"
       id="path46"
       inkscape:connector-curvature="0" /><path
       d="m 63.35,37.28 0,128.32"
       style="fill:none;stroke:#fafafa;stroke-width:0.4;stroke-linecap:butt;stroke-linejoin:round;stroke-miterlimit:10;stroke-dasharray:none;stroke-opacity:1"
       id="path48"
       inkscape:connector-curvature="0" /><path
       d="m 90.98,37.28 0,128.32"
       style="fill:none;stroke:#fafafa;stroke-width:0.4;stroke-linecap:butt;stroke-linejoin:round;stroke-miterlimit:10;stroke-dasharray:none;stroke-opacity:1"
       id="path50"
       inkscape:connector-curvature="0" /><path
       d="m 118.62,37.28 0,128.32"
       style="fill:none;stroke:#fafafa;stroke-width:0.4;stroke-linecap:butt;stroke-linejoin:round;stroke-miterlimit:10;stroke-dasharray:none;stroke-opacity:1"
       id="path52"
       inkscape:connector-curvature="0" /><path
       d="m 146.25,37.28 0,128.32"
       style="fill:none;stroke:#fafafa;stroke-width:0.4;stroke-linecap:butt;stroke-linejoin:round;stroke-miterlimit:10;stroke-dasharray:none;stroke-opacity:1"
       id="path54"
       inkscape:connector-curvature="0" /><path
       d="m 49.53,82.08 0.55,-3.4 0.56,-2.16 0.55,-1.45 0.55,-1.03 0.55,-0.75 0.56,-0.57 0.55,-0.45 0.55,-0.37 0.55,-0.3 0.56,-0.26 0.55,-0.24 0.55,-0.21 0.56,-0.2 0.55,-0.18 0.55,-0.18 0.55,-0.18 0.56,-0.16 0.55,-0.17 0.55,-0.16 0.55,-0.16 0.56,-0.16 0.55,-0.16 0.55,-0.15 0.55,-0.16 0.56,-0.15 0.55,-0.15 0.55,-0.15 0.56,-0.14 0.55,-0.15 0.55,-0.14 0.55,-0.14 0.56,-0.13 0.55,-0.14 0.55,-0.13 0.55,-0.13 0.56,-0.13 0.55,-0.12 0.55,-0.12 0.56,-0.12 0.55,-0.12 0.55,-0.11 0.55,-0.11 0.56,-0.11 0.55,-0.11 0.55,-0.1 0.55,-0.1 0.56,-0.1 0.55,-0.1 0.55,-0.09 0.56,-0.09 0.55,-0.09 0.55,-0.09 0.55,-0.09 0.56,-0.08 0.55,-0.08 0.55,-0.08 0.55,-0.07 0.56,-0.08 0.55,-0.07 0.55,-0.07 0.56,-0.07 0.55,-0.06 0.55,-0.07 0.55,-0.06 0.56,-0.06 0.55,-0.06 0.55,-0.05 0.55,-0.06 0.56,-0.05 0.55,-0.06 0.55,-0.05 0.56,-0.05 0.55,-0.04 0.55,-0.05 0.55,-0.05 0.56,-0.04 0.55,-0.04 0.55,-0.04 0.55,-0.04 0.56,-0.04 0.55,-0.04 0.55,-0.04 0.56,-0.03 0.55,-0.04 0.55,-0.03 0.55,-0.03 0.56,-0.03 0.55,-0.03 0.55,-0.03 0.55,-0.03 0.56,-0.03 0.55,-0.03 0.55,-0.02 0.56,-0.03 0.55,-0.02 0.55,-0.03 0.55,-0.02 0.56,-0.02 0.55,-0.02 0.55,-0.03 0.55,-0.02 0.56,-0.02 0.55,-0.02 0.55,-0.01 0.55,-0.02 0.56,-0.02 0.55,-0.02 0.55,-0.01 0.56,-0.02 0.55,-0.02 0.55,-0.01 0.55,-0.02 0.56,-0.01 0.55,-0.01 0.55,-0.02 0.55,-0.01 0.56,-0.01 0.55,-0.01 0.55,-0.02 0.56,-0.01 0.55,-0.01 0.55,-0.01 0.55,-0.01 0.56,-0.01 0.55,-0.01 0.55,-0.01 0.55,-0.01 0.56,-0.01 0.55,-0.01 0.55,0 0.56,-0.01 0.55,-0.01 0.55,-0.01 0.55,-0.01 0.56,0 0.55,-0.01 0.55,-0.01 0.55,0 0.56,-0.01 0.55,-0.01 0.55,0 0.56,-0.01 0.55,0 0.55,-0.01 0.55,0 0.56,-0.01 0.55,0 0.55,-0.01 0.55,0 0.56,-0.01 0.55,0 0.55,-0.01 0.56,0 0.55,-0.01 0.55,0 0.55,0 0.56,-0.01 0.55,0 0.55,0 0.55,-0.01 0.56,0 0.55,0 0.55,-0.01 0.56,0 0.55,0 0.55,-0.01 0.55,0 0.56,0 0.55,0 0.55,-0.01 0.55,0 0.56,0 0.55,0 0.55,0 0.55,-0.01 0.56,0 0.55,0 0.55,0 0.56,0 0.55,-0.01 0.55,0 0.55,0 0.56,0 0.55,0 0.55,0 0.55,-0.01 0.56,0 0.55,0 0.55,0 0.56,0 0.55,0 0.55,0 0.55,-0.01 0.56,0 0.55,0 0.55,0 0.55,0 0.56,0 0.55,0 0.55,0"
       style="fill:none;stroke:#4592d1;stroke-width:1.05999994;stroke-linecap:butt;stroke-linejoin:round;stroke-miterlimit:1;stroke-dasharray:none;stroke-opacity:1"
       id="path78"
       inkscape:connector-curvature="0" /><path
       d="m 49.53,91.82 0.55,-4.16 0.56,-2.03 0.55,-0.85 0.55,-0.14 0.55,0.32 0.56,0.64 0.55,0.86 0.55,1.03 0.55,1.14 0.56,1.23 0.55,1.3 0.55,1.34 0.56,1.37 0.55,1.4 0.55,1.41 0.55,1.42 0.56,1.43 0.55,1.42 0.55,1.41 0.55,1.41 0.56,1.39 0.55,1.38 0.55,1.36 0.55,1.35 0.56,1.33 0.55,1.3 0.55,1.29 0.56,1.26 0.55,1.24 0.55,1.22 0.55,1.19 0.56,1.17 0.55,1.14 0.55,1.12 0.55,1.1 0.56,1.07 0.55,1.04 0.55,1.02 0.56,0.99 0.55,0.97 0.55,0.94 0.55,0.92 0.56,0.9 0.55,0.87 0.55,0.85 0.55,0.83 0.56,0.8 0.55,0.78 0.55,0.76 0.56,0.74 0.55,0.72 0.55,0.69 0.55,0.68 0.56,0.66 0.55,0.64 0.55,0.62 0.55,0.6 0.56,0.58 0.55,0.57 0.55,0.55 0.56,0.54 0.55,0.52 0.55,0.5 0.55,0.49 0.56,0.47 0.55,0.46 0.55,0.44 0.55,0.44 0.56,0.42 0.55,0.4 0.55,0.4 0.56,0.38 0.55,0.37 0.55,0.36 0.55,0.35 0.56,0.33 0.55,0.33 0.55,0.32 0.55,0.31 0.56,0.29 0.55,0.29 0.55,0.28 0.56,0.28 0.55,0.26 0.55,0.26 0.55,0.24 0.56,0.24 0.55,0.24 0.55,0.22 0.55,0.22 0.56,0.21 0.55,0.21 0.55,0.2 0.56,0.19 0.55,0.19 0.55,0.18 0.55,0.18 0.56,0.17 0.55,0.16 0.55,0.16 0.55,0.16 0.56,0.15 0.55,0.15 0.55,0.14 0.55,0.13 0.56,0.14 0.55,0.13 0.55,0.12 0.56,0.12 0.55,0.12 0.55,0.11 0.55,0.11 0.56,0.11 0.55,0.11 0.55,0.1 0.55,0.09 0.56,0.1 0.55,0.09 0.55,0.09 0.56,0.09 0.55,0.08 0.55,0.08 0.55,0.08 0.56,0.07 0.55,0.08 0.55,0.07 0.55,0.07 0.56,0.07 0.55,0.06 0.55,0.07 0.56,0.06 0.55,0.06 0.55,0.05 0.55,0.06 0.56,0.05 0.55,0.06 0.55,0.05 0.55,0.05 0.56,0.04 0.55,0.05 0.55,0.05 0.56,0.04 0.55,0.04 0.55,0.04 0.55,0.04 0.56,0.04 0.55,0.04 0.55,0.03 0.55,0.04 0.56,0.03 0.55,0.04 0.55,0.03 0.56,0.03 0.55,0.03 0.55,0.03 0.55,0.03 0.56,0.02 0.55,0.03 0.55,0.03 0.55,0.02 0.56,0.03 0.55,0.02 0.55,0.02 0.56,0.02 0.55,0.03 0.55,0.02 0.55,0.02 0.56,0.02 0.55,0.02 0.55,0.01 0.55,0.02 0.56,0.02 0.55,0.02 0.55,0.01 0.55,0.02 0.56,0.01 0.55,0.02 0.55,0.01 0.56,0.02 0.55,0.01 0.55,0.01 0.55,0.02 0.56,0.01 0.55,0.01 0.55,0.01 0.55,0.01 0.56,0.01 0.55,0.01 0.55,0.01 0.56,0.01 0.55,0.01 0.55,0.01 0.55,0.01 0.56,0.01 0.55,0.01 0.55,0.01 0.55,0 0.56,0.01 0.55,0.01 0.55,0.01"
       style="fill:none;stroke:#f07973;stroke-width:1.05999994;stroke-linecap:butt;stroke-linejoin:round;stroke-miterlimit:1;stroke-dasharray:none;stroke-opacity:1"
       id="path80"
       inkscape:connector-curvature="0" /><g
       id="g84" /><g
       id="g86" /><g
       id="g88"
       style="fill:#f4e6d4;fill-opacity:1;stroke:none;stroke-opacity:1"><text
         transform="matrix(1,0,0,-1,23.02,39.53)"
         style="font-variant:normal;font-weight:normal;font-size:10px;font-family:Helvetica;-inkscape-font-specification:Helvetica;writing-mode:lr-tb;fill:#f4e6d4;fill-opacity:1;fill-rule:nonzero;stroke:none;stroke-opacity:1"
         id="text90"><tspan
           x="0 5.5599999 8.3400002"
           y="0"
           sodipodi:role="line"
           id="tspan92">0.0</tspan></text>
<text
         transform="matrix(1,0,0,-1,23.02,63.88)"
         style="font-variant:normal;font-weight:normal;font-size:10px;font-family:Helvetica;-inkscape-font-specification:Helvetica;writing-mode:lr-tb;fill:#f4e6d4;fill-opacity:1;fill-rule:nonzero;stroke:none;stroke-opacity:1"
         id="text94"><tspan
           x="0 5.5599999 8.3400002"
           y="0"
           sodipodi:role="line"
           id="tspan96">0.5</tspan></text>
<text
         transform="matrix(1,0,0,-1,23.02,88.23)"
         style="font-variant:normal;font-weight:normal;font-size:10px;font-family:Helvetica;-inkscape-font-specification:Helvetica;writing-mode:lr-tb;fill:#f4e6d4;fill-opacity:1;fill-rule:nonzero;stroke:none;stroke-opacity:1"
         id="text98"><tspan
           x="0 5.5599999 8.3400002"
           y="0"
           sodipodi:role="line"
           id="tspan100">1.0</tspan></text>
<text
         transform="matrix(1,0,0,-1,23.02,112.58)"
         style="font-variant:normal;font-weight:normal;font-size:10px;font-family:Helvetica;-inkscape-font-specification:Helvetica;writing-mode:lr-tb;fill:#f4e6d4;fill-opacity:1;fill-rule:nonzero;stroke:none;stroke-opacity:1"
         id="text102"><tspan
           x="0 5.5599999 8.3400002"
           y="0"
           sodipodi:role="line"
           id="tspan104">1.5</tspan></text>
<text
         transform="matrix(1,0,0,-1,23.02,136.93)"
         style="font-variant:normal;font-weight:normal;font-size:10px;font-family:Helvetica;-inkscape-font-specification:Helvetica;writing-mode:lr-tb;fill:#f4e6d4;fill-opacity:1;fill-rule:nonzero;stroke:none;stroke-opacity:1"
         id="text106"><tspan
           x="0 5.5599999 8.3400002"
           y="0"
           sodipodi:role="line"
           id="tspan108">2.0</tspan></text>
<text
         transform="matrix(1,0,0,-1,23.02,161.28)"
         style="font-variant:normal;font-weight:normal;font-size:10px;font-family:Helvetica;-inkscape-font-specification:Helvetica;writing-mode:lr-tb;fill:#f4e6d4;fill-opacity:1;fill-rule:nonzero;stroke:none;stroke-opacity:1"
         id="text110"><tspan
           x="0 5.5599999 8.3400002"
           y="0"
           sodipodi:role="line"
           id="tspan112">2.5</tspan></text>
</g><g
       id="g114" /><g
       id="g116"
       style="fill:#f4e6d4;fill-opacity:1;stroke:#f4e6d4;stroke-opacity:1"
       transform="translate(0,-0.68270712)"
       inkscape:export-filename="/home/mjsmith/Academic/Dissertation/defense/DissertationDefense_05.2018/Images/intrainterfigs/LV_2spp_stab_feas.png"
       inkscape:export-xdpi="300"
       inkscape:export-ydpi="300"><path
         d="m 39.75,43.12 4.25,0"
         style="fill:#f4e6d4;fill-opacity:1;stroke:#f4e6d4;stroke-width:1.05999994;stroke-linecap:butt;stroke-linejoin:round;stroke-miterlimit:10;stroke-dasharray:none;stroke-opacity:1"
         id="path118"
         inkscape:connector-curvature="0" /><path
         d="m 39.75,67.47 4.25,0"
         style="fill:#f4e6d4;fill-opacity:1;stroke:#f4e6d4;stroke-width:1.05999994;stroke-linecap:butt;stroke-linejoin:round;stroke-miterlimit:10;stroke-dasharray:none;stroke-opacity:1"
         id="path120"
         inkscape:connector-curvature="0" /><path
         d="m 39.75,91.82 4.25,0"
         style="fill:#f4e6d4;fill-opacity:1;stroke:#f4e6d4;stroke-width:1.05999994;stroke-linecap:butt;stroke-linejoin:round;stroke-miterlimit:10;stroke-dasharray:none;stroke-opacity:1"
         id="path122"
         inkscape:connector-curvature="0" /><path
         d="m 39.75,116.17 4.25,0"
         style="fill:#f4e6d4;fill-opacity:1;stroke:#f4e6d4;stroke-width:1.05999994;stroke-linecap:butt;stroke-linejoin:round;stroke-miterlimit:10;stroke-dasharray:none;stroke-opacity:1"
         id="path124"
         inkscape:connector-curvature="0" /><path
         d="m 39.75,140.52 4.25,0"
         style="fill:#f4e6d4;fill-opacity:1;stroke:#f4e6d4;stroke-width:1.05999994;stroke-linecap:butt;stroke-linejoin:round;stroke-miterlimit:10;stroke-dasharray:none;stroke-opacity:1"
         id="path126"
         inkscape:connector-curvature="0" /><path
         d="m 39.75,164.87 4.25,0"
         style="fill:#f4e6d4;fill-opacity:1;stroke:#f4e6d4;stroke-width:1.05999994;stroke-linecap:butt;stroke-linejoin:round;stroke-miterlimit:10;stroke-dasharray:none;stroke-opacity:1"
         id="path128"
         inkscape:connector-curvature="0" /></g><g
       id="g130" /><g
       id="g132" /><g
       id="g134" /><g
       id="g136" /><g
       id="g138" /><g
       id="g140"
       style="fill:#f4e6d4;fill-opacity:1;stroke:#f4e6d4;stroke-opacity:1"
       inkscape:export-filename="/home/mjsmith/Academic/Dissertation/defense/DissertationDefense_05.2018/Images/intrainterfigs/LV_2spp_stab_feas.png"
       inkscape:export-xdpi="300"
       inkscape:export-ydpi="300"><path
         d="m 49.53,33.03 0,4.25"
         style="fill:#f4e6d4;stroke:#f4e6d4;stroke-width:1.05999994;stroke-linecap:butt;stroke-linejoin:round;stroke-miterlimit:10;stroke-dasharray:none;stroke-opacity:1;fill-opacity:1"
         id="path142"
         inkscape:connector-curvature="0" /><path
         d="m 77.17,33.03 0,4.25"
         style="fill:#f4e6d4;stroke:#f4e6d4;stroke-width:1.05999994;stroke-linecap:butt;stroke-linejoin:round;stroke-miterlimit:10;stroke-dasharray:none;stroke-opacity:1;fill-opacity:1"
         id="path144"
         inkscape:connector-curvature="0" /><path
         d="m 104.8,33.03 0,4.25"
         style="fill:#f4e6d4;stroke:#f4e6d4;stroke-width:1.05999994;stroke-linecap:butt;stroke-linejoin:round;stroke-miterlimit:10;stroke-dasharray:none;stroke-opacity:1;fill-opacity:1"
         id="path146"
         inkscape:connector-curvature="0" /><path
         d="m 132.44,33.03 0,4.25"
         style="fill:#f4e6d4;stroke:#f4e6d4;stroke-width:1.05999994;stroke-linecap:butt;stroke-linejoin:round;stroke-miterlimit:10;stroke-dasharray:none;stroke-opacity:1;fill-opacity:1"
         id="path148"
         inkscape:connector-curvature="0" /><path
         d="m 160.07,33.03 0,4.25"
         style="fill:#f4e6d4;stroke:#f4e6d4;stroke-width:1.05999994;stroke-linecap:butt;stroke-linejoin:round;stroke-miterlimit:10;stroke-dasharray:none;stroke-opacity:1;fill-opacity:1"
         id="path150"
         inkscape:connector-curvature="0" /></g><g
       id="g152" /><g
       id="g154"
       style="fill:#f4e6d4;fill-opacity:1;stroke:none;stroke-opacity:1"><text
         transform="matrix(1,0,0,-1,42.58,23.02)"
         style="font-variant:normal;font-weight:normal;font-size:10px;font-family:Helvetica;-inkscape-font-specification:Helvetica;writing-mode:lr-tb;fill:#f4e6d4;fill-opacity:1;fill-rule:nonzero;stroke:none;stroke-opacity:1"
         id="text156"><tspan
           x="0 5.5599999 8.3400002"
           y="0"
           sodipodi:role="line"
           id="tspan158">0.0</tspan></text>
<text
         transform="matrix(1,0,0,-1,70.22,23.02)"
         style="font-variant:normal;font-weight:normal;font-size:10px;font-family:Helvetica;-inkscape-font-specification:Helvetica;writing-mode:lr-tb;fill:#f4e6d4;fill-opacity:1;fill-rule:nonzero;stroke:none;stroke-opacity:1"
         id="text160"><tspan
           x="0 5.5599999 8.3400002"
           y="0"
           sodipodi:role="line"
           id="tspan162">2.5</tspan></text>
<text
         transform="matrix(1,0,0,-1,97.85,23.02)"
         style="font-variant:normal;font-weight:normal;font-size:10px;font-family:Helvetica;-inkscape-font-specification:Helvetica;writing-mode:lr-tb;fill:#f4e6d4;fill-opacity:1;fill-rule:nonzero;stroke:none;stroke-opacity:1"
         id="text164"><tspan
           x="0 5.5599999 8.3400002"
           y="0"
           sodipodi:role="line"
           id="tspan166">5.0</tspan></text>
<text
         transform="matrix(1,0,0,-1,125.49,23.02)"
         style="font-variant:normal;font-weight:normal;font-size:10px;font-family:Helvetica;-inkscape-font-specification:Helvetica;writing-mode:lr-tb;fill:#f4e6d4;fill-opacity:1;fill-rule:nonzero;stroke:none;stroke-opacity:1"
         id="text168"><tspan
           x="0 5.5599999 8.3400002"
           y="0"
           sodipodi:role="line"
           id="tspan170">7.5</tspan></text>
<text
         transform="matrix(1,0,0,-1,150.34,23.02)"
         style="font-variant:normal;font-weight:normal;font-size:10px;font-family:Helvetica;-inkscape-font-specification:Helvetica;writing-mode:lr-tb;fill:#f4e6d4;fill-opacity:1;fill-rule:nonzero;stroke:none;stroke-opacity:1"
         id="text172"><tspan
           x="0 5.5599999 11.12 13.9"
           y="0"
           sodipodi:role="line"
           id="tspan174">10.0</tspan></text>
</g><g
       id="g176" /><g
       id="g178" /><g
       id="g180" /><g
       id="g182" /><g
       id="g184"
       style="fill:#f4e6d4;fill-opacity:1;stroke:none;stroke-opacity:1"><text
         transform="matrix(1,0,0,-1,91.47,10.8)"
         style="font-variant:normal;font-weight:normal;font-size:12px;font-family:Helvetica;-inkscape-font-specification:Helvetica;writing-mode:lr-tb;fill:#f4e6d4;fill-opacity:1;fill-rule:nonzero;stroke:none;stroke-opacity:1"
         id="text186"><tspan
           x="0 7.3319998 9.9960003 19.992001"
           y="0"
           sodipodi:role="line"
           id="tspan188">Time</tspan></text>
</g><g
       id="g190" /><g
       id="g192"
       style="fill:#f4e6d4;fill-opacity:1;stroke:none;stroke-opacity:1"><text
         transform="matrix(0,1,1,0,19.42,81.44)"
         style="font-variant:normal;font-weight:normal;font-size:12px;font-family:Helvetica;-inkscape-font-specification:Helvetica;writing-mode:lr-tb;fill:#f4e6d4;fill-opacity:1;fill-rule:nonzero;stroke:none;stroke-opacity:1"
         id="text194"><tspan
           x="0 8.6639996 15.336 22.007999 28.007999 30.672001 34.007999"
           y="0"
           sodipodi:role="line"
           id="tspan196">Density</tspan></text>
</g><g
       id="g198" /><g
       id="g200" /><g
       id="g202" /><g
       id="g204" /></g></svg>