<?xml version="1.0" encoding="UTF-8" standalone="no"?>
<!-- Created with Inkscape (http://www.inkscape.org/) -->

<svg
   xmlns:dc="http://purl.org/dc/elements/1.1/"
   xmlns:cc="http://creativecommons.org/ns#"
   xmlns:rdf="http://www.w3.org/1999/02/22-rdf-syntax-ns#"
   xmlns:svg="http://www.w3.org/2000/svg"
   xmlns="http://www.w3.org/2000/svg"
   xmlns:sodipodi="http://sodipodi.sourceforge.net/DTD/sodipodi-0.dtd"
   xmlns:inkscape="http://www.inkscape.org/namespaces/inkscape"
   id="svg2"
   version="1.1"
   inkscape:version="0.91 r13725"
   xml:space="preserve"
   width="225"
   height="225"
   viewBox="0 0 225 225"
   sodipodi:docname="LV_3sp_unstable.svg"><metadata
     id="metadata8"><rdf:RDF><cc:Work
         rdf:about=""><dc:format>image/svg+xml</dc:format><dc:type
           rdf:resource="http://purl.org/dc/dcmitype/StillImage" /><dc:title /></cc:Work></rdf:RDF></metadata><defs
     id="defs6"><clipPath
       clipPathUnits="userSpaceOnUse"
       id="clipPath32"><path
         d="m 49.56,37.28 116.04,0 0,128.32 -116.04,0 0,-128.32 z"
         id="path34"
         inkscape:connector-curvature="0" /></clipPath></defs><sodipodi:namedview
     pagecolor="#ffffff"
     bordercolor="#666666"
     borderopacity="1"
     objecttolerance="10"
     gridtolerance="10"
     guidetolerance="10"
     inkscape:pageopacity="0"
     inkscape:pageshadow="2"
     inkscape:window-width="1920"
     inkscape:window-height="1026"
     id="namedview4"
     showgrid="false"
     inkscape:zoom="2.9002188"
     inkscape:cx="20.130834"
     inkscape:cy="89.342416"
     inkscape:window-x="0"
     inkscape:window-y="0"
     inkscape:window-maximized="1"
     inkscape:current-layer="g10" /><g
     id="g10"
     inkscape:groupmode="layer"
     inkscape:label="LV_3sp_unstable"
     transform="matrix(1.25,0,0,-1.25,0,225)"><g
       id="g12" /><g
       id="g14" /><g
       id="g16" /><g
       id="g22" /><g
       id="g24" /><g
       id="g26" /><path
       d="m 49.56,62.56 116.04,0"
       style="fill:none;stroke:#f4e6d4;stroke-width:0.4;stroke-linecap:butt;stroke-linejoin:round;stroke-miterlimit:10;stroke-dasharray:none;stroke-opacity:1"
       id="path38"
       inkscape:connector-curvature="0" /><path
       d="m 49.56,101.44 116.04,0"
       style="fill:none;stroke:#f4e6d4;stroke-width:0.4;stroke-linecap:butt;stroke-linejoin:round;stroke-miterlimit:10;stroke-dasharray:none;stroke-opacity:1"
       id="path40"
       inkscape:connector-curvature="0" /><path
       d="m 49.56,140.33 116.04,0"
       style="fill:none;stroke:#f4e6d4;stroke-width:0.4;stroke-linecap:butt;stroke-linejoin:round;stroke-miterlimit:10;stroke-dasharray:none;stroke-opacity:1"
       id="path42"
       inkscape:connector-curvature="0" /><path
       d="m 71.32,37.28 0,128.32"
       style="fill:none;stroke:#f4e6d4;stroke-width:0.4;stroke-linecap:butt;stroke-linejoin:round;stroke-miterlimit:10;stroke-dasharray:none;stroke-opacity:1"
       id="path44"
       inkscape:connector-curvature="0" /><path
       d="m 104.28,37.28 0,128.32"
       style="fill:none;stroke:#f4e6d4;stroke-width:0.4;stroke-linecap:butt;stroke-linejoin:round;stroke-miterlimit:10;stroke-dasharray:none;stroke-opacity:1"
       id="path46"
       inkscape:connector-curvature="0" /><path
       d="m 137.25,37.28 0,128.32"
       style="fill:none;stroke:#f4e6d4;stroke-width:0.4;stroke-linecap:butt;stroke-linejoin:round;stroke-miterlimit:10;stroke-dasharray:none;stroke-opacity:1"
       id="path48"
       inkscape:connector-curvature="0" /><path
       d="m 54.84,159.77 0.03,-1.9 0.03,-1.82 0.04,-1.75 0.03,-1.67 0.03,-1.61 0.03,-1.55 0.04,-1.48 0.03,-1.44 0.03,-1.37 0.04,-1.33 0.03,-1.29 0.03,-1.23 0.04,-1.2 0.03,-1.15 0.03,-1.12 0.03,-1.08 0.04,-1.04 0.03,-1.01 0.03,-0.98 0.04,-0.95 0.03,-0.92 0.03,-0.89 0.04,-0.86 0.03,-0.84 0.03,-0.82 0.03,-0.79 0.04,-0.77 0.03,-0.75 0.03,-0.73 0.04,-0.7 0.03,-0.69 0.03,-0.67 0.03,-0.65 0.04,-0.64 0.03,-0.62 0.03,-0.6 0.04,-0.59 0.03,-0.57 0.03,-0.56 0.04,-0.55 0.03,-0.53 0.03,-0.52 0.03,-0.51 0.04,-0.49 0.03,-0.49 0.03,-0.47 0.04,-0.46 0.03,-0.45 0.03,-0.45 0.04,-0.43 0.03,-0.42 0.03,-0.41 0.03,-0.41 0.04,-0.39 0.03,-0.39 0.03,-0.38 0.04,-0.37 0.03,-0.36 0.03,-0.36 0.03,-0.34 0.04,-0.35 0.03,-0.33 0.03,-0.33 0.04,-0.32 0.03,-0.31 0.03,-0.31 0.04,-0.3 0.03,-0.3 0.03,-0.29 0.03,-0.29 0.04,-0.28 0.03,-0.27 0.03,-0.27 0.04,-0.27 0.03,-0.26 0.03,-0.25 0.04,-0.25 0.03,-0.25 0.03,-0.24 0.03,-0.24 0.04,-0.23 0.03,-0.23 0.03,-0.22 0.04,-0.23 0.03,-0.21 0.03,-0.22 0.04,-0.21 0.03,-0.2 0.03,-0.2 0.03,-0.2 0.04,-0.2 0.03,-0.19 0.03,-0.19 0.04,-0.19 0.03,-0.18 0.03,-0.18 0.03,-0.18 0.04,-0.17 0.03,-0.17 0.03,-0.17 0.04,-0.17 0.03,-0.16 0.03,-0.16 0.04,-0.16 0.03,-0.16 0.03,-0.15 0.03,-0.15 0.04,-0.15 0.03,-0.15 0.03,-0.14 0.04,-0.14 0.03,-0.14 0.03,-0.14 0.04,-0.14 0.03,-0.13 0.03,-0.13 0.03,-0.13 0.04,-0.13 0.03,-0.12 0.03,-0.13 0.04,-0.12 0.03,-0.12 0.03,-0.12 0.03,-0.12 0.04,-0.11 0.03,-0.11 0.03,-0.12 0.04,-0.11 0.03,-0.1 0.03,-0.11 0.04,-0.11 0.03,-0.1 0.03,-0.1 0.03,-0.1 0.04,-0.1 0.03,-0.1 0.03,-0.1 0.04,-0.09 0.03,-0.1 0.03,-0.09 0.04,-0.09 0.03,-0.09 0.03,-0.09 0.03,-0.09 0.04,-0.09 0.03,-0.08 0.03,-0.09 0.04,-0.08 0.03,-0.08 0.03,-0.08 0.03,-0.08 0.04,-0.08 0.03,-0.08 0.03,-0.08 0.04,-0.07 0.03,-0.08 0.03,-0.07 0.04,-0.07 0.03,-0.07 0.03,-0.07 0.03,-0.07 0.04,-0.07 0.03,-0.07 0.03,-0.07 0.04,-0.06 0.03,-0.07 0.03,-0.06 0.04,-0.07 0.03,-0.06 0.03,-0.06 0.03,-0.06 0.04,-0.06 0.03,-0.06 0.03,-0.06 0.04,-0.06 0.03,-0.06 0.03,-0.06 0.03,-0.05 0.04,-0.06 0.03,-0.05 0.03,-0.06 0.04,-0.05 0.03,-0.05 0.03,-0.05 0.04,-0.05 0.03,-0.05 0.03,-0.05 0.03,-0.05 0.04,-0.05 0.03,-0.05 0.03,-0.05 0.04,-0.04 0.03,-0.05 0.03,-0.05 0.04,-0.04 0.03,-0.04 0.03,-0.05 0.03,-0.04 0.04,-0.05 0.03,-0.04 0.03,-0.04 0.04,-0.04 0.03,-0.04 0.03,-0.04 0.03,-0.04 0.04,-0.04 0.03,-0.04 0.03,-0.04 0.04,-0.03 0.03,-0.04 0.03,-0.04 0.04,-0.04 0.03,-0.03 0.03,-0.04 0.03,-0.03 0.04,-0.04 0.03,-0.03 0.03,-0.03 0.04,-0.04 0.03,-0.03 0.03,-0.03 0.04,-0.04 0.03,-0.03 0.03,-0.03 0.03,-0.03 0.04,-0.03 0.03,-0.03 0.03,-0.03 0.04,-0.03 0.03,-0.03 0.03,-0.03 0.03,-0.03 0.04,-0.02 0.03,-0.03 0.03,-0.03 0.04,-0.03 0.03,-0.02 0.03,-0.03 0.04,-0.03 0.03,-0.02 0.03,-0.03 0.03,-0.02 0.04,-0.03 0.03,-0.02 0.03,-0.02 0.04,-0.03 0.03,-0.02 0.03,-0.03 0.04,-0.02 0.03,-0.02 0.03,-0.02 0.03,-0.03 0.04,-0.02 0.03,-0.02 0.03,-0.02 0.04,-0.02 0.03,-0.02 0.03,-0.02 0.04,-0.02 0.03,-0.02 0.03,-0.02 0.03,-0.02 0.04,-0.02 0.03,-0.02 0.03,-0.02 0.04,-0.02 0.03,-0.02 0.03,-0.01 0.03,-0.02 0.04,-0.02 0.03,-0.02 0.03,-0.01 0.04,-0.02 0.03,-0.02 0.03,-0.01 0.04,-0.02 0.03,-0.02 0.03,-0.01 0.03,-0.02 0.04,-0.01 0.03,-0.02 0.03,-0.01 0.04,-0.02 0.03,-0.01 0.03,-0.02 0.04,-0.01 0.03,-0.02 0.03,-0.01 0.03,-0.01 0.04,-0.02 0.03,-0.01 0.03,-0.01 0.04,-0.02 0.03,-0.01 0.03,-0.01 0.03,-0.02 0.04,-0.01 0.03,-0.01 0.03,-0.01 0.04,-0.01 0.03,-0.02 0.03,-0.01 0.04,-0.01 0.03,-0.01 0.03,-0.01 0.03,-0.01 0.04,-0.01 0.03,-0.01 0.03,-0.01 0.04,-0.01 0.03,-0.01 0.03,-0.01 0.04,-0.01 0.03,-0.01 0.03,-0.01 0.03,-0.01 0.04,-0.01 0.03,-0.01 0.03,-0.01 0.04,-0.01 0.03,-0.01 0.03,-0.01 0.03,-0.01 0.04,0 0.03,-0.01 0.03,-0.01 0.04,-0.01 0.03,-0.01 0.03,-0.01 0.04,0 0.03,-0.01 0.03,-0.01 0.03,-0.01 0.04,0 0.03,-0.01 0.03,-0.01 0.04,0 0.03,-0.01 0.03,-0.01 0.04,0 0.03,-0.01 0.03,-0.01 0.03,0 0.04,-0.01 0.03,-0.01 0.03,0 0.04,-0.01 0.03,0 0.03,-0.01 0.03,0 0.04,-0.01 0.03,-0.01 0.03,0 0.04,-0.01 0.03,0 0.03,-0.01 0.04,0 0.03,-0.01 0.03,0 0.03,-0.01 0.04,0 0.03,0 0.03,-0.01 0.04,0 0.03,-0.01 0.03,0 0.04,-0.01 0.03,0 0.03,0 0.03,-0.01 0.04,0 0.03,-0.01 0.03,0 0.04,0 0.03,-0.01 0.03,0 0.03,0 0.04,-0.01 0.03,0 0.03,0 0.04,0 0.03,-0.01 0.03,0 0.04,0 0.03,-0.01 0.03,0 0.03,0 0.04,0 0.03,-0.01 0.03,0 0.04,0 0.03,0 0.03,-0.01 0.04,0 0.03,0 0.03,0 0.03,0 0.04,-0.01 0.03,0 0.03,0 0.04,0 0.03,0 0.03,0 0.03,-0.01 0.04,0 0.03,0 0.03,0 0.04,0 0.03,0 0.03,0 0.04,-0.01 0.03,0 0.03,0 0.03,0 0.04,0 0.03,0 0.03,0 0.04,0 0.03,0 0.03,0 0.04,0 0.03,-0.01 0.03,0 0.03,0 0.04,0 0.03,0 0.03,0 0.04,0 0.03,0 0.03,0 0.04,0 0.03,0 0.03,0 0.03,0 0.04,0 0.03,0 0.03,0 0.04,0 0.03,0 0.03,0 0.03,0 0.04,0 0.03,0 0.03,0 0.04,0 0.03,0 0.03,0 0.04,0 0.03,0 0.03,0.01 0.03,0 0.04,0 0.03,0 0.03,0 0.04,0 0.03,0 0.03,0 0.04,0 0.03,0 0.03,0 0.03,0 0.04,0 0.03,0.01 0.03,0 0.04,0 0.03,0 0.03,0 0.03,0 0.04,0 0.03,0 0.03,0.01 0.04,0 0.03,0 0.03,0 0.04,0 0.03,0 0.03,0 0.03,0.01 0.04,0 0.03,0 0.03,0 0.04,0 0.03,0 0.03,0.01 0.04,0 0.03,0 0.03,0 0.03,0 0.04,0 0.03,0.01 0.03,0 0.04,0 0.03,0 0.03,0 0.03,0.01 0.04,0 0.03,0 0.03,0 0.04,0 0.03,0.01 0.03,0 0.04,0 0.03,0 0.03,0 0.03,0.01 0.04,0 0.03,0 0.03,0 0.04,0.01 0.03,0 0.03,0 0.04,0 0.03,0.01 0.03,0 0.03,0 0.04,0 0.03,0 0.03,0.01 0.04,0 0.03,0 0.03,0.01 0.03,0 0.04,0 0.03,0 0.03,0.01 0.04,0 0.03,0 0.03,0 0.04,0.01 0.03,0 0.03,0 0.03,0 0.04,0.01 0.03,0 0.03,0 0.04,0.01 0.03,0 0.03,0 0.04,0 0.03,0.01 0.03,0 0.03,0 0.04,0.01 0.03,0 0.03,0 0.04,0.01 0.03,0 0.03,0 0.03,0.01 0.04,0 0.03,0 0.03,0 0.04,0.01 0.03,0 0.03,0 0.04,0.01 0.03,0 0.03,0 0.03,0.01 0.04,0 0.03,0 0.03,0.01 0.04,0 0.03,0 0.03,0.01 0.04,0 0.03,0 0.03,0.01 0.03,0 0.04,0 0.03,0.01 0.03,0 0.04,0 0.03,0.01 0.03,0 0.03,0 0.04,0.01 0.03,0 0.03,0.01 0.04,0 0.03,0 0.03,0.01 0.04,0 0.03,0 0.03,0.01 0.03,0 0.04,0 0.03,0.01 0.03,0 0.04,0 0.03,0.01 0.03,0 0.04,0.01 0.03,0 0.03,0 0.03,0.01 0.04,0 0.03,0 0.03,0.01 0.04,0 0.03,0.01 0.03,0 0.04,0 0.03,0.01 0.03,0 0.03,0.01 0.04,0 0.03,0 0.03,0.01 0.04,0 0.03,0 0.03,0.01 0.03,0 0.04,0.01 0.03,0 0.03,0 0.04,0.01 0.03,0 0.03,0.01 0.04,0 0.03,0 0.03,0.01 0.03,0 0.04,0.01 0.03,0 0.03,0 0.04,0.01 0.03,0 0.03,0.01 0.04,0 0.03,0.01 0.03,0 0.03,0 0.04,0.01 0.03,0 0.03,0.01 0.04,0 0.03,0 0.03,0.01 0.03,0 0.04,0.01 0.03,0 0.03,0.01 0.04,0 0.03,0 0.03,0.01 0.04,0 0.03,0.01 0.03,0 0.03,0.01 0.04,0 0.03,0 0.03,0.01 0.04,0 0.03,0.01 0.03,0 0.04,0.01 0.03,0 0.03,0 0.03,0.01 0.04,0 0.03,0.01 0.03,0 0.04,0.01 0.03,0 0.03,0 0.03,0.01 0.04,0 0.03,0.01 0.03,0 0.04,0.01 0.03,0 0.03,0.01 0.04,0 0.03,0 0.03,0.01 0.03,0 0.04,0.01 0.03,0 0.03,0.01 0.04,0 0.03,0.01 0.03,0 0.04,0 0.03,0.01 0.03,0 0.03,0.01 0.04,0 0.03,0.01 0.03,0 0.04,0.01 0.03,0 0.03,0.01 0.03,0 0.04,0 0.03,0.01 0.03,0 0.04,0.01 0.03,0 0.03,0.01 0.04,0 0.03,0.01 0.03,0 0.03,0.01 0.04,0 0.03,0.01 0.03,0 0.04,0 0.03,0.01 0.03,0 0.04,0.01 0.03,0 0.03,0.01 0.03,0 0.04,0.01 0.03,0 0.03,0.01 0.04,0 0.03,0.01 0.03,0 0.03,0.01 0.04,0 0.03,0 0.03,0.01 0.04,0 0.03,0.01 0.03,0 0.04,0.01 0.03,0 0.03,0.01 0.03,0 0.04,0.01 0.03,0 0.03,0.01 0.04,0 0.03,0.01 0.03,0 0.04,0.01 0.03,0 0.03,0.01 0.03,0 0.04,0.01 0.03,0 0.03,0.01 0.04,0 0.03,0 0.03,0.01 0.03,0 0.04,0.01 0.03,0 0.03,0.01 0.04,0 0.03,0.01 0.03,0 0.04,0.01 0.03,0 0.03,0.01 0.03,0 0.04,0.01 0.03,0 0.03,0.01 0.04,0 0.03,0.01 0.03,0 0.04,0.01 0.03,0 0.03,0.01 0.03,0 0.04,0.01 0.03,0 0.03,0.01 0.04,0 0.03,0.01 0.03,0 0.04,0.01 0.03,0 0.03,0.01 0.03,0 0.04,0.01 0.03,0 0.03,0.01 0.04,0 0.03,0.01 0.03,0 0.03,0 0.04,0.01 0.03,0 0.03,0.01 0.04,0 0.03,0.01 0.03,0 0.04,0.01 0.03,0 0.03,0.01 0.03,0 0.04,0.01 0.03,0 0.03,0.01 0.04,0 0.03,0.01 0.03,0 0.04,0.01 0.03,0 0.03,0.01 0.03,0 0.04,0.01 0.03,0 0.03,0.01 0.04,0 0.03,0.01 0.03,0 0.03,0.01 0.04,0 0.03,0.01 0.03,0 0.04,0.01 0.03,0 0.03,0.01 0.04,0 0.03,0.01 0.03,0 0.03,0.01 0.04,0 0.03,0.01 0.03,0 0.04,0.01 0.03,0 0.03,0.01 0.04,0 0.03,0.01 0.03,0 0.03,0.01 0.04,0 0.03,0.01 0.03,0 0.04,0.01 0.03,0 0.03,0.01 0.03,0 0.04,0.01 0.03,0 0.03,0.01 0.04,0 0.03,0.01 0.03,0 0.04,0.01 0.03,0 0.03,0.01 0.03,0.01 0.04,0 0.03,0.01 0.03,0 0.04,0.01 0.03,0 0.03,0.01 0.04,0 0.03,0.01 0.03,0 0.03,0.01 0.04,0 0.03,0.01 0.03,0 0.04,0.01 0.03,0 0.03,0.01 0.03,0 0.04,0.01 0.03,0 0.03,0.01 0.04,0 0.03,0.01 0.03,0 0.04,0.01 0.03,0 0.03,0.01 0.03,0 0.04,0.01 0.03,0 0.03,0.01 0.04,0 0.03,0.01 0.03,0 0.04,0.01 0.03,0 0.03,0.01 0.03,0 0.04,0.01 0.03,0 0.03,0.01 0.04,0 0.03,0.01 0.03,0 0.03,0.01 0.04,0 0.03,0.01 0.03,0 0.04,0.01 0.03,0 0.03,0.01 0.04,0 0.03,0.01 0.03,0 0.03,0.01 0.04,0 0.03,0.01 0.03,0 0.04,0.01 0.03,0 0.03,0.01 0.04,0 0.03,0.01 0.03,0 0.03,0.01 0.04,0 0.03,0.01 0.03,0 0.04,0.01 0.03,0.01 0.03,0 0.03,0.01 0.04,0 0.03,0.01 0.03,0 0.04,0.01 0.03,0 0.03,0.01 0.04,0 0.03,0.01 0.03,0 0.03,0.01 0.04,0 0.03,0.01 0.03,0 0.04,0.01 0.03,0 0.03,0.01 0.04,0 0.03,0.01 0.03,0 0.03,0.01 0.04,0 0.03,0.01 0.03,0 0.04,0.01 0.03,0 0.03,0.01 0.04,0 0.03,0.01 0.03,0 0.03,0.01 0.04,0 0.03,0.01 0.03,0 0.04,0.01 0.03,0 0.03,0.01 0.03,0 0.04,0.01 0.03,0 0.03,0.01 0.04,0 0.03,0.01 0.03,0 0.04,0.01 0.03,0 0.03,0.01 0.03,0 0.04,0.01 0.03,0 0.03,0.01 0.04,0 0.03,0.01 0.03,0 0.04,0.01 0.03,0 0.03,0.01 0.03,0 0.04,0.01 0.03,0 0.03,0.01 0.04,0 0.03,0.01 0.03,0 0.03,0.01 0.04,0 0.03,0.01 0.03,0 0.04,0.01 0.03,0 0.03,0.01 0.04,0 0.03,0.01 0.03,0 0.03,0.01 0.04,0 0.03,0.01 0.03,0 0.04,0.01 0.03,0 0.03,0.01 0.04,0 0.03,0.01 0.03,0 0.03,0.01 0.04,0 0.03,0.01 0.03,0 0.04,0.01 0.03,0 0.03,0.01 0.03,0 0.04,0.01 0.03,0 0.03,0.01 0.04,0 0.03,0.01 0.03,0 0.04,0.01 0.03,0 0.03,0.01 0.03,0 0.04,0.01 0.03,0 0.03,0.01 0.04,0 0.03,0.01 0.03,0 0.04,0.01 0.03,0 0.03,0.01 0.03,0 0.04,0.01 0.03,0 0.03,0.01 0.04,0 0.03,0.01 0.03,0 0.03,0.01 0.04,0 0.03,0.01 0.03,0 0.04,0.01 0.03,0 0.03,0.01 0.04,0 0.03,0.01 0.03,0 0.03,0.01 0.04,0 0.03,0.01 0.03,0 0.04,0.01 0.03,0 0.03,0.01 0.04,0 0.03,0.01 0.03,0 0.03,0.01 0.04,0 0.03,0.01 0.03,0 0.04,0.01 0.03,0 0.03,0.01 0.03,0 0.04,0.01 0.03,0 0.03,0.01 0.04,0 0.03,0.01 0.03,0 0.04,0.01 0.03,0 0.03,0.01 0.03,0 0.04,0 0.03,0.01 0.03,0 0.04,0.01 0.03,0 0.03,0.01 0.04,0 0.03,0.01 0.03,0 0.03,0.01 0.04,0 0.03,0.01 0.03,0 0.04,0.01 0.03,0 0.03,0.01 0.04,0 0.03,0.01 0.03,0 0.03,0.01 0.04,0 0.03,0.01 0.03,0 0.04,0.01 0.03,0 0.03,0.01 0.03,0 0.04,0.01 0.03,0 0.03,0 0.04,0.01 0.03,0 0.03,0.01 0.04,0 0.03,0.01 0.03,0 0.03,0.01 0.04,0 0.03,0.01 0.03,0 0.04,0.01 0.03,0 0.03,0.01 0.04,0 0.03,0.01 0.03,0 0.03,0.01 0.04,0 0.03,0.01 0.03,0 0.04,0 0.03,0.01 0.03,0 0.03,0.01 0.04,0 0.03,0.01 0.03,0 0.04,0.01 0.03,0 0.03,0.01 0.04,0 0.03,0.01 0.03,0 0.03,0.01 0.04,0 0.03,0.01 0.03,0 0.04,0 0.03,0.01 0.03,0 0.04,0.01 0.03,0 0.03,0.01 0.03,0 0.04,0.01 0.03,0 0.03,0.01 0.04,0 0.03,0.01 0.03,0 0.03,0.01 0.04,0 0.03,0 0.03,0.01 0.04,0 0.03,0.01 0.03,0 0.04,0.01 0.03,0 0.03,0.01 0.03,0 0.04,0.01 0.03,0 0.03,0.01 0.04,0 0.03,0 0.03,0.01 0.04,0 0.03,0.01 0.03,0 0.03,0.01 0.04,0 0.03,0.01 0.03,0 0.04,0.01 0.03,0 0.03,0.01 0.03,0 0.04,0 0.03,0.01 0.03,0 0.04,0.01 0.03,0 0.03,0.01 0.04,0 0.03,0.01 0.03,0 0.03,0 0.04,0.01 0.03,0 0.03,0.01 0.04,0 0.03,0.01 0.03,0 0.04,0.01 0.03,0 0.03,0.01 0.03,0 0.04,0 0.03,0.01 0.03,0 0.04,0.01 0.03,0 0.03,0.01 0.03,0 0.04,0.01 0.03,0 0.03,0 0.04,0.01 0.03,0 0.03,0.01 0.04,0 0.03,0.01 0.03,0 0.03,0.01 0.04,0 0.03,0 0.03,0.01 0.04,0 0.03,0.01 0.03,0 0.04,0.01 0.03,0 0.03,0.01 0.03,0 0.04,0 0.03,0.01 0.03,0 0.04,0.01 0.03,0 0.03,0.01 0.03,0 0.04,0.01 0.03,0 0.03,0 0.04,0.01 0.03,0 0.03,0.01 0.04,0 0.03,0.01 0.03,0 0.03,0 0.04,0.01 0.03,0 0.03,0.01 0.04,0 0.03,0.01 0.03,0 0.04,0 0.03,0.01 0.03,0 0.03,0.01 0.04,0 0.03,0.01 0.03,0 0.04,0 0.03,0.01 0.03,0 0.04,0.01 0.03,0 0.03,0.01 0.03,0 0.04,0 0.03,0.01 0.03,0 0.04,0.01 0.03,0 0.03,0.01 0.03,0 0.04,0 0.03,0.01 0.03,0 0.04,0.01 0.03,0 0.03,0.01 0.04,0 0.03,0 0.03,0.01 0.03,0 0.04,0.01 0.03,0 0.03,0 0.04,0.01 0.03,0 0.03,0.01 0.04,0 0.03,0.01 0.03,0 0.03,0 0.04,0.01 0.03,0 0.03,0.01 0.04,0 0.03,0 0.03,0.01 0.03,0 0.04,0.01 0.03,0 0.03,0.01 0.04,0 0.03,0 0.03,0.01 0.04,0 0.03,0.01 0.03,0 0.03,0 0.04,0.01 0.03,0 0.03,0.01 0.04,0 0.03,0 0.03,0.01 0.04,0 0.03,0.01 0.03,0 0.03,0 0.04,0.01 0.03,0 0.03,0.01 0.04,0 0.03,0 0.03,0.01 0.03,0 0.04,0.01 0.03,0 0.03,0.01 0.04,0 0.03,0 0.03,0.01 0.04,0 0.03,0.01 0.03,0 0.03,0 0.04,0.01 0.03,0 0.03,0.01 0.04,0 0.03,0 0.03,0.01 0.04,0 0.03,0 0.03,0.01 0.03,0 0.04,0.01 0.03,0 0.03,0 0.04,0.01 0.03,0 0.03,0.01 0.03,0 0.04,0 0.03,0.01 0.03,0 0.04,0.01 0.03,0 0.03,0 0.04,0.01 0.03,0 0.03,0.01 0.03,0 0.04,0 0.03,0.01 0.03,0 0.04,0 0.03,0.01 0.03,0 0.04,0.01 0.03,0 0.03,0 0.03,0.01 0.04,0 0.03,0.01 0.03,0 0.04,0 0.03,0.01 0.03,0 0.03,0 0.04,0.01 0.03,0 0.03,0.01 0.04,0 0.03,0 0.03,0.01 0.04,0 0.03,0.01 0.03,0 0.03,0 0.04,0.01 0.03,0 0.03,0 0.04,0.01 0.03,0 0.03,0.01 0.04,0 0.03,0 0.03,0.01 0.03,0 0.04,0 0.03,0.01 0.03,0 0.04,0 0.03,0.01 0.03,0 0.03,0.01 0.04,0 0.03,0 0.03,0.01 0.04,0 0.03,0 0.03,0.01 0.04,0 0.03,0.01 0.03,0 0.03,0 0.04,0.01 0.03,0 0.03,0 0.04,0.01 0.03,0 0.03,0 0.04,0.01 0.03,0 0.03,0.01 0.03,0 0.04,0 0.03,0.01 0.03,0 0.04,0 0.03,0.01 0.03,0 0.04,0 0.03,0.01 0.03,0 0.03,0.01 0.04,0 0.03,0 0.03,0.01 0.04,0 0.03,0 0.03,0.01 0.03,0 0.04,0 0.03,0.01 0.03,0 0.04,0 0.03,0.01 0.03,0 0.04,0.01 0.03,0 0.03,0 0.03,0.01 0.04,0 0.03,0 0.03,0.01 0.04,0 0.03,0 0.03,0.01 0.04,0 0.03,0 0.03,0.01 0.03,0 0.04,0 0.03,0.01 0.03,0 0.04,0 0.03,0.01 0.03,0 0.03,0 0.04,0.01 0.03,0 0.03,0 0.04,0.01 0.03,0 0.03,0.01 0.04,0 0.03,0 0.03,0.01 0.03,0 0.04,0 0.03,0.01 0.03,0 0.04,0 0.03,0.01 0.03,0 0.04,0 0.03,0.01 0.03,0 0.03,0 0.04,0.01 0.03,0 0.03,0 0.04,0.01 0.03,0 0.03,0 0.03,0.01 0.04,0 0.03,0 0.03,0.01 0.04,0 0.03,0 0.03,0.01 0.04,0 0.03,0 0.03,0.01 0.03,0 0.04,0 0.03,0.01 0.03,0 0.04,0 0.03,0.01 0.03,0 0.04,0 0.03,0.01 0.03,0 0.03,0 0.04,0.01 0.03,0 0.03,0 0.04,0 0.03,0.01 0.03,0 0.03,0 0.04,0.01 0.03,0 0.03,0 0.04,0.01 0.03,0 0.03,0 0.04,0.01 0.03,0 0.03,0 0.03,0.01 0.04,0 0.03,0 0.03,0.01 0.04,0 0.03,0 0.03,0.01 0.04,0 0.03,0 0.03,0 0.03,0.01 0.04,0 0.03,0 0.03,0.01 0.04,0 0.03,0 0.03,0.01 0.03,0 0.04,0 0.03,0.01 0.03,0 0.04,0 0.03,0.01 0.03,0 0.04,0 0.03,0 0.03,0.01 0.03,0 0.04,0 0.03,0.01 0.03,0 0.04,0 0.03,0.01 0.03,0 0.04,0 0.03,0.01 0.03,0 0.03,0 0.04,0 0.03,0.01 0.03,0 0.04,0 0.03,0.01 0.03,0 0.03,0 0.04,0.01 0.03,0 0.03,0 0.04,0 0.03,0.01 0.03,0 0.04,0 0.03,0.01 0.03,0 0.03,0 0.04,0.01 0.03,0 0.03,0 0.04,0 0.03,0.01 0.03,0 0.04,0 0.03,0.01 0.03,0 0.03,0 0.04,0 0.03,0.01 0.03,0 0.04,0 0.03,0.01 0.03,0 0.04,0 0.03,0.01 0.03,0 0.03,0 0.04,0 0.03,0.01 0.03,0 0.04,0 0.03,0.01 0.03,0 0.03,0 0.04,0 0.03,0.01 0.03,0 0.04,0 0.03,0.01 0.03,0 0.04,0 0.03,0 0.03,0.01 0.03,0 0.04,0 0.03,0.01 0.03,0 0.04,0 0.03,0 0.03,0.01 0.04,0 0.03,0 0.03,0 0.03,0.01 0.04,0 0.03,0 0.03,0.01 0.04,0 0.03,0 0.03,0 0.03,0.01 0.04,0 0.03,0 0.03,0.01 0.04,0 0.03,0 0.03,0 0.04,0.01 0.03,0 0.03,0 0.03,0 0.04,0.01 0.03,0 0.03,0 0.04,0.01 0.03,0 0.03,0 0.04,0 0.03,0.01 0.03,0 0.03,0 0.04,0 0.03,0.01 0.03,0 0.04,0 0.03,0 0.03,0.01 0.03,0 0.04,0 0.03,0.01 0.03,0 0.04,0 0.03,0 0.03,0.01 0.04,0 0.03,0 0.03,0 0.03,0.01 0.04,0 0.03,0 0.03,0 0.04,0.01 0.03,0 0.03,0 0.04,0 0.03,0.01 0.03,0 0.03,0 0.04,0 0.03,0.01 0.03,0 0.04,0 0.03,0.01 0.03,0 0.03,0 0.04,0 0.03,0.01 0.03,0 0.04,0 0.03,0 0.03,0.01 0.04,0 0.03,0 0.03,0 0.03,0.01 0.04,0 0.03,0 0.03,0 0.04,0.01 0.03,0 0.03,0 0.04,0 0.03,0.01 0.03,0 0.03,0 0.04,0 0.03,0.01 0.03,0 0.04,0 0.03,0 0.03,0.01 0.03,0 0.04,0 0.03,0 0.03,0.01 0.04,0 0.03,0 0.03,0 0.04,0 0.03,0.01 0.03,0 0.03,0 0.04,0 0.03,0.01 0.03,0 0.04,0 0.03,0 0.03,0.01 0.04,0 0.03,0 0.03,0 0.03,0.01 0.04,0 0.03,0 0.03,0 0.04,0.01 0.03,0 0.03,0 0.03,0 0.04,0.01 0.03,0 0.03,0 0.04,0 0.03,0 0.03,0.01 0.04,0 0.03,0 0.03,0 0.03,0.01 0.04,0 0.03,0 0.03,0 0.04,0.01 0.03,0 0.03,0 0.04,0 0.03,0 0.03,0.01 0.03,0 0.04,0 0.03,0 0.03,0.01 0.04,0 0.03,0 0.03,0 0.04,0.01 0.03,0 0.03,0 0.03,0 0.04,0 0.03,0.01 0.03,0 0.04,0 0.03,0 0.03,0.01 0.03,0 0.04,0 0.03,0 0.03,0 0.04,0.01 0.03,0 0.03,0 0.04,0 0.03,0.01 0.03,0 0.03,0 0.04,0 0.03,0 0.03,0.01 0.04,0 0.03,0 0.03,0 0.04,0.01 0.03,0 0.03,0 0.03,0 0.04,0 0.03,0.01 0.03,0 0.04,0 0.03,0 0.03,0 0.03,0.01 0.04,0 0.03,0 0.03,0 0.04,0.01 0.03,0 0.03,0 0.04,0 0.03,0 0.03,0.01 0.03,0 0.04,0 0.03,0 0.03,0 0.04,0.01 0.03,0 0.03,0 0.04,0 0.03,0 0.03,0.01 0.03,0 0.04,0 0.03,0 0.03,0.01 0.04,0 0.03,0 0.03,0 0.03,0 0.04,0.01 0.03,0 0.03,0 0.04,0 0.03,0 0.03,0.01 0.04,0 0.03,0 0.03,0 0.03,0 0.04,0.01 0.03,0 0.03,0 0.04,0 0.03,0 0.03,0.01 0.04,0 0.03,0 0.03,0 0.03,0 0.04,0.01 0.03,0 0.03,0 0.04,0 0.03,0 0.03,0.01 0.03,0 0.04,0 0.03,0 0.03,0 0.04,0.01 0.03,0 0.03,0 0.04,0 0.03,0 0.03,0.01 0.03,0 0.04,0 0.03,0 0.03,0 0.04,0.01 0.03,0 0.03,0 0.04,0 0.03,0 0.03,0 0.03,0.01 0.04,0 0.03,0 0.03,0 0.04,0 0.03,0.01 0.03,0 0.03,0 0.04,0 0.03,0 0.03,0.01 0.04,0 0.03,0 0.03,0 0.04,0 0.03,0 0.03,0.01 0.03,0 0.04,0 0.03,0 0.03,0 0.04,0.01 0.03,0 0.03,0 0.04,0 0.03,0 0.03,0.01 0.03,0 0.04,0 0.03,0 0.03,0 0.04,0 0.03,0.01 0.03,0 0.03,0 0.04,0 0.03,0 0.03,0.01 0.04,0 0.03,0 0.03,0 0.04,0 0.03,0 0.03,0.01 0.03,0 0.04,0 0.03,0 0.03,0 0.04,0 0.03,0.01 0.03,0 0.04,0 0.03,0 0.03,0 0.03,0.01 0.04,0 0.03,0 0.03,0 0.04,0 0.03,0 0.03,0.01 0.04,0 0.03,0 0.03,0 0.03,0 0.04,0 0.03,0.01 0.03,0 0.04,0 0.03,0 0.03,0 0.03,0 0.04,0.01 0.03,0 0.03,0 0.04,0 0.03,0 0.03,0.01 0.04,0 0.03,0 0.03,0 0.03,0 0.04,0 0.03,0.01 0.03,0 0.04,0 0.03,0 0.03,0 0.04,0 0.03,0.01 0.03,0 0.03,0 0.04,0 0.03,0 0.03,0 0.04,0 0.03,0.01 0.03,0 0.03,0 0.04,0 0.03,0 0.03,0 0.04,0.01 0.03,0 0.03,0 0.04,0 0.03,0 0.03,0 0.03,0.01 0.04,0 0.03,0 0.03,0 0.04,0 0.03,0 0.03,0.01 0.04,0 0.03,0 0.03,0 0.03,0 0.04,0 0.03,0.01 0.03,0 0.04,0 0.03,0 0.03,0 0.03,0 0.04,0 0.03,0.01 0.03,0 0.04,0 0.03,0 0.03,0 0.04,0 0.03,0.01 0.03,0 0.03,0 0.04,0 0.03,0 0.03,0 0.04,0 0.03,0.01 0.03,0 0.04,0 0.03,0 0.03,0 0.03,0 0.04,0.01 0.03,0 0.03,0 0.04,0 0.03,0 0.03,0 0.03,0 0.04,0.01 0.03,0 0.03,0 0.04,0 0.03,0 0.03,0 0.04,0 0.03,0.01 0.03,0 0.03,0 0.04,0 0.03,0 0.03,0 0.04,0 0.03,0.01 0.03,0 0.04,0 0.03,0 0.03,0 0.03,0 0.04,0 0.03,0.01 0.03,0 0.04,0 0.03,0 0.03,0 0.03,0 0.04,0 0.03,0.01 0.03,0 0.04,0 0.03,0 0.03,0 0.04,0 0.03,0 0.03,0.01 0.03,0 0.04,0 0.03,0 0.03,0 0.04,0 0.03,0 0.03,0.01 0.04,0 0.03,0 0.03,0 0.03,0 0.04,0 0.03,0 0.03,0.01 0.04,0 0.03,0 0.03,0 0.03,0 0.04,0 0.03,0 0.03,0.01 0.04,0 0.03,0 0.03,0 0.04,0 0.03,0 0.03,0 0.03,0 0.04,0.01 0.03,0 0.03,0 0.04,0 0.03,0 0.03,0 0.04,0 0.03,0.01 0.03,0 0.03,0 0.04,0 0.03,0 0.03,0 0.04,0 0.03,0 0.03,0.01 0.04,0 0.03,0 0.03,0 0.03,0 0.04,0 0.03,0 0.03,0 0.04,0.01 0.03,0 0.03,0 0.03,0 0.04,0 0.03,0 0.03,0 0.04,0 0.03,0.01 0.03,0 0.04,0 0.03,0 0.03,0 0.03,0 0.04,0 0.03,0 0.03,0.01 0.04,0 0.03,0 0.03,0 0.04,0 0.03,0 0.03,0 0.03,0 0.04,0.01 0.03,0 0.03,0 0.04,0 0.03,0 0.03,0 0.03,0 0.04,0 0.03,0.01 0.03,0 0.04,0 0.03,0 0.03,0 0.04,0 0.03,0 0.03,0 0.03,0.01 0.04,0 0.03,0 0.03,0 0.04,0 0.03,0 0.03,0 0.04,0 0.03,0.01 0.03,0 0.03,0 0.04,0 0.03,0 0.03,0 0.04,0 0.03,0 0.03,0 0.03,0.01 0.04,0 0.03,0 0.03,0 0.04,0 0.03,0 0.03,0 0.04,0 0.03,0 0.03,0.01 0.03,0 0.04,0 0.03,0 0.03,0 0.04,0 0.03,0 0.03,0 0.04,0.01 0.03,0 0.03,0 0.03,0 0.04,0 0.03,0 0.03,0 0.04,0 0.03,0 0.03,0.01 0.03,0 0.04,0 0.03,0 0.03,0 0.04,0 0.03,0 0.03,0 0.04,0 0.03,0.01 0.03,0 0.03,0 0.04,0 0.03,0 0.03,0 0.04,0 0.03,0 0.03,0 0.04,0 0.03,0.01 0.03,0 0.03,0 0.04,0 0.03,0 0.03,0 0.04,0 0.03,0 0.03,0 0.03,0.01 0.04,0 0.03,0 0.03,0 0.04,0 0.03,0 0.03,0 0.04,0 0.03,0 0.03,0 0.03,0.01 0.04,0 0.03,0 0.03,0 0.04,0 0.03,0 0.03,0 0.04,0 0.03,0 0.03,0.01 0.03,0 0.04,0 0.03,0 0.03,0 0.04,0 0.03,0 0.03,0 0.04,0 0.03,0 0.03,0.01 0.03,0 0.04,0 0.03,0 0.03,0 0.04,0 0.03,0 0.03,0 0.03,0 0.04,0 0.03,0.01 0.03,0 0.04,0 0.03,0 0.03,0 0.04,0 0.03,0 0.03,0 0.03,0 0.04,0 0.03,0.01 0.03,0 0.04,0 0.03,0 0.03,0 0.04,0 0.03,0 0.03,0 0.03,0 0.04,0 0.03,0 0.03,0.01 0.04,0 0.03,0 0.03,0 0.03,0 0.04,0 0.03,0 0.03,0 0.04,0 0.03,0 0.03,0.01 0.04,0 0.03,0 0.03,0 0.03,0 0.04,0 0.03,0 0.03,0 0.04,0 0.03,0 0.03,0 0.04,0.01 0.03,0 0.03,0 0.03,0 0.04,0 0.03,0 0.03,0 0.04,0 0.03,0 0.03,0 0.03,0 0.04,0.01 0.03,0 0.03,0 0.04,0 0.03,0 0.03,0 0.04,0 0.03,0 0.03,0 0.03,0 0.04,0 0.03,0.01 0.03,0 0.04,0 0.03,0 0.03,0 0.04,0 0.03,0 0.03,0 0.03,0 0.04,0 0.03,0 0.03,0 0.04,0.01 0.03,0 0.03,0 0.03,0 0.04,0 0.03,0 0.03,0 0.04,0 0.03,0 0.03,0 0.04,0 0.03,0 0.03,0.01 0.03,0 0.04,0 0.03,0 0.03,0 0.04,0 0.03,0 0.03,0 0.04,0 0.03,0 0.03,0 0.03,0 0.04,0.01 0.03,0 0.03,0 0.04,0 0.03,0 0.03,0 0.03,0 0.04,0 0.03,0 0.03,0 0.04,0 0.03,0 0.03,0.01 0.04,0 0.03,0 0.03,0 0.03,0 0.04,0 0.03,0 0.03,0 0.04,0 0.03,0 0.03,0 0.04,0 0.03,0.01 0.03,0 0.03,0 0.04,0 0.03,0 0.03,0 0.04,0 0.03,0 0.03,0 0.03,0 0.04,0 0.03,0 0.03,0 0.04,0.01 0.03,0 0.03,0 0.04,0 0.03,0 0.03,0 0.03,0 0.04,0 0.03,0 0.03,0 0.04,0 0.03,0 0.03,0 0.04,0.01 0.03,0 0.03,0 0.03,0 0.04,0 0.03,0 0.03,0 0.04,0 0.03,0 0.03,0 0.04,0 0.03,0 0.03,0 0.03,0 0.04,0.01 0.03,0 0.03,0 0.04,0 0.03,0 0.03,0 0.03,0 0.04,0 0.03,0 0.03,0 0.04,0 0.03,0 0.03,0 0.04,0.01 0.03,0 0.03,0 0.03,0 0.04,0 0.03,0 0.03,0 0.04,0 0.03,0 0.03,0 0.04,0 0.03,0 0.03,0 0.03,0 0.04,0 0.03,0.01 0.03,0 0.04,0 0.03,0 0.03,0 0.03,0 0.04,0 0.03,0 0.03,0 0.04,0 0.03,0 0.03,0 0.04,0 0.03,0 0.03,0.01 0.03,0 0.04,0 0.03,0 0.03,0 0.04,0 0.03,0 0.03,0 0.04,0 0.03,0 0.03,0 0.03,0 0.04,0 0.03,0 0.03,0 0.04,0.01 0.03,0 0.03,0 0.03,0 0.04,0 0.03,0 0.03,0 0.04,0 0.03,0 0.03,0 0.04,0 0.03,0 0.03,0 0.03,0 0.04,0 0.03,0.01 0.03,0 0.04,0 0.03,0 0.03,0 0.04,0 0.03,0 0.03,0 0.03,0 0.04,0 0.03,0 0.03,0 0.04,0 0.03,0 0.03,0 0.03,0 0.04,0.01 0.03,0 0.03,0 0.04,0 0.03,0 0.03,0 0.04,0 0.03,0 0.03,0 0.03,0 0.04,0 0.03,0 0.03,0 0.04,0 0.03,0 0.03,0 0.04,0.01 0.03,0 0.03,0 0.03,0 0.04,0 0.03,0 0.03,0 0.04,0 0.03,0 0.03,0 0.03,0 0.04,0 0.03,0 0.03,0 0.04,0 0.03,0 0.03,0 0.04,0.01 0.03,0 0.03,0 0.03,0 0.04,0 0.03,0 0.03,0 0.04,0 0.03,0 0.03,0 0.04,0 0.03,0 0.03,0 0.03,0 0.04,0 0.03,0 0.03,0 0.04,0.01 0.03,0 0.03,0 0.03,0 0.04,0 0.03,0 0.03,0 0.04,0 0.03,0 0.03,0 0.04,0 0.03,0 0.03,0 0.03,0 0.04,0 0.03,0 0.03,0 0.04,0 0.03,0.01 0.03,0 0.04,0 0.03,0 0.03,0 0.03,0 0.04,0 0.03,0 0.03,0 0.04,0 0.03,0 0.03,0 0.04,0 0.03,0 0.03,0 0.03,0 0.04,0 0.03,0 0.03,0 0.04,0.01 0.03,0 0.03,0 0.03,0 0.04,0 0.03,0 0.03,0 0.04,0 0.03,0 0.03,0 0.04,0 0.03,0 0.03,0 0.03,0 0.04,0 0.03,0 0.03,0 0.04,0 0.03,0 0.03,0.01 0.04,0 0.03,0 0.03,0 0.03,0 0.04,0 0.03,0 0.03,0 0.04,0 0.03,0 0.03,0 0.03,0 0.04,0 0.03,0 0.03,0 0.04,0 0.03,0 0.03,0 0.04,0 0.03,0 0.03,0.01 0.03,0 0.04,0 0.03,0 0.03,0 0.04,0 0.03,0 0.03,0 0.04,0 0.03,0 0.03,0 0.03,0 0.04,0 0.03,0 0.03,0 0.04,0 0.03,0 0.03,0 0.03,0 0.04,0 0.03,0.01 0.03,0 0.04,0 0.03,0 0.03,0 0.04,0 0.03,0 0.03,0 0.03,0 0.04,0 0.03,0 0.03,0 0.04,0 0.03,0 0.03,0 0.04,0 0.03,0 0.03,0 0.03,0 0.04,0 0.03,0 0.03,0 0.04,0.01 0.03,0 0.03,0 0.03,0 0.04,0 0.03,0 0.03,0 0.04,0 0.03,0 0.03,0 0.04,0 0.03,0 0.03,0 0.03,0 0.04,0 0.03,0 0.03,0 0.04,0 0.03,0 0.03,0 0.04,0 0.03,0 0.03,0.01 0.03,0 0.04,0 0.03,0 0.03,0 0.04,0 0.03,0 0.03,0 0.03,0 0.04,0 0.03,0 0.03,0 0.04,0 0.03,0 0.03,0 0.04,0 0.03,0 0.03,0 0.03,0 0.04,0 0.03,0 0.03,0 0.04,0 0.03,0 0.03,0.01 0.04,0 0.03,0 0.03,0 0.03,0 0.04,0 0.03,0 0.03,0 0.04,0 0.03,0 0.03,0 0.03,0 0.04,0 0.03,0 0.03,0 0.04,0 0.03,0 0.03,0 0.04,0 0.03,0 0.03,0 0.03,0 0.04,0 0.03,0 0.03,0.01 0.04,0 0.03,0 0.03,0 0.04,0 0.03,0 0.03,0 0.03,0 0.04,0 0.03,0 0.03,0 0.04,0 0.03,0 0.03,0 0.04,0 0.03,0 0.03,0 0.03,0 0.04,0 0.03,0 0.03,0 0.04,0 0.03,0 0.03,0 0.03,0 0.04,0 0.03,0.01 0.03,0 0.04,0 0.03,0 0.03,0 0.04,0 0.03,0 0.03,0 0.03,0 0.04,0 0.03,0 0.03,0 0.04,0 0.03,0 0.03,0 0.04,0 0.03,0 0.03,0 0.03,0 0.04,0 0.03,0 0.03,0 0.04,0 0.03,0 0.03,0 0.03,0 0.04,0 0.03,0.01 0.03,0 0.04,0 0.03,0 0.03,0 0.04,0 0.03,0 0.03,0 0.03,0 0.04,0 0.03,0 0.03,0 0.04,0 0.03,0 0.03,0 0.04,0 0.03,0 0.03,0 0.03,0 0.04,0 0.03,0 0.03,0 0.04,0 0.03,0 0.03,0 0.03,0 0.04,0 0.03,0 0.03,0.01 0.04,0 0.03,0 0.03,0 0.04,0 0.03,0 0.03,0 0.03,0 0.04,0 0.03,0 0.03,0 0.04,0 0.03,0 0.03,0 0.04,0 0.03,0 0.03,0 0.03,0 0.04,0 0.03,0 0.03,0 0.04,0 0.03,0 0.03,0 0.03,0 0.04,0 0.03,0 0.03,0 0.04,0 0.03,0 0.03,0.01 0.04,0 0.03,0 0.03,0 0.03,0 0.04,0 0.03,0 0.03,0 0.04,0 0.03,0 0.03,0 0.04,0 0.03,0 0.03,0 0.03,0 0.04,0 0.03,0 0.03,0 0.04,0 0.03,0 0.03,0 0.03,0 0.04,0 0.03,0 0.03,0 0.04,0 0.03,0 0.03,0 0.04,0 0.03,0 0.03,0 0.03,0 0.04,0.01 0.03,0 0.03,0 0.04,0 0.03,0 0.03,0 0.04,0 0.03,0 0.03,0 0.03,0 0.04,0 0.03,0 0.03,0 0.04,0 0.03,0 0.03,0 0.03,0 0.04,0 0.03,0 0.03,0 0.04,0 0.03,0 0.03,0 0.04,0 0.03,0 0.03,0 0.03,0 0.04,0 0.03,0 0.03,0 0.04,0 0.03,0 0.03,0 0.04,0 0.03,0.01 0.03,0 0.03,0 0.04,0 0.03,0 0.03,0 0.04,0 0.03,0 0.03,0 0.04,0 0.03,0 0.03,0 0.03,0 0.04,0 0.03,0 0.03,0 0.04,0 0.03,0 0.03,0 0.03,0 0.04,0 0.03,0 0.03,0 0.04,0 0.03,0 0.03,0 0.04,0 0.03,0 0.03,0 0.03,0 0.04,0 0.03,0 0.03,0 0.04,0 0.03,0 0.03,0 0.04,0.01 0.03,0 0.03,0 0.03,0 0.04,0 0.03,0 0.03,0 0.04,0 0.03,0 0.03,0 0.03,0 0.04,0 0.03,0 0.03,0 0.04,0 0.03,0 0.03,0 0.04,0 0.03,0 0.03,0 0.03,0 0.04,0 0.03,0 0.03,0 0.04,0 0.03,0 0.03,0 0.04,0 0.03,0 0.03,0 0.03,0 0.04,0 0.03,0 0.03,0 0.04,0 0.03,0 0.03,0 0.03,0 0.04,0 0.03,0.01 0.03,0 0.04,0 0.03,0 0.03,0 0.04,0 0.03,0 0.03,0 0.03,0 0.04,0 0.03,0 0.03,0 0.04,0 0.03,0 0.03,0 0.04,0 0.03,0 0.03,0 0.03,0 0.04,0 0.03,0 0.03,0 0.04,0 0.03,0 0.03,0 0.03,0 0.04,0 0.03,0 0.03,0 0.04,0 0.03,0 0.03,0 0.04,0 0.03,0 0.03,0 0.03,0 0.04,0 0.03,0 0.03,0 0.04,0 0.03,0 0.03,0 0.04,0.01 0.03,0 0.03,0 0.03,0 0.04,0 0.03,0 0.03,0 0.04,0 0.03,0 0.03,0 0.03,0 0.04,0 0.03,0 0.03,0 0.04,0 0.03,0 0.03,0 0.04,0 0.03,0 0.03,0 0.03,0 0.04,0 0.03,0 0.03,0 0.04,0 0.03,0 0.03,0 0.04,0 0.03,0 0.03,0 0.03,0 0.04,0 0.03,0 0.03,0 0.04,0 0.03,0 0.03,0 0.03,0 0.04,0 0.03,0 0.03,0 0.04,0 0.03,0 0.03,0 0.04,0 0.03,0 0.03,0.01 0.03,0 0.04,0 0.03,0 0.03,0 0.04,0 0.03,0 0.03,0 0.04,0 0.03,0 0.03,0 0.03,0 0.04,0 0.03,0 0.03,0 0.04,0 0.03,0 0.03,0 0.04,0 0.03,0 0.03,0 0.03,0 0.04,0 0.03,0 0.03,0 0.04,0 0.03,0 0.03,0 0.03,0 0.04,0 0.03,0 0.03,0 0.04,0 0.03,0 0.03,0 0.04,0 0.03,0 0.03,0 0.03,0 0.04,0 0.03,0 0.03,0 0.04,0 0.03,0 0.03,0 0.04,0 0.03,0 0.03,0 0.03,0 0.04,0 0.03,0 0.03,0.01 0.04,0 0.03,0 0.03,0 0.03,0 0.04,0 0.03,0 0.03,0 0.04,0 0.03,0 0.03,0 0.04,0 0.03,0 0.03,0 0.03,0 0.04,0 0.03,0 0.03,0 0.04,0 0.03,0 0.03,0 0.04,0 0.03,0 0.03,0 0.03,0 0.04,0 0.03,0 0.03,0 0.04,0 0.03,0 0.03,0 0.03,0 0.04,0 0.03,0 0.03,0 0.04,0 0.03,0 0.03,0 0.04,0"
       style="fill:none;stroke:#4592d1;stroke-width:1.05999994;stroke-linecap:butt;stroke-linejoin:round;stroke-miterlimit:1;stroke-dasharray:none;stroke-opacity:1"
       id="path66"
       inkscape:connector-curvature="0" /><path
       d="m 54.84,120.88 0.03,-1.38 0.03,-1.32 0.04,-1.27 0.03,-1.22 0.03,-1.17 0.03,-1.13 0.04,-1.08 0.03,-1.04 0.03,-1 0.04,-0.97 0.03,-0.93 0.03,-0.9 0.04,-0.87 0.03,-0.84 0.03,-0.81 0.03,-0.78 0.04,-0.76 0.03,-0.74 0.03,-0.71 0.04,-0.69 0.03,-0.67 0.03,-0.65 0.04,-0.63 0.03,-0.62 0.03,-0.59 0.03,-0.58 0.04,-0.56 0.03,-0.55 0.03,-0.53 0.04,-0.52 0.03,-0.5 0.03,-0.49 0.03,-0.48 0.04,-0.46 0.03,-0.46 0.03,-0.44 0.04,-0.43 0.03,-0.42 0.03,-0.41 0.04,-0.4 0.03,-0.4 0.03,-0.38 0.03,-0.37 0.04,-0.37 0.03,-0.35 0.03,-0.35 0.04,-0.35 0.03,-0.33 0.03,-0.33 0.04,-0.32 0.03,-0.31 0.03,-0.31 0.03,-0.3 0.04,-0.29 0.03,-0.29 0.03,-0.28 0.04,-0.28 0.03,-0.27 0.03,-0.26 0.03,-0.27 0.04,-0.25 0.03,-0.25 0.03,-0.25 0.04,-0.24 0.03,-0.24 0.03,-0.23 0.04,-0.23 0.03,-0.22 0.03,-0.22 0.03,-0.22 0.04,-0.21 0.03,-0.21 0.03,-0.21 0.04,-0.2 0.03,-0.2 0.03,-0.19 0.04,-0.2 0.03,-0.18 0.03,-0.19 0.03,-0.18 0.04,-0.18 0.03,-0.18 0.03,-0.17 0.04,-0.17 0.03,-0.17 0.03,-0.17 0.04,-0.16 0.03,-0.16 0.03,-0.16 0.03,-0.16 0.04,-0.15 0.03,-0.15 0.03,-0.15 0.04,-0.15 0.03,-0.14 0.03,-0.15 0.03,-0.14 0.04,-0.14 0.03,-0.13 0.03,-0.14 0.04,-0.13 0.03,-0.13 0.03,-0.13 0.04,-0.13 0.03,-0.13 0.03,-0.12 0.03,-0.12 0.04,-0.13 0.03,-0.12 0.03,-0.11 0.04,-0.12 0.03,-0.11 0.03,-0.12 0.04,-0.11 0.03,-0.11 0.03,-0.11 0.03,-0.11 0.04,-0.11 0.03,-0.1 0.03,-0.1 0.04,-0.11 0.03,-0.1 0.03,-0.1 0.03,-0.1 0.04,-0.1 0.03,-0.09 0.03,-0.1 0.04,-0.09 0.03,-0.1 0.03,-0.09 0.04,-0.09 0.03,-0.09 0.03,-0.09 0.03,-0.09 0.04,-0.09 0.03,-0.08 0.03,-0.09 0.04,-0.09 0.03,-0.08 0.03,-0.08 0.04,-0.08 0.03,-0.09 0.03,-0.08 0.03,-0.08 0.04,-0.07 0.03,-0.08 0.03,-0.08 0.04,-0.08 0.03,-0.07 0.03,-0.08 0.03,-0.07 0.04,-0.08 0.03,-0.07 0.03,-0.07 0.04,-0.07 0.03,-0.07 0.03,-0.07 0.04,-0.07 0.03,-0.07 0.03,-0.07 0.03,-0.07 0.04,-0.06 0.03,-0.07 0.03,-0.07 0.04,-0.06 0.03,-0.07 0.03,-0.06 0.04,-0.06 0.03,-0.07 0.03,-0.06 0.03,-0.06 0.04,-0.06 0.03,-0.06 0.03,-0.06 0.04,-0.06 0.03,-0.06 0.03,-0.06 0.03,-0.06 0.04,-0.06 0.03,-0.05 0.03,-0.06 0.04,-0.06 0.03,-0.05 0.03,-0.06 0.04,-0.06 0.03,-0.05 0.03,-0.05 0.03,-0.06 0.04,-0.05 0.03,-0.06 0.03,-0.05 0.04,-0.05 0.03,-0.05 0.03,-0.05 0.04,-0.06 0.03,-0.05 0.03,-0.05 0.03,-0.05 0.04,-0.05 0.03,-0.05 0.03,-0.05 0.04,-0.04 0.03,-0.05 0.03,-0.05 0.03,-0.05 0.04,-0.05 0.03,-0.04 0.03,-0.05 0.04,-0.05 0.03,-0.04 0.03,-0.05 0.04,-0.05 0.03,-0.04 0.03,-0.05 0.03,-0.04 0.04,-0.05 0.03,-0.04 0.03,-0.04 0.04,-0.05 0.03,-0.04 0.03,-0.04 0.04,-0.05 0.03,-0.04 0.03,-0.04 0.03,-0.05 0.04,-0.04 0.03,-0.04 0.03,-0.04 0.04,-0.04 0.03,-0.04 0.03,-0.04 0.03,-0.05 0.04,-0.04 0.03,-0.04 0.03,-0.04 0.04,-0.04 0.03,-0.04 0.03,-0.03 0.04,-0.04 0.03,-0.04 0.03,-0.04 0.03,-0.04 0.04,-0.04 0.03,-0.04 0.03,-0.04 0.04,-0.03 0.03,-0.04 0.03,-0.04 0.04,-0.04 0.03,-0.03 0.03,-0.04 0.03,-0.04 0.04,-0.03 0.03,-0.04 0.03,-0.04 0.04,-0.03 0.03,-0.04 0.03,-0.03 0.04,-0.04 0.03,-0.03 0.03,-0.04 0.03,-0.04 0.04,-0.03 0.03,-0.04 0.03,-0.03 0.04,-0.03 0.03,-0.04 0.03,-0.03 0.03,-0.04 0.04,-0.03 0.03,-0.04 0.03,-0.03 0.04,-0.03 0.03,-0.04 0.03,-0.03 0.04,-0.03 0.03,-0.04 0.03,-0.03 0.03,-0.03 0.04,-0.03 0.03,-0.04 0.03,-0.03 0.04,-0.03 0.03,-0.03 0.03,-0.04 0.04,-0.03 0.03,-0.03 0.03,-0.03 0.03,-0.03 0.04,-0.04 0.03,-0.03 0.03,-0.03 0.04,-0.03 0.03,-0.03 0.03,-0.03 0.03,-0.03 0.04,-0.03 0.03,-0.04 0.03,-0.03 0.04,-0.03 0.03,-0.03 0.03,-0.03 0.04,-0.03 0.03,-0.03 0.03,-0.03 0.03,-0.03 0.04,-0.03 0.03,-0.03 0.03,-0.03 0.04,-0.03 0.03,-0.03 0.03,-0.03 0.04,-0.03 0.03,-0.03 0.03,-0.03 0.03,-0.02 0.04,-0.03 0.03,-0.03 0.03,-0.03 0.04,-0.03 0.03,-0.03 0.03,-0.03 0.03,-0.03 0.04,-0.03 0.03,-0.02 0.03,-0.03 0.04,-0.03 0.03,-0.03 0.03,-0.03 0.04,-0.03 0.03,-0.02 0.03,-0.03 0.03,-0.03 0.04,-0.03 0.03,-0.03 0.03,-0.02 0.04,-0.03 0.03,-0.03 0.03,-0.03 0.04,-0.02 0.03,-0.03 0.03,-0.03 0.03,-0.03 0.04,-0.02 0.03,-0.03 0.03,-0.03 0.04,-0.03 0.03,-0.02 0.03,-0.03 0.03,-0.03 0.04,-0.02 0.03,-0.03 0.03,-0.03 0.04,-0.02 0.03,-0.03 0.03,-0.03 0.04,-0.02 0.03,-0.03 0.03,-0.03 0.03,-0.02 0.04,-0.03 0.03,-0.03 0.03,-0.02 0.04,-0.03 0.03,-0.02 0.03,-0.03 0.04,-0.03 0.03,-0.02 0.03,-0.03 0.03,-0.02 0.04,-0.03 0.03,-0.03 0.03,-0.02 0.04,-0.03 0.03,-0.02 0.03,-0.03 0.03,-0.03 0.04,-0.02 0.03,-0.03 0.03,-0.02 0.04,-0.03 0.03,-0.02 0.03,-0.03 0.04,-0.02 0.03,-0.03 0.03,-0.02 0.03,-0.03 0.04,-0.02 0.03,-0.03 0.03,-0.02 0.04,-0.03 0.03,-0.03 0.03,-0.02 0.04,-0.03 0.03,-0.02 0.03,-0.02 0.03,-0.03 0.04,-0.02 0.03,-0.03 0.03,-0.02 0.04,-0.03 0.03,-0.02 0.03,-0.03 0.03,-0.02 0.04,-0.03 0.03,-0.02 0.03,-0.03 0.04,-0.02 0.03,-0.03 0.03,-0.02 0.04,-0.02 0.03,-0.03 0.03,-0.02 0.03,-0.03 0.04,-0.02 0.03,-0.03 0.03,-0.02 0.04,-0.02 0.03,-0.03 0.03,-0.02 0.04,-0.03 0.03,-0.02 0.03,-0.02 0.03,-0.03 0.04,-0.02 0.03,-0.03 0.03,-0.02 0.04,-0.02 0.03,-0.03 0.03,-0.02 0.04,-0.03 0.03,-0.02 0.03,-0.02 0.03,-0.03 0.04,-0.02 0.03,-0.02 0.03,-0.03 0.04,-0.02 0.03,-0.03 0.03,-0.02 0.03,-0.02 0.04,-0.03 0.03,-0.02 0.03,-0.02 0.04,-0.03 0.03,-0.02 0.03,-0.02 0.04,-0.03 0.03,-0.02 0.03,-0.02 0.03,-0.03 0.04,-0.02 0.03,-0.02 0.03,-0.03 0.04,-0.02 0.03,-0.02 0.03,-0.03 0.04,-0.02 0.03,-0.02 0.03,-0.03 0.03,-0.02 0.04,-0.02 0.03,-0.02 0.03,-0.03 0.04,-0.02 0.03,-0.02 0.03,-0.03 0.03,-0.02 0.04,-0.02 0.03,-0.02 0.03,-0.03 0.04,-0.02 0.03,-0.02 0.03,-0.03 0.04,-0.02 0.03,-0.02 0.03,-0.02 0.03,-0.03 0.04,-0.02 0.03,-0.02 0.03,-0.02 0.04,-0.03 0.03,-0.02 0.03,-0.02 0.04,-0.02 0.03,-0.03 0.03,-0.02 0.03,-0.02 0.04,-0.02 0.03,-0.03 0.03,-0.02 0.04,-0.02 0.03,-0.02 0.03,-0.03 0.03,-0.02 0.04,-0.02 0.03,-0.02 0.03,-0.03 0.04,-0.02 0.03,-0.02 0.03,-0.02 0.04,-0.02 0.03,-0.03 0.03,-0.02 0.03,-0.02 0.04,-0.02 0.03,-0.03 0.03,-0.02 0.04,-0.02 0.03,-0.02 0.03,-0.02 0.04,-0.03 0.03,-0.02 0.03,-0.02 0.03,-0.02 0.04,-0.02 0.03,-0.03 0.03,-0.02 0.04,-0.02 0.03,-0.02 0.03,-0.02 0.03,-0.02 0.04,-0.03 0.03,-0.02 0.03,-0.02 0.04,-0.02 0.03,-0.02 0.03,-0.03 0.04,-0.02 0.03,-0.02 0.03,-0.02 0.03,-0.02 0.04,-0.02 0.03,-0.03 0.03,-0.02 0.04,-0.02 0.03,-0.02 0.03,-0.02 0.04,-0.02 0.03,-0.02 0.03,-0.03 0.03,-0.02 0.04,-0.02 0.03,-0.02 0.03,-0.02 0.04,-0.02 0.03,-0.02 0.03,-0.03 0.03,-0.02 0.04,-0.02 0.03,-0.02 0.03,-0.02 0.04,-0.02 0.03,-0.02 0.03,-0.02 0.04,-0.03 0.03,-0.02 0.03,-0.02 0.03,-0.02 0.04,-0.02 0.03,-0.02 0.03,-0.02 0.04,-0.02 0.03,-0.03 0.03,-0.02 0.04,-0.02 0.03,-0.02 0.03,-0.02 0.03,-0.02 0.04,-0.02 0.03,-0.02 0.03,-0.02 0.04,-0.02 0.03,-0.03 0.03,-0.02 0.03,-0.02 0.04,-0.02 0.03,-0.02 0.03,-0.02 0.04,-0.02 0.03,-0.02 0.03,-0.02 0.04,-0.02 0.03,-0.02 0.03,-0.02 0.03,-0.02 0.04,-0.03 0.03,-0.02 0.03,-0.02 0.04,-0.02 0.03,-0.02 0.03,-0.02 0.04,-0.02 0.03,-0.02 0.03,-0.02 0.03,-0.02 0.04,-0.02 0.03,-0.02 0.03,-0.02 0.04,-0.02 0.03,-0.02 0.03,-0.02 0.04,-0.02 0.03,-0.02 0.03,-0.03 0.03,-0.02 0.04,-0.02 0.03,-0.02 0.03,-0.02 0.04,-0.02 0.03,-0.02 0.03,-0.02 0.03,-0.02 0.04,-0.02 0.03,-0.02 0.03,-0.02 0.04,-0.02 0.03,-0.02 0.03,-0.02 0.04,-0.02 0.03,-0.02 0.03,-0.02 0.03,-0.02 0.04,-0.02 0.03,-0.02 0.03,-0.02 0.04,-0.02 0.03,-0.02 0.03,-0.02 0.04,-0.02 0.03,-0.02 0.03,-0.02 0.03,-0.02 0.04,-0.02 0.03,-0.02 0.03,-0.02 0.04,-0.02 0.03,-0.02 0.03,-0.02 0.03,-0.02 0.04,-0.02 0.03,-0.02 0.03,-0.02 0.04,-0.02 0.03,-0.02 0.03,-0.02 0.04,-0.02 0.03,-0.02 0.03,-0.02 0.03,-0.02 0.04,-0.02 0.03,-0.01 0.03,-0.02 0.04,-0.02 0.03,-0.02 0.03,-0.02 0.04,-0.02 0.03,-0.02 0.03,-0.02 0.03,-0.02 0.04,-0.02 0.03,-0.02 0.03,-0.02 0.04,-0.02 0.03,-0.02 0.03,-0.02 0.03,-0.02 0.04,-0.02 0.03,-0.02 0.03,-0.01 0.04,-0.02 0.03,-0.02 0.03,-0.02 0.04,-0.02 0.03,-0.02 0.03,-0.02 0.03,-0.02 0.04,-0.02 0.03,-0.02 0.03,-0.02 0.04,-0.02 0.03,-0.02 0.03,-0.01 0.04,-0.02 0.03,-0.02 0.03,-0.02 0.03,-0.02 0.04,-0.02 0.03,-0.02 0.03,-0.02 0.04,-0.02 0.03,-0.02 0.03,-0.01 0.03,-0.02 0.04,-0.02 0.03,-0.02 0.03,-0.02 0.04,-0.02 0.03,-0.02 0.03,-0.02 0.04,-0.01 0.03,-0.02 0.03,-0.02 0.03,-0.02 0.04,-0.02 0.03,-0.02 0.03,-0.02 0.04,-0.02 0.03,-0.01 0.03,-0.02 0.04,-0.02 0.03,-0.02 0.03,-0.02 0.03,-0.02 0.04,-0.02 0.03,-0.01 0.03,-0.02 0.04,-0.02 0.03,-0.02 0.03,-0.02 0.03,-0.02 0.04,-0.02 0.03,-0.01 0.03,-0.02 0.04,-0.02 0.03,-0.02 0.03,-0.02 0.04,-0.02 0.03,-0.01 0.03,-0.02 0.03,-0.02 0.04,-0.02 0.03,-0.02 0.03,-0.01 0.04,-0.02 0.03,-0.02 0.03,-0.02 0.04,-0.02 0.03,-0.02 0.03,-0.01 0.03,-0.02 0.04,-0.02 0.03,-0.02 0.03,-0.02 0.04,-0.01 0.03,-0.02 0.03,-0.02 0.03,-0.02 0.04,-0.02 0.03,-0.01 0.03,-0.02 0.04,-0.02 0.03,-0.02 0.03,-0.02 0.04,-0.01 0.03,-0.02 0.03,-0.02 0.03,-0.02 0.04,-0.01 0.03,-0.02 0.03,-0.02 0.04,-0.02 0.03,-0.01 0.03,-0.02 0.04,-0.02 0.03,-0.02 0.03,-0.02 0.03,-0.01 0.04,-0.02 0.03,-0.02 0.03,-0.02 0.04,-0.01 0.03,-0.02 0.03,-0.02 0.04,-0.02 0.03,-0.01 0.03,-0.02 0.03,-0.02 0.04,-0.02 0.03,-0.01 0.03,-0.02 0.04,-0.02 0.03,-0.02 0.03,-0.01 0.03,-0.02 0.04,-0.02 0.03,-0.01 0.03,-0.02 0.04,-0.02 0.03,-0.02 0.03,-0.01 0.04,-0.02 0.03,-0.02 0.03,-0.01 0.03,-0.02 0.04,-0.02 0.03,-0.02 0.03,-0.01 0.04,-0.02 0.03,-0.02 0.03,-0.01 0.04,-0.02 0.03,-0.02 0.03,-0.01 0.03,-0.02 0.04,-0.02 0.03,-0.02 0.03,-0.01 0.04,-0.02 0.03,-0.02 0.03,-0.01 0.03,-0.02 0.04,-0.02 0.03,-0.01 0.03,-0.02 0.04,-0.02 0.03,-0.01 0.03,-0.02 0.04,-0.02 0.03,-0.01 0.03,-0.02 0.03,-0.02 0.04,-0.01 0.03,-0.02 0.03,-0.02 0.04,-0.01 0.03,-0.02 0.03,-0.02 0.04,-0.01 0.03,-0.02 0.03,-0.02 0.03,-0.01 0.04,-0.02 0.03,-0.02 0.03,-0.01 0.04,-0.02 0.03,-0.01 0.03,-0.02 0.03,-0.02 0.04,-0.01 0.03,-0.02 0.03,-0.02 0.04,-0.01 0.03,-0.02 0.03,-0.01 0.04,-0.02 0.03,-0.02 0.03,-0.01 0.03,-0.02 0.04,-0.02 0.03,-0.01 0.03,-0.02 0.04,-0.01 0.03,-0.02 0.03,-0.02 0.04,-0.01 0.03,-0.02 0.03,-0.01 0.03,-0.02 0.04,-0.02 0.03,-0.01 0.03,-0.02 0.04,-0.01 0.03,-0.02 0.03,-0.02 0.03,-0.01 0.04,-0.02 0.03,-0.01 0.03,-0.02 0.04,-0.01 0.03,-0.02 0.03,-0.02 0.04,-0.01 0.03,-0.02 0.03,-0.01 0.03,-0.02 0.04,-0.01 0.03,-0.02 0.03,-0.02 0.04,-0.01 0.03,-0.02 0.03,-0.01 0.04,-0.02 0.03,-0.01 0.03,-0.02 0.03,-0.01 0.04,-0.02 0.03,-0.02 0.03,-0.01 0.04,-0.02 0.03,-0.01 0.03,-0.02 0.03,-0.01 0.04,-0.02 0.03,-0.01 0.03,-0.02 0.04,-0.01 0.03,-0.02 0.03,-0.01 0.04,-0.02 0.03,-0.01 0.03,-0.02 0.03,-0.01 0.04,-0.02 0.03,-0.01 0.03,-0.02 0.04,-0.02 0.03,-0.01 0.03,-0.02 0.04,-0.01 0.03,-0.02 0.03,-0.01 0.03,-0.02 0.04,-0.01 0.03,-0.02 0.03,-0.01 0.04,-0.02 0.03,-0.01 0.03,-0.01 0.03,-0.02 0.04,-0.01 0.03,-0.02 0.03,-0.01 0.04,-0.02 0.03,-0.01 0.03,-0.02 0.04,-0.01 0.03,-0.02 0.03,-0.01 0.03,-0.02 0.04,-0.01 0.03,-0.02 0.03,-0.01 0.04,-0.02 0.03,-0.01 0.03,-0.02 0.04,-0.01 0.03,-0.01 0.03,-0.02 0.03,-0.01 0.04,-0.02 0.03,-0.01 0.03,-0.02 0.04,-0.01 0.03,-0.02 0.03,-0.01 0.04,-0.01 0.03,-0.02 0.03,-0.01 0.03,-0.02 0.04,-0.01 0.03,-0.02 0.03,-0.01 0.04,-0.01 0.03,-0.02 0.03,-0.01 0.03,-0.02 0.04,-0.01 0.03,-0.02 0.03,-0.01 0.04,-0.01 0.03,-0.02 0.03,-0.01 0.04,-0.02 0.03,-0.01 0.03,-0.01 0.03,-0.02 0.04,-0.01 0.03,-0.02 0.03,-0.01 0.04,-0.01 0.03,-0.02 0.03,-0.01 0.04,-0.02 0.03,-0.01 0.03,-0.01 0.03,-0.02 0.04,-0.01 0.03,-0.01 0.03,-0.02 0.04,-0.01 0.03,-0.02 0.03,-0.01 0.03,-0.01 0.04,-0.02 0.03,-0.01 0.03,-0.01 0.04,-0.02 0.03,-0.01 0.03,-0.02 0.04,-0.01 0.03,-0.01 0.03,-0.02 0.03,-0.01 0.04,-0.01 0.03,-0.02 0.03,-0.01 0.04,-0.01 0.03,-0.02 0.03,-0.01 0.04,-0.01 0.03,-0.02 0.03,-0.01 0.03,-0.01 0.04,-0.02 0.03,-0.01 0.03,-0.01 0.04,-0.02 0.03,-0.01 0.03,-0.01 0.03,-0.02 0.04,-0.01 0.03,-0.01 0.03,-0.02 0.04,-0.01 0.03,-0.01 0.03,-0.02 0.04,-0.01 0.03,-0.01 0.03,-0.02 0.03,-0.01 0.04,-0.01 0.03,-0.02 0.03,-0.01 0.04,-0.01 0.03,-0.01 0.03,-0.02 0.04,-0.01 0.03,-0.01 0.03,-0.02 0.03,-0.01 0.04,-0.01 0.03,-0.01 0.03,-0.02 0.04,-0.01 0.03,-0.01 0.03,-0.02 0.03,-0.01 0.04,-0.01 0.03,-0.01 0.03,-0.02 0.04,-0.01 0.03,-0.01 0.03,-0.01 0.04,-0.02 0.03,-0.01 0.03,-0.01 0.03,-0.02 0.04,-0.01 0.03,-0.01 0.03,-0.01 0.04,-0.02 0.03,-0.01 0.03,-0.01 0.04,-0.01 0.03,-0.02 0.03,-0.01 0.03,-0.01 0.04,-0.01 0.03,-0.02 0.03,-0.01 0.04,-0.01 0.03,-0.01 0.03,-0.01 0.03,-0.02 0.04,-0.01 0.03,-0.01 0.03,-0.01 0.04,-0.02 0.03,-0.01 0.03,-0.01 0.04,-0.01 0.03,-0.01 0.03,-0.02 0.03,-0.01 0.04,-0.01 0.03,-0.01 0.03,-0.02 0.04,-0.01 0.03,-0.01 0.03,-0.01 0.04,-0.01 0.03,-0.02 0.03,-0.01 0.03,-0.01 0.04,-0.01 0.03,-0.01 0.03,-0.02 0.04,-0.01 0.03,-0.01 0.03,-0.01 0.04,-0.01 0.03,-0.01 0.03,-0.02 0.03,-0.01 0.04,-0.01 0.03,-0.01 0.03,-0.01 0.04,-0.02 0.03,-0.01 0.03,-0.01 0.03,-0.01 0.04,-0.01 0.03,-0.01 0.03,-0.02 0.04,-0.01 0.03,-0.01 0.03,-0.01 0.04,-0.01 0.03,-0.01 0.03,-0.02 0.03,-0.01 0.04,-0.01 0.03,-0.01 0.03,-0.01 0.04,-0.01 0.03,-0.01 0.03,-0.02 0.04,-0.01 0.03,-0.01 0.03,-0.01 0.03,-0.01 0.04,-0.01 0.03,-0.01 0.03,-0.01 0.04,-0.02 0.03,-0.01 0.03,-0.01 0.03,-0.01 0.04,-0.01 0.03,-0.01 0.03,-0.01 0.04,-0.01 0.03,-0.02 0.03,-0.01 0.04,-0.01 0.03,-0.01 0.03,-0.01 0.03,-0.01 0.04,-0.01 0.03,-0.01 0.03,-0.01 0.04,-0.02 0.03,-0.01 0.03,-0.01 0.04,-0.01 0.03,-0.01 0.03,-0.01 0.03,-0.01 0.04,-0.01 0.03,-0.01 0.03,-0.01 0.04,-0.02 0.03,-0.01 0.03,-0.01 0.03,-0.01 0.04,-0.01 0.03,-0.01 0.03,-0.01 0.04,-0.01 0.03,-0.01 0.03,-0.01 0.04,-0.01 0.03,-0.01 0.03,-0.01 0.03,-0.01 0.04,-0.02 0.03,-0.01 0.03,-0.01 0.04,-0.01 0.03,-0.01 0.03,-0.01 0.04,-0.01 0.03,-0.01 0.03,-0.01 0.03,-0.01 0.04,-0.01 0.03,-0.01 0.03,-0.01 0.04,-0.01 0.03,-0.01 0.03,-0.01 0.03,-0.01 0.04,-0.01 0.03,-0.01 0.03,-0.01 0.04,-0.02 0.03,-0.01 0.03,-0.01 0.04,-0.01 0.03,-0.01 0.03,-0.01 0.03,-0.01 0.04,-0.01 0.03,-0.01 0.03,-0.01 0.04,-0.01 0.03,-0.01 0.03,-0.01 0.04,-0.01 0.03,-0.01 0.03,-0.01 0.03,-0.01 0.04,-0.01 0.03,-0.01 0.03,-0.01 0.04,-0.01 0.03,-0.01 0.03,-0.01 0.03,-0.01 0.04,-0.01 0.03,-0.01 0.03,-0.01 0.04,-0.01 0.03,-0.01 0.03,-0.01 0.04,-0.01 0.03,-0.01 0.03,-0.01 0.03,-0.01 0.04,-0.01 0.03,-0.01 0.03,-0.01 0.04,-0.01 0.03,-0.01 0.03,-0.01 0.04,-0.01 0.03,-0.01 0.03,-0.01 0.03,0 0.04,-0.01 0.03,-0.01 0.03,-0.01 0.04,-0.01 0.03,-0.01 0.03,-0.01 0.03,-0.01 0.04,-0.01 0.03,-0.01 0.03,-0.01 0.04,-0.01 0.03,-0.01 0.03,-0.01 0.04,-0.01 0.03,-0.01 0.03,-0.01 0.03,-0.01 0.04,-0.01 0.03,-0.01 0.03,-0.01 0.04,0 0.03,-0.01 0.03,-0.01 0.04,-0.01 0.03,-0.01 0.03,-0.01 0.03,-0.01 0.04,-0.01 0.03,-0.01 0.03,-0.01 0.04,-0.01 0.03,-0.01 0.03,-0.01 0.04,-0.01 0.03,0 0.03,-0.01 0.03,-0.01 0.04,-0.01 0.03,-0.01 0.03,-0.01 0.04,-0.01 0.03,-0.01 0.03,-0.01 0.03,-0.01 0.04,-0.01 0.03,0 0.03,-0.01 0.04,-0.01 0.03,-0.01 0.03,-0.01 0.04,-0.01 0.03,-0.01 0.03,-0.01 0.03,-0.01 0.04,0 0.03,-0.01 0.03,-0.01 0.04,-0.01 0.03,-0.01 0.03,-0.01 0.04,-0.01 0.03,-0.01 0.03,-0.01 0.03,0 0.04,-0.01 0.03,-0.01 0.03,-0.01 0.04,-0.01 0.03,-0.01 0.03,-0.01 0.03,0 0.04,-0.01 0.03,-0.01 0.03,-0.01 0.04,-0.01 0.03,-0.01 0.03,-0.01 0.04,-0.01 0.03,0 0.03,-0.01 0.03,-0.01 0.04,-0.01 0.03,-0.01 0.03,-0.01 0.04,0 0.03,-0.01 0.03,-0.01 0.04,-0.01 0.03,-0.01 0.03,-0.01 0.03,-0.01 0.04,0 0.03,-0.01 0.03,-0.01 0.04,-0.01 0.03,-0.01 0.03,-0.01 0.03,0 0.04,-0.01 0.03,-0.01 0.03,-0.01 0.04,-0.01 0.03,0 0.03,-0.01 0.04,-0.01 0.03,-0.01 0.03,-0.01 0.03,-0.01 0.04,0 0.03,-0.01 0.03,-0.01 0.04,-0.01 0.03,-0.01 0.03,0 0.04,-0.01 0.03,-0.01 0.03,-0.01 0.03,-0.01 0.04,0 0.03,-0.01 0.03,-0.01 0.04,-0.01 0.03,-0.01 0.03,0 0.03,-0.01 0.04,-0.01 0.03,-0.01 0.03,-0.01 0.04,0 0.03,-0.01 0.03,-0.01 0.04,-0.01 0.03,-0.01 0.03,0 0.03,-0.01 0.04,-0.01 0.03,-0.01 0.03,0 0.04,-0.01 0.03,-0.01 0.03,-0.01 0.04,-0.01 0.03,0 0.03,-0.01 0.03,-0.01 0.04,-0.01 0.03,0 0.03,-0.01 0.04,-0.01 0.03,-0.01 0.03,0 0.03,-0.01 0.04,-0.01 0.03,-0.01 0.03,0 0.04,-0.01 0.03,-0.01 0.03,-0.01 0.04,-0.01 0.03,0 0.03,-0.01 0.03,-0.01 0.04,-0.01 0.03,0 0.03,-0.01 0.04,-0.01 0.03,0 0.03,-0.01 0.04,-0.01 0.03,-0.01 0.03,0 0.03,-0.01 0.04,-0.01 0.03,-0.01 0.03,0 0.04,-0.01 0.03,-0.01 0.03,-0.01 0.03,0 0.04,-0.01 0.03,-0.01 0.03,0 0.04,-0.01 0.03,-0.01 0.03,-0.01 0.04,0 0.03,-0.01 0.03,-0.01 0.03,0 0.04,-0.01 0.03,-0.01 0.03,-0.01 0.04,0 0.03,-0.01 0.03,-0.01 0.04,0 0.03,-0.01 0.03,-0.01 0.03,-0.01 0.04,0 0.03,-0.01 0.03,-0.01 0.04,0 0.03,-0.01 0.03,-0.01 0.04,0 0.03,-0.01 0.03,-0.01 0.03,-0.01 0.04,0 0.03,-0.01 0.03,-0.01 0.04,0 0.03,-0.01 0.03,-0.01 0.03,0 0.04,-0.01 0.03,-0.01 0.03,0 0.04,-0.01 0.03,-0.01 0.03,0 0.04,-0.01 0.03,-0.01 0.03,0 0.03,-0.01 0.04,-0.01 0.03,0 0.03,-0.01 0.04,-0.01 0.03,0 0.03,-0.01 0.04,-0.01 0.03,0 0.03,-0.01 0.03,-0.01 0.04,0 0.03,-0.01 0.03,-0.01 0.04,0 0.03,-0.01 0.03,-0.01 0.03,0 0.04,-0.01 0.03,-0.01 0.03,0 0.04,-0.01 0.03,-0.01 0.03,0 0.04,-0.01 0.03,-0.01 0.03,0 0.03,-0.01 0.04,0 0.03,-0.01 0.03,-0.01 0.04,0 0.03,-0.01 0.03,-0.01 0.04,0 0.03,-0.01 0.03,-0.01 0.03,0 0.04,-0.01 0.03,0 0.03,-0.01 0.04,-0.01 0.03,0 0.03,-0.01 0.03,-0.01 0.04,0 0.03,-0.01 0.03,0 0.04,-0.01 0.03,-0.01 0.03,0 0.04,-0.01 0.03,-0.01 0.03,0 0.03,-0.01 0.04,0 0.03,-0.01 0.03,-0.01 0.04,0 0.03,-0.01 0.03,0 0.04,-0.01 0.03,-0.01 0.03,0 0.03,-0.01 0.04,0 0.03,-0.01 0.03,-0.01 0.04,0 0.03,-0.01 0.03,0 0.03,-0.01 0.04,-0.01 0.03,0 0.03,-0.01 0.04,0 0.03,-0.01 0.03,-0.01 0.04,0 0.03,-0.01 0.03,0 0.03,-0.01 0.04,0 0.03,-0.01 0.03,-0.01 0.04,0 0.03,-0.01 0.03,0 0.04,-0.01 0.03,-0.01 0.03,0 0.03,-0.01 0.04,0 0.03,-0.01 0.03,0 0.04,-0.01 0.03,-0.01 0.03,0 0.03,-0.01 0.04,0 0.03,-0.01 0.03,0 0.04,-0.01 0.03,-0.01 0.03,0 0.04,-0.01 0.03,0 0.03,-0.01 0.03,0 0.04,-0.01 0.03,0 0.03,-0.01 0.04,-0.01 0.03,0 0.03,-0.01 0.04,0 0.03,-0.01 0.03,0 0.03,-0.01 0.04,0 0.03,-0.01 0.03,-0.01 0.04,0 0.03,-0.01 0.03,0 0.03,-0.01 0.04,0 0.03,-0.01 0.03,0 0.04,-0.01 0.03,0 0.03,-0.01 0.04,0 0.03,-0.01 0.03,-0.01 0.03,0 0.04,-0.01 0.03,0 0.03,-0.01 0.04,0 0.03,-0.01 0.03,0 0.04,-0.01 0.03,0 0.03,-0.01 0.03,0 0.04,-0.01 0.03,0 0.03,-0.01 0.04,0 0.03,-0.01 0.03,0 0.04,-0.01 0.03,0 0.03,-0.01 0.03,0 0.04,-0.01 0.03,-0.01 0.03,0 0.04,-0.01 0.03,0 0.03,-0.01 0.03,0 0.04,-0.01 0.03,0 0.03,-0.01 0.04,0 0.03,-0.01 0.03,0 0.04,-0.01 0.03,0 0.03,-0.01 0.03,0 0.04,-0.01 0.03,0 0.03,-0.01 0.04,0 0.03,-0.01 0.03,0 0.04,-0.01 0.03,0 0.03,-0.01 0.03,0 0.04,-0.01 0.03,0 0.03,-0.01 0.04,0 0.03,0 0.03,-0.01 0.03,0 0.04,-0.01 0.03,0 0.03,-0.01 0.04,0 0.03,-0.01 0.03,0 0.04,-0.01 0.03,0 0.03,-0.01 0.03,0 0.04,-0.01 0.03,0 0.03,-0.01 0.04,0 0.03,-0.01 0.03,0 0.04,-0.01 0.03,0 0.03,0 0.03,-0.01 0.04,0 0.03,-0.01 0.03,0 0.04,-0.01 0.03,0 0.03,-0.01 0.03,0 0.04,-0.01 0.03,0 0.03,-0.01 0.04,0 0.03,0 0.03,-0.01 0.04,0 0.03,-0.01 0.03,0 0.03,-0.01 0.04,0 0.03,-0.01 0.03,0 0.04,-0.01 0.03,0 0.03,0 0.04,-0.01 0.03,0 0.03,-0.01 0.03,0 0.04,-0.01 0.03,0 0.03,-0.01 0.04,0 0.03,0 0.03,-0.01 0.03,0 0.04,-0.01 0.03,0 0.03,-0.01 0.04,0 0.03,-0.01 0.03,0 0.04,0 0.03,-0.01 0.03,0 0.03,-0.01 0.04,0 0.03,-0.01 0.03,0 0.04,0 0.03,-0.01 0.03,0 0.04,-0.01 0.03,0 0.03,-0.01 0.03,0 0.04,0 0.03,-0.01 0.03,0 0.04,-0.01 0.03,0 0.03,-0.01 0.03,0 0.04,0 0.03,-0.01 0.03,0 0.04,-0.01 0.03,0 0.03,0 0.04,-0.01 0.03,0 0.03,-0.01 0.03,0 0.04,0 0.03,-0.01 0.03,0 0.04,-0.01 0.03,0 0.03,-0.01 0.04,0 0.03,0 0.03,-0.01 0.03,0 0.04,-0.01 0.03,0 0.03,0 0.04,-0.01 0.03,0 0.03,-0.01 0.03,0 0.04,0 0.03,-0.01 0.03,0 0.04,-0.01 0.03,0 0.03,0 0.04,-0.01 0.03,0 0.03,0 0.03,-0.01 0.04,0 0.03,-0.01 0.03,0 0.04,0 0.03,-0.01 0.03,0 0.04,-0.01 0.03,0 0.03,0 0.03,-0.01 0.04,0 0.03,-0.01 0.03,0 0.04,0 0.03,-0.01 0.03,0 0.04,0 0.03,-0.01 0.03,0 0.03,-0.01 0.04,0 0.03,0 0.03,-0.01 0.04,0 0.03,0 0.03,-0.01 0.03,0 0.04,-0.01 0.03,0 0.03,0 0.04,-0.01 0.03,0 0.03,0 0.04,-0.01 0.03,0 0.03,-0.01 0.03,0 0.04,0 0.03,-0.01 0.03,0 0.04,0 0.03,-0.01 0.03,0 0.04,0 0.03,-0.01 0.03,0 0.03,0 0.04,-0.01 0.03,0 0.03,-0.01 0.04,0 0.03,0 0.03,-0.01 0.03,0 0.04,0 0.03,-0.01 0.03,0 0.04,0 0.03,-0.01 0.03,0 0.04,0 0.03,-0.01 0.03,0 0.03,-0.01 0.04,0 0.03,0 0.03,-0.01 0.04,0 0.03,0 0.03,-0.01 0.04,0 0.03,0 0.03,-0.01 0.03,0 0.04,0 0.03,-0.01 0.03,0 0.04,0 0.03,-0.01 0.03,0 0.03,0 0.04,-0.01 0.03,0 0.03,0 0.04,-0.01 0.03,0 0.03,0 0.04,-0.01 0.03,0 0.03,0 0.03,-0.01 0.04,0 0.03,0 0.03,-0.01 0.04,0 0.03,0 0.03,-0.01 0.04,0 0.03,0 0.03,-0.01 0.03,0 0.04,0 0.03,-0.01 0.03,0 0.04,0 0.03,-0.01 0.03,0 0.03,0 0.04,-0.01 0.03,0 0.03,0 0.04,0 0.03,-0.01 0.03,0 0.04,0 0.03,-0.01 0.03,0 0.03,0 0.04,-0.01 0.03,0 0.03,0 0.04,-0.01 0.03,0 0.03,0 0.04,-0.01 0.03,0 0.03,0 0.03,0 0.04,-0.01 0.03,0 0.03,0 0.04,-0.01 0.03,0 0.03,0 0.03,-0.01 0.04,0 0.03,0 0.03,-0.01 0.04,0 0.03,0 0.03,0 0.04,-0.01 0.03,0 0.03,0 0.03,-0.01 0.04,0 0.03,0 0.03,-0.01 0.04,0 0.03,0 0.03,0 0.04,-0.01 0.03,0 0.03,0 0.03,-0.01 0.04,0 0.03,0 0.03,-0.01 0.04,0 0.03,0 0.03,0 0.03,-0.01 0.04,0 0.03,0 0.03,-0.01 0.04,0 0.03,0 0.03,0 0.04,-0.01 0.03,0 0.03,0 0.03,-0.01 0.04,0 0.03,0 0.03,0 0.04,-0.01 0.03,0 0.03,0 0.04,-0.01 0.03,0 0.03,0 0.03,0 0.04,-0.01 0.03,0 0.03,0 0.04,0 0.03,-0.01 0.03,0 0.04,0 0.03,-0.01 0.03,0 0.03,0 0.04,0 0.03,-0.01 0.03,0 0.04,0 0.03,0 0.03,-0.01 0.03,0 0.04,0 0.03,-0.01 0.03,0 0.04,0 0.03,0 0.03,-0.01 0.04,0 0.03,0 0.03,0 0.03,-0.01 0.04,0 0.03,0 0.03,-0.01 0.04,0 0.03,0 0.03,0 0.04,-0.01 0.03,0 0.03,0 0.03,0 0.04,-0.01 0.03,0 0.03,0 0.04,0 0.03,-0.01 0.03,0 0.03,0 0.04,0 0.03,-0.01 0.03,0 0.04,0 0.03,0 0.03,-0.01 0.04,0 0.03,0 0.03,0 0.03,-0.01 0.04,0 0.03,0 0.03,0 0.04,-0.01 0.03,0 0.03,0 0.04,0 0.03,-0.01 0.03,0 0.03,0 0.04,0 0.03,-0.01 0.03,0 0.04,0 0.03,0 0.03,-0.01 0.03,0 0.04,0 0.03,0 0.03,-0.01 0.04,0 0.03,0 0.03,0 0.04,-0.01 0.03,0 0.03,0 0.03,0 0.04,-0.01 0.03,0 0.03,0 0.04,0 0.03,-0.01 0.03,0 0.04,0 0.03,0 0.03,0 0.03,-0.01 0.04,0 0.03,0 0.03,0 0.04,-0.01 0.03,0 0.03,0 0.03,0 0.04,-0.01 0.03,0 0.03,0 0.04,0 0.03,-0.01 0.03,0 0.04,0 0.03,0 0.03,0 0.03,-0.01 0.04,0 0.03,0 0.03,0 0.04,-0.01 0.03,0 0.03,0 0.04,0 0.03,0 0.03,-0.01 0.03,0 0.04,0 0.03,0 0.03,-0.01 0.04,0 0.03,0 0.03,0 0.03,0 0.04,-0.01 0.03,0 0.03,0 0.04,0 0.03,-0.01 0.03,0 0.04,0 0.03,0 0.03,0 0.03,-0.01 0.04,0 0.03,0 0.03,0 0.04,-0.01 0.03,0 0.03,0 0.04,0 0.03,0 0.03,-0.01 0.03,0 0.04,0 0.03,0 0.03,0 0.04,-0.01 0.03,0 0.03,0 0.03,0 0.04,0 0.03,-0.01 0.03,0 0.04,0 0.03,0 0.03,-0.01 0.04,0 0.03,0 0.03,0 0.03,0 0.04,-0.01 0.03,0 0.03,0 0.04,0 0.03,0 0.03,-0.01 0.04,0 0.03,0 0.03,0 0.03,0 0.04,-0.01 0.03,0 0.03,0 0.04,0 0.03,0 0.03,-0.01 0.04,0 0.03,0 0.03,0 0.03,0 0.04,-0.01 0.03,0 0.03,0 0.04,0 0.03,0 0.03,-0.01 0.03,0 0.04,0 0.03,0 0.03,0 0.04,-0.01 0.03,0 0.03,0 0.04,0 0.03,0 0.03,0 0.03,-0.01 0.04,0 0.03,0 0.03,0 0.04,0 0.03,-0.01 0.03,0 0.04,0 0.03,0 0.03,0 0.03,-0.01 0.04,0 0.03,0 0.03,0 0.04,0 0.03,-0.01 0.03,0 0.03,0 0.04,0 0.03,0 0.03,0 0.04,-0.01 0.03,0 0.03,0 0.04,0 0.03,0 0.03,-0.01 0.03,0 0.04,0 0.03,0 0.03,0 0.04,0 0.03,-0.01 0.03,0 0.04,0 0.03,0 0.03,0 0.03,-0.01 0.04,0 0.03,0 0.03,0 0.04,0 0.03,0 0.03,-0.01 0.03,0 0.04,0 0.03,0 0.03,0 0.04,0 0.03,-0.01 0.03,0 0.04,0 0.03,0 0.03,0 0.03,-0.01 0.04,0 0.03,0 0.03,0 0.04,0 0.03,0 0.03,-0.01 0.04,0 0.03,0 0.03,0 0.03,0 0.04,0 0.03,-0.01 0.03,0 0.04,0 0.03,0 0.03,0 0.03,0 0.04,-0.01 0.03,0 0.03,0 0.04,0 0.03,0 0.03,0 0.04,-0.01 0.03,0 0.03,0 0.03,0 0.04,0 0.03,0 0.03,-0.01 0.04,0 0.03,0 0.03,0 0.04,0 0.03,0 0.03,-0.01 0.03,0 0.04,0 0.03,0 0.03,0 0.04,0 0.03,0 0.03,-0.01 0.03,0 0.04,0 0.03,0 0.03,0 0.04,0 0.03,-0.01 0.03,0 0.04,0 0.03,0 0.03,0 0.03,0 0.04,-0.01 0.03,0 0.03,0 0.04,0 0.03,0 0.03,0 0.04,0 0.03,-0.01 0.03,0 0.03,0 0.04,0 0.03,0 0.03,0 0.04,-0.01 0.03,0 0.03,0 0.04,0 0.03,0 0.03,0 0.03,0 0.04,-0.01 0.03,0 0.03,0 0.04,0 0.03,0 0.03,0 0.03,0 0.04,-0.01 0.03,0 0.03,0 0.04,0 0.03,0 0.03,0 0.04,0 0.03,-0.01 0.03,0 0.03,0 0.04,0 0.03,0 0.03,0 0.04,0 0.03,-0.01 0.03,0 0.04,0 0.03,0 0.03,0 0.03,0 0.04,0 0.03,-0.01 0.03,0 0.04,0 0.03,0 0.03,0 0.03,0 0.04,0 0.03,-0.01 0.03,0 0.04,0 0.03,0 0.03,0 0.04,0 0.03,0 0.03,-0.01 0.03,0 0.04,0 0.03,0 0.03,0 0.04,0 0.03,0 0.03,-0.01 0.04,0 0.03,0 0.03,0 0.03,0 0.04,0 0.03,0 0.03,0 0.04,-0.01 0.03,0 0.03,0 0.03,0 0.04,0 0.03,0 0.03,0 0.04,-0.01 0.03,0 0.03,0 0.04,0 0.03,0 0.03,0 0.03,0 0.04,0 0.03,-0.01 0.03,0 0.04,0 0.03,0 0.03,0 0.04,0 0.03,0 0.03,-0.01 0.03,0 0.04,0 0.03,0 0.03,0 0.04,0 0.03,0 0.03,0 0.03,-0.01 0.04,0 0.03,0 0.03,0 0.04,0 0.03,0 0.03,0 0.04,0 0.03,-0.01 0.03,0 0.03,0 0.04,0 0.03,0 0.03,0 0.04,0 0.03,0 0.03,-0.01 0.04,0 0.03,0 0.03,0 0.03,0 0.04,0 0.03,0 0.03,0 0.04,0 0.03,-0.01 0.03,0 0.03,0 0.04,0 0.03,0 0.03,0 0.04,0 0.03,0 0.03,-0.01 0.04,0 0.03,0 0.03,0 0.03,0 0.04,0 0.03,0 0.03,0 0.04,-0.01 0.03,0 0.03,0 0.04,0 0.03,0 0.03,0 0.03,0 0.04,0 0.03,0 0.03,-0.01 0.04,0 0.03,0 0.03,0 0.03,0 0.04,0 0.03,0 0.03,0 0.04,0 0.03,-0.01 0.03,0 0.04,0 0.03,0 0.03,0 0.03,0 0.04,0 0.03,0 0.03,0 0.04,-0.01 0.03,0 0.03,0 0.04,0 0.03,0 0.03,0 0.03,0 0.04,0 0.03,0 0.03,-0.01 0.04,0 0.03,0 0.03,0 0.04,0 0.03,0 0.03,0 0.03,0 0.04,0 0.03,-0.01 0.03,0 0.04,0 0.03,0 0.03,0 0.03,0 0.04,0 0.03,0 0.03,0 0.04,0 0.03,-0.01 0.03,0 0.04,0 0.03,0 0.03,0 0.03,0 0.04,0 0.03,0 0.03,0 0.04,-0.01 0.03,0 0.03,0 0.04,0 0.03,0 0.03,0 0.03,0 0.04,0 0.03,0 0.03,0 0.04,-0.01 0.03,0 0.03,0 0.03,0 0.04,0 0.03,0 0.03,0 0.04,0 0.03,0 0.03,0 0.04,-0.01 0.03,0 0.03,0 0.03,0 0.04,0 0.03,0 0.03,0 0.04,0 0.03,0 0.03,0 0.04,-0.01 0.03,0 0.03,0 0.03,0 0.04,0 0.03,0 0.03,0 0.04,0 0.03,0 0.03,0 0.03,0 0.04,-0.01 0.03,0 0.03,0 0.04,0 0.03,0 0.03,0 0.04,0 0.03,0 0.03,0 0.03,0 0.04,-0.01 0.03,0 0.03,0 0.04,0 0.03,0 0.03,0 0.04,0 0.03,0 0.03,0 0.03,0 0.04,0 0.03,-0.01 0.03,0 0.04,0 0.03,0 0.03,0 0.03,0 0.04,0 0.03,0 0.03,0 0.04,0 0.03,0 0.03,-0.01 0.04,0 0.03,0 0.03,0 0.03,0 0.04,0 0.03,0 0.03,0 0.04,0 0.03,0 0.03,0 0.04,0 0.03,-0.01 0.03,0 0.03,0 0.04,0 0.03,0 0.03,0 0.04,0 0.03,0 0.03,0 0.03,0 0.04,0 0.03,-0.01 0.03,0 0.04,0 0.03,0 0.03,0 0.04,0 0.03,0 0.03,0 0.03,0 0.04,0 0.03,0 0.03,0 0.04,-0.01 0.03,0 0.03,0 0.04,0 0.03,0 0.03,0 0.03,0 0.04,0 0.03,0 0.03,0 0.04,0 0.03,0 0.03,-0.01 0.03,0 0.04,0 0.03,0 0.03,0 0.04,0 0.03,0 0.03,0 0.04,0 0.03,0 0.03,0 0.03,0 0.04,0 0.03,-0.01 0.03,0 0.04,0 0.03,0 0.03,0 0.04,0 0.03,0 0.03,0 0.03,0 0.04,0 0.03,0 0.03,0 0.04,0 0.03,-0.01 0.03,0 0.04,0 0.03,0 0.03,0 0.03,0 0.04,0 0.03,0 0.03,0 0.04,0 0.03,0 0.03,0 0.03,0 0.04,-0.01 0.03,0 0.03,0 0.04,0 0.03,0 0.03,0 0.04,0 0.03,0 0.03,0 0.03,0 0.04,0 0.03,0 0.03,0 0.04,-0.01 0.03,0 0.03,0 0.04,0 0.03,0 0.03,0 0.03,0 0.04,0 0.03,0 0.03,0 0.04,0 0.03,0 0.03,0 0.03,0 0.04,-0.01 0.03,0 0.03,0 0.04,0 0.03,0 0.03,0 0.04,0 0.03,0 0.03,0 0.03,0 0.04,0 0.03,0 0.03,0 0.04,0 0.03,-0.01 0.03,0 0.04,0 0.03,0 0.03,0 0.03,0 0.04,0 0.03,0 0.03,0 0.04,0 0.03,0 0.03,0 0.03,0 0.04,0 0.03,0 0.03,-0.01 0.04,0 0.03,0 0.03,0 0.04,0 0.03,0 0.03,0 0.03,0 0.04,0 0.03,0 0.03,0 0.04,0 0.03,0 0.03,0 0.04,0 0.03,-0.01 0.03,0 0.03,0 0.04,0 0.03,0 0.03,0 0.04,0 0.03,0 0.03,0 0.03,0 0.04,0 0.03,0 0.03,0 0.04,0 0.03,0 0.03,-0.01 0.04,0 0.03,0 0.03,0 0.03,0 0.04,0 0.03,0 0.03,0 0.04,0 0.03,0 0.03,0 0.04,0 0.03,0 0.03,0 0.03,0 0.04,0 0.03,-0.01 0.03,0 0.04,0 0.03,0 0.03,0 0.03,0 0.04,0 0.03,0 0.03,0 0.04,0 0.03,0 0.03,0 0.04,0 0.03,0 0.03,0 0.03,0 0.04,0 0.03,-0.01 0.03,0 0.04,0 0.03,0 0.03,0 0.04,0 0.03,0 0.03,0 0.03,0 0.04,0 0.03,0 0.03,0 0.04,0 0.03,0 0.03,0 0.03,0 0.04,0 0.03,-0.01 0.03,0 0.04,0 0.03,0 0.03,0 0.04,0 0.03,0 0.03,0 0.03,0 0.04,0 0.03,0 0.03,0 0.04,0 0.03,0 0.03,0 0.04,0 0.03,0 0.03,-0.01 0.03,0 0.04,0 0.03,0 0.03,0 0.04,0 0.03,0 0.03,0 0.04,0 0.03,0 0.03,0 0.03,0 0.04,0 0.03,0 0.03,0 0.04,0 0.03,0 0.03,0 0.03,0 0.04,-0.01 0.03,0 0.03,0 0.04,0 0.03,0 0.03,0 0.04,0 0.03,0 0.03,0 0.03,0 0.04,0 0.03,0 0.03,0 0.04,0 0.03,0 0.03,0 0.04,0 0.03,0 0.03,0 0.03,-0.01 0.04,0 0.03,0 0.03,0 0.04,0 0.03,0 0.03,0 0.03,0 0.04,0 0.03,0 0.03,0 0.04,0 0.03,0 0.03,0 0.04,0 0.03,0 0.03,0 0.03,0 0.04,0 0.03,-0.01 0.03,0 0.04,0 0.03,0 0.03,0 0.04,0 0.03,0 0.03,0 0.03,0 0.04,0 0.03,0 0.03,0 0.04,0 0.03,0 0.03,0 0.03,0 0.04,0 0.03,0 0.03,0 0.04,0 0.03,0 0.03,-0.01 0.04,0 0.03,0 0.03,0 0.03,0 0.04,0 0.03,0 0.03,0 0.04,0 0.03,0 0.03,0 0.04,0 0.03,0 0.03,0 0.03,0 0.04,0 0.03,0 0.03,0 0.04,0 0.03,0 0.03,0 0.03,-0.01 0.04,0 0.03,0 0.03,0 0.04,0 0.03,0 0.03,0 0.04,0 0.03,0 0.03,0 0.03,0 0.04,0 0.03,0 0.03,0 0.04,0 0.03,0 0.03,0 0.04,0 0.03,0 0.03,0 0.03,0 0.04,0 0.03,0 0.03,-0.01 0.04,0 0.03,0 0.03,0 0.03,0 0.04,0 0.03,0 0.03,0 0.04,0 0.03,0 0.03,0 0.04,0 0.03,0 0.03,0 0.03,0 0.04,0 0.03,0 0.03,0 0.04,0 0.03,0 0.03,0 0.04,0 0.03,0 0.03,-0.01 0.03,0 0.04,0 0.03,0 0.03,0 0.04,0 0.03,0 0.03,0 0.03,0 0.04,0 0.03,0 0.03,0 0.04,0 0.03,0 0.03,0 0.04,0 0.03,0 0.03,0 0.03,0 0.04,0 0.03,0 0.03,0 0.04,0 0.03,0 0.03,0 0.04,-0.01 0.03,0 0.03,0 0.03,0 0.04,0 0.03,0 0.03,0 0.04,0 0.03,0 0.03,0 0.04,0 0.03,0 0.03,0 0.03,0 0.04,0 0.03,0 0.03,0 0.04,0 0.03,0 0.03,0 0.03,0 0.04,0 0.03,0 0.03,0 0.04,0 0.03,-0.01 0.03,0 0.04,0 0.03,0 0.03,0 0.03,0 0.04,0 0.03,0 0.03,0 0.04,0 0.03,0 0.03,0 0.04,0 0.03,0 0.03,0 0.03,0 0.04,0 0.03,0 0.03,0 0.04,0 0.03,0 0.03,0 0.03,0 0.04,0 0.03,0 0.03,0 0.04,0 0.03,0 0.03,-0.01 0.04,0 0.03,0 0.03,0 0.03,0 0.04,0 0.03,0 0.03,0 0.04,0 0.03,0 0.03,0 0.04,0 0.03,0 0.03,0 0.03,0 0.04,0 0.03,0 0.03,0 0.04,0 0.03,0 0.03,0 0.03,0 0.04,0 0.03,0 0.03,0 0.04,0 0.03,0 0.03,0 0.04,-0.01 0.03,0 0.03,0 0.03,0 0.04,0 0.03,0 0.03,0 0.04,0 0.03,0 0.03,0 0.04,0 0.03,0 0.03,0 0.03,0 0.04,0 0.03,0 0.03,0 0.04,0 0.03,0 0.03,0 0.03,0 0.04,0 0.03,0 0.03,0 0.04,0 0.03,0 0.03,0 0.04,0 0.03,0 0.03,0 0.03,0 0.04,-0.01 0.03,0 0.03,0 0.04,0 0.03,0 0.03,0 0.04,0 0.03,0 0.03,0 0.03,0 0.04,0 0.03,0 0.03,0 0.04,0 0.03,0 0.03,0 0.03,0 0.04,0 0.03,0 0.03,0 0.04,0 0.03,0 0.03,0 0.04,0 0.03,0 0.03,0 0.03,0 0.04,0 0.03,0 0.03,0 0.04,0 0.03,0 0.03,-0.01 0.04,0 0.03,0 0.03,0 0.03,0 0.04,0 0.03,0 0.03,0 0.04,0 0.03,0 0.03,0 0.03,0 0.04,0 0.03,0 0.03,0 0.04,0 0.03,0 0.03,0 0.04,0 0.03,0 0.03,0 0.03,0 0.04,0 0.03,0 0.03,0 0.04,0 0.03,0 0.03,0 0.04,0 0.03,0 0.03,0 0.03,0 0.04,0 0.03,0 0.03,0 0.04,-0.01 0.03,0 0.03,0 0.04,0 0.03,0 0.03,0 0.03,0 0.04,0 0.03,0 0.03,0 0.04,0 0.03,0 0.03,0 0.03,0 0.04,0 0.03,0 0.03,0 0.04,0 0.03,0 0.03,0 0.04,0 0.03,0 0.03,0 0.03,0 0.04,0 0.03,0 0.03,0 0.04,0 0.03,0 0.03,0 0.04,0 0.03,0 0.03,0 0.03,0 0.04,0 0.03,0 0.03,0 0.04,-0.01 0.03,0 0.03,0 0.03,0 0.04,0 0.03,0 0.03,0 0.04,0 0.03,0 0.03,0 0.04,0 0.03,0 0.03,0 0.03,0 0.04,0 0.03,0 0.03,0 0.04,0 0.03,0 0.03,0 0.04,0 0.03,0 0.03,0 0.03,0 0.04,0 0.03,0 0.03,0 0.04,0 0.03,0 0.03,0 0.03,0 0.04,0 0.03,0 0.03,0 0.04,0 0.03,0 0.03,0 0.04,0"
       style="fill:none;stroke:#fed58c;stroke-width:1.05999994;stroke-linecap:butt;stroke-linejoin:round;stroke-miterlimit:1;stroke-dasharray:none;stroke-opacity:1"
       id="path68"
       inkscape:connector-curvature="0" /><path
       d="m 54.84,82 0.03,-0.44 0.03,-0.42 0.04,-0.41 0.03,-0.39 0.03,-0.38 0.03,-0.36 0.04,-0.34 0.03,-0.34 0.03,-0.32 0.04,-0.31 0.03,-0.3 0.03,-0.29 0.04,-0.28 0.03,-0.27 0.03,-0.27 0.03,-0.25 0.04,-0.24 0.03,-0.24 0.03,-0.23 0.04,-0.22 0.03,-0.22 0.03,-0.21 0.04,-0.2 0.03,-0.19 0.03,-0.19 0.03,-0.19 0.04,-0.18 0.03,-0.17 0.03,-0.17 0.04,-0.16 0.03,-0.16 0.03,-0.16 0.03,-0.15 0.04,-0.14 0.03,-0.15 0.03,-0.13 0.04,-0.14 0.03,-0.13 0.03,-0.12 0.04,-0.13 0.03,-0.12 0.03,-0.11 0.03,-0.12 0.04,-0.11 0.03,-0.11 0.03,-0.1 0.04,-0.1 0.03,-0.1 0.03,-0.1 0.04,-0.09 0.03,-0.1 0.03,-0.09 0.03,-0.08 0.04,-0.09 0.03,-0.08 0.03,-0.08 0.04,-0.08 0.03,-0.08 0.03,-0.07 0.03,-0.07 0.04,-0.07 0.03,-0.07 0.03,-0.07 0.04,-0.07 0.03,-0.06 0.03,-0.06 0.04,-0.06 0.03,-0.06 0.03,-0.06 0.03,-0.05 0.04,-0.06 0.03,-0.05 0.03,-0.05 0.04,-0.05 0.03,-0.05 0.03,-0.05 0.04,-0.04 0.03,-0.05 0.03,-0.04 0.03,-0.05 0.04,-0.04 0.03,-0.04 0.03,-0.04 0.04,-0.04 0.03,-0.03 0.03,-0.04 0.04,-0.03 0.03,-0.04 0.03,-0.03 0.03,-0.03 0.04,-0.03 0.03,-0.03 0.03,-0.03 0.04,-0.03 0.03,-0.03 0.03,-0.03 0.03,-0.02 0.04,-0.03 0.03,-0.02 0.03,-0.02 0.04,-0.03 0.03,-0.02 0.03,-0.02 0.04,-0.02 0.03,-0.02 0.03,-0.02 0.03,-0.02 0.04,-0.02 0.03,-0.01 0.03,-0.02 0.04,-0.02 0.03,-0.01 0.03,-0.01 0.04,-0.02 0.03,-0.01 0.03,-0.01 0.03,-0.02 0.04,-0.01 0.03,-0.01 0.03,-0.01 0.04,-0.01 0.03,-0.01 0.03,-0.01 0.03,-0.01 0.04,0 0.03,-0.01 0.03,-0.01 0.04,0 0.03,-0.01 0.03,-0.01 0.04,0 0.03,0 0.03,-0.01 0.03,0 0.04,-0.01 0.03,0 0.03,0 0.04,0 0.03,0 0.03,-0.01 0.04,0 0.03,0 0.03,0 0.03,0 0.04,0 0.03,0.01 0.03,0 0.04,0 0.03,0 0.03,0 0.03,0.01 0.04,0 0.03,0 0.03,0.01 0.04,0 0.03,0.01 0.03,0 0.04,0.01 0.03,0 0.03,0.01 0.03,0 0.04,0.01 0.03,0.01 0.03,0 0.04,0.01 0.03,0.01 0.03,0.01 0.04,0 0.03,0.01 0.03,0.01 0.03,0.01 0.04,0.01 0.03,0.01 0.03,0.01 0.04,0.01 0.03,0.01 0.03,0.01 0.03,0.01 0.04,0.01 0.03,0.01 0.03,0.01 0.04,0.01 0.03,0.01 0.03,0.02 0.04,0.01 0.03,0.01 0.03,0.01 0.03,0.02 0.04,0.01 0.03,0.01 0.03,0.02 0.04,0.01 0.03,0.01 0.03,0.02 0.04,0.01 0.03,0.01 0.03,0.02 0.03,0.01 0.04,0.02 0.03,0.01 0.03,0.02 0.04,0.01 0.03,0.02 0.03,0.02 0.03,0.01 0.04,0.02 0.03,0.01 0.03,0.02 0.04,0.02 0.03,0.01 0.03,0.02 0.04,0.02 0.03,0.01 0.03,0.02 0.03,0.02 0.04,0.02 0.03,0.01 0.03,0.02 0.04,0.02 0.03,0.02 0.03,0.02 0.04,0.01 0.03,0.02 0.03,0.02 0.03,0.02 0.04,0.02 0.03,0.02 0.03,0.02 0.04,0.02 0.03,0.02 0.03,0.02 0.03,0.02 0.04,0.01 0.03,0.02 0.03,0.02 0.04,0.02 0.03,0.03 0.03,0.02 0.04,0.02 0.03,0.02 0.03,0.02 0.03,0.02 0.04,0.02 0.03,0.02 0.03,0.02 0.04,0.02 0.03,0.02 0.03,0.02 0.04,0.03 0.03,0.02 0.03,0.02 0.03,0.02 0.04,0.02 0.03,0.03 0.03,0.02 0.04,0.02 0.03,0.02 0.03,0.02 0.04,0.03 0.03,0.02 0.03,0.02 0.03,0.02 0.04,0.03 0.03,0.02 0.03,0.02 0.04,0.03 0.03,0.02 0.03,0.02 0.03,0.03 0.04,0.02 0.03,0.02 0.03,0.03 0.04,0.02 0.03,0.02 0.03,0.03 0.04,0.02 0.03,0.02 0.03,0.03 0.03,0.02 0.04,0.03 0.03,0.02 0.03,0.02 0.04,0.03 0.03,0.02 0.03,0.03 0.04,0.02 0.03,0.03 0.03,0.02 0.03,0.03 0.04,0.02 0.03,0.02 0.03,0.03 0.04,0.02 0.03,0.03 0.03,0.02 0.03,0.03 0.04,0.02 0.03,0.03 0.03,0.02 0.04,0.03 0.03,0.03 0.03,0.02 0.04,0.03 0.03,0.02 0.03,0.03 0.03,0.02 0.04,0.03 0.03,0.02 0.03,0.03 0.04,0.03 0.03,0.02 0.03,0.03 0.04,0.02 0.03,0.03 0.03,0.02 0.03,0.03 0.04,0.03 0.03,0.02 0.03,0.03 0.04,0.02 0.03,0.03 0.03,0.03 0.03,0.02 0.04,0.03 0.03,0.03 0.03,0.02 0.04,0.03 0.03,0.03 0.03,0.02 0.04,0.03 0.03,0.02 0.03,0.03 0.03,0.03 0.04,0.02 0.03,0.03 0.03,0.03 0.04,0.03 0.03,0.02 0.03,0.03 0.04,0.03 0.03,0.02 0.03,0.03 0.03,0.03 0.04,0.02 0.03,0.03 0.03,0.03 0.04,0.02 0.03,0.03 0.03,0.03 0.03,0.03 0.04,0.02 0.03,0.03 0.03,0.03 0.04,0.02 0.03,0.03 0.03,0.03 0.04,0.03 0.03,0.02 0.03,0.03 0.03,0.03 0.04,0.03 0.03,0.02 0.03,0.03 0.04,0.03 0.03,0.03 0.03,0.02 0.04,0.03 0.03,0.03 0.03,0.03 0.03,0.02 0.04,0.03 0.03,0.03 0.03,0.03 0.04,0.02 0.03,0.03 0.03,0.03 0.03,0.03 0.04,0.02 0.03,0.03 0.03,0.03 0.04,0.03 0.03,0.02 0.03,0.03 0.04,0.03 0.03,0.03 0.03,0.03 0.03,0.02 0.04,0.03 0.03,0.03 0.03,0.03 0.04,0.02 0.03,0.03 0.03,0.03 0.04,0.03 0.03,0.03 0.03,0.02 0.03,0.03 0.04,0.03 0.03,0.03 0.03,0.02 0.04,0.03 0.03,0.03 0.03,0.03 0.03,0.03 0.04,0.02 0.03,0.03 0.03,0.03 0.04,0.03 0.03,0.03 0.03,0.02 0.04,0.03 0.03,0.03 0.03,0.03 0.03,0.03 0.04,0.02 0.03,0.03 0.03,0.03 0.04,0.03 0.03,0.03 0.03,0.02 0.04,0.03 0.03,0.03 0.03,0.03 0.03,0.03 0.04,0.02 0.03,0.03 0.03,0.03 0.04,0.03 0.03,0.03 0.03,0.02 0.04,0.03 0.03,0.03 0.03,0.03 0.03,0.03 0.04,0.02 0.03,0.03 0.03,0.03 0.04,0.03 0.03,0.03 0.03,0.02 0.03,0.03 0.04,0.03 0.03,0.03 0.03,0.03 0.04,0.02 0.03,0.03 0.03,0.03 0.04,0.03 0.03,0.02 0.03,0.03 0.03,0.03 0.04,0.03 0.03,0.03 0.03,0.02 0.04,0.03 0.03,0.03 0.03,0.03 0.04,0.03 0.03,0.02 0.03,0.03 0.03,0.03 0.04,0.03 0.03,0.03 0.03,0.02 0.04,0.03 0.03,0.03 0.03,0.03 0.03,0.02 0.04,0.03 0.03,0.03 0.03,0.03 0.04,0.03 0.03,0.02 0.03,0.03 0.04,0.03 0.03,0.03 0.03,0.02 0.03,0.03 0.04,0.03 0.03,0.03 0.03,0.02 0.04,0.03 0.03,0.03 0.03,0.03 0.04,0.03 0.03,0.02 0.03,0.03 0.03,0.03 0.04,0.03 0.03,0.02 0.03,0.03 0.04,0.03 0.03,0.03 0.03,0.02 0.03,0.03 0.04,0.03 0.03,0.03 0.03,0.02 0.04,0.03 0.03,0.03 0.03,0.03 0.04,0.02 0.03,0.03 0.03,0.03 0.03,0.03 0.04,0.02 0.03,0.03 0.03,0.03 0.04,0.02 0.03,0.03 0.03,0.03 0.04,0.03 0.03,0.02 0.03,0.03 0.03,0.03 0.04,0.03 0.03,0.02 0.03,0.03 0.04,0.03 0.03,0.02 0.03,0.03 0.03,0.03 0.04,0.03 0.03,0.02 0.03,0.03 0.04,0.03 0.03,0.02 0.03,0.03 0.04,0.03 0.03,0.02 0.03,0.03 0.03,0.03 0.04,0.03 0.03,0.02 0.03,0.03 0.04,0.03 0.03,0.02 0.03,0.03 0.04,0.03 0.03,0.02 0.03,0.03 0.03,0.03 0.04,0.02 0.03,0.03 0.03,0.03 0.04,0.02 0.03,0.03 0.03,0.03 0.03,0.02 0.04,0.03 0.03,0.03 0.03,0.02 0.04,0.03 0.03,0.03 0.03,0.02 0.04,0.03 0.03,0.03 0.03,0.02 0.03,0.03 0.04,0.02 0.03,0.03 0.03,0.03 0.04,0.02 0.03,0.03 0.03,0.03 0.04,0.02 0.03,0.03 0.03,0.03 0.03,0.02 0.04,0.03 0.03,0.02 0.03,0.03 0.04,0.03 0.03,0.02 0.03,0.03 0.03,0.02 0.04,0.03 0.03,0.03 0.03,0.02 0.04,0.03 0.03,0.02 0.03,0.03 0.04,0.03 0.03,0.02 0.03,0.03 0.03,0.02 0.04,0.03 0.03,0.03 0.03,0.02 0.04,0.03 0.03,0.02 0.03,0.03 0.04,0.02 0.03,0.03 0.03,0.03 0.03,0.02 0.04,0.03 0.03,0.02 0.03,0.03 0.04,0.02 0.03,0.03 0.03,0.02 0.04,0.03 0.03,0.03 0.03,0.02 0.03,0.03 0.04,0.02 0.03,0.03 0.03,0.02 0.04,0.03 0.03,0.02 0.03,0.03 0.03,0.02 0.04,0.03 0.03,0.02 0.03,0.03 0.04,0.02 0.03,0.03 0.03,0.02 0.04,0.03 0.03,0.02 0.03,0.03 0.03,0.02 0.04,0.03 0.03,0.02 0.03,0.03 0.04,0.02 0.03,0.03 0.03,0.02 0.04,0.03 0.03,0.02 0.03,0.03 0.03,0.02 0.04,0.03 0.03,0.02 0.03,0.03 0.04,0.02 0.03,0.03 0.03,0.02 0.03,0.02 0.04,0.03 0.03,0.02 0.03,0.03 0.04,0.02 0.03,0.03 0.03,0.02 0.04,0.03 0.03,0.02 0.03,0.02 0.03,0.03 0.04,0.02 0.03,0.03 0.03,0.02 0.04,0.02 0.03,0.03 0.03,0.02 0.04,0.03 0.03,0.02 0.03,0.03 0.03,0.02 0.04,0.02 0.03,0.03 0.03,0.02 0.04,0.03 0.03,0.02 0.03,0.02 0.03,0.03 0.04,0.02 0.03,0.02 0.03,0.03 0.04,0.02 0.03,0.03 0.03,0.02 0.04,0.02 0.03,0.03 0.03,0.02 0.03,0.02 0.04,0.03 0.03,0.02 0.03,0.02 0.04,0.03 0.03,0.02 0.03,0.02 0.04,0.03 0.03,0.02 0.03,0.02 0.03,0.03 0.04,0.02 0.03,0.02 0.03,0.03 0.04,0.02 0.03,0.02 0.03,0.03 0.03,0.02 0.04,0.02 0.03,0.03 0.03,0.02 0.04,0.02 0.03,0.03 0.03,0.02 0.04,0.02 0.03,0.02 0.03,0.03 0.03,0.02 0.04,0.02 0.03,0.03 0.03,0.02 0.04,0.02 0.03,0.02 0.03,0.03 0.04,0.02 0.03,0.02 0.03,0.02 0.03,0.03 0.04,0.02 0.03,0.02 0.03,0.02 0.04,0.03 0.03,0.02 0.03,0.02 0.03,0.02 0.04,0.03 0.03,0.02 0.03,0.02 0.04,0.02 0.03,0.03 0.03,0.02 0.04,0.02 0.03,0.02 0.03,0.02 0.03,0.03 0.04,0.02 0.03,0.02 0.03,0.02 0.04,0.02 0.03,0.03 0.03,0.02 0.04,0.02 0.03,0.02 0.03,0.02 0.03,0.03 0.04,0.02 0.03,0.02 0.03,0.02 0.04,0.02 0.03,0.02 0.03,0.03 0.03,0.02 0.04,0.02 0.03,0.02 0.03,0.02 0.04,0.02 0.03,0.02 0.03,0.03 0.04,0.02 0.03,0.02 0.03,0.02 0.03,0.02 0.04,0.02 0.03,0.02 0.03,0.03 0.04,0.02 0.03,0.02 0.03,0.02 0.04,0.02 0.03,0.02 0.03,0.02 0.03,0.02 0.04,0.02 0.03,0.03 0.03,0.02 0.04,0.02 0.03,0.02 0.03,0.02 0.04,0.02 0.03,0.02 0.03,0.02 0.03,0.02 0.04,0.02 0.03,0.02 0.03,0.02 0.04,0.03 0.03,0.02 0.03,0.02 0.03,0.02 0.04,0.02 0.03,0.02 0.03,0.02 0.04,0.02 0.03,0.02 0.03,0.02 0.04,0.02 0.03,0.02 0.03,0.02 0.03,0.02 0.04,0.02 0.03,0.02 0.03,0.02 0.04,0.02 0.03,0.02 0.03,0.02 0.04,0.02 0.03,0.02 0.03,0.02 0.03,0.02 0.04,0.02 0.03,0.02 0.03,0.02 0.04,0.02 0.03,0.02 0.03,0.02 0.03,0.02 0.04,0.02 0.03,0.02 0.03,0.02 0.04,0.02 0.03,0.02 0.03,0.02 0.04,0.02 0.03,0.02 0.03,0.02 0.03,0.02 0.04,0.02 0.03,0.02 0.03,0.02 0.04,0.02 0.03,0.02 0.03,0.02 0.04,0.01 0.03,0.02 0.03,0.02 0.03,0.02 0.04,0.02 0.03,0.02 0.03,0.02 0.04,0.02 0.03,0.02 0.03,0.02 0.03,0.02 0.04,0.02 0.03,0.01 0.03,0.02 0.04,0.02 0.03,0.02 0.03,0.02 0.04,0.02 0.03,0.02 0.03,0.02 0.03,0.02 0.04,0.01 0.03,0.02 0.03,0.02 0.04,0.02 0.03,0.02 0.03,0.02 0.04,0.02 0.03,0.01 0.03,0.02 0.03,0.02 0.04,0.02 0.03,0.02 0.03,0.02 0.04,0.02 0.03,0.01 0.03,0.02 0.03,0.02 0.04,0.02 0.03,0.02 0.03,0.02 0.04,0.01 0.03,0.02 0.03,0.02 0.04,0.02 0.03,0.02 0.03,0.01 0.03,0.02 0.04,0.02 0.03,0.02 0.03,0.02 0.04,0.01 0.03,0.02 0.03,0.02 0.04,0.02 0.03,0.02 0.03,0.01 0.03,0.02 0.04,0.02 0.03,0.02 0.03,0.01 0.04,0.02 0.03,0.02 0.03,0.02 0.03,0.01 0.04,0.02 0.03,0.02 0.03,0.02 0.04,0.01 0.03,0.02 0.03,0.02 0.04,0.02 0.03,0.01 0.03,0.02 0.03,0.02 0.04,0.02 0.03,0.01 0.03,0.02 0.04,0.02 0.03,0.02 0.03,0.01 0.04,0.02 0.03,0.02 0.03,0.01 0.03,0.02 0.04,0.02 0.03,0.01 0.03,0.02 0.04,0.02 0.03,0.02 0.03,0.01 0.03,0.02 0.04,0.02 0.03,0.01 0.03,0.02 0.04,0.02 0.03,0.01 0.03,0.02 0.04,0.02 0.03,0.01 0.03,0.02 0.03,0.02 0.04,0.01 0.03,0.02 0.03,0.02 0.04,0.01 0.03,0.02 0.03,0.02 0.04,0.01 0.03,0.02 0.03,0.01 0.03,0.02 0.04,0.02 0.03,0.01 0.03,0.02 0.04,0.02 0.03,0.01 0.03,0.02 0.04,0.01 0.03,0.02 0.03,0.02 0.03,0.01 0.04,0.02 0.03,0.02 0.03,0.01 0.04,0.02 0.03,0.01 0.03,0.02 0.03,0.01 0.04,0.02 0.03,0.02 0.03,0.01 0.04,0.02 0.03,0.01 0.03,0.02 0.04,0.02 0.03,0.01 0.03,0.02 0.03,0.01 0.04,0.02 0.03,0.01 0.03,0.02 0.04,0.01 0.03,0.02 0.03,0.02 0.04,0.01 0.03,0.02 0.03,0.01 0.03,0.02 0.04,0.01 0.03,0.02 0.03,0.01 0.04,0.02 0.03,0.01 0.03,0.02 0.03,0.01 0.04,0.02 0.03,0.01 0.03,0.02 0.04,0.01 0.03,0.02 0.03,0.02 0.04,0.01 0.03,0.02 0.03,0.01 0.03,0.02 0.04,0.01 0.03,0.01 0.03,0.02 0.04,0.01 0.03,0.02 0.03,0.01 0.04,0.02 0.03,0.01 0.03,0.02 0.03,0.01 0.04,0.02 0.03,0.01 0.03,0.02 0.04,0.01 0.03,0.02 0.03,0.01 0.03,0.02 0.04,0.01 0.03,0.01 0.03,0.02 0.04,0.01 0.03,0.02 0.03,0.01 0.04,0.02 0.03,0.01 0.03,0.02 0.03,0.01 0.04,0.01 0.03,0.02 0.03,0.01 0.04,0.02 0.03,0.01 0.03,0.02 0.04,0.01 0.03,0.01 0.03,0.02 0.03,0.01 0.04,0.02 0.03,0.01 0.03,0.01 0.04,0.02 0.03,0.01 0.03,0.02 0.03,0.01 0.04,0.01 0.03,0.02 0.03,0.01 0.04,0.01 0.03,0.02 0.03,0.01 0.04,0.02 0.03,0.01 0.03,0.01 0.03,0.02 0.04,0.01 0.03,0.01 0.03,0.02 0.04,0.01 0.03,0.02 0.03,0.01 0.04,0.01 0.03,0.02 0.03,0.01 0.03,0.01 0.04,0.02 0.03,0.01 0.03,0.01 0.04,0.02 0.03,0.01 0.03,0.01 0.03,0.02 0.04,0.01 0.03,0.01 0.03,0.02 0.04,0.01 0.03,0.01 0.03,0.02 0.04,0.01 0.03,0.01 0.03,0.01 0.03,0.02 0.04,0.01 0.03,0.01 0.03,0.02 0.04,0.01 0.03,0.01 0.03,0.02 0.04,0.01 0.03,0.01 0.03,0.01 0.03,0.02 0.04,0.01 0.03,0.01 0.03,0.01 0.04,0.02 0.03,0.01 0.03,0.01 0.04,0.02 0.03,0.01 0.03,0.01 0.03,0.01 0.04,0.02 0.03,0.01 0.03,0.01 0.04,0.01 0.03,0.02 0.03,0.01 0.03,0.01 0.04,0.01 0.03,0.02 0.03,0.01 0.04,0.01 0.03,0.01 0.03,0.02 0.04,0.01 0.03,0.01 0.03,0.01 0.03,0.01 0.04,0.02 0.03,0.01 0.03,0.01 0.04,0.01 0.03,0.02 0.03,0.01 0.04,0.01 0.03,0.01 0.03,0.01 0.03,0.02 0.04,0.01 0.03,0.01 0.03,0.01 0.04,0.01 0.03,0.02 0.03,0.01 0.03,0.01 0.04,0.01 0.03,0.01 0.03,0.01 0.04,0.02 0.03,0.01 0.03,0.01 0.04,0.01 0.03,0.01 0.03,0.02 0.03,0.01 0.04,0.01 0.03,0.01 0.03,0.01 0.04,0.01 0.03,0.01 0.03,0.02 0.04,0.01 0.03,0.01 0.03,0.01 0.03,0.01 0.04,0.01 0.03,0.01 0.03,0.02 0.04,0.01 0.03,0.01 0.03,0.01 0.03,0.01 0.04,0.01 0.03,0.01 0.03,0.02 0.04,0.01 0.03,0.01 0.03,0.01 0.04,0.01 0.03,0.01 0.03,0.01 0.03,0.01 0.04,0.01 0.03,0.02 0.03,0.01 0.04,0.01 0.03,0.01 0.03,0.01 0.04,0.01 0.03,0.01 0.03,0.01 0.03,0.01 0.04,0.01 0.03,0.02 0.03,0.01 0.04,0.01 0.03,0.01 0.03,0.01 0.03,0.01 0.04,0.01 0.03,0.01 0.03,0.01 0.04,0.01 0.03,0.01 0.03,0.01 0.04,0.01 0.03,0.01 0.03,0.02 0.03,0.01 0.04,0.01 0.03,0.01 0.03,0.01 0.04,0.01 0.03,0.01 0.03,0.01 0.04,0.01 0.03,0.01 0.03,0.01 0.03,0.01 0.04,0.01 0.03,0.01 0.03,0.01 0.04,0.01 0.03,0.01 0.03,0.01 0.03,0.01 0.04,0.01 0.03,0.01 0.03,0.01 0.04,0.01 0.03,0.01 0.03,0.01 0.04,0.01 0.03,0.01 0.03,0.01 0.03,0.01 0.04,0.01 0.03,0.01 0.03,0.01 0.04,0.01 0.03,0.01 0.03,0.01 0.04,0.01 0.03,0.01 0.03,0.01 0.03,0.01 0.04,0.01 0.03,0.01 0.03,0.01 0.04,0.01 0.03,0.01 0.03,0.01 0.03,0.01 0.04,0.01 0.03,0.01 0.03,0.01 0.04,0.01 0.03,0.01 0.03,0.01 0.04,0.01 0.03,0.01 0.03,0.01 0.03,0.01 0.04,0.01 0.03,0.01 0.03,0.01 0.04,0.01 0.03,0.01 0.03,0.01 0.04,0.01 0.03,0.01 0.03,0 0.03,0.01 0.04,0.01 0.03,0.01 0.03,0.01 0.04,0.01 0.03,0.01 0.03,0.01 0.04,0.01 0.03,0.01 0.03,0.01 0.03,0.01 0.04,0.01 0.03,0.01 0.03,0 0.04,0.01 0.03,0.01 0.03,0.01 0.03,0.01 0.04,0.01 0.03,0.01 0.03,0.01 0.04,0.01 0.03,0.01 0.03,0.01 0.04,0 0.03,0.01 0.03,0.01 0.03,0.01 0.04,0.01 0.03,0.01 0.03,0.01 0.04,0.01 0.03,0.01 0.03,0 0.04,0.01 0.03,0.01 0.03,0.01 0.03,0.01 0.04,0.01 0.03,0.01 0.03,0.01 0.04,0.01 0.03,0 0.03,0.01 0.03,0.01 0.04,0.01 0.03,0.01 0.03,0.01 0.04,0.01 0.03,0 0.03,0.01 0.04,0.01 0.03,0.01 0.03,0.01 0.03,0.01 0.04,0.01 0.03,0 0.03,0.01 0.04,0.01 0.03,0.01 0.03,0.01 0.04,0.01 0.03,0 0.03,0.01 0.03,0.01 0.04,0.01 0.03,0.01 0.03,0.01 0.04,0 0.03,0.01 0.03,0.01 0.03,0.01 0.04,0.01 0.03,0.01 0.03,0 0.04,0.01 0.03,0.01 0.03,0.01 0.04,0.01 0.03,0 0.03,0.01 0.03,0.01 0.04,0.01 0.03,0.01 0.03,0 0.04,0.01 0.03,0.01 0.03,0.01 0.04,0.01 0.03,0 0.03,0.01 0.03,0.01 0.04,0.01 0.03,0.01 0.03,0 0.04,0.01 0.03,0.01 0.03,0.01 0.03,0.01 0.04,0 0.03,0.01 0.03,0.01 0.04,0.01 0.03,0 0.03,0.01 0.04,0.01 0.03,0.01 0.03,0 0.03,0.01 0.04,0.01 0.03,0.01 0.03,0.01 0.04,0 0.03,0.01 0.03,0.01 0.04,0.01 0.03,0 0.03,0.01 0.03,0.01 0.04,0.01 0.03,0 0.03,0.01 0.04,0.01 0.03,0.01 0.03,0 0.03,0.01 0.04,0.01 0.03,0.01 0.03,0 0.04,0.01 0.03,0.01 0.03,0 0.04,0.01 0.03,0.01 0.03,0.01 0.03,0 0.04,0.01 0.03,0.01 0.03,0.01 0.04,0 0.03,0.01 0.03,0.01 0.04,0 0.03,0.01 0.03,0.01 0.03,0.01 0.04,0 0.03,0.01 0.03,0.01 0.04,0 0.03,0.01 0.03,0.01 0.03,0.01 0.04,0 0.03,0.01 0.03,0.01 0.04,0 0.03,0.01 0.03,0.01 0.04,0 0.03,0.01 0.03,0.01 0.03,0.01 0.04,0 0.03,0.01 0.03,0.01 0.04,0 0.03,0.01 0.03,0.01 0.04,0 0.03,0.01 0.03,0.01 0.03,0 0.04,0.01 0.03,0.01 0.03,0 0.04,0.01 0.03,0.01 0.03,0 0.04,0.01 0.03,0.01 0.03,0 0.03,0.01 0.04,0.01 0.03,0 0.03,0.01 0.04,0.01 0.03,0 0.03,0.01 0.03,0.01 0.04,0 0.03,0.01 0.03,0.01 0.04,0 0.03,0.01 0.03,0.01 0.04,0 0.03,0.01 0.03,0.01 0.03,0 0.04,0.01 0.03,0 0.03,0.01 0.04,0.01 0.03,0 0.03,0.01 0.04,0.01 0.03,0 0.03,0.01 0.03,0.01 0.04,0 0.03,0.01 0.03,0 0.04,0.01 0.03,0.01 0.03,0 0.03,0.01 0.04,0.01 0.03,0 0.03,0.01 0.04,0 0.03,0.01 0.03,0.01 0.04,0 0.03,0.01 0.03,0 0.03,0.01 0.04,0.01 0.03,0 0.03,0.01 0.04,0.01 0.03,0 0.03,0.01 0.04,0 0.03,0.01 0.03,0.01 0.03,0 0.04,0.01 0.03,0 0.03,0.01 0.04,0.01 0.03,0 0.03,0.01 0.03,0 0.04,0.01 0.03,0 0.03,0.01 0.04,0.01 0.03,0 0.03,0.01 0.04,0 0.03,0.01 0.03,0.01 0.03,0 0.04,0.01 0.03,0 0.03,0.01 0.04,0 0.03,0.01 0.03,0.01 0.04,0 0.03,0.01 0.03,0 0.03,0.01 0.04,0 0.03,0.01 0.03,0.01 0.04,0 0.03,0.01 0.03,0 0.03,0.01 0.04,0 0.03,0.01 0.03,0 0.04,0.01 0.03,0.01 0.03,0 0.04,0.01 0.03,0 0.03,0.01 0.03,0 0.04,0.01 0.03,0 0.03,0.01 0.04,0 0.03,0.01 0.03,0.01 0.04,0 0.03,0.01 0.03,0 0.03,0.01 0.04,0 0.03,0.01 0.03,0 0.04,0.01 0.03,0 0.03,0.01 0.03,0 0.04,0.01 0.03,0.01 0.03,0 0.04,0.01 0.03,0 0.03,0.01 0.04,0 0.03,0.01 0.03,0 0.03,0.01 0.04,0 0.03,0.01 0.03,0 0.04,0.01 0.03,0 0.03,0.01 0.04,0 0.03,0.01 0.03,0 0.03,0.01 0.04,0 0.03,0.01 0.03,0 0.04,0.01 0.03,0 0.03,0.01 0.03,0 0.04,0.01 0.03,0 0.03,0.01 0.04,0 0.03,0.01 0.03,0 0.04,0.01 0.03,0 0.03,0.01 0.03,0 0.04,0.01 0.03,0 0.03,0.01 0.04,0 0.03,0.01 0.03,0 0.04,0.01 0.03,0 0.03,0.01 0.03,0 0.04,0.01 0.03,0 0.03,0.01 0.04,0 0.03,0.01 0.03,0 0.04,0.01 0.03,0 0.03,0.01 0.03,0 0.04,0.01 0.03,0 0.03,0 0.04,0.01 0.03,0 0.03,0.01 0.03,0 0.04,0.01 0.03,0 0.03,0.01 0.04,0 0.03,0.01 0.03,0 0.04,0.01 0.03,0 0.03,0 0.03,0.01 0.04,0 0.03,0.01 0.03,0 0.04,0.01 0.03,0 0.03,0.01 0.04,0 0.03,0.01 0.03,0 0.03,0 0.04,0.01 0.03,0 0.03,0.01 0.04,0 0.03,0.01 0.03,0 0.03,0.01 0.04,0 0.03,0 0.03,0.01 0.04,0 0.03,0.01 0.03,0 0.04,0.01 0.03,0 0.03,0.01 0.03,0 0.04,0 0.03,0.01 0.03,0 0.04,0.01 0.03,0 0.03,0.01 0.04,0 0.03,0 0.03,0.01 0.03,0 0.04,0.01 0.03,0 0.03,0.01 0.04,0 0.03,0 0.03,0.01 0.03,0 0.04,0.01 0.03,0 0.03,0 0.04,0.01 0.03,0 0.03,0.01 0.04,0 0.03,0.01 0.03,0 0.03,0 0.04,0.01 0.03,0 0.03,0.01 0.04,0 0.03,0 0.03,0.01 0.04,0 0.03,0.01 0.03,0 0.03,0 0.04,0.01 0.03,0 0.03,0.01 0.04,0 0.03,0 0.03,0.01 0.03,0 0.04,0.01 0.03,0 0.03,0 0.04,0.01 0.03,0 0.03,0.01 0.04,0 0.03,0 0.03,0.01 0.03,0 0.04,0.01 0.03,0 0.03,0 0.04,0.01 0.03,0 0.03,0 0.04,0.01 0.03,0 0.03,0.01 0.03,0 0.04,0 0.03,0.01 0.03,0 0.04,0.01 0.03,0 0.03,0 0.03,0.01 0.04,0 0.03,0 0.03,0.01 0.04,0 0.03,0.01 0.03,0 0.04,0 0.03,0.01 0.03,0 0.03,0 0.04,0.01 0.03,0 0.03,0 0.04,0.01 0.03,0 0.03,0.01 0.04,0 0.03,0 0.03,0.01 0.03,0 0.04,0 0.03,0.01 0.03,0 0.04,0 0.03,0.01 0.03,0 0.03,0.01 0.04,0 0.03,0 0.03,0.01 0.04,0 0.03,0 0.03,0.01 0.04,0 0.03,0 0.03,0.01 0.03,0 0.04,0 0.03,0.01 0.03,0 0.04,0 0.03,0.01 0.03,0 0.04,0 0.03,0.01 0.03,0 0.03,0.01 0.04,0 0.03,0 0.03,0.01 0.04,0 0.03,0 0.03,0.01 0.04,0 0.03,0 0.03,0.01 0.03,0 0.04,0 0.03,0.01 0.03,0 0.04,0 0.03,0.01 0.03,0 0.03,0 0.04,0.01 0.03,0 0.03,0 0.04,0.01 0.03,0 0.03,0 0.04,0.01 0.03,0 0.03,0 0.03,0 0.04,0.01 0.03,0 0.03,0 0.04,0.01 0.03,0 0.03,0 0.04,0.01 0.03,0 0.03,0 0.03,0.01 0.04,0 0.03,0 0.03,0.01 0.04,0 0.03,0 0.03,0.01 0.03,0 0.04,0 0.03,0.01 0.03,0 0.04,0 0.03,0 0.03,0.01 0.04,0 0.03,0 0.03,0.01 0.03,0 0.04,0 0.03,0.01 0.03,0 0.04,0 0.03,0.01 0.03,0 0.04,0 0.03,0 0.03,0.01 0.03,0 0.04,0 0.03,0.01 0.03,0 0.04,0 0.03,0.01 0.03,0 0.03,0 0.04,0 0.03,0.01 0.03,0 0.04,0 0.03,0.01 0.03,0 0.04,0 0.03,0 0.03,0.01 0.03,0 0.04,0 0.03,0.01 0.03,0 0.04,0 0.03,0 0.03,0.01 0.04,0 0.03,0 0.03,0.01 0.03,0 0.04,0 0.03,0 0.03,0.01 0.04,0 0.03,0 0.03,0.01 0.03,0 0.04,0 0.03,0 0.03,0.01 0.04,0 0.03,0 0.03,0.01 0.04,0 0.03,0 0.03,0 0.03,0.01 0.04,0 0.03,0 0.03,0 0.04,0.01 0.03,0 0.03,0 0.04,0.01 0.03,0 0.03,0 0.03,0 0.04,0.01 0.03,0 0.03,0 0.04,0 0.03,0.01 0.03,0 0.03,0 0.04,0.01 0.03,0 0.03,0 0.04,0 0.03,0.01 0.03,0 0.04,0 0.03,0 0.03,0.01 0.03,0 0.04,0 0.03,0 0.03,0.01 0.04,0 0.03,0 0.03,0 0.04,0.01 0.03,0 0.03,0 0.03,0 0.04,0.01 0.03,0 0.03,0 0.04,0 0.03,0.01 0.03,0 0.03,0 0.04,0 0.03,0.01 0.03,0 0.04,0 0.03,0 0.03,0.01 0.04,0 0.03,0 0.03,0 0.03,0.01 0.04,0 0.03,0 0.03,0 0.04,0.01 0.03,0 0.03,0 0.04,0 0.03,0.01 0.03,0 0.03,0 0.04,0 0.03,0.01 0.03,0 0.04,0 0.03,0 0.03,0.01 0.04,0 0.03,0 0.03,0 0.03,0.01 0.04,0 0.03,0 0.03,0 0.04,0 0.03,0.01 0.03,0 0.03,0 0.04,0 0.03,0.01 0.03,0 0.04,0 0.03,0 0.03,0.01 0.04,0 0.03,0 0.03,0 0.03,0 0.04,0.01 0.03,0 0.03,0 0.04,0 0.03,0.01 0.03,0 0.04,0 0.03,0 0.03,0 0.03,0.01 0.04,0 0.03,0 0.03,0 0.04,0.01 0.03,0 0.03,0 0.03,0 0.04,0 0.03,0.01 0.03,0 0.04,0 0.03,0 0.03,0.01 0.04,0 0.03,0 0.03,0 0.03,0 0.04,0.01 0.03,0 0.03,0 0.04,0 0.03,0.01 0.03,0 0.04,0 0.03,0 0.03,0 0.03,0.01 0.04,0 0.03,0 0.03,0 0.04,0 0.03,0.01 0.03,0 0.03,0 0.04,0 0.03,0 0.03,0.01 0.04,0 0.03,0 0.03,0 0.04,0.01 0.03,0 0.03,0 0.03,0 0.04,0 0.03,0.01 0.03,0 0.04,0 0.03,0 0.03,0 0.04,0.01 0.03,0 0.03,0 0.03,0 0.04,0 0.03,0.01 0.03,0 0.04,0 0.03,0 0.03,0 0.03,0.01 0.04,0 0.03,0 0.03,0 0.04,0 0.03,0.01 0.03,0 0.04,0 0.03,0 0.03,0 0.03,0 0.04,0.01 0.03,0 0.03,0 0.04,0 0.03,0 0.03,0.01 0.04,0 0.03,0 0.03,0 0.03,0 0.04,0.01 0.03,0 0.03,0 0.04,0 0.03,0 0.03,0.01 0.03,0 0.04,0 0.03,0 0.03,0 0.04,0 0.03,0.01 0.03,0 0.04,0 0.03,0 0.03,0 0.03,0.01 0.04,0 0.03,0 0.03,0 0.04,0 0.03,0 0.03,0.01 0.04,0 0.03,0 0.03,0 0.03,0 0.04,0.01 0.03,0 0.03,0 0.04,0 0.03,0 0.03,0 0.03,0.01 0.04,0 0.03,0 0.03,0 0.04,0 0.03,0 0.03,0.01 0.04,0 0.03,0 0.03,0 0.03,0 0.04,0.01 0.03,0 0.03,0 0.04,0 0.03,0 0.03,0 0.04,0.01 0.03,0 0.03,0 0.03,0 0.04,0 0.03,0 0.03,0.01 0.04,0 0.03,0 0.03,0 0.04,0 0.03,0 0.03,0.01 0.03,0 0.04,0 0.03,0 0.03,0 0.04,0 0.03,0.01 0.03,0 0.03,0 0.04,0 0.03,0 0.03,0 0.04,0.01 0.03,0 0.03,0 0.04,0 0.03,0 0.03,0 0.03,0.01 0.04,0 0.03,0 0.03,0 0.04,0 0.03,0 0.03,0 0.04,0.01 0.03,0 0.03,0 0.03,0 0.04,0 0.03,0 0.03,0.01 0.04,0 0.03,0 0.03,0 0.03,0 0.04,0 0.03,0.01 0.03,0 0.04,0 0.03,0 0.03,0 0.04,0 0.03,0 0.03,0.01 0.03,0 0.04,0 0.03,0 0.03,0 0.04,0 0.03,0 0.03,0.01 0.04,0 0.03,0 0.03,0 0.03,0 0.04,0 0.03,0.01 0.03,0 0.04,0 0.03,0 0.03,0 0.03,0 0.04,0 0.03,0.01 0.03,0 0.04,0 0.03,0 0.03,0 0.04,0 0.03,0 0.03,0.01 0.03,0 0.04,0 0.03,0 0.03,0 0.04,0 0.03,0 0.03,0.01 0.04,0 0.03,0 0.03,0 0.03,0 0.04,0 0.03,0 0.03,0.01 0.04,0 0.03,0 0.03,0 0.03,0 0.04,0 0.03,0 0.03,0.01 0.04,0 0.03,0 0.03,0 0.04,0 0.03,0 0.03,0 0.03,0.01 0.04,0 0.03,0 0.03,0 0.04,0 0.03,0 0.03,0 0.04,0 0.03,0.01 0.03,0 0.03,0 0.04,0 0.03,0 0.03,0 0.04,0 0.03,0.01 0.03,0 0.03,0 0.04,0 0.03,0 0.03,0 0.04,0 0.03,0 0.03,0.01 0.04,0 0.03,0 0.03,0 0.03,0 0.04,0 0.03,0 0.03,0 0.04,0.01 0.03,0 0.03,0 0.04,0 0.03,0 0.03,0 0.03,0 0.04,0 0.03,0.01 0.03,0 0.04,0 0.03,0 0.03,0 0.04,0 0.03,0 0.03,0 0.03,0.01 0.04,0 0.03,0 0.03,0 0.04,0 0.03,0 0.03,0 0.03,0 0.04,0.01 0.03,0 0.03,0 0.04,0 0.03,0 0.03,0 0.04,0 0.03,0 0.03,0.01 0.03,0 0.04,0 0.03,0 0.03,0 0.04,0 0.03,0 0.03,0 0.04,0 0.03,0.01 0.03,0 0.03,0 0.04,0 0.03,0 0.03,0 0.04,0 0.03,0 0.03,0.01 0.03,0 0.04,0 0.03,0 0.03,0 0.04,0 0.03,0 0.03,0 0.04,0 0.03,0.01 0.03,0 0.03,0 0.04,0 0.03,0 0.03,0 0.04,0 0.03,0 0.03,0 0.04,0.01 0.03,0 0.03,0 0.03,0 0.04,0 0.03,0 0.03,0 0.04,0 0.03,0 0.03,0.01 0.03,0 0.04,0 0.03,0 0.03,0 0.04,0 0.03,0 0.03,0 0.04,0 0.03,0.01 0.03,0 0.03,0 0.04,0 0.03,0 0.03,0 0.04,0 0.03,0 0.03,0 0.04,0 0.03,0.01 0.03,0 0.03,0 0.04,0 0.03,0 0.03,0 0.04,0 0.03,0 0.03,0 0.03,0.01 0.04,0 0.03,0 0.03,0 0.04,0 0.03,0 0.03,0 0.04,0 0.03,0 0.03,0 0.03,0.01 0.04,0 0.03,0 0.03,0 0.04,0 0.03,0 0.03,0 0.04,0 0.03,0 0.03,0 0.03,0.01 0.04,0 0.03,0 0.03,0 0.04,0 0.03,0 0.03,0 0.03,0 0.04,0 0.03,0 0.03,0.01 0.04,0 0.03,0 0.03,0 0.04,0 0.03,0 0.03,0 0.03,0 0.04,0 0.03,0 0.03,0 0.04,0.01 0.03,0 0.03,0 0.04,0 0.03,0 0.03,0 0.03,0 0.04,0 0.03,0 0.03,0 0.04,0.01 0.03,0 0.03,0 0.03,0 0.04,0 0.03,0 0.03,0 0.04,0 0.03,0 0.03,0 0.04,0 0.03,0.01 0.03,0 0.03,0 0.04,0 0.03,0 0.03,0 0.04,0 0.03,0 0.03,0 0.04,0 0.03,0 0.03,0.01 0.03,0 0.04,0 0.03,0 0.03,0 0.04,0 0.03,0 0.03,0 0.04,0 0.03,0 0.03,0 0.03,0 0.04,0.01 0.03,0 0.03,0 0.04,0 0.03,0 0.03,0 0.03,0 0.04,0 0.03,0 0.03,0 0.04,0 0.03,0.01 0.03,0 0.04,0 0.03,0 0.03,0 0.03,0 0.04,0 0.03,0 0.03,0 0.04,0 0.03,0 0.03,0 0.04,0.01 0.03,0 0.03,0 0.03,0 0.04,0 0.03,0 0.03,0 0.04,0 0.03,0 0.03,0 0.03,0 0.04,0 0.03,0 0.03,0.01 0.04,0 0.03,0 0.03,0 0.04,0 0.03,0 0.03,0 0.03,0 0.04,0 0.03,0 0.03,0 0.04,0 0.03,0.01 0.03,0 0.04,0 0.03,0 0.03,0 0.03,0 0.04,0 0.03,0 0.03,0 0.04,0 0.03,0 0.03,0 0.03,0 0.04,0.01 0.03,0 0.03,0 0.04,0 0.03,0 0.03,0 0.04,0 0.03,0 0.03,0 0.03,0 0.04,0 0.03,0 0.03,0 0.04,0.01 0.03,0 0.03,0 0.04,0 0.03,0 0.03,0 0.03,0 0.04,0 0.03,0 0.03,0 0.04,0 0.03,0 0.03,0 0.03,0 0.04,0.01 0.03,0 0.03,0 0.04,0 0.03,0 0.03,0 0.04,0 0.03,0 0.03,0 0.03,0 0.04,0 0.03,0 0.03,0 0.04,0 0.03,0.01 0.03,0 0.04,0 0.03,0 0.03,0 0.03,0 0.04,0 0.03,0 0.03,0 0.04,0 0.03,0 0.03,0 0.03,0 0.04,0 0.03,0.01 0.03,0 0.04,0 0.03,0 0.03,0 0.04,0 0.03,0 0.03,0 0.03,0 0.04,0 0.03,0 0.03,0 0.04,0 0.03,0 0.03,0 0.04,0.01 0.03,0 0.03,0 0.03,0 0.04,0 0.03,0 0.03,0 0.04,0 0.03,0 0.03,0 0.03,0 0.04,0 0.03,0 0.03,0 0.04,0 0.03,0 0.03,0.01 0.04,0 0.03,0 0.03,0 0.03,0 0.04,0 0.03,0 0.03,0 0.04,0 0.03,0 0.03,0 0.04,0 0.03,0 0.03,0 0.03,0 0.04,0 0.03,0.01 0.03,0 0.04,0 0.03,0 0.03,0 0.04,0 0.03,0 0.03,0 0.03,0 0.04,0 0.03,0 0.03,0 0.04,0 0.03,0 0.03,0 0.03,0 0.04,0.01 0.03,0 0.03,0 0.04,0 0.03,0 0.03,0 0.04,0 0.03,0 0.03,0 0.03,0 0.04,0 0.03,0 0.03,0 0.04,0 0.03,0 0.03,0 0.04,0 0.03,0.01 0.03,0 0.03,0 0.04,0 0.03,0 0.03,0 0.04,0 0.03,0 0.03,0 0.03,0 0.04,0 0.03,0 0.03,0 0.04,0 0.03,0 0.03,0 0.04,0 0.03,0.01 0.03,0 0.03,0 0.04,0 0.03,0 0.03,0 0.04,0 0.03,0 0.03,0 0.04,0 0.03,0 0.03,0 0.03,0 0.04,0 0.03,0 0.03,0 0.04,0 0.03,0 0.03,0 0.03,0.01 0.04,0 0.03,0 0.03,0 0.04,0 0.03,0 0.03,0 0.04,0 0.03,0 0.03,0 0.03,0 0.04,0 0.03,0 0.03,0 0.04,0 0.03,0 0.03,0 0.04,0 0.03,0.01 0.03,0 0.03,0 0.04,0 0.03,0 0.03,0 0.04,0 0.03,0 0.03,0 0.03,0 0.04,0 0.03,0 0.03,0 0.04,0 0.03,0 0.03,0 0.04,0 0.03,0 0.03,0 0.03,0 0.04,0.01 0.03,0 0.03,0 0.04,0 0.03,0 0.03,0 0.04,0 0.03,0 0.03,0 0.03,0 0.04,0 0.03,0 0.03,0 0.04,0 0.03,0 0.03,0 0.03,0 0.04,0 0.03,0 0.03,0 0.04,0 0.03,0.01 0.03,0 0.04,0 0.03,0 0.03,0 0.03,0 0.04,0 0.03,0 0.03,0 0.04,0 0.03,0 0.03,0 0.04,0 0.03,0 0.03,0 0.03,0 0.04,0 0.03,0 0.03,0 0.04,0 0.03,0 0.03,0.01 0.03,0 0.04,0 0.03,0 0.03,0 0.04,0 0.03,0 0.03,0 0.04,0 0.03,0 0.03,0 0.03,0 0.04,0 0.03,0 0.03,0 0.04,0 0.03,0 0.03,0 0.04,0 0.03,0 0.03,0 0.03,0 0.04,0.01 0.03,0 0.03,0 0.04,0 0.03,0 0.03,0 0.04,0 0.03,0 0.03,0 0.03,0 0.04,0 0.03,0 0.03,0 0.04,0 0.03,0 0.03,0 0.03,0 0.04,0 0.03,0 0.03,0 0.04,0 0.03,0 0.03,0 0.04,0 0.03,0.01 0.03,0 0.03,0 0.04,0 0.03,0 0.03,0 0.04,0 0.03,0 0.03,0 0.04,0 0.03,0 0.03,0 0.03,0 0.04,0 0.03,0 0.03,0 0.04,0 0.03,0 0.03,0 0.03,0 0.04,0 0.03,0 0.03,0 0.04,0 0.03,0.01 0.03,0 0.04,0 0.03,0 0.03,0 0.03,0 0.04,0 0.03,0 0.03,0 0.04,0 0.03,0 0.03,0 0.04,0 0.03,0 0.03,0 0.03,0 0.04,0 0.03,0 0.03,0 0.04,0 0.03,0 0.03,0 0.03,0 0.04,0 0.03,0 0.03,0 0.04,0.01 0.03,0 0.03,0 0.04,0 0.03,0 0.03,0 0.03,0 0.04,0 0.03,0 0.03,0 0.04,0 0.03,0 0.03,0 0.04,0 0.03,0 0.03,0 0.03,0 0.04,0 0.03,0 0.03,0 0.04,0 0.03,0 0.03,0 0.03,0 0.04,0 0.03,0 0.03,0 0.04,0.01 0.03,0 0.03,0 0.04,0 0.03,0 0.03,0 0.03,0 0.04,0 0.03,0 0.03,0 0.04,0 0.03,0 0.03,0 0.04,0 0.03,0 0.03,0 0.03,0 0.04,0 0.03,0 0.03,0 0.04,0 0.03,0 0.03,0 0.03,0 0.04,0 0.03,0 0.03,0 0.04,0 0.03,0 0.03,0.01 0.04,0 0.03,0 0.03,0 0.03,0 0.04,0 0.03,0 0.03,0 0.04,0 0.03,0 0.03,0 0.04,0 0.03,0 0.03,0 0.03,0 0.04,0 0.03,0 0.03,0 0.04,0 0.03,0 0.03,0 0.03,0 0.04,0 0.03,0 0.03,0 0.04,0 0.03,0 0.03,0 0.04,0 0.03,0 0.03,0 0.03,0.01 0.04,0 0.03,0 0.03,0 0.04,0 0.03,0 0.03,0 0.04,0 0.03,0 0.03,0 0.03,0 0.04,0 0.03,0 0.03,0 0.04,0 0.03,0 0.03,0 0.04,0 0.03,0 0.03,0 0.03,0 0.04,0 0.03,0 0.03,0 0.04,0 0.03,0 0.03,0 0.03,0 0.04,0 0.03,0 0.03,0 0.04,0 0.03,0 0.03,0.01 0.04,0 0.03,0 0.03,0 0.03,0 0.04,0 0.03,0 0.03,0 0.04,0 0.03,0 0.03,0 0.04,0 0.03,0 0.03,0 0.03,0 0.04,0 0.03,0 0.03,0 0.04,0 0.03,0 0.03,0 0.03,0 0.04,0 0.03,0 0.03,0 0.04,0 0.03,0 0.03,0 0.04,0 0.03,0 0.03,0 0.03,0 0.04,0 0.03,0 0.03,0 0.04,0.01 0.03,0 0.03,0 0.04,0 0.03,0 0.03,0 0.03,0 0.04,0 0.03,0 0.03,0 0.04,0 0.03,0 0.03,0 0.03,0 0.04,0 0.03,0 0.03,0 0.04,0 0.03,0 0.03,0 0.04,0 0.03,0 0.03,0 0.03,0 0.04,0 0.03,0 0.03,0 0.04,0 0.03,0 0.03,0 0.04,0 0.03,0 0.03,0 0.03,0 0.04,0 0.03,0 0.03,0 0.04,0 0.03,0.01 0.03,0 0.03,0 0.04,0 0.03,0 0.03,0 0.04,0 0.03,0 0.03,0 0.04,0 0.03,0 0.03,0 0.03,0 0.04,0 0.03,0 0.03,0 0.04,0 0.03,0 0.03,0 0.04,0 0.03,0 0.03,0 0.03,0 0.04,0 0.03,0 0.03,0 0.04,0 0.03,0 0.03,0 0.03,0 0.04,0 0.03,0 0.03,0 0.04,0 0.03,0 0.03,0 0.04,0 0.03,0 0.03,0 0.03,0 0.04,0 0.03,0.01 0.03,0 0.04,0 0.03,0 0.03,0 0.04,0 0.03,0 0.03,0 0.03,0 0.04,0 0.03,0 0.03,0 0.04,0 0.03,0 0.03,0 0.03,0 0.04,0 0.03,0 0.03,0 0.04,0 0.03,0 0.03,0 0.04,0 0.03,0 0.03,0 0.03,0 0.04,0 0.03,0 0.03,0 0.04,0 0.03,0 0.03,0 0.04,0 0.03,0 0.03,0 0.03,0 0.04,0 0.03,0 0.03,0 0.04,0 0.03,0 0.03,0 0.04,0 0.03,0 0.03,0 0.03,0.01 0.04,0 0.03,0 0.03,0 0.04,0 0.03,0 0.03,0 0.03,0 0.04,0 0.03,0 0.03,0 0.04,0 0.03,0 0.03,0 0.04,0 0.03,0 0.03,0 0.03,0 0.04,0 0.03,0 0.03,0 0.04,0 0.03,0 0.03,0 0.04,0 0.03,0 0.03,0 0.03,0 0.04,0 0.03,0 0.03,0 0.04,0 0.03,0 0.03,0 0.03,0 0.04,0 0.03,0 0.03,0 0.04,0 0.03,0 0.03,0 0.04,0 0.03,0 0.03,0 0.03,0 0.04,0 0.03,0 0.03,0 0.04,0 0.03,0.01 0.03,0 0.04,0 0.03,0 0.03,0 0.03,0 0.04,0 0.03,0 0.03,0 0.04,0 0.03,0 0.03,0 0.03,0 0.04,0 0.03,0 0.03,0 0.04,0 0.03,0 0.03,0 0.04,0"
       style="fill:none;stroke:#f07973;stroke-width:1.05999994;stroke-linecap:butt;stroke-linejoin:round;stroke-miterlimit:1;stroke-dasharray:none;stroke-opacity:1"
       id="path70"
       inkscape:connector-curvature="0" /><g
       id="g74" /><g
       id="g76" /><g
       id="g78"
       style="fill:#f4e6d4;fill-opacity:1"><text
         transform="matrix(1,0,0,-1,23.02,39.53)"
         style="font-variant:normal;font-weight:normal;font-size:10px;font-family:Helvetica;-inkscape-font-specification:Helvetica;writing-mode:lr-tb;fill:#f4e6d4;fill-opacity:1;fill-rule:nonzero;stroke:none"
         id="text80"><tspan
           x="0 5.5599999 8.3400002 13.9"
           y="0"
           sodipodi:role="line"
           id="tspan82">0.00</tspan></text>
<text
         transform="matrix(1,0,0,-1,23.02,78.41)"
         style="font-variant:normal;font-weight:normal;font-size:10px;font-family:Helvetica;-inkscape-font-specification:Helvetica;writing-mode:lr-tb;fill:#f4e6d4;fill-opacity:1;fill-rule:nonzero;stroke:none"
         id="text84"><tspan
           x="0 5.5599999 8.3400002 13.9"
           y="0"
           sodipodi:role="line"
           id="tspan86">0.05</tspan></text>
<text
         transform="matrix(1,0,0,-1,23.02,117.29)"
         style="font-variant:normal;font-weight:normal;font-size:10px;font-family:Helvetica;-inkscape-font-specification:Helvetica;writing-mode:lr-tb;fill:#f4e6d4;fill-opacity:1;fill-rule:nonzero;stroke:none"
         id="text88"><tspan
           x="0 5.5599999 8.3400002 13.9"
           y="0"
           sodipodi:role="line"
           id="tspan90">0.10</tspan></text>
<text
         transform="matrix(1,0,0,-1,23.02,156.18)"
         style="font-variant:normal;font-weight:normal;font-size:10px;font-family:Helvetica;-inkscape-font-specification:Helvetica;writing-mode:lr-tb;fill:#f4e6d4;fill-opacity:1;fill-rule:nonzero;stroke:none"
         id="text92"><tspan
           x="0 5.5599999 8.3400002 13.9"
           y="0"
           sodipodi:role="line"
           id="tspan94">0.15</tspan></text>
</g><g
       id="g96" /><g
       id="g98"
       style="stroke:#f4e6d4;stroke-opacity:1"><path
         d="m 45.31,43.12 4.25,0"
         style="fill:none;stroke:#f4e6d4;stroke-width:1.05999994;stroke-linecap:butt;stroke-linejoin:round;stroke-miterlimit:10;stroke-dasharray:none;stroke-opacity:1"
         id="path100"
         inkscape:connector-curvature="0" /><path
         d="m 45.31,82 4.25,0"
         style="fill:none;stroke:#f4e6d4;stroke-width:1.05999994;stroke-linecap:butt;stroke-linejoin:round;stroke-miterlimit:10;stroke-dasharray:none;stroke-opacity:1"
         id="path102"
         inkscape:connector-curvature="0" /><path
         d="m 45.31,120.88 4.25,0"
         style="fill:none;stroke:#f4e6d4;stroke-width:1.05999994;stroke-linecap:butt;stroke-linejoin:round;stroke-miterlimit:10;stroke-dasharray:none;stroke-opacity:1"
         id="path104"
         inkscape:connector-curvature="0" /><path
         d="m 45.31,159.77 4.25,0"
         style="fill:none;stroke:#f4e6d4;stroke-width:1.05999994;stroke-linecap:butt;stroke-linejoin:round;stroke-miterlimit:10;stroke-dasharray:none;stroke-opacity:1"
         id="path106"
         inkscape:connector-curvature="0" /></g><g
       id="g108" /><g
       id="g110" /><g
       id="g112" /><g
       id="g114" /><g
       id="g116" /><g
       id="g118"
       style="stroke:#f4e6d4;stroke-opacity:1"><path
         d="m 54.84,33.03 0,4.25"
         style="fill:none;stroke:#f4e6d4;stroke-width:1.05999994;stroke-linecap:butt;stroke-linejoin:round;stroke-miterlimit:10;stroke-dasharray:none;stroke-opacity:1"
         id="path120"
         inkscape:connector-curvature="0" /><path
         d="m 87.8,33.03 0,4.25"
         style="fill:none;stroke:#f4e6d4;stroke-width:1.05999994;stroke-linecap:butt;stroke-linejoin:round;stroke-miterlimit:10;stroke-dasharray:none;stroke-opacity:1"
         id="path122"
         inkscape:connector-curvature="0" /><path
         d="m 120.77,33.03 0,4.25"
         style="fill:none;stroke:#f4e6d4;stroke-width:1.05999994;stroke-linecap:butt;stroke-linejoin:round;stroke-miterlimit:10;stroke-dasharray:none;stroke-opacity:1"
         id="path124"
         inkscape:connector-curvature="0" /><path
         d="m 153.73,33.03 0,4.25"
         style="fill:none;stroke:#f4e6d4;stroke-width:1.05999994;stroke-linecap:butt;stroke-linejoin:round;stroke-miterlimit:10;stroke-dasharray:none;stroke-opacity:1"
         id="path126"
         inkscape:connector-curvature="0" /></g><g
       id="g128" /><g
       id="g130"
       style="fill:#f4e6d4;fill-opacity:1"><text
         transform="matrix(1,0,0,-1,52.06,23.02)"
         style="font-variant:normal;font-weight:normal;font-size:10px;font-family:Helvetica;-inkscape-font-specification:Helvetica;writing-mode:lr-tb;fill:#f4e6d4;fill-opacity:1;fill-rule:nonzero;stroke:none"
         id="text132"><tspan
           x="0"
           y="0"
           id="tspan134"
           style="fill:#f4e6d4;fill-opacity:1">0</tspan></text>
<text
         transform="matrix(1,0,0,-1,82.24,23.02)"
         style="font-variant:normal;font-weight:normal;font-size:10px;font-family:Helvetica;-inkscape-font-specification:Helvetica;writing-mode:lr-tb;fill:#f4e6d4;fill-opacity:1;fill-rule:nonzero;stroke:none"
         id="text136"><tspan
           x="0 5.5599999"
           y="0"
           sodipodi:role="line"
           id="tspan138">10</tspan></text>
<text
         transform="matrix(1,0,0,-1,115.21,23.02)"
         style="font-variant:normal;font-weight:normal;font-size:10px;font-family:Helvetica;-inkscape-font-specification:Helvetica;writing-mode:lr-tb;fill:#f4e6d4;fill-opacity:1;fill-rule:nonzero;stroke:none"
         id="text140"><tspan
           x="0 5.5599999"
           y="0"
           sodipodi:role="line"
           id="tspan142">20</tspan></text>
<text
         transform="matrix(1,0,0,-1,148.17,23.02)"
         style="font-variant:normal;font-weight:normal;font-size:10px;font-family:Helvetica;-inkscape-font-specification:Helvetica;writing-mode:lr-tb;fill:#f4e6d4;fill-opacity:1;fill-rule:nonzero;stroke:none"
         id="text144"><tspan
           x="0 5.5599999"
           y="0"
           sodipodi:role="line"
           id="tspan146">30</tspan></text>
</g><g
       id="g148" /><g
       id="g150" /><g
       id="g152" /><g
       id="g154" /><g
       id="g156"
       style="fill:#f4e6d4;fill-opacity:1"><text
         transform="matrix(1,0,0,-1,94.25,10.8)"
         style="font-variant:normal;font-weight:normal;font-size:12px;font-family:Helvetica;-inkscape-font-specification:Helvetica;writing-mode:lr-tb;fill:#f4e6d4;fill-opacity:1;fill-rule:nonzero;stroke:none"
         id="text158"><tspan
           x="0 7.3319998 9.9960003 19.992001"
           y="0"
           sodipodi:role="line"
           id="tspan160">Time</tspan></text>
</g><g
       id="g162" /><g
       id="g164"
       style="fill:#f4e6d4;fill-opacity:1"><text
         transform="matrix(0,1,1,0,19.42,81.44)"
         style="font-variant:normal;font-weight:normal;font-size:12px;font-family:Helvetica;-inkscape-font-specification:Helvetica;writing-mode:lr-tb;fill:#f4e6d4;fill-opacity:1;fill-rule:nonzero;stroke:none"
         id="text166"><tspan
           x="0 8.6639996 15.336 22.007999 28.007999 30.672001 34.007999"
           y="0"
           sodipodi:role="line"
           id="tspan168">Density</tspan></text>
</g><g
       id="g170" /><g
       id="g172" /><g
       id="g174" /><g
       id="g176" /></g></svg>