<?xml version="1.0" encoding="UTF-8" standalone="no"?>
<!-- Created with Inkscape (http://www.inkscape.org/) -->

<svg
   xmlns:dc="http://purl.org/dc/elements/1.1/"
   xmlns:cc="http://creativecommons.org/ns#"
   xmlns:rdf="http://www.w3.org/1999/02/22-rdf-syntax-ns#"
   xmlns:svg="http://www.w3.org/2000/svg"
   xmlns="http://www.w3.org/2000/svg"
   xmlns:sodipodi="http://sodipodi.sourceforge.net/DTD/sodipodi-0.dtd"
   xmlns:inkscape="http://www.inkscape.org/namespaces/inkscape"
   id="svg2"
   version="1.1"
   inkscape:version="0.91 r13725"
   xml:space="preserve"
   width="306.33011"
   height="133.34793"
   viewBox="0 0 306.3301 133.34792"
   sodipodi:docname="most_stable_explanation.svg"><metadata
     id="metadata8"><rdf:RDF><cc:Work
         rdf:about=""><dc:format>image/svg+xml</dc:format><dc:type
           rdf:resource="http://purl.org/dc/dcmitype/StillImage" /><dc:title></dc:title></cc:Work></rdf:RDF></metadata><defs
     id="defs6"><clipPath
       clipPathUnits="userSpaceOnUse"
       id="clipPath1372"><path
         d="m 133.41,226.599 230.379,0 0,-32.254 -230.379,0 0,32.254 z"
         id="path1374"
         inkscape:connector-curvature="0" /></clipPath><clipPath
       clipPathUnits="userSpaceOnUse"
       id="clipPath1382"><path
         d="m 133,193 232,0 0,35 -232,0 0,-35 z"
         id="path1384"
         inkscape:connector-curvature="0" /></clipPath><clipPath
       clipPathUnits="userSpaceOnUse"
       id="clipPath1392"><path
         d="m 133.07,227.379 231.676,0 0,-34.254 -231.676,0 0,34.254 z"
         id="path1394"
         inkscape:connector-curvature="0" /></clipPath><clipPath
       clipPathUnits="userSpaceOnUse"
       id="clipPath1402"><path
         d="m 133,193 232,0 0,35 -232,0 0,-35 z"
         id="path1404"
         inkscape:connector-curvature="0" /></clipPath><clipPath
       clipPathUnits="userSpaceOnUse"
       id="clipPath1412"><path
         d="m 133.41,227.371 231.016,0 0,-33.523 -231.016,0 0,33.523 z"
         id="path1414"
         inkscape:connector-curvature="0" /></clipPath><clipPath
       clipPathUnits="userSpaceOnUse"
       id="clipPath1422"><path
         d="m 133,193 232,0 0,35 -232,0 0,-35 z"
         id="path1424"
         inkscape:connector-curvature="0" /></clipPath><clipPath
       clipPathUnits="userSpaceOnUse"
       id="clipPath1432"><path
         d="m 133.07,227.379 231.676,0 0,-33.523 -231.676,0 0,33.523 z"
         id="path1434"
         inkscape:connector-curvature="0" /></clipPath><clipPath
       clipPathUnits="userSpaceOnUse"
       id="clipPath1442"><path
         d="m 133,194 232,0 0,34 -232,0 0,-34 z"
         id="path1444"
         inkscape:connector-curvature="0" /></clipPath><clipPath
       clipPathUnits="userSpaceOnUse"
       id="clipPath1452"><path
         d="m 133.41,227.371 231.016,0 0,-32.914 -231.016,0 0,32.914 z"
         id="path1454"
         inkscape:connector-curvature="0" /></clipPath><clipPath
       clipPathUnits="userSpaceOnUse"
       id="clipPath1462"><path
         d="m 133,193 232,0 0,35 -232,0 0,-35 z"
         id="path1464"
         inkscape:connector-curvature="0" /></clipPath><clipPath
       clipPathUnits="userSpaceOnUse"
       id="clipPath1472"><path
         d="m 133.07,227.379 231.676,0 0,-33.523 -231.676,0 0,33.523 z"
         id="path1474"
         inkscape:connector-curvature="0" /></clipPath><clipPath
       clipPathUnits="userSpaceOnUse"
       id="clipPath1482"><path
         d="m 133,194 232,0 0,34 -232,0 0,-34 z"
         id="path1484"
         inkscape:connector-curvature="0" /></clipPath><clipPath
       clipPathUnits="userSpaceOnUse"
       id="clipPath1492"><path
         d="m 133.41,227.371 231.016,0 0,-32.793 -231.016,0 0,32.793 z"
         id="path1494"
         inkscape:connector-curvature="0" /></clipPath><clipPath
       clipPathUnits="userSpaceOnUse"
       id="clipPath1502"><path
         d="m 132,194 233,0 0,35 -233,0 0,-35 z"
         id="path1504"
         inkscape:connector-curvature="0" /></clipPath><clipPath
       clipPathUnits="userSpaceOnUse"
       id="clipPath1512"><path
         d="m 132.41,228.105 232.336,0 0,-33.523 -232.336,0 0,33.523 z"
         id="path1514"
         inkscape:connector-curvature="0" /></clipPath><clipPath
       clipPathUnits="userSpaceOnUse"
       id="clipPath1522"><path
         d="m 133,194 232,0 0,34 -232,0 0,-34 z"
         id="path1524"
         inkscape:connector-curvature="0" /></clipPath><clipPath
       clipPathUnits="userSpaceOnUse"
       id="clipPath1668"><path
         d="m 134.023,319.099 229.926,0 0,-72.375 -229.926,0 0,72.375 z"
         id="path1670"
         inkscape:connector-curvature="0" /></clipPath><clipPath
       clipPathUnits="userSpaceOnUse"
       id="clipPath1678"><path
         d="m 133,246 232,0 0,75 -232,0 0,-75 z"
         id="path1680"
         inkscape:connector-curvature="0" /></clipPath><clipPath
       clipPathUnits="userSpaceOnUse"
       id="clipPath1688"><path
         d="m 133.188,320.426 231.75,0 0,-73.496 -231.75,0 0,73.496 z"
         id="path1690"
         inkscape:connector-curvature="0" /></clipPath><clipPath
       clipPathUnits="userSpaceOnUse"
       id="clipPath1698"><path
         d="m 133,247 232,0 0,74 -232,0 0,-74 z"
         id="path1700"
         inkscape:connector-curvature="0" /></clipPath></defs><sodipodi:namedview
     pagecolor="#ffffff"
     bordercolor="#666666"
     borderopacity="1"
     objecttolerance="10"
     gridtolerance="10"
     guidetolerance="10"
     inkscape:pageopacity="0"
     inkscape:pageshadow="2"
     inkscape:window-width="1920"
     inkscape:window-height="1026"
     id="namedview4"
     showgrid="false"
     inkscape:zoom="2.1571617"
     inkscape:cx="141.56383"
     inkscape:cy="124.11243"
     inkscape:window-x="0"
     inkscape:window-y="0"
     inkscape:window-maximized="1"
     inkscape:current-layer="g10"
     fit-margin-top="0"
     fit-margin-left="0"
     fit-margin-right="0"
     fit-margin-bottom="0" /><g
     id="g10"
     inkscape:groupmode="layer"
     inkscape:label="interfig-5"
     transform="matrix(1.25,0,0,-1.25,-103.91452,379.94026)"><g
       style="stroke:none;stroke-opacity:1"
       id="g1386"
       transform="translate(0,-0.772003)" /><g
       id="g1406"
       style="stroke:none;stroke-opacity:1"
       transform="translate(0,-0.772003)" /><g
       style="stroke:none;stroke-opacity:1"
       id="g1426"
       transform="translate(0,-0.772003)" /><g
       id="g1446"
       style="stroke:none;stroke-opacity:1"
       transform="translate(0,-0.772003)" /><g
       style="stroke:none;stroke-opacity:1"
       id="g1466"
       transform="translate(0,-0.772003)" /><g
       id="g1486"
       style="stroke:none;stroke-opacity:1"
       transform="translate(0,-0.772003)" /><g
       style="stroke:none;stroke-opacity:1"
       id="g1506"
       transform="translate(0,-0.772003)" /><g
       id="g1682"
       transform="translate(0,-0.772003)" /><g
       style="stroke:none;stroke-opacity:1"
       transform="matrix(0.69404063,0,0,0.7641162,49.787367,308.85679)"
       id="g1650"><path
         inkscape:connector-curvature="0"
         id="path1652"
         style="fill:none;stroke:none;stroke-width:0.77977997;stroke-linecap:round;stroke-linejoin:round;stroke-miterlimit:10;stroke-dasharray:none;stroke-opacity:1"
         d="m 146.88,-104.629 253.64,0 0,-32.254 -253.64,0 0,32.254 z" /></g><g
       transform="matrix(1.0131888,0,0,0.8388278,-38.69184,312.62504)"
       id="g1710"
       style="stroke:#fed58c;stroke-opacity:1"><path
         inkscape:connector-curvature="0"
         id="path1712"
         style="fill:none;stroke:#fed58c;stroke-width:1.23890197;stroke-linecap:butt;stroke-linejoin:round;stroke-miterlimit:1;stroke-dasharray:none;stroke-opacity:1"
         d="m 144.473,-18.809 2.093,-0.071 2.094,-0.1 2.086,-0.105 2.094,-0.143 2.082,-0.162 2.094,-0.191 2.093,-0.233 2.09,-0.276 2.09,-0.329 2.086,-0.381 2.09,-0.439 2.094,-0.509 2.089,-0.591 2.094,-0.677 2.09,-0.771 2.086,-0.882 2.09,-0.991 2.09,-1.11 2.093,-1.243 2.09,-1.387 2.086,-1.519 2.094,-1.687 2.09,-1.829 2.09,-1.996 2.093,-2.149 2.09,-2.311 2.086,-2.463 2.094,-2.62 2.09,-2.749 2.09,-2.887 2.093,-2.997 2.082,-3.096 2.094,-3.173 2.09,-3.226 4.184,-6.503 2.089,-3.22 2.086,-3.164 2.09,-3.068 2.094,-2.944 2.09,-2.773 2.09,-2.596 2.086,-2.368 2.089,-2.115 2.094,-1.844 2.094,-1.539 2.09,-1.215 2.086,-0.881 2.09,-0.543 2.089,-0.172 2.094,0.172 2.094,0.543 2.09,0.881 2.082,1.215 2.094,1.539 2.089,1.844 2.094,2.115 2.09,2.368 2.082,2.596 2.094,2.773 2.093,2.944 2.09,3.068 2.09,3.164 2.094,3.22 2.082,3.25 2.094,3.253 2.093,3.226 2.086,3.173 2.094,3.096 2.086,2.997 2.09,2.887 2.094,2.749 2.089,2.62 2.09,2.463 2.094,2.311 2.086,2.149 2.09,1.996 2.09,1.829 2.093,1.687 2.09,1.519 2.086,1.387 2.09,1.243 2.094,1.11 2.09,0.991 2.093,0.882 2.082,0.771 2.094,0.677 2.09,0.591 2.09,0.509 2.094,0.439 2.093,0.381 2.082,0.329 2.094,0.276 2.09,0.233 2.09,0.191 2.094,0.162 2.082,0.143 2.093,0.105 2.09,0.1 2.094,0.071" /></g><g
       transform="matrix(0.99365374,0,0,0.83803441,-33.827385,312.57828)"
       id="g1714"
       style="stroke:#f4e6d4;stroke-opacity:1"><path
         inkscape:connector-curvature="0"
         id="path1716"
         style="fill:none;stroke:#f4e6d4;stroke-width:0.77249199;stroke-linecap:round;stroke-linejoin:round;stroke-miterlimit:10;stroke-dasharray:none;stroke-opacity:1"
         d="m 134.023,-14.793 229.926,0 0,-88.27 -229.926,0 0,88.27 z" /></g><g
       transform="matrix(0.7639084,0,0,0.83916841,23.377517,312.6451)"
       id="g1706"
       style="stroke:#f4e6d4;stroke-opacity:1"><path
         inkscape:connector-curvature="0"
         id="path1708"
         style="fill:none;stroke:#f4e6d4;stroke-width:0.31336901;stroke-linecap:butt;stroke-linejoin:round;stroke-miterlimit:10;stroke-dasharray:none;stroke-opacity:1"
         d="m 248.984,-103.063 0,88.27" /></g><g
       transform="matrix(0.7639084,0,0,1.0234672,23.377517,312.6451)"
       id="g1720"
       style="stroke:#f4e6d4;stroke-opacity:1"><path
         inkscape:connector-curvature="0"
         id="path1722"
         style="fill:none;stroke:#f4e6d4;stroke-width:0.77249199;stroke-linecap:butt;stroke-linejoin:round;stroke-miterlimit:10;stroke-dasharray:none;stroke-opacity:1"
         d="m 248.984,-87.5 0,3.098" /></g><text
       id="text1530"
       style="font-variant:normal;font-weight:normal;font-size:4.93406343px;font-family:Dingbats;-inkscape-font-specification:Dingbats;writing-mode:lr-tb;fill:#f07973;fill-opacity:1;fill-rule:nonzero;stroke:none;stroke-opacity:1"
       transform="scale(0.95304345,-1.0492701)"
       x="123.97343"
       y="-213.84866"><tspan
         style="fill:#f07973;fill-opacity:1;stroke:none;stroke-opacity:1"
         id="tspan1532"
         y="-213.84866"
         x="123.97343">●</tspan></text>
<g
       style="fill:#f07973;fill-opacity:1;stroke:none;stroke-opacity:1"
       transform="matrix(1.1927026,0,0,1.3131268,-68.91516,384.75309)"
       id="g1534"><path
         inkscape:connector-curvature="0"
         id="path1536"
         style="fill:#f07973;fill-opacity:1;stroke:none;stroke-width:0.51742399;stroke-linecap:round;stroke-linejoin:round;stroke-miterlimit:10;stroke-dasharray:none;stroke-opacity:1"
         d="m 158.423,-119.336 c -0.795,0 -1.445,-0.625 -1.445,-1.414 0,-0.797 0.641,-1.434 1.424,-1.434 0.787,0 1.423,0.637 1.423,1.422 0,0.778 -0.636,1.426 -1.402,1.426 z" /></g><text
       id="text1538"
       style="font-variant:normal;font-weight:normal;font-size:4.93406343px;font-family:Dingbats;-inkscape-font-specification:Dingbats;writing-mode:lr-tb;fill:#f07973;fill-opacity:1;fill-rule:nonzero;stroke:none;stroke-opacity:1"
       transform="scale(0.95304345,-1.0492701)"
       x="123.99168"
       y="-213.84866"><tspan
         style="fill:#f07973;fill-opacity:1;stroke:none;stroke-opacity:1"
         id="tspan1540"
         y="-213.84866"
         x="123.99168">●</tspan></text>
<g
       style="fill:#f07973;fill-opacity:1;stroke:none;stroke-opacity:1"
       transform="matrix(1.1927026,0,0,1.3131268,-68.91516,384.75309)"
       id="g1542"><path
         inkscape:connector-curvature="0"
         id="path1544"
         style="fill:#f07973;fill-opacity:1;stroke:none;stroke-width:0.51742399;stroke-linecap:round;stroke-linejoin:round;stroke-miterlimit:10;stroke-dasharray:none;stroke-opacity:1"
         d="m 158.44,-119.336 c -0.799,0 -1.445,-0.625 -1.445,-1.414 0,-0.797 0.637,-1.434 1.424,-1.434 0.783,0 1.423,0.637 1.423,1.422 0,0.778 -0.64,1.426 -1.402,1.426 z" /></g><text
       id="text1546"
       style="font-variant:normal;font-weight:normal;font-size:4.93406343px;font-family:Dingbats;-inkscape-font-specification:Dingbats;writing-mode:lr-tb;fill:#f07973;fill-opacity:1;fill-rule:nonzero;stroke:none;stroke-opacity:1"
       transform="scale(0.95304345,-1.0492701)"
       x="125.35057"
       y="-213.84866"><tspan
         style="fill:#f07973;fill-opacity:1;stroke:none;stroke-opacity:1"
         id="tspan1548"
         y="-213.84866"
         x="125.35057">●</tspan></text>
<g
       style="fill:#f07973;fill-opacity:1;stroke:none;stroke-opacity:1"
       transform="matrix(1.1927026,0,0,1.3131268,-68.91516,384.75309)"
       id="g1550"><path
         inkscape:connector-curvature="0"
         id="path1552"
         style="fill:#f07973;fill-opacity:1;stroke:none;stroke-width:0.51742399;stroke-linecap:round;stroke-linejoin:round;stroke-miterlimit:10;stroke-dasharray:none;stroke-opacity:1"
         d="m 159.529,-119.336 c -0.8,0 -1.45,-0.625 -1.45,-1.414 0,-0.797 0.641,-1.434 1.424,-1.434 0.787,0 1.423,0.637 1.423,1.422 0,0.778 -0.636,1.426 -1.397,1.426 z" /></g><text
       id="text1554"
       style="font-variant:normal;font-weight:normal;font-size:4.93406343px;font-family:Dingbats;-inkscape-font-specification:Dingbats;writing-mode:lr-tb;fill:#f07973;fill-opacity:1;fill-rule:nonzero;stroke:none;stroke-opacity:1"
       transform="scale(0.95304345,-1.0492701)"
       x="140.98273"
       y="-213.84866"><tspan
         style="fill:#f07973;fill-opacity:1;stroke:none;stroke-opacity:1"
         id="tspan1556"
         y="-213.84866"
         x="140.98273">●</tspan></text>
<g
       style="fill:#f07973;fill-opacity:1;stroke:none;stroke-opacity:1"
       transform="matrix(1.1927026,0,0,1.3131268,-68.91516,384.75309)"
       id="g1558"><path
         inkscape:connector-curvature="0"
         id="path1560"
         style="fill:#f07973;fill-opacity:1;stroke:none;stroke-width:0.51742399;stroke-linecap:round;stroke-linejoin:round;stroke-miterlimit:10;stroke-dasharray:none;stroke-opacity:1"
         d="m 172.018,-119.336 c -0.796,0 -1.445,-0.625 -1.445,-1.414 0,-0.797 0.636,-1.434 1.423,-1.434 0.787,0 1.424,0.637 1.424,1.422 0,0.778 -0.637,1.426 -1.402,1.426 z" /></g><text
       id="text1562"
       style="font-variant:normal;font-weight:normal;font-size:4.93406343px;font-family:Dingbats;-inkscape-font-specification:Dingbats;writing-mode:lr-tb;fill:#f07973;fill-opacity:1;fill-rule:nonzero;stroke:none;stroke-opacity:1"
       transform="scale(0.95304345,-1.0492701)"
       x="146.81061"
       y="-213.84866"><tspan
         style="fill:#f07973;fill-opacity:1;stroke:none;stroke-opacity:1"
         id="tspan1564"
         y="-213.84866"
         x="146.81061">●</tspan></text>
<g
       style="fill:#f07973;fill-opacity:1;stroke:none;stroke-opacity:1"
       transform="matrix(1.1927026,0,0,1.3131268,-68.91516,384.75309)"
       id="g1566"><path
         inkscape:connector-curvature="0"
         id="path1568"
         style="fill:#f07973;fill-opacity:1;stroke:none;stroke-width:0.51742399;stroke-linecap:round;stroke-linejoin:round;stroke-miterlimit:10;stroke-dasharray:none;stroke-opacity:1"
         d="m 176.675,-119.336 c -0.795,0 -1.445,-0.625 -1.445,-1.414 0,-0.797 0.637,-1.434 1.424,-1.434 0.787,0 1.423,0.637 1.423,1.422 0,0.778 -0.636,1.426 -1.402,1.426 z" /></g><text
       id="text1570"
       style="font-variant:normal;font-weight:normal;font-size:4.93406343px;font-family:Dingbats;-inkscape-font-specification:Dingbats;writing-mode:lr-tb;fill:#f07973;fill-opacity:1;fill-rule:nonzero;stroke:none;stroke-opacity:1"
       transform="scale(0.95304345,-1.0492701)"
       x="147.09332"
       y="-213.84866"><tspan
         style="fill:#f07973;fill-opacity:1;stroke:none;stroke-opacity:1"
         id="tspan1572"
         y="-213.84866"
         x="147.09332">●</tspan></text>
<g
       style="fill:#f07973;fill-opacity:1;stroke:none;stroke-opacity:1"
       transform="matrix(1.1927026,0,0,1.3131268,-68.91516,384.75309)"
       id="g1574"><path
         inkscape:connector-curvature="0"
         id="path1576"
         style="fill:#f07973;fill-opacity:1;stroke:none;stroke-width:0.51742399;stroke-linecap:round;stroke-linejoin:round;stroke-miterlimit:10;stroke-dasharray:none;stroke-opacity:1"
         d="m 176.899,-119.336 c -0.796,0 -1.445,-0.625 -1.445,-1.414 0,-0.797 0.641,-1.434 1.423,-1.434 0.787,0 1.424,0.637 1.424,1.422 0,0.778 -0.637,1.426 -1.402,1.426 z" /></g><text
       id="text1578"
       style="font-variant:normal;font-weight:normal;font-size:4.93406343px;font-family:Dingbats;-inkscape-font-specification:Dingbats;writing-mode:lr-tb;fill:#f07973;fill-opacity:1;fill-rule:nonzero;stroke:none;stroke-opacity:1"
       transform="scale(0.95304345,-1.0492701)"
       x="150.36745"
       y="-213.84866"><tspan
         style="fill:#f07973;fill-opacity:1;stroke:none;stroke-opacity:1"
         id="tspan1580"
         y="-213.84866"
         x="150.36745">●</tspan></text>
<g
       style="fill:#f07973;fill-opacity:1;stroke:none;stroke-opacity:1"
       transform="matrix(1.1927026,0,0,1.3131268,-68.91516,384.75309)"
       id="g1582"><path
         inkscape:connector-curvature="0"
         id="path1584"
         style="fill:#f07973;fill-opacity:1;stroke:none;stroke-width:0.51742399;stroke-linecap:round;stroke-linejoin:round;stroke-miterlimit:10;stroke-dasharray:none;stroke-opacity:1"
         d="m 179.518,-119.336 c -0.8,0 -1.449,-0.625 -1.449,-1.414 0,-0.797 0.64,-1.434 1.427,-1.434 0.783,0 1.424,0.637 1.424,1.422 0,0.778 -0.641,1.426 -1.402,1.426 z" /></g><text
       id="text1586"
       style="font-variant:normal;font-weight:normal;font-size:4.93406343px;font-family:Dingbats;-inkscape-font-specification:Dingbats;writing-mode:lr-tb;fill:#f07973;fill-opacity:1;fill-rule:nonzero;stroke:none;stroke-opacity:1"
       transform="scale(0.95304345,-1.0492701)"
       x="151.87233"
       y="-213.84866"><tspan
         style="fill:#f07973;fill-opacity:1;stroke:none;stroke-opacity:1"
         id="tspan1588"
         y="-213.84866"
         x="151.87233">●</tspan></text>
<g
       style="fill:#f07973;fill-opacity:1;stroke:none;stroke-opacity:1"
       transform="matrix(1.1927026,0,0,1.3131268,-68.91516,384.75309)"
       id="g1590"><path
         inkscape:connector-curvature="0"
         id="path1592"
         style="fill:#f07973;fill-opacity:1;stroke:none;stroke-width:0.51742399;stroke-linecap:round;stroke-linejoin:round;stroke-miterlimit:10;stroke-dasharray:none;stroke-opacity:1"
         d="m 180.718,-119.336 c -0.796,0 -1.445,-0.625 -1.445,-1.414 0,-0.797 0.636,-1.434 1.423,-1.434 0.783,0 1.424,0.637 1.424,1.422 0,0.778 -0.641,1.426 -1.402,1.426 z" /></g><text
       id="text1594"
       style="font-variant:normal;font-weight:normal;font-size:4.93406343px;font-family:Dingbats;-inkscape-font-specification:Dingbats;writing-mode:lr-tb;fill:#4592d1;fill-opacity:1;fill-rule:nonzero;stroke:none;stroke-opacity:1"
       transform="scale(0.95304345,-1.0492701)"
       x="298.13342"
       y="-213.84866"><tspan
         style="fill:#4592d1;fill-opacity:1;stroke:none;stroke-opacity:1"
         id="tspan1596"
         y="-213.84866"
         x="298.13342">●</tspan></text>
<g
       style="fill:#4592d1;fill-opacity:1;stroke:none;stroke-opacity:1"
       transform="matrix(1.1927026,0,0,1.3131268,-156.53974,384.75309)"
       id="g1598"><path
         inkscape:connector-curvature="0"
         id="path1600"
         style="fill:#4592d1;fill-opacity:1;stroke:none;stroke-width:0.51742399;stroke-linecap:round;stroke-linejoin:round;stroke-miterlimit:10;stroke-dasharray:none;stroke-opacity:1"
         d="m 371.056,-119.336 c -0.795,0 -1.445,-0.625 -1.445,-1.414 0,-0.797 0.637,-1.434 1.424,-1.434 0.787,0 1.423,0.637 1.423,1.422 0,0.778 -0.636,1.426 -1.402,1.426 z" /></g><text
       id="text1602"
       style="font-variant:normal;font-weight:normal;font-size:4.93406343px;font-family:Dingbats;-inkscape-font-specification:Dingbats;writing-mode:lr-tb;fill:#4592d1;fill-opacity:1;fill-rule:nonzero;stroke:none;stroke-opacity:1"
       transform="scale(0.95304345,-1.0492701)"
       x="307.11688"
       y="-213.84866"><tspan
         style="fill:#4592d1;fill-opacity:1;stroke:none;stroke-opacity:1"
         id="tspan1604"
         y="-213.84866"
         x="307.11688">●</tspan></text>
<g
       style="fill:#4592d1;fill-opacity:1;stroke:none;stroke-opacity:1"
       transform="matrix(1.1927026,0,0,1.3131268,-156.53974,384.75309)"
       id="g1606"><path
         inkscape:connector-curvature="0"
         id="path1608"
         style="fill:#4592d1;fill-opacity:1;stroke:none;stroke-width:0.51742399;stroke-linecap:round;stroke-linejoin:round;stroke-miterlimit:10;stroke-dasharray:none;stroke-opacity:1"
         d="m 378.238,-119.336 c -0.8,0 -1.449,-0.625 -1.449,-1.414 0,-0.797 0.641,-1.434 1.424,-1.434 0.787,0 1.423,0.637 1.423,1.422 0,0.778 -0.636,1.426 -1.398,1.426 z" /></g><text
       id="text1610"
       style="font-variant:normal;font-weight:normal;font-size:4.93406343px;font-family:Dingbats;-inkscape-font-specification:Dingbats;writing-mode:lr-tb;fill:#4592d1;fill-opacity:1;fill-rule:nonzero;stroke:none;stroke-opacity:1"
       transform="scale(0.95304345,-1.0492701)"
       x="307.19897"
       y="-213.84866"><tspan
         style="fill:#4592d1;fill-opacity:1;stroke:none;stroke-opacity:1"
         id="tspan1612"
         y="-213.84866"
         x="307.19897">●</tspan></text>
<g
       style="fill:#4592d1;fill-opacity:1;stroke:none;stroke-opacity:1"
       transform="matrix(1.1927026,0,0,1.3131268,-156.53974,384.75309)"
       id="g1614"><path
         inkscape:connector-curvature="0"
         id="path1616"
         style="fill:#4592d1;fill-opacity:1;stroke:none;stroke-width:0.51742399;stroke-linecap:round;stroke-linejoin:round;stroke-miterlimit:10;stroke-dasharray:none;stroke-opacity:1"
         d="m 378.303,-119.336 c -0.796,0 -1.445,-0.625 -1.445,-1.414 0,-0.797 0.636,-1.434 1.423,-1.434 0.783,0 1.42,0.637 1.42,1.422 0,0.778 -0.637,1.426 -1.398,1.426 z" /></g><text
       id="text1618"
       style="font-variant:normal;font-weight:normal;font-size:4.93406343px;font-family:Dingbats;-inkscape-font-specification:Dingbats;writing-mode:lr-tb;fill:#4592d1;fill-opacity:1;fill-rule:nonzero;stroke:none;stroke-opacity:1"
       transform="scale(0.95304345,-1.0492701)"
       x="311.05688"
       y="-213.84866"><tspan
         style="fill:#4592d1;fill-opacity:1;stroke:none;stroke-opacity:1"
         id="tspan1620"
         y="-213.84866"
         x="311.05688">●</tspan></text>
<g
       style="fill:#4592d1;fill-opacity:1;stroke:none;stroke-opacity:1"
       transform="matrix(1.1927026,0,0,1.3131268,-156.53974,384.75309)"
       id="g1622"><path
         inkscape:connector-curvature="0"
         id="path1624"
         style="fill:#4592d1;fill-opacity:1;stroke:none;stroke-width:0.51742399;stroke-linecap:round;stroke-linejoin:round;stroke-miterlimit:10;stroke-dasharray:none;stroke-opacity:1"
         d="m 381.386,-119.336 c -0.8,0 -1.449,-0.625 -1.449,-1.414 0,-0.797 0.641,-1.434 1.424,-1.434 0.787,0 1.423,0.637 1.423,1.422 0,0.778 -0.636,1.426 -1.398,1.426 z" /></g><text
       id="text1626"
       style="font-variant:normal;font-weight:normal;font-size:4.93406343px;font-family:Dingbats;-inkscape-font-specification:Dingbats;writing-mode:lr-tb;fill:#4592d1;fill-opacity:1;fill-rule:nonzero;stroke:none;stroke-opacity:1"
       transform="scale(0.95304345,-1.0492701)"
       x="313.43726"
       y="-213.84866"><tspan
         style="fill:#4592d1;fill-opacity:1;stroke:none;stroke-opacity:1"
         id="tspan1628"
         y="-213.84866"
         x="313.43726">●</tspan></text>
<g
       style="fill:#4592d1;fill-opacity:1;stroke:none;stroke-opacity:1"
       transform="matrix(1.1927026,0,0,1.3131268,-156.53974,384.75309)"
       id="g1630"><path
         inkscape:connector-curvature="0"
         id="path1632"
         style="fill:#4592d1;fill-opacity:1;stroke:none;stroke-width:0.51742399;stroke-linecap:round;stroke-linejoin:round;stroke-miterlimit:10;stroke-dasharray:none;stroke-opacity:1"
         d="m 383.287,-119.336 c -0.8,0 -1.445,-0.625 -1.445,-1.414 0,-0.797 0.637,-1.434 1.424,-1.434 0.783,0 1.423,0.637 1.423,1.422 0,0.778 -0.64,1.426 -1.402,1.426 z" /></g><text
       id="text1634"
       style="font-variant:normal;font-weight:normal;font-size:4.93406343px;font-family:Dingbats;-inkscape-font-specification:Dingbats;writing-mode:lr-tb;fill:#4592d1;fill-opacity:1;fill-rule:nonzero;stroke:none;stroke-opacity:1"
       transform="scale(0.95304345,-1.0492701)"
       x="314.81439"
       y="-213.84866"><tspan
         style="fill:#4592d1;fill-opacity:1;stroke:none;stroke-opacity:1"
         id="tspan1636"
         y="-213.84866"
         x="314.81439">●</tspan></text>
<g
       style="fill:#4592d1;fill-opacity:1;stroke:none;stroke-opacity:1"
       transform="matrix(1.1927026,0,0,1.3131268,-156.53974,384.75309)"
       id="g1638"><path
         inkscape:connector-curvature="0"
         id="path1640"
         style="fill:#4592d1;fill-opacity:1;stroke:none;stroke-width:0.51742399;stroke-linecap:round;stroke-linejoin:round;stroke-miterlimit:10;stroke-dasharray:none;stroke-opacity:1"
         d="m 384.388,-119.336 c -0.795,0 -1.445,-0.625 -1.445,-1.414 0,-0.797 0.637,-1.434 1.424,-1.434 0.782,0 1.423,0.637 1.423,1.422 0,0.778 -0.641,1.426 -1.402,1.426 z" /></g><text
       id="text1642"
       style="font-variant:normal;font-weight:normal;font-size:4.93406343px;font-family:Dingbats;-inkscape-font-specification:Dingbats;writing-mode:lr-tb;fill:#4592d1;fill-opacity:1;fill-rule:nonzero;stroke:none;stroke-opacity:1"
       transform="scale(0.95304345,-1.0492701)"
       x="320.6058"
       y="-213.84866"><tspan
         style="fill:#4592d1;fill-opacity:1;stroke:none;stroke-opacity:1"
         id="tspan1644"
         y="-213.84866"
         x="320.6058">●</tspan></text>
<g
       style="fill:#4592d1;fill-opacity:1;stroke:none;stroke-opacity:1"
       transform="matrix(1.1927026,0,0,1.3131268,-156.53974,384.75309)"
       id="g1646"><path
         inkscape:connector-curvature="0"
         id="path1648"
         style="fill:#4592d1;fill-opacity:1;stroke:none;stroke-width:0.51742399;stroke-linecap:round;stroke-linejoin:round;stroke-miterlimit:10;stroke-dasharray:none;stroke-opacity:1"
         d="m 389.016,-119.336 c -0.8,0 -1.45,-0.625 -1.45,-1.414 0,-0.797 0.641,-1.434 1.424,-1.434 0.787,0 1.423,0.637 1.423,1.422 0,0.778 -0.636,1.426 -1.397,1.426 z" /></g><text
       id="text1724"
       style="font-variant:normal;font-weight:normal;font-size:8.48845959px;font-family:TeXGyreHeros;-inkscape-font-specification:TeXGyreHeros-Regular;writing-mode:lr-tb;fill:#f4e6d4;fill-opacity:1;fill-rule:nonzero;stroke:none"
       transform="scale(0.8639402,-1.1574875)"
       x="244.88011"
       y="-185.55864"><tspan
         id="tspan1726"
         y="-185.55864"
         x="244.88011"
         style="fill:#f4e6d4;fill-opacity:1">0</tspan></text>
<text
       xml:space="preserve"
       style="font-style:normal;font-variant:normal;font-weight:normal;font-stretch:normal;font-size:16px;line-height:125%;font-family:Alegreya;-inkscape-font-specification:'Alegreya, Normal';text-align:start;letter-spacing:0px;word-spacing:0px;writing-mode:lr-tb;text-anchor:start;fill:#f4e6d4;fill-opacity:1;stroke:none;stroke-width:1px;stroke-linecap:butt;stroke-linejoin:miter;stroke-opacity:1"
       x="221.14746"
       y="94.523613"
       id="text4557"
       sodipodi:linespacing="125%"
       transform="matrix(0,1,1,0,0,0)"><tspan
         sodipodi:role="line"
         x="221.14746"
         y="94.523613"
         id="tspan4561">Competition</tspan></text>
<text
       xml:space="preserve"
       style="font-style:normal;font-variant:normal;font-weight:normal;font-stretch:normal;font-size:16px;line-height:125%;font-family:Alegreya;-inkscape-font-specification:'Alegreya, Normal';text-align:start;letter-spacing:0px;word-spacing:0px;writing-mode:lr-tb;text-anchor:start;fill:#f4e6d4;fill-opacity:1;stroke:none;stroke-width:1px;stroke-linecap:butt;stroke-linejoin:miter;stroke-opacity:1"
       x="126.86549"
       y="-201.13062"
       id="text4573"
       sodipodi:linespacing="125%"
       transform="scale(1,-1)"><tspan
         sodipodi:role="line"
         id="tspan4575"
         x="126.86549"
         y="-201.13062">Difference in toxin quality</tspan></text>
</g></svg>