<?xml version="1.0" encoding="UTF-8" standalone="no"?>
<!-- Created with Inkscape (http://www.inkscape.org/) -->

<svg
   xmlns:dc="http://purl.org/dc/elements/1.1/"
   xmlns:cc="http://creativecommons.org/ns#"
   xmlns:rdf="http://www.w3.org/1999/02/22-rdf-syntax-ns#"
   xmlns:svg="http://www.w3.org/2000/svg"
   xmlns="http://www.w3.org/2000/svg"
   xmlns:sodipodi="http://sodipodi.sourceforge.net/DTD/sodipodi-0.dtd"
   xmlns:inkscape="http://www.inkscape.org/namespaces/inkscape"
   width="316.96896"
   height="237.1275"
   id="svg4078"
   version="1.1"
   inkscape:version="0.48.4 r9939"
   sodipodi:docname="New document 6">
  <defs
     id="defs4080" />
  <sodipodi:namedview
     id="base"
     pagecolor="#ffffff"
     bordercolor="#666666"
     borderopacity="1.0"
     inkscape:pageopacity="0.0"
     inkscape:pageshadow="2"
     inkscape:zoom="0.35"
     inkscape:cx="327.7702"
     inkscape:cy="-61.436253"
     inkscape:document-units="px"
     inkscape:current-layer="layer1"
     showgrid="false"
     fit-margin-top="0"
     fit-margin-left="0"
     fit-margin-right="0"
     fit-margin-bottom="0"
     inkscape:window-width="472"
     inkscape:window-height="415"
     inkscape:window-x="1448"
     inkscape:window-y="757"
     inkscape:window-maximized="0" />
  <metadata
     id="metadata4083">
    <rdf:RDF>
      <cc:Work
         rdf:about="">
        <dc:format>image/svg+xml</dc:format>
        <dc:type
           rdf:resource="http://purl.org/dc/dcmitype/StillImage" />
        <dc:title></dc:title>
      </cc:Work>
    </rdf:RDF>
  </metadata>
  <g
     inkscape:label="Layer 1"
     inkscape:groupmode="layer"
     id="layer1"
     transform="translate(-47.2298,-233.79843)">
    <path
       inkscape:connector-curvature="0"
       id="path16"
       style="fill:#f2e4cf;fill-opacity:1;fill-rule:nonzero;stroke:none"
       d="m 91.63515,373.94968 c 8.098125,10.1025 15.77987,21.65125 27.43487,26.43875 7.60625,3.125 16.02875,2.94625 23.9925,4.82125 1.46125,0.345 2.935,0.7975 4.37875,1.355 -8.285,0.6475 -19.60125,0.72 -36.7525,-0.89125 -3.78375,-0.355 -7.2,-1.1 -10.2865,-2.165 -20.53662,-7.09 -24.80912,-28.51 -25.60212,-45.78125 7.03325,3.52375 11.69825,9.81375 16.835,16.2225" />
    <path
       inkscape:connector-curvature="0"
       id="path18"
       style="fill:#f2e4cf;fill-opacity:1;fill-rule:nonzero;stroke:none"
       d="m 312.07002,357.69218 c 22.485,-1.9225 52.12875,8.90875 52.12875,8.90875 -4.84125,30.11875 -17.19375,46.0525 -32.68375,53.25125 -5.9875,-7.385 -10.82375,-15.8225 -14.15375,-24.90375 -4.32875,-11.8 -6.1075,-24.625 -5.29125,-37.25625" />
    <path
       inkscape:connector-curvature="0"
       id="path20"
       style="fill:#3e2735;fill-opacity:1;fill-rule:nonzero;stroke:none"
       d="m 220.74877,470.92593 -19.41375,0 c -2.5175,-5.725 0.7625,-10.655 3.235,-12.595 3.46625,-2.71875 5.6825,-7.22875 6.58375,-12.28875 6.70875,-2.02375 13.32125,-4.69 19.825,-7.61375 l -10.23,32.4975" />
    <path
       inkscape:connector-curvature="0"
       id="path22"
       style="fill:#f25425;fill-opacity:1;fill-rule:nonzero;stroke:none"
       d="m 75.96565,338.22968 c 2.579125,-13.68875 1.46975,-21.3175 1.53175,-25.22625 0.0074,-0.45125 0.01075,-0.86375 0.01075,-1.21875 l 51.20312,-0.6525 c 0,0 -0.71875,14.5025 4.67375,20.2275 5.3925,5.725 50.78625,-1.095 61.5725,0.4325 10.785,1.52625 30.10625,6.4875 34.42,35.875 2.715,18.4975 39.9975,-3.085 78.69,-9.48625 1.30125,-0.215 2.64,-0.3725 4.0025,-0.48875 -0.81625,12.63125 0.9625,25.45625 5.29125,37.25625 3.33,9.08125 8.16625,17.51875 14.15375,24.90375 -42.37375,19.69375 -108.25,-26.04125 -108.25,-26.04125 l 1.79875,20.0375 7.95625,18.09875 -2.04125,6.48125 c -6.50375,2.92375 -13.11625,5.59 -19.825,7.61375 1.9925,-11.1875 -2.45125,-25.0625 -14.08625,-28.21625 -16.8975,-4.58 -25.5725,-19.24375 -25.5725,-19.24375 -7.06375,0.22 -12.71375,7.0975 -24.05375,7.9825 -1.44375,-0.5575 -2.9175,-1.01 -4.37875,-1.355 -6.36375,-1.49875 -13.01625,-1.71125 -19.31625,-3.32125 1.59875,-14.00625 2.9875,-25.40625 2.9875,-25.40625 l -31.97462,0 c 0.123125,0.14 0.42925,1.04 0.858375,2.53375 -1.329,-1.70375 -2.650375,-3.405 -3.982375,-5.06625 -5.13675,-6.40875 -9.80175,-12.69875 -16.835,-16.2225 -0.367125,-8.00125 0.339875,-15.11375 1.1655,-19.4975" />
    <path
       inkscape:connector-curvature="0"
       id="path24"
       style="fill:#f25425;fill-opacity:1;fill-rule:nonzero;stroke:none"
       d="m 119.07002,400.38843 c 1.52625,0.6275 3.09375,1.09625 4.67625,1.5 -1.08875,9.5375 -2.27375,20.2775 -3.18625,29.46 -5.395,-2.0625 -10.83125,-3.71125 -16.3525,-4.63625 -1.335,-18.38125 -6.473745,-40.3325 -8.589995,-47.69625 6.751245,8.65375 13.714995,17.3725 23.452495,21.3725" />
    <path
       inkscape:connector-curvature="0"
       id="path26"
       style="fill:#3e2735;fill-opacity:1;fill-rule:nonzero;stroke:none"
       d="m 119.02877,452.11968 c 0.385,9.21625 -7.705,17.99375 -7.705,17.99375 l -19.26087,0 c 0,0 -5.008375,-9.21625 6.934,-16.23875 5.20937,-3.0625 6.15062,-14.2275 5.21062,-27.1625 5.52125,0.925 10.9575,2.57375 16.3525,4.63625 -0.9825,9.89125 -1.6475,17.97125 -1.53125,20.77125" />
    <path
       inkscape:connector-curvature="0"
       id="path28"
       style="fill:#f25425;fill-opacity:1;fill-rule:nonzero;stroke:none"
       d="m 126.73377,376.48218 c 0,0 -1.38875,11.4 -2.9875,25.40625 -1.5825,-0.40375 -3.15,-0.8725 -4.67625,-1.5 -9.7375,-4 -16.70125,-12.71875 -23.452495,-21.3725 -0.429125,-1.49375 -0.73525,-2.39375 -0.858375,-2.53375 l 31.97462,0" />
    <path
       inkscape:connector-curvature="0"
       id="path30"
       style="fill:#f25425;fill-opacity:1;fill-rule:nonzero;stroke:none"
       d="m 47.621024,293.71968 c 0,0 11.449626,6.10625 11.831501,-6.87 0,0 -0.9375,-0.52875 -2.278376,-1.65375 0.03713,-10e-4 9.524001,-0.285 6.476626,-15.52125 -1.236375,-6.1825 -3.601125,-10.295 -6.05125,-14.19625 4.045375,-3.00125 6.937,-7.80125 8.881375,-12.13 l 10.146,7.35375 49.54062,0 10.14625,-7.35375 c 1.94375,4.32875 4.835,9.12875 8.88125,12.13 -2.45,3.90125 -4.815,8.01375 -6.05125,14.19625 -3.0475,15.23625 6.43875,15.52 6.47625,15.52125 -1.34125,1.125 -2.2775,1.65375 -2.2775,1.65375 0.38125,12.97625 11.83125,6.87 11.83125,6.87 -1.145,5.3425 -11.45,9.54125 -11.45,9.54125 0.60875,3.3475 4.85,3.53875 6.54625,3.48 -10.9475,8.2725 -34.4075,10.26 -34.4075,10.26 -3.05375,6.4875 -14.46512,9.15 -14.46512,9.15 0,0 -11.412125,-2.6625 -14.465375,-9.15 0,0 -23.4605,-1.9875 -34.407251,-10.26 1.69625,0.0588 5.937001,-0.1325 6.545876,-3.48 0,0 -10.304626,-4.19875 -11.449626,-9.54125" />
    <path
       inkscape:connector-curvature="0"
       id="path32"
       style="fill:#f2e4cf;fill-opacity:1;fill-rule:nonzero;stroke:none"
       d="m 139.14377,269.67468 c 3.0525,-15.26625 12.97625,-17.93875 14.12125,-35.87625 0,0 3.435,17.55625 1.90875,32.44125 -1.06875,10.41625 -6.4275,16.335 -9.55375,18.95625 -0.0375,-10e-4 -9.52375,-0.285 -6.47625,-15.52125" />
    <path
       inkscape:connector-curvature="0"
       id="path34"
       style="fill:#3e2735;fill-opacity:1;fill-rule:nonzero;stroke:none"
       d="m 136.31377,243.34843 16.95125,-9.55 c -0.68125,10.67375 -4.46875,15.94625 -8.07,21.68 -4.04625,-3.00125 -6.9375,-7.80125 -8.88125,-12.13" />
    <path
       inkscape:connector-curvature="0"
       id="path36"
       style="fill:#3e2735;fill-opacity:1;fill-rule:nonzero;stroke:none"
       d="m 119.96502,295.96093 c 0,2.2925 1.85875,4.15125 4.15125,4.15125 2.29125,0 4.15,-1.85875 4.15,-4.15125 0,-2.29125 -1.85875,-4.15 -4.15,-4.15 -2.2925,0 -4.15125,1.85875 -4.15125,4.15" />
    <path
       inkscape:connector-curvature="0"
       id="path38"
       style="fill:#f2e4cf;fill-opacity:1;fill-rule:nonzero;stroke:none"
       d="m 63.650775,269.67468 c -3.05325,-15.26625 -12.976626,-17.93875 -14.121626,-35.87625 0,0 -3.435,17.55625 -1.908125,32.44125 1.068375,10.41625 6.42725,16.335 9.553125,18.95625 0.03713,-10e-4 9.524001,-0.285 6.476626,-15.52125" />
    <path
       inkscape:connector-curvature="0"
       id="path40"
       style="fill:#f2e4cf;fill-opacity:1;fill-rule:nonzero;stroke:none"
       d="m 51.819274,306.69593 c 9.923251,14.12125 34.349126,19.0825 34.349126,19.0825 1.016,7.78875 13.711375,11.3675 15.229,10.7425 1.51762,0.625 14.21262,-2.95375 15.22887,-10.7425 0,0 24.42625,-4.96125 34.34875,-19.0825 0,0 -0.275,0.03 -0.705,0.045 -10.9475,8.2725 -34.4075,10.26 -34.4075,10.26 -3.05375,6.4875 -14.46512,9.15 -14.46512,9.15 0,0 -11.412125,-2.6625 -14.465375,-9.15 0,0 -23.4605,-1.9875 -34.407251,-10.26 -0.430625,-0.015 -0.7055,-0.045 -0.7055,-0.045" />
    <path
       inkscape:connector-curvature="0"
       id="path42"
       style="fill:#3e2735;fill-opacity:1;fill-rule:nonzero;stroke:none"
       d="m 66.4809,243.34843 -16.951751,-9.55 c 0.68125,10.67375 4.46925,15.94625 8.070376,21.68 4.045375,-3.00125 6.9375,-7.80125 8.881375,-12.13" />
    <path
       inkscape:connector-curvature="0"
       id="path44"
       style="fill:#3e2735;fill-opacity:1;fill-rule:nonzero;stroke:none"
       d="m 82.829025,295.96093 c 0,2.2925 -1.858375,4.15125 -4.150375,4.15125 -2.2925,0 -4.1505,-1.85875 -4.1505,-4.15125 0,-2.29125 1.858,-4.15 4.1505,-4.15 2.292,0 4.150375,1.85875 4.150375,4.15" />
    <path
       inkscape:connector-curvature="0"
       id="path46"
       style="fill:#3e2735;fill-opacity:1;fill-rule:nonzero;stroke:none"
       d="m 102.28127,328.26968 5.48875,-5.98625 c 1.17,-1.275 0.265,-3.33125 -1.465,-3.33125 l -10.977495,0 c -1.73,0 -2.63475,2.05625 -1.465375,3.33125 l 5.488875,5.98625 c 0.787495,0.86 2.142495,0.86 2.930245,0" />
  </g>
</svg>
