<?xml version="1.0" encoding="UTF-8" standalone="no"?>
<!-- Created with Inkscape (http://www.inkscape.org/) -->

<svg
   xmlns:dc="http://purl.org/dc/elements/1.1/"
   xmlns:cc="http://creativecommons.org/ns#"
   xmlns:rdf="http://www.w3.org/1999/02/22-rdf-syntax-ns#"
   xmlns:svg="http://www.w3.org/2000/svg"
   xmlns="http://www.w3.org/2000/svg"
   xmlns:sodipodi="http://sodipodi.sourceforge.net/DTD/sodipodi-0.dtd"
   xmlns:inkscape="http://www.inkscape.org/namespaces/inkscape"
   width="173.47563"
   height="237.04103"
   id="svg4638"
   version="1.1"
   inkscape:version="0.48.4 r9939"
   sodipodi:docname="New document 24">
  <defs
     id="defs4640" />
  <sodipodi:namedview
     id="base"
     pagecolor="#ffffff"
     bordercolor="#666666"
     borderopacity="1.0"
     inkscape:pageopacity="0.0"
     inkscape:pageshadow="2"
     inkscape:zoom="0.35"
     inkscape:cx="86.73781"
     inkscape:cy="118.52052"
     inkscape:document-units="px"
     inkscape:current-layer="layer1"
     showgrid="false"
     fit-margin-top="0"
     fit-margin-left="0"
     fit-margin-right="0"
     fit-margin-bottom="0"
     inkscape:window-width="472"
     inkscape:window-height="415"
     inkscape:window-x="1448"
     inkscape:window-y="467"
     inkscape:window-maximized="0" />
  <metadata
     id="metadata4643">
    <rdf:RDF>
      <cc:Work
         rdf:about="">
        <dc:format>image/svg+xml</dc:format>
        <dc:type
           rdf:resource="http://purl.org/dc/dcmitype/StillImage" />
        <dc:title></dc:title>
      </cc:Work>
    </rdf:RDF>
  </metadata>
  <g
     inkscape:label="Layer 1"
     inkscape:groupmode="layer"
     id="layer1"
     transform="translate(-288.26219,-413.84167)">
    <path
       inkscape:connector-curvature="0"
       id="path434"
       style="fill:#d0885a;fill-opacity:1;fill-rule:nonzero;stroke:none"
       d="m 437.4957,612.45042 c 2.97625,-3.42625 5.9525,-6.85375 8.92875,-10.28 1.485,-1.71 3.20375,-3.54375 5.46125,-3.74 2.75125,-0.23875 5.05,2.06875 6.49375,4.4225 3.2075,5.2275 4.3325,11.8325 2.43,17.6625 -1.90375,5.83 -7.01125,10.65125 -13.06375,11.635 -6.05375,0.98375 -12.71,-2.27375 -15.14875,-7.90125" />
    <path
       inkscape:connector-curvature="0"
       id="path436"
       style="fill:#d0885a;fill-opacity:1;fill-rule:nonzero;stroke:none"
       d="m 322.79782,582.42042 c 1.52337,12.755 11.63375,23.935 23.90287,26.43125 -3.53425,-1.03875 -5.15437,-51.445 -6.71587,-57.20375 -11.89113,1.6125 -18.481,19.93875 -17.187,30.7725" />
    <path
       inkscape:connector-curvature="0"
       id="path438"
       style="fill:#f2e4cf;fill-opacity:1;fill-rule:nonzero;stroke:none"
       d="m 408.18695,588.41792 c -12.33,1.40375 -22.78876,11.8425 -23.54376,23.50125 -0.75625,11.6575 8.27626,21.29 20.33376,24.09125 -6.80375,0.18 -29.42251,0.0475 -31.27751,9.13125 -0.69,3.3825 5.7375,3.72 9.38625,3.41875 11.57626,-0.95875 23.15251,0.25375 34.73001,-0.70375 3.19125,-0.265 7.055,-1 8.06375,-3.86 l 0.92875,-1.6325 c 12.9175,-7.15375 19.77,-22.04625 18.65,-36.105 -1.12125,-14.0575 -9.3575,-27.06375 -20.51375,-36.48125 -11.15625,-9.41625 -25.04875,-12.08625 -39.29876,-16.46625 -6.125,-1.8825 -12.70375,-3.67 -16.9675,-8.215 -4.2625,-4.54375 -4.56375,-16.37125 1.1225,-19.2225 l -37.4145,26.50875 c -13.97562,30.22875 11.68313,65.74625 4.749,87.58125 -0.85737,2.70125 -1.83937,5.81375 -0.61762,8.31625 1.84125,3.77 5.501,2.755 8.97937,1.23625 11.61875,-5.075 14.42375,-27.20625 14.24,-41.705" />
    <path
       inkscape:connector-curvature="0"
       id="path440"
       style="fill:#f2e4cf;fill-opacity:1;fill-rule:nonzero;stroke:none"
       d="m 363.54819,621.09917 c 7.92625,4.2825 18.01375,5.3325 27.84876,4.8425 9.76875,-0.4875 20.83125,-3.1125 26.21875,-10.38875 4.10875,-5.54625 3.785,-12.33375 2.505,-18.40375 -1.95375,-9.26625 -6.5225,-18.81875 -16.385,-22.81125 -6.8975,-2.7925 -15.4675,-2.37 -23.15376,-0.0425 -23.82625,7.2125 -40.99112,33.85625 -17.03375,46.80375" />
    <path
       inkscape:connector-curvature="0"
       id="path442"
       style="fill:#f2e4cf;fill-opacity:1;fill-rule:nonzero;stroke:none"
       d="m 354.13194,503.17667 c 1.67125,-16.5625 3.375,-33.28125 8.8425,-49.10125 5.4675,-15.82 15.09375,-30.88875 29.71251,-40.23375 6.7675,15.6075 3.4225,33.555 -4.71126,48.57375 -8.135,15.0175 -21.53375,28.5175 -33.84375,40.76125" />
    <path
       inkscape:connector-curvature="0"
       id="path444"
       style="fill:#d0885a;fill-opacity:1;fill-rule:nonzero;stroke:none"
       d="m 303.50632,448.16417 c 4.11912,-2.5025 8.83637,-4.09 13.69287,-4.71125 -5.71875,-11.75625 -14.0195,-22.39375 -25.3115,-29.61125 -5.97612,13.7825 -4.05912,29.3875 2.07125,43.19125 2.5215,-3.51375 5.76175,-6.56875 9.54738,-8.86875" />
    <path
       inkscape:connector-curvature="0"
       id="path446"
       style="fill:#f2e4cf;fill-opacity:1;fill-rule:nonzero;stroke:none"
       d="m 317.19919,443.45292 c -4.8565,0.62125 -9.57375,2.20875 -13.69287,4.71125 -3.78563,2.3 -7.02588,5.355 -9.54738,8.86875 0.811,1.8275 1.68988,3.62625 2.64113,5.3825 8.13375,15.0175 21.53362,28.5175 33.84225,40.76125 -1.66988,-16.5625 -3.374,-33.28125 -8.84175,-49.10125 -1.24463,-3.60125 -2.71638,-7.1575 -4.40138,-10.6225" />
    <path
       inkscape:connector-curvature="0"
       id="path448"
       style="fill:#d0885a;fill-opacity:1;fill-rule:nonzero;stroke:none"
       d="m 348.98944,525.84167 c 4.4,6.28875 12.7575,8.9125 20.3925,8.1225 3.51125,-0.36375 6.89375,-1.3475 10.1475,-2.71 0.0275,-0.43875 0.0437,-0.87875 0.0375,-1.3225 -0.0687,-4.5525 -1.9575,-8.85625 -3.8125,-13.015 -3.2175,-7.21375 -6.515,-14.5525 -11.7625,-20.4575 -0.4875,-0.54875 -1.0175,-1.07125 -1.5675,-1.5825 -3.93125,1.19625 -7.56,3.22625 -10.4525,6.1575 -6.35,6.43375 -8.16487,17.40125 -2.9825,24.8075" />
    <path
       inkscape:connector-curvature="0"
       id="path450"
       style="fill:#f2e4cf;fill-opacity:1;fill-rule:nonzero;stroke:none"
       d="m 369.38194,533.96417 c -7.635,0.79 -15.9925,-1.83375 -20.3925,-8.1225 -5.18237,-7.40625 -3.3675,-18.37375 2.9825,-24.8075 2.8925,-2.93125 6.52125,-4.96125 10.4525,-6.1575 -5.24375,-4.86125 -13.145,-7.92875 -20.13687,-7.92875 -7.72613,0 -16.57325,3.73625 -21.70513,9.51125 -5.247,5.905 -8.54437,13.24375 -11.76262,20.4575 -1.855,4.15875 -3.74325,8.4625 -3.812,13.015 -0.11825,7.82 5.30312,14.88 11.9955,18.9275 6.69237,4.04625 17.46337,7.1675 25.28425,7.1675 7.82062,0 18.59187,-3.12125 25.28437,-7.1675 6.3125,-3.8175 11.48875,-10.31625 11.9575,-17.605 -3.25375,1.3625 -6.63625,2.34625 -10.1475,2.71" />
    <path
       inkscape:connector-curvature="0"
       id="path452"
       style="fill:#3e2735;fill-opacity:1;fill-rule:nonzero;stroke:none"
       d="m 355.97944,519.07167 c 0,1.905 1.37,3.45125 3.06,3.45125 1.69,0 3.06,-1.54625 3.06,-3.45125 0,-1.90625 -1.37,-3.45125 -3.06,-3.45125 -1.69,0 -3.06,1.545 -3.06,3.45125" />
    <path
       inkscape:connector-curvature="0"
       id="path454"
       style="fill:#3e2735;fill-opacity:1;fill-rule:nonzero;stroke:none"
       d="m 328.59569,519.07167 c 0,1.905 -1.37062,3.45125 -3.06062,3.45125 -1.69038,0 -3.0605,-1.54625 -3.0605,-3.45125 0,-1.90625 1.37012,-3.45125 3.0605,-3.45125 1.69,0 3.06062,1.545 3.06062,3.45125" />
    <path
       inkscape:connector-curvature="0"
       id="path456"
       style="fill:#3e2735;fill-opacity:1;fill-rule:nonzero;stroke:none"
       d="m 342.76119,539.27917 3.37825,-4.155 c 0.72,-0.88625 0.16375,-2.31375 -0.90125,-2.31375 l -6.75875,0 c -1.065,0 -1.62162,1.4275 -0.90187,2.31375 l 3.37887,4.155 c 0.48538,0.59625 1.31938,0.59625 1.80475,0" />
  </g>
</svg>
