<?xml version="1.0" encoding="UTF-8" standalone="no"?>
<!-- Created with Inkscape (http://www.inkscape.org/) -->

<svg
   xmlns:dc="http://purl.org/dc/elements/1.1/"
   xmlns:cc="http://creativecommons.org/ns#"
   xmlns:rdf="http://www.w3.org/1999/02/22-rdf-syntax-ns#"
   xmlns:svg="http://www.w3.org/2000/svg"
   xmlns="http://www.w3.org/2000/svg"
   xmlns:sodipodi="http://sodipodi.sourceforge.net/DTD/sodipodi-0.dtd"
   xmlns:inkscape="http://www.inkscape.org/namespaces/inkscape"
   width="70.939987mm"
   height="35.040989mm"
   viewBox="0 0 251.36216 124.16098"
   id="svg4462"
   version="1.1"
   inkscape:version="0.91 r"
   sodipodi:docname="raccoon2.svg">
  <defs
     id="defs4464" />
  <sodipodi:namedview
     id="base"
     pagecolor="#ffffff"
     bordercolor="#666666"
     borderopacity="1.0"
     inkscape:pageopacity="0.0"
     inkscape:pageshadow="2"
     inkscape:zoom="0.35"
     inkscape:cx="169.25251"
     inkscape:cy="-117.9195"
     inkscape:document-units="px"
     inkscape:current-layer="layer1"
     showgrid="false"
     fit-margin-top="0"
     fit-margin-left="0"
     fit-margin-right="0"
     fit-margin-bottom="0"
     inkscape:window-width="960"
     inkscape:window-height="1028"
     inkscape:window-x="0"
     inkscape:window-y="0"
     inkscape:window-maximized="1" />
  <metadata
     id="metadata4467">
    <rdf:RDF>
      <cc:Work
         rdf:about="">
        <dc:format>image/svg+xml</dc:format>
        <dc:type
           rdf:resource="http://purl.org/dc/dcmitype/StillImage" />
        <dc:title></dc:title>
      </cc:Work>
    </rdf:RDF>
  </metadata>
  <g
     inkscape:label="Layer 1"
     inkscape:groupmode="layer"
     id="layer1"
     transform="translate(-205.74749,-290.28171)">
    <path
       inkscape:connector-curvature="0"
       id="path272"
       style="fill:#edecea;fill-opacity:1;fill-rule:nonzero;stroke:none"
       d="m 295.89603,413.06645 c -26.20125,0 -47.44125,-2.17875 -47.44125,-4.86625 0,-1.94875 11.16875,-3.63 27.29875,-4.40625 2.555,5.425 4.44125,6.46375 8.10375,6.46375 1.1375,0 2.44375,-0.1 3.99625,-0.2 1.5525,-0.1 3.3475,-0.2 5.46,-0.2 0.225,0 0.4525,10e-4 0.68375,0.004 0,0 1.29375,-0.0925 1.59375,-1.05875 0.575,-1.8525 -0.5075,-5.18875 -7.7025,-5.39875 2.60375,-0.0463 5.27875,-0.07 8.0075,-0.07 0.85875,0 1.715,0.002 2.5625,0.008 4.2325,4.67625 6.8075,6.235 19.91875,6.23625 0.002,0 0.002,0 0.005,0 l 0,0 c 0.001,0 0.002,0 0.002,0 2.135,0 4.545,-0.0425 7.29,-0.1175 0.0475,-0.001 0.0975,-0.002 0.145,-0.004 0.0263,-0.001 0.05,-0.001 0.0775,-0.002 l 0,0 c 0,0 2.555,-0.17625 2.94625,-1.5975 10e-4,-0.004 0.002,-0.009 0.004,-0.0125 0.01,-0.0375 0.02,-0.0738 0.0288,-0.11125 0.23625,-0.92875 0.29,-2.0525 -0.15375,-3.045 9.0075,0.885 14.615,2.13125 14.615,3.5125 0,2.6875 -21.24,4.86625 -47.44125,4.86625" />
    <path
       inkscape:connector-curvature="0"
       id="path274"
       style="fill:#edecea;fill-opacity:1;fill-rule:nonzero;stroke:none"
       d="m 390.27728,414.4427 c -26.20125,0 -47.44125,-2.17875 -47.44125,-4.86625 0,-2.68625 21.24,-4.865 47.44125,-4.865 5.64125,0 11.0525,0.10125 16.07125,0.28625 1.62625,2.23125 3.46625,3.87125 6.70625,4.01125 3.85,0.1675 7.58875,0.42125 10.53,0.42125 2.925,0 5.06125,-0.25 5.74125,-1.08375 0.3,-0.36875 0.62125,-0.86125 0.83,-1.40625 4.78625,0.76 7.5625,1.665 7.5625,2.63625 0,2.6875 -21.24,4.86625 -47.44125,4.86625" />
    <path
       inkscape:connector-curvature="0"
       id="path276"
       style="fill:#535456;fill-opacity:1;fill-rule:nonzero;stroke:none"
       d="m 360.07228,403.9102 c -6.32625,1.83125 -4.5875,-3.99 -3.75875,-7.53625 0.82875,-3.5475 6.18625,-28.2425 12.85375,-29.45375 -3.2975,-4.015 -9.4925,-4.8325 -14.58375,-4.86 -4.88875,-0.0263 -9.775,0.63375 -14.565,1.63625 2.66875,1.30375 5.605,11.12125 3.00875,25.65375 -1.97625,11.0575 0.55,19.97 6.55875,21.8175 2.95375,0.9075 14.5875,-0.37875 17.485,-0.485 5.4275,-0.2 -0.6725,-8.60375 -6.99875,-6.7725" />
    <path
       inkscape:connector-curvature="0"
       id="path278"
       style="fill:#5b5d5c;fill-opacity:1;fill-rule:nonzero;stroke:none"
       d="m 424.43978,316.11395 c 0.195,3.66125 3.12,12.24125 6.16,12.08 3.03875,-0.16125 5.04125,-9.0025 4.84625,-12.66375 -0.19375,-3.66125 -2.815,-6.49875 -5.855,-6.3375 -3.03875,0.16125 -5.345,3.26 -5.15125,6.92125" />
    <path
       inkscape:connector-curvature="0"
       id="path280"
       style="fill:#535454;fill-opacity:1;fill-rule:nonzero;stroke:none"
       d="m 433.92728,324.07395 c -1.91625,-2.05875 -4.27,-3.96 -7.60125,-5.73 -0.57375,-0.305 -1.14875,-0.58875 -1.725,-0.8525 -0.085,-0.5075 -0.14,-0.9725 -0.16125,-1.3775 -0.008,-0.1425 -0.0113,-0.285 -0.0113,-0.42625 -10e-4,-3.4725 2.2425,-6.34 5.1625,-6.495 0.0838,-0.004 0.165,-0.006 0.2475,-0.006 2.9325,0 5.41875,2.7825 5.6075,6.34375 0.009,0.165 0.0137,0.34 0.0137,0.52375 -10e-4,2.09875 -0.56375,5.3925 -1.5325,8.02" />
    <path
       inkscape:connector-curvature="0"
       id="path282"
       style="fill:#5b5d5c;fill-opacity:1;fill-rule:nonzero;stroke:none"
       d="m 451.34478,360.5802 c -7.275,-11.88 -2.73125,-16.52375 -8.40125,-23.9875 -5.67,-7.46375 -7.40625,-13.35375 -16.6175,-18.24875 -16.30375,-8.66625 -33.25,-0.0525 -51.9075,-11.8325 -18.65625,-11.78 -34.87125,-21.7325 -61.14375,-12.77125 -26.2725,8.96125 -42.6725,28.42875 -42.6725,28.42875 0,0 -14.37375,-1.85875 -21.03625,21.875 -6.66238,23.73375 -21.2615,34.99125 -29.42075,39.12875 -8.15963,4.1375 -23.56738,16.21375 -7.09663,20.7225 16.47025,4.5075 45.25363,-10.435 50.46988,-25.01375 5.2175,-14.5775 9.28125,-22.90625 15.61,-22.82 0,0 7.34375,10.27875 -8.53875,21.73375 0,0 -4.41,1.51625 2.815,20.3575 4.9575,12.93 6.5,12.4175 14.44875,11.905 1.7175,-0.11125 3.73125,-0.22125 6.14375,-0.19625 0,0 1.29375,-0.0925 1.59375,-1.05875 0.59,-1.9 -0.56375,-5.3625 -8.275,-5.40875 0,0 -5.845,-7.9325 -2.785,-11.64375 3.06125,-3.7125 8.63,-4.55625 8.63,-4.55625 0,0 -2.1175,7.75 3.8875,14.5625 6.00625,6.81125 7.2425,8.305 28.84875,7.6975 0,0 2.555,-0.17625 2.94625,-1.5975 0.77125,-2.7975 -0.0388,-7.55125 -11.5425,-4.92875 -2.06625,0.47 -7.245,-3.88875 -5.42375,-6.51375 1.8025,-2.5975 8.84875,-24.4775 24.3875,-27.66625 0.0675,-0.10625 27.665,-6.105 34.7,4.0425 1.33625,1.92875 2.77125,3.775 4.545,5.31125 4.81375,4.17 12.31375,10.18125 22.3075,16.74125 7.745,5.08375 7.5625,13.83375 15.2375,14.16625 7.67625,0.33375 14.90875,1.01 16.27125,-0.6625 1.3625,-1.67125 3.14,-5.87 -6.93875,-6.0975 -11.63375,-0.26375 -20.97125,-31.19625 -15.2475,-40.67875 0,0 13.6975,6.52875 23.42,6.17 0,0 4.19875,7.8375 21.22125,4.6525 0,0 6.84,0.0675 -0.43625,-11.8125" />
    <path
       inkscape:connector-curvature="0"
       id="path284"
       style="fill:#414042;fill-opacity:1;fill-rule:nonzero;stroke:none"
       d="m 228.83628,377.3802 c 2.246,-1.86125 4.5835,-4.105 6.88425,-6.78 2.6055,0.045 5.39887,1.19375 8.9155,3.4375 5.4725,3.49 8.6,10.285 10.36,16.19875 -3.2775,2.87625 -7.19875,5.5225 -11.41663,7.74625 -0.15525,-3.79625 -0.71875,-7.69 -2.05812,-10.8825 -2.58988,-6.175 -8.605,-8.69625 -12.685,-9.72" />
    <path
       inkscape:connector-curvature="0"
       id="path286"
       style="fill:#414042;fill-opacity:1;fill-rule:nonzero;stroke:none"
       d="m 254.22228,354.42145 c -2.8525,-0.67125 -5.4875,-1.0625 -7.8225,-1.2875 1.11875,-2.66 2.135,-5.5175 3.01875,-8.58875 4.7025,0.295 10.3125,1.33875 13.7125,4.37125 4.01125,3.5775 6.46,9.155 7.77875,13.05125 -0.8625,1.36625 -1.70875,2.97 -2.555,4.77375 -1.93625,-3.75875 -6.39375,-10.5 -14.1325,-12.32" />
    <path
       inkscape:connector-curvature="0"
       id="path288"
       style="fill:#414042;fill-opacity:1;fill-rule:nonzero;stroke:none"
       d="m 213.04865,403.8952 c -16.47075,-4.50875 -1.063,-16.585 7.09663,-20.7225 0.26425,-0.13375 0.53612,-0.27625 0.8135,-0.425 3.04737,0.45375 6.41362,1.55625 8.564,4.075 2.79537,3.27625 1.69775,10.82625 0.31537,16.5025 -6.05225,1.53 -11.95212,1.89375 -16.7895,0.57" />
    <path
       inkscape:connector-curvature="0"
       id="path290"
       style="fill:#414042;fill-opacity:1;fill-rule:nonzero;stroke:none"
       d="m 261.73103,382.5227 c -1.9175,-4.555 -6.14875,-12.6275 -12.775,-14.87875 -3.2325,-1.09875 -6.70325,-1.425 -9.8195,-1.4025 1.76412,-2.47 3.46437,-5.22125 5.032,-8.28875 3.43625,0.205 8.1775,0.8875 11.4925,2.97 3.97,2.49375 7.8525,8.795 9.8875,12.48125 -0.66125,1.715 -1.335,3.53625 -2.03,5.4775 -0.43375,1.215 -1.04625,2.4325 -1.7875,3.64125" />
    <path
       inkscape:connector-curvature="0"
       id="path292"
       style="fill:#5b5d5c;fill-opacity:1;fill-rule:nonzero;stroke:none"
       d="m 415.98978,314.90395 c 1.0325,3.5175 5.855,11.19375 8.775,10.3375 2.92125,-0.8575 2.83375,-9.92125 1.8025,-13.44 -1.0325,-3.5175 -4.23625,-5.675 -7.1575,-4.81875 -2.92,0.85625 -4.45125,4.4025 -3.42,7.92125" />
    <path
       inkscape:connector-curvature="0"
       id="path294"
       style="fill:#ffffff;fill-opacity:1;fill-rule:nonzero;stroke:none"
       d="m 328.72228,404.6877 0,0 c -0.5925,-1.32625 -2.07125,-2.42125 -5.18625,-2.51625 3.11625,0.095 4.59375,1.19 5.18625,2.51625 m -30.26375,-1.34625 0,0 c -0.3925,-0.43375 -0.8,-0.89375 -1.23,-1.3825 0.43,0.48875 0.8375,0.94875 1.23,1.3825 m 18.5075,-0.37875 0,0 0,0 0,0 m 0.32375,-0.0325 c 0.004,-0.001 0.008,-0.002 0.0113,-0.002 -0.004,0 -0.007,10e-4 -0.0113,0.002 m 0.0113,-0.002 c 0.1575,-0.0362 0.3125,-0.0712 0.46625,-0.10375 -0.15375,0.0325 -0.30875,0.0675 -0.46625,0.10375 m 5.565,-0.7625 c 10e-4,0 10e-4,0 0.002,0 -0.001,0 -0.001,0 -0.002,0 m 0.0475,0 c 0.0575,-0.001 0.115,-0.001 0.1725,-0.001 l 0,0 c -0.0575,0 -0.115,0 -0.1725,0.001 m -25.78375,-0.31875 c -0.004,-0.002 -0.006,-0.006 -0.01,-0.01 0.004,0.004 0.006,0.008 0.01,0.01 m 17.1625,-0.0113 c -1.84875,-1.345 -3.48,-3.6225 -2.50375,-5.28125 -0.975,1.65875 0.655,3.93625 2.50375,5.28125 m -2.46125,-5.35 c 0.015,-0.0238 0.03,-0.0475 0.0463,-0.0713 10e-4,-0.002 0.004,-0.005 0.005,-0.006 -0.001,0.001 -0.002,0.004 -0.005,0.006 -0.0162,0.0238 -0.0312,0.0475 -0.0463,0.0713 m 0.0537,-0.0812 c 0,-10e-4 0.001,-0.003 0.003,-0.004 -0.001,0.001 -0.003,0.003 -0.003,0.004 m 0.005,-0.008 c 0.001,-0.001 0.001,-0.002 0.002,-0.004 -10e-4,10e-4 -10e-4,0.002 -0.002,0.004 m 0.004,-0.006 c 0.001,-0.002 0.004,-0.004 0.005,-0.006 -10e-4,0.003 -0.004,0.004 -0.005,0.006 m 0.008,-0.01 c 0.001,-10e-4 0.001,-0.002 0.002,-0.004 -10e-4,0.001 -10e-4,0.002 -0.002,0.004 m 0.005,-0.007 c 0,-10e-4 10e-4,-0.003 10e-4,-0.004 0,0.001 -10e-4,0.003 -10e-4,0.004 m 0.005,-0.008 c 0,-0.001 10e-4,-0.002 10e-4,-0.002 0,0 -10e-4,10e-4 -10e-4,0.002 m 0.008,-0.0125 c 0,0 0,0 10e-4,-0.001 -10e-4,0.001 -10e-4,0.001 -10e-4,0.001 m 0.0212,-0.0337 c 0,0 10e-4,0 10e-4,-0.001 0,0.001 -10e-4,0.001 -10e-4,0.001 m 0.005,-0.006 c 0,-10e-4 0,-10e-4 0,-10e-4 0,0 0,0 0,10e-4 m 0.035,-0.0575 0,0 0,0 m 0.51375,-0.9825 c 0.003,-0.004 0.004,-0.009 0.006,-0.0125 -0.002,0.004 -0.004,0.009 -0.006,0.0125 m 0.01,-0.02 c 0.001,-0.002 0.002,-0.005 0.004,-0.008 -0.001,0.003 -0.002,0.005 -0.004,0.008 m 0.009,-0.0175 c 0,-10e-4 0,-10e-4 0,-0.002 0,0.001 0,0.001 0,0.002 m 0.005,-0.0138 c 10e-4,0 10e-4,-10e-4 10e-4,-10e-4 0,0 0,10e-4 -10e-4,10e-4 m 0.0125,-0.025 c 0.001,-0.002 0.002,-0.004 0.004,-0.006 -0.001,0.002 -0.002,0.004 -0.004,0.006 m 0.004,-0.007 c 0.74625,-1.56 1.87875,-4.2125 3.4575,-7.26 -1.57875,3.0475 -2.71125,5.7 -3.4575,7.26 m 3.4625,-7.27 c 0.004,-0.007 0.007,-0.015 0.0112,-0.0212 -0.004,0.007 -0.007,0.0137 -0.0112,0.0212" />
    <path
       inkscape:connector-curvature="0"
       id="path296"
       style="fill:#ebeae8;fill-opacity:1;fill-rule:nonzero;stroke:none"
       d="m 318.38228,409.5777 0,0 c 0.001,0 0.002,0 0.002,0 0,0 -10e-4,0 -0.002,0 m -0.005,0 c -13.11125,-10e-4 -15.68625,-1.56 -19.91875,-6.23625 l 0,0 c 4.2325,4.67625 6.81125,6.235 19.91875,6.23625 m 7.2975,-0.1175 c 0.0475,-10e-4 0.0975,-0.002 0.145,-0.004 -0.0475,10e-4 -0.0975,0.002 -0.145,0.004 m 3.20125,-1.7275 c 0.23625,-0.92875 0.29,-2.0525 -0.15375,-3.045 l 0,0 c 0.44375,0.9925 0.39,2.11625 0.15375,3.045" />
    <path
       inkscape:connector-curvature="0"
       id="path298"
       style="fill:#535454;fill-opacity:1;fill-rule:nonzero;stroke:none"
       d="m 318.38228,409.5777 c -0.002,0 -0.002,0 -0.005,0 -13.1075,-10e-4 -15.68625,-1.56 -19.91875,-6.23625 -0.3925,-0.43375 -0.8,-0.89375 -1.23,-1.3825 -0.0337,-0.0375 -0.0662,-0.075 -0.0987,-0.1125 -0.004,-0.002 -0.006,-0.006 -0.01,-0.01 -0.0238,-0.0262 -0.0462,-0.0537 -0.0712,-0.08 l 0,0 c -3.51875,-3.99125 -4.24875,-8.305 -4.25,-11.19375 0,-2.04 0.3625,-3.36875 0.3625,-3.36875 0,0 14.71875,-1.53375 33.58,-13.65375 -4.7875,4.01 -8.2925,9.65125 -10.73375,14.3575 -0.004,0.006 -0.007,0.0138 -0.0112,0.0213 -10e-4,0.004 -0.004,0.006 -0.005,0.01 -1.57875,3.0475 -2.71125,5.7 -3.4575,7.26 0,0 0,0 0,10e-4 -10e-4,0.002 -0.002,0.004 -0.004,0.006 -0.004,0.009 -0.008,0.015 -0.0113,0.0238 0,0 0,10e-4 -10e-4,10e-4 -10e-4,0.004 -0.002,0.007 -0.005,0.0113 0,10e-4 0,10e-4 0,0.002 -0.003,0.002 -0.004,0.006 -0.005,0.01 -0.001,0.003 -0.002,0.005 -0.004,0.008 -10e-4,0.002 -0.002,0.005 -0.004,0.007 -0.002,0.004 -0.004,0.009 -0.006,0.0125 -0.19875,0.41375 -0.37,0.74625 -0.51375,0.9825 l 0,0 c -0.0113,0.02 -0.0225,0.0375 -0.035,0.0563 0,0 0,0 0,10e-4 -0.001,0.001 -0.002,0.004 -0.004,0.005 0,0.001 -10e-4,0.001 -10e-4,0.001 -0.006,0.0113 -0.0138,0.0225 -0.02,0.0325 -10e-4,0.001 -10e-4,0.001 -10e-4,0.001 -0.003,0.004 -0.004,0.006 -0.006,0.01 0,0 -10e-4,10e-4 -10e-4,0.002 -10e-4,10e-4 -0.002,0.002 -0.004,0.004 0,0.001 -10e-4,0.003 -10e-4,0.004 -0.001,10e-4 -0.001,0.002 -0.002,0.004 -10e-4,10e-4 -10e-4,0.002 -0.002,0.004 -10e-4,0.001 -0.003,0.002 -0.003,0.004 -10e-4,0.003 -0.004,0.004 -0.005,0.006 0,0.001 -0.001,0.001 -0.001,0.002 -10e-4,0.001 -10e-4,0.002 -0.002,0.004 -0.001,10e-4 -0.002,0.002 -0.002,0.004 -0.001,10e-4 -0.003,0.003 -0.003,0.004 -0.001,0.001 -0.001,0.002 -0.002,0.004 -0.001,10e-4 -0.004,0.004 -0.005,0.006 -0.0162,0.0238 -0.0312,0.0475 -0.0463,0.0713 -0.015,0.0225 -0.03,0.045 -0.0425,0.0687 -0.97625,1.65875 0.655,3.93625 2.50375,5.28125 0.93875,0.68375 1.935,1.1275 2.67375,1.1275 l 0,0 0,0 c 0.115,0 0.2225,-0.0112 0.32375,-0.0325 0.004,-10e-4 0.008,-0.002 0.0113,-0.002 l 0,0 c 0.1575,-0.0362 0.3125,-0.0712 0.46625,-0.10375 2.0275,-0.4375 3.70875,-0.63875 5.09875,-0.65875 10e-4,0 10e-4,0 0.002,0 0.015,0 0.03,0 0.045,0 0.0575,-10e-4 0.115,-10e-4 0.1725,-10e-4 0.15375,0 0.30375,0.002 0.45,0.008 3.115,0.095 4.59375,1.19 5.18625,2.51625 0.44375,0.9925 0.39,2.11625 0.15375,3.045 -0.009,0.0375 -0.0187,0.0737 -0.0288,0.11125 -0.001,0.004 -0.002,0.009 -0.004,0.0125 -0.39125,1.42125 -2.94625,1.5975 -2.94625,1.5975 l 0,0 c -0.0275,10e-4 -0.0512,10e-4 -0.0775,0.002 -0.0475,0.001 -0.0975,0.002 -0.145,0.004 -2.74375,0.075 -5.15625,0.11625 -7.29,0.1175 0,0 -10e-4,0 -0.002,0" />
    <path
       inkscape:connector-curvature="0"
       id="path300"
       style="fill:#535454;fill-opacity:1;fill-rule:nonzero;stroke:none"
       d="m 331.15728,370.5602 0.005,-0.004 0,0 -0.005,0.004" />
    <path
       inkscape:connector-curvature="0"
       id="path302"
       style="fill:#ffffff;fill-opacity:1;fill-rule:nonzero;stroke:none"
       d="m 219.65603,404.7127 0,0 c 0.0166,0 0.0328,0 0.0489,0 -0.0161,0 -0.0323,0 -0.0489,0 m -10e-4,0 c -2.29588,0 -4.4745,-0.25 -6.476,-0.7825 2.0005,0.5325 4.18162,0.78125 6.476,0.7825 m -6.52675,-0.79625 c -0.0259,-0.007 -0.0532,-0.015 -0.0791,-0.0212 -0.0328,-0.009 -0.0645,-0.0175 -0.0962,-0.0263 0.0317,0.009 0.064,0.0175 0.0962,0.0263 0.0156,0.004 0.0312,0.009 0.0474,0.0125 0.0102,0.002 0.0219,0.006 0.0317,0.009 m 50.342,-24.9003 c 0.01,-0.025 0.0188,-0.0513 0.0288,-0.0763 l 0,0 c -0.01,0.025 -0.0188,0.0512 -0.0288,0.0763" />
    <path
       inkscape:connector-curvature="0"
       id="path304"
       style="fill:#535454;fill-opacity:1;fill-rule:nonzero;stroke:none"
       d="m 219.65603,404.7127 c -10e-4,0 -5e-4,0 -10e-4,0 -2.29438,-10e-4 -4.4755,-0.25 -6.476,-0.7825 -0.0171,-0.005 -0.0337,-0.009 -0.0507,-0.0138 -0.01,-0.002 -0.0215,-0.006 -0.0317,-0.009 2.01662,0.54625 4.21575,0.80125 6.53412,0.80125 3.2325,0 6.69538,-0.495 10.208,-1.38375 0.982,-4.03125 1.81988,-9.0075 1.22225,-12.72625 3.13563,-1.66125 6.27,-3.605 9.19813,-5.865 0.47762,0.72125 0.90287,1.50875 1.26275,2.36625 1.33937,3.1925 1.90287,7.08625 2.05812,10.8825 4.21788,-2.22375 8.13913,-4.87 11.41663,-7.74625 -1.34,-4.5025 -3.47125,-9.515 -6.82875,-13.19125 0.8925,-1.12 1.72375,-2.29125 2.48625,-3.51625 0.78,-1.25625 1.5525,-2.47875 2.31125,-3.6675 4.36,3.4 7.26875,9.1025 8.76625,12.66125 0.73,-1.19 1.33375,-2.38625 1.7675,-3.5825 -0.01,0.025 -0.0188,0.0512 -0.0288,0.0762 -4.67625,12.72 -27.20588,25.66875 -43.76488,25.69625 -0.0161,0 -0.0323,0 -0.0489,0" />
    <path
       inkscape:connector-curvature="0"
       id="path306"
       style="fill:#ffffff;fill-opacity:1;fill-rule:nonzero;stroke:none"
       d="m 212.94903,403.8677 c -0.0464,-0.0138 -0.0932,-0.0262 -0.13913,-0.04 0.0459,0.0138 0.0923,0.0262 0.13913,0.04 m -0.145,-0.0412 c -0.0143,-0.004 -0.0279,-0.008 -0.0415,-0.0113 0.0136,0.004 0.0277,0.007 0.0415,0.0113 m -0.0479,-0.0138 c -0.0132,-0.004 -0.0269,-0.008 -0.04,-0.0113 0.0136,0.004 0.0259,0.008 0.04,0.0113 m -0.0605,-0.0175 c -0.009,-0.002 -0.0176,-0.005 -0.0264,-0.008 0.009,0.002 0.0175,0.005 0.0264,0.008 m -0.0548,-0.015 c -0.006,-0.002 -0.0117,-0.004 -0.0176,-0.005 0.006,0.001 0.0118,0.003 0.0176,0.005 m -0.0586,-0.0175 c -0.001,0 -0.003,-10e-4 -0.005,-10e-4 0.002,0 0.004,10e-4 0.005,10e-4 m -0.0497,-0.015 c -5e-4,0 -0.001,0 -0.002,0 l 0.002,0 m 50.96725,-24.81125 c 0,-10e-4 0,-10e-4 0,-10e-4 0.001,-0.004 0.002,-0.007 0.005,-0.0125 -0.002,0.005 -0.004,0.009 -0.005,0.0138" />
    <path
       inkscape:connector-curvature="0"
       id="path308"
       style="fill:#535454;fill-opacity:1;fill-rule:nonzero;stroke:none"
       d="m 263.49978,378.9352 c 0.002,-0.007 0.005,-0.015 0.007,-0.0213 0,0.002 -0.002,0.006 -0.002,0.009 -0.002,0.005 -0.004,0.009 -0.005,0.0125" />
    <path
       inkscape:connector-curvature="0"
       id="path310"
       style="fill:#535454;fill-opacity:1;fill-rule:nonzero;stroke:none"
       d="m 265.54728,373.40145 c -1.675,-3.03375 -4.5975,-7.8325 -7.79125,-10.8275 1.155,-1.70875 2.27,-3.32375 3.33375,-4.8375 3.6425,2.7975 5.9925,6.53625 7.26125,8.99875 -0.925,1.9725 -1.85125,4.19875 -2.80375,6.66625" />
    <path
       inkscape:connector-curvature="0"
       id="path312"
       style="fill:#ffffff;fill-opacity:1;fill-rule:nonzero;stroke:none"
       d="m 279.10478,356.06145 c -0.001,0 -0.001,0 -0.002,0 10e-4,0 10e-4,0 0.002,0 m -0.0225,-10e-4 c -0.001,0 -0.004,0 -0.005,0 0.001,0 0.003,0 0.005,0 m -0.0263,0 -10e-4,0 10e-4,0 m -0.0337,0 c 0.002,0 0.006,0 0.009,0 l 0,0 c -0.002,0 -0.006,0 -0.009,0" />
    <path
       inkscape:connector-curvature="0"
       id="path314"
       style="fill:#535454;fill-opacity:1;fill-rule:nonzero;stroke:none"
       d="m 270.90978,361.9677 c -1.0275,-3.03625 -2.74125,-7.0925 -5.345,-10.42875 4.81375,-6.48625 7.845,-9.9725 7.845,-9.9725 0,0 -0.505,4.25375 5.71875,14.495 l 0,0 c -0.009,0 -0.0163,0 -0.0238,0 -0.001,0 -0.001,0 -0.002,0 -0.006,0 -0.0138,-10e-4 -0.02,-10e-4 -0.002,0 -0.004,0 -0.005,0 -0.007,0 -0.0137,0 -0.0212,0 l -0.001,0 c -0.007,0 -0.0162,0 -0.0238,0 l 0,0 c -0.002,0 -0.006,0 -0.009,0 -3.115,0.004 -5.6825,2.06125 -8.1125,5.9075" />
    <path
       inkscape:connector-curvature="0"
       id="path316"
       style="fill:#3b3b3c;fill-opacity:1;fill-rule:nonzero;stroke:none"
       d="m 243.5794,397.9827 c -0.15525,-3.79625 -0.71875,-7.69 -2.05812,-10.8825 -0.35988,-0.8575 -0.78513,-1.645 -1.26275,-2.36625 2.90137,-2.24 5.6025,-4.79125 7.90875,-7.68875 3.3575,3.67625 5.48875,8.68875 6.82875,13.19125 -3.2775,2.87625 -7.19875,5.5225 -11.41663,7.74625" />
    <path
       inkscape:connector-curvature="0"
       id="path318"
       style="fill:#3b3b3c;fill-opacity:1;fill-rule:nonzero;stroke:none"
       d="m 268.35103,366.7352 c -1.26875,-2.4625 -3.61875,-6.20125 -7.26125,-8.99875 1.61625,-2.29875 3.115,-4.36625 4.475,-6.1975 2.60375,3.33625 4.3175,7.3925 5.345,10.42875 -0.86375,1.3675 -1.71,2.96 -2.55875,4.7675" />
    <path
       inkscape:connector-curvature="0"
       id="path320"
       style="fill:#3b3b3c;fill-opacity:1;fill-rule:nonzero;stroke:none"
       d="m 219.63015,404.70895 c -2.31837,0 -4.5175,-0.255 -6.53412,-0.80125 -0.0161,-0.004 -0.0318,-0.009 -0.0474,-0.0125 -0.0323,-0.009 -0.0645,-0.0175 -0.0962,-0.0263 -0.001,-10e-4 -0.002,-10e-4 -0.003,-10e-4 -0.0469,-0.0138 -0.0932,-0.0262 -0.13912,-0.04 -0.002,0 -0.004,0 -0.006,-10e-4 -0.0138,-0.004 -0.0279,-0.008 -0.0415,-0.0113 -0.002,-0.001 -0.004,-0.001 -0.006,-0.002 -0.0141,-0.004 -0.0264,-0.008 -0.04,-0.0113 -0.007,-10e-4 -0.0137,-0.004 -0.0205,-0.006 -0.009,-0.002 -0.0176,-0.005 -0.0264,-0.008 -0.009,-0.002 -0.0196,-0.005 -0.0284,-0.007 -0.006,-0.002 -0.0117,-0.004 -0.0176,-0.005 -0.0136,-0.005 -0.0272,-0.009 -0.041,-0.0125 -0.002,0 -0.003,-10e-4 -0.005,-10e-4 -0.0146,-0.005 -0.0298,-0.009 -0.0444,-0.0138 l -0.002,0 c -3.75875,-1.11125 -5.73288,-2.64125 -6.4555,-4.3825 0.019,-0.004 12.52975,-2.1675 24.98487,-8.76625 0.59763,3.71875 -0.24025,8.695 -1.22225,12.72625 -3.51262,0.88875 -6.9755,1.38375 -10.208,1.38375" />
    <path
       inkscape:connector-curvature="0"
       id="path322"
       style="fill:#3b3b3c;fill-opacity:1;fill-rule:nonzero;stroke:none"
       d="m 261.73103,382.5227 c -1.4975,-3.55875 -4.40625,-9.26125 -8.76625,-12.66125 1.65875,-2.59375 3.26,-5.02375 4.79125,-7.2875 3.19375,2.995 6.11625,7.79375 7.79125,10.8275 -0.66125,1.7125 -1.33375,3.54125 -2.02875,5.48 l 0,0 c -0.004,0.0113 -0.006,0.0213 -0.0113,0.0325 -0.002,0.006 -0.005,0.0138 -0.007,0.0213 0,0 0,0 0,10e-4 -10e-4,0.001 -10e-4,0.002 -10e-4,0.004 l 0,0 c -0.43375,1.19625 -1.0375,2.3925 -1.7675,3.5825" />
    <path
       inkscape:connector-curvature="0"
       id="path324"
       style="fill:#c6c5c3;fill-opacity:1;fill-rule:nonzero;stroke:none"
       d="m 435.76728,358.71645 c 3.01125,-3.31625 8.6875,-3.76875 12.8,-3.58875 0.66,1.64375 1.5475,3.4425 2.77875,5.4525 7.275,11.88 0.435,11.8125 0.435,11.8125 -17.02125,3.185 -21.22125,-4.6525 -21.22125,-4.6525 l -0.12,10e-4 c 0.3075,-2.39 1.32,-4.6125 5.3275,-9.025" />
    <path
       inkscape:connector-curvature="0"
       id="path326"
       style="fill:#414042;fill-opacity:1;fill-rule:nonzero;stroke:none"
       d="m 457.09853,368.2402 c 0.13125,-1.19875 -0.89125,-4.99 -3.47375,-3.3425 -2.5825,1.6475 -3.83625,6.6225 -1.84375,7.495 0.93,0.40625 4.9425,-0.7425 5.3175,-4.1525" />
    <path
       inkscape:connector-curvature="0"
       id="path328"
       style="fill:#414042;fill-opacity:1;fill-rule:nonzero;stroke:none"
       d="m 422.80353,348.5352 c 2.2575,-0.55125 10.065,-0.14125 13.08125,-2.89 3.015,-2.74875 5.9825,-3.5775 8.5,-0.31375 0.67625,0.87625 1.4825,1.77125 2.30125,2.61625 0.3775,2.56 0.97875,5.44625 2.715,9.07 -1.80375,2.70875 -4.55,5.07625 -6.41125,5.74875 -2.9575,1.0675 -14.575,1.37625 -21.15875,-4.855 -6.58375,-6.23125 -1.285,-8.82375 0.9725,-9.37625" />
    <path
       inkscape:connector-curvature="0"
       id="path330"
       style="fill:#929191;fill-opacity:1;fill-rule:nonzero;stroke:none"
       d="m 438.53478,353.32895 c 0.0287,0.79125 0.69375,1.41 1.485,1.38 0.79125,-0.0288 1.41,-0.69375 1.38,-1.485 -0.0288,-0.79125 -0.69375,-1.41 -1.485,-1.38 -0.79125,0.0288 -1.41,0.69375 -1.38,1.485" />
    <path
       inkscape:connector-curvature="0"
       id="path332"
       style="fill:#ffffff;fill-opacity:1;fill-rule:nonzero;stroke:none"
       d="m 405.52353,367.2877 -10e-4,-10e-4 c -0.001,0 -0.001,0 -0.001,0 0.21375,-2.2875 0.7375,-4.25625 1.61875,-5.71625 l 0,0 c -0.2125,0.35375 -0.40375,0.74 -0.575,1.15 -0.0988,0.235 -0.17625,0.49625 -0.26125,0.74875 -0.0625,0.1825 -0.1325,0.35625 -0.1875,0.54875 -0.0962,0.33875 -0.17375,0.70125 -0.25,1.065 -0.0263,0.125 -0.0588,0.24125 -0.0825,0.36875 -0.0725,0.38875 -0.12625,0.7975 -0.1775,1.21 -0.0263,0.21125 -0.0625,0.41 -0.0825,0.62625" />
    <path
       inkscape:connector-curvature="0"
       id="path334"
       style="fill:#535454;fill-opacity:1;fill-rule:nonzero;stroke:none"
       d="m 405.52103,367.28645 c -10.73,-5.42125 -13.46625,-18.4375 -11.11125,-30.1825 l -0.005,0.19875 c -0.009,0.725 0.0225,3.38 0.74125,6.77625 5.23625,15.52 11.99375,17.49125 11.99375,17.49125 -0.88125,1.46 -1.405,3.42875 -1.61875,5.71625" />
  </g>
</svg>
