<?xml version="1.0" encoding="UTF-8" standalone="no"?>
<!-- Created with Inkscape (http://www.inkscape.org/) -->

<svg
   xmlns:dc="http://purl.org/dc/elements/1.1/"
   xmlns:cc="http://creativecommons.org/ns#"
   xmlns:rdf="http://www.w3.org/1999/02/22-rdf-syntax-ns#"
   xmlns:svg="http://www.w3.org/2000/svg"
   xmlns="http://www.w3.org/2000/svg"
   xmlns:sodipodi="http://sodipodi.sourceforge.net/DTD/sodipodi-0.dtd"
   xmlns:inkscape="http://www.inkscape.org/namespaces/inkscape"
   width="35.549847mm"
   height="29.824333mm"
   viewBox="0 0 125.96402 105.67677"
   id="svg4817"
   version="1.1"
   inkscape:version="0.91 r"
   sodipodi:docname="squirrel2.svg">
  <defs
     id="defs4819" />
  <sodipodi:namedview
     id="base"
     pagecolor="#ffffff"
     bordercolor="#666666"
     borderopacity="1.0"
     inkscape:pageopacity="0.0"
     inkscape:pageshadow="2"
     inkscape:zoom="0.35"
     inkscape:cx="-10.929096"
     inkscape:cy="578.55272"
     inkscape:document-units="px"
     inkscape:current-layer="layer1"
     showgrid="false"
     fit-margin-top="0"
     fit-margin-left="0"
     fit-margin-right="0"
     fit-margin-bottom="0"
     inkscape:window-width="960"
     inkscape:window-height="1028"
     inkscape:window-x="0"
     inkscape:window-y="0"
     inkscape:window-maximized="1" />
  <metadata
     id="metadata4822">
    <rdf:RDF>
      <cc:Work
         rdf:about="">
        <dc:format>image/svg+xml</dc:format>
        <dc:type
           rdf:resource="http://purl.org/dc/dcmitype/StillImage" />
        <dc:title></dc:title>
      </cc:Work>
    </rdf:RDF>
  </metadata>
  <g
     inkscape:label="Layer 1"
     inkscape:groupmode="layer"
     id="layer1"
     transform="translate(-374.16085,-1005.2381)">
    <path
       inkscape:connector-curvature="0"
       id="path88"
       style="fill:#edecea;fill-opacity:1;fill-rule:nonzero;stroke:none"
       d="m 438.55987,1110.9149 c -34.00125,0 -61.565,-2.0953 -61.565,-4.6788 0,-2.584 27.56375,-4.6777 61.565,-4.6777 34.00125,0 61.565,2.0937 61.565,4.6777 0,2.5835 -27.56375,4.6788 -61.565,4.6788" />
    <path
       inkscape:connector-curvature="0"
       id="path406"
       style="fill:#b35d2c;fill-opacity:1;fill-rule:nonzero;stroke:none"
       d="m 441.56362,1090.9012 c 0,0 11.45125,2.52 14.62875,8.2173 0.60875,1.0927 -0.1475,2.4399 -1.39875,2.4399 l -20.17625,0 c 0,0 -0.62625,-9.9209 6.94625,-10.6572" />
    <path
       inkscape:connector-curvature="0"
       id="path408"
       style="fill:#ed975d;fill-opacity:1;fill-rule:nonzero;stroke:none"
       d="m 444.80237,1099.181 c 0,0 9.635,-6.8135 8.595,-21.6811 l -12.93375,-8.555 -6.45625,32.0222 10.795,-1.7861" />
    <path
       inkscape:connector-curvature="0"
       id="path410"
       style="fill:#b35d2c;fill-opacity:1;fill-rule:nonzero;stroke:none"
       d="m 467.08862,1063.7599 c 0,0 5.03875,-0.8475 10.31,0 5.27,0.8487 5.44625,8.9298 5.44625,8.9298 l -15.75625,-8.9298" />
    <path
       inkscape:connector-curvature="0"
       id="path412"
       style="fill:#98491d;fill-opacity:1;fill-rule:nonzero;stroke:none"
       d="m 462.10362,1040.6074 c 0,0 -8.32625,-11.405 -1.4475,-15.2063 6.87875,-3.8012 6.42625,10.6813 6.42625,10.6813" />
    <path
       inkscape:connector-curvature="0"
       id="path414"
       style="fill:#98491d;fill-opacity:1;fill-rule:nonzero;stroke:none"
       d="m 415.33612,1107.7699 c 0,0 -10.97625,0.9638 -24.035,-11.8965 l 1.9975,0 c 0,0 -15.36375,-10.3399 -14.74875,-26.5148 0.615,-16.1737 17.47375,-25.1887 20.49,-29.5637 l 0,2.6512 c 0,0 9.00625,-3.5325 9.4675,-7.335 l 0.76875,1.6338 c 0,0 4.60875,-5.9663 0.7675,-7.4238 -3.84,-1.4587 -14.74875,2.2538 -18.58875,12.595 0,0 -3.53375,7.5563 -10.4475,8.6175 l 0.46125,-3.05 c 0,0 -3.68625,3.845 -4.30125,5.5688 0,0 -13.82625,-30.095 17.82125,-43.22 l -1.9975,-2.6513 c 0,0 19.3575,-6.0987 31.955,3.3138 12.5975,9.4137 10.13875,20.6825 10.13875,20.6825 l 2.15125,-0.7613 c 0,0 2.93625,10.4288 -10.36125,17.7913 -13.2975,7.3637 -11.53875,59.5625 -11.53875,59.5625" />
    <path
       inkscape:connector-curvature="0"
       id="path416"
       style="fill:#c76b34;fill-opacity:1;fill-rule:nonzero;stroke:none"
       d="m 490.16487,1057.4311 c 0,0 -4.1075,-26.4937 -22.755,-28.05 -6.425,-0.5362 -10.4525,5.08 -24.3475,8.8975 -21.9925,6.0413 -47.07875,15.735 -49.5125,36.7725 -2.4325,21.0376 11.46125,33.3286 22.625,33.3286 l 39.32,0 c 1.275,0 2.07125,-1.416 1.37125,-2.481 -1.6975,-2.5801 -5.92125,-6.249 -16.21875,-6.249 0,0 9.875,-11.3061 6.29625,-23.3276 0,0 7.4425,3.0054 13.31,2.1465 5.8675,-0.8589 13.02375,-6.7261 17.31625,-3.8637 4.29375,2.8622 0.71625,3.5776 3.2925,4.58 2.575,1.001 6.29625,-8.8575 2.29,-11.0125 -4.0075,-2.1538 -15.88625,-3.4425 -15.4575,-8.4513 0,0 16.8875,5.295 22.47,-2.29" />
    <path
       inkscape:connector-curvature="0"
       id="path418"
       style="fill:#98491d;fill-opacity:1;fill-rule:nonzero;stroke:none"
       d="m 481.00487,1044.9799 c 0,1.265 -1.025,2.29 -2.29,2.29 -1.26375,0 -2.29,-1.025 -2.29,-2.29 0,-1.2638 1.02625,-2.2888 2.29,-2.2888 1.265,0 2.29,1.025 2.29,2.2888" />
    <path
       inkscape:connector-curvature="0"
       id="path420"
       style="fill:#c76b34;fill-opacity:1;fill-rule:nonzero;stroke:none"
       d="m 465.26237,1039.2561 c 0,0 -4.29375,-13.4525 3.435,-14.8837 7.7275,-1.4313 2.71875,12.1637 2.71875,12.1637" />
    <path
       inkscape:connector-curvature="0"
       id="path422"
       style="fill:#98491d;fill-opacity:1;fill-rule:nonzero;stroke:none"
       d="m 446.94362,1076.3221 c 0,0 -8.395,-12.1047 -25.87375,1.814 0,0 18.42125,-19.4112 25.87375,-1.814" />
    <path
       inkscape:connector-curvature="0"
       id="path424"
       style="fill:#98491d;fill-opacity:1;fill-rule:nonzero;stroke:none"
       d="m 490.16487,1057.4311 -1.63375,-0.4475 c -0.64875,-0.1775 -0.95375,-0.9212 -0.6175,-1.5037 l 1.305,-2.2575 0.94625,4.2087" />
    <path
       d="m 438.55987,1110.9149 c -34.00125,0 -61.565,-2.0953 -61.565,-4.6788 0,-2.584 27.56375,-4.6777 61.565,-4.6777 34.00125,0 61.565,2.0937 61.565,4.6777 0,2.5835 -27.56375,4.6788 -61.565,4.6788"
       style="fill:#edecea;fill-opacity:1;fill-rule:nonzero;stroke:none"
       id="path4851"
       inkscape:connector-curvature="0" />
    <path
       d="m 441.56362,1090.9012 c 0,0 11.45125,2.52 14.62875,8.2173 0.60875,1.0927 -0.1475,2.4399 -1.39875,2.4399 l -20.17625,0 c 0,0 -0.62625,-9.9209 6.94625,-10.6572"
       style="fill:#b35d2c;fill-opacity:1;fill-rule:nonzero;stroke:none"
       id="path4853"
       inkscape:connector-curvature="0" />
    <path
       d="m 444.80237,1099.181 c 0,0 9.635,-6.8135 8.595,-21.6811 l -12.93375,-8.555 -6.45625,32.0222 10.795,-1.7861"
       style="fill:#ed975d;fill-opacity:1;fill-rule:nonzero;stroke:none"
       id="path4855"
       inkscape:connector-curvature="0" />
    <path
       d="m 467.08862,1063.7599 c 0,0 5.03875,-0.8475 10.31,0 5.27,0.8487 5.44625,8.9298 5.44625,8.9298 l -15.75625,-8.9298"
       style="fill:#b35d2c;fill-opacity:1;fill-rule:nonzero;stroke:none"
       id="path4857"
       inkscape:connector-curvature="0" />
    <path
       d="m 462.10362,1040.6074 c 0,0 -8.32625,-11.405 -1.4475,-15.2063 6.87875,-3.8012 6.42625,10.6813 6.42625,10.6813"
       style="fill:#98491d;fill-opacity:1;fill-rule:nonzero;stroke:none"
       id="path4859"
       inkscape:connector-curvature="0" />
    <path
       d="m 415.33612,1107.7699 c 0,0 -10.97625,0.9638 -24.035,-11.8965 l 1.9975,0 c 0,0 -15.36375,-10.3399 -14.74875,-26.5148 0.615,-16.1737 17.47375,-25.1887 20.49,-29.5637 l 0,2.6512 c 0,0 9.00625,-3.5325 9.4675,-7.335 l 0.76875,1.6338 c 0,0 4.60875,-5.9663 0.7675,-7.4238 -3.84,-1.4587 -14.74875,2.2538 -18.58875,12.595 0,0 -3.53375,7.5563 -10.4475,8.6175 l 0.46125,-3.05 c 0,0 -3.68625,3.845 -4.30125,5.5688 0,0 -13.82625,-30.095 17.82125,-43.22 l -1.9975,-2.6513 c 0,0 19.3575,-6.0987 31.955,3.3138 12.5975,9.4137 10.13875,20.6825 10.13875,20.6825 l 2.15125,-0.7613 c 0,0 2.93625,10.4288 -10.36125,17.7913 -13.2975,7.3637 -11.53875,59.5625 -11.53875,59.5625"
       style="fill:#98491d;fill-opacity:1;fill-rule:nonzero;stroke:none"
       id="path4861"
       inkscape:connector-curvature="0" />
    <path
       d="m 490.16487,1057.4311 c 0,0 -4.1075,-26.4937 -22.755,-28.05 -6.425,-0.5362 -10.4525,5.08 -24.3475,8.8975 -21.9925,6.0413 -47.07875,15.735 -49.5125,36.7725 -2.4325,21.0376 11.46125,33.3286 22.625,33.3286 l 39.32,0 c 1.275,0 2.07125,-1.416 1.37125,-2.481 -1.6975,-2.5801 -5.92125,-6.249 -16.21875,-6.249 0,0 9.875,-11.3061 6.29625,-23.3276 0,0 7.4425,3.0054 13.31,2.1465 5.8675,-0.8589 13.02375,-6.7261 17.31625,-3.8637 4.29375,2.8622 0.71625,3.5776 3.2925,4.58 2.575,1.001 6.29625,-8.8575 2.29,-11.0125 -4.0075,-2.1538 -15.88625,-3.4425 -15.4575,-8.4513 0,0 16.8875,5.295 22.47,-2.29"
       style="fill:#c76b34;fill-opacity:1;fill-rule:nonzero;stroke:none"
       id="path4863"
       inkscape:connector-curvature="0" />
    <path
       d="m 481.00487,1044.9799 c 0,1.265 -1.025,2.29 -2.29,2.29 -1.26375,0 -2.29,-1.025 -2.29,-2.29 0,-1.2638 1.02625,-2.2888 2.29,-2.2888 1.265,0 2.29,1.025 2.29,2.2888"
       style="fill:#98491d;fill-opacity:1;fill-rule:nonzero;stroke:none"
       id="path4865"
       inkscape:connector-curvature="0" />
    <path
       d="m 465.26237,1039.2561 c 0,0 -4.29375,-13.4525 3.435,-14.8837 7.7275,-1.4313 2.71875,12.1637 2.71875,12.1637"
       style="fill:#c76b34;fill-opacity:1;fill-rule:nonzero;stroke:none"
       id="path4867"
       inkscape:connector-curvature="0" />
    <path
       d="m 446.94362,1076.3221 c 0,0 -8.395,-12.1047 -25.87375,1.814 0,0 18.42125,-19.4112 25.87375,-1.814"
       style="fill:#98491d;fill-opacity:1;fill-rule:nonzero;stroke:none"
       id="path4869"
       inkscape:connector-curvature="0" />
    <path
       d="m 490.16487,1057.4311 -1.63375,-0.4475 c -0.64875,-0.1775 -0.95375,-0.9212 -0.6175,-1.5037 l 1.305,-2.2575 0.94625,4.2087"
       style="fill:#98491d;fill-opacity:1;fill-rule:nonzero;stroke:none"
       id="path4871"
       inkscape:connector-curvature="0" />
  </g>
</svg>
