<?xml version="1.0" encoding="UTF-8" standalone="no"?>
<!-- Generator: Adobe Illustrator 16.0.0, SVG Export Plug-In . SVG Version: 6.00 Build 0)  -->

<svg
   xmlns:dc="http://purl.org/dc/elements/1.1/"
   xmlns:cc="http://creativecommons.org/ns#"
   xmlns:rdf="http://www.w3.org/1999/02/22-rdf-syntax-ns#"
   xmlns:svg="http://www.w3.org/2000/svg"
   xmlns="http://www.w3.org/2000/svg"
   xmlns:sodipodi="http://sodipodi.sourceforge.net/DTD/sodipodi-0.dtd"
   xmlns:inkscape="http://www.inkscape.org/namespaces/inkscape"
   version="1.1"
   id="Capa_1"
   x="0px"
   y="0px"
   width="176.25456"
   height="170.8351"
   viewBox="0 0 202.69619 196.4637"
   xml:space="preserve"
   inkscape:version="0.91 r13725"
   sodipodi:docname="worm.svg"><metadata
     id="metadata43"><rdf:RDF><cc:Work
         rdf:about=""><dc:format>image/svg+xml</dc:format><dc:type
           rdf:resource="http://purl.org/dc/dcmitype/StillImage" /><dc:title></dc:title></cc:Work></rdf:RDF></metadata><defs
     id="defs41" /><sodipodi:namedview
     pagecolor="#ffffff"
     bordercolor="#666666"
     borderopacity="1"
     objecttolerance="10"
     gridtolerance="10"
     guidetolerance="10"
     inkscape:pageopacity="0"
     inkscape:pageshadow="2"
     inkscape:window-width="640"
     inkscape:window-height="480"
     id="namedview39"
     showgrid="false"
     fit-margin-top="0"
     fit-margin-left="0"
     fit-margin-right="0"
     fit-margin-bottom="0"
     inkscape:zoom="0.4609375"
     inkscape:cx="255.99322"
     inkscape:cy="248.13058"
     inkscape:window-x="0"
     inkscape:window-y="0"
     inkscape:window-maximized="0"
     inkscape:current-layer="Capa_1" /><g
     id="g3"
     transform="matrix(0.34424596,0,0,0.34424596,-0.00268395,-3.1163458)"><g
       id="g5"><path
         d="m 585.831,10.021 c -1.281,-0.314 -2.566,-0.359 -3.77,-0.359 l -1.51,0.008 -0.723,-0.008 c -0.392,0 -0.791,0.065 -1.555,0.208 -1.027,-0.078 -2.052,-0.18 -3.08,-0.281 -1.652,-0.167 -3.309,-0.335 -4.961,-0.408 -3.081,-0.123 -6.182,-0.225 -9.245,0.028 -1.551,0.127 -2.995,0.551 -4.395,0.963 -0.648,0.192 -1.298,0.384 -1.954,0.539 -1.021,0.241 -2.044,0.465 -3.068,0.69 -1.444,0.318 -2.889,0.636 -4.32,0.995 -1.429,0.355 -2.84,0.759 -4.256,1.159 l -5.365,1.453 c -2.411,0.628 -4.826,1.261 -7.201,2.016 -1.232,0.396 -2.317,0.975 -3.37,1.542 -0.579,0.31 -1.154,0.62 -1.75,0.89 -1.028,0.461 -2.069,0.894 -3.113,1.326 -1.652,0.685 -3.305,1.371 -4.904,2.162 -1.832,0.902 -3.603,1.926 -5.373,2.946 l -3.072,1.754 c -0.584,0.334 -1.163,0.673 -1.775,0.935 -5.92,2.489 -10.616,6.552 -14.047,9.812 -1.478,1.408 -3.358,2.489 -5.354,3.635 l -1.207,0.702 c -3.48,2.044 -6.459,4.892 -9.38,8.956 -1.388,1.934 -3.102,3.884 -5.239,5.977 -0.33,0.326 -0.673,0.637 -1.008,0.951 -1.611,1.485 -3.431,3.166 -4.23,5.892 -0.062,0.175 -0.466,0.6 -0.73,0.881 -0.384,0.404 -0.763,0.816 -1.065,1.256 -0.815,1.183 -1.235,2.224 -1.33,3.28 -0.061,0.69 -0.004,1.371 0.058,1.979 0.012,0.139 0.032,0.269 0.045,0.396 -0.306,0.282 -0.559,0.49 -0.579,0.51 -0.249,0.11 -0.49,0.237 -0.719,0.371 -2.934,1.734 -4.94,4.235 -5.916,7.312 -0.085,0.126 -0.216,0.241 -0.338,0.359 -0.421,0.424 -0.996,1 -1.273,1.856 -0.106,0.334 -0.18,0.665 -0.18,0.767 -0.094,0.273 -0.693,1.489 -1.946,3.717 -1.13,2.003 -2.179,4.06 -3.153,6.153 -1.167,2.513 -2.117,4.255 -2.452,4.676 -1.004,1.273 -1.334,2.354 -1.004,3.317 l 0.062,0.147 c -0.033,0.126 -0.082,0.281 -0.147,0.465 -0.171,0.465 -0.44,1.004 -0.689,1.506 -0.285,0.579 -0.546,1.118 -0.693,1.518 -0.24,0.653 -0.367,1.367 -0.375,2.252 -0.302,4.472 -1.775,10.2 -3.199,15.741 -1.077,4.194 -2.194,8.536 -2.835,12.444 -7.643,46.247 -31.869,103.241 -76.941,124.501 -17.295,8.16 -37.226,11.815 -56.691,10.392 -3.651,-0.261 -7.173,-0.624 -10.624,-0.979 -6.292,-0.649 -12.236,-1.265 -18.425,-1.265 -4.929,0 -9.478,0.404 -13.905,1.224 -11.073,2.057 -22.138,4.162 -33.203,6.263 l -16.887,3.227 c -39.049,13.33 -72.616,43.685 -89.584,80.861 -2.016,2.783 -2.562,6.521 -1.591,9.788 -1.693,0.841 -3.06,2.48 -3.696,4.599 -0.571,1.885 -0.449,3.741 0.27,5.259 -1.392,1.016 -2.501,2.488 -3.154,4.255 -0.897,2.437 -0.775,5.015 0.294,7.096 l -0.922,2.934 c -9.735,30.979 -20.768,66.088 -21.636,98.646 -0.069,0.057 -0.327,0.179 -0.51,0.269 l -0.518,0.258 c -1.077,0.562 -1.607,1.619 -2.154,2.717 -0.098,0.196 -0.428,0.51 -0.722,0.787 -0.273,0.258 -0.547,0.522 -0.934,0.951 -0.367,0.388 -0.979,1.032 -1.094,1.995 -0.359,2.979 -0.657,5.969 -0.942,8.955 -0.021,0.225 -0.033,0.441 -0.037,0.661 -0.18,0.307 -0.637,0.935 -1.293,1.596 -0.653,0.652 -1.403,1.444 -2.011,2.391 -0.743,1.146 -1.367,2.37 -1.991,3.595 -0.575,1.126 -1.143,2.26 -1.832,3.312 -0.718,1.098 -1.763,2.216 -3.289,3.525 -0.836,0.714 -1.656,1.456 -2.48,2.203 -2.366,2.142 -4.602,4.166 -7.144,5.517 -2.248,1.187 -4.006,2.762 -5.708,4.283 -1.334,1.191 -2.595,2.317 -4.011,3.195 -0.6,0.371 -1.211,0.726 -1.828,1.077 -0.681,0.396 -1.363,0.783 -2.032,1.203 -0.951,0.596 -1.893,1.204 -2.836,1.812 -1.424,0.922 -2.844,1.841 -4.3,2.701 -2.248,1.33 -4.529,2.615 -6.805,3.896 l -3.558,2.012 c -0.412,0.232 -0.816,0.485 -1.216,0.738 -0.534,0.339 -1.073,0.682 -1.636,0.946 -1.11,0.526 -2.236,1.021 -3.362,1.514 -1.616,0.71 -3.228,1.42 -4.798,2.212 l -2.448,1.235 c -4.284,2.154 -8.715,4.383 -12.93,6.888 -3.158,1.872 -5.471,4.736 -6.687,8.282 -0.502,1.448 -0.445,2.86 0.159,3.97 0.51,0.938 1.399,1.611 2.497,1.885 1.281,0.314 2.566,0.359 3.77,0.359 l 1.51,-0.008 0.722,0.008 c 0.392,0 0.792,-0.065 1.554,-0.208 1.028,0.077 2.052,0.18 3.081,0.281 1.652,0.168 3.309,0.335 4.961,0.408 1.681,0.069 3.366,0.131 5.047,0.131 1.403,0 2.807,-0.045 4.198,-0.159 1.55,-0.127 2.995,-0.551 4.394,-0.963 0.649,-0.192 1.297,-0.384 1.955,-0.539 1.02,-0.24 2.044,-0.465 3.068,-0.689 1.444,-0.318 2.889,-0.637 4.321,-0.995 1.428,-0.355 2.844,-0.759 4.26,-1.159 l 5.361,-1.452 c 2.412,-0.629 4.827,-1.261 7.201,-2.016 1.228,-0.396 2.317,-0.975 3.366,-1.538 0.579,-0.311 1.159,-0.624 1.758,-0.894 1.028,-0.461 2.073,-0.897 3.117,-1.326 1.648,-0.686 3.301,-1.375 4.896,-2.162 1.832,-0.901 3.603,-1.926 5.374,-2.946 l 3.072,-1.754 c 0.583,-0.335 1.163,-0.673 1.775,-0.935 5.92,-2.488 10.616,-6.553 14.047,-9.812 1.477,-1.407 3.358,-2.488 5.353,-3.635 l 1.208,-0.702 c 3.48,-2.044 6.458,-4.892 9.38,-8.955 1.387,-1.935 3.101,-3.885 5.239,-5.978 0.331,-0.326 0.673,-0.637 1.008,-0.951 1.611,-1.484 3.431,-3.166 4.231,-5.891 0.061,-0.176 0.465,-0.604 0.734,-0.89 0.379,-0.4 0.759,-0.808 1.061,-1.249 0.286,-0.412 0.535,-0.819 0.739,-1.24 0.175,-0.354 1.289,-2.061 2.713,-3.917 17.769,-23.227 24.664,-51.889 31.331,-79.608 8.666,-36.022 16.851,-70.05 46.72,-93.963 13.219,-10.587 29.155,-18.254 46.087,-22.175 11.853,-2.745 21.44,-4.08 29.303,-4.08 6.287,0 11.354,0.874 15.063,2.591 0.204,0.095 0.424,0.188 0.652,0.266 0.123,0.049 0.339,0.184 0.543,0.318 0.367,0.236 0.738,0.461 1.134,0.628 0.404,0.172 0.833,0.29 1.294,0.392 l 0.686,0.082 c 0.767,0 1.473,-0.294 1.99,-0.828 0.217,-0.229 0.388,-0.481 0.515,-0.763 0.155,-0.024 0.351,-0.041 0.583,-0.041 0.996,0.004 3.211,0.403 4.831,0.697 l 2.113,0.363 c 0.718,0.114 1.428,0.232 2.134,0.375 l 0.714,0.074 c 1.135,-0.005 2.167,-0.515 2.853,-0.906 2.925,-1.685 8.115,-1.714 13.133,-1.746 4.134,-0.021 8.405,-0.049 11.824,-0.987 18.173,-1.453 36.141,-6.977 51.682,-15.835 19.918,-7.27 37.042,-19.902 55.68,-41.146 0.607,-0.677 1.525,-1.701 1.432,-3.043 -0.057,-0.869 0.099,-1.33 1.191,-1.787 1.146,-0.478 4.194,-1.75 3.872,-5.553 0.065,-0.245 0.47,-0.747 0.693,-0.869 2.444,-1.241 3.538,-3.097 3.346,-5.684 -0.069,-0.934 0.221,-1.102 0.698,-1.265 1.211,-0.417 3.904,-1.795 2.77,-5.749 -0.134,-0.469 -0.171,-0.702 -0.229,-0.722 0.07,-0.045 0.209,-0.122 0.453,-0.22 4.133,-1.591 4.276,-3.57 3.052,-7.156 -0.065,-0.188 -0.126,-0.379 -0.188,-0.58 1.354,-0.118 2.615,-0.812 3.428,-1.901 0.894,-1.191 1.162,-2.705 0.734,-4.158 -0.208,-0.706 -0.506,-1.383 -0.824,-2.056 0.942,-0.196 1.868,-0.775 2.623,-1.665 0.608,-0.722 1.273,-1.603 1.596,-2.701 0.313,-1.085 0.22,-2.175 0.085,-3.101 -0.139,-0.963 -0.673,-1.672 -1.179,-2.223 0.869,-0.249 1.701,-0.902 2.395,-1.897 0.616,-0.885 1.106,-1.648 1.481,-2.513 0.583,-1.322 0.285,-3.35 -0.657,-4.525 -0.416,-0.514 -0.705,-1.024 -0.894,-1.575 1.869,-0.033 3.578,-1.591 4.174,-3.811 0.481,-1.791 0.155,-3.476 -0.995,-5.149 -0.037,-0.053 -0.106,-0.224 -0.147,-0.775 1.314,0.118 2.514,-0.559 3.02,-1.689 0.123,-0.265 0.249,-0.542 0.408,-0.799 1.146,-1.889 1.118,-3.709 -0.086,-5.557 -0.384,-0.592 -0.514,-0.926 -0.579,-0.991 0.131,-0.094 0.388,-0.216 0.534,-0.286 0.421,-0.204 1.314,-0.628 1.624,-1.632 0.71,-0.546 1.175,-1.199 1.379,-1.954 0.412,-1.51 -0.354,-2.791 -1.044,-3.945 l -0.343,-0.551 c -0.192,-0.306 -0.485,-0.747 -0.58,-0.632 0,0 0.074,-0.098 0.339,-0.278 0.833,-0.563 1.028,-1.432 1.069,-2.06 0.616,-0.322 1.102,-0.861 1.354,-1.514 0.322,-0.829 0.257,-1.783 -0.18,-2.615 -0.253,-0.478 -0.514,-0.926 -0.836,-1.33 -0.262,-0.331 -0.311,-0.604 -0.27,-0.759 0.073,-0.269 0.787,-0.791 1.126,-1.044 0.498,-0.363 0.967,-0.709 1.306,-1.199 0.31,-0.441 0.6,-0.885 0.865,-1.354 0.437,-0.788 0.615,-1.759 0.481,-2.595 -0.176,-1.098 -0.376,-2.191 -0.584,-3.313 -0.036,-0.188 -0.062,-0.355 -0.081,-0.506 1.379,-0.653 2.346,-2.219 2.758,-2.986 0.865,-1.636 0.771,-3.309 -0.281,-4.965 -0.327,-0.514 -0.551,-1.163 -0.764,-1.963 1.273,-0.424 2.403,-1.652 3.085,-3.415 0.734,-1.877 0.489,-3.607 -0.751,-5.275 -0.665,-0.898 -0.44,-1.612 1.257,-3.888 1.411,-1.897 1.591,-3.95 0.53,-6.104 -0.318,-0.641 -0.367,-1.273 0.375,-2.448 1.897,-3.003 3.75,-6.557 1.918,-10.874 0.053,-0.134 0.151,-0.351 0.322,-0.665 0.314,-0.575 0.661,-1.13 1.008,-1.689 1.542,-2.477 3.468,-5.565 2.003,-9.812 -0.248,-0.722 -0.261,-1.628 -0.269,-2.754 0.069,-0.061 0.326,-0.184 0.51,-0.269 l 0.522,-0.261 c 1.077,-0.563 1.607,-1.62 2.154,-2.717 0.098,-0.196 0.428,-0.51 0.722,-0.788 0.273,-0.257 0.547,-0.522 0.935,-0.951 0.367,-0.388 0.979,-1.032 1.093,-1.995 0.359,-2.978 0.657,-5.969 0.943,-8.956 0.02,-0.224 0.032,-0.44 0.036,-0.661 0.18,-0.306 0.637,-0.934 1.294,-1.595 0.652,-0.653 1.403,-1.444 2.011,-2.391 0.743,-1.146 1.367,-2.371 1.991,-3.595 0.575,-1.126 1.143,-2.26 1.832,-3.313 0.718,-1.097 1.767,-2.219 3.293,-3.525 0.824,-0.71 1.64,-1.444 2.456,-2.183 2.374,-2.15 4.618,-4.182 7.168,-5.528 2.248,-1.191 4.011,-2.766 5.712,-4.292 1.335,-1.191 2.591,-2.313 4.007,-3.19 0.6,-0.372 1.212,-0.727 1.828,-1.077 0.682,-0.396 1.362,-0.783 2.031,-1.204 0.951,-0.596 1.894,-1.204 2.836,-1.812 1.424,-0.922 2.844,-1.84 4.301,-2.701 2.248,-1.33 4.528,-2.615 6.805,-3.896 l 3.559,-2.012 c 0.411,-0.232 0.815,-0.485 1.216,-0.738 0.534,-0.339 1.072,-0.682 1.636,-0.947 1.109,-0.526 2.235,-1.02 3.362,-1.514 1.615,-0.71 3.227,-1.42 4.798,-2.211 l 2.448,-1.236 c 4.283,-2.154 8.715,-4.382 12.929,-6.887 3.158,-1.873 5.472,-4.737 6.688,-8.283 0.502,-1.448 0.444,-2.86 -0.159,-3.97 -0.504,-0.94 -1.389,-1.61 -2.491,-1.883 z"
         id="path7"
         inkscape:connector-curvature="0"
         style="fill:#9c5a10" /></g></g><g
     id="g9"
     transform="matrix(0.34424596,0,0,0.34424596,-0.00268395,-3.1163458)" /><g
     id="g11"
     transform="matrix(0.34424596,0,0,0.34424596,-0.00268395,-3.1163458)" /><g
     id="g13"
     transform="matrix(0.34424596,0,0,0.34424596,-0.00268395,-3.1163458)" /><g
     id="g15"
     transform="matrix(0.34424596,0,0,0.34424596,-0.00268395,-3.1163458)" /><g
     id="g17"
     transform="matrix(0.34424596,0,0,0.34424596,-0.00268395,-3.1163458)" /><g
     id="g19"
     transform="matrix(0.34424596,0,0,0.34424596,-0.00268395,-3.1163458)" /><g
     id="g21"
     transform="matrix(0.34424596,0,0,0.34424596,-0.00268395,-3.1163458)" /><g
     id="g23"
     transform="matrix(0.34424596,0,0,0.34424596,-0.00268395,-3.1163458)" /><g
     id="g25"
     transform="matrix(0.34424596,0,0,0.34424596,-0.00268395,-3.1163458)" /><g
     id="g27"
     transform="matrix(0.34424596,0,0,0.34424596,-0.00268395,-3.1163458)" /><g
     id="g29"
     transform="matrix(0.34424596,0,0,0.34424596,-0.00268395,-3.1163458)" /><g
     id="g31"
     transform="matrix(0.34424596,0,0,0.34424596,-0.00268395,-3.1163458)" /><g
     id="g33"
     transform="matrix(0.34424596,0,0,0.34424596,-0.00268395,-3.1163458)" /><g
     id="g35"
     transform="matrix(0.34424596,0,0,0.34424596,-0.00268395,-3.1163458)" /><g
     id="g37"
     transform="matrix(0.34424596,0,0,0.34424596,-0.00268395,-3.1163458)" /></svg>