<?xml version="1.0" encoding="UTF-8" standalone="no"?>
<!-- Created with Inkscape (http://www.inkscape.org/) -->

<svg
   version="1.1"
   id="svg2"
   width="679"
   height="727"
   viewBox="0 0 679 727"
   sodipodi:docname="Anderson_etal_1981_phasediagram_overlay.svg"
   inkscape:version="1.1.2 (0a00cf5339, 2022-02-04)"
   xmlns:inkscape="http://www.inkscape.org/namespaces/inkscape"
   xmlns:sodipodi="http://sodipodi.sourceforge.net/DTD/sodipodi-0.dtd"
   xmlns="http://www.w3.org/2000/svg"
   xmlns:svg="http://www.w3.org/2000/svg"
   xmlns:rdf="http://www.w3.org/1999/02/22-rdf-syntax-ns#"
   xmlns:cc="http://creativecommons.org/ns#"
   xmlns:dc="http://purl.org/dc/elements/1.1/">
  <metadata
     id="metadata8">
    <rdf:RDF>
      <cc:Work
         rdf:about="">
        <dc:format>image/svg+xml</dc:format>
        <dc:type
           rdf:resource="http://purl.org/dc/dcmitype/StillImage" />
        <dc:title />
      </cc:Work>
    </rdf:RDF>
  </metadata>
  <defs
     id="defs6" />
  <sodipodi:namedview
     pagecolor="#ffffff"
     bordercolor="#666666"
     borderopacity="1"
     objecttolerance="10"
     gridtolerance="10"
     guidetolerance="10"
     inkscape:pageopacity="0"
     inkscape:pageshadow="2"
     inkscape:window-width="1850"
     inkscape:window-height="1136"
     id="namedview4"
     showgrid="false"
     inkscape:zoom="0.91816891"
     inkscape:cx="124.70472"
     inkscape:cy="330.5492"
     inkscape:window-x="70"
     inkscape:window-y="27"
     inkscape:window-maximized="1"
     inkscape:current-layer="svg2"
     inkscape:pagecheckerboard="0" />
  <path
     id="path12"
     style="fill:#b6003b;stroke:#000000;stroke-width:1px;stroke-linecap:butt;stroke-linejoin:miter;stroke-opacity:1;fill-opacity:0.86666667"
     d="M 89.308594 32.138672 L 87.130859 479.76953 C 93.799259 533.7104 105.51632 559.03455 120.89258 563.63086 C 175.16726 588.68861 453.43798 448.18452 619.71094 390.46094 L 617.5332 33.228516 L 89.308594 32.138672 z M 403.41016 85.896484 L 520.55859 85.896484 L 520.55859 136.41406 L 403.41016 136.41406 L 403.41016 85.896484 z " />
  <path
     id="rect4526"
     style="fill:#f74700;fill-opacity:0.86666667;stroke-width:1.00201404"
     d="M 78.416016 631.15625 L 78.416016 662.74219 L 620.80078 662.74219 L 620.80078 631.15625 L 78.416016 631.15625 z M 413.99023 635.41211 L 526.72461 635.41211 L 526.72461 656.14648 L 413.99023 656.14648 L 413.99023 635.41211 z " />
  <path
     id="rect4528-7"
     style="opacity:1;vector-effect:none;fill:#016394;fill-opacity:0.86666667;stroke-width:1;stroke-linecap:butt;stroke-linejoin:miter;stroke-miterlimit:4;stroke-dasharray:none;stroke-dashoffset:0;stroke-opacity:1"
     d="M 78.416016 31.048828 L 78.416016 631.15625 L 620.80078 631.15625 L 619.71094 390.46094 C 453.43801 448.18452 175.16726 588.68861 120.89258 563.63086 C 105.51632 559.03455 93.799259 533.7104 87.130859 479.76953 L 89.308594 32.138672 L 78.416016 31.048828 z M 412.96289 497.37305 L 604.54492 497.37305 L 604.54492 566.79297 L 412.96289 566.79297 L 412.96289 497.37305 z " />
</svg>
