<?xml version="1.0" encoding="UTF-8" standalone="no"?>
<svg
   xmlns:dc="http://purl.org/dc/elements/1.1/"
   xmlns:cc="http://creativecommons.org/ns#"
   xmlns:rdf="http://www.w3.org/1999/02/22-rdf-syntax-ns#"
   xmlns:svg="http://www.w3.org/2000/svg"
   xmlns="http://www.w3.org/2000/svg"
   xmlns:sodipodi="http://sodipodi.sourceforge.net/DTD/sodipodi-0.dtd"
   xmlns:inkscape="http://www.inkscape.org/namespaces/inkscape"
   viewBox="0 0 587.07001 473.00638"
   version="1.1"
   id="svg710"
   sodipodi:docname="two-pop-comparison_two.svg"
   width="587.07001"
   height="473.00638"
   inkscape:version="0.92.3 (2405546, 2018-03-11)">
  <metadata
     id="metadata714">
    <rdf:RDF>
      <cc:Work
         rdf:about="">
        <dc:format>image/svg+xml</dc:format>
        <dc:type
           rdf:resource="http://purl.org/dc/dcmitype/StillImage" />
        <dc:title></dc:title>
      </cc:Work>
    </rdf:RDF>
  </metadata>
  <sodipodi:namedview
     pagecolor="#ffffff"
     bordercolor="#666666"
     borderopacity="1"
     objecttolerance="10"
     gridtolerance="10"
     guidetolerance="10"
     inkscape:pageopacity="0"
     inkscape:pageshadow="2"
     inkscape:window-width="1920"
     inkscape:window-height="1009"
     id="namedview712"
     showgrid="false"
     fit-margin-top="5"
     fit-margin-left="5"
     fit-margin-right="5"
     fit-margin-bottom="5"
     inkscape:zoom="1.3110938"
     inkscape:cx="243.95404"
     inkscape:cy="304.74539"
     inkscape:window-x="0"
     inkscape:window-y="0"
     inkscape:window-maximized="1"
     inkscape:current-layer="svg710" />
  <defs
     id="defs4">
    <style
       type="text/css"
       id="style2"><![CDATA[
    line, polyline, polygon, path, rect, circle {
      fill: none;
      stroke: #000000;
      stroke-linecap: round;
      stroke-linejoin: round;
      stroke-miterlimit: 10.00;
    }
  ]]></style>
  </defs>
  <defs
     id="defs13">
    <clipPath
       id="cpNDkuOTJ8MjE0LjI1fDEzMy43MXw1LjQ4">
      <rect
         x="49.919998"
         y="5.48"
         width="164.33"
         height="128.23"
         id="rect10"
         style="fill:none;stroke:#000000;stroke-linecap:round;stroke-linejoin:round;stroke-miterlimit:10" />
    </clipPath>
  </defs>
  <defs
     id="defs56">
    <clipPath
       id="cpMC4wMHw1NzYuMDB8NDMyLjAwfDAuMDA=">
      <rect
         x="0"
         y="0"
         width="576"
         height="432"
         id="rect53"
         style="fill:none;stroke:#000000;stroke-linecap:round;stroke-linejoin:round;stroke-miterlimit:10" />
    </clipPath>
  </defs>
  <defs
     id="defs61">
    <clipPath
       id="cpNDkuOTJ8MjE0LjI1fDI2Ny40MXwxMzkuMTk=">
      <rect
         x="49.919998"
         y="139.19"
         width="164.33"
         height="128.23"
         id="rect58"
         style="fill:none;stroke:#000000;stroke-linecap:round;stroke-linejoin:round;stroke-miterlimit:10" />
    </clipPath>
  </defs>
  <defs
     id="defs107">
    <clipPath
       id="clipPath105">
      <rect
         x="0"
         y="0"
         width="576"
         height="432"
         id="rect103"
         style="fill:none;stroke:#000000;stroke-linecap:round;stroke-linejoin:round;stroke-miterlimit:10" />
    </clipPath>
  </defs>
  <defs
     id="defs112">
    <clipPath
       id="cpNDkuOTJ8MjE0LjI1fDQwMS4xMnwyNzIuODk=">
      <rect
         x="49.919998"
         y="272.89001"
         width="164.33"
         height="128.23"
         id="rect109"
         style="fill:none;stroke:#000000;stroke-linecap:round;stroke-linejoin:round;stroke-miterlimit:10" />
    </clipPath>
  </defs>
  <defs
     id="defs158">
    <clipPath
       id="clipPath156">
      <rect
         x="0"
         y="0"
         width="576"
         height="432"
         id="rect154"
         style="fill:none;stroke:#000000;stroke-linecap:round;stroke-linejoin:round;stroke-miterlimit:10" />
    </clipPath>
  </defs>
  <defs
     id="defs163">
    <clipPath
       id="cpMjE5LjczfDM4NC4wNnwxMzMuNzF8NS40OA==">
      <rect
         x="219.73"
         y="5.48"
         width="164.33"
         height="128.23"
         id="rect160"
         style="fill:none;stroke:#000000;stroke-linecap:round;stroke-linejoin:round;stroke-miterlimit:10" />
    </clipPath>
  </defs>
  <polyline
     points="227.20,102.29 228.20,36.92 229.20,18.54 230.21,48.14 231.21,41.71 232.21,20.16 233.21,30.42 234.22,41.37 235.22,32.72 236.22,26.94 237.22,35.00 238.23,38.36 239.23,40.32 240.23,69.92 241.24,114.34 242.24,126.19 243.24,127.50 244.24,127.71 245.25,127.78 246.25,127.81 247.25,127.78 248.25,127.69 249.26,127.40 250.26,126.27 251.26,120.31 252.26,89.93 253.27,21.05 254.27,27.62 255.27,50.21 256.27,35.28 257.28,19.66 258.28,35.04 259.28,40.60 260.29,29.72 261.29,28.37 262.29,36.80 263.29,38.08 264.30,44.12 265.30,82.99 266.30,119.95 267.30,126.82 268.31,127.58 269.31,127.73 270.31,127.79 271.31,127.81 272.32,127.77 273.32,127.64 274.32,127.25 275.33,125.55 276.33,116.28 277.33,73.58 278.33,12.77 279.34,36.71 280.34,49.50 281.34,28.61 282.34,21.94 283.35,38.63 284.35,38.53 285.35,27.56 286.35,30.56 287.36,37.93 288.36,37.98 289.36,50.48 290.36,95.95 291.37,123.32 292.37,127.18 293.37,127.64 294.38,127.75 295.38,127.80 296.38,127.80 297.38,127.75 298.39,127.58 299.39,127.03 300.39,124.42 301.39,110.13 302.40,54.22 303.40,13.01 304.40,43.95 305.40,46.28 306.41,23.08 307.41,26.11 308.41,40.79 309.41,35.60 310.42,26.63 311.42,32.99 312.42,38.39 313.43,38.62 314.43,59.67 315.43,107.00 316.43,125.23 317.44,127.39 318.44,127.68 319.44,127.77 320.44,127.81 321.45,127.79 322.45,127.72 323.45,127.50 324.45,126.70 325.46,122.66 326.46,101.04 327.46,34.78 328.46,19.52 329.47,48.53 330.47,41.01 331.47,19.94 332.48,30.99 333.48,41.35 334.48,32.35 335.48,27.05 336.49,35.24 337.49,38.33 338.49,40.65 339.49,71.40 340.50,115.14 341.50,126.29 342.50,127.51 343.50,127.71 344.51,127.78 345.51,127.81 346.51,127.78 347.51,127.68 348.52,127.39 349.52,126.20 350.52,119.92 351.53,88.21 352.53,19.63 353.53,28.73 354.53,50.26 355.54,34.49 356.54,19.79 357.54,35.52 358.54,40.41 359.55,29.41 360.55,28.60 361.55,36.96 362.55,38.05 363.56,44.73 364.56,84.56 365.56,120.45 366.57,126.88 367.57,127.59 368.57,127.74 369.57,127.80 370.58,127.81 371.58,127.76 372.58,127.63 373.58,127.23 374.59,125.44 375.59,115.68 376.59,71.43 "
     style="fill:none;stroke:#f74700;stroke-width:1.07000005;stroke-linecap:butt;stroke-linejoin:round;stroke-miterlimit:10"
     clip-path="url(#cpMjE5LjczfDM4NC4wNnwxMzMuNzF8NS40OA==)"
     id="polyline197"
     transform="translate(5.535,35.471384)" />
  <polyline
     points="227.20,118.76 228.20,49.41 229.20,45.82 230.21,113.06 231.21,124.15 232.21,124.96 233.21,124.89 234.22,125.13 235.22,125.04 236.22,124.73 237.22,124.74 238.23,124.89 239.23,124.93 240.23,125.42 241.24,126.85 242.24,127.66 243.24,127.83 244.24,127.86 245.25,127.87 246.25,127.87 247.25,127.87 248.25,127.86 249.26,127.83 250.26,127.65 251.26,126.22 252.26,111.06 253.27,21.96 254.27,71.78 255.27,118.37 256.27,124.69 257.28,124.91 258.28,124.94 259.28,125.15 260.29,124.96 261.29,124.69 262.29,124.78 263.29,124.90 264.30,124.97 265.30,125.74 266.30,127.17 267.30,127.74 268.31,127.85 269.31,127.87 270.31,127.87 271.31,127.87 272.32,127.87 273.32,127.86 274.32,127.81 275.33,127.51 276.33,124.94 277.33,97.33 278.33,11.31 279.34,91.96 280.34,121.47 281.34,124.93 282.34,124.87 283.35,125.02 284.35,125.14 285.35,124.87 286.35,124.69 287.36,124.83 288.36,124.91 289.36,125.06 290.36,126.12 291.37,127.40 292.37,127.79 293.37,127.85 294.38,127.87 295.38,127.87 296.38,127.87 297.38,127.87 298.39,127.85 299.39,127.78 300.39,127.28 301.39,122.55 302.40,75.16 303.40,23.61 304.40,105.47 305.40,123.25 306.41,124.99 307.41,124.86 308.41,125.08 309.41,125.10 310.42,124.78 311.42,124.71 312.42,124.86 313.43,124.91 314.43,125.22 315.43,126.52 316.43,127.57 317.44,127.82 318.44,127.86 319.44,127.87 320.44,127.87 321.45,127.87 322.45,127.87 323.45,127.84 324.45,127.72 325.46,126.86 326.46,118.08 327.46,45.83 328.46,49.01 329.47,113.84 330.47,124.23 331.47,124.95 332.48,124.89 333.48,125.13 334.48,125.03 335.48,124.72 336.49,124.74 337.49,124.89 338.49,124.93 339.49,125.46 340.50,126.89 341.50,127.67 342.50,127.83 343.50,127.86 344.51,127.87 345.51,127.87 346.51,127.87 347.51,127.86 348.52,127.83 349.52,127.64 350.52,126.11 351.53,109.82 352.53,19.57 353.53,74.50 354.53,118.83 355.54,124.73 356.54,124.90 357.54,124.95 358.54,125.15 359.55,124.94 360.55,124.69 361.55,124.79 362.55,124.90 363.56,124.98 364.56,125.78 365.56,127.20 366.57,127.74 367.57,127.85 368.57,127.87 369.57,127.87 370.58,127.87 371.58,127.87 372.58,127.86 373.58,127.81 374.59,127.49 375.59,124.73 376.59,95.20 "
     style="fill:none;stroke:#016394;stroke-width:1.07000005;stroke-linecap:butt;stroke-linejoin:round;stroke-miterlimit:10"
     clip-path="url(#cpMjE5LjczfDM4NC4wNnwxMzMuNzF8NS40OA==)"
     id="polyline199"
     transform="translate(5.535,35.471384)" />
  <defs
     id="defs207">
    <clipPath
       id="clipPath205">
      <rect
         x="0"
         y="0"
         width="576"
         height="432"
         id="rect203"
         style="fill:none;stroke:#000000;stroke-linecap:round;stroke-linejoin:round;stroke-miterlimit:10" />
    </clipPath>
  </defs>
  <defs
     id="defs212">
    <clipPath
       id="cpMjE5LjczfDM4NC4wNnwyNjcuNDF8MTM5LjE5">
      <rect
         x="219.73"
         y="139.19"
         width="164.33"
         height="128.23"
         id="rect209"
         style="fill:none;stroke:#000000;stroke-linecap:round;stroke-linejoin:round;stroke-miterlimit:10" />
    </clipPath>
  </defs>
  <polyline
     points="227.20,229.94 228.20,219.80 229.20,202.50 230.21,193.74 231.21,189.24 232.21,184.02 233.21,180.00 234.22,178.64 235.22,177.71 236.22,176.28 237.22,175.54 238.23,175.56 239.23,175.65 240.23,176.87 241.24,181.63 242.24,188.60 243.24,195.43 244.24,201.69 245.25,207.37 246.25,212.51 247.25,217.16 248.25,221.36 249.26,225.12 250.26,228.37 251.26,230.57 252.26,228.65 253.27,215.16 254.27,199.37 255.27,192.48 256.27,188.00 257.28,182.71 258.28,179.47 259.28,178.45 260.29,177.36 261.29,175.98 262.29,175.51 263.29,175.58 264.30,175.75 265.30,177.71 266.30,183.35 267.30,190.41 268.31,197.10 269.31,203.20 270.31,208.74 271.31,213.75 272.32,218.29 273.32,222.37 274.32,226.01 275.33,229.08 276.33,230.72 277.33,226.49 278.33,210.36 279.34,196.94 280.34,191.36 281.34,186.66 282.34,181.57 283.35,179.09 284.35,178.24 285.35,176.97 286.35,175.76 287.36,175.51 288.36,175.60 289.36,175.97 290.36,178.84 291.37,185.15 292.37,192.18 293.37,198.73 294.38,204.68 295.38,210.08 296.38,214.97 297.38,219.38 298.39,223.35 299.39,226.87 300.39,229.72 301.39,230.52 302.40,223.35 303.40,205.90 304.40,195.06 305.40,190.25 306.41,185.25 307.41,180.64 308.41,178.83 309.41,177.98 310.42,176.59 311.42,175.61 312.42,175.54 313.43,175.61 314.43,176.35 315.43,180.23 316.43,186.98 317.44,193.93 318.44,200.32 319.44,206.12 320.44,211.39 321.45,216.15 322.45,220.45 323.45,224.30 324.45,227.68 325.46,230.24 326.46,229.83 327.46,219.28 328.46,202.10 329.47,193.58 330.47,189.10 331.47,183.86 332.48,179.93 333.48,178.62 334.48,177.67 335.48,176.24 336.49,175.53 337.49,175.57 338.49,175.66 339.49,176.95 340.50,181.83 341.50,188.81 342.50,195.63 343.50,201.87 344.51,207.53 345.51,212.66 346.51,217.30 347.51,221.48 348.52,225.22 349.52,228.45 350.52,230.60 351.53,228.44 352.53,214.60 353.53,199.05 354.53,192.35 355.54,187.84 356.54,182.57 357.54,179.41 358.54,178.43 359.55,177.31 360.55,175.95 361.55,175.51 362.55,175.59 363.56,175.77 364.56,177.83 365.56,183.56 366.57,190.62 367.57,197.29 368.57,203.38 369.57,208.90 370.58,213.90 371.58,218.42 372.58,222.49 373.58,226.11 374.59,229.16 375.59,230.71 376.59,226.18 "
     style="fill:none;stroke:#f74700;stroke-width:1.07000005;stroke-linecap:butt;stroke-linejoin:round;stroke-miterlimit:10"
     clip-path="url(#cpMjE5LjczfDM4NC4wNnwyNjcuNDF8MTM5LjE5)"
     id="polyline248"
     transform="translate(5.535,35.471384)" />
  <polyline
     points="227.20,189.92 228.20,187.05 229.20,176.74 230.21,174.02 231.21,174.22 232.21,174.56 233.21,174.64 234.22,174.60 235.22,174.53 236.22,174.38 237.22,174.17 238.23,173.97 239.23,173.79 240.23,173.66 241.24,173.76 242.24,174.27 243.24,175.13 244.24,176.27 245.25,177.65 246.25,179.23 247.25,180.97 248.25,182.84 249.26,184.81 250.26,186.84 251.26,188.84 252.26,189.97 253.27,184.43 254.27,175.36 255.27,173.99 256.27,174.33 257.28,174.60 258.28,174.63 259.28,174.59 260.29,174.50 261.29,174.33 262.29,174.12 263.29,173.92 264.30,173.74 265.30,173.65 266.30,173.85 267.30,174.46 268.31,175.40 269.31,176.61 270.31,178.04 271.31,179.66 272.32,181.44 273.32,183.34 274.32,185.33 275.33,187.37 276.33,189.29 277.33,189.63 278.33,181.38 279.34,174.57 280.34,174.04 281.34,174.42 282.34,174.63 283.35,174.62 284.35,174.57 285.35,174.47 286.35,174.28 287.36,174.06 288.36,173.87 289.36,173.71 290.36,173.66 291.37,173.97 292.37,174.67 293.37,175.68 294.38,176.96 295.38,178.44 296.38,180.11 297.38,181.92 298.39,183.84 299.39,185.85 300.39,187.89 301.39,189.68 302.40,188.65 303.40,178.60 304.40,174.17 305.40,174.13 306.41,174.50 307.41,174.64 308.41,174.61 309.41,174.55 310.42,174.42 311.42,174.22 312.42,174.01 313.43,173.83 314.43,173.67 315.43,173.70 316.43,174.12 317.44,174.90 318.44,175.99 319.44,177.32 320.44,178.86 321.45,180.56 322.45,182.40 323.45,184.35 324.45,186.38 325.46,188.40 326.46,189.94 327.46,186.78 328.46,176.54 329.47,174.01 330.47,174.24 331.47,174.56 332.48,174.64 333.48,174.60 334.48,174.53 335.48,174.38 336.49,174.16 337.49,173.96 338.49,173.78 339.49,173.65 340.50,173.77 341.50,174.29 342.50,175.16 343.50,176.31 344.51,177.70 345.51,179.28 346.51,181.02 347.51,182.90 348.52,184.87 349.52,186.90 350.52,188.89 351.53,189.96 352.53,184.08 353.53,175.24 354.53,174.00 355.54,174.34 356.54,174.60 357.54,174.63 358.54,174.59 359.55,174.50 360.55,174.32 361.55,174.11 362.55,173.91 363.56,173.74 364.56,173.65 365.56,173.87 366.57,174.48 367.57,175.43 368.57,176.65 369.57,178.09 370.58,179.71 371.58,181.49 372.58,183.39 373.58,185.39 374.59,187.43 375.59,189.34 376.59,189.55 "
     style="fill:none;stroke:#016394;stroke-width:1.07000005;stroke-linecap:butt;stroke-linejoin:round;stroke-miterlimit:10"
     clip-path="url(#cpMjE5LjczfDM4NC4wNnwyNjcuNDF8MTM5LjE5)"
     id="polyline250"
     transform="translate(5.535,35.471384)" />
  <defs
     id="defs258">
    <clipPath
       id="clipPath256">
      <rect
         x="0"
         y="0"
         width="576"
         height="432"
         id="rect254"
         style="fill:none;stroke:#000000;stroke-linecap:round;stroke-linejoin:round;stroke-miterlimit:10" />
    </clipPath>
  </defs>
  <defs
     id="defs263">
    <clipPath
       id="cpMjE5LjczfDM4NC4wNnw0MDEuMTJ8MjcyLjg5">
      <rect
         x="219.73"
         y="272.89001"
         width="164.33"
         height="128.23"
         id="rect260"
         style="fill:none;stroke:#000000;stroke-linecap:round;stroke-linejoin:round;stroke-miterlimit:10" />
    </clipPath>
  </defs>
  <polyline
     points="227.20,295.80 228.20,296.11 229.20,297.68 230.21,301.06 231.21,304.26 232.21,305.25 233.21,305.55 234.22,306.76 235.22,307.58 236.22,307.41 237.22,307.45 238.23,307.82 239.23,307.29 240.23,304.09 241.24,297.97 242.24,295.99 243.24,296.99 244.24,296.60 245.25,295.21 246.25,295.43 247.25,296.07 248.25,295.67 249.26,295.29 250.26,295.64 251.26,295.86 252.26,295.80 253.27,296.35 254.27,298.42 255.27,302.02 256.27,304.74 257.28,305.26 258.28,305.80 259.28,307.07 260.29,307.60 261.29,307.36 262.29,307.56 263.29,307.82 264.30,306.82 265.30,302.58 266.30,296.90 267.30,296.18 268.31,297.12 269.31,296.19 270.31,295.10 271.31,295.65 272.32,296.06 273.32,295.50 274.32,295.33 275.33,295.74 276.33,295.84 277.33,295.85 278.33,296.69 279.34,299.27 280.34,302.91 281.34,305.05 282.34,305.29 283.35,306.11 284.35,307.33 285.35,307.55 286.35,307.35 287.36,307.67 288.36,307.74 289.36,306.13 290.36,300.90 291.37,296.25 292.37,296.47 293.37,297.09 294.38,295.77 295.38,295.13 296.38,295.85 297.38,295.97 298.39,295.37 299.39,295.42 300.39,295.82 301.39,295.81 302.40,295.96 303.40,297.15 304.40,300.21 305.40,303.69 306.41,305.20 307.41,305.39 308.41,306.46 309.41,307.50 310.42,307.48 311.42,307.38 312.42,307.76 313.43,307.56 314.43,305.18 315.43,299.24 316.43,295.98 317.44,296.77 318.44,296.90 319.44,295.42 320.44,295.26 321.45,296.00 322.45,295.83 323.45,295.30 324.45,295.53 325.46,295.86 326.46,295.80 327.46,296.14 328.46,297.76 329.47,301.17 330.47,304.32 331.47,305.25 332.48,305.57 333.48,306.80 334.48,307.58 335.48,307.40 336.49,307.46 337.49,307.82 338.49,307.24 339.49,303.93 340.50,297.83 341.50,296.00 342.50,297.01 343.50,296.56 344.51,295.19 345.51,295.46 346.51,296.07 347.51,295.65 348.52,295.29 349.52,295.65 350.52,295.86 351.53,295.81 352.53,296.39 353.53,298.51 354.53,302.12 355.54,304.79 356.54,305.26 357.54,305.83 358.54,307.11 359.55,307.59 360.55,307.35 361.55,307.57 362.55,307.82 363.56,306.75 364.56,302.39 365.56,296.80 366.57,296.21 367.57,297.13 368.57,296.14 369.57,295.10 370.58,295.68 371.58,296.05 372.58,295.49 373.58,295.34 374.59,295.75 375.59,295.84 376.59,295.86 "
     style="fill:none;stroke:#f74700;stroke-width:1.07000005;stroke-linecap:butt;stroke-linejoin:round;stroke-miterlimit:10"
     clip-path="url(#cpMjE5LjczfDM4NC4wNnw0MDEuMTJ8MjcyLjg5)"
     id="polyline299"
     transform="translate(5.535,35.471384)" />
  <polyline
     points="227.20,287.27 228.20,286.69 229.20,284.93 230.21,284.87 231.21,285.60 232.21,286.47 233.21,287.32 234.22,288.16 235.22,289.00 236.22,289.81 237.22,290.55 238.23,291.26 239.23,291.82 240.23,291.19 241.24,286.35 242.24,284.14 243.24,284.30 244.24,284.79 245.25,285.21 246.25,285.58 247.25,285.96 248.25,286.32 249.26,286.61 250.26,286.89 251.26,287.15 252.26,287.26 253.27,286.22 254.27,284.76 255.27,285.02 256.27,285.82 257.28,286.69 258.28,287.53 259.28,288.38 260.29,289.22 261.29,290.01 262.29,290.74 263.29,291.43 264.30,291.88 265.30,290.34 266.30,285.30 267.30,284.09 268.31,284.42 269.31,284.91 270.31,285.31 271.31,285.68 272.32,286.06 273.32,286.40 274.32,286.68 275.33,286.96 276.33,287.21 277.33,287.17 278.33,285.68 279.34,284.72 280.34,285.21 281.34,286.05 282.34,286.91 283.35,287.75 284.35,288.59 285.35,289.43 286.35,290.20 287.36,290.92 288.36,291.59 289.36,291.83 290.36,289.06 291.37,284.65 292.37,284.12 293.37,284.54 294.38,285.02 295.38,285.40 296.38,285.77 297.38,286.15 298.39,286.47 299.39,286.75 300.39,287.03 301.39,287.25 302.40,286.98 303.40,285.21 304.40,284.77 305.40,285.41 306.41,286.27 307.41,287.13 308.41,287.96 309.41,288.81 310.42,289.63 311.42,290.39 312.42,291.10 313.43,291.73 314.43,291.62 315.43,287.57 316.43,284.29 317.44,284.20 318.44,284.67 319.44,285.12 320.44,285.49 321.45,285.87 322.45,286.24 323.45,286.55 324.45,286.82 325.46,287.10 326.46,287.27 327.46,286.64 328.46,284.90 329.47,284.89 330.47,285.62 331.47,286.50 332.48,287.34 333.48,288.18 334.48,289.03 335.48,289.83 336.49,290.58 337.49,291.28 338.49,291.83 339.49,291.11 340.50,286.21 341.50,284.13 342.50,284.31 343.50,284.80 344.51,285.22 345.51,285.59 346.51,285.97 347.51,286.33 348.52,286.62 349.52,286.90 350.52,287.16 351.53,287.25 352.53,286.15 353.53,284.75 354.53,285.04 355.54,285.85 356.54,286.72 357.54,287.56 358.54,288.40 359.55,289.24 360.55,290.03 361.55,290.76 362.55,291.45 363.56,291.88 364.56,290.21 365.56,285.21 366.57,284.09 367.57,284.43 368.57,284.92 369.57,285.32 370.58,285.69 371.58,286.07 372.58,286.41 373.58,286.69 374.59,286.97 375.59,287.22 376.59,287.16 "
     style="fill:none;stroke:#016394;stroke-width:1.07000005;stroke-linecap:butt;stroke-linejoin:round;stroke-miterlimit:10"
     clip-path="url(#cpMjE5LjczfDM4NC4wNnw0MDEuMTJ8MjcyLjg5)"
     id="polyline301"
     transform="translate(5.535,35.471384)" />
  <defs
     id="defs309">
    <clipPath
       id="clipPath307">
      <rect
         x="0"
         y="0"
         width="576"
         height="432"
         id="rect305"
         style="fill:none;stroke:#000000;stroke-linecap:round;stroke-linejoin:round;stroke-miterlimit:10" />
    </clipPath>
  </defs>
  <defs
     id="defs314">
    <clipPath
       id="cpMzg5LjU0fDU1My44N3wxMzMuNzF8NS40OA==">
      <rect
         x="389.54001"
         y="5.48"
         width="164.33"
         height="128.23"
         id="rect311"
         style="fill:none;stroke:#000000;stroke-linecap:round;stroke-linejoin:round;stroke-miterlimit:10" />
    </clipPath>
  </defs>
  <defs
     id="defs358">
    <clipPath
       id="clipPath356">
      <rect
         x="0"
         y="0"
         width="576"
         height="432"
         id="rect354"
         style="fill:none;stroke:#000000;stroke-linecap:round;stroke-linejoin:round;stroke-miterlimit:10" />
    </clipPath>
  </defs>
  <defs
     id="defs363">
    <clipPath
       id="cpMzg5LjU0fDU1My44N3wyNjcuNDF8MTM5LjE5">
      <rect
         x="389.54001"
         y="139.19"
         width="164.33"
         height="128.23"
         id="rect360"
         style="fill:none;stroke:#000000;stroke-linecap:round;stroke-linejoin:round;stroke-miterlimit:10" />
    </clipPath>
  </defs>
  <defs
     id="defs409">
    <clipPath
       id="clipPath407">
      <rect
         x="0"
         y="0"
         width="576"
         height="432"
         id="rect405"
         style="fill:none;stroke:#000000;stroke-linecap:round;stroke-linejoin:round;stroke-miterlimit:10" />
    </clipPath>
  </defs>
  <defs
     id="defs414">
    <clipPath
       id="cpMzg5LjU0fDU1My44N3w0MDEuMTJ8MjcyLjg5">
      <rect
         x="389.54001"
         y="272.89001"
         width="164.33"
         height="128.23"
         id="rect411"
         style="fill:none;stroke:#000000;stroke-linecap:round;stroke-linejoin:round;stroke-miterlimit:10" />
    </clipPath>
  </defs>
  <defs
     id="defs460">
    <clipPath
       id="clipPath458">
      <rect
         x="0"
         y="0"
         width="576"
         height="432"
         id="rect456"
         style="fill:none;stroke:#000000;stroke-linecap:round;stroke-linejoin:round;stroke-miterlimit:10" />
    </clipPath>
  </defs>
  <defs
     id="defs465">
    <clipPath
       id="cpNDkuOTJ8MjE0LjI1fDUuNDh8NS40OA==">
      <rect
         x="49.919998"
         y="5.48"
         width="164.33"
         height="0"
         id="rect462"
         style="fill:none;stroke:#000000;stroke-linecap:round;stroke-linejoin:round;stroke-miterlimit:10" />
    </clipPath>
  </defs>
  <defs
     id="defs471">
    <clipPath
       id="clipPath469">
      <rect
         x="0"
         y="0"
         width="576"
         height="432"
         id="rect467"
         style="fill:none;stroke:#000000;stroke-linecap:round;stroke-linejoin:round;stroke-miterlimit:10" />
    </clipPath>
  </defs>
  <defs
     id="defs476">
    <clipPath
       id="cpMjE5LjczfDM4NC4wNnw1LjQ4fDUuNDg=">
      <rect
         x="219.73"
         y="5.48"
         width="164.33"
         height="0"
         id="rect473"
         style="fill:none;stroke:#000000;stroke-linecap:round;stroke-linejoin:round;stroke-miterlimit:10" />
    </clipPath>
  </defs>
  <defs
     id="defs482">
    <clipPath
       id="clipPath480">
      <rect
         x="0"
         y="0"
         width="576"
         height="432"
         id="rect478"
         style="fill:none;stroke:#000000;stroke-linecap:round;stroke-linejoin:round;stroke-miterlimit:10" />
    </clipPath>
  </defs>
  <defs
     id="defs487">
    <clipPath
       id="cpMzg5LjU0fDU1My44N3w1LjQ4fDUuNDg=">
      <rect
         x="389.54001"
         y="5.48"
         width="164.33"
         height="0"
         id="rect484"
         style="fill:none;stroke:#000000;stroke-linecap:round;stroke-linejoin:round;stroke-miterlimit:10" />
    </clipPath>
  </defs>
  <defs
     id="defs493">
    <clipPath
       id="clipPath491">
      <rect
         x="0"
         y="0"
         width="576"
         height="432"
         id="rect489"
         style="fill:none;stroke:#000000;stroke-linecap:round;stroke-linejoin:round;stroke-miterlimit:10" />
    </clipPath>
  </defs>
  <defs
     id="defs498">
    <clipPath
       id="cpNTUzLjg3fDU3MC41MnwxMzMuNzF8NS40OA==">
      <rect
         x="553.87"
         y="5.48"
         width="16.65"
         height="128.23"
         id="rect495"
         style="fill:none;stroke:#000000;stroke-linecap:round;stroke-linejoin:round;stroke-miterlimit:10" />
    </clipPath>
  </defs>
  <defs
     id="defs510">
    <clipPath
       id="clipPath508">
      <rect
         x="0"
         y="0"
         width="576"
         height="432"
         id="rect506"
         style="fill:none;stroke:#000000;stroke-linecap:round;stroke-linejoin:round;stroke-miterlimit:10" />
    </clipPath>
  </defs>
  <defs
     id="defs515">
    <clipPath
       id="cpNTUzLjg3fDU3MC41MnwyNjcuNDF8MTM5LjE5">
      <rect
         x="553.87"
         y="139.19"
         width="16.65"
         height="128.23"
         id="rect512"
         style="fill:none;stroke:#000000;stroke-linecap:round;stroke-linejoin:round;stroke-miterlimit:10" />
    </clipPath>
  </defs>
  <defs
     id="defs527">
    <clipPath
       id="clipPath525">
      <rect
         x="0"
         y="0"
         width="576"
         height="432"
         id="rect523"
         style="fill:none;stroke:#000000;stroke-linecap:round;stroke-linejoin:round;stroke-miterlimit:10" />
    </clipPath>
  </defs>
  <defs
     id="defs532">
    <clipPath
       id="cpNTUzLjg3fDU3MC41Mnw0MDEuMTJ8MjcyLjg5">
      <rect
         x="553.87"
         y="272.89001"
         width="16.65"
         height="128.23"
         id="rect529"
         style="fill:none;stroke:#000000;stroke-linecap:round;stroke-linejoin:round;stroke-miterlimit:10" />
    </clipPath>
  </defs>
  <defs
     id="defs544">
    <clipPath
       id="clipPath542">
      <rect
         x="0"
         y="0"
         width="576"
         height="432"
         id="rect540"
         style="fill:none;stroke:#000000;stroke-linecap:round;stroke-linejoin:round;stroke-miterlimit:10" />
    </clipPath>
  </defs>
  <g
     id="g1665"
     transform="translate(1.535,37.471384)">
    <g
       transform="matrix(0.25328768,0,0,0.25328768,242.77781,15.111028)"
       id="g1543-3-0">
      <path
         inkscape:connector-curvature="0"
         d="m 71.573629,-163.28192 -10.89073,21.7893 a 12.631904,12.631904 0 0 0 -1.32699,5.61418 v 49.361592 h -25.12639 v -78.519992 a 21.971858,21.971858 0 0 1 43.55308,-4.13997 l -0.0726,0.0334 a 12.586755,12.586755 0 0 0 -6.13633,5.86152 z"
         class="fa-secondary"
         id="path6-03-6"
         style="fill:#f74700;fill-opacity:0.4;stroke:#000000;stroke-width:0.19629999;stroke-linecap:round;stroke-linejoin:round;stroke-miterlimit:10" />
      <path
         inkscape:connector-curvature="0"
         d="m 146.63482,-138.68946 -10.89269,-21.7893 a 6.2815997,6.2815997 0 0 0 -3.06621,-2.93076 l -23.65611,-10.50794 a 6.2815997,6.2815997 0 0 0 -5.1038,0 l -23.656111,10.51383 a 6.2815997,6.2815997 0 0 0 -3.0662,2.93076 l -10.89269,21.7893 a 6.2973037,6.2973037 0 0 0 -0.6635,2.80513 v 49.361592 h 25.1264 v -18.844802 h 31.408001 v 18.844802 h 25.1264 v -49.361592 a 6.2973037,6.2973037 0 0 0 -0.66349,-2.81102 z m -30.74451,14.48301 H 97.045509 v -18.8448 h 18.844801 z"
         class="fa-primary"
         id="path8-3-4"
         style="fill:#f74700;fill-opacity:1;stroke:#000000;stroke-width:0.19629999;stroke-linecap:round;stroke-linejoin:round;stroke-miterlimit:10" />
    </g>
    <g
       transform="matrix(0.58314473,0,0,0.58314473,248.97434,73.697264)"
       id="g1570-7-6">
      <path
         inkscape:connector-curvature="0"
         d="m 157.93812,-171.38719 -4.73036,9.46414 a 5.4866407,5.4866407 0 0 0 -0.57638,2.43851 v 21.4401 h -10.91359 v -34.10499 a 9.5434299,9.5434299 0 0 1 18.91719,-1.79819 l -0.0315,0.0145 a 5.4670304,5.4670304 0 0 0 -2.6653,2.54594 z"
         class="fa-secondary"
         id="path6-0-9-2"
         style="fill:#016394;fill-opacity:0.4;stroke:#000000;stroke-width:0.08526248;stroke-linecap:round;stroke-linejoin:round;stroke-miterlimit:10" />
      <path
         inkscape:connector-curvature="0"
         d="m 190.54079,-160.7055 -4.73121,-9.46414 a 2.7283995,2.7283995 0 0 0 -1.33181,-1.27297 l -10.27498,-4.5641 a 2.7283995,2.7283995 0 0 0 -2.21682,0 l -10.27498,4.56666 a 2.7283995,2.7283995 0 0 0 -1.3318,1.27297 l -4.73122,9.46414 a 2.7352205,2.7352205 0 0 0 -0.28819,1.2184 v 21.4401 h 10.9136 v -8.1852 h 13.642 v 8.1852 h 10.9136 v -21.4401 a 2.7352205,2.7352205 0 0 0 -0.28819,-1.22096 z m -13.35381,6.29066 h -8.1852 v -8.1852 h 8.1852 z"
         class="fa-primary"
         id="path8-9-4-5"
         style="fill:#016394;fill-opacity:1;stroke:#000000;stroke-width:0.08526248;stroke-linecap:round;stroke-linejoin:round;stroke-miterlimit:10" />
    </g>
    <text
       transform="scale(-1)"
       id="text1574-9-8"
       y="32.477448"
       x="-325.20773"
       style="font-style:normal;font-variant:normal;font-weight:normal;font-stretch:normal;font-size:43.82711411px;line-height:1.25;font-family:'Font Awesome 5 Pro';-inkscape-font-specification:'Font Awesome 5 Pro';letter-spacing:0px;word-spacing:0px;fill:#000000;fill-opacity:1;stroke:none;stroke-width:1.09567785"
       xml:space="preserve"><tspan
         id="tspan1669-6"
         style="stroke-width:1.09567785"
         y="32.477448"
         x="-325.20773"
         sodipodi:role="line">long-arrow-alt-left</tspan></text>
  </g>
</svg>
