<?xml version="1.0" encoding="UTF-8" standalone="no"?>
<svg
   xmlns:dc="http://purl.org/dc/elements/1.1/"
   xmlns:cc="http://creativecommons.org/ns#"
   xmlns:rdf="http://www.w3.org/1999/02/22-rdf-syntax-ns#"
   xmlns:svg="http://www.w3.org/2000/svg"
   xmlns="http://www.w3.org/2000/svg"
   xmlns:sodipodi="http://sodipodi.sourceforge.net/DTD/sodipodi-0.dtd"
   xmlns:inkscape="http://www.inkscape.org/namespaces/inkscape"
   viewBox="0 0 504.00 216.00"
   id="svg2"
   version="1.1"
   inkscape:version="0.91 r13725"
   sodipodi:docname="simulation_framework_3.svg">
  <metadata
     id="metadata218">
    <rdf:RDF>
      <cc:Work
         rdf:about="">
        <dc:format>image/svg+xml</dc:format>
        <dc:type
           rdf:resource="http://purl.org/dc/dcmitype/StillImage" />
        <dc:title></dc:title>
      </cc:Work>
    </rdf:RDF>
  </metadata>
  <sodipodi:namedview
     pagecolor="#ffffff"
     bordercolor="#666666"
     borderopacity="1"
     objecttolerance="10"
     gridtolerance="10"
     guidetolerance="10"
     inkscape:pageopacity="0"
     inkscape:pageshadow="2"
     inkscape:window-width="1920"
     inkscape:window-height="1028"
     id="namedview216"
     showgrid="false"
     inkscape:zoom="2"
     inkscape:cx="308.53617"
     inkscape:cy="128.21046"
     inkscape:window-x="0"
     inkscape:window-y="0"
     inkscape:window-maximized="1"
     inkscape:current-layer="svg2" />
  <defs
     id="defs4">
    <style
       type="text/css"
       id="style6"><![CDATA[
    line, polyline, path, rect, circle {
      fill: none;
      stroke: #000000;
      stroke-linecap: round;
      stroke-linejoin: round;
      stroke-miterlimit: 10.00;
    }
  ]]></style>
  </defs>
  <rect
     width="100%"
     height="100%"
     style="stroke: none; fill: #FFFFFF;"
     id="rect8" />
  <rect
     x="-0.00"
     y="0.00"
     width="504.00"
     height="216.00"
     style="stroke-width: 1.07; stroke: #FFFFFF; fill: #FFFFFF;"
     id="rect10" />
  <defs
     id="defs12">
    <clipPath
       id="cpMzguODA3OXw0OTguNTIxfDIwNy43ODF8NS40Nzk0NQ==">
      <rect
         x="38.81"
         y="5.48"
         width="459.71"
         height="202.30"
         id="rect15" />
    </clipPath>
  </defs>
  <rect
     x="38.81"
     y="5.48"
     width="459.71"
     height="202.30"
     style="stroke-width: 1.07; stroke: none; fill: #FFFFFF;"
     clip-path="url(#cpMzguODA3OXw0OTguNTIxfDIwNy43ODF8NS40Nzk0NQ==)"
     id="rect17" />
  <polyline
     points="38.81,162.14 498.52,162.14 "
     style="stroke-width: 0.53; stroke: #EBEBEB; stroke-linecap: butt;"
     clip-path="url(#cpMzguODA3OXw0OTguNTIxfDIwNy43ODF8NS40Nzk0NQ==)"
     id="polyline19" />
  <polyline
     points="38.81,89.25 498.52,89.25 "
     style="stroke-width: 0.53; stroke: #EBEBEB; stroke-linecap: butt;"
     clip-path="url(#cpMzguODA3OXw0OTguNTIxfDIwNy43ODF8NS40Nzk0NQ==)"
     id="polyline21" />
  <polyline
     points="38.81,16.36 498.52,16.36 "
     style="stroke-width: 0.53; stroke: #EBEBEB; stroke-linecap: butt;"
     clip-path="url(#cpMzguODA3OXw0OTguNTIxfDIwNy43ODF8NS40Nzk0NQ==)"
     id="polyline23" />
  <polyline
     points="96.33,207.78 96.33,5.48 "
     style="stroke-width: 0.53; stroke: #EBEBEB; stroke-linecap: butt;"
     clip-path="url(#cpMzguODA3OXw0OTguNTIxfDIwNy43ODF8NS40Nzk0NQ==)"
     id="polyline25" />
  <polyline
     points="211.37,207.78 211.37,5.48 "
     style="stroke-width: 0.53; stroke: #EBEBEB; stroke-linecap: butt;"
     clip-path="url(#cpMzguODA3OXw0OTguNTIxfDIwNy43ODF8NS40Nzk0NQ==)"
     id="polyline27" />
  <polyline
     points="326.42,207.78 326.42,5.48 "
     style="stroke-width: 0.53; stroke: #EBEBEB; stroke-linecap: butt;"
     clip-path="url(#cpMzguODA3OXw0OTguNTIxfDIwNy43ODF8NS40Nzk0NQ==)"
     id="polyline29" />
  <polyline
     points="441.46,207.78 441.46,5.48 "
     style="stroke-width: 0.53; stroke: #EBEBEB; stroke-linecap: butt;"
     clip-path="url(#cpMzguODA3OXw0OTguNTIxfDIwNy43ODF8NS40Nzk0NQ==)"
     id="polyline31" />
  <polyline
     points="38.81,198.59 498.52,198.59 "
     style="stroke-width: 1.07; stroke: #EBEBEB; stroke-linecap: butt;"
     clip-path="url(#cpMzguODA3OXw0OTguNTIxfDIwNy43ODF8NS40Nzk0NQ==)"
     id="polyline33" />
  <polyline
     points="38.81,125.70 498.52,125.70 "
     style="stroke-width: 1.07; stroke: #EBEBEB; stroke-linecap: butt;"
     clip-path="url(#cpMzguODA3OXw0OTguNTIxfDIwNy43ODF8NS40Nzk0NQ==)"
     id="polyline35" />
  <polyline
     points="38.81,52.81 498.52,52.81 "
     style="stroke-width: 1.07; stroke: #EBEBEB; stroke-linecap: butt;"
     clip-path="url(#cpMzguODA3OXw0OTguNTIxfDIwNy43ODF8NS40Nzk0NQ==)"
     id="polyline37" />
  <polyline
     points="38.81,207.78 38.81,5.48 "
     style="stroke-width: 1.07; stroke: #EBEBEB; stroke-linecap: butt;"
     clip-path="url(#cpMzguODA3OXw0OTguNTIxfDIwNy43ODF8NS40Nzk0NQ==)"
     id="polyline39" />
  <polyline
     points="153.85,207.78 153.85,5.48 "
     style="stroke-width: 1.07; stroke: #EBEBEB; stroke-linecap: butt;"
     clip-path="url(#cpMzguODA3OXw0OTguNTIxfDIwNy43ODF8NS40Nzk0NQ==)"
     id="polyline41" />
  <polyline
     points="268.89,207.78 268.89,5.48 "
     style="stroke-width: 1.07; stroke: #EBEBEB; stroke-linecap: butt;"
     clip-path="url(#cpMzguODA3OXw0OTguNTIxfDIwNy43ODF8NS40Nzk0NQ==)"
     id="polyline43" />
  <polyline
     points="383.94,207.78 383.94,5.48 "
     style="stroke-width: 1.07; stroke: #EBEBEB; stroke-linecap: butt;"
     clip-path="url(#cpMzguODA3OXw0OTguNTIxfDIwNy43ODF8NS40Nzk0NQ==)"
     id="polyline45" />
  <polyline
     points="38.81,176.59 39.27,176.44 39.73,176.30 40.19,176.15 40.65,176.01 41.11,175.86 41.57,175.71 42.03,175.56 42.49,175.42 42.95,175.27 43.41,175.12 43.87,174.96 44.33,174.81 44.79,174.66 45.25,174.51 45.71,174.35 46.17,174.20 46.63,174.04 47.09,173.89 47.55,173.73 48.01,173.57 48.47,173.41 48.93,173.25 49.39,173.10 49.85,172.93 50.31,172.77 50.77,172.61 51.23,172.45 51.69,172.28 52.15,172.12 52.61,171.95 53.07,171.79 53.53,171.62 53.99,171.45 54.45,171.29 54.91,171.12 55.37,170.95 55.83,170.78 56.29,170.61 56.75,170.43 57.21,170.26 57.67,170.09 58.14,169.91 58.60,169.74 59.06,169.56 59.52,169.38 59.98,169.21 60.44,169.03 60.90,168.85 61.36,168.67 61.82,168.49 62.28,168.31 62.74,168.13 63.20,167.94 63.66,167.76 64.12,167.57 64.58,167.39 65.04,167.20 65.50,167.02 65.96,166.83 66.42,166.64 66.88,166.45 67.34,166.26 67.80,166.07 68.26,165.88 68.72,165.68 69.18,165.49 69.64,165.30 70.10,165.10 70.56,164.91 71.02,164.71 71.48,164.51 71.94,164.31 72.40,164.11 72.86,163.91 73.32,163.71 73.78,163.51 74.24,163.31 74.70,163.11 75.16,162.90 75.62,162.70 76.08,162.49 76.54,162.29 77.00,162.08 77.46,161.87 77.92,161.66 78.38,161.45 78.84,161.24 79.30,161.03 79.76,160.82 80.22,160.61 80.68,160.39 81.14,160.18 81.60,159.96 82.06,159.75 82.52,159.53 82.98,159.31 83.44,159.09 83.90,158.87 84.37,158.65 84.83,158.43 85.29,158.21 85.75,157.99 86.21,157.76 86.67,157.54 87.13,157.31 87.59,157.09 88.05,156.86 88.51,156.63 88.97,156.40 89.43,156.17 89.89,155.94 90.35,155.71 90.81,155.48 91.27,155.25 91.73,155.02 92.19,154.78 92.65,154.55 93.11,154.31 93.57,154.07 94.03,153.84 94.49,153.60 94.95,153.36 95.41,153.12 95.87,152.88 96.33,152.64 96.79,152.39 97.25,152.15 97.71,151.91 98.17,151.66 98.63,151.42 99.09,151.17 99.55,150.92 100.01,150.67 100.47,150.43 100.93,150.18 101.39,149.93 101.85,149.67 102.31,149.42 102.77,149.17 103.23,148.92 103.69,148.66 104.15,148.41 104.61,148.15 105.07,147.89 105.53,147.63 105.99,147.38 106.45,147.12 106.91,146.86 107.37,146.60 107.83,146.33 108.29,146.07 108.75,145.81 109.21,145.54 109.67,145.28 110.13,145.01 110.59,144.75 111.06,144.48 111.52,144.21 111.98,143.94 112.44,143.67 112.90,143.40 113.36,143.13 113.82,142.86 114.28,142.59 114.74,142.31 115.20,142.04 115.66,141.76 116.12,141.49 116.58,141.21 117.04,140.93 117.50,140.66 117.96,140.38 118.42,140.10 118.88,139.82 119.34,139.54 119.80,139.25 120.26,138.97 120.72,138.69 121.18,138.40 121.64,138.12 122.10,137.83 122.56,137.55 123.02,137.26 123.48,136.97 123.94,136.68 124.40,136.40 124.86,136.11 125.32,135.82 125.78,135.52 126.24,135.23 126.70,134.94 127.16,134.65 127.62,134.35 128.08,134.06 128.54,133.76 129.00,133.46 129.46,133.17 129.92,132.87 130.38,132.57 130.84,132.27 131.30,131.97 131.76,131.67 132.22,131.37 132.68,131.07 133.14,130.77 133.60,130.46 134.06,130.16 134.52,129.85 134.98,129.55 135.44,129.24 135.90,128.94 136.36,128.63 136.82,128.32 137.28,128.01 137.75,127.70 138.21,127.39 138.67,127.08 139.13,126.77 139.59,126.46 140.05,126.15 140.51,125.83 140.97,125.52 141.43,125.21 141.89,124.89 142.35,124.58 142.81,124.26 143.27,123.94 143.73,123.63 144.19,123.31 144.65,122.99 145.11,122.67 145.57,122.35 146.03,122.03 146.49,121.71 146.95,121.39 147.41,121.07 147.87,120.74 148.33,120.42 148.79,120.10 149.25,119.77 149.71,119.45 150.17,119.12 150.63,118.80 151.09,118.47 151.55,118.14 152.01,117.82 152.47,117.49 152.93,117.16 153.39,116.83 153.85,116.50 154.31,116.17 154.77,115.84 155.23,115.51 155.69,115.18 156.15,114.85 156.61,114.51 157.07,114.18 157.53,113.85 157.99,113.51 158.45,113.18 158.91,112.85 159.37,112.51 159.83,112.17 160.29,111.84 160.75,111.50 161.21,111.17 161.67,110.83 162.13,110.49 162.59,110.15 163.05,109.81 163.51,109.47 163.97,109.13 164.44,108.79 164.90,108.45 165.36,108.11 165.82,107.77 166.28,107.43 166.74,107.09 167.20,106.75 167.66,106.41 168.12,106.06 168.58,105.72 169.04,105.38 169.50,105.03 169.96,104.69 170.42,104.34 170.88,104.00 171.34,103.65 171.80,103.31 172.26,102.96 172.72,102.62 173.18,102.27 173.64,101.92 174.10,101.58 174.56,101.23 175.02,100.88 175.48,100.53 175.94,100.19 176.40,99.84 176.86,99.49 177.32,99.14 177.78,98.79 178.24,98.44 178.70,98.09 179.16,97.75 179.62,97.40 180.08,97.05 180.54,96.70 181.00,96.35 181.46,95.99 181.92,95.64 182.38,95.29 182.84,94.94 183.30,94.59 183.76,94.24 184.22,93.89 184.68,93.54 185.14,93.19 185.60,92.83 186.06,92.48 186.52,92.13 186.98,91.78 187.44,91.43 187.90,91.07 188.36,90.72 188.82,90.37 189.28,90.02 189.74,89.66 190.20,89.31 190.66,88.96 191.13,88.61 191.59,88.25 192.05,87.90 192.51,87.55 192.97,87.20 193.43,86.84 193.89,86.49 194.35,86.14 194.81,85.78 195.27,85.43 195.73,85.08 196.19,84.73 196.65,84.37 197.11,84.02 197.57,83.67 198.03,83.32 198.49,82.96 198.95,82.61 199.41,82.26 199.87,81.91 200.33,81.56 200.79,81.20 201.25,80.85 201.71,80.50 202.17,80.15 202.63,79.80 203.09,79.45 203.55,79.10 204.01,78.75 204.47,78.39 204.93,78.04 205.39,77.69 205.85,77.34 206.31,76.99 206.77,76.64 207.23,76.29 207.69,75.95 208.15,75.60 208.61,75.25 209.07,74.90 209.53,74.55 209.99,74.20 210.45,73.86 210.91,73.51 211.37,73.16 211.83,72.81 212.29,72.47 212.75,72.12 213.21,71.77 213.67,71.43 214.13,71.08 214.59,70.74 215.05,70.39 215.51,70.05 215.97,69.71 216.43,69.36 216.89,69.02 217.35,68.68 217.82,68.33 218.28,67.99 218.74,67.65 219.20,67.31 219.66,66.97 220.12,66.63 220.58,66.29 221.04,65.95 221.50,65.61 221.96,65.27 222.42,64.93 222.88,64.60 223.34,64.26 223.80,63.92 224.26,63.59 224.72,63.25 225.18,62.92 225.64,62.58 226.10,62.25 226.56,61.92 227.02,61.58 227.48,61.25 227.94,60.92 228.40,60.59 228.86,60.26 229.32,59.93 229.78,59.60 230.24,59.27 230.70,58.94 231.16,58.61 231.62,58.29 232.08,57.96 232.54,57.64 233.00,57.31 233.46,56.99 233.92,56.66 234.38,56.34 234.84,56.02 235.30,55.70 235.76,55.38 236.22,55.06 236.68,54.74 237.14,54.42 237.60,54.10 238.06,53.78 238.52,53.47 238.98,53.15 239.44,52.84 239.90,52.52 240.36,52.21 240.82,51.90 241.28,51.59 241.74,51.28 242.20,50.97 242.66,50.66 243.12,50.35 243.58,50.04 244.04,49.74 244.51,49.43 244.97,49.12 245.43,48.82 245.89,48.52 246.35,48.22 246.81,47.91 247.27,47.61 247.73,47.31 248.19,47.02 248.65,46.72 249.11,46.42 249.57,46.13 250.03,45.83 250.49,45.54 250.95,45.24 251.41,44.95 251.87,44.66 252.33,44.37 252.79,44.08 253.25,43.79 253.71,43.51 254.17,43.22 254.63,42.94 255.09,42.65 255.55,42.37 256.01,42.09 256.47,41.81 256.93,41.53 257.39,41.25 257.85,40.97 258.31,40.70 258.77,40.42 259.23,40.15 259.69,39.87 260.15,39.60 260.61,39.33 261.07,39.06 261.53,38.79 261.99,38.53 262.45,38.26 262.91,37.99 263.37,37.73 263.83,37.47 264.29,37.21 264.75,36.95 265.21,36.69 265.67,36.43 266.13,36.17 266.59,35.92 267.05,35.66 267.51,35.41 267.97,35.16 268.43,34.91 268.89,34.66 269.35,34.41 269.81,34.16 270.27,33.92 270.73,33.67 271.20,33.43 271.66,33.19 272.12,32.95 272.58,32.71 273.04,32.47 273.50,32.24 273.96,32.00 274.42,31.77 274.88,31.53 275.34,31.30 275.80,31.07 276.26,30.85 276.72,30.62 277.18,30.39 277.64,30.17 278.10,29.95 278.56,29.73 279.02,29.51 279.48,29.29 279.94,29.07 280.40,28.85 280.86,28.64 281.32,28.43 281.78,28.22 282.24,28.01 282.70,27.80 283.16,27.59 283.62,27.38 284.08,27.18 284.54,26.98 285.00,26.78 285.46,26.58 285.92,26.38 286.38,26.18 286.84,25.99 287.30,25.79 287.76,25.60 288.22,25.41 288.68,25.22 289.14,25.03 289.60,24.85 290.06,24.66 290.52,24.48 290.98,24.30 291.44,24.12 291.90,23.94 292.36,23.76 292.82,23.59 293.28,23.41 293.74,23.24 294.20,23.07 294.66,22.90 295.12,22.74 295.58,22.57 296.04,22.41 296.50,22.24 296.96,22.08 297.43,21.92 297.89,21.77 298.35,21.61 298.81,21.45 299.27,21.30 299.73,21.15 300.19,21.00 300.65,20.85 301.11,20.71 301.57,20.56 302.03,20.42 302.49,20.28 302.95,20.14 303.41,20.00 303.87,19.87 304.33,19.73 304.79,19.60 305.25,19.47 305.71,19.34 306.17,19.21 306.63,19.09 307.09,18.96 307.55,18.84 308.01,18.72 308.47,18.60 308.93,18.48 309.39,18.37 309.85,18.25 310.31,18.14 310.77,18.03 311.23,17.92 311.69,17.81 312.15,17.71 312.61,17.60 313.07,17.50 313.53,17.40 313.99,17.31 314.45,17.21 314.91,17.11 315.37,17.02 315.83,16.93 316.29,16.84 316.75,16.75 317.21,16.67 317.67,16.58 318.13,16.50 318.59,16.42 319.05,16.34 319.51,16.27 319.97,16.19 320.43,16.12 320.89,16.05 321.35,15.98 321.81,15.91 322.27,15.84 322.73,15.78 323.19,15.71 323.65,15.65 324.12,15.60 324.58,15.54 325.04,15.48 325.50,15.43 325.96,15.38 326.42,15.33 326.88,15.28 327.34,15.23 327.80,15.19 328.26,15.15 328.72,15.11 329.18,15.07 329.64,15.03 330.10,15.00 330.56,14.96 331.02,14.93 331.48,14.90 331.94,14.87 332.40,14.85 332.86,14.82 333.32,14.80 333.78,14.78 334.24,14.76 334.70,14.74 335.16,14.73 335.62,14.72 336.08,14.70 336.54,14.70 337.00,14.69 337.46,14.68 337.92,14.68 338.38,14.68 338.84,14.68 339.30,14.68 339.76,14.68 340.22,14.69 340.68,14.69 341.14,14.70 341.60,14.71 342.06,14.72 342.52,14.74 342.98,14.75 343.44,14.77 343.90,14.79 344.36,14.81 344.82,14.84 345.28,14.86 345.74,14.89 346.20,14.92 346.66,14.95 347.12,14.98 347.58,15.02 348.04,15.05 348.50,15.09 348.96,15.13 349.42,15.17 349.88,15.22 350.34,15.26 350.81,15.31 351.27,15.36 351.73,15.41 352.19,15.46 352.65,15.52 353.11,15.58 353.57,15.63 354.03,15.69 354.49,15.76 354.95,15.82 355.41,15.88 355.87,15.95 356.33,16.02 356.79,16.09 357.25,16.16 357.71,16.24 358.17,16.31 358.63,16.39 359.09,16.47 359.55,16.55 360.01,16.64 360.47,16.72 360.93,16.81 361.39,16.90 361.85,16.99 362.31,17.08 362.77,17.18 363.23,17.27 363.69,17.37 364.15,17.47 364.61,17.57 365.07,17.67 365.53,17.78 365.99,17.88 366.45,17.99 366.91,18.10 367.37,18.21 367.83,18.33 368.29,18.44 368.75,18.56 369.21,18.68 369.67,18.80 370.13,18.92 370.59,19.04 371.05,19.17 371.51,19.29 371.97,19.42 372.43,19.55 372.89,19.69 373.35,19.82 373.81,19.95 374.27,20.09 374.73,20.23 375.19,20.37 375.65,20.51 376.11,20.66 376.57,20.80 377.03,20.95 377.50,21.10 377.96,21.25 378.42,21.40 378.88,21.56 379.34,21.71 379.80,21.87 380.26,22.03 380.72,22.19 381.18,22.35 381.64,22.51 382.10,22.68 382.56,22.84 383.02,23.01 383.48,23.18 383.94,23.35 384.40,23.53 384.86,23.70 385.32,23.88 385.78,24.06 386.24,24.23 386.70,24.42 387.16,24.60 387.62,24.78 388.08,24.97 388.54,25.16 389.00,25.34 389.46,25.53 389.92,25.73 390.38,25.92 390.84,26.11 391.30,26.31 391.76,26.51 392.22,26.71 392.68,26.91 393.14,27.11 393.60,27.31 394.06,27.52 394.52,27.72 394.98,27.93 395.44,28.14 395.90,28.35 396.36,28.57 396.82,28.78 397.28,28.99 397.74,29.21 398.20,29.43 398.66,29.65 399.12,29.87 399.58,30.09 400.04,30.32 400.50,30.54 400.96,30.77 401.42,30.99 401.88,31.22 402.34,31.45 402.80,31.69 403.26,31.92 403.72,32.15 404.19,32.39 404.65,32.63 405.11,32.87 405.57,33.11 406.03,33.35 406.49,33.59 406.95,33.83 407.41,34.08 407.87,34.32 408.33,34.57 408.79,34.82 409.25,35.07 409.71,35.32 410.17,35.57 410.63,35.83 411.09,36.08 411.55,36.34 412.01,36.60 412.47,36.86 412.93,37.12 413.39,37.38 413.85,37.64 414.31,37.90 414.77,38.17 415.23,38.43 415.69,38.70 416.15,38.97 416.61,39.24 417.07,39.51 417.53,39.78 417.99,40.05 418.45,40.33 418.91,40.60 419.37,40.88 419.83,41.15 420.29,41.43 420.75,41.71 421.21,41.99 421.67,42.27 422.13,42.55 422.59,42.84 423.05,43.12 423.51,43.41 423.97,43.69 424.43,43.98 424.89,44.27 425.35,44.56 425.81,44.85 426.27,45.14 426.73,45.44 427.19,45.73 427.65,46.02 428.11,46.32 428.57,46.61 429.03,46.91 429.49,47.21 429.95,47.51 430.41,47.81 430.88,48.11 431.34,48.41 431.80,48.72 432.26,49.02 432.72,49.32 433.18,49.63 433.64,49.94 434.10,50.24 434.56,50.55 435.02,50.86 435.48,51.17 435.94,51.48 436.40,51.79 436.86,52.10 437.32,52.42 437.78,52.73 438.24,53.04 438.70,53.36 439.16,53.67 439.62,53.99 440.08,54.31 440.54,54.63 441.00,54.95 441.46,55.27 441.92,55.59 442.38,55.91 442.84,56.23 443.30,56.55 443.76,56.88 444.22,57.20 444.68,57.52 445.14,57.85 445.60,58.17 446.06,58.50 446.52,58.83 446.98,59.16 447.44,59.48 447.90,59.81 448.36,60.14 448.82,60.47 449.28,60.80 449.74,61.14 450.20,61.47 450.66,61.80 451.12,62.13 451.58,62.47 452.04,62.80 452.50,63.14 452.96,63.47 453.42,63.81 453.88,64.14 454.34,64.48 454.80,64.82 455.26,65.16 455.72,65.49 456.18,65.83 456.64,66.17 457.10,66.51 457.57,66.85 458.03,67.19 458.49,67.53 458.95,67.87 459.41,68.22 459.87,68.56 460.33,68.90 460.79,69.24 461.25,69.59 461.71,69.93 462.17,70.27 462.63,70.62 463.09,70.96 463.55,71.31 464.01,71.65 464.47,72.00 464.93,72.35 465.39,72.69 465.85,73.04 466.31,73.39 466.77,73.73 467.23,74.08 467.69,74.43 468.15,74.78 468.61,75.13 469.07,75.48 469.53,75.82 469.99,76.17 470.45,76.52 470.91,76.87 471.37,77.22 471.83,77.57 472.29,77.92 472.75,78.27 473.21,78.62 473.67,78.97 474.13,79.32 474.59,79.68 475.05,80.03 475.51,80.38 475.97,80.73 476.43,81.08 476.89,81.43 477.35,81.79 477.81,82.14 478.27,82.49 478.73,82.84 479.19,83.19 479.65,83.55 480.11,83.90 480.57,84.25 481.03,84.60 481.49,84.96 481.95,85.31 482.41,85.66 482.87,86.01 483.33,86.37 483.80,86.72 484.26,87.07 484.72,87.43 485.18,87.78 485.64,88.13 486.10,88.48 486.56,88.84 487.02,89.19 487.48,89.54 487.94,89.89 488.40,90.25 488.86,90.60 489.32,90.95 489.78,91.30 490.24,91.66 490.70,92.01 491.16,92.36 491.62,92.71 492.08,93.06 492.54,93.42 493.00,93.77 493.46,94.12 493.92,94.47 494.38,94.82 494.84,95.17 495.30,95.52 495.76,95.87 496.22,96.22 496.68,96.57 497.14,96.92 497.60,97.27 498.06,97.62 498.52,97.97 "
     style="stroke-width: 1.07; stroke: #000000; stroke-opacity: 0.10; stroke-linecap: butt;"
     clip-path="url(#cpMzguODA3OXw0OTguNTIxfDIwNy43ODF8NS40Nzk0NQ==)"
     id="polyline105" />
  <polyline
     points="38.81,176.59 39.27,176.44 39.73,176.30 40.19,176.15 40.65,176.01 41.11,175.86 41.57,175.71 42.03,175.56 42.49,175.42 42.95,175.27 43.41,175.12 43.87,174.96 44.33,174.81 44.79,174.66 45.25,174.51 45.71,174.35 46.17,174.20 46.63,174.04 47.09,173.89 47.55,173.73 48.01,173.57 48.47,173.41 48.93,173.25 49.39,173.10 49.85,172.93 50.31,172.77 50.77,172.61 51.23,172.45 51.69,172.28 52.15,172.12 52.61,171.95 53.07,171.79 53.53,171.62 53.99,171.45 54.45,171.29 54.91,171.12 55.37,170.95 55.83,170.78 56.29,170.61 56.75,170.43 57.21,170.26 57.67,170.09 58.14,169.91 58.60,169.74 59.06,169.56 59.52,169.38 59.98,169.21 60.44,169.03 60.90,168.85 61.36,168.67 61.82,168.49 62.28,168.31 62.74,168.13 63.20,167.94 63.66,167.76 64.12,167.57 64.58,167.39 65.04,167.20 65.50,167.02 65.96,166.83 66.42,166.64 66.88,166.45 67.34,166.26 67.80,166.07 68.26,165.88 68.72,165.68 69.18,165.49 69.64,165.30 70.10,165.10 70.56,164.91 71.02,164.71 71.48,164.51 71.94,164.31 72.40,164.11 72.86,163.91 73.32,163.71 73.78,163.51 74.24,163.31 74.70,163.11 75.16,162.90 75.62,162.70 76.08,162.49 76.54,162.29 77.00,162.08 77.46,161.87 77.92,161.66 78.38,161.45 78.84,161.24 79.30,161.03 79.76,160.82 80.22,160.61 80.68,160.39 81.14,160.18 81.60,159.96 82.06,159.75 82.52,159.53 82.98,159.31 83.44,159.09 83.90,158.87 84.37,158.65 84.83,158.43 85.29,158.21 85.75,157.99 86.21,157.76 86.67,157.54 87.13,157.31 87.59,157.09 88.05,156.86 88.51,156.63 88.97,156.40 89.43,156.17 89.89,155.94 90.35,155.71 90.81,155.48 91.27,155.25 91.73,155.02 92.19,154.78 92.65,154.55 93.11,154.31 93.57,154.07 94.03,153.84 94.49,153.60 94.95,153.36 95.41,153.12 95.87,152.88 96.33,152.64 96.79,152.39 97.25,152.15 97.71,151.91 98.17,151.66 98.63,151.42 99.09,151.17 99.55,150.92 100.01,150.67 100.47,150.43 100.93,150.18 101.39,149.93 101.85,149.67 102.31,149.42 102.77,149.17 103.23,148.92 103.69,148.66 104.15,148.41 104.61,148.15 105.07,147.89 105.53,147.63 105.99,147.38 106.45,147.12 106.91,146.86 107.37,146.60 107.83,146.33 108.29,146.07 108.75,145.81 109.21,145.54 109.67,145.28 110.13,145.01 110.59,144.75 111.06,144.48 111.52,144.21 111.98,143.94 112.44,143.67 112.90,143.40 113.36,143.13 113.82,142.86 114.28,142.59 114.74,142.31 115.20,142.04 115.66,141.76 116.12,141.49 116.58,141.21 117.04,140.93 117.50,140.66 117.96,140.38 118.42,140.10 118.88,139.82 119.34,139.54 119.80,139.25 120.26,138.97 120.72,138.69 121.18,138.40 121.64,138.12 122.10,137.83 122.56,137.55 123.02,137.26 123.48,136.97 123.94,136.68 124.40,136.40 124.86,136.11 125.32,135.82 125.78,135.52 126.24,135.23 126.70,134.94 127.16,134.65 127.62,134.35 128.08,134.06 128.54,133.76 129.00,133.46 129.46,133.17 129.92,132.87 130.38,132.57 130.84,132.27 131.30,131.97 131.76,131.67 132.22,131.37 132.68,131.07 133.14,130.77 133.60,130.46 134.06,130.16 134.52,129.85 134.98,129.55 135.44,129.24 135.90,128.94 136.36,128.63 136.82,128.32 137.28,128.01 137.75,127.70 138.21,127.39 138.67,127.08 139.13,126.77 139.59,126.46 140.05,126.15 140.51,125.83 140.97,125.52 141.43,125.21 141.89,124.89 142.35,124.58 142.81,124.26 143.27,123.94 143.73,123.63 144.19,123.31 144.65,122.99 145.11,122.67 145.57,122.35 146.03,122.03 146.49,121.71 146.95,121.39 147.41,121.07 147.87,120.74 148.33,120.42 148.79,120.10 149.25,119.77 149.71,119.45 150.17,119.12 150.63,118.80 151.09,118.47 151.55,118.14 152.01,117.82 152.47,117.49 152.93,117.16 153.39,116.83 153.85,116.50 154.31,116.17 154.77,115.84 155.23,115.51 155.69,115.18 156.15,114.85 156.61,114.51 157.07,114.18 157.53,113.85 157.99,113.51 158.45,113.18 158.91,112.85 159.37,112.51 159.83,112.17 160.29,111.84 160.75,111.50 161.21,111.17 161.67,110.83 162.13,110.49 162.59,110.15 163.05,109.81 163.51,109.47 163.97,109.13 164.44,108.79 164.90,108.45 165.36,108.11 165.82,107.77 166.28,107.43 166.74,107.09 167.20,106.75 167.66,106.41 168.12,106.06 168.58,105.72 169.04,105.38 169.50,105.03 169.96,104.69 170.42,104.34 170.88,104.00 171.34,103.65 171.80,103.31 172.26,102.96 172.72,102.62 173.18,102.27 173.64,101.92 174.10,101.58 174.56,101.23 175.02,100.88 175.48,100.53 175.94,100.19 176.40,99.84 176.86,99.49 177.32,99.14 177.78,98.79 178.24,98.44 178.70,98.09 179.16,97.75 179.62,97.40 180.08,97.05 180.54,96.70 181.00,96.35 181.46,95.99 181.92,95.64 182.38,95.29 182.84,94.94 183.30,94.59 183.76,94.24 184.22,93.89 184.68,93.54 185.14,93.19 185.60,92.83 186.06,92.48 186.52,92.13 186.98,91.78 187.44,91.43 187.90,91.07 188.36,90.72 188.82,90.37 189.28,90.02 189.74,89.66 190.20,89.31 190.66,88.96 191.13,88.61 191.59,88.25 192.05,87.90 192.51,87.55 192.97,87.20 193.43,86.84 193.89,86.49 194.35,86.14 194.81,85.78 195.27,85.43 195.73,85.08 196.19,84.73 196.65,84.37 197.11,84.02 197.57,83.67 198.03,83.32 198.49,82.96 198.95,82.61 199.41,82.26 199.87,81.91 200.33,81.56 200.79,81.20 201.25,80.85 201.71,80.50 202.17,80.15 202.63,79.80 203.09,79.45 203.55,79.10 204.01,78.75 204.47,78.39 204.93,78.04 205.39,77.69 205.85,77.34 206.31,76.99 206.77,76.64 207.23,76.29 207.69,75.95 208.15,75.60 208.61,75.25 209.07,74.90 209.53,74.55 209.99,74.20 210.45,73.86 210.91,73.51 211.37,73.16 211.83,72.81 212.29,72.47 212.75,72.12 213.21,71.77 213.67,71.43 214.13,71.08 214.59,70.74 215.05,70.39 215.51,70.05 215.97,69.71 216.43,69.36 216.89,69.02 217.35,68.68 217.82,68.33 218.28,67.99 218.74,67.65 219.20,67.31 219.66,66.97 220.12,66.63 220.58,66.29 221.04,65.95 221.50,65.61 221.96,65.27 222.42,64.93 222.88,64.60 223.34,64.26 223.80,63.92 224.26,63.59 224.72,63.25 225.18,62.92 225.64,62.58 226.10,62.25 226.56,61.92 227.02,61.58 227.48,61.25 227.94,60.92 228.40,60.59 228.86,60.26 229.32,59.93 229.78,59.60 230.24,59.27 230.70,58.94 231.16,58.61 231.62,58.29 232.08,57.96 232.54,57.64 233.00,57.31 233.46,56.99 233.92,56.66 234.38,56.34 234.84,56.02 235.30,55.70 235.76,55.38 236.22,55.06 236.68,54.74 237.14,54.42 237.60,54.10 238.06,53.78 238.52,53.47 238.98,53.15 239.44,52.84 239.90,52.52 240.36,52.21 240.82,51.90 241.28,51.59 241.74,51.28 242.20,50.97 242.66,50.66 243.12,50.35 243.58,50.04 244.04,49.74 244.51,49.43 244.97,49.12 245.43,48.82 245.89,48.52 246.35,48.22 246.81,47.91 247.27,47.61 247.73,47.31 248.19,47.02 248.65,46.72 249.11,46.42 249.57,46.13 250.03,45.83 250.49,45.54 250.95,45.24 251.41,44.95 251.87,44.66 252.33,44.37 252.79,44.08 253.25,43.79 253.71,43.51 254.17,43.22 254.63,42.94 255.09,42.65 255.55,42.37 256.01,42.09 256.47,41.81 256.93,41.53 257.39,41.25 257.85,40.97 258.31,40.70 258.77,40.42 259.23,40.15 259.69,39.87 260.15,39.60 260.61,39.33 261.07,39.06 261.53,38.79 261.99,38.53 262.45,38.26 262.91,37.99 263.37,37.73 263.83,37.47 264.29,37.21 264.75,36.95 265.21,36.69 265.67,36.43 266.13,36.17 266.59,35.92 267.05,35.66 267.51,35.41 267.97,35.16 268.43,34.91 268.89,34.66 269.35,34.41 269.81,34.16 270.27,33.92 270.73,33.67 271.20,33.43 271.66,33.19 272.12,32.95 272.58,32.71 273.04,32.47 273.50,32.24 273.96,32.00 274.42,31.77 274.88,31.53 275.34,31.30 275.80,31.07 276.26,30.85 276.72,30.62 277.18,30.39 277.64,30.17 278.10,29.95 278.56,29.73 279.02,29.51 279.48,29.29 279.94,29.07 280.40,28.85 280.86,28.64 281.32,28.43 281.78,28.22 282.24,28.01 282.70,27.80 283.16,27.59 283.62,27.38 284.08,27.18 284.54,26.98 285.00,26.78 285.46,26.58 285.92,26.38 286.38,26.18 286.84,25.99 287.30,25.79 287.76,25.60 288.22,25.41 288.68,25.22 289.14,25.03 289.60,24.85 290.06,24.66 290.52,24.48 290.98,24.30 291.44,24.12 291.90,23.94 292.36,23.76 292.82,23.59 293.28,23.41 293.74,23.24 294.20,23.07 294.66,22.90 295.12,22.74 295.58,22.57 296.04,22.41 296.50,22.24 296.96,22.08 297.43,21.92 297.89,21.77 298.35,21.61 298.81,21.45 299.27,21.30 299.73,21.15 300.19,21.00 300.65,20.85 301.11,20.71 301.57,20.56 302.03,20.42 302.49,20.28 302.95,20.14 303.41,20.00 303.87,19.87 304.33,19.73 304.79,19.60 305.25,19.47 305.71,19.34 306.17,19.21 306.63,19.09 307.09,18.96 307.55,18.84 308.01,18.72 308.47,18.60 308.93,18.48 309.39,18.37 309.85,18.25 310.31,18.14 310.77,18.03 311.23,17.92 311.69,17.81 312.15,17.71 312.61,17.60 313.07,17.50 313.53,17.40 313.99,17.31 314.45,17.21 314.91,17.11 315.37,17.02 315.83,16.93 316.29,16.84 316.75,16.75 317.21,16.67 317.67,16.58 318.13,16.50 318.59,16.42 319.05,16.34 319.51,16.27 319.97,16.19 320.43,16.12 320.89,16.05 321.35,15.98 321.81,15.91 322.27,15.84 322.73,15.78 323.19,15.71 323.65,15.65 324.12,15.60 324.58,15.54 325.04,15.48 325.50,15.43 325.96,15.38 326.42,15.33 326.88,15.28 327.34,15.23 327.80,15.19 328.26,15.15 328.72,15.11 329.18,15.07 329.64,15.03 330.10,15.00 330.56,14.96 331.02,14.93 331.48,14.90 331.94,14.87 332.40,14.85 332.86,14.82 333.32,14.80 333.78,14.78 334.24,14.76 334.70,14.74 335.16,14.73 335.62,14.72 336.08,14.70 336.54,14.70 337.00,14.69 337.46,14.68 337.92,14.68 338.38,14.68 338.84,14.68 339.30,14.68 339.76,14.68 340.22,14.69 340.68,14.69 341.14,14.70 341.60,14.71 342.06,14.72 342.52,14.74 342.98,14.75 343.44,14.77 343.90,14.79 344.36,14.81 344.82,14.84 345.28,14.86 345.74,14.89 346.20,14.92 346.66,14.95 347.12,14.98 347.58,15.02 348.04,15.05 348.50,15.09 348.96,15.13 349.42,15.17 349.88,15.22 350.34,15.26 350.81,15.31 351.27,15.36 351.73,15.41 352.19,15.46 352.65,15.52 353.11,15.58 353.57,15.63 354.03,15.69 354.49,15.76 354.95,15.82 355.41,15.88 355.87,15.95 356.33,16.02 356.79,16.09 357.25,16.16 357.71,16.24 358.17,16.31 358.63,16.39 359.09,16.47 359.55,16.55 360.01,16.64 360.47,16.72 360.93,16.81 361.39,16.90 361.85,16.99 362.31,17.08 362.77,17.18 363.23,17.27 363.69,17.37 364.15,17.47 364.61,17.57 365.07,17.67 365.53,17.78 365.99,17.88 366.45,17.99 366.91,18.10 367.37,18.21 367.83,18.33 368.29,18.44 368.75,18.56 369.21,18.68 369.67,18.80 370.13,18.92 370.59,19.04 371.05,19.17 371.51,19.29 371.97,19.42 372.43,19.55 372.89,19.69 373.35,19.82 373.81,19.95 374.27,20.09 374.73,20.23 375.19,20.37 375.65,20.51 376.11,20.66 376.57,20.80 377.03,20.95 377.50,21.10 377.96,21.25 378.42,21.40 378.88,21.56 379.34,21.71 379.80,21.87 380.26,22.03 380.72,22.19 381.18,22.35 381.64,22.51 382.10,22.68 382.56,22.84 383.02,23.01 383.48,23.18 383.94,23.35 384.40,23.53 384.86,23.70 385.32,23.88 385.78,24.06 386.24,24.23 386.70,24.42 387.16,24.60 387.62,24.78 388.08,24.97 388.54,25.16 389.00,25.34 389.46,25.53 389.92,25.73 390.38,25.92 390.84,26.11 391.30,26.31 391.76,26.51 392.22,26.71 392.68,26.91 393.14,27.11 393.60,27.31 394.06,27.52 394.52,27.72 394.98,27.93 395.44,28.14 395.90,28.35 396.36,28.57 396.82,28.78 397.28,28.99 397.74,29.21 398.20,29.43 398.66,29.65 399.12,29.87 399.58,30.09 400.04,30.32 400.50,30.54 400.96,30.77 401.42,30.99 401.88,31.22 402.34,31.45 402.80,31.69 403.26,31.92 403.72,32.15 404.19,32.39 404.65,32.63 405.11,32.87 405.57,33.11 406.03,33.35 406.49,33.59 406.95,33.83 407.41,34.08 407.87,34.32 408.33,34.57 408.79,34.82 409.25,35.07 409.71,35.32 410.17,35.57 410.63,35.83 411.09,36.08 411.55,36.34 412.01,36.60 412.47,36.86 412.93,37.12 413.39,37.38 413.85,37.64 414.31,37.90 414.77,38.17 415.23,38.43 415.69,38.70 416.15,38.97 416.61,39.24 417.07,39.51 417.53,39.78 417.99,40.05 418.45,40.33 418.91,40.60 419.37,40.88 419.83,41.15 420.29,41.43 420.75,41.71 421.21,41.99 421.67,42.27 422.13,42.55 422.59,42.84 423.05,43.12 423.51,43.41 423.97,43.69 424.43,43.98 424.89,44.27 425.35,44.56 425.81,44.85 426.27,45.14 426.73,45.44 427.19,45.73 427.65,46.02 428.11,46.32 428.57,46.61 429.03,46.91 429.49,47.21 429.95,47.51 430.41,47.81 430.88,48.11 431.34,48.41 431.80,48.72 432.26,49.02 432.72,49.32 433.18,49.63 433.64,49.94 434.10,50.24 434.56,50.55 435.02,50.86 435.48,51.17 435.94,51.48 436.40,51.79 436.86,52.10 437.32,52.42 437.78,52.73 438.24,53.04 438.70,53.36 439.16,53.67 439.62,53.99 440.08,54.31 440.54,54.63 441.00,54.95 441.46,55.27 441.92,55.59 442.38,55.91 442.84,56.23 443.30,56.55 443.76,56.88 444.22,57.20 444.68,57.52 445.14,57.85 445.60,58.17 446.06,58.50 446.52,58.83 446.98,59.16 447.44,59.48 447.90,59.81 448.36,60.14 448.82,60.47 449.28,60.80 449.74,61.14 450.20,61.47 450.66,61.80 451.12,62.13 451.58,62.47 452.04,62.80 452.50,63.14 452.96,63.47 453.42,63.81 453.88,64.14 454.34,64.48 454.80,64.82 455.26,65.16 455.72,65.49 456.18,65.83 456.64,66.17 457.10,66.51 457.57,66.85 458.03,67.19 458.49,67.53 458.95,67.87 459.41,68.22 459.87,68.56 460.33,68.90 460.79,69.24 461.25,69.59 461.71,69.93 462.17,70.27 462.63,70.62 463.09,70.96 463.55,71.31 464.01,71.65 464.47,72.00 464.93,72.35 465.39,72.69 465.85,73.04 466.31,73.39 466.77,73.73 467.23,74.08 467.69,74.43 468.15,74.78 468.61,75.13 469.07,75.48 469.53,75.82 469.99,76.17 470.45,76.52 470.91,76.87 471.37,77.22 471.83,77.57 472.29,77.92 472.75,78.27 473.21,78.62 473.67,78.97 474.13,79.32 474.59,79.68 475.05,80.03 475.51,80.38 475.97,80.73 476.43,81.08 476.89,81.43 477.35,81.79 477.81,82.14 478.27,82.49 478.73,82.84 479.19,83.19 479.65,83.55 480.11,83.90 480.57,84.25 481.03,84.60 481.49,84.96 481.95,85.31 482.41,85.66 482.87,86.01 483.33,86.37 483.80,86.72 484.26,87.07 484.72,87.43 485.18,87.78 485.64,88.13 486.10,88.48 486.56,88.84 487.02,89.19 487.48,89.54 487.94,89.89 488.40,90.25 488.86,90.60 489.32,90.95 489.78,91.30 490.24,91.66 490.70,92.01 491.16,92.36 491.62,92.71 492.08,93.06 492.54,93.42 493.00,93.77 493.46,94.12 493.92,94.47 494.38,94.82 494.84,95.17 495.30,95.52 495.76,95.87 496.22,96.22 496.68,96.57 497.14,96.92 497.60,97.27 498.06,97.62 498.52,97.97 "
     style="stroke-width: 1.60; stroke: #00BF7D; stroke-linecap: butt;"
     clip-path="url(#cpMzguODA3OXw0OTguNTIxfDIwNy43ODF8NS40Nzk0NQ==)"
     id="polyline151" />
  <line
     x1="338.69"
     y1="207.78"
     x2="338.69"
     y2="5.48"
     style="stroke-width: 1.07; stroke: #00BF7D; stroke-dasharray: 5.69,5.69; stroke-linecap: butt;"
     clip-path="url(#cpMzguODA3OXw0OTguNTIxfDIwNy43ODF8NS40Nzk0NQ==)"
     id="line159" />
  <line
     x1="38.81"
     y1="198.59"
     x2="498.52"
     y2="198.59"
     style="stroke-width: 1.07; stroke-linecap: butt;"
     clip-path="url(#cpMzguODA3OXw0OTguNTIxfDIwNy43ODF8NS40Nzk0NQ==)"
     id="line167" />
  <circle
     cx="71.02"
     cy="198.59"
     r="4.62pt"
     style="stroke-width: 0.71; fill: #000000;"
     clip-path="url(#cpMzguODA3OXw0OTguNTIxfDIwNy43ODF8NS40Nzk0NQ==)"
     id="circle169" />
  <circle
     cx="84.37"
     cy="198.59"
     r="4.62pt"
     style="stroke-width: 0.71; fill: #000000;"
     clip-path="url(#cpMzguODA3OXw0OTguNTIxfDIwNy43ODF8NS40Nzk0NQ==)"
     id="circle171" />
  <circle
     cx="183.76"
     cy="198.59"
     r="4.62pt"
     style="stroke-width: 0.71; fill: #000000;"
     clip-path="url(#cpMzguODA3OXw0OTguNTIxfDIwNy43ODF8NS40Nzk0NQ==)"
     id="circle173" />
  <circle
     cx="276.72"
     cy="198.59"
     r="4.62pt"
     style="stroke-width: 0.71; fill: #000000;"
     clip-path="url(#cpMzguODA3OXw0OTguNTIxfDIwNy43ODF8NS40Nzk0NQ==)"
     id="circle175" />
  <circle
     cx="342.06"
     cy="198.59"
     r="4.62pt"
     style="stroke-width: 0.71; fill: #000000;"
     clip-path="url(#cpMzguODA3OXw0OTguNTIxfDIwNy43ODF8NS40Nzk0NQ==)"
     id="circle177" />
  <circle
     cx="224.72"
     cy="198.59"
     r="4.62pt"
     style="stroke-width: 0.71; fill: #000000;"
     clip-path="url(#cpMzguODA3OXw0OTguNTIxfDIwNy43ODF8NS40Nzk0NQ==)"
     id="circle179" />
  <circle
     cx="456.18"
     cy="198.59"
     r="4.62pt"
     style="stroke-width: 0.71; fill: #000000;"
     clip-path="url(#cpMzguODA3OXw0OTguNTIxfDIwNy43ODF8NS40Nzk0NQ==)"
     id="circle181" />
  <circle
     cx="172.72"
     cy="198.59"
     r="4.62pt"
     style="stroke-width: 0.71; fill: #000000;"
     clip-path="url(#cpMzguODA3OXw0OTguNTIxfDIwNy43ODF8NS40Nzk0NQ==)"
     id="circle183" />
  <circle
     cx="248.19"
     cy="198.59"
     r="4.62pt"
     style="stroke-width: 0.71; fill: #000000;"
     clip-path="url(#cpMzguODA3OXw0OTguNTIxfDIwNy43ODF8NS40Nzk0NQ==)"
     id="circle185" />
  <circle
     cx="190.20"
     cy="198.59"
     r="4.62pt"
     style="stroke-width: 0.71; fill: #000000;"
     clip-path="url(#cpMzguODA3OXw0OTguNTIxfDIwNy43ODF8NS40Nzk0NQ==)"
     id="circle187" />
  <defs
     id="defs189">
    <clipPath
       id="cpMHw1MDR8MjE2fDA=">
      <rect
         x="0.00"
         y="0.00"
         width="504.00"
         height="216.00"
         id="rect192" />
    </clipPath>
  </defs>
  <g
     clip-path="url(#cpMHw1MDR8MjE2fDA=)"
     id="g194">
    <text
       x="21.37"
       y="201.80"
       style="font-size: 8.80px; fill: #4D4D4D; font-family: Arial;"
       textLength="12.51px"
       lengthAdjust="spacingAndGlyphs"
       id="text196">0.0</text>
  </g>
  <g
     clip-path="url(#cpMHw1MDR8MjE2fDA=)"
     id="g198">
    <text
       x="21.37"
       y="128.91"
       style="font-size: 8.80px; fill: #4D4D4D; font-family: Arial;"
       textLength="12.51px"
       lengthAdjust="spacingAndGlyphs"
       id="text200">0.5</text>
  </g>
  <g
     clip-path="url(#cpMHw1MDR8MjE2fDA=)"
     id="g202">
    <text
       x="21.37"
       y="56.02"
       style="font-size: 8.80px; fill: #4D4D4D; font-family: Arial;"
       textLength="12.51px"
       lengthAdjust="spacingAndGlyphs"
       id="text204">1.0</text>
  </g>
  <polyline
     points="36.07,198.59 38.81,198.59 "
     style="stroke-width: 1.07; stroke: #333333; stroke-linecap: butt;"
     clip-path="url(#cpMHw1MDR8MjE2fDA=)"
     id="polyline206" />
  <polyline
     points="36.07,125.70 38.81,125.70 "
     style="stroke-width: 1.07; stroke: #333333; stroke-linecap: butt;"
     clip-path="url(#cpMHw1MDR8MjE2fDA=)"
     id="polyline208" />
  <polyline
     points="36.07,52.81 38.81,52.81 "
     style="stroke-width: 1.07; stroke: #333333; stroke-linecap: butt;"
     clip-path="url(#cpMHw1MDR8MjE2fDA=)"
     id="polyline210" />
  <g
     clip-path="url(#cpMHw1MDR8MjE2fDA=)"
     id="g212">
    <text
       transform="translate(13.35,132.31) rotate(-90)"
       style="font-size: 11.00px; font-family: Arial;"
       textLength="51.36px"
       lengthAdjust="spacingAndGlyphs"
       id="text214">Probability</text>
  </g>
</svg>
