<?xml version="1.0" encoding="UTF-8" standalone="no"?>
<!-- Created with Inkscape (http://www.inkscape.org/) -->

<svg
   xmlns:dc="http://purl.org/dc/elements/1.1/"
   xmlns:cc="http://creativecommons.org/ns#"
   xmlns:rdf="http://www.w3.org/1999/02/22-rdf-syntax-ns#"
   xmlns:svg="http://www.w3.org/2000/svg"
   xmlns="http://www.w3.org/2000/svg"
   xmlns:sodipodi="http://sodipodi.sourceforge.net/DTD/sodipodi-0.dtd"
   xmlns:inkscape="http://www.inkscape.org/namespaces/inkscape"
   id="svg2"
   version="1.1"
   inkscape:version="0.91 r13725"
   width="111.39881"
   height="141.54694"
   xml:space="preserve"
   sodipodi:docname="acorn.svg"><metadata
     id="metadata8"><rdf:RDF><cc:Work
         rdf:about=""><dc:format>image/svg+xml</dc:format><dc:type
           rdf:resource="http://purl.org/dc/dcmitype/StillImage" /><dc:title></dc:title></cc:Work></rdf:RDF></metadata><defs
     id="defs6"><clipPath
       clipPathUnits="userSpaceOnUse"
       id="clipPath82"><path
         d="m 963.082,5267.48 c 0,0 -222.496,17.5 -330,130 -107.5,112.5 -215,670 -475,597.5 -260,-72.5 -152.49997,-420 -10,-615 142.5,-195 420,-295 580,-302.5 160,-7.5 314.998,100 314.998,100 l -79.998,90"
         id="path84"
         inkscape:connector-curvature="0" /></clipPath><clipPath
       clipPathUnits="userSpaceOnUse"
       id="clipPath110"><path
         d="m 68.082,6234.98 c 0,0 289.488,849.66 1044.998,885 855,40 1135,-850 1135,-850 0,0 -500.64,-247.57 -1005,-280 -699.998,-45 -1174.998,245 -1174.998,245"
         id="path112"
         inkscape:connector-curvature="0" /></clipPath><clipPath
       clipPathUnits="userSpaceOnUse"
       id="clipPath166"><path
         d="m 6354.16,5240.02 c 0,0 142.5,-17.5 202.5,87.5 60,105 -22.5,257.5 -52.5,355 -30,97.5 -76.23,246.49 45,445 200,327.5 472.5,350 472.5,350 0,0 -125,-162.5 -72.5,-335 52.5,-172.5 222.5,-477.5 160,-692.5 -62.5,-215 -185,-340 -435,-375 -250,-35 -375,117.5 -375,117.5 l 55,47.5"
         id="path168"
         inkscape:connector-curvature="0" /></clipPath><clipPath
       clipPathUnits="userSpaceOnUse"
       id="clipPath270"><path
         d="m 866.484,3084.09 c 0,0 -243.336,-6.66 -356.668,-123.33 -113.332,-116.67 -146.668,-276.67 33.332,-413.33 180,-136.67 536.672,-113.34 646.672,-110 110,3.33 320,90 350,250 30,160 -66.33,253.98 -166.67,306.66 -133.33,70 -276.67,80 -276.67,80 0,0 243.34,290 350,496.67 106.67,206.67 106.67,350 16.67,366.67 -90,16.66 -270,-220 -333.33,-400 -63.34,-180 -103.34,-446.67 -103.34,-446.67 l -66.664,3.33 c 0,0 -56.668,253.34 -223.332,493.34 -166.668,240 -316.668,260 -400,150 -83.336,-110 306.664,-290 530,-653.34"
         id="path272"
         inkscape:connector-curvature="0" /></clipPath><clipPath
       clipPathUnits="userSpaceOnUse"
       id="clipPath316"><path
         d="m 3068.08,4584.98 c 0,0 -370,10 -620,-335 -261.24,-360.52 -155,-775 145,-945 300,-170 840,-240 1160,-20 320,220 465,480 335,800 -130,320 -425,460 -650,485 -225,25 -370,15 -370,15"
         id="path318"
         inkscape:connector-curvature="0" /></clipPath><clipPath
       clipPathUnits="userSpaceOnUse"
       id="clipPath362"><path
         d="m 6058.84,3479.12 c 0,0 -132.5,17.5 -237.5,-85 -105,-102.5 -147.5,-167.5 -207.5,-207.5 -60,-40 -120,-127.5 -47.5,-187.5 72.5,-60 242.5,-65 352.5,-62.5 44.39,1.01 111.98,-7.34 184.37,-15.7 107.02,-12.34 224.54,-24.69 293.13,-6.8 115,30 197.5,72.5 162.5,165 -35,92.5 -92.5,77.5 -162.5,150 -70,72.5 -87.5,175 -192.5,217.5 -105,42.5 -145,32.5 -145,32.5"
         id="path364"
         inkscape:connector-curvature="0" /></clipPath><clipPath
       clipPathUnits="userSpaceOnUse"
       id="clipPath400"><path
         d="m 1461.01,1136.52 c 0,0 -133.68,-103.5 -543.35,-103.5 -409.672,0 -651.164,64.69 -651.164,64.69 0,0 -107.808,651.16 586.477,642.54 694.287,-8.63 608.037,-603.73 608.037,-603.73"
         id="path402"
         inkscape:connector-curvature="0" /></clipPath><clipPath
       clipPathUnits="userSpaceOnUse"
       id="clipPath438"><path
         d="m 3258.97,806.742 c 0,0 -160,3.328 -210,116.668 -50,113.33 26.67,206.66 86.67,343.33 60,136.67 140,513.33 -203.34,710 -343.33,196.67 -640,-13.33 -683.33,-293.33 -43.33,-280 166.67,-446.67 273.33,-410 106.67,36.66 -56.66,200 43.34,273.33 100,73.33 180,30 186.66,-130 6.67,-160 -148.86,-316.74 -30,-529.998 113.34,-203.332 250,-183.332 383.34,-176.672 133.33,6.672 166.66,26.672 166.66,26.672 l -13.33,70"
         id="path440"
         inkscape:connector-curvature="0" /></clipPath><clipPath
       clipPathUnits="userSpaceOnUse"
       id="clipPath460"><path
         d="m 3575.64,1973.41 c -9.88,-1.56 -340,-23.34 -443.34,-266.67 -103.33,-243.33 130,-496.67 516.67,-460 386.67,36.67 536.67,180 563.33,370 26.67,190 -233.33,420 -636.66,356.67"
         id="path462"
         inkscape:connector-curvature="0" /></clipPath></defs><sodipodi:namedview
     pagecolor="#ffffff"
     bordercolor="#666666"
     borderopacity="1"
     objecttolerance="10"
     gridtolerance="10"
     guidetolerance="10"
     inkscape:pageopacity="0"
     inkscape:pageshadow="2"
     inkscape:window-width="948"
     inkscape:window-height="480"
     id="namedview4"
     showgrid="false"
     fit-margin-top="25"
     fit-margin-left="25"
     fit-margin-right="25"
     fit-margin-bottom="25"
     inkscape:zoom="0.26361352"
     inkscape:cx="394.27907"
     inkscape:cy="-224.66396"
     inkscape:window-x="65"
     inkscape:window-y="24"
     inkscape:window-maximized="0"
     inkscape:current-layer="g10" /><g
     id="g10"
     inkscape:groupmode="layer"
     inkscape:label="ink_ext_XXXXXX"
     transform="matrix(1.25,0,0,-1.25,-50.895913,616.44965)"><path
       inkscape:connector-curvature="0"
       id="path256"
       style="fill:#c07a50;fill-opacity:1;fill-rule:nonzero;stroke:none"
       d="m 65.5586,437.248 c 0,0 1,-17.75 3.25,-22.25 2.25,-4.5 12,-10.5 17.5,-13.75 5.5,-3.25 7.75,0.25 10,2.25 2.25,2 8.7494,7.75 10.4994,14.25 1.75,6.5 1,14.5 0.25,19.25 -0.75,4.75 -1.75,7.25 -1.75,7.25 0,0 -9.4994,1.75 -23.2494,0.25 -13.75,-1.5 -16.5,-7.25 -16.5,-7.25" /><path
       inkscape:connector-curvature="0"
       id="path258"
       style="fill:#5c412f;fill-opacity:1;fill-rule:nonzero;stroke:none"
       d="m 86.5586,439.248 c 0,0 -9.75,-0.75 -14.5,-3 -4.75,-2.25 -7,-5.75 -7,-5.75 0,0 -3.5,1.25 -4.25,8.5 -0.75,7.25 3.25,12.25 6.25,14.25 3,2 9.5,4 11.25,4.5 1.75,0.5 3.25,1 3.25,3 0,2 -3.25,6.5 -3.5,9 -0.25,2.5 5.25,4.5 6.25,2.75 1,-1.75 0.5,-12.25 4.5,-12.75 4,-0.5 10.25,1 16.2494,-6 6,-7 4.75,-14.5 4.5,-15.75 -0.25,-1.25 -1,-3 -1,-3 0,0 -2.5,3.25 -10.4994,4 -8,0.75 -11.5,0.25 -11.5,0.25" /></g></svg>