<?xml version="1.0" encoding="UTF-8" standalone="no"?>
<!-- Created with Inkscape (http://www.inkscape.org/) -->

<svg
   xmlns:dc="http://purl.org/dc/elements/1.1/"
   xmlns:cc="http://creativecommons.org/ns#"
   xmlns:rdf="http://www.w3.org/1999/02/22-rdf-syntax-ns#"
   xmlns:svg="http://www.w3.org/2000/svg"
   xmlns="http://www.w3.org/2000/svg"
   xmlns:sodipodi="http://sodipodi.sourceforge.net/DTD/sodipodi-0.dtd"
   xmlns:inkscape="http://www.inkscape.org/namespaces/inkscape"
   id="svg2"
   version="1.1"
   inkscape:version="0.91 r"
   xml:space="preserve"
   width="403.35098"
   height="492.2749"
   viewBox="0 0 403.35098 492.2749"
   sodipodi:docname="deer2.svg"><metadata
     id="metadata8"><rdf:RDF><cc:Work
         rdf:about=""><dc:format>image/svg+xml</dc:format><dc:type
           rdf:resource="http://purl.org/dc/dcmitype/StillImage" /><dc:title></dc:title></cc:Work></rdf:RDF></metadata><defs
     id="defs6" /><sodipodi:namedview
     pagecolor="#ffffff"
     bordercolor="#666666"
     borderopacity="1"
     objecttolerance="10"
     gridtolerance="10"
     guidetolerance="10"
     inkscape:pageopacity="0"
     inkscape:pageshadow="2"
     inkscape:window-width="959"
     inkscape:window-height="1028"
     id="namedview4"
     showgrid="false"
     fit-margin-top="0"
     fit-margin-left="0"
     fit-margin-right="0"
     fit-margin-bottom="0"
     inkscape:zoom="0.472"
     inkscape:cx="80.797013"
     inkscape:cy="231.40918"
     inkscape:window-x="0"
     inkscape:window-y="0"
     inkscape:window-maximized="0"
     inkscape:current-layer="g10" /><g
     id="g10"
     inkscape:groupmode="layer"
     inkscape:label="ink_ext_XXXXXX"
     transform="matrix(1.25,0,0,-1.25,-300.53125,848.7199)"><g
       id="g4930"
       transform="translate(42.372881,215.25424)"><path
         d="m 301.2241,72.084015 c -21.4316,0 -38.805,1.6757 -38.805,3.7429 0,1.1239 5.1429,2.1332 13.2855,2.8192 0.3648,-1.9063 2.0434,-3.3742 4.0949,-3.3742 l 4.6356,0 c 2.2941,0 4.1308,1.846 4.1672,4.0949 3.957,0.1312 8.2031,0.2023 12.6218,0.2023 1.8223,0 3.6153,-0.0121 5.3703,-0.0363 -0.001,-0.041 -0.002,-0.082 -0.002,-0.1227 l 0,0 c 0.002,-2.2621 1.8523,-4.1382 4.1691,-4.1382 l 4.4317,0 c 2.2187,0 4.0047,1.725 4.1574,3.864 12.2978,-0.6269 20.6778,-1.8738 20.6778,-3.309 0,-2.0672 -17.373,-3.7429 -38.8048,-3.7429"
         style="fill:#edecea;fill-opacity:1;fill-rule:nonzero;stroke:none"
         id="path84"
         inkscape:connector-curvature="0" /><path
         d="m 404.8469,72.084015 c -17.907,0 -32.424,1.6757 -32.424,3.7429 0,1.6418 9.17,3.0379 21.925,3.541 0.082,-2.275 1.954,-4.096 4.257,-4.096 l 1.976,0 c 2.395,0 4.265,1.9589 4.255,4.2972 0.004,0 0.007,0 0.011,0 1.866,0 3.696,-0.0183 5.475,-0.0531 l 0.009,-0.1852 c 0.107,-2.2718 1.98,-4.0589 4.255,-4.0589 l 2.551,0 c 2.234,0 3.994,1.6929 4.231,3.775 9.521,-0.6508 15.904,-1.85 15.904,-3.22 0,-2.0672 -14.517,-3.7429 -32.425,-3.7429"
         style="fill:#edecea;fill-opacity:1;fill-rule:nonzero;stroke:none"
         id="path86"
         inkscape:connector-curvature="0" /><path
         d="m 291.5421,237.93992 c 0,0 -29.5164,0.656 -30.5,-45.258 0,0 0.3277,-4.592 2.2957,-15.414 0,0 4.5914,-3.28 8.1988,6.887 3.6075,10.167 14.7582,23.197 14.7582,23.197 l 5.2473,30.588"
         style="fill:#975925;fill-opacity:1;fill-rule:nonzero;stroke:none"
         id="path132"
         inkscape:connector-curvature="0" /><path
         d="m 275.0171,209.30792 c -8.3621,-6.927 -11.2973,-21.815 -11.2016,-32.04 l -0.009,-0.244 c 1.2574,-0.52 4.8148,-1.086 7.7304,7.131 3.6075,10.166 14.7582,23.197 14.7582,23.197 l 1.0887,6.346 c -4.5504,-0.42 -8.9301,-1.544 -12.3664,-4.39"
         style="fill:#fbebe0;fill-opacity:1;fill-rule:nonzero;stroke:none"
         id="path134"
         inkscape:connector-curvature="0" /><path
         d="m 318.4351,192.68192 -4.2637,-15.414 c 6.2313,-8.527 18.0375,-14.103 18.0375,-14.103 20.99,-7.871 58.377,-11.806 58.377,-11.806 l -3.935,14.43 c -48.211,5.247 -68.2158,26.893 -68.2158,26.893"
         style="fill:#fbebe0;fill-opacity:1;fill-rule:nonzero;stroke:none"
         id="path136"
         inkscape:connector-curvature="0" /><path
         d="m 512.8969,211.44792 c 0,0 2.939,4.665 6.182,2.903 3.244,-1.762 0.715,-4.87 0.715,-4.87 0,0 -4.408,-2.397 -6.897,1.967"
         style="fill:#975925;fill-opacity:1;fill-rule:nonzero;stroke:none"
         id="path138"
         inkscape:connector-curvature="0" /><path
         d="m 291.5421,237.93992 c 0,0 -29.5164,0.656 -30.5,-45.258 0,0 0.3277,-4.592 2.2957,-15.414 0,0 4.5914,-3.28 8.1988,6.887 3.6075,10.167 14.7582,23.197 14.7582,23.197 l 5.2473,30.588"
         style="fill:#975925;fill-opacity:1;fill-rule:nonzero;stroke:none"
         id="path140"
         inkscape:connector-curvature="0" /><path
         d="m 275.0171,209.30792 c -8.3621,-6.927 -11.2973,-21.815 -11.2016,-32.04 l -0.009,-0.244 c 1.2574,-0.52 4.8148,-1.086 7.7304,7.131 3.6075,10.166 14.7582,23.197 14.7582,23.197 l 1.0887,6.346 c -4.5504,-0.42 -8.9301,-1.544 -12.3664,-4.39"
         style="fill:#fbebe0;fill-opacity:1;fill-rule:nonzero;stroke:none"
         id="path142"
         inkscape:connector-curvature="0" /><path
         d="m 275.6527,79.850815 c 1.0527,10.3773 3.0859,36.054105 -0.5086,52.486105 0,0 11.1507,18.366 10.4949,41.979 0,0 -18.966,41.979 0.0277,62.312 18.9938,20.334 47.1982,7.215 68.8432,0 21.646,-7.215 36.732,-8.527 47.227,-7.871 10.494,0.656 26.237,-12.462 31.484,-12.462 5.247,0 17.953,14.906 21.233,18.841 3.279,3.936 -12.998,13.873 -4.72,37.721 5.124,-0.098 7.523,-2.777 7.523,-2.777 0,0 2.464,7.212 4.992,10.169 0,0 13.607,-1.642 16.23,-32.47 0,0 13.559,-4.52 18.707,-17.074 2.065,-5.038 5.142,-9.617 9.355,-13.066 3.844,-3.145 8.645,-6.457 13.259,-7.95 -1.968,-9.183 -20.331,-9.792 -34.106,-9.136 -13.774,0.656 -13.774,0.656 -13.774,0.656 0,0 -28.86,-36.732 -51.162,-43.947 0,0 -3.675,-56.183 0.548,-76.869005 0.541,-2.6468 -1.468,-5.121 -4.169,-5.121 l -2.551,0 c -2.275,0 -4.148,1.7871 -4.255,4.0589 l -2.035,43.167105 c 0,0 -5.217,-26.896005 -3.487,-42.460805 0.282,-2.5383 -1.675,-4.7652 -4.228,-4.7652 l -1.976,0 c -2.375,0 -4.291,1.9351 -4.259,4.3089 0.188,14.2543 0.439,59.662105 -3.76,71.778105 0,0 -37.387,3.935 -58.377,11.806 0,0 -7.257,-21.772 -13.8766,-32.073 -2.0011,-3.115 -2.93,-6.79 -2.6035,-10.478 l 3.616,-40.806905 c 0.2161,-2.4371 -1.7043,-4.5351 -4.1511,-4.5351 l -4.4317,0 c -2.4609,0 -4.3957,2.1171 -4.1476,4.5652 0.8691,8.5969 1.3254,28.387805 -8.5129,51.187805 0,0 13.1183,15.086 14.4301,39.355 0,0 -3.8579,-24.25 -22.184,-37.891 -3.2731,-2.437 -5.1539,-6.312 -4.8559,-10.381 l 3.0996,-42.363805 c 0.1766,-2.4152 -1.7351,-4.4722 -4.1562,-4.4722 l -4.6356,0 c -2.4676,0 -4.3957,2.1242 -4.1468,4.5789"
         style="fill:#975925;fill-opacity:1;fill-rule:nonzero;stroke:none"
         id="path144"
         inkscape:connector-curvature="0" /><path
         d="m 318.4351,192.68192 -4.2637,-15.414 c 6.2313,-8.527 18.0375,-14.103 18.0375,-14.103 20.99,-7.871 58.377,-11.806 58.377,-11.806 l -3.935,14.43 c -48.211,5.247 -68.2158,26.893 -68.2158,26.893"
         style="fill:#fbebe0;fill-opacity:1;fill-rule:nonzero;stroke:none"
         id="path146"
         inkscape:connector-curvature="0" /><path
         d="m 319.3448,79.807015 -3.616,40.806905 c -4e-4,0.006 -8e-4,0.011 -10e-4,0.017 l 3.6171,-40.823905 m 12.7231,82.938905 c 0.001,0.005 0.003,0.01 0.005,0.015 -0.002,-0.005 -0.004,-0.01 -0.005,-0.015 m 0.006,0.019 c 10e-4,0.002 10e-4,0.003 0.002,0.005 -0.001,-0.002 -0.001,-0.003 -0.002,-0.005 m 0.015,0.045 c 10e-4,0.001 10e-4,0.002 10e-4,0.003 0,-0.002 0,-0.002 -10e-4,-0.003 m 0.005,0.014 c 0.003,0.008 0.006,0.016 0.008,0.024 -0.002,-0.008 -0.005,-0.016 -0.008,-0.024 m 0.057,0.167 c 0,0.001 10e-4,0.003 10e-4,0.004 0,-0.001 -10e-4,-0.003 -10e-4,-0.004 m 0.005,0.014 c 0,0.001 0,0.002 0,0.003 0,-0.001 0,-0.002 0,-0.003 m 0.008,0.026 c 0,0.001 0.001,0.002 0.001,0.004 0,-0.002 0,-0.003 -0.001,-0.004 m 0.013,0.038 c 0.002,0.006 0.004,0.012 0.006,0.017 -0.002,-0.005 -0.004,-0.011 -0.006,-0.017 m 0.006,0.017 c 0,0.002 0.001,0.004 0.002,0.006 -10e-4,-0.002 -0.002,-0.004 -0.002,-0.006 m 0.009,0.028 c 0.002,0.005 0.003,0.009 0.004,0.013 -0.001,-0.004 -0.002,-0.008 -0.004,-0.013 m 0.006,0.018 c 0,0 0,0.001 0.001,0.002 -0.001,-10e-4 -0.001,-0.002 -0.001,-0.002 m 0.001,0.004 c 0.002,0.004 0.003,0.008 0.004,0.012 -10e-4,-0.004 -0.002,-0.008 -0.004,-0.012 m 0.006,0.017 c 0,0 0.001,0.001 0.001,0.002 0,-0.001 -0.001,-0.001 -0.001,-0.002 m 0.002,0.004 c 0,10e-4 0,10e-4 0,10e-4 0,0 0,0 0,-10e-4 m 0,0.002 c 0,0.001 0.001,0.001 0.001,0.002 0,-0.001 -0.001,-0.001 -0.001,-0.002 m 0.001,0.003 c 10e-4,0.002 10e-4,0.003 10e-4,0.003 l 0,0 c 0,0 0,-0.001 -10e-4,-0.003"
         style="fill:#ffffff;fill-opacity:1;fill-rule:nonzero;stroke:none"
         id="path148"
         inkscape:connector-curvature="0" /><path
         d="m 315.1937,75.271915 -4.4317,0 c -2.3168,0 -4.1672,1.8761 -4.1691,4.1382 0,0.1407 0.007,0.284 0.0215,0.427 0.2242,2.2156 0.4207,5.1769 0.4207,8.741 -4e-4,10.2609 -1.6317,25.524805 -8.9336,42.446805 0,0 13.1183,15.086 14.4301,39.355 l 1.6398,6.888 0,0 c 2.0055,-2.745 4.5891,-5.184 7.1699,-7.229 3.2256,-2.82 7.1396,-5.665 10.8676,-6.874 0,0 0,-0.001 -0.001,-0.003 l 0,0 c 0,-0.001 0,-0.001 0,-0.001 l 0,0 c 0,-0.001 -10e-4,-0.001 -10e-4,-0.002 l 0,0 c 0,0 0,0 0,-0.001 l 0,0 c 0,0 0,0 0,-10e-4 l 0,0 c -0.001,0 -0.001,-0.001 -0.001,-0.002 l 0,0 c 0,-0.001 -10e-4,-0.002 -10e-4,-0.002 l 0,0 c -0.001,-0.002 -0.001,-0.004 -0.002,-0.005 l 0,0 c -10e-4,-0.004 -0.002,-0.008 -0.004,-0.012 l 0,0 c 0,-0.001 0,-0.002 0,-0.002 l 0,0 c -10e-4,-10e-4 -10e-4,-0.002 -10e-4,-0.002 l 0,0 c 0,-0.002 -10e-4,-0.003 -0.002,-0.005 l 0,0 c -10e-4,-0.004 -0.002,-0.008 -0.004,-0.013 l 0,0 c -0.002,-0.006 -0.005,-0.014 -0.007,-0.022 l 0,0 c -0.001,-0.002 -0.002,-0.004 -0.002,-0.006 l 0,0 0,0 0,0 c -0.002,-0.005 -0.004,-0.011 -0.006,-0.017 l 0,0 c -0.003,-0.01 -0.007,-0.022 -0.012,-0.034 l 0,0 c 0,-0.002 -10e-4,-0.003 -10e-4,-0.004 l 0,0 c -0.002,-0.008 -0.005,-0.015 -0.008,-0.023 l 0,0 c 0,-0.001 0,-0.002 0,-0.003 l 0,0 c -0.002,-0.003 -0.003,-0.006 -0.004,-0.01 l 0,0 c 0,-0.001 -0.001,-0.003 -0.001,-0.004 l 0,0 c -0.014,-0.041 -0.03,-0.089 -0.049,-0.143 l 0,0 c -0.002,-0.008 -0.005,-0.016 -0.008,-0.024 l 0,0 c -0.001,-0.004 -0.002,-0.008 -0.004,-0.011 l 0,0 c 0,-0.001 0,-0.002 -10e-4,-0.003 l 0,0 c -0.004,-0.013 -0.009,-0.026 -0.013,-0.04 l 0,0 c -10e-4,-0.002 -10e-4,-0.003 -0.002,-0.005 l 0,0 c 0,-10e-4 -10e-4,-0.002 -10e-4,-0.004 l 0,0 c -0.002,-0.005 -0.004,-0.01 -0.005,-0.015 l 0,0 c -1.229,-3.618 -10.2047,-29.558 -16.9125,-35.656 l 0.5723,-6.459 c 3e-4,-0.006 7e-4,-0.011 10e-4,-0.017 l 3.616,-40.806905 c 0.011,-0.123 0.0164,-0.2461 0.0168,-0.368 0.003,-2.2769 -1.8457,-4.1671 -4.1679,-4.1671"
         style="fill:#83451f;fill-opacity:1;fill-rule:nonzero;stroke:none"
         id="path150"
         inkscape:connector-curvature="0" /><path
         d="m 321.3413,170.03892 c -2.5808,2.045 -5.1644,4.484 -7.1699,7.229 0,0 3.0133,-3.594 7.1699,-7.229"
         style="fill:#f9e6d9;fill-opacity:1;fill-rule:nonzero;stroke:none"
         id="path152"
         inkscape:connector-curvature="0" /><path
         d="m 417.1369,75.271915 -2.551,0 c -2.275,0 -4.148,1.7871 -4.255,4.0589 l -2.035,43.167105 4.591,33.78 7.871,0.984 c 0,0 -1.483,-22.673 -1.482,-44.515 0,-12.5418 0.49,-24.809005 2.03,-32.354005 0.06,-0.2949 0.089,-0.5871 0.089,-0.875 -0.004,-2.2921 -1.858,-4.246 -4.258,-4.246"
         style="fill:#83451f;fill-opacity:1;fill-rule:nonzero;stroke:none"
         id="path154"
         inkscape:connector-curvature="0" /><path
         d="m 485.1239,219.00992 c -1.413,0 -2.56,1.146 -2.56,2.56 0,1.413 1.147,2.56 2.56,2.56 1.414,0 2.56,-1.147 2.56,-2.56 0,-1.414 -1.146,-2.56 -2.56,-2.56"
         style="fill:#652a1a;fill-opacity:1;fill-rule:nonzero;stroke:none"
         id="path156"
         inkscape:connector-curvature="0" /><path
         d="m 512.8969,211.44792 c 0,0 2.939,4.665 6.182,2.903 3.244,-1.762 0.715,-4.87 0.715,-4.87 0,0 -4.408,-2.397 -6.897,1.967"
         style="fill:#975925;fill-opacity:1;fill-rule:nonzero;stroke:none"
         id="path158"
         inkscape:connector-curvature="0" /><path
         d="m 519.7459,209.45592 0,0 c 0.032,0.016 0.048,0.025 0.048,0.025 0,0 0.939,1.154 0.939,2.454 0,-1.3 -0.939,-2.454 -0.939,-2.454 0,0 -0.016,-0.009 -0.048,-0.025"
         style="fill:#ffffff;fill-opacity:1;fill-rule:nonzero;stroke:none"
         id="path160"
         inkscape:connector-curvature="0" /><path
         d="m 517.0779,208.82392 c -0.004,0 -0.009,0 -0.013,0 0.004,0 0.008,0 0.013,0 1.331,0 2.429,0.512 2.668,0.632 l 0,0 c -0.239,-0.12 -1.336,-0.632 -2.668,-0.632 m -0.017,0 c -0.004,0 -0.008,0 -0.012,0 0.004,0 0.008,0 0.012,0 m -0.018,0 c -0.004,0 -0.009,0.001 -0.013,0.001 0.005,0 0.009,-0.001 0.013,-0.001 m -0.018,0.001 c -0.008,0 -0.017,0 -0.025,0 0.008,0 0.017,0 0.025,0 m -0.028,0 c -0.004,0 -0.009,0 -0.013,0 0.004,0 0.009,0 0.013,0 m -0.019,0 c -0.004,0 -0.008,0 -0.012,0.001 0.004,-0.001 0.008,-0.001 0.012,-0.001 m -0.017,0.001 c -0.009,0 -0.018,0 -0.027,0 0.009,0 0.018,0 0.027,0 m -0.029,0 c -0.004,0.001 -0.009,0.001 -0.013,0.001 0.004,0 0.009,0 0.013,-0.001 m -0.018,0.001 c -0.005,0 -0.009,0 -0.014,0 0.005,0 0.009,0 0.014,0 m -0.017,0.001 c -0.01,0 -0.02,0 -0.029,0.001 0.009,-0.001 0.019,-0.001 0.029,-0.001 m -0.03,0.001 c -0.004,0 -0.008,0 -0.012,0 0.004,0 0.008,0 0.012,0 m -0.019,10e-4 c -0.004,0 -0.008,0 -0.012,0 0.004,0 0.008,0 0.012,0 m -0.019,0 c -0.008,0.001 -0.015,0.001 -0.023,0.002 0.008,-0.001 0.015,-0.001 0.023,-0.002 m -0.028,0.002 c -0.004,0 -0.008,0 -0.011,0 0.003,0 0.007,0 0.011,0 m -0.019,0.001 c -0.004,0 -0.008,0 -0.012,0.001 0.004,-0.001 0.008,-0.001 0.012,-0.001 m -0.019,0.001 c -0.004,0 -0.007,0.001 -0.011,0.001 0.004,0 0.007,-0.001 0.011,-0.001 m -0.018,0.001 c -0.007,10e-4 -0.014,10e-4 -0.021,0.002 0.007,-0.001 0.014,-0.001 0.021,-0.002 m -0.029,0.002 c -0.004,0 -0.007,0.001 -0.011,0.001 0.004,0 0.007,-0.001 0.011,-0.001 m -0.02,0.002 c -0.003,0 -0.007,0 -0.01,0 0.004,0 0.007,0 0.01,0 m -0.027,0.002 c -0.003,0 -0.006,0 -0.009,10e-4 0.003,-10e-4 0.006,-10e-4 0.009,-10e-4 m -0.02,0.002 c -0.003,0 -0.006,0 -0.009,0 0.003,0 0.006,0 0.009,0 m -0.021,0.001 c -0.002,0.001 -0.005,0.001 -0.007,0.001 0.002,0 0.005,0 0.007,-0.001 m -0.026,0.003 c -0.002,0 -0.004,0 -0.006,0 0.002,0 0.004,0 0.006,0 m -0.02,0.002 c -0.002,0 -0.005,0 -0.007,0 0.002,0 0.004,0 0.007,0 m -0.021,0.002 c -0.002,0 -0.004,0 -0.006,0.001 0.002,-0.001 0.004,-0.001 0.006,-0.001 m -0.026,0.003 c -10e-4,0 -10e-4,0 -0.002,0 0,0 10e-4,0 0.002,0 m -0.02,0.002 c -0.002,0 -0.004,0 -0.006,0.001 0.002,-0.001 0.004,-0.001 0.006,-0.001 m -0.022,0.003 c -10e-4,0 -0.003,0 -0.004,0 0.001,0 0.003,0 0.004,0 m -0.025,0.003 c 0,0 0,0 -10e-4,0 10e-4,0 10e-4,0 10e-4,0 m -0.021,0.002 c -10e-4,0 -0.002,0 -0.003,0.001 10e-4,-0.001 0.002,-0.001 0.003,-0.001 m -0.022,0.003 c -10e-4,0 -10e-4,0 -0.002,0 10e-4,0 10e-4,0 0.002,0 m -0.045,0.006 c -10e-4,0 -0.002,0.001 -0.003,0.001 10e-4,0 0.002,-0.001 0.003,-0.001 m -0.022,0.004 c -10e-4,0 -10e-4,0 -0.002,0 10e-4,0 10e-4,0 0.002,0 m -0.046,0.007 0,0 0,0"
         style="fill:#652a1a;fill-opacity:1;fill-rule:nonzero;stroke:none"
         id="path162"
         inkscape:connector-curvature="0" /><path
         d="m 518.8969,214.44292 c -0.2,0.095 -0.399,0.165 -0.596,0.215 0.197,-0.05 0.396,-0.12 0.596,-0.215"
         style="fill:#ffffff;fill-opacity:1;fill-rule:nonzero;stroke:none"
         id="path164"
         inkscape:connector-curvature="0" /><path
         d="m 518.3009,214.65792 c -0.018,0.004 -0.036,0.008 -0.054,0.013 0.018,-0.005 0.036,-0.009 0.054,-0.013"
         style="fill:#ffffff;fill-opacity:1;fill-rule:nonzero;stroke:none"
         id="path166"
         inkscape:connector-curvature="0" /><path
         d="m 517.0779,208.82392 c -0.005,0 -0.009,0 -0.013,0 -10e-4,0 -0.002,0 -0.004,0 -0.004,0 -0.008,0 -0.012,0 -0.002,0 -0.004,0 -0.006,0 -0.004,0 -0.008,0.001 -0.013,0.001 -10e-4,0 -0.003,0 -0.005,0 -0.008,0 -0.017,0 -0.025,0 -10e-4,0 -0.002,0 -0.003,0 -0.004,0 -0.009,0 -0.013,0 -0.002,0 -0.004,0 -0.006,0 -0.004,0 -0.008,0 -0.012,0.001 -0.002,0 -0.004,0 -0.005,0 -0.009,0 -0.018,0 -0.027,0 0,0 -10e-4,0 -0.002,0 -0.004,0.001 -0.009,0.001 -0.013,0.001 -0.002,0 -0.003,0 -0.005,0 -0.005,0 -0.009,0 -0.014,0 -10e-4,0 -0.002,0 -0.003,0.001 -0.01,0 -0.02,0 -0.029,0.001 -10e-4,0 -10e-4,0 -10e-4,0 -0.004,0 -0.008,0 -0.012,0 -0.003,0 -0.005,0 -0.007,10e-4 -0.004,0 -0.008,0 -0.012,0 -0.002,0 -0.005,0 -0.007,0 -0.008,0.001 -0.015,0.001 -0.023,0.002 -0.002,0 -0.003,0 -0.005,0 -0.004,0 -0.008,0 -0.011,0 -0.003,0.001 -0.006,0.001 -0.008,0.001 -0.004,0 -0.008,0 -0.012,0.001 -0.002,0 -0.004,0 -0.007,0 -0.004,0 -0.007,0.001 -0.011,0.001 -0.002,0 -0.004,0 -0.007,0 -0.007,10e-4 -0.014,10e-4 -0.021,0.002 -0.003,0 -0.005,0 -0.008,0 -0.004,0 -0.007,0.001 -0.011,0.001 -0.003,0 -0.006,0 -0.009,0.001 -0.003,0 -0.006,0 -0.01,0 -0.006,0.001 -0.011,0.001 -0.017,0.002 -0.003,0 -0.006,0 -0.009,10e-4 -0.003,0 -0.007,0 -0.011,0.001 -0.003,0 -0.006,0 -0.009,0 -0.004,0.001 -0.008,0.001 -0.012,0.001 -0.002,0.001 -0.005,0.001 -0.007,0.001 -0.007,0.001 -0.013,0.001 -0.019,0.002 -0.002,0 -0.004,0 -0.006,0 -0.005,10e-4 -0.009,10e-4 -0.014,0.002 -0.003,0 -0.005,0 -0.007,0 -0.005,0.001 -0.009,0.001 -0.014,0.002 -0.002,0 -0.004,0 -0.006,0.001 -0.007,0 -0.014,0.001 -0.02,0.002 -10e-4,0 -0.002,0 -0.002,0 -0.006,0.001 -0.012,0.001 -0.018,0.002 -0.002,0 -0.004,0 -0.006,0.001 -0.005,0 -0.011,0.001 -0.016,0.002 -10e-4,0 -0.003,0 -0.004,0 -0.007,10e-4 -0.014,0.002 -0.021,0.003 0,0 0,0 -10e-4,0 -0.006,0 -0.013,0.001 -0.02,0.002 -10e-4,0 -0.002,0 -0.003,0.001 -0.006,0 -0.013,10e-4 -0.019,0.002 -10e-4,0 -10e-4,0 -0.002,0 -0.014,0.002 -0.028,0.004 -0.043,0.006 -10e-4,0 -0.002,0.001 -0.003,0.001 -0.006,0.001 -0.013,0.002 -0.019,0.003 -10e-4,0 -10e-4,0 -0.002,0 -0.015,0.002 -0.029,0.004 -0.044,0.007 l 0,0 c -0.693,0.11 -1.414,0.388 -2.088,0.943 -0.958,0.787 -0.967,2.252 -0.099,3.136 0.852,0.868 2.076,1.785 3.442,1.785 0.223,0 0.45,-0.024 0.68,-0.077 0.018,-0.005 0.036,-0.009 0.054,-0.013 l 0,0 c 0.197,-0.05 0.396,-0.12 0.596,-0.215 0.02,-0.009 0.041,-0.019 0.062,-0.03 0.032,-0.015 0.064,-0.032 0.096,-0.049 0.008,-0.005 0.016,-0.009 0.024,-0.013 1.267,-0.689 1.653,-1.582 1.654,-2.416 0,-1.3 -0.939,-2.454 -0.939,-2.454 0,0 -0.016,-0.009 -0.048,-0.025 -0.239,-0.12 -1.337,-0.632 -2.668,-0.632"
         style="fill:#652a1a;fill-opacity:1;fill-rule:nonzero;stroke:none"
         id="path168"
         inkscape:connector-curvature="0" /><path
         d="m 276.0214,83.746915 c -0.1289,-1.4571 -0.2551,-2.7661 -0.3695,-3.895 -0.2485,-2.4531 1.6812,-4.58 4.1468,-4.58 l 4.636,0 c 2.4215,0 4.3332,2.057 4.1566,4.4722 l -0.2929,4.0028 -12.277,0"
         style="fill:#46372f;fill-opacity:1;fill-rule:nonzero;stroke:none"
         id="path170"
         inkscape:connector-curvature="0" /><path
         d="m 306.9089,83.746915 c -0.0773,-1.4731 -0.1828,-2.777 -0.2953,-3.893 -0.2473,-2.4559 1.6777,-4.582 4.1461,-4.582 l 4.434,0 c 2.4468,0 4.3672,2.098 4.1511,4.5351 l -0.3492,3.9399 -12.0867,0"
         style="fill:#46372f;fill-opacity:1;fill-rule:nonzero;stroke:none"
         id="path172"
         inkscape:connector-curvature="0" /><path
         d="m 394.3909,83.746915 c -0.014,-1.5778 -0.03,-2.979 -0.046,-4.1649 -0.031,-2.3742 1.885,-4.3101 4.26,-4.3101 l 1.98,0 c 2.522,0 4.517,2.1812 4.236,4.6882 -0.134,1.2008 -0.228,2.4688 -0.285,3.7868 l -10.145,0"
         style="fill:#46372f;fill-opacity:1;fill-rule:nonzero;stroke:none"
         id="path174"
         inkscape:connector-curvature="0" /><path
         d="m 410.1229,83.746915 0.208,-4.4161 c 0.107,-2.2718 1.98,-4.0589 4.255,-4.0589 l 2.536,0 c 2.684,0 4.733,2.4519 4.194,5.08 -0.214,1.045 -0.408,2.1809 -0.583,3.395 l -10.61,0"
         style="fill:#46372f;fill-opacity:1;fill-rule:nonzero;stroke:none"
         id="path176"
         inkscape:connector-curvature="0" /><path
         d="m 306.7429,232.47292 c -3.0481,0 -5.5188,1.601 -5.5188,3.577 0,1.975 2.4707,3.577 5.5188,3.577 3.0476,0 5.5183,-1.602 5.5183,-3.577 0,-1.976 -2.4707,-3.577 -5.5183,-3.577"
         style="fill:#83451f;fill-opacity:1;fill-rule:nonzero;stroke:none"
         id="path178"
         inkscape:connector-curvature="0" /><path
         d="m 318.7343,239.62692 c -1.9766,0 -3.5789,0.975 -3.5789,2.178 0,1.203 1.6023,2.179 3.5789,2.179 1.9766,0 3.5786,-0.976 3.5786,-2.179 0,-1.203 -1.602,-2.178 -3.5786,-2.178"
         style="fill:#83451f;fill-opacity:1;fill-rule:nonzero;stroke:none"
         id="path180"
         inkscape:connector-curvature="0" /><path
         d="m 326.6489,229.91292 c -1.524,0 -2.759,1.032 -2.759,2.305 0,1.273 1.235,2.305 2.759,2.305 1.524,0 2.759,-1.032 2.759,-2.305 0,-1.273 -1.235,-2.305 -2.759,-2.305"
         style="fill:#83451f;fill-opacity:1;fill-rule:nonzero;stroke:none"
         id="path182"
         inkscape:connector-curvature="0" /><path
         d="m 291.3339,235.87092 c -1.0867,0 -1.973,0.41 -2.2797,1.161 -0.4812,1.179 0.6453,2.753 2.516,3.517 0.6778,0.277 1.3606,0.409 1.9785,0.409 1.0868,0 1.9731,-0.409 2.2797,-1.161 0.4813,-1.179 -0.6453,-2.753 -2.516,-3.517 -0.6781,-0.276 -1.3605,-0.409 -1.9785,-0.409"
         style="fill:#83451f;fill-opacity:1;fill-rule:nonzero;stroke:none"
         id="path184"
         inkscape:connector-curvature="0" /><path
         d="m 335.3209,239.62692 c -1.088,0 -1.971,0.487 -1.971,1.089 0,0.601 0.883,1.089 1.971,1.089 1.089,0 1.971,-0.488 1.971,-1.089 0,-0.602 -0.882,-1.089 -1.971,-1.089"
         style="fill:#83451f;fill-opacity:1;fill-rule:nonzero;stroke:none"
         id="path186"
         inkscape:connector-curvature="0" /><path
         d="m 343.1059,229.91292 c -1.143,0 -2.069,0.516 -2.069,1.152 0,0.637 0.926,1.153 2.069,1.153 1.143,0 2.07,-0.516 2.07,-1.153 0,-0.636 -0.927,-1.152 -2.07,-1.152"
         style="fill:#83451f;fill-opacity:1;fill-rule:nonzero;stroke:none"
         id="path188"
         inkscape:connector-curvature="0" /><path
         d="m 314.528,222.69692 c -1.2519,0 -2.2668,0.618 -2.2668,1.38 0,0.762 1.0149,1.38 2.2668,1.38 1.2516,0 2.2664,-0.618 2.2664,-1.38 0,-0.762 -1.0148,-1.38 -2.2664,-1.38"
         style="fill:#83451f;fill-opacity:1;fill-rule:nonzero;stroke:none"
         id="path190"
         inkscape:connector-curvature="0" /><path
         d="m 301.921,246.35792 c 0.407,0.238 0.9606,0.385 1.5699,0.385 0.0434,0 0.0868,-0.001 0.1293,-0.003 -0.5695,-0.113 -1.1355,-0.24 -1.6992,-0.382"
         style="fill:#ffffff;fill-opacity:1;fill-rule:nonzero;stroke:none"
         id="path192"
         inkscape:connector-curvature="0" /><path
         d="m 303.4909,243.98392 c -1.2519,0 -2.2668,0.617 -2.2668,1.379 0,0.391 0.2672,0.744 0.6969,0.995 0.5637,0.142 1.1297,0.269 1.6992,0.382 1.1914,-0.04 2.1371,-0.641 2.1371,-1.377 0,-0.762 -1.0148,-1.379 -2.2664,-1.379"
         style="fill:#83451f;fill-opacity:1;fill-rule:nonzero;stroke:none"
         id="path194"
         inkscape:connector-curvature="0" /><path
         d="m 454.4539,235.13592 c 0.307,0.369 0.443,0.791 0.443,1.272 0,3.587 -7.539,10.471 -7.539,23.356 0.001,3.815 0.662,8.156 2.376,13.093 5.124,-0.098 7.523,-2.777 7.523,-2.777 0,0 -7.85,-16.488 0,-29.792 0,0 -1.224,-3.281 -2.803,-5.152"
         style="fill:#83451f;fill-opacity:1;fill-rule:nonzero;stroke:none"
         id="path196"
         inkscape:connector-curvature="0" /></g><path
       inkscape:connector-curvature="0"
       id="path382"
       style="fill:#edecea;fill-opacity:1;fill-rule:nonzero;stroke:none"
       d="m 281.103,285.156 c -20.151,0 -36.487,1.676 -36.487,3.743 0,2.066 16.336,3.742 36.487,3.742 20.152,0 36.488,-1.676 36.488,-3.742 0,-2.067 -16.336,-3.743 -36.488,-3.743" /><path
       inkscape:connector-curvature="0"
       id="path384"
       style="fill:#edecea;fill-opacity:1;fill-rule:nonzero;stroke:none"
       d="m 388.66,285.156 c -20.152,0 -36.488,1.676 -36.488,3.743 0,2.066 16.336,3.742 36.488,3.742 20.151,0 36.487,-1.676 36.487,-3.742 0,-2.067 -16.336,-3.743 -36.487,-3.743" /><path
       inkscape:connector-curvature="0"
       id="path386"
       style="fill:#b28046;fill-opacity:1;fill-rule:nonzero;stroke:none"
       d="m 455.718,558.752 c 2.008,-2.313 3.928,-4.694 5.737,-7.157 4.212,4.648 13.693,15.669 15.644,22.74 0,0 -19.384,3.921 -28.808,-8.853 3.035,-1.372 5.304,-4.284 7.427,-6.73" /><path
       inkscape:connector-curvature="0"
       id="path388"
       style="fill:#8f603c;fill-opacity:1;fill-rule:nonzero;stroke:none"
       d="m 321.207,408.997 c 0,0 14.2,-23.351 -3.787,-40.707 0,0 -15.462,-12.622 -16.409,-18.933 0,0 2.756,-45.475 5.95,-59.154 0.135,-0.576 -0.001,-1.181 -0.369,-1.645 -0.367,-0.463 -0.926,-0.734 -1.517,-0.734 l -9.117,0 c -1.049,0 -1.907,0.834 -1.935,1.883 -0.25,9.09 -1.642,48.399 -7.212,58.703 0,0 11.991,23.351 0,52.698 0,0 21.458,16.409 34.396,7.889" /><path
       inkscape:connector-curvature="0"
       id="path390"
       style="fill:#8f603c;fill-opacity:1;fill-rule:nonzero;stroke:none"
       d="m 399.464,396.059 0,-106.298 c 0,-1.07 0.868,-1.937 1.937,-1.937 l 8.651,0 c 0.548,0 1.07,0.232 1.438,0.639 0.367,0.407 0.544,0.95 0.489,1.495 -0.958,9.453 -4.338,47.752 2.001,63.185 7.258,17.672 19.564,33.134 20.511,68.476 l -35.027,-25.56" /><path
       inkscape:connector-curvature="0"
       id="path392"
       style="fill:#835936;fill-opacity:1;fill-rule:nonzero;stroke:none"
       d="m 442.115,562.496 c 0,0 3.016,6.324 0.298,17.696 -2.718,11.373 -4.985,23.79 -2.107,25.598 2.877,1.809 3.701,1.317 4.485,-12.012 0.783,-13.329 5.44,-17.752 11.958,-13.926 6.519,3.827 12.096,18.959 13.363,24.323 1.266,5.363 4.057,9.401 5.585,4.548 1.527,-4.854 -1.671,-17.884 -3.674,-19.212 -2.003,-1.328 14.384,0.959 17.732,16.004 3.347,15.046 -5.02,32.765 -1.295,33.445 3.726,0.68 10.967,-21.414 9.733,-32.225 0,0 13.415,6.299 4.266,23.554 -9.15,17.255 -12.26,24.626 -8.225,25.363 4.036,0.736 2.906,-1.956 6.85,-9.897 3.945,-7.94 8.352,-14.513 13.543,-11.32 5.191,3.193 -1.474,20.493 -4.817,26.386 -4.493,7.921 -0.243,10.167 1.794,8.988 4.319,-2.499 13.682,-21.72 11.517,-32.701 0,0 7.066,6.102 4.578,21.045 -2.828,16.992 -6.745,18.496 -3.788,20.639 3.794,2.751 23.584,-25.847 2.577,-53.098 -21.007,-27.251 -26.285,-34.092 -65.027,-50.124 -4.54,-1.878 -9.504,-1.975 -12.938,-14.791 l -6.408,1.717" /><path
       inkscape:connector-curvature="0"
       id="path394"
       style="fill:#cc9954;fill-opacity:1;fill-rule:nonzero;stroke:none"
       d="m 477.091,536.481 c -10.098,7.573 -15.778,15.462 -15.778,15.462 0,0 -8.25,14.831 -11.991,14.831 0,0 -17.208,4.802 -31.556,-5.68 0,0 -13.884,9.467 -25.559,9.151 0,0 -2.84,-8.52 14.831,-22.72 0,0 6.311,-35.657 -24.298,-51.12 -30.609,-15.462 -40.707,-17.04 -50.173,-17.04 -9.467,0 -46.071,8.836 -69.738,-16.408 0,0 -18.618,-10.729 -22.404,-34.08 0,0 0.631,-9.467 4.417,-16.094 0,0 5.996,2.525 7.889,8.836 0,0 -5.364,-19.564 8.205,-43.862 0,0 0.315,-11.676 -11.045,-22.089 0,0 -0.315,-4.733 5.049,-15.778 4.652,-9.577 3.846,-41.693 3.55,-50.06 -0.019,-0.525 0.177,-1.035 0.542,-1.413 0.365,-0.379 0.868,-0.593 1.394,-0.593 l 9.785,0 c 0.538,0 1.052,0.224 1.419,0.618 0.366,0.394 0.552,0.924 0.513,1.461 -0.758,10.455 -3.98,57.012 -1.741,62.609 2.525,6.311 20.827,19.565 25.56,31.556 4.734,11.991 2.84,19.88 2.84,19.88 0,0 18.934,1.262 30.294,-6.627 11.36,-7.889 35.026,-12.938 35.026,-12.938 0,0 1.578,-24.928 7.258,-49.226 l 2.427,-45.499 c 0.054,-1.029 0.904,-1.834 1.934,-1.834 l 10.09,0 c 0.517,0 1.012,0.206 1.376,0.573 0.364,0.367 0.566,0.864 0.561,1.381 -0.096,11.274 -0.289,68.378 5.385,93.343 0,0 27.769,0 38.182,25.876 0,0 11.676,21.773 19.565,31.555 7.889,9.782 11.991,26.507 4.418,43.547 -7.574,17.04 -1.263,32.502 -1.263,32.502 0,0 19.88,-2.209 26.822,0.947 6.943,3.155 6.312,11.36 -3.786,18.933" /><path
       inkscape:connector-curvature="0"
       id="path396"
       style="fill:#e2a460;fill-opacity:1;fill-rule:nonzero;stroke:none"
       d="m 252.731,421.619 c 0,0 1.105,11.754 2.761,14.594 0,0 -9.466,-5.206 -10.65,-23.43 0,0 5.128,2.525 7.889,8.836" /><path
       inkscape:connector-curvature="0"
       id="path398"
       style="fill:#986f44;fill-opacity:1;fill-rule:nonzero;stroke:none"
       d="m 430.914,559.547 c 1.644,0.783 2.483,2.629 1.834,4.33 -1.182,3.1 -2.465,8.26 -2.071,15.544 0.693,12.829 0.693,26.699 -2.774,28.086 -3.467,1.387 -4.261,0.693 -2.477,-13.87 1.783,-14.563 -2.377,-20.262 -10.179,-17.412 -7.801,2.849 -16.817,18.106 -19.244,23.654 -2.427,5.547 -6.241,9.361 -6.934,3.814 -0.694,-5.548 5.335,-19.002 7.762,-20.042 2.428,-1.04 -15.737,-1.803 -22.325,13.8 -6.588,15.604 -1.041,36.408 -5.201,36.408 -4.161,0 -7.629,-25.312 -4.161,-36.754 0,0 -15.745,4.161 -9.259,24.618 6.485,20.457 8.392,29.039 3.884,29.039 -4.507,0 -2.755,-2.687 -5.451,-12.049 -2.697,-9.362 -6.164,-17.337 -12.405,-14.91 -6.242,2.428 -2.451,22.443 0,29.473 3.293,9.448 -1.744,11.038 -3.713,9.362 -4.176,-3.554 -10.504,-26.179 -5.996,-37.621 0,0 -8.842,5.201 -9.102,21.844 -0.296,18.926 3.641,21.325 0.021,23.058 -4.643,2.224 -20.392,-32.593 7.694,-57.905 28.086,-25.311 35.14,-31.665 80.183,-41.348 4.763,-1.024 9.613,-0.411 15.101,-9.968 0.912,-1.587 2.922,-2.133 4.544,-1.286 l 0.219,0.111 0.05,0.024" /><path
       inkscape:connector-curvature="0"
       id="path400"
       style="fill:#8f603c;fill-opacity:1;fill-rule:nonzero;stroke:none"
       d="m 481.676,531.045 c 0,0 -4.811,-1.461 -2.275,-6.792 1.801,-3.784 4.861,-3.403 4.861,-3.403 0,0 5.897,9.785 -2.586,10.195" /><path
       inkscape:connector-curvature="0"
       id="path402"
       style="fill:#8f603c;fill-opacity:1;fill-rule:nonzero;stroke:none"
       d="m 437.938,542.518 c 0,-1.372 -1.112,-2.485 -2.485,-2.485 -1.372,0 -2.485,1.113 -2.485,2.485 0,1.373 1.113,2.485 2.485,2.485 1.373,0 2.485,-1.112 2.485,-2.485" /><path
       inkscape:connector-curvature="0"
       id="path404"
       style="fill:#e2a460;fill-opacity:1;fill-rule:nonzero;stroke:none"
       d="m 469.637,475.54 c -1.239,5.698 -4.6,9.488 -8.092,11.97 -6.935,4.929 -10.788,13.188 -9.438,21.588 0.728,4.528 1.87,7.327 1.87,7.327 -30.942,-5.044 -37.031,7.878 -37.031,7.878 -16.95,-42.936 2.364,-51.055 7.091,-75.637 4.727,-24.582 -30.885,-65.552 -30.885,-65.552 l 1.52,0.077 c 5.876,0.427 27.655,3.505 36.614,25.766 0,0 7.057,13.16 13.901,23.605 12.88,8.275 14.056,21.147 14.056,21.147 l 1.358,-1.574 c 3.11,6.814 0,15.406 0,15.406 l 5.48,-1.482 c -0.109,3.714 -1.707,7.345 -3.679,10.452 3.878,-1.516 7.235,-0.971 7.235,-0.971" /></g></svg>