<?xml version="1.0" encoding="UTF-8" standalone="no"?>
<svg
   xmlns:dc="http://purl.org/dc/elements/1.1/"
   xmlns:cc="http://creativecommons.org/ns#"
   xmlns:rdf="http://www.w3.org/1999/02/22-rdf-syntax-ns#"
   xmlns:svg="http://www.w3.org/2000/svg"
   xmlns="http://www.w3.org/2000/svg"
   xmlns:sodipodi="http://sodipodi.sourceforge.net/DTD/sodipodi-0.dtd"
   xmlns:inkscape="http://www.inkscape.org/namespaces/inkscape"
   viewBox="0 0 756.00 432.00"
   version="1.1"
   id="svg1134"
   sodipodi:docname="dampening-cycles_all_strains_one.svg"
   inkscape:version="0.92.3 (2405546, 2018-03-11)">
  <metadata
     id="metadata1138">
    <rdf:RDF>
      <cc:Work
         rdf:about="">
        <dc:format>image/svg+xml</dc:format>
        <dc:type
           rdf:resource="http://purl.org/dc/dcmitype/StillImage" />
        <dc:title></dc:title>
      </cc:Work>
    </rdf:RDF>
  </metadata>
  <sodipodi:namedview
     pagecolor="#ffffff"
     bordercolor="#666666"
     borderopacity="1"
     objecttolerance="10"
     gridtolerance="10"
     guidetolerance="10"
     inkscape:pageopacity="0"
     inkscape:pageshadow="2"
     inkscape:window-width="1920"
     inkscape:window-height="1009"
     id="namedview1136"
     showgrid="false"
     inkscape:zoom="0.99892863"
     inkscape:cx="305.84044"
     inkscape:cy="189.68544"
     inkscape:window-x="0"
     inkscape:window-y="0"
     inkscape:window-maximized="1"
     inkscape:current-layer="svg1134" />
  <defs
     id="defs4">
    <style
       type="text/css"
       id="style2"><![CDATA[
    line, polyline, polygon, path, rect, circle {
      fill: none;
      stroke: #000000;
      stroke-linecap: round;
      stroke-linejoin: round;
      stroke-miterlimit: 10.00;
    }
  ]]></style>
  </defs>
  <defs
     id="defs13">
    <clipPath
       id="cpNDkuOTJ8MjYyLjMzfDExMi43N3wyMi4xMw==">
      <rect
         x="49.92"
         y="22.13"
         width="212.41"
         height="90.64"
         id="rect10" />
    </clipPath>
  </defs>
  <defs
     id="defs54">
    <clipPath
       id="cpMC4wMHw3NTYuMDB8NDMyLjAwfDAuMDA=">
      <rect
         x="0.00"
         y="0.00"
         width="756.00"
         height="432.00"
         id="rect51" />
    </clipPath>
  </defs>
  <defs
     id="defs59">
    <clipPath
       id="cpNDkuOTJ8MjYyLjMzfDIwOC44OHwxMTguMjQ=">
      <rect
         x="49.92"
         y="118.24"
         width="212.41"
         height="90.64"
         id="rect56" />
    </clipPath>
  </defs>
  <polyline
     points="59.57,204.57 60.87,204.09 62.16,201.71 63.46,188.81 64.76,144.35 66.05,125.26 67.35,147.15 68.64,144.74 69.94,128.68 71.24,134.31 72.53,143.17 73.83,137.80 75.12,132.78 76.42,138.19 77.72,141.11 79.01,141.92 80.31,160.79 81.60,193.49 82.90,203.41 84.20,204.52 85.49,204.69 86.79,204.74 88.08,204.76 89.38,204.75 90.68,204.69 91.97,204.50 93.27,203.79 94.56,200.10 95.86,180.89 97.16,131.84 98.45,131.29 99.75,149.26 101.04,140.40 102.34,127.64 103.64,137.72 104.93,142.95 106.23,135.55 107.52,133.56 108.82,139.60 110.12,140.94 111.41,144.14 112.71,169.85 114.00,198.10 115.30,203.95 116.60,204.59 117.89,204.71 119.19,204.75 120.48,204.76 121.78,204.74 123.08,204.66 124.37,204.40 125.67,203.34 126.96,197.60 128.26,170.13 129.56,124.04 130.85,137.94 132.15,149.37 133.44,135.60 134.74,128.68 136.04,140.56 137.33,141.75 138.63,133.78 139.92,134.99 141.22,140.57 142.52,140.79 143.81,148.05 145.11,179.25 146.40,200.95 147.70,204.25 149.00,204.63 150.29,204.72 151.59,204.76 152.88,204.76 154.18,204.72 155.48,204.62 156.77,204.27 158.07,202.64 159.36,193.76 160.66,156.87 161.96,122.37 163.25,143.61 164.55,147.62 165.84,131.30 167.14,131.32 168.44,142.44 169.73,139.81 171.03,132.83 172.32,136.70 173.62,141.04 174.92,141.03 176.21,153.96 177.51,187.66 178.80,202.58 180.10,204.42 181.40,204.67 182.69,204.73 183.99,204.76 185.28,204.76 186.58,204.71 187.88,204.56 189.17,204.06 190.47,201.56 191.76,188.02 193.06,142.73 194.36,125.86 195.65,147.50 196.95,144.28 198.24,128.45 199.54,134.72 200.84,143.20 202.13,137.52 203.43,132.83 204.72,138.38 206.02,141.10 207.32,142.11 208.61,161.79 209.91,194.14 211.20,203.49 212.50,204.53 213.80,204.69 215.09,204.74 216.39,204.76 217.68,204.75 218.98,204.68 220.28,204.49 221.57,203.75 222.87,199.86 224.16,179.78 225.46,130.64 226.76,132.08 228.05,149.38 229.35,139.84 230.64,127.66 231.94,138.09 233.24,142.86 234.53,135.31 235.83,133.70 237.12,139.74 238.42,140.92 239.72,144.50 241.01,170.96 242.31,198.52 243.60,203.99 244.90,204.59 246.20,204.71 247.49,204.75 248.79,204.76 250.08,204.74 251.38,204.65 252.67,204.39 "
     style="stroke-width: 1.07; stroke: #016394; stroke-linecap: butt;"
     clip-path="url(#cpNDkuOTJ8MjYyLjMzfDIwOC44OHwxMTguMjQ=)"
     id="polyline93" />
  <defs
     id="defs101">
    <clipPath
       id="clipPath99">
      <rect
         x="0.00"
         y="0.00"
         width="756.00"
         height="432.00"
         id="rect97" />
    </clipPath>
  </defs>
  <defs
     id="defs106">
    <clipPath
       id="cpNDkuOTJ8MjYyLjMzfDMwNS4wMHwyMTQuMzY=">
      <rect
         x="49.92"
         y="214.36"
         width="212.41"
         height="90.64"
         id="rect103" />
    </clipPath>
  </defs>
  <polyline
     points="59.57,300.69 60.87,300.21 62.16,297.83 63.46,284.93 64.76,240.47 66.05,221.37 67.35,243.26 68.64,240.86 69.94,224.80 71.24,230.43 72.53,239.29 73.83,233.91 75.12,228.90 76.42,234.31 77.72,237.22 79.01,238.04 80.31,256.90 81.60,289.61 82.90,299.53 84.20,300.64 85.49,300.80 86.79,300.86 88.08,300.88 89.38,300.87 90.68,300.80 91.97,300.62 93.27,299.91 94.56,296.22 95.86,277.01 97.16,227.96 98.45,227.41 99.75,245.38 101.04,236.51 102.34,223.75 103.64,233.84 104.93,239.07 106.23,231.67 107.52,229.68 108.82,235.72 110.12,237.06 111.41,240.26 112.71,265.97 114.00,294.22 115.30,300.06 116.60,300.71 117.89,300.82 119.19,300.87 120.48,300.88 121.78,300.86 123.08,300.77 124.37,300.52 125.67,299.46 126.96,293.72 128.26,266.25 129.56,220.16 130.85,234.06 132.15,245.49 133.44,231.71 134.74,224.80 136.04,236.68 137.33,237.86 138.63,229.90 139.92,231.11 141.22,236.68 142.52,236.91 143.81,244.17 145.11,275.37 146.40,297.06 147.70,300.37 149.00,300.75 150.29,300.84 151.59,300.88 152.88,300.88 154.18,300.84 155.48,300.73 156.77,300.38 158.07,298.76 159.36,289.88 160.66,252.99 161.96,218.49 163.25,239.73 164.55,243.74 165.84,227.41 167.14,227.44 168.44,238.55 169.73,235.93 171.03,228.95 172.32,232.82 173.62,237.16 174.92,237.15 176.21,250.08 177.51,283.78 178.80,298.70 180.10,300.54 181.40,300.78 182.69,300.85 183.99,300.88 185.28,300.87 186.58,300.82 187.88,300.68 189.17,300.18 190.47,297.68 191.76,284.14 193.06,238.85 194.36,221.98 195.65,243.62 196.95,240.40 198.24,224.56 199.54,230.84 200.84,239.32 202.13,233.64 203.43,228.95 204.72,234.49 206.02,237.21 207.32,238.23 208.61,257.91 209.91,290.26 211.20,299.61 212.50,300.65 213.80,300.81 215.09,300.86 216.39,300.88 217.68,300.87 218.98,300.80 220.28,300.61 221.57,299.87 222.87,295.98 224.16,275.89 225.46,226.75 226.76,228.19 228.05,245.49 229.35,235.96 230.64,223.77 231.94,234.21 233.24,238.97 234.53,231.43 235.83,229.82 237.12,235.86 238.42,237.03 239.72,240.62 241.01,267.08 242.31,294.64 243.60,300.11 244.90,300.71 246.20,300.82 247.49,300.87 248.79,300.88 250.08,300.85 251.38,300.77 252.67,300.51 "
     style="stroke-width: 1.07; stroke: #B6003B; stroke-linecap: butt;"
     clip-path="url(#cpNDkuOTJ8MjYyLjMzfDMwNS4wMHwyMTQuMzY=)"
     id="polyline140" />
  <defs
     id="defs148">
    <clipPath
       id="clipPath146">
      <rect
         x="0.00"
         y="0.00"
         width="756.00"
         height="432.00"
         id="rect144" />
    </clipPath>
  </defs>
  <defs
     id="defs153">
    <clipPath
       id="cpNDkuOTJ8MjYyLjMzfDQwMS4xMnwzMTAuNDg=">
      <rect
         x="49.92"
         y="310.48"
         width="212.41"
         height="90.64"
         id="rect150" />
    </clipPath>
  </defs>
  <defs
     id="defs195">
    <clipPath
       id="clipPath193">
      <rect
         x="0.00"
         y="0.00"
         width="756.00"
         height="432.00"
         id="rect191" />
    </clipPath>
  </defs>
  <defs
     id="defs200">
    <clipPath
       id="cpMjk1LjM1fDUwNy43NnwxMTIuNzd8MjIuMTM=">
      <rect
         x="295.35"
         y="22.13"
         width="212.41"
         height="90.64"
         id="rect197" />
    </clipPath>
  </defs>
  <defs
     id="defs244">
    <clipPath
       id="clipPath242">
      <rect
         x="0.00"
         y="0.00"
         width="756.00"
         height="432.00"
         id="rect240" />
    </clipPath>
  </defs>
  <defs
     id="defs249">
    <clipPath
       id="cpMjk1LjM1fDUwNy43NnwyMDguODh8MTE4LjI0">
      <rect
         x="295.35"
         y="118.24"
         width="212.41"
         height="90.64"
         id="rect246" />
    </clipPath>
  </defs>
  <polyline
     points="305.00,178.12 306.30,180.55 307.60,182.46 308.89,182.58 310.19,176.18 311.48,163.82 312.78,157.12 314.07,153.89 315.37,150.25 316.67,147.24 317.96,146.18 319.26,145.55 320.55,144.54 321.85,143.95 323.15,143.95 324.44,144.01 325.74,144.73 327.03,147.88 328.33,152.76 329.63,157.62 330.92,162.08 332.22,166.13 333.51,169.79 334.81,173.11 336.11,176.10 337.40,178.78 338.70,181.11 339.99,182.77 341.29,181.83 342.59,173.02 343.88,161.43 345.18,156.19 346.47,153.03 347.77,149.29 349.07,146.82 350.36,146.04 351.66,145.31 352.95,144.31 354.25,143.92 355.55,143.97 356.84,144.06 358.14,145.27 359.43,149.07 360.73,154.05 362.03,158.81 363.32,163.16 364.62,167.11 365.91,170.68 367.21,173.91 368.51,176.82 369.80,179.42 371.10,181.63 372.39,182.93 373.69,180.51 374.99,169.62 376.28,159.57 377.58,155.37 378.87,152.11 380.17,148.45 381.47,146.53 382.76,145.90 384.06,145.04 385.35,144.14 386.65,143.92 387.95,143.98 389.24,144.19 390.54,146.00 391.83,150.33 393.13,155.31 394.43,159.97 395.72,164.21 397.02,168.06 398.31,171.54 399.61,174.69 400.91,177.52 402.20,180.03 403.50,182.10 404.79,182.88 406.09,178.52 407.39,166.36 408.68,158.13 409.98,154.59 411.27,151.12 412.57,147.74 413.87,146.32 415.16,145.73 416.46,144.77 417.75,144.02 419.05,143.94 420.35,143.99 421.64,144.41 422.94,146.93 424.23,151.62 425.53,156.55 426.83,161.10 428.12,165.24 429.42,168.99 430.71,172.38 432.01,175.45 433.31,178.20 434.60,180.62 435.90,182.50 437.19,182.52 438.49,175.83 439.79,163.51 441.08,157.00 442.38,153.79 443.67,150.13 444.97,147.19 446.27,146.16 447.56,145.52 448.86,144.51 450.15,143.95 451.45,143.95 452.75,144.01 454.04,144.79 455.34,148.02 456.63,152.92 457.93,157.77 459.23,162.21 460.52,166.24 461.82,169.90 463.11,173.20 464.41,176.19 465.71,178.86 467.00,181.18 468.30,182.80 469.59,181.71 470.89,172.63 472.19,161.19 473.48,156.09 474.78,152.93 476.07,149.19 477.37,146.78 478.67,146.03 479.96,145.28 481.26,144.29 482.55,143.92 483.85,143.97 485.15,144.07 486.44,145.34 487.74,149.22 489.03,154.20 490.33,158.95 491.63,163.29 492.92,167.22 494.22,170.78 495.51,174.00 496.81,176.90 498.11,179.49 "
     style="stroke-width: 1.07; stroke: #016394; stroke-linecap: butt;"
     clip-path="url(#cpMjk1LjM1fDUwNy43NnwyMDguODh8MTE4LjI0)"
     id="polyline285" />
  <defs
     id="defs293">
    <clipPath
       id="clipPath291">
      <rect
         x="0.00"
         y="0.00"
         width="756.00"
         height="432.00"
         id="rect289" />
    </clipPath>
  </defs>
  <defs
     id="defs298">
    <clipPath
       id="cpMjk1LjM1fDUwNy43NnwzMDUuMDB8MjE0LjM2">
      <rect
         x="295.35"
         y="214.36"
         width="212.41"
         height="90.64"
         id="rect295" />
    </clipPath>
  </defs>
  <polyline
     points="305.00,274.24 306.30,276.67 307.60,278.58 308.89,278.70 310.19,272.30 311.48,259.93 312.78,253.24 314.07,250.00 315.37,246.36 316.67,243.36 317.96,242.30 319.26,241.67 320.55,240.66 321.85,240.07 323.15,240.07 324.44,240.13 325.74,240.85 327.03,244.00 328.33,248.88 329.63,253.74 330.92,258.20 332.22,262.24 333.51,265.91 334.81,269.23 336.11,272.22 337.40,274.90 338.70,277.23 339.99,278.89 341.29,277.95 342.59,269.14 343.88,257.55 345.18,252.30 346.47,249.15 347.77,245.41 349.07,242.94 350.36,242.16 351.66,241.43 352.95,240.43 354.25,240.04 355.55,240.09 356.84,240.18 358.14,241.38 359.43,245.19 360.73,250.17 362.03,254.93 363.32,259.28 364.62,263.22 365.91,266.80 367.21,270.03 368.51,272.94 369.80,275.54 371.10,277.75 372.39,279.05 373.69,276.63 374.99,265.74 376.28,255.68 377.58,251.49 378.87,248.22 380.17,244.56 381.47,242.64 382.76,242.02 384.06,241.16 385.35,240.26 386.65,240.04 387.95,240.10 389.24,240.30 390.54,242.12 391.83,246.45 393.13,251.43 394.43,256.09 395.72,260.33 397.02,264.18 398.31,267.66 399.61,270.81 400.91,273.64 402.20,276.15 403.50,278.22 404.79,279.00 406.09,274.63 407.39,262.48 408.68,254.25 409.98,250.71 411.27,247.24 412.57,243.86 413.87,242.44 415.16,241.85 416.46,240.89 417.75,240.14 419.05,240.05 420.35,240.11 421.64,240.53 422.94,243.04 424.23,247.74 425.53,252.67 426.83,257.22 428.12,261.36 429.42,265.11 430.71,268.50 432.01,271.57 433.31,274.32 434.60,276.74 435.90,278.62 437.19,278.63 438.49,271.95 439.79,259.63 441.08,253.12 442.38,249.91 443.67,246.25 444.97,243.31 446.27,242.28 447.56,241.64 448.86,240.63 450.15,240.07 451.45,240.07 452.75,240.13 454.04,240.90 455.34,244.13 456.63,249.03 457.93,253.88 459.23,258.33 460.52,262.36 461.82,266.01 463.11,269.32 464.41,272.30 465.71,274.98 467.00,277.29 468.30,278.91 469.59,277.83 470.89,268.74 472.19,257.31 473.48,252.20 474.78,249.05 476.07,245.31 477.37,242.90 478.67,242.15 479.96,241.40 481.26,240.41 482.55,240.04 483.85,240.09 485.15,240.19 486.44,241.46 487.74,245.33 489.03,250.31 490.33,255.07 491.63,259.40 492.92,263.34 494.22,266.90 495.51,270.12 496.81,273.02 498.11,275.61 "
     style="stroke-width: 1.07; stroke: #B6003B; stroke-linecap: butt;"
     clip-path="url(#cpMjk1LjM1fDUwNy43NnwzMDUuMDB8MjE0LjM2)"
     id="polyline334" />
  <defs
     id="defs342">
    <clipPath
       id="clipPath340">
      <rect
         x="0.00"
         y="0.00"
         width="756.00"
         height="432.00"
         id="rect338" />
    </clipPath>
  </defs>
  <defs
     id="defs347">
    <clipPath
       id="cpMjk1LjM1fDUwNy43Nnw0MDEuMTJ8MzEwLjQ4">
      <rect
         x="295.35"
         y="310.48"
         width="212.41"
         height="90.64"
         id="rect344" />
    </clipPath>
  </defs>
  <defs
     id="defs391">
    <clipPath
       id="clipPath389">
      <rect
         x="0.00"
         y="0.00"
         width="756.00"
         height="432.00"
         id="rect387" />
    </clipPath>
  </defs>
  <defs
     id="defs396">
    <clipPath
       id="cpNTIxLjQ2fDczMy44N3wxMTIuNzd8MjIuMTM=">
      <rect
         x="521.46"
         y="22.13"
         width="212.41"
         height="90.64"
         id="rect393" />
    </clipPath>
  </defs>
  <defs
     id="defs440">
    <clipPath
       id="clipPath438">
      <rect
         x="0.00"
         y="0.00"
         width="756.00"
         height="432.00"
         id="rect436" />
    </clipPath>
  </defs>
  <defs
     id="defs445">
    <clipPath
       id="cpNTIxLjQ2fDczMy44N3wyMDguODh8MTE4LjI0">
      <rect
         x="521.46"
         y="118.24"
         width="212.41"
         height="90.64"
         id="rect442" />
    </clipPath>
  </defs>
  <polyline
     points="531.11,134.10 532.41,134.21 533.71,134.47 535.00,134.44 536.30,134.62 537.59,135.62 538.89,137.94 540.19,140.28 541.48,141.11 542.78,141.28 544.07,142.11 545.37,142.75 546.67,142.66 547.96,142.65 549.26,142.92 550.55,142.64 551.85,140.59 553.15,136.27 554.44,134.56 555.74,135.23 557.03,135.09 558.33,134.06 559.63,134.13 560.92,134.61 562.22,134.39 563.51,134.07 564.81,134.30 566.11,134.48 567.40,134.44 568.70,134.77 569.99,136.11 571.29,138.62 572.59,140.66 573.88,141.12 575.18,141.44 576.47,142.34 577.77,142.78 579.07,142.62 580.36,142.72 581.66,142.94 582.95,142.34 584.25,139.59 585.55,135.42 586.84,134.65 588.14,135.35 589.43,134.81 590.73,133.96 592.03,134.28 593.32,134.63 594.62,134.26 595.91,134.09 597.21,134.38 598.51,134.47 599.80,134.46 601.10,134.98 602.39,136.69 603.69,139.27 604.99,140.92 606.28,141.14 607.58,141.65 608.87,142.53 610.17,142.76 611.47,142.60 612.76,142.80 614.06,142.90 615.35,141.91 616.65,138.42 617.95,134.87 619.24,134.84 620.54,135.37 621.83,134.51 623.13,133.95 624.43,134.43 625.72,134.58 627.02,134.16 628.31,134.15 629.61,134.44 630.91,134.45 632.20,134.52 633.50,135.28 634.79,137.34 636.09,139.85 637.39,141.06 638.68,141.19 639.98,141.89 641.27,142.67 642.57,142.71 643.87,142.61 645.16,142.87 646.46,142.80 647.75,141.31 649.05,137.23 650.35,134.60 651.64,135.06 652.94,135.27 654.23,134.24 655.53,134.02 656.83,134.55 658.12,134.49 659.42,134.09 660.71,134.22 662.01,134.47 663.31,134.44 664.60,134.63 665.90,135.68 667.19,138.02 668.49,140.33 669.79,141.11 671.08,141.30 672.38,142.14 673.67,142.75 674.97,142.65 676.27,142.66 677.56,142.93 678.86,142.61 680.15,140.49 681.45,136.16 682.75,134.56 684.04,135.25 685.34,135.06 686.63,134.05 687.93,134.15 689.23,134.62 690.52,134.37 691.82,134.07 693.11,134.31 694.41,134.48 695.71,134.44 697.00,134.79 698.30,136.18 699.59,138.70 700.89,140.70 702.19,141.12 703.48,141.47 704.78,142.37 706.07,142.78 707.37,142.61 708.67,142.73 709.96,142.94 711.26,142.30 712.55,139.46 713.85,135.34 715.15,134.67 716.44,135.36 717.74,134.78 719.03,133.95 720.33,134.30 721.63,134.63 722.92,134.25 724.22,134.10 "
     style="stroke-width: 1.07; stroke: #016394; stroke-linecap: butt;"
     clip-path="url(#cpNTIxLjQ2fDczMy44N3wyMDguODh8MTE4LjI0)"
     id="polyline481" />
  <defs
     id="defs489">
    <clipPath
       id="clipPath487">
      <rect
         x="0.00"
         y="0.00"
         width="756.00"
         height="432.00"
         id="rect485" />
    </clipPath>
  </defs>
  <defs
     id="defs494">
    <clipPath
       id="cpNTIxLjQ2fDczMy44N3wzMDUuMDB8MjE0LjM2">
      <rect
         x="521.46"
         y="214.36"
         width="212.41"
         height="90.64"
         id="rect491" />
    </clipPath>
  </defs>
  <polyline
     points="531.11,230.22 532.41,230.33 533.71,230.59 535.00,230.56 536.30,230.73 537.59,231.74 538.89,234.06 540.19,236.40 541.48,237.23 542.78,237.40 544.07,238.23 545.37,238.87 546.67,238.78 547.96,238.77 549.26,239.04 550.55,238.75 551.85,236.71 553.15,232.39 554.44,230.67 555.74,231.35 557.03,231.21 558.33,230.18 559.63,230.25 560.92,230.73 562.22,230.50 563.51,230.19 564.81,230.41 566.11,230.60 567.40,230.55 568.70,230.88 569.99,232.23 571.29,234.74 572.59,236.78 573.88,237.24 575.18,237.56 576.47,238.46 577.77,238.89 579.07,238.73 580.36,238.84 581.66,239.06 582.95,238.46 584.25,235.71 585.55,231.54 586.84,230.77 588.14,231.47 589.43,230.93 590.73,230.07 592.03,230.40 593.32,230.75 594.62,230.38 595.91,230.21 597.21,230.49 598.51,230.59 599.80,230.58 601.10,231.10 602.39,232.81 603.69,235.39 604.99,237.04 606.28,237.25 607.58,237.77 608.87,238.65 610.17,238.87 611.47,238.72 612.76,238.92 614.06,239.02 615.35,238.03 616.65,234.54 617.95,230.99 619.24,230.96 620.54,231.49 621.83,230.63 623.13,230.07 624.43,230.55 625.72,230.70 627.02,230.28 628.31,230.26 629.61,230.55 630.91,230.57 632.20,230.64 633.50,231.40 634.79,233.46 636.09,235.97 637.39,237.18 638.68,237.31 639.98,238.01 641.27,238.79 642.57,238.83 643.87,238.73 645.16,238.99 646.46,238.92 647.75,237.42 649.05,233.35 650.35,230.72 651.64,231.18 652.94,231.39 654.23,230.36 655.53,230.14 656.83,230.67 658.12,230.61 659.42,230.21 660.71,230.34 662.01,230.59 663.31,230.55 664.60,230.75 665.90,231.79 667.19,234.14 668.49,236.45 669.79,237.23 671.08,237.41 672.38,238.26 673.67,238.87 674.97,238.77 676.27,238.78 677.56,239.04 678.86,238.73 680.15,236.60 681.45,232.28 682.75,230.68 684.04,231.37 685.34,231.18 686.63,230.16 687.93,230.27 689.23,230.74 690.52,230.49 691.82,230.19 693.11,230.42 694.41,230.60 695.71,230.55 697.00,230.91 698.30,232.29 699.59,234.82 700.89,236.82 702.19,237.24 703.48,237.58 704.78,238.48 706.07,238.89 707.37,238.73 708.67,238.85 709.96,239.06 711.26,238.42 712.55,235.58 713.85,231.46 715.15,230.79 716.44,231.48 717.74,230.89 719.03,230.07 720.33,230.42 721.63,230.74 722.92,230.37 724.22,230.21 "
     style="stroke-width: 1.07; stroke: #B6003B; stroke-linecap: butt;"
     clip-path="url(#cpNTIxLjQ2fDczMy44N3wzMDUuMDB8MjE0LjM2)"
     id="polyline530" />
  <defs
     id="defs538">
    <clipPath
       id="clipPath536">
      <rect
         x="0.00"
         y="0.00"
         width="756.00"
         height="432.00"
         id="rect534" />
    </clipPath>
  </defs>
  <defs
     id="defs543">
    <clipPath
       id="cpNTIxLjQ2fDczMy44N3w0MDEuMTJ8MzEwLjQ4">
      <rect
         x="521.46"
         y="310.48"
         width="212.41"
         height="90.64"
         id="rect540" />
    </clipPath>
  </defs>
  <defs
     id="defs587">
    <clipPath
       id="clipPath585">
      <rect
         x="0.00"
         y="0.00"
         width="756.00"
         height="432.00"
         id="rect583" />
    </clipPath>
  </defs>
  <defs
     id="defs592">
    <clipPath
       id="cpNDkuOTJ8MjYyLjMzfDIyLjEzfDUuNDg=">
      <rect
         x="49.92"
         y="5.48"
         width="212.41"
         height="16.65"
         id="rect589" />
    </clipPath>
  </defs>
  <defs
     id="defs604">
    <clipPath
       id="clipPath602">
      <rect
         x="0.00"
         y="0.00"
         width="756.00"
         height="432.00"
         id="rect600" />
    </clipPath>
  </defs>
  <defs
     id="defs609">
    <clipPath
       id="cpMjYyLjMzfDI2Mi4zM3wxMTIuNzd8MjIuMTM=">
      <rect
         x="262.33"
         y="22.13"
         width="0.00"
         height="90.64"
         id="rect606" />
    </clipPath>
  </defs>
  <defs
     id="defs615">
    <clipPath
       id="clipPath613">
      <rect
         x="0.00"
         y="0.00"
         width="756.00"
         height="432.00"
         id="rect611" />
    </clipPath>
  </defs>
  <defs
     id="defs620">
    <clipPath
       id="cpMjYyLjMzfDI2Mi4zM3wyMDguODh8MTE4LjI0">
      <rect
         x="262.33"
         y="118.24"
         width="0.00"
         height="90.64"
         id="rect617" />
    </clipPath>
  </defs>
  <defs
     id="defs626">
    <clipPath
       id="clipPath624">
      <rect
         x="0.00"
         y="0.00"
         width="756.00"
         height="432.00"
         id="rect622" />
    </clipPath>
  </defs>
  <defs
     id="defs631">
    <clipPath
       id="cpMjYyLjMzfDI2Mi4zM3wzMDUuMDB8MjE0LjM2">
      <rect
         x="262.33"
         y="214.36"
         width="0.00"
         height="90.64"
         id="rect628" />
    </clipPath>
  </defs>
  <defs
     id="defs637">
    <clipPath
       id="clipPath635">
      <rect
         x="0.00"
         y="0.00"
         width="756.00"
         height="432.00"
         id="rect633" />
    </clipPath>
  </defs>
  <defs
     id="defs642">
    <clipPath
       id="cpMjYyLjMzfDI2Mi4zM3w0MDEuMTJ8MzEwLjQ4">
      <rect
         x="262.33"
         y="310.48"
         width="0.00"
         height="90.64"
         id="rect639" />
    </clipPath>
  </defs>
  <defs
     id="defs648">
    <clipPath
       id="clipPath646">
      <rect
         x="0.00"
         y="0.00"
         width="756.00"
         height="432.00"
         id="rect644" />
    </clipPath>
  </defs>
  <defs
     id="defs653">
    <clipPath
       id="cpMjk1LjM1fDUwNy43NnwyMi4xM3w1LjQ4">
      <rect
         x="295.35"
         y="5.48"
         width="212.41"
         height="16.65"
         id="rect650" />
    </clipPath>
  </defs>
  <defs
     id="defs665">
    <clipPath
       id="clipPath663">
      <rect
         x="0.00"
         y="0.00"
         width="756.00"
         height="432.00"
         id="rect661" />
    </clipPath>
  </defs>
  <defs
     id="defs670">
    <clipPath
       id="cpNTA3Ljc2fDUwNy43NnwxMTIuNzd8MjIuMTM=">
      <rect
         x="507.76"
         y="22.13"
         width="0.00"
         height="90.64"
         id="rect667" />
    </clipPath>
  </defs>
  <defs
     id="defs676">
    <clipPath
       id="clipPath674">
      <rect
         x="0.00"
         y="0.00"
         width="756.00"
         height="432.00"
         id="rect672" />
    </clipPath>
  </defs>
  <defs
     id="defs681">
    <clipPath
       id="cpNTA3Ljc2fDUwNy43NnwyMDguODh8MTE4LjI0">
      <rect
         x="507.76"
         y="118.24"
         width="0.00"
         height="90.64"
         id="rect678" />
    </clipPath>
  </defs>
  <defs
     id="defs687">
    <clipPath
       id="clipPath685">
      <rect
         x="0.00"
         y="0.00"
         width="756.00"
         height="432.00"
         id="rect683" />
    </clipPath>
  </defs>
  <defs
     id="defs692">
    <clipPath
       id="cpNTA3Ljc2fDUwNy43NnwzMDUuMDB8MjE0LjM2">
      <rect
         x="507.76"
         y="214.36"
         width="0.00"
         height="90.64"
         id="rect689" />
    </clipPath>
  </defs>
  <defs
     id="defs698">
    <clipPath
       id="clipPath696">
      <rect
         x="0.00"
         y="0.00"
         width="756.00"
         height="432.00"
         id="rect694" />
    </clipPath>
  </defs>
  <defs
     id="defs703">
    <clipPath
       id="cpNTA3Ljc2fDUwNy43Nnw0MDEuMTJ8MzEwLjQ4">
      <rect
         x="507.76"
         y="310.48"
         width="0.00"
         height="90.64"
         id="rect700" />
    </clipPath>
  </defs>
  <defs
     id="defs709">
    <clipPath
       id="clipPath707">
      <rect
         x="0.00"
         y="0.00"
         width="756.00"
         height="432.00"
         id="rect705" />
    </clipPath>
  </defs>
  <defs
     id="defs714">
    <clipPath
       id="cpNTIxLjQ2fDczMy44N3wyMi4xM3w1LjQ4">
      <rect
         x="521.46"
         y="5.48"
         width="212.41"
         height="16.65"
         id="rect711" />
    </clipPath>
  </defs>
  <defs
     id="defs726">
    <clipPath
       id="clipPath724">
      <rect
         x="0.00"
         y="0.00"
         width="756.00"
         height="432.00"
         id="rect722" />
    </clipPath>
  </defs>
  <defs
     id="defs731">
    <clipPath
       id="cpNzMzLjg3fDc1MC41MnwxMTIuNzd8MjIuMTM=">
      <rect
         x="733.87"
         y="22.13"
         width="16.65"
         height="90.64"
         id="rect728" />
    </clipPath>
  </defs>
  <defs
     id="defs743">
    <clipPath
       id="clipPath741">
      <rect
         x="0.00"
         y="0.00"
         width="756.00"
         height="432.00"
         id="rect739" />
    </clipPath>
  </defs>
  <defs
     id="defs748">
    <clipPath
       id="cpNzMzLjg3fDc1MC41MnwyMDguODh8MTE4LjI0">
      <rect
         x="733.87"
         y="118.24"
         width="16.65"
         height="90.64"
         id="rect745" />
    </clipPath>
  </defs>
  <defs
     id="defs760">
    <clipPath
       id="clipPath758">
      <rect
         x="0.00"
         y="0.00"
         width="756.00"
         height="432.00"
         id="rect756" />
    </clipPath>
  </defs>
  <defs
     id="defs765">
    <clipPath
       id="cpNzMzLjg3fDc1MC41MnwzMDUuMDB8MjE0LjM2">
      <rect
         x="733.87"
         y="214.36"
         width="16.65"
         height="90.64"
         id="rect762" />
    </clipPath>
  </defs>
  <defs
     id="defs777">
    <clipPath
       id="clipPath775">
      <rect
         x="0.00"
         y="0.00"
         width="756.00"
         height="432.00"
         id="rect773" />
    </clipPath>
  </defs>
  <defs
     id="defs782">
    <clipPath
       id="cpNzMzLjg3fDc1MC41Mnw0MDEuMTJ8MzEwLjQ4">
      <rect
         x="733.87"
         y="310.48"
         width="16.65"
         height="90.64"
         id="rect779" />
    </clipPath>
  </defs>
  <defs
     id="defs794">
    <clipPath
       id="clipPath792">
      <rect
         x="0.00"
         y="0.00"
         width="756.00"
         height="432.00"
         id="rect790" />
    </clipPath>
  </defs>
  <defs
     id="defs1103">
    <clipPath
       id="cpNS40OHw3NTAuNTJ8NS40OHw1LjQ4">
      <rect
         x="5.48"
         y="5.48"
         width="745.04"
         height="0.00"
         id="rect1100" />
    </clipPath>
  </defs>
  <defs
     id="defs1109">
    <clipPath
       id="clipPath1107">
      <rect
         x="0.00"
         y="0.00"
         width="756.00"
         height="432.00"
         id="rect1105" />
    </clipPath>
  </defs>
  <defs
     id="defs1115">
    <clipPath
       id="clipPath1113">
      <rect
         x="5.48"
         y="5.48"
         width="745.04"
         height="0.00"
         id="rect1111" />
    </clipPath>
  </defs>
  <defs
     id="defs1121">
    <clipPath
       id="clipPath1119">
      <rect
         x="0.00"
         y="0.00"
         width="756.00"
         height="432.00"
         id="rect1117" />
    </clipPath>
  </defs>
  <defs
     id="defs1126">
    <clipPath
       id="cpNS40OHw3NTAuNTJ8NDI2LjUyfDQyNi41Mg==">
      <rect
         x="5.48"
         y="426.52"
         width="745.04"
         height="0.00"
         id="rect1123" />
    </clipPath>
  </defs>
  <defs
     id="defs1132">
    <clipPath
       id="clipPath1130">
      <rect
         x="0.00"
         y="0.00"
         width="756.00"
         height="432.00"
         id="rect1128" />
    </clipPath>
  </defs>
</svg>
