<?xml version="1.0" encoding="UTF-8" standalone="no"?>
<svg
   xmlns:dc="http://purl.org/dc/elements/1.1/"
   xmlns:cc="http://creativecommons.org/ns#"
   xmlns:rdf="http://www.w3.org/1999/02/22-rdf-syntax-ns#"
   xmlns:svg="http://www.w3.org/2000/svg"
   xmlns="http://www.w3.org/2000/svg"
   xmlns:sodipodi="http://sodipodi.sourceforge.net/DTD/sodipodi-0.dtd"
   xmlns:inkscape="http://www.inkscape.org/namespaces/inkscape"
   viewBox="0 0 756.00 432.00"
   version="1.1"
   id="svg1134"
   sodipodi:docname="dampening-cycles_all_strains_two.svg"
   inkscape:version="0.92.3 (2405546, 2018-03-11)">
  <metadata
     id="metadata1138">
    <rdf:RDF>
      <cc:Work
         rdf:about="">
        <dc:format>image/svg+xml</dc:format>
        <dc:type
           rdf:resource="http://purl.org/dc/dcmitype/StillImage" />
        <dc:title></dc:title>
      </cc:Work>
    </rdf:RDF>
  </metadata>
  <sodipodi:namedview
     pagecolor="#ffffff"
     bordercolor="#666666"
     borderopacity="1"
     objecttolerance="10"
     gridtolerance="10"
     guidetolerance="10"
     inkscape:pageopacity="0"
     inkscape:pageshadow="2"
     inkscape:window-width="1920"
     inkscape:window-height="1009"
     id="namedview1136"
     showgrid="false"
     inkscape:zoom="0.99892863"
     inkscape:cx="305.84044"
     inkscape:cy="189.68544"
     inkscape:window-x="0"
     inkscape:window-y="0"
     inkscape:window-maximized="1"
     inkscape:current-layer="svg1134" />
  <defs
     id="defs4">
    <style
       type="text/css"
       id="style2"><![CDATA[
    line, polyline, polygon, path, rect, circle {
      fill: none;
      stroke: #000000;
      stroke-linecap: round;
      stroke-linejoin: round;
      stroke-miterlimit: 10.00;
    }
  ]]></style>
  </defs>
  <defs
     id="defs13">
    <clipPath
       id="cpNDkuOTJ8MjYyLjMzfDExMi43N3wyMi4xMw==">
      <rect
         x="49.92"
         y="22.13"
         width="212.41"
         height="90.64"
         id="rect10" />
    </clipPath>
  </defs>
  <polyline
     points="59.57,38.02 60.87,43.97 62.16,44.73 63.46,49.52 64.76,77.92 66.05,103.43 67.35,107.98 68.64,108.49 69.94,108.59 71.24,108.64 72.53,108.64 73.83,108.62 75.12,108.52 76.42,108.23 77.72,106.95 79.01,99.98 80.31,68.41 81.60,26.44 82.90,44.51 84.20,52.70 85.49,37.46 86.79,33.58 88.08,45.40 89.38,44.85 90.68,37.13 91.97,39.61 93.27,44.72 94.56,44.71 95.86,54.29 97.16,87.04 98.45,105.67 99.75,108.22 101.04,108.53 102.34,108.61 103.64,108.64 104.93,108.64 106.23,108.60 107.52,108.48 108.82,108.07 110.12,106.11 111.41,95.38 112.71,54.47 114.00,27.29 115.30,49.45 116.60,50.20 117.89,33.69 119.19,36.66 120.48,46.80 121.78,42.70 123.08,36.59 124.37,41.35 125.67,44.99 126.96,45.26 128.26,61.08 129.56,94.67 130.85,106.93 132.15,108.36 133.44,108.56 134.74,108.62 136.04,108.64 137.33,108.63 138.63,108.58 139.92,108.42 141.22,107.82 142.52,104.78 143.81,88.60 145.11,40.83 146.40,32.30 147.70,52.46 149.00,46.30 150.29,31.71 151.59,40.14 152.88,47.06 154.18,40.39 155.48,37.00 156.77,42.91 158.07,44.91 159.36,46.86 160.66,69.61 161.96,100.20 163.25,107.63 164.55,108.44 165.84,108.58 167.14,108.63 168.44,108.65 169.73,108.63 171.03,108.55 172.32,108.33 173.62,107.45 174.92,102.72 176.21,79.11 177.51,30.64 178.80,38.94 180.10,53.45 181.40,41.60 182.69,31.87 183.99,43.29 185.28,46.27 186.58,38.36 187.88,38.18 189.17,44.08 190.47,44.72 191.76,49.98 193.06,79.03 194.36,103.76 195.65,108.02 196.95,108.50 198.24,108.60 199.54,108.64 200.84,108.64 202.13,108.61 203.43,108.52 204.72,108.22 206.02,106.87 207.32,99.54 208.61,66.84 209.91,26.25 211.20,45.18 212.50,52.49 213.80,36.95 215.09,33.89 216.39,45.62 217.68,44.62 218.98,37.02 220.28,39.82 221.57,44.77 222.87,44.73 224.16,54.98 225.46,88.03 226.76,105.85 228.05,108.24 229.35,108.53 230.64,108.61 231.94,108.64 233.24,108.64 234.53,108.60 235.83,108.47 237.12,108.04 238.42,105.98 239.72,94.71 241.01,52.80 242.31,27.71 243.60,49.91 244.90,49.81 246.20,33.36 247.49,37.06 248.79,46.89 250.08,42.43 251.38,36.59 252.67,41.55 "
     style="stroke-width: 1.07; stroke: #F74700; stroke-linecap: butt;"
     clip-path="url(#cpNDkuOTJ8MjYyLjMzfDExMi43N3wyMi4xMw==)"
     id="polyline47" />
  <defs
     id="defs54">
    <clipPath
       id="cpMC4wMHw3NTYuMDB8NDMyLjAwfDAuMDA=">
      <rect
         x="0.00"
         y="0.00"
         width="756.00"
         height="432.00"
         id="rect51" />
    </clipPath>
  </defs>
  <defs
     id="defs59">
    <clipPath
       id="cpNDkuOTJ8MjYyLjMzfDIwOC44OHwxMTguMjQ=">
      <rect
         x="49.92"
         y="118.24"
         width="212.41"
         height="90.64"
         id="rect56" />
    </clipPath>
  </defs>
  <defs
     id="defs101">
    <clipPath
       id="clipPath99">
      <rect
         x="0.00"
         y="0.00"
         width="756.00"
         height="432.00"
         id="rect97" />
    </clipPath>
  </defs>
  <defs
     id="defs106">
    <clipPath
       id="cpNDkuOTJ8MjYyLjMzfDMwNS4wMHwyMTQuMzY=">
      <rect
         x="49.92"
         y="214.36"
         width="212.41"
         height="90.64"
         id="rect103" />
    </clipPath>
  </defs>
  <defs
     id="defs148">
    <clipPath
       id="clipPath146">
      <rect
         x="0.00"
         y="0.00"
         width="756.00"
         height="432.00"
         id="rect144" />
    </clipPath>
  </defs>
  <defs
     id="defs153">
    <clipPath
       id="cpNDkuOTJ8MjYyLjMzfDQwMS4xMnwzMTAuNDg=">
      <rect
         x="49.92"
         y="310.48"
         width="212.41"
         height="90.64"
         id="rect150" />
    </clipPath>
  </defs>
  <polyline
     points="59.57,326.37 60.87,332.32 62.16,333.09 63.46,337.87 64.76,366.27 66.05,391.78 67.35,396.34 68.64,396.85 69.94,396.95 71.24,396.99 72.53,397.00 73.83,396.97 75.12,396.87 76.42,396.58 77.72,395.31 79.01,388.34 80.31,356.76 81.60,314.79 82.90,332.86 84.20,341.05 85.49,325.81 86.79,321.93 88.08,333.75 89.38,333.20 90.68,325.48 91.97,327.97 93.27,333.07 94.56,333.06 95.86,342.64 97.16,375.39 98.45,394.02 99.75,396.57 101.04,396.88 102.34,396.96 103.64,396.99 104.93,396.99 106.23,396.95 107.52,396.83 108.82,396.42 110.12,394.46 111.41,383.73 112.71,342.82 114.00,315.64 115.30,337.80 116.60,338.55 117.89,322.05 119.19,325.01 120.48,335.15 121.78,331.06 123.08,324.95 124.37,329.70 125.67,333.34 126.96,333.61 128.26,349.43 129.56,383.02 130.85,395.28 132.15,396.71 133.44,396.91 134.74,396.97 136.04,397.00 137.33,396.99 138.63,396.93 139.92,396.77 141.22,396.17 142.52,393.14 143.81,376.96 145.11,329.18 146.40,320.66 147.70,340.81 149.00,334.65 150.29,320.06 151.59,328.49 152.88,335.41 154.18,328.75 155.48,325.36 156.77,331.26 158.07,333.27 159.36,335.21 160.66,357.97 161.96,388.55 163.25,395.98 164.55,396.80 165.84,396.93 167.14,396.98 168.44,397.00 169.73,396.98 171.03,396.91 172.32,396.69 173.62,395.80 174.92,391.07 176.21,367.47 177.51,318.99 178.80,327.29 180.10,341.80 181.40,329.95 182.69,320.22 183.99,331.64 185.28,334.62 186.58,326.72 187.88,326.54 189.17,332.44 190.47,333.07 191.76,338.33 193.06,367.38 194.36,392.11 195.65,396.37 196.95,396.85 198.24,396.95 199.54,396.99 200.84,397.00 202.13,396.97 203.43,396.87 204.72,396.57 206.02,395.23 207.32,387.89 208.61,355.20 209.91,314.60 211.20,333.53 212.50,340.84 213.80,325.30 215.09,322.24 216.39,333.98 217.68,332.97 218.98,325.37 220.28,328.17 221.57,333.12 222.87,333.09 224.16,343.34 225.46,376.38 226.76,394.21 228.05,396.59 229.35,396.89 230.64,396.96 231.94,397.00 233.24,396.99 234.53,396.95 235.83,396.82 237.12,396.40 238.42,394.33 239.72,383.06 241.01,341.15 242.31,316.06 243.60,338.26 244.90,338.16 246.20,321.71 247.49,325.42 248.79,335.24 250.08,330.79 251.38,324.95 252.67,329.90 "
     style="stroke-width: 1.07; stroke: #005342; stroke-linecap: butt;"
     clip-path="url(#cpNDkuOTJ8MjYyLjMzfDQwMS4xMnwzMTAuNDg=)"
     id="polyline187" />
  <defs
     id="defs195">
    <clipPath
       id="clipPath193">
      <rect
         x="0.00"
         y="0.00"
         width="756.00"
         height="432.00"
         id="rect191" />
    </clipPath>
  </defs>
  <defs
     id="defs200">
    <clipPath
       id="cpMjk1LjM1fDUwNy43NnwxMTIuNzd8MjIuMTM=">
      <rect
         x="295.35"
         y="22.13"
         width="212.41"
         height="90.64"
         id="rect197" />
    </clipPath>
  </defs>
  <polyline
     points="305.00,48.11 306.30,47.80 307.60,47.86 308.89,47.99 310.19,49.45 311.48,53.50 312.78,58.49 314.07,63.21 315.37,67.51 316.67,71.41 317.96,74.94 319.26,78.14 320.55,81.02 321.85,83.58 323.15,85.73 324.44,86.82 325.74,83.60 327.03,72.03 328.33,62.77 329.63,58.91 330.92,55.56 332.22,52.00 333.51,50.31 334.81,49.71 336.11,48.80 337.40,47.96 338.70,47.81 339.99,47.87 341.29,48.15 342.59,50.27 343.88,54.78 345.18,59.75 346.47,64.36 347.77,68.55 349.07,72.36 350.36,75.80 351.66,78.91 352.95,81.71 354.25,84.18 355.55,86.17 356.84,86.65 358.14,81.29 359.43,68.92 360.73,61.48 362.03,58.12 363.32,54.57 364.62,51.36 365.91,50.13 367.21,49.53 368.51,48.53 369.80,47.86 371.10,47.83 372.39,47.88 373.69,48.44 374.99,51.27 376.28,56.08 377.58,60.97 378.87,65.48 380.17,69.57 381.47,73.28 382.76,76.63 384.06,79.66 385.35,82.38 386.65,84.75 387.95,86.53 389.24,86.11 390.54,78.35 391.83,66.30 393.13,60.46 394.43,57.30 395.72,53.59 397.02,50.87 398.31,49.99 399.61,49.30 400.91,48.29 402.20,47.81 403.50,47.84 404.79,47.92 406.09,48.89 407.39,52.42 408.68,57.37 409.98,62.17 411.27,66.57 412.57,70.56 413.87,74.17 415.16,77.44 416.46,80.39 417.75,83.02 419.05,85.29 420.35,86.76 421.64,85.06 422.94,75.01 424.23,64.21 425.53,59.60 426.83,56.41 428.12,52.69 429.42,50.53 430.71,49.85 432.01,49.04 433.31,48.09 434.60,47.80 435.90,47.86 437.19,48.00 438.49,49.53 439.79,53.65 441.08,58.64 442.38,63.35 443.67,67.63 444.97,71.52 446.27,75.05 447.56,78.23 448.86,81.10 450.15,83.65 451.45,85.79 452.75,86.82 454.04,83.37 455.34,71.64 456.63,62.60 457.93,58.82 459.23,55.44 460.52,51.91 461.82,50.28 463.11,49.69 464.41,48.77 465.71,47.95 467.00,47.81 468.30,47.87 469.59,48.18 470.89,50.38 472.19,54.93 473.48,59.89 474.78,64.49 476.07,68.67 477.37,72.46 478.67,75.90 479.96,79.00 481.26,81.79 482.55,84.25 483.85,86.22 485.15,86.61 486.44,80.98 487.74,68.59 489.03,61.35 490.33,58.03 491.63,54.45 492.92,51.29 494.22,50.11 495.51,49.50 496.81,48.50 498.11,47.85 "
     style="stroke-width: 1.07; stroke: #F74700; stroke-linecap: butt;"
     clip-path="url(#cpMjk1LjM1fDUwNy43NnwxMTIuNzd8MjIuMTM=)"
     id="polyline236" />
  <defs
     id="defs244">
    <clipPath
       id="clipPath242">
      <rect
         x="0.00"
         y="0.00"
         width="756.00"
         height="432.00"
         id="rect240" />
    </clipPath>
  </defs>
  <defs
     id="defs249">
    <clipPath
       id="cpMjk1LjM1fDUwNy43NnwyMDguODh8MTE4LjI0">
      <rect
         x="295.35"
         y="118.24"
         width="212.41"
         height="90.64"
         id="rect246" />
    </clipPath>
  </defs>
  <defs
     id="defs293">
    <clipPath
       id="clipPath291">
      <rect
         x="0.00"
         y="0.00"
         width="756.00"
         height="432.00"
         id="rect289" />
    </clipPath>
  </defs>
  <defs
     id="defs298">
    <clipPath
       id="cpMjk1LjM1fDUwNy43NnwzMDUuMDB8MjE0LjM2">
      <rect
         x="295.35"
         y="214.36"
         width="212.41"
         height="90.64"
         id="rect295" />
    </clipPath>
  </defs>
  <defs
     id="defs342">
    <clipPath
       id="clipPath340">
      <rect
         x="0.00"
         y="0.00"
         width="756.00"
         height="432.00"
         id="rect338" />
    </clipPath>
  </defs>
  <defs
     id="defs347">
    <clipPath
       id="cpMjk1LjM1fDUwNy43Nnw0MDEuMTJ8MzEwLjQ4">
      <rect
         x="295.35"
         y="310.48"
         width="212.41"
         height="90.64"
         id="rect344" />
    </clipPath>
  </defs>
  <polyline
     points="305.00,336.47 306.30,336.15 307.60,336.21 308.89,336.34 310.19,337.80 311.48,341.86 312.78,346.84 314.07,351.56 315.37,355.86 316.67,359.77 317.96,363.30 319.26,366.49 320.55,369.37 321.85,371.93 323.15,374.08 324.44,375.18 325.74,371.96 327.03,360.38 328.33,351.12 329.63,347.26 330.92,343.91 332.22,340.35 333.51,338.66 334.81,338.07 336.11,337.16 337.40,336.31 338.70,336.16 339.99,336.22 341.29,336.51 342.59,338.62 343.88,343.13 345.18,348.10 346.47,352.71 347.77,356.91 349.07,360.71 350.36,364.15 351.66,367.26 352.95,370.06 354.25,372.53 355.55,374.52 356.84,375.00 358.14,369.65 359.43,357.27 360.73,349.84 362.03,346.48 363.32,342.92 364.62,339.71 365.91,338.48 367.21,337.88 368.51,336.89 369.80,336.22 371.10,336.18 372.39,336.23 373.69,336.79 374.99,339.63 376.28,344.43 377.58,349.33 378.87,353.83 380.17,357.92 381.47,361.63 382.76,364.98 384.06,368.01 385.35,370.73 386.65,373.11 387.95,374.88 389.24,374.46 390.54,366.70 391.83,354.65 393.13,348.82 394.43,345.65 395.72,341.94 397.02,339.23 398.31,338.34 399.61,337.65 400.91,336.64 402.20,336.17 403.50,336.20 404.79,336.27 406.09,337.24 407.39,340.77 408.68,345.72 409.98,350.53 411.27,354.92 412.57,358.91 413.87,362.53 415.16,365.79 416.46,368.74 417.75,371.38 419.05,373.65 420.35,375.12 421.64,373.41 422.94,363.36 424.23,352.57 425.53,347.96 426.83,344.76 428.12,341.04 429.42,338.88 430.71,338.20 432.01,337.40 433.31,336.45 434.60,336.15 435.90,336.21 437.19,336.36 438.49,337.89 439.79,342.01 441.08,346.99 442.38,351.70 443.67,355.99 444.97,359.88 446.27,363.40 447.56,366.58 448.86,369.45 450.15,372.00 451.45,374.14 452.75,375.17 454.04,371.72 455.34,360.00 456.63,350.95 457.93,347.17 459.23,343.80 460.52,340.27 461.82,338.64 463.11,338.05 464.41,337.12 465.71,336.30 467.00,336.16 468.30,336.22 469.59,336.53 470.89,338.73 472.19,343.29 473.48,348.24 474.78,352.84 476.07,357.03 477.37,360.82 478.67,364.25 479.96,367.35 481.26,370.14 482.55,372.60 483.85,374.57 485.15,374.96 486.44,369.33 487.74,356.94 489.03,349.70 490.33,346.38 491.63,342.80 492.92,339.65 494.22,338.46 495.51,337.85 496.81,336.86 498.11,336.21 "
     style="stroke-width: 1.07; stroke: #005342; stroke-linecap: butt;"
     clip-path="url(#cpMjk1LjM1fDUwNy43Nnw0MDEuMTJ8MzEwLjQ4)"
     id="polyline383" />
  <defs
     id="defs391">
    <clipPath
       id="clipPath389">
      <rect
         x="0.00"
         y="0.00"
         width="756.00"
         height="432.00"
         id="rect387" />
    </clipPath>
  </defs>
  <defs
     id="defs396">
    <clipPath
       id="cpNTIxLjQ2fDczMy44N3wxMTIuNzd8MjIuMTM=">
      <rect
         x="521.46"
         y="22.13"
         width="212.41"
         height="90.64"
         id="rect393" />
    </clipPath>
  </defs>
  <polyline
     points="531.11,46.49 532.41,46.64 533.71,46.81 535.00,46.06 536.30,42.97 537.59,39.03 538.89,38.61 540.19,39.26 541.48,38.56 542.78,37.82 544.07,38.23 545.37,38.50 546.67,38.10 547.96,37.99 549.26,38.29 550.55,38.35 551.85,38.37 553.15,38.98 554.44,40.85 555.74,43.42 557.03,44.88 558.33,45.04 559.63,45.64 560.92,46.49 562.22,46.62 563.51,46.48 564.81,46.72 566.11,46.75 567.40,45.55 568.70,41.77 569.99,38.60 571.29,38.82 572.59,39.22 573.88,38.26 575.18,37.85 576.47,38.37 577.77,38.43 579.07,38.01 580.36,38.06 581.66,38.34 582.95,38.33 584.25,38.45 585.55,39.32 586.84,41.52 588.14,43.96 589.43,44.97 590.73,45.11 592.03,45.88 593.32,46.60 594.62,46.57 595.91,46.51 597.21,46.78 598.51,46.61 599.80,44.85 601.10,40.62 602.39,38.44 603.69,39.03 604.99,39.07 606.28,38.02 607.58,37.96 608.87,38.47 610.17,38.32 611.47,37.96 612.76,38.14 614.06,38.36 615.35,38.32 616.65,38.58 617.95,39.77 619.24,42.20 620.54,44.39 621.83,45.00 623.13,45.25 624.43,46.12 625.72,46.65 627.02,46.51 628.31,46.57 629.61,46.82 630.91,46.37 632.20,43.94 633.50,39.65 634.79,38.48 636.09,39.19 637.39,38.82 638.68,37.87 639.98,38.10 641.27,38.51 642.57,38.20 643.87,37.96 645.16,38.22 646.46,38.36 647.75,38.33 649.05,38.76 650.35,40.31 651.64,42.87 652.94,44.70 654.23,45.01 655.53,45.44 656.83,46.34 658.12,46.65 659.42,46.48 660.71,46.65 662.01,46.81 663.31,46.01 664.60,42.83 665.90,38.96 667.19,38.64 668.49,39.26 669.79,38.52 671.08,37.82 672.38,38.25 673.67,38.49 674.97,38.08 676.27,38.00 677.56,38.29 678.86,38.35 680.15,38.37 681.45,39.02 682.75,40.93 684.04,43.49 685.34,44.89 686.63,45.04 687.93,45.67 689.23,46.50 690.52,46.61 691.82,46.49 693.11,46.73 694.41,46.74 695.71,45.48 697.00,41.63 698.30,38.57 699.59,38.85 700.89,39.21 702.19,38.23 703.48,37.86 704.78,38.39 706.07,38.42 707.37,38.00 708.67,38.07 709.96,38.34 711.26,38.33 712.55,38.46 713.85,39.37 715.15,41.60 716.44,44.02 717.74,44.98 719.03,45.12 720.33,45.91 721.63,46.61 722.92,46.56 724.22,46.52 "
     style="stroke-width: 1.07; stroke: #F74700; stroke-linecap: butt;"
     clip-path="url(#cpNTIxLjQ2fDczMy44N3wxMTIuNzd8MjIuMTM=)"
     id="polyline432" />
  <defs
     id="defs440">
    <clipPath
       id="clipPath438">
      <rect
         x="0.00"
         y="0.00"
         width="756.00"
         height="432.00"
         id="rect436" />
    </clipPath>
  </defs>
  <defs
     id="defs445">
    <clipPath
       id="cpNTIxLjQ2fDczMy44N3wyMDguODh8MTE4LjI0">
      <rect
         x="521.46"
         y="118.24"
         width="212.41"
         height="90.64"
         id="rect442" />
    </clipPath>
  </defs>
  <defs
     id="defs489">
    <clipPath
       id="clipPath487">
      <rect
         x="0.00"
         y="0.00"
         width="756.00"
         height="432.00"
         id="rect485" />
    </clipPath>
  </defs>
  <defs
     id="defs494">
    <clipPath
       id="cpNTIxLjQ2fDczMy44N3wzMDUuMDB8MjE0LjM2">
      <rect
         x="521.46"
         y="214.36"
         width="212.41"
         height="90.64"
         id="rect491" />
    </clipPath>
  </defs>
  <defs
     id="defs538">
    <clipPath
       id="clipPath536">
      <rect
         x="0.00"
         y="0.00"
         width="756.00"
         height="432.00"
         id="rect534" />
    </clipPath>
  </defs>
  <defs
     id="defs543">
    <clipPath
       id="cpNTIxLjQ2fDczMy44N3w0MDEuMTJ8MzEwLjQ4">
      <rect
         x="521.46"
         y="310.48"
         width="212.41"
         height="90.64"
         id="rect540" />
    </clipPath>
  </defs>
  <polyline
     points="531.11,334.84 532.41,334.99 533.71,335.17 535.00,334.41 536.30,331.32 537.59,327.38 538.89,326.97 540.19,327.61 541.48,326.91 542.78,326.18 544.07,326.59 545.37,326.85 546.67,326.45 547.96,326.35 549.26,326.64 550.55,326.70 551.85,326.72 553.15,327.34 554.44,329.21 555.74,331.77 557.03,333.23 558.33,333.39 559.63,333.99 560.92,334.84 562.22,334.97 563.51,334.84 564.81,335.07 566.11,335.10 567.40,333.91 568.70,330.13 569.99,326.96 571.29,327.18 572.59,327.58 573.88,326.62 575.18,326.21 576.47,326.73 577.77,326.78 579.07,326.36 580.36,326.41 581.66,326.69 582.95,326.68 584.25,326.80 585.55,327.68 586.84,329.87 588.14,332.31 589.43,333.33 590.73,333.46 592.03,334.24 593.32,334.95 594.62,334.92 595.91,334.87 597.21,335.14 598.51,334.96 599.80,333.21 601.10,328.97 602.39,326.80 603.69,327.39 604.99,327.42 606.28,326.38 607.58,326.31 608.87,326.82 610.17,326.68 611.47,326.31 612.76,326.49 614.06,326.72 615.35,326.67 616.65,326.93 617.95,328.12 619.24,330.56 620.54,332.75 621.83,333.35 623.13,333.60 624.43,334.48 625.72,335.01 627.02,334.87 628.31,334.93 629.61,335.17 630.91,334.72 632.20,332.29 633.50,328.00 634.79,326.83 636.09,327.55 637.39,327.17 638.68,326.23 639.98,326.45 641.27,326.87 642.57,326.55 643.87,326.31 645.16,326.58 646.46,326.72 647.75,326.68 649.05,327.11 650.35,328.66 651.64,331.22 652.94,333.06 654.23,333.36 655.53,333.79 656.83,334.69 658.12,335.01 659.42,334.84 660.71,335.00 662.01,335.16 663.31,334.36 664.60,331.19 665.90,327.31 667.19,326.99 668.49,327.61 669.79,326.88 671.08,326.18 672.38,326.60 673.67,326.85 674.97,326.44 676.27,326.35 677.56,326.65 678.86,326.70 680.15,326.73 681.45,327.37 682.75,329.28 684.04,331.84 685.34,333.24 686.63,333.39 687.93,334.02 689.23,334.86 690.52,334.97 691.82,334.84 693.11,335.08 694.41,335.09 695.71,333.83 697.00,329.99 698.30,326.92 699.59,327.20 700.89,327.56 702.19,326.59 703.48,326.22 704.78,326.74 706.07,326.77 707.37,326.35 708.67,326.42 709.96,326.70 711.26,326.68 712.55,326.81 713.85,327.72 715.15,329.95 716.44,332.37 717.74,333.33 719.03,333.48 720.33,334.27 721.63,334.96 722.92,334.91 724.22,334.87 "
     style="stroke-width: 1.07; stroke: #005342; stroke-linecap: butt;"
     clip-path="url(#cpNTIxLjQ2fDczMy44N3w0MDEuMTJ8MzEwLjQ4)"
     id="polyline579" />
  <defs
     id="defs587">
    <clipPath
       id="clipPath585">
      <rect
         x="0.00"
         y="0.00"
         width="756.00"
         height="432.00"
         id="rect583" />
    </clipPath>
  </defs>
  <defs
     id="defs592">
    <clipPath
       id="cpNDkuOTJ8MjYyLjMzfDIyLjEzfDUuNDg=">
      <rect
         x="49.92"
         y="5.48"
         width="212.41"
         height="16.65"
         id="rect589" />
    </clipPath>
  </defs>
  <defs
     id="defs604">
    <clipPath
       id="clipPath602">
      <rect
         x="0.00"
         y="0.00"
         width="756.00"
         height="432.00"
         id="rect600" />
    </clipPath>
  </defs>
  <defs
     id="defs609">
    <clipPath
       id="cpMjYyLjMzfDI2Mi4zM3wxMTIuNzd8MjIuMTM=">
      <rect
         x="262.33"
         y="22.13"
         width="0.00"
         height="90.64"
         id="rect606" />
    </clipPath>
  </defs>
  <defs
     id="defs615">
    <clipPath
       id="clipPath613">
      <rect
         x="0.00"
         y="0.00"
         width="756.00"
         height="432.00"
         id="rect611" />
    </clipPath>
  </defs>
  <defs
     id="defs620">
    <clipPath
       id="cpMjYyLjMzfDI2Mi4zM3wyMDguODh8MTE4LjI0">
      <rect
         x="262.33"
         y="118.24"
         width="0.00"
         height="90.64"
         id="rect617" />
    </clipPath>
  </defs>
  <defs
     id="defs626">
    <clipPath
       id="clipPath624">
      <rect
         x="0.00"
         y="0.00"
         width="756.00"
         height="432.00"
         id="rect622" />
    </clipPath>
  </defs>
  <defs
     id="defs631">
    <clipPath
       id="cpMjYyLjMzfDI2Mi4zM3wzMDUuMDB8MjE0LjM2">
      <rect
         x="262.33"
         y="214.36"
         width="0.00"
         height="90.64"
         id="rect628" />
    </clipPath>
  </defs>
  <defs
     id="defs637">
    <clipPath
       id="clipPath635">
      <rect
         x="0.00"
         y="0.00"
         width="756.00"
         height="432.00"
         id="rect633" />
    </clipPath>
  </defs>
  <defs
     id="defs642">
    <clipPath
       id="cpMjYyLjMzfDI2Mi4zM3w0MDEuMTJ8MzEwLjQ4">
      <rect
         x="262.33"
         y="310.48"
         width="0.00"
         height="90.64"
         id="rect639" />
    </clipPath>
  </defs>
  <defs
     id="defs648">
    <clipPath
       id="clipPath646">
      <rect
         x="0.00"
         y="0.00"
         width="756.00"
         height="432.00"
         id="rect644" />
    </clipPath>
  </defs>
  <defs
     id="defs653">
    <clipPath
       id="cpMjk1LjM1fDUwNy43NnwyMi4xM3w1LjQ4">
      <rect
         x="295.35"
         y="5.48"
         width="212.41"
         height="16.65"
         id="rect650" />
    </clipPath>
  </defs>
  <defs
     id="defs665">
    <clipPath
       id="clipPath663">
      <rect
         x="0.00"
         y="0.00"
         width="756.00"
         height="432.00"
         id="rect661" />
    </clipPath>
  </defs>
  <defs
     id="defs670">
    <clipPath
       id="cpNTA3Ljc2fDUwNy43NnwxMTIuNzd8MjIuMTM=">
      <rect
         x="507.76"
         y="22.13"
         width="0.00"
         height="90.64"
         id="rect667" />
    </clipPath>
  </defs>
  <defs
     id="defs676">
    <clipPath
       id="clipPath674">
      <rect
         x="0.00"
         y="0.00"
         width="756.00"
         height="432.00"
         id="rect672" />
    </clipPath>
  </defs>
  <defs
     id="defs681">
    <clipPath
       id="cpNTA3Ljc2fDUwNy43NnwyMDguODh8MTE4LjI0">
      <rect
         x="507.76"
         y="118.24"
         width="0.00"
         height="90.64"
         id="rect678" />
    </clipPath>
  </defs>
  <defs
     id="defs687">
    <clipPath
       id="clipPath685">
      <rect
         x="0.00"
         y="0.00"
         width="756.00"
         height="432.00"
         id="rect683" />
    </clipPath>
  </defs>
  <defs
     id="defs692">
    <clipPath
       id="cpNTA3Ljc2fDUwNy43NnwzMDUuMDB8MjE0LjM2">
      <rect
         x="507.76"
         y="214.36"
         width="0.00"
         height="90.64"
         id="rect689" />
    </clipPath>
  </defs>
  <defs
     id="defs698">
    <clipPath
       id="clipPath696">
      <rect
         x="0.00"
         y="0.00"
         width="756.00"
         height="432.00"
         id="rect694" />
    </clipPath>
  </defs>
  <defs
     id="defs703">
    <clipPath
       id="cpNTA3Ljc2fDUwNy43Nnw0MDEuMTJ8MzEwLjQ4">
      <rect
         x="507.76"
         y="310.48"
         width="0.00"
         height="90.64"
         id="rect700" />
    </clipPath>
  </defs>
  <defs
     id="defs709">
    <clipPath
       id="clipPath707">
      <rect
         x="0.00"
         y="0.00"
         width="756.00"
         height="432.00"
         id="rect705" />
    </clipPath>
  </defs>
  <defs
     id="defs714">
    <clipPath
       id="cpNTIxLjQ2fDczMy44N3wyMi4xM3w1LjQ4">
      <rect
         x="521.46"
         y="5.48"
         width="212.41"
         height="16.65"
         id="rect711" />
    </clipPath>
  </defs>
  <defs
     id="defs726">
    <clipPath
       id="clipPath724">
      <rect
         x="0.00"
         y="0.00"
         width="756.00"
         height="432.00"
         id="rect722" />
    </clipPath>
  </defs>
  <defs
     id="defs731">
    <clipPath
       id="cpNzMzLjg3fDc1MC41MnwxMTIuNzd8MjIuMTM=">
      <rect
         x="733.87"
         y="22.13"
         width="16.65"
         height="90.64"
         id="rect728" />
    </clipPath>
  </defs>
  <defs
     id="defs743">
    <clipPath
       id="clipPath741">
      <rect
         x="0.00"
         y="0.00"
         width="756.00"
         height="432.00"
         id="rect739" />
    </clipPath>
  </defs>
  <defs
     id="defs748">
    <clipPath
       id="cpNzMzLjg3fDc1MC41MnwyMDguODh8MTE4LjI0">
      <rect
         x="733.87"
         y="118.24"
         width="16.65"
         height="90.64"
         id="rect745" />
    </clipPath>
  </defs>
  <defs
     id="defs760">
    <clipPath
       id="clipPath758">
      <rect
         x="0.00"
         y="0.00"
         width="756.00"
         height="432.00"
         id="rect756" />
    </clipPath>
  </defs>
  <defs
     id="defs765">
    <clipPath
       id="cpNzMzLjg3fDc1MC41MnwzMDUuMDB8MjE0LjM2">
      <rect
         x="733.87"
         y="214.36"
         width="16.65"
         height="90.64"
         id="rect762" />
    </clipPath>
  </defs>
  <defs
     id="defs777">
    <clipPath
       id="clipPath775">
      <rect
         x="0.00"
         y="0.00"
         width="756.00"
         height="432.00"
         id="rect773" />
    </clipPath>
  </defs>
  <defs
     id="defs782">
    <clipPath
       id="cpNzMzLjg3fDc1MC41Mnw0MDEuMTJ8MzEwLjQ4">
      <rect
         x="733.87"
         y="310.48"
         width="16.65"
         height="90.64"
         id="rect779" />
    </clipPath>
  </defs>
  <defs
     id="defs794">
    <clipPath
       id="clipPath792">
      <rect
         x="0.00"
         y="0.00"
         width="756.00"
         height="432.00"
         id="rect790" />
    </clipPath>
  </defs>
  <defs
     id="defs1103">
    <clipPath
       id="cpNS40OHw3NTAuNTJ8NS40OHw1LjQ4">
      <rect
         x="5.48"
         y="5.48"
         width="745.04"
         height="0.00"
         id="rect1100" />
    </clipPath>
  </defs>
  <defs
     id="defs1109">
    <clipPath
       id="clipPath1107">
      <rect
         x="0.00"
         y="0.00"
         width="756.00"
         height="432.00"
         id="rect1105" />
    </clipPath>
  </defs>
  <defs
     id="defs1115">
    <clipPath
       id="clipPath1113">
      <rect
         x="5.48"
         y="5.48"
         width="745.04"
         height="0.00"
         id="rect1111" />
    </clipPath>
  </defs>
  <defs
     id="defs1121">
    <clipPath
       id="clipPath1119">
      <rect
         x="0.00"
         y="0.00"
         width="756.00"
         height="432.00"
         id="rect1117" />
    </clipPath>
  </defs>
  <defs
     id="defs1126">
    <clipPath
       id="cpNS40OHw3NTAuNTJ8NDI2LjUyfDQyNi41Mg==">
      <rect
         x="5.48"
         y="426.52"
         width="745.04"
         height="0.00"
         id="rect1123" />
    </clipPath>
  </defs>
  <defs
     id="defs1132">
    <clipPath
       id="clipPath1130">
      <rect
         x="0.00"
         y="0.00"
         width="756.00"
         height="432.00"
         id="rect1128" />
    </clipPath>
  </defs>
</svg>
