<?xml version="1.0" encoding="UTF-8" standalone="no"?>
<svg
   xmlns:dc="http://purl.org/dc/elements/1.1/"
   xmlns:cc="http://creativecommons.org/ns#"
   xmlns:rdf="http://www.w3.org/1999/02/22-rdf-syntax-ns#"
   xmlns:svg="http://www.w3.org/2000/svg"
   xmlns="http://www.w3.org/2000/svg"
   xmlns:sodipodi="http://sodipodi.sourceforge.net/DTD/sodipodi-0.dtd"
   xmlns:inkscape="http://www.inkscape.org/namespaces/inkscape"
   class="svglite"
   width="576.00pt"
   height="216.00pt"
   viewBox="0 0 576.00 216.00"
   version="1.1"
   id="svg321"
   sodipodi:docname="two-pop-comparison_three.svg"
   inkscape:version="0.92.5 (2060ec1f9f, 2020-04-08)">
  <metadata
     id="metadata325">
    <rdf:RDF>
      <cc:Work
         rdf:about="">
        <dc:format>image/svg+xml</dc:format>
        <dc:type
           rdf:resource="http://purl.org/dc/dcmitype/StillImage" />
        <dc:title />
      </cc:Work>
    </rdf:RDF>
  </metadata>
  <sodipodi:namedview
     pagecolor="#ffffff"
     bordercolor="#666666"
     borderopacity="1"
     objecttolerance="10"
     gridtolerance="10"
     guidetolerance="10"
     inkscape:pageopacity="0"
     inkscape:pageshadow="2"
     inkscape:window-width="1920"
     inkscape:window-height="1009"
     id="namedview323"
     showgrid="false"
     inkscape:zoom="1.4479167"
     inkscape:cx="243.29673"
     inkscape:cy="130.69101"
     inkscape:window-x="0"
     inkscape:window-y="0"
     inkscape:window-maximized="1"
     inkscape:current-layer="g1308" />
  <defs
     id="defs4">
    <style
       type="text/css"
       id="style2"><![CDATA[
    .svglite line, .svglite polyline, .svglite polygon, .svglite path, .svglite rect, .svglite circle {
      fill: none;
      stroke: #000000;
      stroke-linecap: round;
      stroke-linejoin: round;
      stroke-miterlimit: 10.00;
    }
    .svglite text {
      white-space: pre;
    }
  ]]></style>
  </defs>
  <defs
     id="defs11">
    <clipPath
       id="cpMC4wMHw1NzYuMDB8MC4wMHwyMTYuMDA=">
      <rect
         x="0.00"
         y="0.00"
         width="576.00"
         height="216.00"
         id="rect8" />
    </clipPath>
  </defs>
  <defs
     id="defs20">
    <clipPath
       id="cpNDMuMDR8MjE1LjIxfDIyLjQ5fDE0NS4xMA==">
      <rect
         x="43.04"
         y="22.49"
         width="172.17"
         height="122.61"
         id="rect17" />
    </clipPath>
  </defs>
  <g
     clip-path="url(#cpMC4wMHw1NzYuMDB8MC4wMHwyMTYuMDA=)"
     id="g68" />
  <defs
     id="defs73">
    <clipPath
       id="cpMjIwLjY5fDM5Mi44N3wyMi40OXwxNDUuMTA=">
      <rect
         x="220.69"
         y="22.49"
         width="172.17"
         height="122.61"
         id="rect70" />
    </clipPath>
  </defs>
  <g
     clip-path="url(#cpMC4wMHw1NzYuMDB8MC4wMHwyMTYuMDA=)"
     id="g121" />
  <defs
     id="defs126">
    <clipPath
       id="cpMzk4LjM1fDU3MC41MnwyMi40OXwxNDUuMTA=">
      <rect
         x="398.35"
         y="22.49"
         width="172.17"
         height="122.61"
         id="rect123" />
    </clipPath>
  </defs>
  <g
     clip-path="url(#cpMC4wMHw1NzYuMDB8MC4wMHwyMTYuMDA=)"
     id="g174" />
  <defs
     id="defs179">
    <clipPath
       id="cpNDMuMDR8MjE1LjIxfDUuNDh8MjIuNDk=">
      <rect
         x="43.04"
         y="5.48"
         width="172.17"
         height="17.01"
         id="rect176" />
    </clipPath>
  </defs>
  <g
     clip-path="url(#cpMC4wMHw1NzYuMDB8MC4wMHwyMTYuMDA=)"
     id="g201" />
  <defs
     id="defs206">
    <clipPath
       id="cpMjIwLjY5fDM5Mi44N3w1LjQ4fDIyLjQ5">
      <rect
         x="220.69"
         y="5.48"
         width="172.17"
         height="17.01"
         id="rect203" />
    </clipPath>
  </defs>
  <g
     clip-path="url(#cpMC4wMHw1NzYuMDB8MC4wMHwyMTYuMDA=)"
     id="g218" />
  <defs
     id="defs223">
    <clipPath
       id="cpMzk4LjM1fDU3MC41Mnw1LjQ4fDIyLjQ5">
      <rect
         x="398.35"
         y="5.48"
         width="172.17"
         height="17.01"
         id="rect220" />
    </clipPath>
  </defs>
  <polyline
     transform="translate(2.5e-7,7.4999971)"
     id="polyline166"
     style="fill:none;stroke:#f74700;stroke-width:1.60000002;stroke-linecap:butt;stroke-linejoin:round;stroke-miterlimit:10"
     points="398.35,115.25 399.04,115.25 399.73,115.25 400.43,115.25 401.12,115.25 401.82,115.25 402.51,115.25 403.21,115.25 403.90,115.25 404.59,115.25 405.29,115.25 405.98,115.25 406.68,115.25 407.37,115.25 408.07,115.25 408.76,115.25 409.45,115.25 410.15,115.25 410.84,115.25 411.54,115.25 412.23,115.25 412.93,115.25 413.62,115.25 414.31,115.25 415.01,115.25 415.70,115.25 416.40,115.25 417.09,115.25 417.79,115.25 418.48,115.25 419.17,115.25 419.87,115.25 420.56,115.25 421.26,115.25 421.95,115.25 422.64,115.25 423.34,115.25 424.03,115.25 424.73,115.25 425.42,115.25 426.12,115.25 426.81,115.25 427.50,115.25 428.20,115.25 428.89,115.25 429.59,115.25 430.28,115.25 430.98,115.25 431.67,115.25 432.36,115.25 433.06,115.25 433.75,115.25 434.45,115.25 435.14,115.25 435.84,115.25 436.53,115.25 437.22,115.25 437.92,115.25 438.61,115.25 439.31,115.25 440.00,115.25 440.70,115.25 441.39,115.25 442.08,115.25 442.78,115.25 443.47,115.25 444.17,115.25 444.86,115.25 445.56,115.25 446.25,115.25 446.94,115.25 447.64,115.25 448.33,115.25 449.03,115.25 449.72,115.25 450.41,115.25 451.11,115.25 451.80,115.25 452.50,115.25 453.19,115.25 453.89,115.25 454.58,115.25 455.27,115.25 455.97,115.25 456.66,115.25 457.36,115.25 458.05,115.25 458.75,115.25 459.44,115.25 460.13,115.25 460.83,115.25 461.52,115.25 462.22,115.25 462.91,115.25 463.61,115.25 464.30,115.25 464.99,115.25 465.69,115.25 466.38,115.25 467.08,115.25 467.77,115.25 468.47,115.25 469.16,115.25 469.85,115.25 470.55,115.25 471.24,115.25 471.94,115.25 472.63,115.25 473.33,115.25 474.02,115.25 474.71,115.25 475.41,115.25 476.10,115.25 476.80,115.25 477.49,115.25 478.18,115.25 478.88,115.25 479.57,115.25 480.27,115.25 480.96,115.25 481.66,115.25 482.35,115.25 483.04,115.25 483.74,115.25 484.43,115.25 485.13,115.25 485.82,115.25 486.52,115.25 487.21,115.25 487.90,115.25 488.60,115.25 489.29,115.25 489.99,115.25 490.68,115.25 491.38,115.25 492.07,115.25 492.76,115.25 493.46,115.25 494.15,115.25 494.85,115.25 495.54,115.25 496.24,115.25 496.93,115.25 497.62,115.25 498.32,115.25 499.01,115.25 499.71,115.25 500.40,115.25 501.10,115.25 501.79,115.25 502.48,115.25 503.18,115.25 503.87,115.25 504.57,115.25 505.26,115.25 505.96,115.25 506.65,115.25 507.34,115.25 508.04,115.25 508.73,115.25 509.43,115.25 510.12,115.25 510.81,115.25 511.51,115.25 512.20,115.25 512.90,115.25 513.59,115.25 514.29,115.25 514.98,115.25 515.67,115.25 516.37,115.25 517.06,115.25 517.76,115.25 518.45,115.25 519.15,115.25 519.84,115.25 520.53,115.25 521.23,115.25 521.92,115.25 522.62,115.25 523.31,115.25 524.01,115.25 524.70,115.25 525.39,115.25 526.09,115.25 526.78,115.25 527.48,115.25 528.17,115.25 528.87,115.25 529.56,115.25 530.25,115.25 530.95,115.25 531.64,115.25 532.34,115.25 533.03,115.25 533.73,115.25 534.42,115.25 535.11,115.25 535.81,115.25 536.50,115.25 537.20,115.25 537.89,115.25 538.58,115.25 539.28,115.25 539.97,115.25 540.67,115.25 541.36,115.25 542.06,115.25 542.75,115.25 543.44,115.25 544.14,115.25 544.83,115.25 545.53,115.25 546.22,115.25 546.92,115.25 547.61,115.25 548.30,115.25 549.00,115.25 549.69,115.25 550.39,115.25 551.08,115.25 551.78,115.25 552.47,115.25 553.16,115.25 553.86,115.25 554.55,115.25 555.25,115.25 555.94,115.25 556.64,115.25 557.33,115.25 558.02,115.25 558.72,115.25 559.41,115.25 560.11,115.25 560.80,115.25 561.50,115.25 562.19,115.25 562.88,115.25 563.58,115.25 564.27,115.25 564.97,115.25 565.66,115.25 566.36,115.25 567.05,115.25 567.74,115.25 568.44,115.25 569.13,115.25 569.83,115.25 570.52,115.25 " />
  <polyline
     transform="translate(2.5e-7,7.4999971)"
     id="polyline168"
     style="fill:none;stroke:#016394;stroke-width:1.60000002;stroke-linecap:butt;stroke-linejoin:round;stroke-miterlimit:10"
     points="398.35,121.82 399.04,121.82 399.73,121.82 400.43,121.82 401.12,121.82 401.82,121.82 402.51,121.82 403.21,121.82 403.90,121.82 404.59,121.82 405.29,121.82 405.98,121.82 406.68,121.82 407.37,121.82 408.07,121.82 408.76,121.82 409.45,121.82 410.15,121.82 410.84,121.82 411.54,121.82 412.23,121.82 412.93,121.82 413.62,121.82 414.31,121.82 415.01,121.82 415.70,121.82 416.40,121.82 417.09,121.82 417.79,121.82 418.48,121.82 419.17,121.82 419.87,121.82 420.56,121.82 421.26,121.82 421.95,121.82 422.64,121.82 423.34,121.82 424.03,121.82 424.73,121.82 425.42,121.82 426.12,121.82 426.81,121.82 427.50,121.82 428.20,121.82 428.89,121.82 429.59,121.82 430.28,121.82 430.98,121.82 431.67,121.82 432.36,121.82 433.06,121.82 433.75,121.82 434.45,121.82 435.14,121.82 435.84,121.82 436.53,121.82 437.22,121.82 437.92,121.82 438.61,121.82 439.31,121.82 440.00,121.82 440.70,121.82 441.39,121.82 442.08,121.82 442.78,121.82 443.47,121.82 444.17,121.82 444.86,121.82 445.56,121.82 446.25,121.82 446.94,121.82 447.64,121.82 448.33,121.82 449.03,121.82 449.72,121.82 450.41,121.82 451.11,121.82 451.80,121.82 452.50,121.82 453.19,121.82 453.89,121.82 454.58,121.82 455.27,121.82 455.97,121.82 456.66,121.82 457.36,121.82 458.05,121.82 458.75,121.82 459.44,121.82 460.13,121.82 460.83,121.82 461.52,121.82 462.22,121.82 462.91,121.82 463.61,121.82 464.30,121.82 464.99,121.82 465.69,121.82 466.38,121.82 467.08,121.82 467.77,121.82 468.47,121.82 469.16,121.82 469.85,121.82 470.55,121.82 471.24,121.82 471.94,121.82 472.63,121.82 473.33,121.82 474.02,121.82 474.71,121.82 475.41,121.82 476.10,121.82 476.80,121.82 477.49,121.82 478.18,121.82 478.88,121.82 479.57,121.82 480.27,121.82 480.96,121.82 481.66,121.82 482.35,121.82 483.04,121.82 483.74,121.82 484.43,121.82 485.13,121.82 485.82,121.82 486.52,121.82 487.21,121.82 487.90,121.82 488.60,121.82 489.29,121.82 489.99,121.82 490.68,121.82 491.38,121.82 492.07,121.82 492.76,121.82 493.46,121.82 494.15,121.82 494.85,121.82 495.54,121.82 496.24,121.82 496.93,121.82 497.62,121.82 498.32,121.82 499.01,121.82 499.71,121.82 500.40,121.82 501.10,121.82 501.79,121.82 502.48,121.82 503.18,121.82 503.87,121.82 504.57,121.82 505.26,121.82 505.96,121.82 506.65,121.82 507.34,121.82 508.04,121.82 508.73,121.82 509.43,121.82 510.12,121.82 510.81,121.82 511.51,121.82 512.20,121.82 512.90,121.82 513.59,121.82 514.29,121.82 514.98,121.82 515.67,121.82 516.37,121.82 517.06,121.82 517.76,121.82 518.45,121.82 519.15,121.82 519.84,121.82 520.53,121.82 521.23,121.82 521.92,121.82 522.62,121.82 523.31,121.82 524.01,121.82 524.70,121.82 525.39,121.82 526.09,121.82 526.78,121.82 527.48,121.82 528.17,121.82 528.87,121.82 529.56,121.82 530.25,121.82 530.95,121.82 531.64,121.82 532.34,121.82 533.03,121.82 533.73,121.82 534.42,121.82 535.11,121.82 535.81,121.82 536.50,121.82 537.20,121.82 537.89,121.82 538.58,121.82 539.28,121.82 539.97,121.82 540.67,121.82 541.36,121.82 542.06,121.82 542.75,121.82 543.44,121.82 544.14,121.82 544.83,121.82 545.53,121.82 546.22,121.82 546.92,121.82 547.61,121.82 548.30,121.82 549.00,121.82 549.69,121.82 550.39,121.82 551.08,121.82 551.78,121.82 552.47,121.82 553.16,121.82 553.86,121.82 554.55,121.82 555.25,121.82 555.94,121.82 556.64,121.82 557.33,121.82 558.02,121.82 558.72,121.82 559.41,121.82 560.11,121.82 560.80,121.82 561.50,121.82 562.19,121.82 562.88,121.82 563.58,121.82 564.27,121.82 564.97,121.82 565.66,121.82 566.36,121.82 567.05,121.82 567.74,121.82 568.44,121.82 569.13,121.82 569.83,121.82 570.52,121.82 " />
  <g
     id="g1308"
     transform="translate(-1.7736854,11.101201)">
    <g
       transform="matrix(0.18996576,0,0,0.18996576,434.20278,31.67344)"
       id="g1543-3-36">
      <path
         inkscape:connector-curvature="0"
         d="m 71.573629,-163.28192 -10.89073,21.7893 a 12.631904,12.631904 0 0 0 -1.32699,5.61418 v 49.361592 h -25.12639 v -78.519992 a 21.971858,21.971858 0 0 1 43.55308,-4.13997 l -0.0726,0.0334 a 12.586755,12.586755 0 0 0 -6.13633,5.86152 z"
         class="fa-secondary"
         id="path6-03-7"
         style="fill:#f74700;fill-opacity:0.4;stroke:#000000;stroke-width:0.19629999;stroke-linecap:round;stroke-linejoin:round;stroke-miterlimit:10" />
      <path
         inkscape:connector-curvature="0"
         d="m 146.63482,-138.68946 -10.89269,-21.7893 a 6.2815997,6.2815997 0 0 0 -3.06621,-2.93076 l -23.65611,-10.50794 a 6.2815997,6.2815997 0 0 0 -5.1038,0 l -23.656111,10.51383 a 6.2815997,6.2815997 0 0 0 -3.0662,2.93076 l -10.89269,21.7893 a 6.2973037,6.2973037 0 0 0 -0.6635,2.80513 v 49.361592 h 25.1264 v -18.844802 h 31.408001 v 18.844802 h 25.1264 v -49.361592 a 6.2973037,6.2973037 0 0 0 -0.66349,-2.81102 z m -30.74451,14.48301 H 97.045509 v -18.8448 h 18.844801 z"
         class="fa-primary"
         id="path8-3-5"
         style="fill:#f74700;fill-opacity:1;stroke:#000000;stroke-width:0.19629999;stroke-linecap:round;stroke-linejoin:round;stroke-miterlimit:10" />
    </g>
    <g
       style="fill:#016394;fill-opacity:1"
       transform="matrix(0.18996576,0,0,0.18996576,503.73053,31.67344)"
       id="g1543-3-3-3">
      <path
         inkscape:connector-curvature="0"
         d="m 71.573629,-163.28192 -10.89073,21.7893 a 12.631904,12.631904 0 0 0 -1.32699,5.61418 v 49.361592 h -25.12639 v -78.519992 a 21.971858,21.971858 0 0 1 43.55308,-4.13997 l -0.0726,0.0334 a 12.586755,12.586755 0 0 0 -6.13633,5.86152 z"
         class="fa-secondary"
         id="path6-03-6-5"
         style="fill:#016394;fill-opacity:1;stroke:#000000;stroke-width:0.19629999;stroke-linecap:round;stroke-linejoin:round;stroke-miterlimit:10" />
      <path
         inkscape:connector-curvature="0"
         d="m 146.63482,-138.68946 -10.89269,-21.7893 a 6.2815997,6.2815997 0 0 0 -3.06621,-2.93076 l -23.65611,-10.50794 a 6.2815997,6.2815997 0 0 0 -5.1038,0 l -23.656111,10.51383 a 6.2815997,6.2815997 0 0 0 -3.0662,2.93076 l -10.89269,21.7893 a 6.2973037,6.2973037 0 0 0 -0.6635,2.80513 v 49.361592 h 25.1264 v -18.844802 h 31.408001 v 18.844802 h 25.1264 v -49.361592 a 6.2973037,6.2973037 0 0 0 -0.66349,-2.81102 z m -30.74451,14.48301 H 97.045509 v -18.8448 h 18.844801 z"
         class="fa-primary"
         id="path8-3-7-6"
         style="fill:#016394;fill-opacity:1;stroke:#000000;stroke-width:0.19629999;stroke-linecap:round;stroke-linejoin:round;stroke-miterlimit:10" />
    </g>
    <g
       id="text1574-9-0-9-7-2"
       style="font-style:normal;font-variant:normal;font-weight:normal;font-stretch:normal;font-size:43.82711411px;line-height:1.25;font-family:'Font Awesome 5 Pro';-inkscape-font-specification:'Font Awesome 5 Pro';letter-spacing:0px;word-spacing:0px;fill:#000000;fill-opacity:1;stroke:none;stroke-width:1.09567785"
       inkscape:transform-center-y="58.924989"
       inkscape:transform-center-x="-70.971442"
       aria-label="long-arrow-alt-right"
       transform="matrix(-0.75,0,0,0.75,779.23189,-10.0586)">
      <path
         id="path3685-5-9"
         style="fill:#000000;fill-opacity:1;stroke:#000000;stroke-width:1.09567785;stroke-linecap:round;stroke-linejoin:round;stroke-miterlimit:10"
         d="m 400.85248,30.173074 8.47438,-8.474383 c 0.428,-0.342399 0.428,-1.027198 0,-1.455197 l -8.47438,-8.474383 c -0.6848,-0.599199 -1.712,-0.1712 -1.712,0.770398 v 6.077588 h -26.36475 c -0.5992,0 -1.02719,0.427999 -1.02719,1.027198 v 2.739195 c 0,0.599199 0.42799,1.027198 1.02719,1.027198 h 26.36475 v 6.077588 c 0,0.941598 1.0272,1.369597 1.712,0.684798 z"
         inkscape:connector-curvature="0" />
    </g>
  </g>
</svg>
