<?xml version="1.0" encoding="UTF-8" standalone="no"?>
<svg
   xmlns:dc="http://purl.org/dc/elements/1.1/"
   xmlns:cc="http://creativecommons.org/ns#"
   xmlns:rdf="http://www.w3.org/1999/02/22-rdf-syntax-ns#"
   xmlns:svg="http://www.w3.org/2000/svg"
   xmlns="http://www.w3.org/2000/svg"
   xmlns:sodipodi="http://sodipodi.sourceforge.net/DTD/sodipodi-0.dtd"
   xmlns:inkscape="http://www.inkscape.org/namespaces/inkscape"
   class="svglite"
   width="576.00pt"
   height="216.00pt"
   viewBox="0 0 576.00 216.00"
   version="1.1"
   id="svg321"
   sodipodi:docname="two-pop-comparison_one.svg"
   inkscape:version="0.92.5 (2060ec1f9f, 2020-04-08)">
  <metadata
     id="metadata325">
    <rdf:RDF>
      <cc:Work
         rdf:about="">
        <dc:format>image/svg+xml</dc:format>
        <dc:type
           rdf:resource="http://purl.org/dc/dcmitype/StillImage" />
        <dc:title />
      </cc:Work>
    </rdf:RDF>
  </metadata>
  <sodipodi:namedview
     pagecolor="#ffffff"
     bordercolor="#666666"
     borderopacity="1"
     objecttolerance="10"
     gridtolerance="10"
     guidetolerance="10"
     inkscape:pageopacity="0"
     inkscape:pageshadow="2"
     inkscape:window-width="1920"
     inkscape:window-height="1009"
     id="namedview323"
     showgrid="false"
     inkscape:zoom="1.4479167"
     inkscape:cx="243.29673"
     inkscape:cy="130.69101"
     inkscape:window-x="0"
     inkscape:window-y="0"
     inkscape:window-maximized="1"
     inkscape:current-layer="svg321" />
  <defs
     id="defs4">
    <style
       type="text/css"
       id="style2"><![CDATA[
    .svglite line, .svglite polyline, .svglite polygon, .svglite path, .svglite rect, .svglite circle {
      fill: none;
      stroke: #000000;
      stroke-linecap: round;
      stroke-linejoin: round;
      stroke-miterlimit: 10.00;
    }
    .svglite text {
      white-space: pre;
    }
  ]]></style>
  </defs>
  <defs
     id="defs11">
    <clipPath
       id="cpMC4wMHw1NzYuMDB8MC4wMHwyMTYuMDA=">
      <rect
         x="0.00"
         y="0.00"
         width="576.00"
         height="216.00"
         id="rect8" />
    </clipPath>
  </defs>
  <defs
     id="defs20">
    <clipPath
       id="cpNDMuMDR8MjE1LjIxfDIyLjQ5fDE0NS4xMA==">
      <rect
         x="43.04"
         y="22.49"
         width="172.17"
         height="122.61"
         id="rect17" />
    </clipPath>
  </defs>
  <g
     clip-path="url(#cpMC4wMHw1NzYuMDB8MC4wMHwyMTYuMDA=)"
     id="g68" />
  <defs
     id="defs73">
    <clipPath
       id="cpMjIwLjY5fDM5Mi44N3wyMi40OXwxNDUuMTA=">
      <rect
         x="220.69"
         y="22.49"
         width="172.17"
         height="122.61"
         id="rect70" />
    </clipPath>
  </defs>
  <g
     clip-path="url(#cpMC4wMHw1NzYuMDB8MC4wMHwyMTYuMDA=)"
     id="g121" />
  <defs
     id="defs126">
    <clipPath
       id="cpMzk4LjM1fDU3MC41MnwyMi40OXwxNDUuMTA=">
      <rect
         x="398.35"
         y="22.49"
         width="172.17"
         height="122.61"
         id="rect123" />
    </clipPath>
  </defs>
  <g
     clip-path="url(#cpMC4wMHw1NzYuMDB8MC4wMHwyMTYuMDA=)"
     id="g174" />
  <defs
     id="defs179">
    <clipPath
       id="cpNDMuMDR8MjE1LjIxfDUuNDh8MjIuNDk=">
      <rect
         x="43.04"
         y="5.48"
         width="172.17"
         height="17.01"
         id="rect176" />
    </clipPath>
  </defs>
  <g
     clip-path="url(#cpMC4wMHw1NzYuMDB8MC4wMHwyMTYuMDA=)"
     id="g201" />
  <defs
     id="defs206">
    <clipPath
       id="cpMjIwLjY5fDM5Mi44N3w1LjQ4fDIyLjQ5">
      <rect
         x="220.69"
         y="5.48"
         width="172.17"
         height="17.01"
         id="rect203" />
    </clipPath>
  </defs>
  <g
     clip-path="url(#cpMC4wMHw1NzYuMDB8MC4wMHwyMTYuMDA=)"
     id="g218" />
  <defs
     id="defs223">
    <clipPath
       id="cpMzk4LjM1fDU3MC41Mnw1LjQ4fDIyLjQ5">
      <rect
         x="398.35"
         y="5.48"
         width="172.17"
         height="17.01"
         id="rect220" />
    </clipPath>
  </defs>
  <polyline
     transform="translate(2.5e-7,7.4999971)"
     id="polyline60"
     style="fill:none;stroke:#f74700;stroke-width:1.60000002;stroke-linecap:butt;stroke-linejoin:round;stroke-miterlimit:10"
     points="43.04,139.52 43.73,139.52 44.43,139.52 45.12,139.52 45.81,139.52 46.51,139.52 47.20,139.52 47.90,139.52 48.59,139.52 49.29,139.52 49.98,139.52 50.67,139.52 51.37,28.06 52.06,135.59 52.76,139.52 53.45,139.52 54.15,139.52 54.84,139.52 55.53,139.52 56.23,139.52 56.92,139.52 57.62,139.52 58.31,139.52 59.01,139.52 59.70,139.52 60.39,139.52 61.09,139.52 61.78,139.52 62.48,139.52 63.17,139.52 63.87,139.52 64.56,139.52 65.25,139.35 65.95,88.07 66.64,139.47 67.34,139.52 68.03,139.52 68.73,139.52 69.42,139.52 70.11,139.52 70.81,139.52 71.50,139.52 72.20,139.52 72.89,139.52 73.58,139.52 74.28,139.52 74.97,139.52 75.67,139.52 76.36,139.52 77.06,139.52 77.75,139.52 78.44,139.52 79.14,139.52 79.83,28.89 80.53,138.73 81.22,139.52 81.92,139.52 82.61,139.52 83.30,139.52 84.00,139.52 84.69,139.52 85.39,139.52 86.08,139.52 86.78,139.52 87.47,139.52 88.16,139.52 88.86,139.52 89.55,139.52 90.25,139.52 90.94,139.52 91.64,139.52 92.33,139.52 93.02,139.52 93.72,62.74 94.41,127.70 95.11,139.51 95.80,139.52 96.50,139.52 97.19,139.52 97.88,139.52 98.58,139.52 99.27,139.52 99.97,139.52 100.66,139.52 101.36,139.52 102.05,139.52 102.74,139.52 103.44,139.52 104.13,139.52 104.83,139.52 105.52,139.52 106.21,139.52 106.91,139.52 107.60,139.52 108.30,44.84 108.99,139.36 109.69,139.52 110.38,139.52 111.07,139.52 111.77,139.52 112.46,139.52 113.16,139.52 113.85,139.52 114.55,139.52 115.24,139.52 115.93,139.52 116.63,139.52 117.32,139.52 118.02,139.52 118.71,139.52 119.41,139.52 120.10,139.52 120.79,139.52 121.49,139.52 122.18,28.08 122.88,137.03 123.57,139.52 124.27,139.52 124.96,139.52 125.65,139.52 126.35,139.52 127.04,139.52 127.74,139.52 128.43,139.52 129.13,139.52 129.82,139.52 130.51,139.52 131.21,139.52 131.90,139.52 132.60,139.52 133.29,139.52 133.98,139.52 134.68,139.52 135.37,139.52 136.07,138.57 136.76,103.66 137.46,139.49 138.15,139.52 138.84,139.52 139.54,139.52 140.23,139.52 140.93,139.52 141.62,139.52 142.32,139.52 143.01,139.52 143.70,139.52 144.40,139.52 145.09,139.52 145.79,139.52 146.48,139.52 147.18,139.52 147.87,139.52 148.56,139.52 149.26,139.52 149.95,139.52 150.65,30.00 151.34,138.99 152.04,139.52 152.73,139.52 153.42,139.52 154.12,139.52 154.81,139.52 155.51,139.52 156.20,139.52 156.90,139.52 157.59,139.52 158.28,139.52 158.98,139.52 159.67,139.52 160.37,139.52 161.06,139.52 161.76,139.52 162.45,139.52 163.14,139.52 163.84,139.52 164.53,30.01 165.23,131.45 165.92,139.52 166.61,139.52 167.31,139.52 168.00,139.52 168.70,139.52 169.39,139.52 170.09,139.52 170.78,139.52 171.47,139.52 172.17,139.52 172.86,139.52 173.56,139.52 174.25,139.52 174.95,139.52 175.64,139.52 176.33,139.52 177.03,139.52 177.72,139.52 178.42,139.51 179.11,56.70 179.81,139.41 180.50,139.52 181.19,139.52 181.89,139.52 182.58,139.52 183.28,139.52 183.97,139.52 184.67,139.52 185.36,139.52 186.05,139.52 186.75,139.52 187.44,139.52 188.14,139.52 188.83,139.52 189.53,139.52 190.22,139.52 190.91,139.52 191.61,139.52 192.30,139.52 193.00,28.17 193.69,137.78 194.38,139.52 195.08,139.52 195.77,139.52 196.47,139.52 197.16,139.52 197.86,139.52 198.55,139.52 199.24,139.52 199.94,139.52 200.63,139.52 201.33,139.52 202.02,139.52 202.72,139.52 203.41,139.52 204.10,139.52 204.80,139.52 205.49,139.52 206.19,139.52 206.88,135.66 207.58,113.59 208.27,139.50 208.96,139.52 209.66,139.52 210.35,139.52 211.05,139.52 211.74,139.52 212.44,139.52 213.13,139.52 213.82,139.52 214.52,139.52 215.21,139.52 " />
  <polyline
     transform="translate(2.5e-7,7.4999971)"
     id="polyline62"
     style="fill:none;stroke:#016394;stroke-width:1.60000002;stroke-linecap:butt;stroke-linejoin:round;stroke-miterlimit:10"
     points="43.04,119.10 43.73,119.10 44.43,119.10 45.12,119.10 45.81,119.10 46.51,119.10 47.20,119.10 47.90,119.10 48.59,119.10 49.29,119.10 49.98,119.10 50.67,119.10 51.37,119.10 52.06,119.10 52.76,119.10 53.45,119.10 54.15,119.10 54.84,119.10 55.53,119.10 56.23,119.10 56.92,119.10 57.62,119.10 58.31,119.10 59.01,119.10 59.70,119.10 60.39,119.10 61.09,119.10 61.78,119.10 62.48,119.10 63.17,119.10 63.87,119.10 64.56,119.10 65.25,119.10 65.95,119.10 66.64,119.10 67.34,119.10 68.03,119.10 68.73,119.10 69.42,119.10 70.11,119.10 70.81,119.10 71.50,119.10 72.20,119.10 72.89,119.10 73.58,119.10 74.28,119.10 74.97,119.10 75.67,119.10 76.36,119.10 77.06,119.10 77.75,119.10 78.44,119.10 79.14,119.10 79.83,119.10 80.53,119.10 81.22,119.10 81.92,119.10 82.61,119.10 83.30,119.10 84.00,119.10 84.69,119.10 85.39,119.10 86.08,119.10 86.78,119.10 87.47,119.10 88.16,119.10 88.86,119.10 89.55,119.10 90.25,119.10 90.94,119.10 91.64,119.10 92.33,119.10 93.02,119.10 93.72,119.10 94.41,119.10 95.11,119.10 95.80,119.10 96.50,119.10 97.19,119.10 97.88,119.10 98.58,119.10 99.27,119.10 99.97,119.10 100.66,119.10 101.36,119.10 102.05,119.10 102.74,119.10 103.44,119.10 104.13,119.10 104.83,119.10 105.52,119.10 106.21,119.10 106.91,119.10 107.60,119.10 108.30,119.10 108.99,119.10 109.69,119.10 110.38,119.10 111.07,119.10 111.77,119.10 112.46,119.10 113.16,119.10 113.85,119.10 114.55,119.10 115.24,119.10 115.93,119.10 116.63,119.10 117.32,119.10 118.02,119.10 118.71,119.10 119.41,119.10 120.10,119.10 120.79,119.10 121.49,119.10 122.18,119.10 122.88,119.10 123.57,119.10 124.27,119.10 124.96,119.10 125.65,119.10 126.35,119.10 127.04,119.10 127.74,119.10 128.43,119.10 129.13,119.10 129.82,119.10 130.51,119.10 131.21,119.10 131.90,119.10 132.60,119.10 133.29,119.10 133.98,119.10 134.68,119.10 135.37,119.10 136.07,119.10 136.76,119.10 137.46,119.10 138.15,119.10 138.84,119.10 139.54,119.10 140.23,119.10 140.93,119.10 141.62,119.10 142.32,119.10 143.01,119.10 143.70,119.10 144.40,119.10 145.09,119.10 145.79,119.10 146.48,119.10 147.18,119.10 147.87,119.10 148.56,119.10 149.26,119.10 149.95,119.10 150.65,119.10 151.34,119.10 152.04,119.10 152.73,119.10 153.42,119.10 154.12,119.10 154.81,119.10 155.51,119.10 156.20,119.10 156.90,119.10 157.59,119.10 158.28,119.10 158.98,119.10 159.67,119.10 160.37,119.10 161.06,119.10 161.76,119.10 162.45,119.10 163.14,119.10 163.84,119.10 164.53,119.10 165.23,119.10 165.92,119.10 166.61,119.10 167.31,119.10 168.00,119.10 168.70,119.10 169.39,119.10 170.09,119.10 170.78,119.10 171.47,119.10 172.17,119.10 172.86,119.10 173.56,119.10 174.25,119.10 174.95,119.10 175.64,119.10 176.33,119.10 177.03,119.10 177.72,119.10 178.42,119.10 179.11,119.10 179.81,119.10 180.50,119.10 181.19,119.10 181.89,119.10 182.58,119.10 183.28,119.10 183.97,119.10 184.67,119.10 185.36,119.10 186.05,119.10 186.75,119.10 187.44,119.10 188.14,119.10 188.83,119.10 189.53,119.10 190.22,119.10 190.91,119.10 191.61,119.10 192.30,119.10 193.00,119.10 193.69,119.10 194.38,119.10 195.08,119.10 195.77,119.10 196.47,119.10 197.16,119.10 197.86,119.10 198.55,119.10 199.24,119.10 199.94,119.10 200.63,119.10 201.33,119.10 202.02,119.10 202.72,119.10 203.41,119.10 204.10,119.10 204.80,119.10 205.49,119.10 206.19,119.10 206.88,119.10 207.58,119.10 208.27,119.10 208.96,119.10 209.66,119.10 210.35,119.10 211.05,119.10 211.74,119.10 212.44,119.10 213.13,119.10 213.82,119.10 214.52,119.10 215.21,119.10 " />
  <g
     id="g1346"
     transform="translate(-0.88939243,47.35399)">
    <g
       transform="matrix(0.18996576,0,0,0.18996576,78.008477,-4.5793489)"
       id="g1543-3-1">
      <path
         inkscape:connector-curvature="0"
         d="m 71.573629,-163.28192 -10.89073,21.7893 a 12.631904,12.631904 0 0 0 -1.32699,5.61418 v 49.361592 h -25.12639 v -78.519992 a 21.971858,21.971858 0 0 1 43.55308,-4.13997 l -0.0726,0.0334 a 12.586755,12.586755 0 0 0 -6.13633,5.86152 z"
         class="fa-secondary"
         id="path6-03-2"
         style="fill:#f74700;fill-opacity:0.4;stroke:#000000;stroke-width:0.19629999;stroke-linecap:round;stroke-linejoin:round;stroke-miterlimit:10" />
      <path
         inkscape:connector-curvature="0"
         d="m 146.63482,-138.68946 -10.89269,-21.7893 a 6.2815997,6.2815997 0 0 0 -3.06621,-2.93076 l -23.65611,-10.50794 a 6.2815997,6.2815997 0 0 0 -5.1038,0 l -23.656111,10.51383 a 6.2815997,6.2815997 0 0 0 -3.0662,2.93076 l -10.89269,21.7893 a 6.2973037,6.2973037 0 0 0 -0.6635,2.80513 v 49.361592 h 25.1264 v -18.844802 h 31.408001 v 18.844802 h 25.1264 v -49.361592 a 6.2973037,6.2973037 0 0 0 -0.66349,-2.81102 z m -30.74451,14.48301 H 97.045509 v -18.8448 h 18.844801 z"
         class="fa-primary"
         id="path8-3-70"
         style="fill:#f74700;fill-opacity:1;stroke:#000000;stroke-width:0.19629999;stroke-linecap:round;stroke-linejoin:round;stroke-miterlimit:10" />
    </g>
    <g
       style="fill:#016394;fill-opacity:1"
       transform="matrix(0.18996576,0,0,0.18996576,147.53623,-4.5793489)"
       id="g1543-3-3-9">
      <path
         inkscape:connector-curvature="0"
         d="m 71.573629,-163.28192 -10.89073,21.7893 a 12.631904,12.631904 0 0 0 -1.32699,5.61418 v 49.361592 h -25.12639 v -78.519992 a 21.971858,21.971858 0 0 1 43.55308,-4.13997 l -0.0726,0.0334 a 12.586755,12.586755 0 0 0 -6.13633,5.86152 z"
         class="fa-secondary"
         id="path6-03-6-3"
         style="fill:#016394;fill-opacity:1;stroke:#000000;stroke-width:0.19629999;stroke-linecap:round;stroke-linejoin:round;stroke-miterlimit:10" />
      <path
         inkscape:connector-curvature="0"
         d="m 146.63482,-138.68946 -10.89269,-21.7893 a 6.2815997,6.2815997 0 0 0 -3.06621,-2.93076 l -23.65611,-10.50794 a 6.2815997,6.2815997 0 0 0 -5.1038,0 l -23.656111,10.51383 a 6.2815997,6.2815997 0 0 0 -3.0662,2.93076 l -10.89269,21.7893 a 6.2973037,6.2973037 0 0 0 -0.6635,2.80513 v 49.361592 h 25.1264 v -18.844802 h 31.408001 v 18.844802 h 25.1264 v -49.361592 a 6.2973037,6.2973037 0 0 0 -0.66349,-2.81102 z m -30.74451,14.48301 H 97.045509 v -18.8448 h 18.844801 z"
         class="fa-primary"
         id="path8-3-7-60"
         style="fill:#016394;fill-opacity:1;stroke:#000000;stroke-width:0.19629999;stroke-linecap:round;stroke-linejoin:round;stroke-miterlimit:10" />
    </g>
  </g>
</svg>
