<?xml version="1.0" encoding="UTF-8" standalone="no"?>
<svg
   xmlns:dc="http://purl.org/dc/elements/1.1/"
   xmlns:cc="http://creativecommons.org/ns#"
   xmlns:rdf="http://www.w3.org/1999/02/22-rdf-syntax-ns#"
   xmlns:svg="http://www.w3.org/2000/svg"
   xmlns="http://www.w3.org/2000/svg"
   xmlns:sodipodi="http://sodipodi.sourceforge.net/DTD/sodipodi-0.dtd"
   xmlns:inkscape="http://www.inkscape.org/namespaces/inkscape"
   aria-hidden="true"
   focusable="false"
   data-prefix="fas"
   data-icon="farm"
   class="svg-inline--fa fa-farm fa-w-18"
   role="img"
   viewBox="0 0 1849.1265 554.82605"
   version="1.1"
   id="svg4"
   sodipodi:docname="within-farm_one.svg"
   inkscape:version="0.92.3 (2405546, 2018-03-11)"
   width="1849.1265"
   height="554.82605">
  <metadata
     id="metadata10">
    <rdf:RDF>
      <cc:Work
         rdf:about="">
        <dc:format>image/svg+xml</dc:format>
        <dc:type
           rdf:resource="http://purl.org/dc/dcmitype/StillImage" />
        <dc:title />
      </cc:Work>
    </rdf:RDF>
  </metadata>
  <defs
     id="defs8" />
  <sodipodi:namedview
     pagecolor="#ffffff"
     bordercolor="#666666"
     borderopacity="1"
     objecttolerance="10"
     gridtolerance="10"
     guidetolerance="10"
     inkscape:pageopacity="0"
     inkscape:pageshadow="2"
     inkscape:window-width="1920"
     inkscape:window-height="1009"
     id="namedview6"
     showgrid="false"
     inkscape:zoom="0.65186406"
     inkscape:cx="606.08004"
     inkscape:cy="194.07456"
     inkscape:window-x="0"
     inkscape:window-y="0"
     inkscape:window-maximized="1"
     inkscape:current-layer="svg4"
     fit-margin-top="5"
     fit-margin-left="5"
     fit-margin-right="5"
     fit-margin-bottom="5" />
  <path
     d="m 243.08361,104.7958 0.37,-0.17 a 111.93,111.93 0 0 0 -221.869998,21.09 v 400 H 149.58361 v -251.46 a 64.35,64.35 0 0 1 6.76,-28.63 l 55.48,-111 a 64.12,64.12 0 0 1 31.26,-29.83 z m 351.12,155.14 -55.49,-111 a 32,32 0 0 0 -15.62,-14.93 l -120.51,-53.530004 a 32,32 0 0 0 -26,0 l -120.51,53.560004 a 32,32 0 0 0 -15.62,14.93 l -55.49,111 a 32.08,32.08 0 0 0 -3.38,14.29 v 251.46 h 128 v -96 h 160 v 96 h 128 v -251.46 a 32.08,32.08 0 0 0 -3.38,-14.32 z m -156.62,73.78 h -96 v -96 h 96 z"
     id="path2"
     inkscape:connector-curvature="0"
     style="fill:currentColor" />
  <g
     aria-label="long-arrow-alt-right"
     style="font-style:normal;font-variant:normal;font-weight:normal;font-stretch:normal;font-size:604.13293457px;line-height:1.25;font-family:'Font Awesome 5 Pro';-inkscape-font-specification:'Font Awesome 5 Pro';letter-spacing:0px;word-spacing:0px;fill:#000000;fill-opacity:1;stroke:none;stroke-width:15.10332394"
     id="text1222">
    <path
       d="m 1072.7519,422.3357 116.8147,-116.81476 c 5.8998,-4.71979 5.8998,-14.15937 0,-20.0591 L 1072.7519,168.64707 c -9.4396,-8.25963 -23.599,-2.35989 -23.599,10.61952 v 83.77625 H 685.72919 c -8.25963,0 -14.15937,5.89974 -14.15937,14.15937 v 37.7583 c 0,8.25963 5.89974,14.15937 14.15937,14.15937 h 363.42371 v 83.77625 c 0,12.97942 14.1594,18.87915 23.599,9.43957 z"
       style="stroke-width:15.10332394"
       id="path4191" />
  </g>
  <path
     d="m 1465.6788,104.7958 0.37,-0.17 a 111.93,111.93 0 0 0 -221.87,21.09001 V 525.7158 h 128 V 274.25581 a 64.35,64.35 0 0 1 6.76,-28.63 l 55.48,-111 a 64.12,64.12 0 0 1 31.26,-29.83001 z m 351.12,155.14001 -55.49,-111 a 32,32 0 0 0 -15.62,-14.93 l -120.51,-53.530006 a 32,32 0 0 0 -26,0 l -120.51,53.560006 a 32,32 0 0 0 -15.62,14.93 l -55.49,111 a 32.08,32.08 0 0 0 -3.38,14.29 V 525.7158 h 128 v -95.99999 h 160 v 95.99999 h 128 V 274.25581 a 32.08,32.08 0 0 0 -3.38,-14.32 z m -156.62,73.78 h -96 v -96 h 96 z"
     id="path2-6"
     inkscape:connector-curvature="0"
     style="fill:currentColor" />
</svg>
