<?xml version="1.0" encoding="UTF-8"?>
<svg xmlns="http://www.w3.org/2000/svg" xmlns:xlink="http://www.w3.org/1999/xlink" width="288pt" height="288pt" viewBox="0 0 288 288" version="1.1">
<g id="surface121">
<path style="fill:none;stroke-width:2.25;stroke-linecap:round;stroke-linejoin:round;stroke:rgb(95.686275%,90.196078%,83.137255%);stroke-opacity:1;stroke-miterlimit:10;" d="M 218.398438 124.800781 L 217.710938 123.359375 L 217.105469 121.980469 L 216.585938 120.660156 L 216.140625 119.402344 L 215.773438 118.203125 L 215.480469 117.0625 L 215.25 115.984375 L 215.089844 114.964844 L 214.984375 114.003906 L 214.9375 113.105469 L 214.945312 112.265625 L 215.003906 111.484375 L 215.105469 110.765625 L 215.25 110.105469 L 215.433594 109.507812 L 215.652344 108.964844 L 215.902344 108.488281 L 216.179688 108.066406 L 216.480469 107.707031 L 216.800781 107.40625 L 217.140625 107.167969 L 217.492188 106.988281 L 217.851562 106.867188 L 218.214844 106.808594 L 218.582031 106.808594 L 218.949219 106.867188 L 219.308594 106.988281 L 219.660156 107.167969 L 219.996094 107.40625 L 220.320312 107.707031 L 220.621094 108.066406 L 220.898438 108.488281 L 221.148438 108.964844 L 221.363281 109.507812 L 221.546875 110.105469 L 221.695312 110.765625 L 221.796875 111.484375 L 221.851562 112.265625 L 221.859375 113.105469 L 221.816406 114.003906 L 221.710938 114.964844 L 221.546875 115.984375 L 221.320312 117.0625 L 221.027344 118.203125 L 220.660156 119.402344 L 220.214844 120.660156 L 219.695312 121.980469 L 219.089844 123.359375 L 218.398438 124.800781 "/>
<path style="fill:none;stroke-width:2.25;stroke-linecap:round;stroke-linejoin:round;stroke:rgb(95.686275%,90.196078%,83.137255%);stroke-opacity:1;stroke-miterlimit:10;" d="M 206.933594 140.34375 L 109.863281 170.339844 "/>
<path style="fill:none;stroke-width:2.25;stroke-linecap:round;stroke-linejoin:round;stroke:rgb(95.686275%,90.196078%,83.137255%);stroke-opacity:1;stroke-miterlimit:10;" d="M 211.117188 146.335938 L 179.847656 187.265625 "/>
<path style="fill:none;stroke-width:2.25;stroke-linecap:round;stroke-linejoin:round;stroke:rgb(95.686275%,90.196078%,83.137255%);stroke-opacity:1;stroke-miterlimit:10;" d="M 161.097656 80.34375 L 109.863281 96.175781 "/>
<path style="fill:none;stroke-width:2.25;stroke-linecap:round;stroke-linejoin:round;stroke:rgb(95.686275%,90.196078%,83.137255%);stroke-opacity:1;stroke-miterlimit:10;" d="M 165.28125 86.335938 L 105.683594 164.347656 "/>
<path style="fill:none;stroke-width:2.25;stroke-linecap:round;stroke-linejoin:round;stroke:rgb(95.686275%,90.196078%,83.137255%);stroke-opacity:1;stroke-miterlimit:10;" d="M 98.398438 111.71875 L 98.398438 161.882812 "/>
<path style="fill:none;stroke-width:2.25;stroke-linecap:round;stroke-linejoin:round;stroke:rgb(95.686275%,90.196078%,83.137255%);stroke-opacity:1;stroke-miterlimit:10;" d="M 109.863281 177.425781 L 161.097656 193.257812 "/>
</g>
</svg>
