<?xml version="1.0" encoding="UTF-8" standalone="no"?>
<svg
   xmlns:dc="http://purl.org/dc/elements/1.1/"
   xmlns:cc="http://creativecommons.org/ns#"
   xmlns:rdf="http://www.w3.org/1999/02/22-rdf-syntax-ns#"
   xmlns:svg="http://www.w3.org/2000/svg"
   xmlns="http://www.w3.org/2000/svg"
   xmlns:sodipodi="http://sodipodi.sourceforge.net/DTD/sodipodi-0.dtd"
   xmlns:inkscape="http://www.inkscape.org/namespaces/inkscape"
   width="264.99219pt"
   height="69.180862pt"
   viewBox="0 0 264.99219 69.180862"
   version="1.1"
   id="svg2"
   inkscape:version="0.91 r13725"
   sodipodi:docname="motifs.svg">
  <metadata
     id="metadata267">
    <rdf:RDF>
      <cc:Work
         rdf:about="">
        <dc:format>image/svg+xml</dc:format>
        <dc:type
           rdf:resource="http://purl.org/dc/dcmitype/StillImage" />
        <dc:title></dc:title>
      </cc:Work>
    </rdf:RDF>
  </metadata>
  <defs
     id="defs265" />
  <sodipodi:namedview
     pagecolor="#ffffff"
     bordercolor="#666666"
     borderopacity="1"
     objecttolerance="10"
     gridtolerance="10"
     guidetolerance="10"
     inkscape:pageopacity="0"
     inkscape:pageshadow="2"
     inkscape:window-width="1920"
     inkscape:window-height="1026"
     id="namedview263"
     showgrid="false"
     fit-margin-top="0"
     fit-margin-left="0"
     fit-margin-right="0"
     fit-margin-bottom="0"
     inkscape:zoom="1.6144357"
     inkscape:cx="322.4432"
     inkscape:cy="115.79096"
     inkscape:window-x="0"
     inkscape:window-y="0"
     inkscape:window-maximized="1"
     inkscape:current-layer="svg2" />
  <path
     inkscape:connector-curvature="0"
     id="path5"
     d="M 5.757813,4.229492 27.265626,14.983399"
     style="fill:none;stroke:#f3e6d4;stroke-width:1.5;stroke-linecap:round;stroke-linejoin:round;stroke-miterlimit:10;stroke-opacity:1" />
  <path
     inkscape:connector-curvature="0"
     id="path7"
     d="m 2.699219,26.264649 0,-20.867188"
     style="fill:none;stroke:#f3e6d4;stroke-width:1.5;stroke-linecap:round;stroke-linejoin:round;stroke-miterlimit:10;stroke-opacity:1" />
  <path
     inkscape:connector-curvature="0"
     id="path9"
     d="m 19.828126,13.760742 1.105468,-0.05078 1.265625,0.02734 1.574219,0.183594 3.460938,1.128906 0.06641,-0.128906 -2.980469,-2.09375 -1.09375,-1.152344 -0.78125,-0.992187 -0.621094,-0.914063 z m 0,0"
     style="fill:#f3e6d4;fill-opacity:1;fill-rule:nonzero;stroke:#f3e6d4;stroke-width:0.75;stroke-linecap:round;stroke-linejoin:round;stroke-miterlimit:10;stroke-opacity:1" />
  <path
     inkscape:connector-curvature="0"
     id="path11"
     d="M 4.929688,12.59668 4.390626,11.631836 3.851563,10.487305 3.3125,8.999024 2.769532,5.397461 2.625,5.397461 2.085938,8.999024 1.546876,10.487305 1.007813,11.631836 0.464844,12.59668 Z m 0,0"
     style="fill:#f3e6d4;fill-opacity:1;fill-rule:nonzero;stroke:#f3e6d4;stroke-width:0.75;stroke-linecap:round;stroke-linejoin:round;stroke-miterlimit:10;stroke-opacity:1" />
  <path
     inkscape:connector-curvature="0"
     id="path13"
     d="m 32.378907,16.19043 c 0,3.597656 -5.398438,3.597656 -5.398438,0 0,-3.597656 5.398438,-3.597656 5.398438,0"
     style="fill:#8a99eb;fill-opacity:1;fill-rule:nonzero;stroke:none" />
  <path
     inkscape:connector-curvature="0"
     id="path15"
     d="m 5.398438,2.698242 c 0,3.597657 -5.398438,3.597657 -5.398438,0 0,-3.597656 5.398438,-3.597656 5.398438,0"
     style="fill:#8a99eb;fill-opacity:1;fill-rule:nonzero;stroke:none" />
  <path
     inkscape:connector-curvature="0"
     id="path17"
     d="m 5.398438,29.682618 c 0,3.597656 -5.398438,3.597656 -5.398438,0 0,-3.597657 5.398438,-3.597657 5.398438,0"
     style="fill:#8a99eb;fill-opacity:1;fill-rule:nonzero;stroke:none" />
  <path
     inkscape:connector-curvature="0"
     id="path19"
     d="M 44.523438,4.229492 66.035157,14.983399"
     style="fill:none;stroke:#f3e6d4;stroke-width:1.5;stroke-linecap:round;stroke-linejoin:round;stroke-miterlimit:10;stroke-opacity:1" />
  <path
     inkscape:connector-curvature="0"
     id="path21"
     d="M 44.523438,28.151368 66.035157,17.397461"
     style="fill:none;stroke:#f3e6d4;stroke-width:1.5;stroke-linecap:round;stroke-linejoin:round;stroke-miterlimit:10;stroke-opacity:1" />
  <path
     inkscape:connector-curvature="0"
     id="path23"
     d="m 58.597657,13.760742 1.105469,-0.05078 1.265624,0.02734 1.574219,0.183594 3.460938,1.128906 0.0625,-0.128906 -2.976563,-2.09375 -1.09375,-1.152344 -0.78125,-0.992187 -0.621094,-0.914063 z m 0,0"
     style="fill:#f3e6d4;fill-opacity:1;fill-rule:nonzero;stroke:#f3e6d4;stroke-width:0.75;stroke-linecap:round;stroke-linejoin:round;stroke-miterlimit:10;stroke-opacity:1" />
  <path
     inkscape:connector-curvature="0"
     id="path25"
     d="m 60.59375,22.612305 0.621094,-0.914063 0.78125,-0.992187 1.09375,-1.152344 2.976563,-2.09375 -0.0625,-0.128906 -3.460938,1.128906 -1.574219,0.183594 -1.265624,0.02734 -1.105469,-0.05078 z m 0,0"
     style="fill:#f3e6d4;fill-opacity:1;fill-rule:nonzero;stroke:#f3e6d4;stroke-width:0.75;stroke-linecap:round;stroke-linejoin:round;stroke-miterlimit:10;stroke-opacity:1" />
  <path
     inkscape:connector-curvature="0"
     id="path27"
     d="m 71.148438,16.19043 c 0,3.597656 -5.398438,3.597656 -5.398438,0 0,-3.597656 5.398438,-3.597656 5.398438,0"
     style="fill:#8a99eb;fill-opacity:1;fill-rule:nonzero;stroke:none" />
  <path
     inkscape:connector-curvature="0"
     id="path29"
     d="m 44.167969,2.698242 c 0,3.597657 -5.398437,3.597657 -5.398437,0 0,-3.597656 5.398437,-3.597656 5.398437,0"
     style="fill:#8a99eb;fill-opacity:1;fill-rule:nonzero;stroke:none" />
  <path
     inkscape:connector-curvature="0"
     id="path31"
     d="m 44.167969,29.682618 c 0,3.597656 -5.398437,3.597656 -5.398437,0 0,-3.597657 5.398437,-3.597657 5.398437,0"
     style="fill:#8a99eb;fill-opacity:1;fill-rule:nonzero;stroke:none" />
  <path
     inkscape:connector-curvature="0"
     id="path33"
     d="M 83.292969,28.151368 104.80469,17.397461"
     style="fill:none;stroke:#f3e6d4;stroke-width:1.5;stroke-linecap:round;stroke-linejoin:round;stroke-miterlimit:10;stroke-opacity:1" />
  <path
     inkscape:connector-curvature="0"
     id="path35"
     d="m 80.238282,26.264649 0,-20.867188"
     style="fill:none;stroke:#f3e6d4;stroke-width:1.5;stroke-linecap:round;stroke-linejoin:round;stroke-miterlimit:10;stroke-opacity:1" />
  <path
     inkscape:connector-curvature="0"
     id="path37"
     d="m 99.363278,22.612305 0.6211,-0.914063 0.781252,-0.992187 1.09375,-1.152344 2.97656,-2.09375 -0.0625,-0.128906 -3.46094,1.128906 -1.578122,0.183594 -1.26172,0.02734 -1.10547,-0.05078 z m 0,0"
     style="fill:#f3e6d4;fill-opacity:1;fill-rule:nonzero;stroke:#f3e6d4;stroke-width:0.75;stroke-linecap:round;stroke-linejoin:round;stroke-miterlimit:10;stroke-opacity:1" />
  <path
     inkscape:connector-curvature="0"
     id="path39"
     d="m 82.46875,12.59668 -0.539062,-0.964844 -0.539062,-1.144531 -0.542969,-1.488281 -0.539063,-3.601563 -0.144531,0 -0.539063,3.601563 -0.539062,1.488281 -0.539062,1.144531 -0.542969,0.964844 z m 0,0"
     style="fill:#f3e6d4;fill-opacity:1;fill-rule:nonzero;stroke:#f3e6d4;stroke-width:0.75;stroke-linecap:round;stroke-linejoin:round;stroke-miterlimit:10;stroke-opacity:1" />
  <path
     inkscape:connector-curvature="0"
     id="path41"
     d="m 109.91797,16.19043 c 0,3.597656 -5.39844,3.597656 -5.39844,0 0,-3.597656 5.39844,-3.597656 5.39844,0"
     style="fill:#8a99eb;fill-opacity:1;fill-rule:nonzero;stroke:none" />
  <path
     inkscape:connector-curvature="0"
     id="path43"
     d="m 82.933594,2.698242 c 0,3.597657 -5.394531,3.597657 -5.394531,0 0,-3.597656 5.394531,-3.597656 5.394531,0"
     style="fill:#8a99eb;fill-opacity:1;fill-rule:nonzero;stroke:none" />
  <path
     inkscape:connector-curvature="0"
     id="path45"
     d="m 82.933594,29.682618 c 0,3.597656 -5.394531,3.597656 -5.394531,0 0,-3.597657 5.394531,-3.597657 5.394531,0"
     style="fill:#8a99eb;fill-opacity:1;fill-rule:nonzero;stroke:none" />
  <path
     inkscape:connector-curvature="0"
     id="path47"
     d="m 122.0625,4.229492 21.51172,10.753907"
     style="fill:none;stroke:#f3e6d4;stroke-width:1.5;stroke-linecap:round;stroke-linejoin:round;stroke-miterlimit:10;stroke-opacity:1" />
  <path
     inkscape:connector-curvature="0"
     id="path49"
     d="M 122.0625,28.151368 143.57422,17.397461"
     style="fill:none;stroke:#f3e6d4;stroke-width:1.5;stroke-linecap:round;stroke-linejoin:round;stroke-miterlimit:10;stroke-opacity:1" />
  <path
     inkscape:connector-curvature="0"
     id="path51"
     d="m 119.00782,26.264649 0,-20.867188"
     style="fill:none;stroke:#f3e6d4;stroke-width:1.5;stroke-linecap:round;stroke-linejoin:round;stroke-miterlimit:10;stroke-opacity:1" />
  <path
     inkscape:connector-curvature="0"
     id="path53"
     d="m 136.13672,13.760742 1.10547,-0.05078 1.26172,0.02734 1.57812,0.183594 3.46094,1.128906 0.0625,-0.128906 -2.97656,-2.09375 -1.09375,-1.152344 -0.78125,-0.992187 -0.6211,-0.914063 z m 0,0"
     style="fill:#f3e6d4;fill-opacity:1;fill-rule:nonzero;stroke:#f3e6d4;stroke-width:0.75;stroke-linecap:round;stroke-linejoin:round;stroke-miterlimit:10;stroke-opacity:1" />
  <path
     inkscape:connector-curvature="0"
     id="path55"
     d="m 138.13281,22.612305 0.6211,-0.914063 0.78125,-0.992187 1.09375,-1.152344 2.97656,-2.09375 -0.0625,-0.128906 -3.46094,1.128906 -1.57812,0.183594 -1.26172,0.02734 -1.10547,-0.05078 z m 0,0"
     style="fill:#f3e6d4;fill-opacity:1;fill-rule:nonzero;stroke:#f3e6d4;stroke-width:0.75;stroke-linecap:round;stroke-linejoin:round;stroke-miterlimit:10;stroke-opacity:1" />
  <path
     inkscape:connector-curvature="0"
     id="path57"
     d="m 121.23828,12.59668 -0.53906,-0.964844 -0.53906,-1.144531 -0.54297,-1.488281 -0.53906,-3.601563 -0.14453,0 -0.53907,3.601563 -0.53906,1.488281 -0.54297,1.144531 -0.53906,0.964844 z m 0,0"
     style="fill:#f3e6d4;fill-opacity:1;fill-rule:nonzero;stroke:#f3e6d4;stroke-width:0.75;stroke-linecap:round;stroke-linejoin:round;stroke-miterlimit:10;stroke-opacity:1" />
  <path
     inkscape:connector-curvature="0"
     id="path59"
     d="m 148.6875,16.19043 c 0,3.597656 -5.39844,3.597656 -5.39844,0 0,-3.597656 5.39844,-3.597656 5.39844,0"
     style="fill:#8a99eb;fill-opacity:1;fill-rule:nonzero;stroke:none" />
  <path
     inkscape:connector-curvature="0"
     id="path61"
     d="m 121.70313,2.698242 c 0,3.597657 -5.39453,3.597657 -5.39453,0 0,-3.597656 5.39453,-3.597656 5.39453,0"
     style="fill:#8a99eb;fill-opacity:1;fill-rule:nonzero;stroke:none" />
  <path
     inkscape:connector-curvature="0"
     id="path63"
     d="m 121.70313,29.682618 c 0,3.597656 -5.39453,3.597656 -5.39453,0 0,-3.597657 5.39453,-3.597657 5.39453,0"
     style="fill:#8a99eb;fill-opacity:1;fill-rule:nonzero;stroke:none" />
  <path
     inkscape:connector-curvature="0"
     id="path65"
     d="M 181.69922,17.717774 160.1875,28.475586"
     style="fill:none;stroke:#f3e6d4;stroke-width:1.5;stroke-linecap:round;stroke-linejoin:round;stroke-miterlimit:10;stroke-opacity:1" />
  <path
     inkscape:connector-curvature="0"
     id="path67"
     d="m 160.83203,4.229492 21.51172,10.753907"
     style="fill:none;stroke:#f3e6d4;stroke-width:1.5;stroke-linecap:round;stroke-linejoin:round;stroke-miterlimit:10;stroke-opacity:1" />
  <path
     inkscape:connector-curvature="0"
     id="path69"
     d="M 160.83203,28.151368 182.34375,17.397461"
     style="fill:none;stroke:#f3e6d4;stroke-width:1.5;stroke-linecap:round;stroke-linejoin:round;stroke-miterlimit:10;stroke-opacity:1" />
  <path
     inkscape:connector-curvature="0"
     id="path71"
     d="m 165.62891,23.256836 -0.6211,0.914063 -0.78125,0.996093 -1.08984,1.148438 -2.98047,2.09375 0.0664,0.128906 3.46094,-1.125 1.57421,-0.183594 1.26563,-0.03125 1.10547,0.05078 z m 0,0"
     style="fill:#f3e6d4;fill-opacity:1;fill-rule:nonzero;stroke:#f3e6d4;stroke-width:0.75;stroke-linecap:round;stroke-linejoin:round;stroke-miterlimit:10;stroke-opacity:1" />
  <path
     inkscape:connector-curvature="0"
     id="path73"
     d="m 174.90625,13.760742 1.10547,-0.05078 1.26172,0.02734 1.57812,0.183594 3.46094,1.128906 0.0625,-0.128906 -2.97656,-2.09375 -1.09375,-1.152344 -0.78125,-0.992187 -0.62109,-0.914063 z m 0,0"
     style="fill:#f3e6d4;fill-opacity:1;fill-rule:nonzero;stroke:#f3e6d4;stroke-width:0.75;stroke-linecap:round;stroke-linejoin:round;stroke-miterlimit:10;stroke-opacity:1" />
  <path
     inkscape:connector-curvature="0"
     id="path75"
     d="m 176.90235,22.612305 0.62109,-0.914063 0.78125,-0.992187 1.09375,-1.152344 2.97656,-2.09375 -0.0625,-0.128906 -3.46094,1.128906 -1.57812,0.183594 -1.26172,0.02734 -1.10547,-0.05078 z m 0,0"
     style="fill:#f3e6d4;fill-opacity:1;fill-rule:nonzero;stroke:#f3e6d4;stroke-width:0.75;stroke-linecap:round;stroke-linejoin:round;stroke-miterlimit:10;stroke-opacity:1" />
  <path
     inkscape:connector-curvature="0"
     id="path77"
     d="m 187.45313,16.19043 c 0,3.597656 -5.39453,3.597656 -5.39453,0 0,-3.597656 5.39453,-3.597656 5.39453,0"
     style="fill:#8a99eb;fill-opacity:1;fill-rule:nonzero;stroke:none" />
  <path
     inkscape:connector-curvature="0"
     id="path79"
     d="m 160.47266,2.698242 c 0,3.597657 -5.39453,3.597657 -5.39453,0 0,-3.597656 5.39453,-3.597656 5.39453,0"
     style="fill:#8a99eb;fill-opacity:1;fill-rule:nonzero;stroke:none" />
  <path
     inkscape:connector-curvature="0"
     id="path81"
     d="m 160.47266,29.682618 c 0,3.597656 -5.39453,3.597656 -5.39453,0 0,-3.597657 5.39453,-3.597657 5.39453,0"
     style="fill:#8a99eb;fill-opacity:1;fill-rule:nonzero;stroke:none" />
  <path
     inkscape:connector-curvature="0"
     id="path83"
     d="M 220.46875,14.663086 198.95703,3.905274"
     style="fill:none;stroke:#f3e6d4;stroke-width:1.5;stroke-linecap:round;stroke-linejoin:round;stroke-miterlimit:10;stroke-opacity:1" />
  <path
     inkscape:connector-curvature="0"
     id="path85"
     d="M 220.46875,17.717774 198.95703,28.475586"
     style="fill:none;stroke:#f3e6d4;stroke-width:1.5;stroke-linecap:round;stroke-linejoin:round;stroke-miterlimit:10;stroke-opacity:1" />
  <path
     inkscape:connector-curvature="0"
     id="path87"
     d="m 199.60156,4.229492 21.51172,10.753907"
     style="fill:none;stroke:#f3e6d4;stroke-width:1.5;stroke-linecap:round;stroke-linejoin:round;stroke-miterlimit:10;stroke-opacity:1" />
  <path
     inkscape:connector-curvature="0"
     id="path89"
     d="m 206.39453,5.131836 -1.10156,0.05078 -1.26562,-0.03125 -1.57422,-0.183594 -3.46094,-1.125 -0.0664,0.128906 2.98047,2.09375 1.08985,1.148438 0.78125,0.996093 0.62109,0.914063 z m 0,0"
     style="fill:#f3e6d4;fill-opacity:1;fill-rule:nonzero;stroke:#f3e6d4;stroke-width:0.75;stroke-linecap:round;stroke-linejoin:round;stroke-miterlimit:10;stroke-opacity:1" />
  <path
     inkscape:connector-curvature="0"
     id="path91"
     d="m 204.39844,23.256836 -0.62109,0.914063 -0.78125,0.996093 -1.08985,1.148438 -2.98047,2.09375 0.0664,0.128906 3.46094,-1.125 1.57422,-0.183594 1.26562,-0.03125 1.10156,0.05078 z m 0,0"
     style="fill:#f3e6d4;fill-opacity:1;fill-rule:nonzero;stroke:#f3e6d4;stroke-width:0.75;stroke-linecap:round;stroke-linejoin:round;stroke-miterlimit:10;stroke-opacity:1" />
  <path
     inkscape:connector-curvature="0"
     id="path93"
     d="m 213.67578,13.760742 1.10157,-0.05078 1.26562,0.02734 1.57813,0.183594 3.46093,1.128906 0.0625,-0.128906 -2.97656,-2.09375 -1.09375,-1.152344 -0.78125,-0.992187 -0.62109,-0.914063 z m 0,0"
     style="fill:#f3e6d4;fill-opacity:1;fill-rule:nonzero;stroke:#f3e6d4;stroke-width:0.75;stroke-linecap:round;stroke-linejoin:round;stroke-miterlimit:10;stroke-opacity:1" />
  <path
     inkscape:connector-curvature="0"
     id="path95"
     d="m 226.22266,16.19043 c 0,3.597656 -5.39453,3.597656 -5.39453,0 0,-3.597656 5.39453,-3.597656 5.39453,0"
     style="fill:#8a99eb;fill-opacity:1;fill-rule:nonzero;stroke:none" />
  <path
     inkscape:connector-curvature="0"
     id="path97"
     d="m 199.24219,2.698242 c 0,3.597657 -5.39453,3.597657 -5.39453,0 0,-3.597656 5.39453,-3.597656 5.39453,0"
     style="fill:#8a99eb;fill-opacity:1;fill-rule:nonzero;stroke:none" />
  <path
     inkscape:connector-curvature="0"
     id="path99"
     d="m 199.24219,29.682618 c 0,3.597656 -5.39453,3.597656 -5.39453,0 0,-3.597657 5.39453,-3.597657 5.39453,0"
     style="fill:#8a99eb;fill-opacity:1;fill-rule:nonzero;stroke:none" />
  <path
     inkscape:connector-curvature="0"
     id="path101"
     d="M 259.23828,17.717774 237.72656,28.475586"
     style="fill:none;stroke:#f3e6d4;stroke-width:1.5;stroke-linecap:round;stroke-linejoin:round;stroke-miterlimit:10;stroke-opacity:1" />
  <path
     inkscape:connector-curvature="0"
     id="path103"
     d="m 238.3711,4.229492 21.51171,10.753907"
     style="fill:none;stroke:#f3e6d4;stroke-width:1.5;stroke-linecap:round;stroke-linejoin:round;stroke-miterlimit:10;stroke-opacity:1" />
  <path
     inkscape:connector-curvature="0"
     id="path105"
     d="m 235.3125,26.264649 0,-20.867188"
     style="fill:none;stroke:#f3e6d4;stroke-width:1.5;stroke-linecap:round;stroke-linejoin:round;stroke-miterlimit:10;stroke-opacity:1" />
  <path
     inkscape:connector-curvature="0"
     id="path107"
     d="m 243.16797,23.256836 -0.62109,0.914063 -0.78125,0.996093 -1.09375,1.148438 -2.97657,2.09375 0.0625,0.128906 3.46485,-1.125 1.57422,-0.183594 1.26562,-0.03125 1.10156,0.05078 z m 0,0"
     style="fill:#f3e6d4;fill-opacity:1;fill-rule:nonzero;stroke:#f3e6d4;stroke-width:0.75;stroke-linecap:round;stroke-linejoin:round;stroke-miterlimit:10;stroke-opacity:1" />
  <path
     inkscape:connector-curvature="0"
     id="path109"
     d="m 252.44531,13.760742 1.10157,-0.05078 1.26562,0.02734 1.57422,0.183594 3.46484,1.128906 0.0625,-0.128906 -2.97656,-2.09375 -1.09375,-1.152344 -0.78125,-0.992187 -0.62109,-0.914063 z m 0,0"
     style="fill:#f3e6d4;fill-opacity:1;fill-rule:nonzero;stroke:#f3e6d4;stroke-width:0.75;stroke-linecap:round;stroke-linejoin:round;stroke-miterlimit:10;stroke-opacity:1" />
  <path
     inkscape:connector-curvature="0"
     id="path111"
     d="m 237.54688,12.59668 -0.53907,-0.964844 -0.54296,-1.144531 -0.53907,-1.488281 -0.53906,-3.601563 -0.14453,0 -0.53906,3.601563 -0.54297,1.488281 -0.53906,1.144531 -0.53907,0.964844 z m 0,0"
     style="fill:#f3e6d4;fill-opacity:1;fill-rule:nonzero;stroke:#f3e6d4;stroke-width:0.75;stroke-linecap:round;stroke-linejoin:round;stroke-miterlimit:10;stroke-opacity:1" />
  <path
     inkscape:connector-curvature="0"
     id="path113"
     d="m 264.99219,16.19043 c 0,3.597656 -5.39453,3.597656 -5.39453,0 0,-3.597656 5.39453,-3.597656 5.39453,0"
     style="fill:#8a99eb;fill-opacity:1;fill-rule:nonzero;stroke:none" />
  <path
     inkscape:connector-curvature="0"
     id="path115"
     d="m 238.01172,2.698242 c 0,3.597657 -5.39453,3.597657 -5.39453,0 0,-3.597656 5.39453,-3.597656 5.39453,0"
     style="fill:#8a99eb;fill-opacity:1;fill-rule:nonzero;stroke:none" />
  <path
     inkscape:connector-curvature="0"
     id="path117"
     d="m 238.01172,29.682618 c 0,3.597656 -5.39453,3.597656 -5.39453,0 0,-3.597657 5.39453,-3.597657 5.39453,0"
     style="fill:#8a99eb;fill-opacity:1;fill-rule:nonzero;stroke:none" />
  <path
     inkscape:connector-curvature="0"
     id="path119"
     d="m 25.940628,41.029492 21.51172,10.753907"
     style="fill:none;stroke:#f3e6d4;stroke-width:1.5;stroke-linecap:round;stroke-linejoin:round;stroke-miterlimit:10;stroke-opacity:1" />
  <path
     inkscape:connector-curvature="0"
     id="path121"
     d="m 22.882028,42.916211 0,20.867188"
     style="fill:none;stroke:#f3e6d4;stroke-width:1.5;stroke-linecap:round;stroke-linejoin:round;stroke-miterlimit:10;stroke-opacity:1" />
  <path
     inkscape:connector-curvature="0"
     id="path123"
     d="M 25.940628,64.951368 47.452348,54.197461"
     style="fill:none;stroke:#f3e6d4;stroke-width:1.5;stroke-linecap:round;stroke-linejoin:round;stroke-miterlimit:10;stroke-opacity:1" />
  <path
     inkscape:connector-curvature="0"
     id="path125"
     d="m 22.882028,63.064649 0,-20.867188"
     style="fill:none;stroke:#f3e6d4;stroke-width:1.5;stroke-linecap:round;stroke-linejoin:round;stroke-miterlimit:10;stroke-opacity:1" />
  <path
     inkscape:connector-curvature="0"
     id="path127"
     d="m 40.014848,50.560742 1.10156,-0.05078 1.26562,0.02734 1.57422,0.183594 3.46094,1.128906 0.0664,-0.128906 -2.98047,-2.09375 -1.08985,-1.152344 -0.78125,-0.992187 -0.62109,-0.914063 z m 0,0"
     style="fill:#f3e6d4;fill-opacity:1;fill-rule:nonzero;stroke:#f3e6d4;stroke-width:0.75;stroke-linecap:round;stroke-linejoin:round;stroke-miterlimit:10;stroke-opacity:1" />
  <path
     inkscape:connector-curvature="0"
     id="path129"
     d="m 20.651558,56.58418 0.53907,0.964844 0.53906,1.144531 0.54297,1.488281 0.53906,3.601563 0.14453,0 0.53906,-3.601563 0.53907,-1.488281 0.53906,-1.144531 0.54297,-0.964844 z m 0,0"
     style="fill:#f3e6d4;fill-opacity:1;fill-rule:nonzero;stroke:#f3e6d4;stroke-width:0.75;stroke-linecap:round;stroke-linejoin:round;stroke-miterlimit:10;stroke-opacity:1" />
  <path
     inkscape:connector-curvature="0"
     id="path131"
     d="m 42.010938,59.412305 0.62109,-0.914063 0.78125,-0.992187 1.08985,-1.152344 2.98047,-2.09375 -0.0664,-0.128906 -3.46094,1.128906 -1.57422,0.183594 -1.26562,0.02734 -1.10156,-0.05078 z m 0,0"
     style="fill:#f3e6d4;fill-opacity:1;fill-rule:nonzero;stroke:#f3e6d4;stroke-width:0.75;stroke-linecap:round;stroke-linejoin:round;stroke-miterlimit:10;stroke-opacity:1" />
  <path
     inkscape:connector-curvature="0"
     id="path133"
     d="m 25.116408,49.39668 -0.54297,-0.964844 -0.53906,-1.144531 -0.53907,-1.488281 -0.53906,-3.601563 -0.14453,0 -0.53906,3.601563 -0.54297,1.488281 -0.53906,1.144531 -0.53907,0.964844 z m 0,0"
     style="fill:#f3e6d4;fill-opacity:1;fill-rule:nonzero;stroke:#f3e6d4;stroke-width:0.75;stroke-linecap:round;stroke-linejoin:round;stroke-miterlimit:10;stroke-opacity:1" />
  <path
     inkscape:connector-curvature="0"
     id="path135"
     d="m 52.561718,52.99043 c 0,3.597656 -5.39453,3.597656 -5.39453,0 0,-3.597656 5.39453,-3.597656 5.39453,0"
     style="fill:#8a99eb;fill-opacity:1;fill-rule:nonzero;stroke:none" />
  <path
     inkscape:connector-curvature="0"
     id="path137"
     d="m 25.581248,39.498242 c 0,3.597657 -5.39453,3.597657 -5.39453,0 0,-3.597656 5.39453,-3.597656 5.39453,0"
     style="fill:#8a99eb;fill-opacity:1;fill-rule:nonzero;stroke:none" />
  <path
     inkscape:connector-curvature="0"
     id="path139"
     d="m 25.581248,66.482618 c 0,3.597656 -5.39453,3.597656 -5.39453,0 0,-3.597657 5.39453,-3.597657 5.39453,0"
     style="fill:#8a99eb;fill-opacity:1;fill-rule:nonzero;stroke:none" />
  <path
     inkscape:connector-curvature="0"
     id="path141"
     d="M 85.577348,51.463086 64.065628,40.705274"
     style="fill:none;stroke:#f3e6d4;stroke-width:1.5;stroke-linecap:round;stroke-linejoin:round;stroke-miterlimit:10;stroke-opacity:1" />
  <path
     inkscape:connector-curvature="0"
     id="path143"
     d="m 64.710158,41.029492 21.51172,10.753907"
     style="fill:none;stroke:#f3e6d4;stroke-width:1.5;stroke-linecap:round;stroke-linejoin:round;stroke-miterlimit:10;stroke-opacity:1" />
  <path
     inkscape:connector-curvature="0"
     id="path145"
     d="M 64.710158,64.951368 86.221878,54.197461"
     style="fill:none;stroke:#f3e6d4;stroke-width:1.5;stroke-linecap:round;stroke-linejoin:round;stroke-miterlimit:10;stroke-opacity:1" />
  <path
     inkscape:connector-curvature="0"
     id="path147"
     d="m 61.651558,63.064649 0,-20.867188"
     style="fill:none;stroke:#f3e6d4;stroke-width:1.5;stroke-linecap:round;stroke-linejoin:round;stroke-miterlimit:10;stroke-opacity:1" />
  <path
     inkscape:connector-curvature="0"
     id="path149"
     d="m 71.503128,41.931836 -1.10547,0.05078 -1.26172,-0.03125 -1.57813,-0.183594 -3.46093,-1.125 -0.0625,0.128906 2.97656,2.09375 1.09375,1.148438 0.78125,0.996093 0.62109,0.914063 z m 0,0"
     style="fill:#f3e6d4;fill-opacity:1;fill-rule:nonzero;stroke:#f3e6d4;stroke-width:0.75;stroke-linecap:round;stroke-linejoin:round;stroke-miterlimit:10;stroke-opacity:1" />
  <path
     inkscape:connector-curvature="0"
     id="path151"
     d="m 78.780468,50.560742 1.10547,-0.05078 1.26562,0.02734 1.57422,0.183594 3.46094,1.128906 0.0664,-0.128906 -2.98047,-2.09375 -1.08985,-1.152344 -0.78125,-0.992187 -0.62109,-0.914063 z m 0,0"
     style="fill:#f3e6d4;fill-opacity:1;fill-rule:nonzero;stroke:#f3e6d4;stroke-width:0.75;stroke-linecap:round;stroke-linejoin:round;stroke-miterlimit:10;stroke-opacity:1" />
  <path
     inkscape:connector-curvature="0"
     id="path153"
     d="m 80.780468,59.412305 0.62109,-0.914063 0.78125,-0.992187 1.08985,-1.152344 2.98047,-2.09375 -0.0664,-0.128906 -3.46094,1.128906 -1.57422,0.183594 -1.26562,0.02734 -1.10547,-0.05078 z m 0,0"
     style="fill:#f3e6d4;fill-opacity:1;fill-rule:nonzero;stroke:#f3e6d4;stroke-width:0.75;stroke-linecap:round;stroke-linejoin:round;stroke-miterlimit:10;stroke-opacity:1" />
  <path
     inkscape:connector-curvature="0"
     id="path155"
     d="m 63.885938,49.39668 -0.54297,-0.964844 -0.53906,-1.144531 -0.53906,-1.488281 -0.53907,-3.601563 -0.14453,0 -0.53906,3.601563 -0.54297,1.488281 -0.53906,1.144531 -0.53906,0.964844 z m 0,0"
     style="fill:#f3e6d4;fill-opacity:1;fill-rule:nonzero;stroke:#f3e6d4;stroke-width:0.75;stroke-linecap:round;stroke-linejoin:round;stroke-miterlimit:10;stroke-opacity:1" />
  <path
     inkscape:connector-curvature="0"
     id="path157"
     d="m 91.331248,52.99043 c 0,3.597656 -5.39453,3.597656 -5.39453,0 0,-3.597656 5.39453,-3.597656 5.39453,0"
     style="fill:#8a99eb;fill-opacity:1;fill-rule:nonzero;stroke:none" />
  <path
     inkscape:connector-curvature="0"
     id="path159"
     d="m 64.350778,39.498242 c 0,3.597657 -5.39453,3.597657 -5.39453,0 0,-3.597656 5.39453,-3.597656 5.39453,0"
     style="fill:#8a99eb;fill-opacity:1;fill-rule:nonzero;stroke:none" />
  <path
     inkscape:connector-curvature="0"
     id="path161"
     d="m 64.350778,66.482618 c 0,3.597656 -5.39453,3.597656 -5.39453,0 0,-3.597657 5.39453,-3.597657 5.39453,0"
     style="fill:#8a99eb;fill-opacity:1;fill-rule:nonzero;stroke:none" />
  <path
     inkscape:connector-curvature="0"
     id="path163"
     d="M 124.34688,54.517774 102.83516,65.275586"
     style="fill:none;stroke:#f3e6d4;stroke-width:1.5;stroke-linecap:round;stroke-linejoin:round;stroke-miterlimit:10;stroke-opacity:1" />
  <path
     inkscape:connector-curvature="0"
     id="path165"
     d="m 103.47969,41.029492 21.51172,10.753907"
     style="fill:none;stroke:#f3e6d4;stroke-width:1.5;stroke-linecap:round;stroke-linejoin:round;stroke-miterlimit:10;stroke-opacity:1" />
  <path
     inkscape:connector-curvature="0"
     id="path167"
     d="M 103.47969,64.951368 124.99141,54.197461"
     style="fill:none;stroke:#f3e6d4;stroke-width:1.5;stroke-linecap:round;stroke-linejoin:round;stroke-miterlimit:10;stroke-opacity:1" />
  <path
     inkscape:connector-curvature="0"
     id="path169"
     d="m 100.4211,63.064649 0,-20.867188"
     style="fill:none;stroke:#f3e6d4;stroke-width:1.5;stroke-linecap:round;stroke-linejoin:round;stroke-miterlimit:10;stroke-opacity:1" />
  <path
     inkscape:connector-curvature="0"
     id="path171"
     d="m 108.27656,60.056836 -0.62109,0.914063 -0.78125,0.996093 -1.09375,1.148438 -2.97656,2.09375 0.0625,0.128906 3.46094,-1.125 1.57812,-0.183594 1.26172,-0.03125 1.10547,0.05078 z m 0,0"
     style="fill:#f3e6d4;fill-opacity:1;fill-rule:nonzero;stroke:#f3e6d4;stroke-width:0.75;stroke-linecap:round;stroke-linejoin:round;stroke-miterlimit:10;stroke-opacity:1" />
  <path
     inkscape:connector-curvature="0"
     id="path173"
     d="m 117.55,50.560742 1.10547,-0.05078 1.26563,0.02734 1.57421,0.183594 3.46094,1.128906 0.0664,-0.128906 -2.98047,-2.09375 -1.08984,-1.152344 -0.78125,-0.992187 -0.625,-0.914063 z m 0,0"
     style="fill:#f3e6d4;fill-opacity:1;fill-rule:nonzero;stroke:#f3e6d4;stroke-width:0.75;stroke-linecap:round;stroke-linejoin:round;stroke-miterlimit:10;stroke-opacity:1" />
  <path
     inkscape:connector-curvature="0"
     id="path175"
     d="m 119.5461,59.412305 0.625,-0.914063 0.78125,-0.992187 1.08984,-1.152344 2.98047,-2.09375 -0.0664,-0.128906 -3.46094,1.128906 -1.57421,0.183594 -1.26563,0.02734 -1.10547,-0.05078 z m 0,0"
     style="fill:#f3e6d4;fill-opacity:1;fill-rule:nonzero;stroke:#f3e6d4;stroke-width:0.75;stroke-linecap:round;stroke-linejoin:round;stroke-miterlimit:10;stroke-opacity:1" />
  <path
     inkscape:connector-curvature="0"
     id="path177"
     d="m 102.65547,49.39668 -0.54297,-0.964844 -0.53906,-1.144531 -0.53906,-1.488281 -0.53907,-3.601563 -0.14453,0 -0.539062,3.601563 -0.54297,1.488281 -0.53906,1.144531 -0.53906,0.964844 z m 0,0"
     style="fill:#f3e6d4;fill-opacity:1;fill-rule:nonzero;stroke:#f3e6d4;stroke-width:0.75;stroke-linecap:round;stroke-linejoin:round;stroke-miterlimit:10;stroke-opacity:1" />
  <path
     inkscape:connector-curvature="0"
     id="path179"
     d="m 130.10078,52.99043 c 0,3.597656 -5.39453,3.597656 -5.39453,0 0,-3.597656 5.39453,-3.597656 5.39453,0"
     style="fill:#8a99eb;fill-opacity:1;fill-rule:nonzero;stroke:none" />
  <path
     inkscape:connector-curvature="0"
     id="path181"
     d="m 103.12031,39.498242 c 0,3.597657 -5.398432,3.597657 -5.398432,0 0,-3.597656 5.398432,-3.597656 5.398432,0"
     style="fill:#8a99eb;fill-opacity:1;fill-rule:nonzero;stroke:none" />
  <path
     inkscape:connector-curvature="0"
     id="path183"
     d="m 103.12031,66.482618 c 0,3.597656 -5.398432,3.597656 -5.398432,0 0,-3.597657 5.398432,-3.597657 5.398432,0"
     style="fill:#8a99eb;fill-opacity:1;fill-rule:nonzero;stroke:none" />
  <path
     inkscape:connector-curvature="0"
     id="path185"
     d="M 163.11641,51.463086 141.60469,40.705274"
     style="fill:none;stroke:#f3e6d4;stroke-width:1.5;stroke-linecap:round;stroke-linejoin:round;stroke-miterlimit:10;stroke-opacity:1" />
  <path
     inkscape:connector-curvature="0"
     id="path187"
     d="M 163.11641,54.517774 141.60469,65.275586"
     style="fill:none;stroke:#f3e6d4;stroke-width:1.5;stroke-linecap:round;stroke-linejoin:round;stroke-miterlimit:10;stroke-opacity:1" />
  <path
     inkscape:connector-curvature="0"
     id="path189"
     d="m 142.24922,41.029492 21.50781,10.753907"
     style="fill:none;stroke:#f3e6d4;stroke-width:1.5;stroke-linecap:round;stroke-linejoin:round;stroke-miterlimit:10;stroke-opacity:1" />
  <path
     inkscape:connector-curvature="0"
     id="path191"
     d="M 142.24922,64.951368 163.75703,54.197461"
     style="fill:none;stroke:#f3e6d4;stroke-width:1.5;stroke-linecap:round;stroke-linejoin:round;stroke-miterlimit:10;stroke-opacity:1" />
  <path
     inkscape:connector-curvature="0"
     id="path193"
     d="m 139.19063,63.064649 0,-20.867188"
     style="fill:none;stroke:#f3e6d4;stroke-width:1.5;stroke-linecap:round;stroke-linejoin:round;stroke-miterlimit:10;stroke-opacity:1" />
  <path
     inkscape:connector-curvature="0"
     id="path195"
     d="m 149.04219,41.931836 -1.10547,0.05078 -1.26172,-0.03125 -1.57812,-0.183594 -3.46094,-1.125 -0.0625,0.128906 2.97656,2.09375 1.09375,1.148438 0.78125,0.996093 0.6211,0.914063 z m 0,0"
     style="fill:#f3e6d4;fill-opacity:1;fill-rule:nonzero;stroke:#f3e6d4;stroke-width:0.75;stroke-linecap:round;stroke-linejoin:round;stroke-miterlimit:10;stroke-opacity:1" />
  <path
     inkscape:connector-curvature="0"
     id="path197"
     d="m 147.0461,60.056836 -0.6211,0.914063 -0.78125,0.996093 -1.09375,1.148438 -2.97656,2.09375 0.0625,0.128906 3.46094,-1.125 1.57812,-0.183594 1.26172,-0.03125 1.10547,0.05078 z m 0,0"
     style="fill:#f3e6d4;fill-opacity:1;fill-rule:nonzero;stroke:#f3e6d4;stroke-width:0.75;stroke-linecap:round;stroke-linejoin:round;stroke-miterlimit:10;stroke-opacity:1" />
  <path
     inkscape:connector-curvature="0"
     id="path199"
     d="m 156.31953,50.560742 1.10547,-0.05078 1.26563,0.02734 1.57422,0.183594 3.46093,1.128906 0.0664,-0.128906 -2.98047,-2.09375 -1.08984,-1.152344 -0.78516,-0.992187 -0.62109,-0.914063 z m 0,0"
     style="fill:#f3e6d4;fill-opacity:1;fill-rule:nonzero;stroke:#f3e6d4;stroke-width:0.75;stroke-linecap:round;stroke-linejoin:round;stroke-miterlimit:10;stroke-opacity:1" />
  <path
     inkscape:connector-curvature="0"
     id="path201"
     d="m 158.31563,59.412305 0.62109,-0.914063 0.78516,-0.992187 1.08984,-1.152344 2.98047,-2.09375 -0.0664,-0.128906 -3.46093,1.128906 -1.57422,0.183594 -1.26563,0.02734 -1.10547,-0.05078 z m 0,0"
     style="fill:#f3e6d4;fill-opacity:1;fill-rule:nonzero;stroke:#f3e6d4;stroke-width:0.75;stroke-linecap:round;stroke-linejoin:round;stroke-miterlimit:10;stroke-opacity:1" />
  <path
     inkscape:connector-curvature="0"
     id="path203"
     d="m 141.4211,49.39668 -0.53907,-0.964844 -0.53906,-1.144531 -0.53906,-1.488281 -0.53906,-3.601563 -0.14454,0 -0.54296,3.601563 -0.53907,1.488281 -0.53906,1.144531 -0.53906,0.964844 z m 0,0"
     style="fill:#f3e6d4;fill-opacity:1;fill-rule:nonzero;stroke:#f3e6d4;stroke-width:0.75;stroke-linecap:round;stroke-linejoin:round;stroke-miterlimit:10;stroke-opacity:1" />
  <path
     inkscape:connector-curvature="0"
     id="path205"
     d="m 168.87031,52.99043 c 0,3.597656 -5.39453,3.597656 -5.39453,0 0,-3.597656 5.39453,-3.597656 5.39453,0"
     style="fill:#8a99eb;fill-opacity:1;fill-rule:nonzero;stroke:none" />
  <path
     inkscape:connector-curvature="0"
     id="path207"
     d="m 141.88985,39.498242 c 0,3.597657 -5.39844,3.597657 -5.39844,0 0,-3.597656 5.39844,-3.597656 5.39844,0"
     style="fill:#8a99eb;fill-opacity:1;fill-rule:nonzero;stroke:none" />
  <path
     inkscape:connector-curvature="0"
     id="path209"
     d="m 141.88985,66.482618 c 0,3.597656 -5.39844,3.597656 -5.39844,0 0,-3.597657 5.39844,-3.597657 5.39844,0"
     style="fill:#8a99eb;fill-opacity:1;fill-rule:nonzero;stroke:none" />
  <path
     inkscape:connector-curvature="0"
     id="path211"
     d="M 201.88594,51.463086 180.37422,40.705274"
     style="fill:none;stroke:#f3e6d4;stroke-width:1.5;stroke-linecap:round;stroke-linejoin:round;stroke-miterlimit:10;stroke-opacity:1" />
  <path
     inkscape:connector-curvature="0"
     id="path213"
     d="M 201.88594,54.517774 180.37422,65.275586"
     style="fill:none;stroke:#f3e6d4;stroke-width:1.5;stroke-linecap:round;stroke-linejoin:round;stroke-miterlimit:10;stroke-opacity:1" />
  <path
     inkscape:connector-curvature="0"
     id="path215"
     d="m 181.01875,41.029492 21.50781,10.753907"
     style="fill:none;stroke:#f3e6d4;stroke-width:1.5;stroke-linecap:round;stroke-linejoin:round;stroke-miterlimit:10;stroke-opacity:1" />
  <path
     inkscape:connector-curvature="0"
     id="path217"
     d="M 181.01875,64.951368 202.52656,54.197461"
     style="fill:none;stroke:#f3e6d4;stroke-width:1.5;stroke-linecap:round;stroke-linejoin:round;stroke-miterlimit:10;stroke-opacity:1" />
  <path
     inkscape:connector-curvature="0"
     id="path219"
     d="m 187.81172,41.931836 -1.10547,0.05078 -1.26562,-0.03125 -1.57422,-0.183594 -3.46094,-1.125 -0.0625,0.128906 2.97656,2.09375 1.09375,1.148438 0.78125,0.996093 0.6211,0.914063 z m 0,0"
     style="fill:#f3e6d4;fill-opacity:1;fill-rule:nonzero;stroke:#f3e6d4;stroke-width:0.75;stroke-linecap:round;stroke-linejoin:round;stroke-miterlimit:10;stroke-opacity:1" />
  <path
     inkscape:connector-curvature="0"
     id="path221"
     d="m 185.81563,60.056836 -0.6211,0.914063 -0.78125,0.996093 -1.09375,1.148438 -2.97656,2.09375 0.0625,0.128906 3.46094,-1.125 1.57422,-0.183594 1.26562,-0.03125 1.10547,0.05078 z m 0,0"
     style="fill:#f3e6d4;fill-opacity:1;fill-rule:nonzero;stroke:#f3e6d4;stroke-width:0.75;stroke-linecap:round;stroke-linejoin:round;stroke-miterlimit:10;stroke-opacity:1" />
  <path
     inkscape:connector-curvature="0"
     id="path223"
     d="m 195.08906,50.560742 1.10547,-0.05078 1.26563,0.02734 1.57422,0.183594 3.46093,1.128906 0.0664,-0.128906 -2.98047,-2.09375 -1.08984,-1.152344 -0.78516,-0.992187 -0.62109,-0.914063 z m 0,0"
     style="fill:#f3e6d4;fill-opacity:1;fill-rule:nonzero;stroke:#f3e6d4;stroke-width:0.75;stroke-linecap:round;stroke-linejoin:round;stroke-miterlimit:10;stroke-opacity:1" />
  <path
     inkscape:connector-curvature="0"
     id="path225"
     d="m 197.08516,59.412305 0.62109,-0.914063 0.78516,-0.992187 1.08984,-1.152344 2.98047,-2.09375 -0.0664,-0.128906 -3.46093,1.128906 -1.57422,0.183594 -1.26563,0.02734 -1.10547,-0.05078 z m 0,0"
     style="fill:#f3e6d4;fill-opacity:1;fill-rule:nonzero;stroke:#f3e6d4;stroke-width:0.75;stroke-linecap:round;stroke-linejoin:round;stroke-miterlimit:10;stroke-opacity:1" />
  <path
     inkscape:connector-curvature="0"
     id="path227"
     d="m 207.63985,52.99043 c 0,3.597656 -5.39844,3.597656 -5.39844,0 0,-3.597656 5.39844,-3.597656 5.39844,0"
     style="fill:#8a99eb;fill-opacity:1;fill-rule:nonzero;stroke:none" />
  <path
     inkscape:connector-curvature="0"
     id="path229"
     d="m 180.65938,39.498242 c 0,3.597657 -5.39844,3.597657 -5.39844,0 0,-3.597656 5.39844,-3.597656 5.39844,0"
     style="fill:#8a99eb;fill-opacity:1;fill-rule:nonzero;stroke:none" />
  <path
     inkscape:connector-curvature="0"
     id="path231"
     d="m 180.65938,66.482618 c 0,3.597656 -5.39844,3.597656 -5.39844,0 0,-3.597657 5.39844,-3.597657 5.39844,0"
     style="fill:#8a99eb;fill-opacity:1;fill-rule:nonzero;stroke:none" />
  <path
     inkscape:connector-curvature="0"
     id="path233"
     d="M 240.65156,51.463086 219.14375,40.705274"
     style="fill:none;stroke:#f3e6d4;stroke-width:1.5;stroke-linecap:round;stroke-linejoin:round;stroke-miterlimit:10;stroke-opacity:1" />
  <path
     inkscape:connector-curvature="0"
     id="path235"
     d="M 240.65156,54.517774 219.14375,65.275586"
     style="fill:none;stroke:#f3e6d4;stroke-width:1.5;stroke-linecap:round;stroke-linejoin:round;stroke-miterlimit:10;stroke-opacity:1" />
  <path
     inkscape:connector-curvature="0"
     id="path237"
     d="M 219.78828,41.029492 241.2961,51.783399"
     style="fill:none;stroke:#f3e6d4;stroke-width:1.5;stroke-linecap:round;stroke-linejoin:round;stroke-miterlimit:10;stroke-opacity:1" />
  <path
     inkscape:connector-curvature="0"
     id="path239"
     d="m 216.72969,42.916211 0,20.867188"
     style="fill:none;stroke:#f3e6d4;stroke-width:1.5;stroke-linecap:round;stroke-linejoin:round;stroke-miterlimit:10;stroke-opacity:1" />
  <path
     inkscape:connector-curvature="0"
     id="path241"
     d="M 219.78828,64.951368 241.2961,54.197461"
     style="fill:none;stroke:#f3e6d4;stroke-width:1.5;stroke-linecap:round;stroke-linejoin:round;stroke-miterlimit:10;stroke-opacity:1" />
  <path
     inkscape:connector-curvature="0"
     id="path243"
     d="m 216.72969,63.064649 0,-20.867188"
     style="fill:none;stroke:#f3e6d4;stroke-width:1.5;stroke-linecap:round;stroke-linejoin:round;stroke-miterlimit:10;stroke-opacity:1" />
  <path
     inkscape:connector-curvature="0"
     id="path245"
     d="m 226.58125,41.931836 -1.10547,0.05078 -1.26562,-0.03125 -1.57422,-0.183594 -3.46094,-1.125 -0.0664,0.128906 2.98046,2.09375 1.09375,1.148438 0.78125,0.996093 0.6211,0.914063 z m 0,0"
     style="fill:#f3e6d4;fill-opacity:1;fill-rule:nonzero;stroke:#f3e6d4;stroke-width:0.75;stroke-linecap:round;stroke-linejoin:round;stroke-miterlimit:10;stroke-opacity:1" />
  <path
     inkscape:connector-curvature="0"
     id="path247"
     d="m 224.58516,60.056836 -0.6211,0.914063 -0.78125,0.996093 -1.09375,1.148438 -2.98046,2.09375 0.0664,0.128906 3.46094,-1.125 1.57422,-0.183594 1.26562,-0.03125 1.10547,0.05078 z m 0,0"
     style="fill:#f3e6d4;fill-opacity:1;fill-rule:nonzero;stroke:#f3e6d4;stroke-width:0.75;stroke-linecap:round;stroke-linejoin:round;stroke-miterlimit:10;stroke-opacity:1" />
  <path
     inkscape:connector-curvature="0"
     id="path249"
     d="m 233.8586,50.560742 1.10546,-0.05078 1.26563,0.02734 1.57422,0.183594 3.46094,1.128906 0.0664,-0.128906 -2.98047,-2.09375 -1.09375,-1.152344 -0.78125,-0.992187 -0.62109,-0.914063 z m 0,0"
     style="fill:#f3e6d4;fill-opacity:1;fill-rule:nonzero;stroke:#f3e6d4;stroke-width:0.75;stroke-linecap:round;stroke-linejoin:round;stroke-miterlimit:10;stroke-opacity:1" />
  <path
     inkscape:connector-curvature="0"
     id="path251"
     d="m 214.49922,56.58418 0.53906,0.964844 0.53907,1.144531 0.53906,1.488281 0.54297,3.601563 0.14062,0 0.54297,-3.601563 0.53906,-1.488281 0.53907,-1.144531 0.53906,-0.964844 z m 0,0"
     style="fill:#f3e6d4;fill-opacity:1;fill-rule:nonzero;stroke:#f3e6d4;stroke-width:0.75;stroke-linecap:round;stroke-linejoin:round;stroke-miterlimit:10;stroke-opacity:1" />
  <path
     inkscape:connector-curvature="0"
     id="path253"
     d="m 235.85469,59.412305 0.62109,-0.914063 0.78125,-0.992187 1.09375,-1.152344 2.98047,-2.09375 -0.0664,-0.128906 -3.46094,1.128906 -1.57422,0.183594 -1.26563,0.02734 -1.10546,-0.05078 z m 0,0"
     style="fill:#f3e6d4;fill-opacity:1;fill-rule:nonzero;stroke:#f3e6d4;stroke-width:0.75;stroke-linecap:round;stroke-linejoin:round;stroke-miterlimit:10;stroke-opacity:1" />
  <path
     inkscape:connector-curvature="0"
     id="path255"
     d="m 218.96016,49.39668 -0.53906,-0.964844 -0.53907,-1.144531 -0.53906,-1.488281 -0.54297,-3.601563 -0.14062,0 -0.54297,3.601563 -0.53906,1.488281 -0.53907,1.144531 -0.53906,0.964844 z m 0,0"
     style="fill:#f3e6d4;fill-opacity:1;fill-rule:nonzero;stroke:#f3e6d4;stroke-width:0.75;stroke-linecap:round;stroke-linejoin:round;stroke-miterlimit:10;stroke-opacity:1" />
  <path
     inkscape:connector-curvature="0"
     id="path257"
     d="m 246.40938,52.99043 c 0,3.597656 -5.39844,3.597656 -5.39844,0 0,-3.597656 5.39844,-3.597656 5.39844,0"
     style="fill:#8a99eb;fill-opacity:1;fill-rule:nonzero;stroke:none" />
  <path
     inkscape:connector-curvature="0"
     id="path259"
     d="m 219.42891,39.498242 c 0,3.597657 -5.39844,3.597657 -5.39844,0 0,-3.597656 5.39844,-3.597656 5.39844,0"
     style="fill:#8a99eb;fill-opacity:1;fill-rule:nonzero;stroke:none" />
  <path
     inkscape:connector-curvature="0"
     id="path261"
     d="m 219.42891,66.482618 c 0,3.597656 -5.39844,3.597656 -5.39844,0 0,-3.597657 5.39844,-3.597657 5.39844,0"
     style="fill:#8a99eb;fill-opacity:1;fill-rule:nonzero;stroke:none" />
</svg>
