<?xml version="1.0" encoding="UTF-8"?>
<svg xmlns="http://www.w3.org/2000/svg" xmlns:xlink="http://www.w3.org/1999/xlink" width="288pt" height="288pt" viewBox="0 0 288 288" version="1.1">
<g id="surface116">
<path style=" stroke:none;fill-rule:nonzero;fill:rgb(54.117647%,60.392157%,92.941176%);fill-opacity:1;" d="M 230.398438 136.800781 C 230.398438 143.425781 225.027344 148.800781 218.398438 148.800781 C 211.773438 148.800781 206.398438 143.425781 206.398438 136.800781 C 206.398438 130.171875 211.773438 124.800781 218.398438 124.800781 C 225.027344 124.800781 230.398438 130.171875 230.398438 136.800781 "/>
<path style=" stroke:none;fill-rule:nonzero;fill:rgb(54.117647%,60.392157%,92.941176%);fill-opacity:1;" d="M 184.5625 76.800781 C 184.5625 83.425781 179.191406 88.800781 172.5625 88.800781 C 165.9375 88.800781 160.5625 83.425781 160.5625 76.800781 C 160.5625 70.171875 165.9375 64.800781 172.5625 64.800781 C 179.191406 64.800781 184.5625 70.171875 184.5625 76.800781 "/>
<path style=" stroke:none;fill-rule:nonzero;fill:rgb(54.117647%,60.392157%,92.941176%);fill-opacity:1;" d="M 110.398438 99.71875 C 110.398438 106.34375 105.027344 111.71875 98.398438 111.71875 C 91.773438 111.71875 86.398438 106.34375 86.398438 99.71875 C 86.398438 93.089844 91.773438 87.71875 98.398438 87.71875 C 105.027344 87.71875 110.398438 93.089844 110.398438 99.71875 "/>
<path style=" stroke:none;fill-rule:nonzero;fill:rgb(54.117647%,60.392157%,92.941176%);fill-opacity:1;" d="M 110.398438 173.882812 C 110.398438 180.507812 105.027344 185.882812 98.398438 185.882812 C 91.773438 185.882812 86.398438 180.507812 86.398438 173.882812 C 86.398438 167.253906 91.773438 161.882812 98.398438 161.882812 C 105.027344 161.882812 110.398438 167.253906 110.398438 173.882812 "/>
<path style=" stroke:none;fill-rule:nonzero;fill:rgb(54.117647%,60.392157%,92.941176%);fill-opacity:1;" d="M 184.5625 196.800781 C 184.5625 203.425781 179.191406 208.800781 172.5625 208.800781 C 165.9375 208.800781 160.5625 203.425781 160.5625 196.800781 C 160.5625 190.171875 165.9375 184.800781 172.5625 184.800781 C 179.191406 184.800781 184.5625 190.171875 184.5625 196.800781 "/>
</g>
</svg>
