<?xml version="1.0" encoding="UTF-8" standalone="no"?>
<svg
   xmlns:dc="http://purl.org/dc/elements/1.1/"
   xmlns:cc="http://creativecommons.org/ns#"
   xmlns:rdf="http://www.w3.org/1999/02/22-rdf-syntax-ns#"
   xmlns:svg="http://www.w3.org/2000/svg"
   xmlns="http://www.w3.org/2000/svg"
   xmlns:sodipodi="http://sodipodi.sourceforge.net/DTD/sodipodi-0.dtd"
   xmlns:inkscape="http://www.inkscape.org/namespaces/inkscape"
   viewBox="0 0 587.07001 472.83908"
   version="1.1"
   id="svg692"
   sodipodi:docname="dynamics-hierarchy_one.svg"
   width="587.07001"
   height="472.83908"
   inkscape:version="0.92.3 (2405546, 2018-03-11)">
  <metadata
     id="metadata696">
    <rdf:RDF>
      <cc:Work
         rdf:about="">
        <dc:format>image/svg+xml</dc:format>
        <dc:type
           rdf:resource="http://purl.org/dc/dcmitype/StillImage" />
        <dc:title></dc:title>
      </cc:Work>
    </rdf:RDF>
  </metadata>
  <sodipodi:namedview
     pagecolor="#ffffff"
     bordercolor="#666666"
     borderopacity="1"
     objecttolerance="10"
     gridtolerance="10"
     guidetolerance="10"
     inkscape:pageopacity="0"
     inkscape:pageshadow="2"
     inkscape:window-width="1920"
     inkscape:window-height="1009"
     id="namedview694"
     showgrid="false"
     inkscape:zoom="1.3110938"
     inkscape:cx="200.87359"
     inkscape:cy="250.33641"
     inkscape:window-x="0"
     inkscape:window-y="0"
     inkscape:window-maximized="1"
     inkscape:current-layer="svg692"
     fit-margin-top="5"
     fit-margin-left="5"
     fit-margin-right="5"
     fit-margin-bottom="5" />
  <defs
     id="defs4">
    <style
       type="text/css"
       id="style2"><![CDATA[
    line, polyline, polygon, path, rect, circle {
      fill: none;
      stroke: #000000;
      stroke-linecap: round;
      stroke-linejoin: round;
      stroke-miterlimit: 10.00;
    }
  ]]></style>
  </defs>
  <defs
     id="defs13">
    <clipPath
       id="cpNDkuOTJ8MjE0LjI1fDEzMy43MXw1LjQ4">
      <rect
         x="49.919998"
         y="5.48"
         width="164.33"
         height="128.23"
         id="rect10"
         style="fill:none;stroke:#000000;stroke-linecap:round;stroke-linejoin:round;stroke-miterlimit:10" />
    </clipPath>
  </defs>
  <polyline
     points="57.39,19.78 58.39,36.26 59.39,39.43 60.39,28.18 61.40,28.74 62.40,36.92 63.40,37.55 64.41,46.08 65.41,88.45 66.41,121.64 67.41,127.06 68.42,127.68 69.42,127.81 70.42,127.87 71.42,127.88 72.43,127.83 73.43,127.69 74.43,127.23 75.43,125.19 76.44,113.97 77.44,65.35 78.44,11.31 79.44,39.63 80.45,48.04 81.45,25.54 82.45,23.02 83.46,39.30 84.46,36.92 85.46,26.50 86.46,31.11 87.47,37.76 88.47,37.68 89.47,53.67 90.47,100.86 91.48,124.32 92.48,127.35 93.48,127.73 94.48,127.83 95.49,127.87 96.49,127.87 97.49,127.81 98.49,127.62 99.50,126.97 100.50,123.82 101.50,106.65 102.51,45.36 103.51,14.63 104.51,45.83 105.51,43.86 106.52,20.87 107.52,27.66 108.52,40.80 109.52,33.76 110.53,26.15 111.53,33.52 112.53,37.97 113.53,38.84 114.54,64.08 115.54,110.79 116.54,125.81 117.54,127.52 118.55,127.77 119.55,127.85 120.55,127.88 121.56,127.86 122.56,127.77 123.56,127.52 124.56,126.58 125.57,121.68 126.57,95.99 127.57,27.08 128.57,22.76 129.58,49.23 130.58,37.90 131.58,18.96 132.58,32.53 133.59,40.70 134.59,30.55 135.59,27.09 136.59,35.59 137.60,37.77 138.60,41.67 139.60,76.66 140.61,117.71 141.61,126.64 142.61,127.62 143.61,127.79 144.62,127.86 145.62,127.88 146.62,127.85 147.62,127.73 148.63,127.39 149.63,125.98 150.63,118.36 151.63,81.37 152.64,14.91 153.64,32.20 154.64,49.79 155.65,31.14 156.65,20.05 157.65,36.69 158.65,39.19 159.66,27.92 160.66,29.00 161.66,37.05 162.66,37.53 163.67,46.82 164.67,89.99 165.67,122.04 166.67,127.11 167.68,127.69 168.68,127.82 169.68,127.87 170.68,127.87 171.69,127.83 172.69,127.68 173.69,127.21 174.70,125.05 175.70,113.26 176.70,63.05 177.70,11.33 178.71,40.49 179.71,47.67 180.71,24.88 181.71,23.51 182.72,39.56 183.72,36.58 184.72,26.38 185.72,31.40 186.73,37.82 187.73,37.75 188.73,54.75 189.73,102.17 190.74,124.54 191.74,127.37 192.74,127.73 193.75,127.83 194.75,127.88 195.75,127.87 196.75,127.80 197.76,127.61 198.76,126.93 199.76,123.61 200.76,105.58 201.77,43.04 202.77,15.40 203.77,46.38 204.77,43.24 205.78,20.49 206.78,28.24 "
     style="fill:none;stroke:#f74700;stroke-width:1.07000005;stroke-linecap:butt;stroke-linejoin:round;stroke-miterlimit:10"
     clip-path="url(#cpNDkuOTJ8MjE0LjI1fDEzMy43MXw1LjQ4)"
     id="polyline47"
     transform="translate(5.535,35.30408)" />
  <defs
     id="defs54">
    <clipPath
       id="cpMC4wMHw1NzYuMDB8NDMyLjAwfDAuMDA=">
      <rect
         x="0"
         y="0"
         width="576"
         height="432"
         id="rect51"
         style="fill:none;stroke:#000000;stroke-linecap:round;stroke-linejoin:round;stroke-miterlimit:10" />
    </clipPath>
  </defs>
  <defs
     id="defs59">
    <clipPath
       id="cpNDkuOTJ8MjE0LjI1fDI2Ny40MXwxMzkuMTk=">
      <rect
         x="49.919998"
         y="139.19"
         width="164.33"
         height="128.23"
         id="rect56"
         style="fill:none;stroke:#000000;stroke-linecap:round;stroke-linejoin:round;stroke-miterlimit:10" />
    </clipPath>
  </defs>
  <polyline
     points="57.39,182.21 58.39,179.29 59.39,178.37 60.39,177.20 61.40,175.88 62.40,175.51 63.40,175.59 64.41,175.83 65.41,178.15 66.41,184.11 67.41,191.16 68.42,197.80 69.42,203.83 70.42,209.31 71.42,214.27 72.43,218.75 73.43,222.79 74.43,226.38 75.43,229.36 76.44,230.68 77.44,225.28 78.44,208.41 79.44,196.09 80.45,190.89 81.45,186.07 82.45,181.15 83.46,178.97 84.46,178.14 85.46,176.81 86.46,175.68 87.47,175.52 88.47,175.60 89.47,176.10 90.47,179.40 91.48,185.93 92.48,192.93 93.48,199.41 94.48,205.30 95.49,210.64 96.49,215.47 97.49,219.84 98.49,223.76 99.50,227.22 100.50,229.96 101.50,230.30 102.51,221.73 103.51,204.20 104.51,194.40 105.51,189.77 106.52,184.66 107.52,180.31 108.52,178.73 109.52,177.86 110.53,176.44 111.53,175.57 112.53,175.55 113.53,175.63 114.54,176.57 115.54,180.88 116.54,187.76 117.54,194.65 118.55,200.98 119.55,206.72 120.55,211.93 121.56,216.64 122.56,220.89 123.56,224.70 124.56,228.02 125.57,230.42 126.57,229.34 127.57,217.35 128.57,200.72 129.58,193.04 130.58,188.58 131.58,183.30 132.58,179.69 133.59,178.54 134.59,177.52 135.59,176.11 136.59,175.51 137.60,175.58 138.60,175.70 139.60,177.29 140.61,182.55 141.61,189.58 142.61,196.34 143.61,202.51 144.62,208.11 145.62,213.19 146.62,217.78 147.62,221.91 148.63,225.60 149.63,228.76 150.63,230.68 151.63,227.60 152.64,212.56 153.64,197.98 154.64,191.86 155.65,187.28 156.65,182.07 157.65,179.25 158.65,178.34 159.66,177.15 160.66,175.85 161.66,175.51 162.66,175.59 163.67,175.85 164.67,178.28 165.67,184.32 166.67,191.37 167.68,197.99 168.68,204.01 169.68,209.47 170.68,214.41 171.69,218.88 172.69,222.91 173.69,226.48 174.70,229.44 175.70,230.66 176.70,224.92 177.70,207.88 178.71,195.87 179.71,190.76 180.71,185.90 181.71,181.04 182.72,178.94 183.72,178.11 184.72,176.76 185.72,175.67 186.73,175.53 187.73,175.60 188.73,176.15 189.73,179.56 190.74,186.14 191.74,193.13 192.74,199.59 193.75,205.47 194.75,210.79 195.75,215.61 196.75,219.96 197.76,223.87 198.76,227.31 199.76,230.02 200.76,230.22 201.77,221.25 202.77,203.75 203.77,194.22 204.77,189.64 205.78,184.49 206.78,180.23 "
     style="fill:none;stroke:#f74700;stroke-width:1.07000005;stroke-linecap:butt;stroke-linejoin:round;stroke-miterlimit:10"
     clip-path="url(#cpNDkuOTJ8MjE0LjI1fDI2Ny40MXwxMzkuMTk=)"
     id="polyline95"
     transform="translate(5.535,35.30408)" />
  <defs
     id="defs103">
    <clipPath
       id="clipPath101">
      <rect
         x="0"
         y="0"
         width="576"
         height="432"
         id="rect99"
         style="fill:none;stroke:#000000;stroke-linecap:round;stroke-linejoin:round;stroke-miterlimit:10" />
    </clipPath>
  </defs>
  <defs
     id="defs108">
    <clipPath
       id="cpNDkuOTJ8MjE0LjI1fDQwMS4xMnwyNzIuODk=">
      <rect
         x="49.919998"
         y="272.89001"
         width="164.33"
         height="128.23"
         id="rect105"
         style="fill:none;stroke:#000000;stroke-linecap:round;stroke-linejoin:round;stroke-miterlimit:10" />
    </clipPath>
  </defs>
  <polyline
     points="57.39,305.27 58.39,305.93 59.39,307.19 60.39,307.58 61.40,307.35 62.40,307.60 63.40,307.80 64.41,306.56 65.41,301.88 66.41,296.58 67.41,296.30 68.42,297.13 69.42,296.01 70.42,295.10 71.42,295.74 72.43,296.03 73.43,295.44 74.43,295.36 75.43,295.78 76.44,295.83 77.44,295.89 78.44,296.87 79.44,299.66 80.45,303.25 81.45,305.13 82.45,305.32 83.46,306.26 84.46,307.41 85.46,307.52 86.46,307.36 87.47,307.71 88.47,307.68 89.47,305.77 90.47,300.18 91.48,296.10 92.48,296.60 93.48,297.03 94.48,295.61 95.49,295.18 96.49,295.92 97.49,295.92 98.49,295.33 99.50,295.47 100.50,295.84 101.50,295.80 102.51,296.03 103.51,297.39 104.51,300.62 105.51,303.98 106.52,305.23 107.52,305.46 108.52,306.61 109.52,307.55 110.53,307.44 111.53,307.41 112.53,307.79 113.53,307.44 114.54,304.69 115.54,298.60 116.54,295.96 117.54,296.89 118.55,296.77 119.55,295.30 120.55,295.34 121.56,296.04 122.56,295.75 123.56,295.29 124.56,295.58 125.57,295.86 126.57,295.79 127.57,296.23 128.57,298.06 129.58,301.58 130.58,304.54 131.58,305.26 132.58,305.67 133.59,306.94 134.59,307.60 135.59,307.38 136.59,307.51 137.60,307.83 138.60,307.06 139.60,303.31 140.61,297.34 141.61,296.08 142.61,297.08 143.61,296.39 144.62,295.13 145.62,295.55 146.62,296.07 147.62,295.58 148.63,295.30 149.63,295.70 150.63,295.86 151.63,295.82 152.64,296.52 153.64,298.87 154.64,302.51 155.65,304.93 156.65,305.27 157.65,305.96 158.65,307.22 159.66,307.58 160.66,307.35 161.66,307.62 162.66,307.79 163.67,306.48 164.67,301.68 165.67,296.50 166.67,296.33 167.68,297.13 168.68,295.96 169.68,295.10 170.68,295.76 171.69,296.02 172.69,295.43 173.69,295.37 174.70,295.79 175.70,295.83 176.70,295.90 177.70,296.92 178.71,299.77 179.71,303.35 180.71,305.15 181.71,305.34 182.72,306.30 183.72,307.43 184.72,307.51 185.72,307.36 186.73,307.72 187.73,307.66 188.73,305.66 189.73,299.98 190.74,296.07 191.74,296.64 192.74,297.01 193.75,295.57 194.75,295.19 195.75,295.94 196.75,295.90 197.76,295.32 198.76,295.48 199.76,295.84 200.76,295.80 201.77,296.05 202.77,297.46 203.77,300.73 204.77,304.05 205.78,305.24 206.78,305.48 "
     style="fill:none;stroke:#f74700;stroke-width:1.07000005;stroke-linecap:butt;stroke-linejoin:round;stroke-miterlimit:10"
     clip-path="url(#cpNDkuOTJ8MjE0LjI1fDQwMS4xMnwyNzIuODk=)"
     id="polyline144"
     transform="translate(5.535,35.30408)" />
  <defs
     id="defs152">
    <clipPath
       id="clipPath150">
      <rect
         x="0"
         y="0"
         width="576"
         height="432"
         id="rect148"
         style="fill:none;stroke:#000000;stroke-linecap:round;stroke-linejoin:round;stroke-miterlimit:10" />
    </clipPath>
  </defs>
  <defs
     id="defs157">
    <clipPath
       id="cpMjE5LjczfDM4NC4wNnwxMzMuNzF8NS40OA==">
      <rect
         x="219.73"
         y="5.48"
         width="164.33"
         height="128.23"
         id="rect154"
         style="fill:none;stroke:#000000;stroke-linecap:round;stroke-linejoin:round;stroke-miterlimit:10" />
    </clipPath>
  </defs>
  <defs
     id="defs199">
    <clipPath
       id="clipPath197">
      <rect
         x="0"
         y="0"
         width="576"
         height="432"
         id="rect195"
         style="fill:none;stroke:#000000;stroke-linecap:round;stroke-linejoin:round;stroke-miterlimit:10" />
    </clipPath>
  </defs>
  <defs
     id="defs204">
    <clipPath
       id="cpMjE5LjczfDM4NC4wNnwyNjcuNDF8MTM5LjE5">
      <rect
         x="219.73"
         y="139.19"
         width="164.33"
         height="128.23"
         id="rect201"
         style="fill:none;stroke:#000000;stroke-linecap:round;stroke-linejoin:round;stroke-miterlimit:10" />
    </clipPath>
  </defs>
  <defs
     id="defs248">
    <clipPath
       id="clipPath246">
      <rect
         x="0"
         y="0"
         width="576"
         height="432"
         id="rect244"
         style="fill:none;stroke:#000000;stroke-linecap:round;stroke-linejoin:round;stroke-miterlimit:10" />
    </clipPath>
  </defs>
  <defs
     id="defs253">
    <clipPath
       id="cpMjE5LjczfDM4NC4wNnw0MDEuMTJ8MjcyLjg5">
      <rect
         x="219.73"
         y="272.89001"
         width="164.33"
         height="128.23"
         id="rect250"
         style="fill:none;stroke:#000000;stroke-linecap:round;stroke-linejoin:round;stroke-miterlimit:10" />
    </clipPath>
  </defs>
  <defs
     id="defs297">
    <clipPath
       id="clipPath295">
      <rect
         x="0"
         y="0"
         width="576"
         height="432"
         id="rect293"
         style="fill:none;stroke:#000000;stroke-linecap:round;stroke-linejoin:round;stroke-miterlimit:10" />
    </clipPath>
  </defs>
  <defs
     id="defs302">
    <clipPath
       id="cpMzg5LjU0fDU1My44N3wxMzMuNzF8NS40OA==">
      <rect
         x="389.54001"
         y="5.48"
         width="164.33"
         height="128.23"
         id="rect299"
         style="fill:none;stroke:#000000;stroke-linecap:round;stroke-linejoin:round;stroke-miterlimit:10" />
    </clipPath>
  </defs>
  <polyline
     points="397.01,50.94 398.01,50.94 399.02,50.94 400.02,50.94 401.02,50.94 402.02,50.94 403.03,50.94 404.03,50.94 405.03,50.94 406.03,50.94 407.04,50.94 408.04,50.94 409.04,50.94 410.04,50.94 411.05,50.94 412.05,50.94 413.05,50.94 414.06,50.94 415.06,50.94 416.06,50.94 417.06,50.94 418.07,50.94 419.07,50.94 420.07,50.94 421.07,50.94 422.08,50.94 423.08,50.94 424.08,50.94 425.08,50.94 426.09,50.94 427.09,50.94 428.09,50.94 429.09,50.94 430.10,50.94 431.10,50.94 432.10,50.94 433.11,50.94 434.11,50.94 435.11,50.94 436.11,50.94 437.12,50.94 438.12,50.94 439.12,50.94 440.12,50.94 441.13,50.94 442.13,50.94 443.13,50.94 444.13,50.94 445.14,50.94 446.14,50.94 447.14,50.94 448.14,50.94 449.15,50.94 450.15,50.94 451.15,50.94 452.16,50.94 453.16,50.94 454.16,50.94 455.16,50.94 456.17,50.94 457.17,50.94 458.17,50.94 459.17,50.94 460.18,50.94 461.18,50.94 462.18,50.94 463.18,50.94 464.19,50.94 465.19,50.94 466.19,50.94 467.19,50.94 468.20,50.94 469.20,50.94 470.20,50.94 471.21,50.94 472.21,50.94 473.21,50.94 474.21,50.94 475.22,50.94 476.22,50.94 477.22,50.94 478.22,50.94 479.23,50.94 480.23,50.94 481.23,50.94 482.23,50.94 483.24,50.94 484.24,50.94 485.24,50.94 486.25,50.94 487.25,50.94 488.25,50.94 489.25,50.94 490.26,50.94 491.26,50.94 492.26,50.94 493.26,50.94 494.27,50.94 495.27,50.94 496.27,50.94 497.27,50.94 498.28,50.94 499.28,50.94 500.28,50.94 501.28,50.94 502.29,50.94 503.29,50.94 504.29,50.94 505.30,50.94 506.30,50.94 507.30,50.94 508.30,50.94 509.31,50.94 510.31,50.94 511.31,50.94 512.31,50.94 513.32,50.94 514.32,50.94 515.32,50.94 516.32,50.94 517.33,50.94 518.33,50.94 519.33,50.94 520.33,50.94 521.34,50.94 522.34,50.94 523.34,50.94 524.35,50.94 525.35,50.94 526.35,50.94 527.35,50.94 528.36,50.94 529.36,50.94 530.36,50.94 531.36,50.94 532.37,50.94 533.37,50.94 534.37,50.94 535.37,50.94 536.38,50.94 537.38,50.94 538.38,50.94 539.38,50.94 540.39,50.94 541.39,50.94 542.39,50.94 543.40,50.94 544.40,50.94 545.40,50.94 546.40,50.94 "
     style="fill:none;stroke:#016394;stroke-width:1.07000005;stroke-linecap:butt;stroke-linejoin:round;stroke-miterlimit:10"
     clip-path="url(#cpMzg5LjU0fDU1My44N3wxMzMuNzF8NS40OA==)"
     id="polyline336"
     transform="translate(5.535,35.30408)" />
  <defs
     id="defs344">
    <clipPath
       id="clipPath342">
      <rect
         x="0"
         y="0"
         width="576"
         height="432"
         id="rect340"
         style="fill:none;stroke:#000000;stroke-linecap:round;stroke-linejoin:round;stroke-miterlimit:10" />
    </clipPath>
  </defs>
  <defs
     id="defs349">
    <clipPath
       id="cpMzg5LjU0fDU1My44N3wyNjcuNDF8MTM5LjE5">
      <rect
         x="389.54001"
         y="139.19"
         width="164.33"
         height="128.23"
         id="rect346"
         style="fill:none;stroke:#000000;stroke-linecap:round;stroke-linejoin:round;stroke-miterlimit:10" />
    </clipPath>
  </defs>
  <polyline
     points="397.01,179.49 398.01,179.49 399.02,179.49 400.02,179.49 401.02,179.49 402.02,179.49 403.03,179.49 404.03,179.49 405.03,179.49 406.03,179.49 407.04,179.49 408.04,179.49 409.04,179.49 410.04,179.49 411.05,179.49 412.05,179.49 413.05,179.49 414.06,179.49 415.06,179.49 416.06,179.49 417.06,179.49 418.07,179.49 419.07,179.49 420.07,179.49 421.07,179.49 422.08,179.49 423.08,179.49 424.08,179.49 425.08,179.49 426.09,179.49 427.09,179.49 428.09,179.49 429.09,179.49 430.10,179.49 431.10,179.49 432.10,179.49 433.11,179.49 434.11,179.49 435.11,179.49 436.11,179.49 437.12,179.49 438.12,179.49 439.12,179.49 440.12,179.49 441.13,179.49 442.13,179.49 443.13,179.49 444.13,179.49 445.14,179.49 446.14,179.49 447.14,179.49 448.14,179.49 449.15,179.49 450.15,179.49 451.15,179.49 452.16,179.49 453.16,179.49 454.16,179.49 455.16,179.49 456.17,179.49 457.17,179.49 458.17,179.49 459.17,179.49 460.18,179.49 461.18,179.49 462.18,179.49 463.18,179.49 464.19,179.49 465.19,179.49 466.19,179.49 467.19,179.49 468.20,179.49 469.20,179.49 470.20,179.49 471.21,179.49 472.21,179.49 473.21,179.49 474.21,179.49 475.22,179.49 476.22,179.49 477.22,179.49 478.22,179.49 479.23,179.49 480.23,179.49 481.23,179.49 482.23,179.49 483.24,179.49 484.24,179.49 485.24,179.49 486.25,179.49 487.25,179.49 488.25,179.49 489.25,179.49 490.26,179.49 491.26,179.49 492.26,179.49 493.26,179.49 494.27,179.49 495.27,179.49 496.27,179.49 497.27,179.49 498.28,179.49 499.28,179.49 500.28,179.49 501.28,179.49 502.29,179.49 503.29,179.49 504.29,179.49 505.30,179.49 506.30,179.49 507.30,179.49 508.30,179.49 509.31,179.49 510.31,179.49 511.31,179.49 512.31,179.49 513.32,179.49 514.32,179.49 515.32,179.49 516.32,179.49 517.33,179.49 518.33,179.49 519.33,179.49 520.33,179.49 521.34,179.49 522.34,179.49 523.34,179.49 524.35,179.49 525.35,179.49 526.35,179.49 527.35,179.49 528.36,179.49 529.36,179.49 530.36,179.49 531.36,179.49 532.37,179.49 533.37,179.49 534.37,179.49 535.37,179.49 536.38,179.49 537.38,179.49 538.38,179.49 539.38,179.49 540.39,179.49 541.39,179.49 542.39,179.49 543.40,179.49 544.40,179.49 545.40,179.49 546.40,179.49 "
     style="fill:none;stroke:#016394;stroke-width:1.07000005;stroke-linecap:butt;stroke-linejoin:round;stroke-miterlimit:10"
     clip-path="url(#cpMzg5LjU0fDU1My44N3wyNjcuNDF8MTM5LjE5)"
     id="polyline385"
     transform="translate(5.535,35.30408)" />
  <defs
     id="defs393">
    <clipPath
       id="clipPath391">
      <rect
         x="0"
         y="0"
         width="576"
         height="432"
         id="rect389"
         style="fill:none;stroke:#000000;stroke-linecap:round;stroke-linejoin:round;stroke-miterlimit:10" />
    </clipPath>
  </defs>
  <defs
     id="defs398">
    <clipPath
       id="cpMzg5LjU0fDU1My44N3w0MDEuMTJ8MjcyLjg5">
      <rect
         x="389.54001"
         y="272.89001"
         width="164.33"
         height="128.23"
         id="rect395"
         style="fill:none;stroke:#000000;stroke-linecap:round;stroke-linejoin:round;stroke-miterlimit:10" />
    </clipPath>
  </defs>
  <polyline
     points="397.01,293.03 398.01,293.03 399.02,293.03 400.02,293.03 401.02,293.03 402.02,293.03 403.03,293.03 404.03,293.03 405.03,293.03 406.03,293.03 407.04,293.03 408.04,293.03 409.04,293.03 410.04,293.03 411.05,293.03 412.05,293.03 413.05,293.03 414.06,293.03 415.06,293.03 416.06,293.03 417.06,293.03 418.07,293.03 419.07,293.03 420.07,293.03 421.07,293.03 422.08,293.03 423.08,293.03 424.08,293.03 425.08,293.03 426.09,293.03 427.09,293.03 428.09,293.03 429.09,293.03 430.10,293.03 431.10,293.03 432.10,293.03 433.11,293.03 434.11,293.03 435.11,293.03 436.11,293.03 437.12,293.03 438.12,293.03 439.12,293.03 440.12,293.03 441.13,293.03 442.13,293.03 443.13,293.03 444.13,293.03 445.14,293.03 446.14,293.03 447.14,293.03 448.14,293.03 449.15,293.03 450.15,293.03 451.15,293.03 452.16,293.03 453.16,293.03 454.16,293.03 455.16,293.03 456.17,293.03 457.17,293.03 458.17,293.03 459.17,293.03 460.18,293.03 461.18,293.03 462.18,293.03 463.18,293.03 464.19,293.03 465.19,293.03 466.19,293.03 467.19,293.03 468.20,293.03 469.20,293.03 470.20,293.03 471.21,293.03 472.21,293.03 473.21,293.03 474.21,293.03 475.22,293.03 476.22,293.03 477.22,293.03 478.22,293.03 479.23,293.03 480.23,293.03 481.23,293.03 482.23,293.03 483.24,293.03 484.24,293.03 485.24,293.03 486.25,293.03 487.25,293.03 488.25,293.03 489.25,293.03 490.26,293.03 491.26,293.03 492.26,293.03 493.26,293.03 494.27,293.03 495.27,293.03 496.27,293.03 497.27,293.03 498.28,293.03 499.28,293.03 500.28,293.03 501.28,293.03 502.29,293.03 503.29,293.03 504.29,293.03 505.30,293.03 506.30,293.03 507.30,293.03 508.30,293.03 509.31,293.03 510.31,293.03 511.31,293.03 512.31,293.03 513.32,293.03 514.32,293.03 515.32,293.03 516.32,293.03 517.33,293.03 518.33,293.03 519.33,293.03 520.33,293.03 521.34,293.03 522.34,293.03 523.34,293.03 524.35,293.03 525.35,293.03 526.35,293.03 527.35,293.03 528.36,293.03 529.36,293.03 530.36,293.03 531.36,293.03 532.37,293.03 533.37,293.03 534.37,293.03 535.37,293.03 536.38,293.03 537.38,293.03 538.38,293.03 539.38,293.03 540.39,293.03 541.39,293.03 542.39,293.03 543.40,293.03 544.40,293.03 545.40,293.03 546.40,293.03 "
     style="fill:none;stroke:#016394;stroke-width:1.07000005;stroke-linecap:butt;stroke-linejoin:round;stroke-miterlimit:10"
     clip-path="url(#cpMzg5LjU0fDU1My44N3w0MDEuMTJ8MjcyLjg5)"
     id="polyline434"
     transform="translate(5.535,35.30408)" />
  <defs
     id="defs442">
    <clipPath
       id="clipPath440">
      <rect
         x="0"
         y="0"
         width="576"
         height="432"
         id="rect438"
         style="fill:none;stroke:#000000;stroke-linecap:round;stroke-linejoin:round;stroke-miterlimit:10" />
    </clipPath>
  </defs>
  <defs
     id="defs447">
    <clipPath
       id="cpNDkuOTJ8MjE0LjI1fDUuNDh8NS40OA==">
      <rect
         x="49.919998"
         y="5.48"
         width="164.33"
         height="0"
         id="rect444"
         style="fill:none;stroke:#000000;stroke-linecap:round;stroke-linejoin:round;stroke-miterlimit:10" />
    </clipPath>
  </defs>
  <defs
     id="defs453">
    <clipPath
       id="clipPath451">
      <rect
         x="0"
         y="0"
         width="576"
         height="432"
         id="rect449"
         style="fill:none;stroke:#000000;stroke-linecap:round;stroke-linejoin:round;stroke-miterlimit:10" />
    </clipPath>
  </defs>
  <defs
     id="defs458">
    <clipPath
       id="cpMjE5LjczfDM4NC4wNnw1LjQ4fDUuNDg=">
      <rect
         x="219.73"
         y="5.48"
         width="164.33"
         height="0"
         id="rect455"
         style="fill:none;stroke:#000000;stroke-linecap:round;stroke-linejoin:round;stroke-miterlimit:10" />
    </clipPath>
  </defs>
  <defs
     id="defs464">
    <clipPath
       id="clipPath462">
      <rect
         x="0"
         y="0"
         width="576"
         height="432"
         id="rect460"
         style="fill:none;stroke:#000000;stroke-linecap:round;stroke-linejoin:round;stroke-miterlimit:10" />
    </clipPath>
  </defs>
  <defs
     id="defs469">
    <clipPath
       id="cpMzg5LjU0fDU1My44N3w1LjQ4fDUuNDg=">
      <rect
         x="389.54001"
         y="5.48"
         width="164.33"
         height="0"
         id="rect466"
         style="fill:none;stroke:#000000;stroke-linecap:round;stroke-linejoin:round;stroke-miterlimit:10" />
    </clipPath>
  </defs>
  <defs
     id="defs475">
    <clipPath
       id="clipPath473">
      <rect
         x="0"
         y="0"
         width="576"
         height="432"
         id="rect471"
         style="fill:none;stroke:#000000;stroke-linecap:round;stroke-linejoin:round;stroke-miterlimit:10" />
    </clipPath>
  </defs>
  <defs
     id="defs480">
    <clipPath
       id="cpNTUzLjg3fDU3MC41MnwxMzMuNzF8NS40OA==">
      <rect
         x="553.87"
         y="5.48"
         width="16.65"
         height="128.23"
         id="rect477"
         style="fill:none;stroke:#000000;stroke-linecap:round;stroke-linejoin:round;stroke-miterlimit:10" />
    </clipPath>
  </defs>
  <defs
     id="defs492">
    <clipPath
       id="clipPath490">
      <rect
         x="0"
         y="0"
         width="576"
         height="432"
         id="rect488"
         style="fill:none;stroke:#000000;stroke-linecap:round;stroke-linejoin:round;stroke-miterlimit:10" />
    </clipPath>
  </defs>
  <defs
     id="defs497">
    <clipPath
       id="cpNTUzLjg3fDU3MC41MnwyNjcuNDF8MTM5LjE5">
      <rect
         x="553.87"
         y="139.19"
         width="16.65"
         height="128.23"
         id="rect494"
         style="fill:none;stroke:#000000;stroke-linecap:round;stroke-linejoin:round;stroke-miterlimit:10" />
    </clipPath>
  </defs>
  <defs
     id="defs509">
    <clipPath
       id="clipPath507">
      <rect
         x="0"
         y="0"
         width="576"
         height="432"
         id="rect505"
         style="fill:none;stroke:#000000;stroke-linecap:round;stroke-linejoin:round;stroke-miterlimit:10" />
    </clipPath>
  </defs>
  <defs
     id="defs514">
    <clipPath
       id="cpNTUzLjg3fDU3MC41Mnw0MDEuMTJ8MjcyLjg5">
      <rect
         x="553.87"
         y="272.89001"
         width="16.65"
         height="128.23"
         id="rect511"
         style="fill:none;stroke:#000000;stroke-linecap:round;stroke-linejoin:round;stroke-miterlimit:10" />
    </clipPath>
  </defs>
  <defs
     id="defs526">
    <clipPath
       id="clipPath524">
      <rect
         x="0"
         y="0"
         width="576"
         height="432"
         id="rect522"
         style="fill:none;stroke:#000000;stroke-linecap:round;stroke-linejoin:round;stroke-miterlimit:10" />
    </clipPath>
  </defs>
  <g
     id="g1543-3-8"
     transform="matrix(0.25328768,0,0,0.25328768,112.63292,52.889664)">
    <path
       style="fill:#f74700;fill-opacity:0.4;stroke:#000000;stroke-width:0.19629999;stroke-linecap:round;stroke-linejoin:round;stroke-miterlimit:10"
       id="path6-03-4"
       class="fa-secondary"
       d="m 71.573629,-163.28192 -10.89073,21.7893 a 12.631904,12.631904 0 0 0 -1.32699,5.61418 v 49.361592 h -25.12639 v -78.519992 a 21.971858,21.971858 0 0 1 43.55308,-4.13997 l -0.0726,0.0334 a 12.586755,12.586755 0 0 0 -6.13633,5.86152 z"
       inkscape:connector-curvature="0" />
    <path
       style="fill:#f74700;fill-opacity:1;stroke:#000000;stroke-width:0.19629999;stroke-linecap:round;stroke-linejoin:round;stroke-miterlimit:10"
       id="path8-3-7"
       class="fa-primary"
       d="m 146.63482,-138.68946 -10.89269,-21.7893 a 6.2815997,6.2815997 0 0 0 -3.06621,-2.93076 l -23.65611,-10.50794 a 6.2815997,6.2815997 0 0 0 -5.1038,0 l -23.656111,10.51383 a 6.2815997,6.2815997 0 0 0 -3.0662,2.93076 l -10.89269,21.7893 a 6.2973037,6.2973037 0 0 0 -0.6635,2.80513 v 49.361592 h 25.1264 v -18.844802 h 31.408001 v 18.844802 h 25.1264 v -49.361592 a 6.2973037,6.2973037 0 0 0 -0.66349,-2.81102 z m -30.74451,14.48301 H 97.045509 v -18.8448 h 18.844801 z"
       inkscape:connector-curvature="0" />
  </g>
  <g
     id="g1570-7-2"
     transform="matrix(0.58314473,0,0,0.58314473,379.69893,111.26681)">
    <path
       style="fill:#016394;fill-opacity:0.4;stroke:#000000;stroke-width:0.08526248;stroke-linecap:round;stroke-linejoin:round;stroke-miterlimit:10"
       id="path6-0-9-4"
       class="fa-secondary"
       d="m 157.93812,-171.38719 -4.73036,9.46414 a 5.4866407,5.4866407 0 0 0 -0.57638,2.43851 v 21.4401 h -10.91359 v -34.10499 a 9.5434299,9.5434299 0 0 1 18.91719,-1.79819 l -0.0315,0.0145 a 5.4670304,5.4670304 0 0 0 -2.6653,2.54594 z"
       inkscape:connector-curvature="0" />
    <path
       style="fill:#016394;fill-opacity:1;stroke:#000000;stroke-width:0.08526248;stroke-linecap:round;stroke-linejoin:round;stroke-miterlimit:10"
       id="path8-9-4-0"
       class="fa-primary"
       d="m 190.54079,-160.7055 -4.73121,-9.46414 a 2.7283995,2.7283995 0 0 0 -1.33181,-1.27297 l -10.27498,-4.5641 a 2.7283995,2.7283995 0 0 0 -2.21682,0 l -10.27498,4.56666 a 2.7283995,2.7283995 0 0 0 -1.3318,1.27297 l -4.73122,9.46414 a 2.7352205,2.7352205 0 0 0 -0.28819,1.2184 v 21.4401 h 10.9136 v -8.1852 h 13.642 v 8.1852 h 10.9136 v -21.4401 a 2.7352205,2.7352205 0 0 0 -0.28819,-1.22096 z m -13.35381,6.29066 h -8.1852 v -8.1852 h 8.1852 z"
       inkscape:connector-curvature="0" />
  </g>
</svg>
