<?xml version="1.0" encoding="UTF-8" standalone="no"?>
<svg
   xmlns:dc="http://purl.org/dc/elements/1.1/"
   xmlns:cc="http://creativecommons.org/ns#"
   xmlns:rdf="http://www.w3.org/1999/02/22-rdf-syntax-ns#"
   xmlns:svg="http://www.w3.org/2000/svg"
   xmlns="http://www.w3.org/2000/svg"
   xmlns:sodipodi="http://sodipodi.sourceforge.net/DTD/sodipodi-0.dtd"
   xmlns:inkscape="http://www.inkscape.org/namespaces/inkscape"
   viewBox="0 0 587.07001 472.83908"
   version="1.1"
   id="svg692"
   sodipodi:docname="dynamics-hierarchy_two.svg"
   width="587.07001"
   height="472.83908"
   inkscape:version="0.92.3 (2405546, 2018-03-11)">
  <metadata
     id="metadata696">
    <rdf:RDF>
      <cc:Work
         rdf:about="">
        <dc:format>image/svg+xml</dc:format>
        <dc:type
           rdf:resource="http://purl.org/dc/dcmitype/StillImage" />
        <dc:title />
      </cc:Work>
    </rdf:RDF>
  </metadata>
  <sodipodi:namedview
     pagecolor="#ffffff"
     bordercolor="#666666"
     borderopacity="1"
     objecttolerance="10"
     gridtolerance="10"
     guidetolerance="10"
     inkscape:pageopacity="0"
     inkscape:pageshadow="2"
     inkscape:window-width="1920"
     inkscape:window-height="1009"
     id="namedview694"
     showgrid="false"
     inkscape:zoom="1.3110938"
     inkscape:cx="28.117072"
     inkscape:cy="250.33641"
     inkscape:window-x="0"
     inkscape:window-y="0"
     inkscape:window-maximized="1"
     inkscape:current-layer="svg692"
     fit-margin-top="5"
     fit-margin-left="5"
     fit-margin-right="5"
     fit-margin-bottom="5" />
  <defs
     id="defs4">
    <style
       type="text/css"
       id="style2"><![CDATA[
    line, polyline, polygon, path, rect, circle {
      fill: none;
      stroke: #000000;
      stroke-linecap: round;
      stroke-linejoin: round;
      stroke-miterlimit: 10.00;
    }
  ]]></style>
  </defs>
  <defs
     id="defs13">
    <clipPath
       id="cpNDkuOTJ8MjE0LjI1fDEzMy43MXw1LjQ4">
      <rect
         x="49.919998"
         y="5.48"
         width="164.33"
         height="128.23"
         id="rect10"
         style="fill:none;stroke:#000000;stroke-linecap:round;stroke-linejoin:round;stroke-miterlimit:10" />
    </clipPath>
  </defs>
  <defs
     id="defs54">
    <clipPath
       id="cpMC4wMHw1NzYuMDB8NDMyLjAwfDAuMDA=">
      <rect
         x="0"
         y="0"
         width="576"
         height="432"
         id="rect51"
         style="fill:none;stroke:#000000;stroke-linecap:round;stroke-linejoin:round;stroke-miterlimit:10" />
    </clipPath>
  </defs>
  <defs
     id="defs59">
    <clipPath
       id="cpNDkuOTJ8MjE0LjI1fDI2Ny40MXwxMzkuMTk=">
      <rect
         x="49.919998"
         y="139.19"
         width="164.33"
         height="128.23"
         id="rect56"
         style="fill:none;stroke:#000000;stroke-linecap:round;stroke-linejoin:round;stroke-miterlimit:10" />
    </clipPath>
  </defs>
  <defs
     id="defs103">
    <clipPath
       id="clipPath101">
      <rect
         x="0"
         y="0"
         width="576"
         height="432"
         id="rect99"
         style="fill:none;stroke:#000000;stroke-linecap:round;stroke-linejoin:round;stroke-miterlimit:10" />
    </clipPath>
  </defs>
  <defs
     id="defs108">
    <clipPath
       id="cpNDkuOTJ8MjE0LjI1fDQwMS4xMnwyNzIuODk=">
      <rect
         x="49.919998"
         y="272.89001"
         width="164.33"
         height="128.23"
         id="rect105"
         style="fill:none;stroke:#000000;stroke-linecap:round;stroke-linejoin:round;stroke-miterlimit:10" />
    </clipPath>
  </defs>
  <defs
     id="defs152">
    <clipPath
       id="clipPath150">
      <rect
         x="0"
         y="0"
         width="576"
         height="432"
         id="rect148"
         style="fill:none;stroke:#000000;stroke-linecap:round;stroke-linejoin:round;stroke-miterlimit:10" />
    </clipPath>
  </defs>
  <defs
     id="defs157">
    <clipPath
       id="cpMjE5LjczfDM4NC4wNnwxMzMuNzF8NS40OA==">
      <rect
         x="219.73"
         y="5.48"
         width="164.33"
         height="128.23"
         id="rect154"
         style="fill:none;stroke:#000000;stroke-linecap:round;stroke-linejoin:round;stroke-miterlimit:10" />
    </clipPath>
  </defs>
  <polyline
     points="227.20,118.76 228.20,119.70 229.20,120.69 230.21,121.03 231.21,121.28 232.21,121.89 233.21,122.47 234.22,122.97 235.22,123.96 236.22,125.14 237.22,125.53 238.23,125.38 239.23,124.95 240.23,124.20 241.24,122.96 242.24,120.81 243.24,117.06 244.24,110.96 245.25,103.38 246.25,98.60 247.25,99.41 248.25,103.25 249.26,110.00 250.26,115.86 251.26,118.24 252.26,118.94 253.27,119.99 254.27,120.83 255.27,121.07 256.27,121.41 257.28,122.06 258.28,122.59 259.28,123.15 260.29,124.31 261.29,125.32 262.29,125.52 263.29,125.30 264.30,124.79 265.30,123.94 266.30,122.52 267.30,120.03 268.31,115.73 269.31,109.04 270.31,101.66 271.31,98.33 272.32,100.18 273.32,104.75 274.32,111.81 275.33,116.78 276.33,118.46 277.33,119.17 278.33,120.27 279.34,120.94 280.34,121.12 281.34,121.56 282.34,122.22 283.35,122.71 284.35,123.39 285.35,124.64 286.35,125.43 287.36,125.50 288.36,125.19 289.36,124.61 290.36,123.64 291.37,122.00 292.37,119.13 293.37,114.23 294.38,107.05 295.38,100.24 296.38,98.44 297.38,101.08 298.39,106.47 299.39,113.44 300.39,117.47 301.39,118.62 302.40,119.44 303.40,120.51 304.40,121.00 305.40,121.19 306.41,121.73 307.41,122.36 308.41,122.84 309.41,123.68 310.42,124.93 311.42,125.50 312.42,125.45 313.43,125.07 314.43,124.40 315.43,123.30 316.43,121.41 317.44,118.10 318.44,112.56 319.44,105.06 320.44,99.18 321.45,98.86 322.45,102.14 323.45,108.34 324.45,114.84 325.46,117.95 326.46,118.78 327.46,119.73 328.46,120.71 329.47,121.04 330.47,121.29 331.47,121.91 332.48,122.49 333.48,122.99 334.48,124.00 335.48,125.16 336.49,125.53 337.49,125.37 338.49,124.93 339.49,124.17 340.50,122.91 341.50,120.73 342.50,116.91 343.50,110.74 344.51,103.17 345.51,98.54 346.51,99.50 347.51,103.41 348.52,110.22 349.52,115.98 350.52,118.27 351.53,118.97 352.53,120.03 353.53,120.85 354.53,121.07 355.54,121.42 356.54,122.08 357.54,122.60 358.54,123.18 359.55,124.35 360.55,125.33 361.55,125.52 362.55,125.29 363.56,124.77 364.56,123.91 365.56,122.46 366.57,119.93 367.57,115.56 368.57,108.81 369.57,101.48 370.58,98.33 371.58,100.28 372.58,104.94 373.58,112.01 374.59,116.88 375.59,118.48 376.59,119.20 "
     style="fill:none;stroke:#b6003b;stroke-width:1.07000005;stroke-linecap:butt;stroke-linejoin:round;stroke-miterlimit:10"
     clip-path="url(#cpMjE5LjczfDM4NC4wNnwxMzMuNzF8NS40OA==)"
     id="polyline191"
     transform="translate(5.535,35.30408)" />
  <defs
     id="defs199">
    <clipPath
       id="clipPath197">
      <rect
         x="0"
         y="0"
         width="576"
         height="432"
         id="rect195"
         style="fill:none;stroke:#000000;stroke-linecap:round;stroke-linejoin:round;stroke-miterlimit:10" />
    </clipPath>
  </defs>
  <defs
     id="defs204">
    <clipPath
       id="cpMjE5LjczfDM4NC4wNnwyNjcuNDF8MTM5LjE5">
      <rect
         x="219.73"
         y="139.19"
         width="164.33"
         height="128.23"
         id="rect201"
         style="fill:none;stroke:#000000;stroke-linecap:round;stroke-linejoin:round;stroke-miterlimit:10" />
    </clipPath>
  </defs>
  <polyline
     points="227.20,176.80 228.20,176.29 229.20,175.85 230.21,175.48 231.21,175.11 232.21,174.78 233.21,174.54 234.22,174.38 235.22,174.34 236.22,174.61 237.22,175.24 238.23,176.14 239.23,177.22 240.23,178.41 241.24,179.62 242.24,180.75 243.24,181.65 244.24,182.10 245.25,181.88 246.25,181.12 247.25,180.24 248.25,179.23 249.26,178.16 250.26,177.52 251.26,177.13 252.26,176.66 253.27,176.16 254.27,175.75 255.27,175.39 256.27,175.02 257.28,174.71 258.28,174.49 259.28,174.35 260.29,174.37 261.29,174.74 262.29,175.45 263.29,176.41 264.30,177.52 265.30,178.72 266.30,179.92 267.30,181.01 268.31,181.82 269.31,182.11 270.31,181.72 271.31,180.90 272.32,180.01 273.32,178.93 274.32,177.95 275.33,177.41 276.33,177.02 277.33,176.53 278.33,176.05 279.34,175.66 280.34,175.29 281.34,174.93 282.34,174.65 283.35,174.45 284.35,174.33 285.35,174.43 286.35,174.90 287.36,175.68 288.36,176.68 289.36,177.82 290.36,179.03 291.37,180.22 292.37,181.26 293.37,181.95 294.38,182.07 295.38,181.53 296.38,180.67 297.38,179.75 298.39,178.64 299.39,177.78 300.39,177.31 301.39,176.91 302.40,176.40 303.40,175.94 304.40,175.57 305.40,175.20 306.41,174.85 307.41,174.59 308.41,174.41 309.41,174.33 310.42,174.52 311.42,175.07 312.42,175.92 313.43,176.96 314.43,178.13 315.43,179.34 316.43,180.51 317.44,181.48 318.44,182.05 319.44,181.99 320.44,181.32 321.45,180.44 322.45,179.48 323.45,178.37 324.45,177.63 325.46,177.22 326.46,176.78 327.46,176.27 328.46,175.84 329.47,175.47 330.47,175.10 331.47,174.78 332.48,174.54 333.48,174.37 334.48,174.34 335.48,174.62 336.49,175.27 337.49,176.17 338.49,177.26 339.49,178.44 340.50,179.65 341.50,180.78 342.50,181.67 343.50,182.10 344.51,181.87 345.51,181.10 346.51,180.21 347.51,179.19 348.52,178.14 349.52,177.51 350.52,177.12 351.53,176.65 352.53,176.15 353.53,175.74 354.53,175.38 355.54,175.01 356.54,174.71 357.54,174.49 358.54,174.35 359.55,174.38 360.55,174.76 361.55,175.48 362.55,176.44 363.56,177.55 364.56,178.76 365.56,179.96 366.57,181.04 367.57,181.84 368.57,182.11 369.57,181.70 370.58,180.87 371.58,179.98 372.58,178.90 373.58,177.93 374.59,177.40 375.59,177.01 376.59,176.52 "
     style="fill:none;stroke:#b6003b;stroke-width:1.07000005;stroke-linecap:butt;stroke-linejoin:round;stroke-miterlimit:10"
     clip-path="url(#cpMjE5LjczfDM4NC4wNnwyNjcuNDF8MTM5LjE5)"
     id="polyline240"
     transform="translate(5.535,35.30408)" />
  <defs
     id="defs248">
    <clipPath
       id="clipPath246">
      <rect
         x="0"
         y="0"
         width="576"
         height="432"
         id="rect244"
         style="fill:none;stroke:#000000;stroke-linecap:round;stroke-linejoin:round;stroke-miterlimit:10" />
    </clipPath>
  </defs>
  <defs
     id="defs253">
    <clipPath
       id="cpMjE5LjczfDM4NC4wNnw0MDEuMTJ8MjcyLjg5">
      <rect
         x="219.73"
         y="272.89001"
         width="164.33"
         height="128.23"
         id="rect250"
         style="fill:none;stroke:#000000;stroke-linecap:round;stroke-linejoin:round;stroke-miterlimit:10" />
    </clipPath>
  </defs>
  <polyline
     points="227.20,288.55 228.20,289.09 229.20,289.57 230.21,289.91 231.21,289.98 232.21,289.68 233.21,289.04 234.22,288.27 235.22,287.59 236.22,287.03 237.22,286.78 238.23,286.89 239.23,287.10 240.23,287.24 241.24,287.38 242.24,287.54 243.24,287.60 244.24,287.52 245.25,287.33 246.25,287.05 247.25,286.81 248.25,286.74 249.26,286.94 250.26,287.44 251.26,288.09 252.26,288.70 253.27,289.22 254.27,289.68 255.27,289.96 256.27,289.94 257.28,289.55 258.28,288.84 259.28,288.08 260.29,287.43 261.29,286.93 262.29,286.78 263.29,286.95 264.30,287.14 265.30,287.27 266.30,287.43 267.30,287.57 268.31,287.59 269.31,287.48 270.31,287.26 271.31,286.98 272.32,286.77 273.32,286.77 274.32,287.05 275.33,287.60 276.33,288.26 277.33,288.84 278.33,289.35 279.34,289.77 280.34,289.99 281.34,289.87 282.34,289.39 283.35,288.64 284.35,287.90 285.35,287.28 286.35,286.85 287.36,286.81 288.36,287.00 289.36,287.18 290.36,287.31 291.37,287.47 292.37,287.59 293.37,287.58 294.38,287.44 295.38,287.19 296.38,286.91 297.38,286.75 298.39,286.81 299.39,287.17 300.39,287.77 301.39,288.42 302.40,288.98 303.40,289.47 304.40,289.85 305.40,289.99 306.41,289.78 307.41,289.21 308.41,288.44 309.41,287.74 310.42,287.14 311.42,286.80 312.42,286.85 313.43,287.06 314.43,287.21 315.43,287.35 316.43,287.51 317.44,287.60 318.44,287.55 319.44,287.38 320.44,287.12 321.45,286.85 322.45,286.74 323.45,286.87 324.45,287.31 325.46,287.94 326.46,288.57 327.46,289.11 328.46,289.58 329.47,289.92 330.47,289.98 331.47,289.67 332.48,289.02 333.48,288.25 334.48,287.57 335.48,287.02 336.49,286.78 337.49,286.90 338.49,287.10 339.49,287.24 340.50,287.39 341.50,287.54 342.50,287.60 343.50,287.52 344.51,287.32 345.51,287.04 346.51,286.81 347.51,286.74 348.52,286.95 349.52,287.46 350.52,288.11 351.53,288.72 352.53,289.24 353.53,289.69 354.53,289.97 355.54,289.93 356.54,289.53 357.54,288.82 358.54,288.06 359.55,287.41 360.55,286.92 361.55,286.79 362.55,286.95 363.56,287.15 364.56,287.28 365.56,287.43 366.57,287.57 367.57,287.59 368.57,287.48 369.57,287.25 370.58,286.97 371.58,286.77 372.58,286.77 373.58,287.06 374.59,287.62 375.59,288.28 376.59,288.86 "
     style="fill:none;stroke:#b6003b;stroke-width:1.07000005;stroke-linecap:butt;stroke-linejoin:round;stroke-miterlimit:10"
     clip-path="url(#cpMjE5LjczfDM4NC4wNnw0MDEuMTJ8MjcyLjg5)"
     id="polyline289"
     transform="translate(5.535,35.30408)" />
  <defs
     id="defs297">
    <clipPath
       id="clipPath295">
      <rect
         x="0"
         y="0"
         width="576"
         height="432"
         id="rect293"
         style="fill:none;stroke:#000000;stroke-linecap:round;stroke-linejoin:round;stroke-miterlimit:10" />
    </clipPath>
  </defs>
  <defs
     id="defs302">
    <clipPath
       id="cpMzg5LjU0fDU1My44N3wxMzMuNzF8NS40OA==">
      <rect
         x="389.54001"
         y="5.48"
         width="164.33"
         height="128.23"
         id="rect299"
         style="fill:none;stroke:#000000;stroke-linecap:round;stroke-linejoin:round;stroke-miterlimit:10" />
    </clipPath>
  </defs>
  <defs
     id="defs344">
    <clipPath
       id="clipPath342">
      <rect
         x="0"
         y="0"
         width="576"
         height="432"
         id="rect340"
         style="fill:none;stroke:#000000;stroke-linecap:round;stroke-linejoin:round;stroke-miterlimit:10" />
    </clipPath>
  </defs>
  <defs
     id="defs349">
    <clipPath
       id="cpMzg5LjU0fDU1My44N3wyNjcuNDF8MTM5LjE5">
      <rect
         x="389.54001"
         y="139.19"
         width="164.33"
         height="128.23"
         id="rect346"
         style="fill:none;stroke:#000000;stroke-linecap:round;stroke-linejoin:round;stroke-miterlimit:10" />
    </clipPath>
  </defs>
  <defs
     id="defs393">
    <clipPath
       id="clipPath391">
      <rect
         x="0"
         y="0"
         width="576"
         height="432"
         id="rect389"
         style="fill:none;stroke:#000000;stroke-linecap:round;stroke-linejoin:round;stroke-miterlimit:10" />
    </clipPath>
  </defs>
  <defs
     id="defs398">
    <clipPath
       id="cpMzg5LjU0fDU1My44N3w0MDEuMTJ8MjcyLjg5">
      <rect
         x="389.54001"
         y="272.89001"
         width="164.33"
         height="128.23"
         id="rect395"
         style="fill:none;stroke:#000000;stroke-linecap:round;stroke-linejoin:round;stroke-miterlimit:10" />
    </clipPath>
  </defs>
  <defs
     id="defs442">
    <clipPath
       id="clipPath440">
      <rect
         x="0"
         y="0"
         width="576"
         height="432"
         id="rect438"
         style="fill:none;stroke:#000000;stroke-linecap:round;stroke-linejoin:round;stroke-miterlimit:10" />
    </clipPath>
  </defs>
  <defs
     id="defs447">
    <clipPath
       id="cpNDkuOTJ8MjE0LjI1fDUuNDh8NS40OA==">
      <rect
         x="49.919998"
         y="5.48"
         width="164.33"
         height="0"
         id="rect444"
         style="fill:none;stroke:#000000;stroke-linecap:round;stroke-linejoin:round;stroke-miterlimit:10" />
    </clipPath>
  </defs>
  <defs
     id="defs453">
    <clipPath
       id="clipPath451">
      <rect
         x="0"
         y="0"
         width="576"
         height="432"
         id="rect449"
         style="fill:none;stroke:#000000;stroke-linecap:round;stroke-linejoin:round;stroke-miterlimit:10" />
    </clipPath>
  </defs>
  <defs
     id="defs458">
    <clipPath
       id="cpMjE5LjczfDM4NC4wNnw1LjQ4fDUuNDg=">
      <rect
         x="219.73"
         y="5.48"
         width="164.33"
         height="0"
         id="rect455"
         style="fill:none;stroke:#000000;stroke-linecap:round;stroke-linejoin:round;stroke-miterlimit:10" />
    </clipPath>
  </defs>
  <defs
     id="defs464">
    <clipPath
       id="clipPath462">
      <rect
         x="0"
         y="0"
         width="576"
         height="432"
         id="rect460"
         style="fill:none;stroke:#000000;stroke-linecap:round;stroke-linejoin:round;stroke-miterlimit:10" />
    </clipPath>
  </defs>
  <defs
     id="defs469">
    <clipPath
       id="cpMzg5LjU0fDU1My44N3w1LjQ4fDUuNDg=">
      <rect
         x="389.54001"
         y="5.48"
         width="164.33"
         height="0"
         id="rect466"
         style="fill:none;stroke:#000000;stroke-linecap:round;stroke-linejoin:round;stroke-miterlimit:10" />
    </clipPath>
  </defs>
  <defs
     id="defs475">
    <clipPath
       id="clipPath473">
      <rect
         x="0"
         y="0"
         width="576"
         height="432"
         id="rect471"
         style="fill:none;stroke:#000000;stroke-linecap:round;stroke-linejoin:round;stroke-miterlimit:10" />
    </clipPath>
  </defs>
  <defs
     id="defs480">
    <clipPath
       id="cpNTUzLjg3fDU3MC41MnwxMzMuNzF8NS40OA==">
      <rect
         x="553.87"
         y="5.48"
         width="16.65"
         height="128.23"
         id="rect477"
         style="fill:none;stroke:#000000;stroke-linecap:round;stroke-linejoin:round;stroke-miterlimit:10" />
    </clipPath>
  </defs>
  <defs
     id="defs492">
    <clipPath
       id="clipPath490">
      <rect
         x="0"
         y="0"
         width="576"
         height="432"
         id="rect488"
         style="fill:none;stroke:#000000;stroke-linecap:round;stroke-linejoin:round;stroke-miterlimit:10" />
    </clipPath>
  </defs>
  <defs
     id="defs497">
    <clipPath
       id="cpNTUzLjg3fDU3MC41MnwyNjcuNDF8MTM5LjE5">
      <rect
         x="553.87"
         y="139.19"
         width="16.65"
         height="128.23"
         id="rect494"
         style="fill:none;stroke:#000000;stroke-linecap:round;stroke-linejoin:round;stroke-miterlimit:10" />
    </clipPath>
  </defs>
  <defs
     id="defs509">
    <clipPath
       id="clipPath507">
      <rect
         x="0"
         y="0"
         width="576"
         height="432"
         id="rect505"
         style="fill:none;stroke:#000000;stroke-linecap:round;stroke-linejoin:round;stroke-miterlimit:10" />
    </clipPath>
  </defs>
  <defs
     id="defs514">
    <clipPath
       id="cpNTUzLjg3fDU3MC41Mnw0MDEuMTJ8MjcyLjg5">
      <rect
         x="553.87"
         y="272.89001"
         width="16.65"
         height="128.23"
         id="rect511"
         style="fill:none;stroke:#000000;stroke-linecap:round;stroke-linejoin:round;stroke-miterlimit:10" />
    </clipPath>
  </defs>
  <defs
     id="defs526">
    <clipPath
       id="clipPath524">
      <rect
         x="0"
         y="0"
         width="576"
         height="432"
         id="rect522"
         style="fill:none;stroke:#000000;stroke-linecap:round;stroke-linejoin:round;stroke-miterlimit:10" />
    </clipPath>
  </defs>
  <g
     aria-label="long-arrow-alt-left"
     style="font-style:normal;font-variant:normal;font-weight:normal;font-stretch:normal;font-size:43.82711411px;line-height:1.25;font-family:'Font Awesome 5 Pro';-inkscape-font-specification:'Font Awesome 5 Pro';letter-spacing:0px;word-spacing:0px;fill:#000000;fill-opacity:1;stroke:none;stroke-width:1.09567785"
     id="text1574-9-6">
    <path
       d="m 382.51248,12.548942 -8.47438,8.474383 c -0.428,0.427999 -0.428,1.112798 0,1.455197 l 8.47438,8.474383 c 0.6848,0.684799 1.7976,0.2568 1.7976,-0.684798 v -6.077588 h 26.36475 c 0.5136,0 1.0272,-0.427999 1.0272,-1.027198 v -2.739195 c 0,-0.599199 -0.5136,-1.027198 -1.0272,-1.027198 H 384.31008 V 13.31934 c 0,-0.941598 -1.1128,-1.369597 -1.7976,-0.770398 z"
       style="stroke-width:1.09567785;fill:#000000;fill-opacity:1"
       id="path1038" />
  </g>
  <g
     aria-label="long-arrow-alt-left"
     transform="scale(-1)"
     style="font-style:normal;font-variant:normal;font-weight:normal;font-stretch:normal;font-size:43.82711411px;line-height:1.25;font-family:'Font Awesome 5 Pro';-inkscape-font-specification:'Font Awesome 5 Pro';letter-spacing:0px;word-spacing:0px;fill:#000000;fill-opacity:1;stroke:none;stroke-width:1.09567785"
     id="text1574-9-6-6">
    <path
       d="m -233.31138,-31.190876 -8.47439,8.474383 c -0.428,0.427999 -0.428,1.112798 0,1.455197 l 8.47439,8.474384 c 0.68479,0.684798 1.79759,0.256799 1.79759,-0.684799 v -6.077588 h 26.36475 c 0.5136,0 1.0272,-0.427999 1.0272,-1.027198 v -2.739195 c 0,-0.599198 -0.5136,-1.027198 -1.0272,-1.027198 h -26.36475 v -6.077588 c 0,-0.941598 -1.1128,-1.369597 -1.79759,-0.770398 z"
       style="stroke-width:1.09567785;fill:#000000;fill-opacity:1"
       id="path1035" />
  </g>
  <g
     id="g1826"
     transform="translate(21.636775,60.168577)">
    <path
       style="fill:#b6003b;fill-opacity:0.4;stroke:#000000;stroke-width:0.04972037;stroke-linecap:round;stroke-linejoin:round;stroke-miterlimit:10"
       id="path6-03-4-5"
       class="fa-secondary"
       d="m 281.16006,-49.127931 -2.75849,5.518961 a 3.1995057,3.1995057 0 0 0 -0.33611,1.422003 v 12.502683 h -6.3642 v -19.888147 a 5.5652009,5.5652009 0 0 1 11.03145,-1.048603 l -0.0184,0.0085 a 3.18807,3.18807 0 0 0 -1.55426,1.484651 z"
       inkscape:connector-curvature="0" />
    <path
       style="fill:#b6003b;fill-opacity:1;stroke:none;stroke-width:0.04972037;stroke-linecap:round;stroke-linejoin:round;stroke-miterlimit:10;stroke-opacity:1"
       id="path8-3-7-8"
       class="fa-primary"
       d="m 300.17213,-42.898964 -2.75898,-5.518961 a 1.5910518,1.5910518 0 0 0 -0.77663,-0.742325 l -5.99181,-2.661532 a 1.5910518,1.5910518 0 0 0 -1.29272,0 l -5.99181,2.663023 a 1.5910518,1.5910518 0 0 0 -0.77663,0.742326 l -2.75898,5.518961 a 1.5950294,1.5950294 0 0 0 -0.16806,0.710505 v 12.502683 h 6.36421 v -4.773156 h 7.95526 v 4.773156 h 6.36421 v -12.502683 a 1.5950294,1.5950294 0 0 0 -0.16806,-0.711997 z m -7.7872,3.668368 h -4.77316 v -4.773155 h 4.77316 z"
       inkscape:connector-curvature="0" />
  </g>
</svg>
