<?xml version="1.0" encoding="UTF-8" standalone="no"?>
<!-- Generated by graphviz version 2.36.0 (20140111.2315)
 -->

<!-- Title: G Pages: 1 -->

<svg
   xmlns:dc="http://purl.org/dc/elements/1.1/"
   xmlns:cc="http://creativecommons.org/ns#"
   xmlns:rdf="http://www.w3.org/1999/02/22-rdf-syntax-ns#"
   xmlns:svg="http://www.w3.org/2000/svg"
   xmlns="http://www.w3.org/2000/svg"
   xmlns:sodipodi="http://sodipodi.sourceforge.net/DTD/sodipodi-0.dtd"
   xmlns:inkscape="http://www.inkscape.org/namespaces/inkscape"
   width="2880.625"
   height="1257.2737"
   viewBox="0 0 2304.3631 1005.8189"
   id="svg3711"
   version="1.1"
   inkscape:version="0.48.4 r9939"
   sodipodi:docname="PuntaBanda-Par_10_0.dot.svg">
  <metadata
     id="metadata4218">
    <rdf:RDF>
      <cc:Work
         rdf:about="">
        <dc:format>image/svg+xml</dc:format>
        <dc:type
           rdf:resource="http://purl.org/dc/dcmitype/StillImage" />
      </cc:Work>
    </rdf:RDF>
  </metadata>
  <defs
     id="defs4216" />
  <sodipodi:namedview
     pagecolor="#ffffff"
     bordercolor="#666666"
     borderopacity="1"
     objecttolerance="10"
     gridtolerance="10"
     guidetolerance="10"
     inkscape:pageopacity="0"
     inkscape:pageshadow="2"
     inkscape:window-width="701"
     inkscape:window-height="480"
     id="namedview4214"
     showgrid="false"
     fit-margin-top="0"
     fit-margin-left="0"
     fit-margin-right="0"
     fit-margin-bottom="0"
     inkscape:zoom="0.0816609"
     inkscape:cx="1441.1726"
     inkscape:cy="628.32113"
     inkscape:window-x="65"
     inkscape:window-y="24"
     inkscape:window-maximized="0"
     inkscape:current-layer="svg3711" />
  <g
     id="graph0"
     class="graph"
     transform="matrix(0,-1,1,0,2304.47,1003.194)">
    <title
       id="title3714">G</title>
    <!-- 1 -->
    <g
       id="node1"
       class="node">
      <title
         id="title3717">1</title>
      <path
         d="m 766,-2169 c 0,0 135,0 135,0 0,-2.95 -0.096,-5.89 -0.289,-8.83 -0.193,-2.94 -0.481,-5.87 -0.866,-8.79 -0.384,-2.92 -0.864,-5.83 -1.439,-8.72 -0.575,-2.89 -1.244,-5.76 -2.006,-8.6 -0.762,-2.85 -1.618,-5.67 -2.564,-8.45 -0.947,-2.79 -1.985,-5.55 -3.112,-8.27 -1.127,-2.72 -2.343,-5.41 -3.646,-8.05 -1.303,-2.64 -2.692,-5.24 -4.165,-7.79 -1.472,-2.55 -3.028,-5.05 -4.665,-7.5 -1.636,-2.45 -3.352,-4.85 -5.145,-7.18 -1.793,-2.34 -3.663,-4.62 -5.605,-6.83 -1.942,-2.22 -3.956,-4.37 -6.039,-6.45 -2.082,-2.08 -4.233,-4.1 -6.447,-6.04 -2.215,-1.94 -4.492,-3.81 -6.829,-5.6 -2.337,-1.8 -4.732,-3.51 -7.181,-5.15 -2.449,-1.63 -4.951,-3.19 -7.502,-4.66 0,0 -67.5,116.91 -67.5,116.91"
         id="path3719"
         inkscape:connector-curvature="0"
         style="fill:#abdda4;stroke:#000000;stroke-width:0.5" />
      <path
         d="m 766,-2169 c 0,0 67.5,-116.91 67.5,-116.91 -2.678,-1.55 -5.409,-3 -8.188,-4.36 -2.778,-1.36 -5.602,-2.62 -8.467,-3.79 -2.865,-1.16 -5.769,-2.23 -8.708,-3.2 -2.938,-0.96 -5.909,-1.82 -8.906,-2.59 -2.998,-0.76 -6.021,-1.42 -9.064,-1.97 -3.043,-0.55 -6.104,-1 -9.177,-1.35 -3.074,-0.34 -6.159,-0.58 -9.249,-0.71 -3.09,-0.13 -6.183,-0.15 -9.275,-0.07 -3.092,0.08 -6.18,0.26 -9.259,0.56 -3.078,0.29 -6.146,0.69 -9.198,1.19 -3.051,0.51 -6.085,1.12 -9.094,1.83 -3.01,0.71 -5.994,1.53 -8.948,2.44 -2.954,0.92 -5.875,1.94 -8.759,3.06 -2.884,1.11 -5.728,2.33 -8.528,3.64 -2.8,1.32 -5.555,2.73 -8.258,4.23 -2.703,1.5 -5.354,3.1 -7.948,4.78 -2.594,1.68 -5.129,3.46 -7.601,5.32 -2.472,1.85 -4.88,3.8 -7.218,5.82 -2.339,2.03 -4.607,4.13 -6.802,6.31 -2.194,2.18 -4.312,4.43 -6.351,6.76 -2.04,2.32 -3.998,4.72 -5.873,7.18 -1.875,2.46 -3.664,4.98 -5.366,7.56 -1.701,2.59 -3.313,5.23 -4.833,7.92 -1.52,2.69 -2.948,5.44 -4.279,8.23 -1.332,2.79 -2.567,5.63 -3.703,8.51 -1.137,2.87 -2.174,5.79 -3.111,8.73 -0.936,2.95 -1.771,5.93 -2.503,8.94 -0.732,3 -1.36,6.03 -1.884,9.08 -0.524,3.05 -0.943,6.11 -1.256,9.19 -0.313,3.08 -0.521,6.16 -0.622,9.25 -0.101,3.09 -0.096,6.19 0.015,9.28 0.112,3.09 0.329,6.18 0.653,9.25 0.323,3.08 0.752,6.14 1.285,9.19 0.534,3.04 1.172,6.07 1.914,9.07 0.742,3.01 1.586,5.98 2.533,8.93 0.946,2.94 1.993,5.85 3.139,8.73 1.146,2.87 2.39,5.7 3.731,8.49 1.34,2.78 2.776,5.52 4.305,8.21 1.529,2.69 3.15,5.33 4.86,7.9 1.71,2.58 3.508,5.1 5.39,7.55 1.883,2.46 3.85,4.84 5.896,7.16 2.047,2.32 4.173,4.57 6.374,6.74 2.202,2.17 4.477,4.27 6.822,6.29 2.345,2.01 4.759,3.95 7.237,5.8 2.478,1.85 5.019,3.61 7.619,5.29 2.599,1.68 5.255,3.26 7.963,4.76 2.709,1.49 5.468,2.89 8.272,4.19 2.804,1.31 5.653,2.51 8.54,3.62 2.888,1.11 5.812,2.12 8.769,3.03 2.957,0.91 5.944,1.71 8.956,2.41 3.012,0.71 6.047,1.3 9.1,1.8 3.053,0.49 6.122,0.88 9.202,1.16 3.08,0.29 6.169,0.46 9.261,0.53 3.092,0.08 6.185,0.04 9.275,-0.1 3.089,-0.14 6.173,-0.39 9.246,-0.74 3.072,-0.36 6.132,-0.82 9.173,-1.38 3.041,-0.56 6.062,-1.23 9.057,-2 2.995,-0.77 5.963,-1.65 8.898,-2.62 2.935,-0.98 5.836,-2.05 8.697,-3.23 2.861,-1.17 5.681,-2.44 8.455,-3.81 2.774,-1.37 5.5,-2.83 8.173,-4.39 2.674,-1.55 5.293,-3.2 7.853,-4.93 2.56,-1.74 5.06,-3.56 7.495,-5.47 2.435,-1.91 4.804,-3.9 7.103,-5.97 0,0 -90.333,-100.32 -90.333,-100.32"
         id="path3721"
         inkscape:connector-curvature="0"
         style="fill:#2b83ba;stroke:#000000;stroke-width:0.5" />
      <path
         d="m 766,-2169 c 0,0 90.333,100.32 90.333,100.32 1.751,-1.57 3.46,-3.19 5.126,-4.86 1.667,-1.67 3.289,-3.38 4.866,-5.13 1.576,-1.75 3.107,-3.54 4.59,-5.37 1.483,-1.83 2.917,-3.7 4.302,-5.61 1.385,-1.91 2.72,-3.85 4.004,-5.82 1.283,-1.98 2.514,-3.99 3.692,-6.03 1.179,-2.04 2.303,-4.11 3.373,-6.21 1.07,-2.1 2.084,-4.23 3.043,-6.38 0.958,-2.15 1.86,-4.33 2.704,-6.53 0.845,-2.2 1.631,-4.42 2.36,-6.66 0.728,-2.24 1.397,-4.5 2.007,-6.78 0.61,-2.28 1.16,-4.57 1.65,-6.87 0.49,-2.31 0.919,-4.62 1.288,-6.95 0.369,-2.33 0.676,-4.67 0.922,-7.01 0.247,-2.34 0.432,-4.69 0.555,-7.04 0.123,-2.36 0.185,-4.71 0.185,-7.07 0,0 -135,0 -135,0"
         id="path3723"
         inkscape:connector-curvature="0"
         style="fill:#fdae61;stroke:#000000;stroke-width:0.5" />
      <ellipse
         cx="766"
         cy="-2169"
         rx="135"
         ry="135"
         id="ellipse3725"
         d="m 901,-2169 c 0,74.5584 -60.44156,135 -135,135 -74.55844,0 -135,-60.4416 -135,-135 0,-74.5584 60.44156,-135 135,-135 74.55844,0 135,60.4416 135,135 z"
         sodipodi:cx="766"
         sodipodi:cy="-2169"
         sodipodi:rx="135"
         sodipodi:ry="135"
         style="fill:none;stroke:#000000" />
    </g>
    <!-- 1&#45;&gt;1 -->
    <g
       id="edge1"
       class="edge">
      <title
         id="title3728">1-&gt;1</title>
      <path
         d="m 888.751,-2225.66 c 18.059,8.91 30.249,27.79 30.249,56.66 0,23.9 -8.36,40.97 -21.49,51.18"
         id="path3730"
         inkscape:connector-curvature="0"
         style="fill:none;stroke:#000000;stroke-width:3.46667004" />
      <polygon
         points="899.085,-2114.67 888.751,-2112.34 895.374,-2120.61 899.085,-2114.67 "
         id="polygon3732"
         style="fill:#000000;stroke:#000000;stroke-width:3.46667004" />
    </g>
    <!-- 3 -->
    <g
       id="node3"
       class="node">
      <title
         id="title3735">3</title>
      <path
         d="m 657,-1835 c 0,0 163,0 163,0 0,-2.91 -0.078,-5.82 -0.234,-8.72 -0.155,-2.91 -0.389,-5.81 -0.7,-8.7 -0.311,-2.9 -0.699,-5.78 -1.165,-8.65 -0.465,-2.88 -1.008,-5.73 -1.626,-8.58 -0.619,-2.84 -1.313,-5.67 -2.083,-8.47 -0.77,-2.81 -1.614,-5.59 -2.533,-8.36 -0.919,-2.76 -1.912,-5.49 -2.977,-8.2 -1.066,-2.71 -2.203,-5.39 -3.412,-8.03 -1.209,-2.65 -2.488,-5.26 -3.837,-7.84 -1.348,-2.58 -2.766,-5.12 -4.251,-7.62 -1.484,-2.51 -3.036,-4.97 -4.652,-7.39 -1.617,-2.42 -3.298,-4.79 -5.042,-7.12 -1.744,-2.33 -3.549,-4.61 -5.415,-6.85 -1.866,-2.23 -3.791,-4.41 -5.774,-6.54 -1.983,-2.13 -4.022,-4.21 -6.116,-6.23 -2.094,-2.02 -4.242,-3.98 -6.441,-5.89 0,0 -106.742,123.19 -106.742,123.19"
         id="path3737"
         inkscape:connector-curvature="0"
         style="fill:#abdda4;stroke:#000000;stroke-width:0.5" />
      <path
         d="m 657,-1835 c 0,0 106.742,-123.19 106.742,-123.19 -2.199,-1.9 -4.448,-3.75 -6.746,-5.53 -2.298,-1.79 -4.643,-3.51 -7.033,-5.17 -2.391,-1.66 -4.825,-3.26 -7.3,-4.79 -2.476,-1.52 -4.992,-2.99 -7.545,-4.38 -2.554,-1.4 -5.145,-2.72 -7.77,-3.98 -2.624,-1.25 -5.282,-2.44 -7.971,-3.55 -2.688,-1.12 -5.405,-2.16 -8.149,-3.13 -2.744,-0.96 -5.514,-1.86 -8.306,-2.68 0,0 -45.922,156.4 -45.922,156.4"
         id="path3739"
         inkscape:connector-curvature="0"
         style="fill:#2b83ba;stroke:#000000;stroke-width:0.5" />
      <path
         d="m 657,-1835 c 0,0 45.922,-156.4 45.922,-156.4 -2.326,-0.68 -4.668,-1.31 -7.022,-1.89 -2.355,-0.58 -4.722,-1.1 -7.1,-1.58 -2.378,-0.47 -4.767,-0.89 -7.164,-1.26 -2.397,-0.36 -4.801,-0.68 -7.212,-0.94 -2.411,-0.26 -4.827,-0.46 -7.247,-0.61 -2.42,-0.15 -4.843,-0.25 -7.268,-0.29 -2.424,-0.05 -4.849,-0.04 -7.273,0.03 -2.424,0.06 -4.846,0.18 -7.264,0.36 -2.419,0.17 -4.833,0.4 -7.242,0.68 -2.408,0.28 -4.81,0.61 -7.203,1 -2.394,0.39 -4.778,0.83 -7.152,1.32 -2.374,0.5 -4.737,1.04 -7.086,1.64 -2.349,0.6 -4.685,1.25 -7.005,1.96 -2.321,0.7 -4.625,1.46 -6.912,2.26 -2.286,0.81 -4.555,1.67 -6.803,2.58 -2.248,0.9 -4.476,1.86 -6.682,2.87 0,0 67.713,148.27 67.713,148.27"
         id="path3741"
         inkscape:connector-curvature="0"
         style="fill:#fdae61;stroke:#000000;stroke-width:0.5" />
      <path
         d="m 657,-1835 c 0,0 -67.713,-148.27 -67.713,-148.27 -3.308,1.51 -6.565,3.13 -9.765,4.86 -3.201,1.73 -6.342,3.57 -9.419,5.5 -3.077,1.94 -6.089,3.99 -9.03,6.13 -2.94,2.14 -5.809,4.37 -8.6,6.71 -2.79,2.33 -5.503,4.75 -8.131,7.27 -2.629,2.51 -5.173,5.11 -7.627,7.8 -2.455,2.68 -4.819,5.45 -7.089,8.29 -2.269,2.84 -4.443,5.76 -6.518,8.75 -2.074,2.99 -4.048,6.04 -5.918,9.16 -1.87,3.12 -3.635,6.3 -5.292,9.54 -1.657,3.24 -3.205,6.53 -4.642,9.87 -1.437,3.34 -2.761,6.73 -3.971,10.16 -1.21,3.43 -2.305,6.9 -3.283,10.41 -0.978,3.5 -1.838,7.03 -2.58,10.59 -0.741,3.57 -1.363,7.15 -1.865,10.75 -0.501,3.61 -0.882,7.22 -1.142,10.85 -0.259,3.63 -0.397,7.27 -0.413,10.9 -0.017,3.64 0.089,7.28 0.316,10.91 0.227,3.63 0.576,7.25 1.045,10.86 0.469,3.6 1.059,7.19 1.769,10.76 0.71,3.57 1.538,7.11 2.485,10.62 0.947,3.51 2.011,6.99 3.19,10.43 1.179,3.44 2.474,6.84 3.88,10.2 1.407,3.35 2.926,6.66 4.554,9.91 1.628,3.25 3.365,6.45 5.207,9.59 1.842,3.13 3.788,6.21 5.836,9.21 2.048,3.01 4.195,5.95 6.44,8.81 2.244,2.86 4.583,5.65 7.014,8.35 2.43,2.71 4.951,5.33 7.557,7.87 2.606,2.54 5.296,4.99 8.066,7.34 2.77,2.36 5.619,4.63 8.54,6.79 2.921,2.17 5.915,4.24 8.975,6.2 3.059,1.97 6.184,3.83 9.369,5.59 3.184,1.76 6.427,3.41 9.722,4.95 3.295,1.54 6.64,2.97 10.031,4.29 3.391,1.31 6.824,2.52 10.295,3.6 3.471,1.09 6.978,2.06 10.514,2.91 3.536,0.85 7.1,1.59 10.685,2.2 3.585,0.62 7.189,1.11 10.807,1.48 3.619,0.37 7.248,0.63 10.883,0.76 3.635,0.13 7.273,0.13 10.909,0.02 3.635,-0.11 7.266,-0.35 10.886,-0.7 3.62,-0.36 7.226,-0.84 10.814,-1.44 3.588,-0.59 7.155,-1.31 10.695,-2.15 3.539,-0.84 7.05,-1.79 10.526,-2.86 3.476,-1.07 6.915,-2.26 10.311,-3.56 3.397,-1.3 6.749,-2.72 10.051,-4.24 3.301,-1.53 6.551,-3.17 9.744,-4.91 3.192,-1.74 6.325,-3.59 9.394,-5.54 3.068,-1.96 6.071,-4.01 9.002,-6.17 2.931,-2.15 5.789,-4.4 8.57,-6.74 2.78,-2.35 5.481,-4.79 8.099,-7.31 2.617,-2.53 5.149,-5.14 7.592,-7.84 2.443,-2.69 4.794,-5.47 7.051,-8.32 2.257,-2.85 4.418,-5.78 6.479,-8.78 2.061,-2.99 4.021,-6.06 5.877,-9.19 1.856,-3.12 3.607,-6.31 5.25,-9.56 1.642,-3.24 3.176,-6.54 4.598,-9.89 1.422,-3.35 2.731,-6.74 3.926,-10.18 1.194,-3.43 2.274,-6.91 3.236,-10.42 0.962,-3.5 1.807,-7.04 2.533,-10.61 0.725,-3.56 1.331,-7.15 1.817,-10.75 0.485,-3.61 0.85,-7.23 1.093,-10.86 0.243,-3.63 0.365,-7.26 0.365,-10.9 0,0 -163,0 -163,0"
         id="path3743"
         inkscape:connector-curvature="0"
         style="fill:#d7191c;stroke:#000000;stroke-width:0.5" />
      <ellipse
         cx="657"
         cy="-1835"
         rx="163"
         ry="163"
         id="ellipse3745"
         d="m 820,-1835 c 0,90.0224 -72.97759,163 -163,163 -90.02241,0 -163,-72.9776 -163,-163 0,-90.0224 72.97759,-163 163,-163 90.02241,0 163,72.9776 163,163 z"
         sodipodi:cx="657"
         sodipodi:cy="-1835"
         sodipodi:rx="163"
         sodipodi:ry="163"
         style="fill:none;stroke:#000000" />
    </g>
    <!-- 1&#45;&gt;3 -->
    <g
       id="edge2"
       class="edge">
      <title
         id="title3748">1-&gt;3</title>
      <path
         d="m 724.169,-2040.59 c -4.414,13.45 -8.946,27.25 -13.471,41.03"
         id="path3750"
         inkscape:connector-curvature="0"
         style="fill:none;stroke:#000000;stroke-width:3.46667004" />
      <polygon
         points="714.013,-1998.44 707.569,-1990.03 707.363,-2000.62 714.013,-1998.44 "
         id="polygon3752"
         style="fill:#000000;stroke:#000000;stroke-width:3.46667004" />
    </g>
    <!-- 4 -->
    <g
       id="node4"
       class="node">
      <title
         id="title3755">4</title>
      <ellipse
         cx="671"
         cy="-891"
         rx="88.25"
         ry="88.5"
         id="ellipse3757"
         d="m 759.25,-891 c 0,48.8772 -39.51087,88.5 -88.25,88.5 -48.73913,0 -88.25,-39.6228 -88.25,-88.5 0,-48.8772 39.51087,-88.5 88.25,-88.5 48.73913,0 88.25,39.6228 88.25,88.5 z"
         sodipodi:cx="671"
         sodipodi:cy="-891"
         sodipodi:rx="88.25"
         sodipodi:ry="88.5"
         style="fill:#fdae61;stroke:#000000" />
    </g>
    <!-- 1&#45;&gt;4 -->
    <g
       id="edge3"
       class="edge">
      <title
         id="title3760">1-&gt;4</title>
      <path
         d="m 822.819,-2046.37 c 6.184,15.9 11.541,32.27 15.181,48.37 84.108,372.06 -64.064,823.42 -133.842,1014.019"
         id="path3762"
         inkscape:connector-curvature="0"
         style="fill:none;stroke:#000000;stroke-width:3.53332996" />
      <polygon
         points="707.427,-982.731 700.692,-974.553 700.857,-985.146 707.427,-982.731 "
         id="polygon3764"
         style="fill:#000000;stroke:#000000;stroke-width:3.53332996" />
    </g>
    <!-- 5 -->
    <g
       id="node5"
       class="node">
      <title
         id="title3767">5</title>
      <path
         d="m 251,-1571 c 0,0 65,0 65,0 0,-2.43 -0.136,-4.86 -0.409,-7.28 -0.272,-2.41 -0.68,-4.81 -1.221,-7.18 -0.541,-2.37 -1.214,-4.71 -2.018,-7.01 -0.803,-2.29 -1.734,-4.54 -2.789,-6.73 -1.055,-2.19 -2.232,-4.32 -3.526,-6.38 -1.294,-2.06 -2.702,-4.05 -4.218,-5.95 -1.516,-1.9 -3.138,-3.71 -4.857,-5.43 -1.719,-1.72 -3.534,-3.34 -5.435,-4.86 -1.901,-1.52 -3.886,-2.92 -5.945,-4.22 -2.059,-1.29 -4.189,-2.47 -6.38,-3.52 -2.19,-1.06 -4.439,-1.99 -6.734,-2.79 -2.295,-0.81 -4.633,-1.48 -7.004,-2.02 -2.371,-0.54 -4.77,-0.95 -7.186,-1.22 -2.417,-0.27 -4.846,-0.41 -7.278,-0.41 -2.432,0 -4.861,0.14 -7.278,0.41 -2.416,0.27 -4.815,0.68 -7.186,1.22 0,0 14.464,63.37 14.464,63.37"
         id="path3769"
         inkscape:connector-curvature="0"
         style="fill:#fdae61;stroke:#000000;stroke-width:0.5" />
      <path
         d="m 251,-1571 c 0,0 -14.464,-63.37 -14.464,-63.37 -1.481,0.34 -2.95,0.73 -4.405,1.17 -1.454,0.44 -2.892,0.93 -4.311,1.47 -1.42,0.55 -2.82,1.14 -4.198,1.78 -1.379,0.64 -2.734,1.33 -4.064,2.06 -1.33,0.74 -2.633,1.52 -3.909,2.34 -1.275,0.83 -2.52,1.7 -3.735,2.61 -1.214,0.92 -2.395,1.87 -3.543,2.87 -1.147,1 -2.258,2.03 -3.333,3.11 -1.074,1.07 -2.111,2.18 -3.107,3.33 -0.997,1.15 -1.953,2.33 -2.867,3.54 -0.913,1.22 -1.784,2.46 -2.611,3.74 -0.826,1.27 -1.608,2.58 -2.343,3.91 -0.735,1.33 -1.423,2.68 -2.063,4.06 -0.64,1.38 -1.231,2.78 -1.773,4.2 -0.542,1.42 -1.034,2.86 -1.475,4.31 -0.441,1.46 -0.831,2.92 -1.169,4.41 -0.338,1.48 -0.625,2.97 -0.858,4.47 -0.234,1.5 -0.414,3.01 -0.542,4.53 -0.128,1.51 -0.202,3.03 -0.224,4.55 -0.021,1.52 0.011,3.04 0.096,4.55 0.085,1.52 0.224,3.04 0.415,4.54 0.191,1.51 0.436,3.01 0.732,4.5 0.296,1.49 0.645,2.97 1.045,4.44 0.4,1.46 0.852,2.91 1.354,4.35 0.501,1.43 1.053,2.85 1.655,4.24 0.601,1.4 1.251,2.77 1.948,4.12 0.697,1.35 1.442,2.68 2.232,3.98 0.791,1.29 1.626,2.56 2.506,3.8 0.879,1.24 1.801,2.45 2.765,3.63 0.964,1.17 1.969,2.31 3.013,3.41 1.044,1.11 2.126,2.18 3.245,3.2 1.119,1.03 2.273,2.02 3.461,2.97 1.188,0.95 2.409,1.85 3.661,2.71 1.251,0.87 2.532,1.68 3.841,2.46 1.309,0.77 2.644,1.49 4.004,2.17 1.36,0.68 2.743,1.31 4.147,1.89 1.403,0.58 2.827,1.12 4.268,1.6 1.442,0.48 2.899,0.91 4.371,1.29 1.471,0.38 2.955,0.71 4.449,0.98 1.495,0.28 2.998,0.5 4.508,0.67 1.51,0.17 3.026,0.29 4.544,0.35 1.518,0.07 3.038,0.08 4.557,0.03 1.519,-0.04 3.036,-0.13 4.548,-0.28 1.512,-0.15 3.019,-0.35 4.517,-0.61 1.498,-0.25 2.987,-0.56 4.463,-0.92 1.477,-0.36 2.94,-0.77 4.388,-1.23 1.448,-0.46 2.879,-0.97 4.291,-1.53 1.412,-0.57 2.803,-1.18 4.172,-1.84 1.369,-0.66 2.715,-1.36 4.034,-2.12 1.32,-0.75 2.613,-1.55 3.876,-2.39 1.264,-0.85 2.497,-1.74 3.698,-2.67 1.201,-0.93 2.37,-1.9 3.503,-2.91 1.133,-1.02 2.23,-2.07 3.289,-3.16 1.059,-1.09 2.08,-2.21 3.06,-3.37 0.981,-1.16 1.92,-2.36 2.817,-3.59 0.896,-1.22 1.75,-2.48 2.558,-3.77 0.809,-1.28 1.572,-2.6 2.288,-3.94 0.716,-1.34 1.385,-2.7 2.006,-4.09 0.621,-1.39 1.192,-2.8 1.714,-4.22 0.522,-1.43 0.994,-2.88 1.415,-4.34 0.42,-1.46 0.79,-2.93 1.107,-4.42 0.317,-1.48 0.582,-2.98 0.795,-4.48 0.212,-1.51 0.372,-3.02 0.478,-4.54 0.107,-1.51 0.16,-3.03 0.16,-4.55 0,0 -65,0 -65,0"
         id="path3771"
         inkscape:connector-curvature="0"
         style="fill:#d7191c;stroke:#000000;stroke-width:0.5" />
      <ellipse
         cx="251"
         cy="-1571"
         rx="65"
         ry="65"
         id="ellipse3773"
         d="m 316,-1571 c 0,35.8985 -29.10149,65 -65,65 -35.89851,0 -65,-29.1015 -65,-65 0,-35.8985 29.10149,-65 65,-65 35.89851,0 65,29.1015 65,65 z"
         sodipodi:cx="251"
         sodipodi:cy="-1571"
         sodipodi:rx="65"
         sodipodi:ry="65"
         style="fill:none;stroke:#000000" />
    </g>
    <!-- 1&#45;&gt;5 -->
    <g
       id="edge4"
       class="edge">
      <title
         id="title3776">1-&gt;5</title>
      <path
         d="m 633.759,-2141.55 c -85.722,23.73 -193.549,67.03 -260.759,143.55 -87.594,99.72 -112.533,258.52 -119.484,351.48"
         id="path3778"
         inkscape:connector-curvature="0"
         style="fill:none;stroke:#000000;stroke-width:3.53332996" />
      <polygon
         points="256.994,-1646.09 252.807,-1636.35 250.011,-1646.57 256.994,-1646.09 "
         id="polygon3780"
         style="fill:#000000;stroke:#000000;stroke-width:3.53332996" />
    </g>
    <!-- 6 -->
    <g
       id="node6"
       class="node">
      <title
         id="title3783">6</title>
      <ellipse
         cx="375"
         cy="-1374"
         rx="95.25"
         ry="95.5"
         id="ellipse3785"
         d="m 470.25,-1374 c 0,52.7432 -42.64488,95.5 -95.25,95.5 -52.60512,0 -95.25,-42.7568 -95.25,-95.5 0,-52.7432 42.64488,-95.5 95.25,-95.5 52.60512,0 95.25,42.7568 95.25,95.5 z"
         sodipodi:cx="375"
         sodipodi:cy="-1374"
         sodipodi:rx="95.25"
         sodipodi:ry="95.5"
         style="fill:#fdae61;stroke:#000000" />
    </g>
    <!-- 1&#45;&gt;6 -->
    <g
       id="edge5"
       class="edge">
      <title
         id="title3788">1-&gt;6</title>
      <path
         d="m 636.598,-2129.82 c -65.946,26.29 -141.185,68.2 -184.598,131.82 -106.562,156.17 -104.059,386.78 -91.373,519.22"
         id="path3790"
         inkscape:connector-curvature="0"
         style="fill:none;stroke:#000000;stroke-width:4.86667013" />
      <polygon
         points="364.884,-1479.01 361.638,-1468.64 356.409,-1478.17 364.884,-1479.01 "
         id="polygon3792"
         style="fill:#000000;stroke:#000000;stroke-width:4.86667013" />
    </g>
    <!-- 7 -->
    <g
       id="node7"
       class="node">
      <title
         id="title3795">7</title>
      <path
         d="m 579,-386 c 0,0 145.25,0 145.25,0 0,-2.177 -0.049,-4.354 -0.146,-6.529 -0.098,-2.175 -0.244,-4.347 -0.439,-6.515 -0.195,-2.169 -0.438,-4.332 -0.73,-6.489 -0.292,-2.158 -0.632,-4.308 -1.02,-6.45 -0.388,-2.142 -0.824,-4.276 -1.308,-6.398 -0.483,-2.122 -1.015,-4.234 -1.593,-6.332 -0.578,-2.099 -1.203,-4.184 -1.875,-6.255 -0.672,-2.07 -1.39,-4.125 -2.153,-6.163 -0.764,-2.039 -1.573,-4.059 -2.428,-6.061 -0.854,-2.002 -1.753,-3.984 -2.696,-5.946 -0.943,-1.961 -1.93,-3.901 -2.96,-5.818 -1.03,-1.917 -2.103,-3.811 -3.218,-5.68 -1.114,-1.869 -2.271,-3.712 -3.468,-5.529 -1.198,-1.817 -2.436,-3.606 -3.713,-5.367 -1.278,-1.762 -2.595,-3.494 -3.95,-5.196 -1.355,-1.702 -2.748,-3.373 -4.178,-5.012 -1.43,-1.64 -2.897,-3.247 -4.399,-4.82 -1.502,-1.574 -3.039,-3.113 -4.61,-4.617 -1.571,-1.505 -3.176,-2.973 -4.813,-4.406 -1.637,-1.432 -3.305,-2.827 -5.005,-4.184 -1.699,-1.357 -3.428,-2.676 -5.187,-3.956 -1.758,-1.279 -3.545,-2.519 -5.359,-3.718 -1.814,-1.199 -3.655,-2.357 -5.52,-3.473 -1.866,-1.117 -3.757,-2.191 -5.671,-3.222 -1.914,-1.032 -3.851,-2.02 -5.809,-2.964 -1.958,-0.945 -3.937,-1.845 -5.936,-2.7 -1.998,-0.855 -4.016,-1.666 -6.051,-2.43 -2.034,-0.765 -4.086,-1.484 -6.153,-2.156 -2.067,-0.673 -4.149,-1.298 -6.244,-1.877 -2.095,-0.579 -4.203,-1.111 -6.322,-1.595 -2.119,-0.484 -4.248,-0.92 -6.387,-1.309 -2.138,-0.388 -4.285,-0.728 -6.439,-1.02 -2.154,-0.292 -4.314,-0.535 -6.478,-0.73 -2.165,-0.195 -4.333,-0.341 -6.505,-0.438 -2.171,-0.097 -4.344,-0.145 -6.517,-0.145 -2.173,0 -4.346,0.05 -6.518,0.148 -2.171,0.098 -4.339,0.245 -6.504,0.441 -2.164,0.195 -4.324,0.439 -6.478,0.732 -2.153,0.293 -4.3,0.634 -6.438,1.023 -2.139,0.389 -4.268,0.827 -6.387,1.312 -2.118,0.485 -4.226,1.017 -6.321,1.597 -2.095,0.579 -4.176,1.206 -6.243,1.879 -2.067,0.674 -4.118,1.393 -6.153,2.159 -2.034,0.765 -4.051,1.576 -6.05,2.433 -1.998,0.856 -3.977,1.757 -5.934,2.702 -1.958,0.945 -3.895,1.934 -5.808,2.966 -1.914,1.032 -3.804,2.107 -5.669,3.224 -1.866,1.118 -3.706,2.276 -5.519,3.476 -1.814,1.2 -3.6,2.441 -5.358,3.721 -1.758,1.28 -3.487,2.599 -5.185,3.957 -1.699,1.358 -3.367,2.754 -5.004,4.187 -1.636,1.433 -3.24,2.902 -4.81,4.407 -1.571,1.505 -3.107,3.045 -4.608,4.619 -1.502,1.574 -2.968,3.182 -4.397,4.822 -1.43,1.64 -2.822,3.312 -4.176,5.014 -1.355,1.703 -2.671,3.436 -3.948,5.197 -1.277,1.762 -2.514,3.552 -3.711,5.369 -1.196,1.818 -2.352,3.662 -3.466,5.531 -1.114,1.869 -2.186,3.763 -3.216,5.681 -1.029,1.917 -2.015,3.858 -2.957,5.819 -0.942,1.962 -1.841,3.945 -2.694,5.947 -0.853,2.002 -1.662,4.023 -2.425,6.062 -0.763,2.038 -1.48,4.094 -2.151,6.165 -0.67,2.07 -1.295,4.156 -1.872,6.255 -0.578,2.099 -1.108,4.21 -1.591,6.333 -0.482,2.122 -0.918,4.256 -1.305,6.398 -0.387,2.142 -0.726,4.293 -1.017,6.45 -0.291,2.158 -0.534,4.321 -0.727,6.49 -0.194,2.168 -0.34,4.341 -0.436,6.515 -0.097,2.175 -0.145,4.352 -0.144,6.529 10e-4,2.177 0.051,4.354 0.149,6.529 0.098,2.175 0.246,4.347 0.441,6.515 0.196,2.168 0.44,4.332 0.733,6.489 0.293,2.157 0.634,4.308 1.023,6.45 0.389,2.142 0.826,4.274 1.31,6.397 0.485,2.122 1.017,4.233 1.596,6.331 0.579,2.099 1.205,4.184 1.877,6.254 0.673,2.07 1.392,4.125 2.156,6.163 0.765,2.038 1.575,4.058 2.43,6.06 0.855,2.001 1.755,3.983 2.699,5.944 0.944,1.961 1.932,3.901 2.962,5.817 1.031,1.917 2.105,3.81 3.22,5.678 1.116,1.869 2.273,3.712 3.472,5.528 1.198,1.816 2.436,3.606 3.715,5.366 1.278,1.761 2.596,3.493 3.952,5.194 1.355,1.701 2.749,3.372 4.18,5.011 1.431,1.639 2.898,3.245 4.401,4.818 1.502,1.572 3.04,3.111 4.612,4.615 1.571,1.504 3.177,2.972 4.814,4.403 1.637,1.432 3.307,2.826 5.007,4.183 1.699,1.356 3.43,2.674 5.188,3.953 1.759,1.279 3.547,2.518 5.361,3.716 1.815,1.198 3.656,2.356 5.522,3.471 1.866,1.116 3.757,2.189 5.672,3.22 1.914,1.031 3.851,2.018 5.81,2.961 1.959,0.944 3.938,1.843 5.937,2.698 1.999,0.854 4.017,1.664 6.052,2.427 2.035,0.764 4.087,1.482 6.154,2.154 2.068,0.671 4.15,1.296 6.245,1.874 2.095,0.578 4.203,1.109 6.323,1.592 2.119,0.483 4.248,0.919 6.387,1.306 2.139,0.388 4.286,0.727 6.439,1.018 2.154,0.291 4.314,0.533 6.479,0.727 2.165,0.194 4.333,0.339 6.505,0.435 2.171,0.097 4.344,0.144 6.517,0.143 2.173,-0.001 4.347,-0.052 6.518,-0.151 2.171,-0.099 4.339,-0.247 6.504,-0.443 2.164,-0.197 4.324,-0.442 6.477,-0.735 2.154,-0.294 4.3,-0.636 6.438,-1.026 2.139,-0.39 4.268,-0.828 6.386,-1.314 2.119,-0.486 4.226,-1.019 6.321,-1.6 2.094,-0.58 4.176,-1.208 6.242,-1.882 2.067,-0.674 4.118,-1.395 6.152,-2.161 2.034,-0.766 4.051,-1.578 6.049,-2.435 1.998,-0.857 3.976,-1.759 5.934,-2.705 1.957,-0.946 3.893,-1.936 5.806,-2.969 1.913,-1.033 3.803,-2.108 5.668,-3.226 1.865,-1.118 3.704,-2.278 5.517,-3.479 1.813,-1.2 3.599,-2.441 5.356,-3.722 1.758,-1.281 3.486,-2.601 5.184,-3.96 1.699,-1.358 3.366,-2.755 5.002,-4.189 1.635,-1.433 3.239,-2.903 4.809,-4.409 1.569,-1.506 3.105,-3.046 4.606,-4.621 1.501,-1.575 2.966,-3.183 4.395,-4.823 1.428,-1.641 2.82,-3.313 4.174,-5.016 1.354,-1.703 2.669,-3.437 3.945,-5.199 1.276,-1.762 2.513,-3.553 3.709,-5.371 1.196,-1.818 2.351,-3.662 3.464,-5.532 C 703.746,-311.468 579,-386 579,-386"
         id="path3797"
         inkscape:connector-curvature="0"
         style="fill:#fdae61;stroke:#000000;stroke-width:0.5" />
      <path
         d="m 579,-386 c 0,0 124.746,74.532 124.746,74.532 1.667,-2.8 3.24,-5.656 4.716,-8.562 1.476,-2.907 2.854,-5.862 4.132,-8.861 1.277,-2.999 2.454,-6.04 3.528,-9.118 1.073,-3.079 2.043,-6.192 2.908,-9.336 0.865,-3.143 1.624,-6.315 2.276,-9.51 0.652,-3.194 1.197,-6.41 1.633,-9.641 0.436,-3.232 0.764,-6.477 0.983,-9.73 0.219,-3.253 0.328,-6.513 0.328,-9.774 0,0 -145.25,0 -145.25,0"
         id="path3799"
         inkscape:connector-curvature="0"
         style="fill:#d7191c;stroke:#000000;stroke-width:0.5" />
      <ellipse
         cx="579"
         cy="-386"
         rx="145.25"
         ry="145.5"
         id="ellipse3801"
         d="m 724.25,-386 c 0,80.35743 -65.03064,145.5 -145.25,145.5 -80.21936,0 -145.25,-65.14257 -145.25,-145.5 0,-80.35743 65.03064,-145.5 145.25,-145.5 80.21936,0 145.25,65.14257 145.25,145.5 z"
         sodipodi:cx="579"
         sodipodi:cy="-386"
         sodipodi:rx="145.25"
         sodipodi:ry="145.5"
         style="fill:none;stroke:#000000" />
    </g>
    <!-- 1&#45;&gt;7 -->
    <g
       id="edge6"
       class="edge">
      <title
         id="title3804">1-&gt;7</title>
      <path
         d="m 865.635,-2077.19 c 19.746,23.66 37.665,50.6 48.365,79.19 28.939,77.31 19.937,695.25 -15,982 -24.673,202.514 6.805,274.18 -100,448 -22.713,36.964 -55.691,69.848 -89.232,97.108"
         id="path3806"
         inkscape:connector-curvature="0"
         style="fill:none;stroke:#000000;stroke-width:4.13332987" />
      <polygon
         points="711.767,-467.86 701.696,-464.446 707.253,-473.512 711.767,-467.86 "
         id="polygon3808"
         style="fill:#000000;stroke:#000000;stroke-width:4.13332987" />
    </g>
    <!-- 8 -->
    <g
       id="node8"
       class="node">
      <title
         id="title3811">8</title>
      <ellipse
         cx="110"
         cy="-386"
         rx="98.25"
         ry="98.5"
         id="ellipse3813"
         d="m 208.25,-386 c 0,54.40005 -43.98802,98.5 -98.25,98.5 -54.261977,0 -98.25,-44.09995 -98.25,-98.5 0,-54.40005 43.988023,-98.5 98.25,-98.5 54.26198,0 98.25,44.09995 98.25,98.5 z"
         sodipodi:cx="110"
         sodipodi:cy="-386"
         sodipodi:rx="98.25"
         sodipodi:ry="98.5"
         style="fill:#fdae61;stroke:#000000" />
    </g>
    <!-- 1&#45;&gt;8 -->
    <g
       id="edge7"
       class="edge">
      <title
         id="title3816">1-&gt;8</title>
      <path
         d="m 632.216,-2150.23 c -111.492,20.6 -269.281,63.8 -379.216,152.23 -171.581,138.02 -253,205.79 -253,426 0,0 0,0 0,682 0,144.759 14.8664,181.323 49,322 6.344,26.146 14.794,53.899 23.3778,79.616"
         id="path3818"
         inkscape:connector-curvature="0"
         style="fill:none;stroke:#000000;stroke-width:5.26667023" />
      <polygon
         points="76.8364,-489.585 75.6701,-478.636 68.1043,-486.636 76.8364,-489.585 "
         id="polygon3820"
         style="fill:#000000;stroke:#000000;stroke-width:5.26667023" />
    </g>
    <!-- 9 -->
    <g
       id="node9"
       class="node">
      <title
         id="title3823">9</title>
      <ellipse
         cx="752"
         cy="-102"
         rx="101.25"
         ry="101.5"
         id="ellipse3825"
         d="m 853.25,-102 c 0,56.056902 -45.33117,101.5 -101.25,101.5 -55.91883,0 -101.25,-45.443098 -101.25,-101.5 0,-56.0569 45.33117,-101.5 101.25,-101.5 55.91883,0 101.25,45.4431 101.25,101.5 z"
         sodipodi:cx="752"
         sodipodi:cy="-102"
         sodipodi:rx="101.25"
         sodipodi:ry="101.5"
         style="fill:#d7191c;stroke:#000000" />
    </g>
    <!-- 1&#45;&gt;9 -->
    <g
       id="edge8"
       class="edge">
      <title
         id="title3828">1-&gt;9</title>
      <path
         d="m 871.593,-2084.35 c 25.227,25.13 49.442,54.55 65.407,86.35 85.81,170.93 61,234.74 61,426 0,0 0,0 0,906 0,193.888 3.55,258.44 -94,426 -15.725,27.011 -38.594,51.637 -61.84,72.327"
         id="path3830"
         inkscape:connector-curvature="0"
         style="fill:none;stroke:#000000;stroke-width:3.73333001" />
      <polygon
         points="844.448,-165.024 834.609,-161.095 839.851,-170.303 844.448,-165.024 "
         id="polygon3832"
         style="fill:#000000;stroke:#000000;stroke-width:3.73333001" />
    </g>
    <!-- 10 -->
    <g
       id="node10"
       class="node">
      <title
         id="title3835">10</title>
      <ellipse
         cx="517"
         cy="-1129"
         rx="113"
         ry="113"
         id="ellipse3837"
         d="m 630,-1129 c 0,62.4082 -50.59182,113 -113,113 -62.40818,0 -113,-50.5918 -113,-113 0,-62.4082 50.59182,-113 113,-113 62.40818,0 113,50.5918 113,113 z"
         sodipodi:cx="517"
         sodipodi:cy="-1129"
         sodipodi:rx="113"
         sodipodi:ry="113"
         style="fill:#d7191c;stroke:#000000" />
    </g>
    <!-- 1&#45;&gt;10 -->
    <g
       id="edge9"
       class="edge">
      <title
         id="title3840">1-&gt;10</title>
      <path
         d="m 638.239,-2124.32 c -57.649,26.84 -120.127,67.59 -153.239,126.32 -115.276,204.47 -1.852,293.68 12,528 4.264,72.14 9.015,152.89 12.816,217.58"
         id="path3842"
         inkscape:connector-curvature="0"
         style="fill:none;stroke:#000000;stroke-width:3.5999999" />
      <polygon
         points="513.325,-1252.36 510.418,-1242.17 506.337,-1251.95 513.325,-1252.36 "
         id="polygon3844"
         style="fill:#000000;stroke:#000000;stroke-width:3.5999999" />
    </g>
    <!-- 2 -->
    <g
       id="node2"
       class="node">
      <title
         id="title3847">2</title>
      <path
         d="m 579,-667 c 0,0 98.25,0 98.25,0 0,-2.416 -0.089,-4.831 -0.266,-7.241 -0.177,-2.409 -0.442,-4.811 -0.796,-7.201 -0.353,-2.39 -0.794,-4.766 -1.322,-7.123 -0.527,-2.358 -1.141,-4.695 -1.84,-7.007 -0.699,-2.312 -1.483,-4.597 -2.35,-6.852 -0.866,-2.254 -1.815,-4.476 -2.845,-6.66 -1.029,-2.185 -2.139,-4.33 -3.326,-6.433 -1.187,-2.102 -2.451,-4.16 -3.789,-6.17 -1.338,-2.009 -2.749,-3.969 -4.23,-5.874 -1.482,-1.905 -3.033,-3.755 -4.65,-5.547 -1.618,-1.791 -3.3,-3.521 -5.045,-5.188 -1.744,-1.667 -3.549,-3.269 -5.411,-4.803 -1.861,-1.534 -3.779,-2.999 -5.748,-4.392 -1.969,-1.392 -3.989,-2.712 -6.055,-3.955 -2.066,-1.244 -4.177,-2.411 -6.329,-3.499 -2.151,-1.088 -4.342,-2.097 -6.568,-3.023 0,0 -37.68,90.968 -37.68,90.968"
         id="path3849"
         inkscape:connector-curvature="0"
         style="fill:#abdda4;stroke:#000000;stroke-width:0.5" />
      <path
         d="m 579,-667 c 0,0 37.68,-90.968 37.68,-90.968 -2.042,-0.851 -4.113,-1.632 -6.208,-2.342 -2.096,-0.71 -4.214,-1.349 -6.352,-1.916 -2.139,-0.567 -4.296,-1.062 -6.467,-1.483 -2.172,-0.421 -4.357,-0.768 -6.552,-1.041 -2.195,-0.273 -4.398,-0.472 -6.606,-0.596 -2.209,-0.124 -4.421,-0.173 -6.632,-0.147 -2.212,0.025 -4.422,0.126 -6.627,0.301 -2.205,0.175 -4.403,0.425 -6.591,0.749 -2.188,0.324 -4.365,0.722 -6.526,1.193 -2.161,0.472 -4.306,1.016 -6.431,1.632 -2.124,0.617 -4.228,1.305 -6.306,2.064 -2.078,0.758 -4.13,1.587 -6.153,2.485 -2.022,0.897 -4.014,1.863 -5.971,2.895 -1.958,1.033 -3.88,2.131 -5.763,3.294 -1.884,1.162 -3.728,2.388 -5.529,3.675 -1.801,1.287 -3.558,2.635 -5.268,4.041 -1.71,1.406 -3.373,2.87 -4.984,4.388 -1.612,1.519 -3.172,3.092 -4.678,4.716 -1.506,1.624 -2.956,3.299 -4.35,5.021 -1.393,1.722 -2.727,3.491 -4.001,5.304 -1.274,1.813 -2.487,3.668 -3.636,5.563 -1.149,1.894 -2.234,3.827 -3.253,5.796 -1.019,1.968 -1.971,3.97 -2.855,6.002 -0.884,2.033 -1.7,4.095 -2.445,6.182 -0.745,2.088 -1.42,4.201 -2.023,6.334 -0.603,2.133 -1.134,4.286 -1.592,6.456 -0.458,2.169 -0.843,4.353 -1.154,6.549 -0.312,2.195 -0.549,4.4 -0.711,6.612 -0.163,2.211 -0.251,4.428 -0.264,6.645 -0.014,2.217 0.048,4.434 0.184,6.648 0.135,2.213 0.346,4.421 0.63,6.62 0.285,2.199 0.644,4.388 1.075,6.562 0.432,2.175 0.937,4.335 1.515,6.475 0.577,2.141 1.226,4.261 1.946,6.358 0.72,2.096 1.511,4.168 2.37,6.211 0.86,2.043 1.788,4.057 2.783,6.037 0.995,1.98 2.056,3.926 3.183,5.835 1.126,1.908 2.316,3.778 3.568,5.606 1.252,1.828 2.565,3.613 3.937,5.352 1.372,1.739 2.803,3.432 4.289,5.074 1.486,1.642 3.027,3.234 4.62,4.772 1.593,1.538 3.238,3.021 4.931,4.448 1.693,1.427 3.434,2.796 5.219,4.105 1.785,1.309 3.614,2.557 5.484,3.742 1.869,1.185 3.778,2.307 5.723,3.363 1.944,1.056 3.924,2.046 5.936,2.968 2.011,0.922 4.053,1.776 6.122,2.56 2.069,0.784 4.164,1.497 6.281,2.139 2.117,0.643 4.255,1.213 6.41,1.71 2.156,0.498 4.327,0.922 6.511,1.273 2.184,0.35 4.38,0.627 6.582,0.829 2.203,0.202 4.411,0.329 6.623,0.381 2.211,0.053 4.423,0.031 6.633,-0.067 2.209,-0.097 4.415,-0.269 6.613,-0.515 2.198,-0.247 4.388,-0.568 6.564,-0.962 2.177,-0.395 4.339,-0.863 6.484,-1.404 2.145,-0.541 4.271,-1.154 6.375,-1.839 2.103,-0.685 4.183,-1.441 6.236,-2.266 2.053,-0.826 4.077,-1.721 6.07,-2.683 1.992,-0.963 3.952,-1.992 5.875,-3.088 1.923,-1.095 3.809,-2.255 5.654,-3.477 1.845,-1.223 3.649,-2.508 5.407,-3.853 1.759,-1.345 3.472,-2.749 5.136,-4.209 1.664,-1.461 3.278,-2.978 4.84,-4.548 0,0 -69.561,-69.561 -69.561,-69.561"
         id="path3851"
         inkscape:connector-curvature="0"
         style="fill:#2b83ba;stroke:#000000;stroke-width:0.5" />
      <path
         d="m 579,-667 c 0,0 69.561,69.561 69.561,69.561 1.134,-1.139 2.239,-2.306 3.316,-3.499 1.076,-1.194 2.124,-2.414 3.141,-3.659 1.016,-1.245 2.003,-2.515 2.958,-3.808 0.954,-1.294 1.877,-2.611 2.768,-3.949 0.89,-1.339 1.748,-2.7 2.572,-4.081 0.824,-1.381 1.614,-2.782 2.37,-4.201 0.755,-1.42 1.476,-2.858 2.161,-4.313 0.685,-1.456 1.335,-2.927 1.948,-4.415 0.613,-1.487 1.19,-2.988 1.73,-4.504 0.54,-1.515 1.043,-3.044 1.508,-4.584 0.465,-1.54 0.893,-3.091 1.282,-4.652 0.389,-1.561 0.741,-3.132 1.053,-4.71 0.313,-1.579 0.587,-3.164 0.822,-4.756 0.235,-1.592 0.431,-3.189 0.588,-4.791 0.158,-1.601 0.275,-3.206 0.354,-4.814 0.079,-1.607 0.118,-3.216 0.118,-4.825 0,0 -98.25,0 -98.25,0"
         id="path3853"
         inkscape:connector-curvature="0"
         style="fill:#fdae61;stroke:#000000;stroke-width:0.5" />
      <ellipse
         cx="579"
         cy="-667"
         rx="98.25"
         ry="98.5"
         id="ellipse3855"
         d="m 677.25,-667 c 0,54.40005 -43.98802,98.5 -98.25,98.5 -54.26198,0 -98.25,-44.09995 -98.25,-98.5 0,-54.40005 43.98802,-98.5 98.25,-98.5 54.26198,0 98.25,44.09995 98.25,98.5 z"
         sodipodi:cx="579"
         sodipodi:cy="-667"
         sodipodi:rx="98.25"
         sodipodi:ry="98.5"
         style="fill:none;stroke:#000000" />
    </g>
    <!-- 2&#45;&gt;1 -->
    <g
       id="edge10"
       class="edge">
      <title
         id="title3858">2-&gt;1</title>
      <path
         d="M 669.904,-705.125 C 712.003,-727.04 758.655,-759.017 786,-802 c 169.537,-266.49 75.394,-388.89 97,-704 14.958,-218.15 64.911,-283.19 0,-492 -6.124,-19.7 -15.412,-39.14 -26.13,-57.43"
         id="path3860"
         inkscape:connector-curvature="0"
         style="fill:none;stroke:#000000;stroke-width:3.93333006" />
      <polygon
         points="853.676,-2053.95 851.5,-2064.32 859.667,-2057.57 853.676,-2053.95 "
         id="polygon3862"
         style="fill:#000000;stroke:#000000;stroke-width:3.93333006" />
    </g>
    <!-- 2&#45;&gt;2 -->
    <g
       id="edge11"
       class="edge">
      <title
         id="title3865">2-&gt;2</title>
      <path
         d="m 669.463,-706.037 c 15.11,5.462 25.537,18.475 25.537,39.037 0,16.064 -6.364,27.521 -16.353,34.368"
         id="path3867"
         inkscape:connector-curvature="0"
         style="fill:none;stroke:#000000;stroke-width:4.5999999" />
      <polygon
         points="680.201,-628.907 669.463,-627.963 676.554,-636.083 680.201,-628.907 "
         id="polygon3869"
         style="fill:#000000;stroke:#000000;stroke-width:4.5999999" />
    </g>
    <!-- 2&#45;&gt;3 -->
    <g
       id="edge12"
       class="edge">
      <title
         id="title3872">2-&gt;3</title>
      <path
         d="M 552.572,-761.953 C 539.707,-827.583 534.283,-914.779 573,-980 c 17.056,-28.73 48.629,-7.457 66,-36 32.57,-53.52 28.799,-421.73 23.306,-645.5"
         id="path3874"
         inkscape:connector-curvature="0"
         style="fill:none;stroke:#000000;stroke-width:3.33332992" />
      <polygon
         points="658.802,-1661.63 662.052,-1671.71 665.8,-1661.8 658.802,-1661.63 "
         id="polygon3876"
         style="fill:#000000;stroke:#000000;stroke-width:3.33332992" />
    </g>
    <!-- 2&#45;&gt;4 -->
    <g
       id="edge13"
       class="edge">
      <title
         id="title3879">2-&gt;4</title>
      <path
         d="m 622.021,-755.844 c 5.8,-13.615 11.661,-27.716 17.222,-41.434"
         id="path3881"
         inkscape:connector-curvature="0"
         style="fill:none;stroke:#000000;stroke-width:8.06667042" />
      <polygon
         points="632.756,-800.066 643.04,-806.704 645.85,-794.79 632.756,-800.066 "
         id="polygon3883"
         style="fill:#000000;stroke:#000000;stroke-width:8.06667042" />
    </g>
    <!-- 2&#45;&gt;5 -->
    <g
       id="edge14"
       class="edge">
      <title
         id="title3886">2-&gt;5</title>
      <path
         d="M 493.443,-716.474 C 460.931,-738.74 426.183,-767.84 403,-802 254.671,-1020.56 243.949,-1349.87 247.39,-1495.83"
         id="path3888"
         inkscape:connector-curvature="0"
         style="fill:none;stroke:#000000;stroke-width:3.46667004" />
      <polygon
         points="243.897,-1496.11 247.661,-1506.02 250.894,-1495.93 243.897,-1496.11 "
         id="polygon3890"
         style="fill:#000000;stroke:#000000;stroke-width:3.46667004" />
    </g>
    <!-- 2&#45;&gt;6 -->
    <g
       id="edge15"
       class="edge">
      <title
         id="title3893">2-&gt;6</title>
      <path
         d="M 523.513,-748.488 C 479.939,-816.44 422.23,-918.056 395,-1016 c -22.987,-82.68 -26.979,-180.18 -25.789,-252.37"
         id="path3895"
         inkscape:connector-curvature="0"
         style="fill:none;stroke:#000000;stroke-width:6.19999981" />
      <polygon
         points="363.788,-1268.5 369.412,-1278.39 374.635,-1268.28 363.788,-1268.5 "
         id="polygon3897"
         style="fill:#000000;stroke:#000000;stroke-width:6.19999981" />
    </g>
    <!-- 2&#45;&gt;7 -->
    <g
       id="edge16"
       class="edge">
      <title
         id="title3900">2-&gt;7</title>
      <path
         d="m 579,-568.419 c 0,8.677 0,17.592 0,26.594"
         id="path3902"
         inkscape:connector-curvature="0"
         style="fill:none;stroke:#000000;stroke-width:3.4000001" />
      <polygon
         points="582.5,-541.633 579,-531.633 575.5,-541.633 582.5,-541.633 "
         id="polygon3904"
         style="fill:#000000;stroke:#000000;stroke-width:3.4000001" />
    </g>
    <!-- 2&#45;&gt;8 -->
    <g
       id="edge17"
       class="edge">
      <title
         id="title3907">2-&gt;8</title>
      <path
         d="m 497.264,-611.719 c -22.299,14.47 -46.569,29.912 -69.264,43.719 -74.12,45.094 -159.664,93.589 -223.346,129.022"
         id="path3909"
         inkscape:connector-curvature="0"
         style="fill:none;stroke:#000000;stroke-width:6.53332996" />
      <polygon
         points="207.334,-433.928 195.816,-434.067 201.78,-443.921 207.334,-433.928 "
         id="polygon3911"
         style="fill:#000000;stroke:#000000;stroke-width:6.53332996" />
    </g>
    <!-- 2&#45;&gt;9 -->
    <g
       id="edge18"
       class="edge">
      <title
         id="title3914">2-&gt;9</title>
      <path
         d="m 662.086,-614.213 c 27.568,21.768 55.207,49.655 70.914,82.213 48.318,100.155 46.781,229.237 37.082,319.536"
         id="path3916"
         inkscape:connector-curvature="0"
         style="fill:none;stroke:#000000;stroke-width:3.5999999" />
      <polygon
         points="773.555,-212.022 768.959,-202.476 766.599,-212.804 773.555,-212.022 "
         id="polygon3918"
         style="fill:#000000;stroke:#000000;stroke-width:3.5999999" />
    </g>
    <!-- 2&#45;&gt;10 -->
    <g
       id="edge19"
       class="edge">
      <title
         id="title3921">2-&gt;10</title>
      <path
         d="M 549.974,-761.152 C 546.5,-774.752 543.356,-788.665 541,-802 529.19,-868.834 523.176,-944.369 520.121,-1005.89"
         id="path3923"
         inkscape:connector-curvature="0"
         style="fill:none;stroke:#000000;stroke-width:3.4000001" />
      <polygon
         points="516.618,-1005.87 519.638,-1016.03 523.61,-1006.21 516.618,-1005.87 "
         id="polygon3925"
         style="fill:#000000;stroke:#000000;stroke-width:3.4000001" />
    </g>
    <!-- 3&#45;&gt;3 -->
    <g
       id="edge20"
       class="edge">
      <title
         id="title3928">3-&gt;3</title>
      <path
         d="m 815.549,-1873.8 c 13.812,8.21 22.451,21.14 22.451,38.8 0,13.8 -5.273,24.71 -14.166,32.74"
         id="path3930"
         inkscape:connector-curvature="0"
         style="fill:none;stroke:#000000;stroke-width:3.33332992" />
      <polygon
         points="825.685,-1799.28 815.549,-1796.2 821.55,-1804.93 825.685,-1799.28 "
         id="polygon3932"
         style="fill:#000000;stroke:#000000;stroke-width:3.33332992" />
    </g>
    <!-- 3&#45;&gt;5 -->
    <g
       id="edge21"
       class="edge">
      <title
         id="title3935">3-&gt;5</title>
      <path
         d="m 520.396,-1745.85 c -69.841,45.07 -151.464,97.75 -206.406,133.2"
         id="path3937"
         inkscape:connector-curvature="0"
         style="fill:none;stroke:#000000;stroke-width:3.53332996" />
      <polygon
         points="315.707,-1609.59 305.407,-1607.11 311.911,-1615.47 315.707,-1609.59 "
         id="polygon3939"
         style="fill:#000000;stroke:#000000;stroke-width:3.53332996" />
    </g>
    <!-- 3&#45;&gt;6 -->
    <g
       id="edge22"
       class="edge">
      <title
         id="title3942">3-&gt;6</title>
      <path
         d="m 567.506,-1698.46 c -46.751,74.65 -102.228,165.32 -141.628,231.65"
         id="path3944"
         inkscape:connector-curvature="0"
         style="fill:none;stroke:#000000;stroke-width:3.33332992" />
      <polygon
         points="428.782,-1464.84 420.671,-1458.03 422.76,-1468.41 428.782,-1464.84 "
         id="polygon3946"
         style="fill:#000000;stroke:#000000;stroke-width:3.33332992" />
    </g>
    <!-- 3&#45;&gt;7 -->
    <g
       id="edge23"
       class="edge">
      <title
         id="title3949">3-&gt;7</title>
      <path
         d="m 688.228,-1674.65 c 40.765,202.2 104.659,562.04 88.772,872.65 -5.34,104.409 21.149,139.706 -24,234 -13.904,29.038 -34.476,56.067 -56.661,79.919"
         id="path3951"
         inkscape:connector-curvature="0"
         style="fill:none;stroke:#000000;stroke-width:3.4000001" />
      <polygon
         points="698.832,-485.623 689.408,-480.782 693.756,-490.444 698.832,-485.623 "
         id="polygon3953"
         style="fill:#000000;stroke:#000000;stroke-width:3.4000001" />
    </g>
    <!-- 3&#45;&gt;8 -->
    <g
       id="edge24"
       class="edge">
      <title
         id="title3956">3-&gt;8</title>
      <path
         d="m 497.46,-1800.42 c -104.063,29.12 -237.149,80.19 -329.46,164.42 -95.731,87.35 -130,131.41 -130,261 0,0 0,0 0,485 0,138.831 23.9212,297.557 44.3889,398.945"
         id="path3958"
         inkscape:connector-curvature="0"
         style="fill:none;stroke:#000000;stroke-width:3.33332992" />
      <polygon
         points="85.846,-491.619 84.4211,-481.12 78.988,-490.216 85.846,-491.619 "
         id="polygon3960"
         style="fill:#000000;stroke:#000000;stroke-width:3.33332992" />
    </g>
    <!-- 3&#45;&gt;10 -->
    <g
       id="edge25"
       class="edge">
      <title
         id="title3963">3-&gt;10</title>
      <path
         d="m 619.841,-1676.01 c -27.072,128.61 -62.476,307.48 -84.008,424.94"
         id="path3965"
         inkscape:connector-curvature="0"
         style="fill:none;stroke:#000000;stroke-width:3.33332992" />
      <polygon
         points="539.227,-1250.17 533.987,-1240.96 532.34,-1251.42 539.227,-1250.17 "
         id="polygon3967"
         style="fill:#000000;stroke:#000000;stroke-width:3.33332992" />
    </g>
    <!-- 4&#45;&gt;1 -->
    <g
       id="edge26"
       class="edge">
      <title
         id="title3970">4-&gt;1</title>
      <path
         d="M 708.741,-971.112 C 784.92,-1153.55 942.064,-1617.29 856,-1998 c -3.522,-15.58 -8.65,-31.41 -14.706,-46.82"
         id="path3972"
         inkscape:connector-curvature="0"
         style="fill:none;stroke:#000000;stroke-width:3.46667004" />
      <polygon
         points="837.941,-2043.77 837.41,-2054.35 844.424,-2046.41 837.941,-2043.77 "
         id="polygon3974"
         style="fill:#000000;stroke:#000000;stroke-width:3.46667004" />
    </g>
    <!-- 4&#45;&gt;2 -->
    <g
       id="edge27"
       class="edge">
      <title
         id="title3977">4-&gt;2</title>
      <path
         d="m 631.947,-811.419 c -5.766,13.378 -11.676,27.444 -17.368,41.323"
         id="path3979"
         inkscape:connector-curvature="0"
         style="fill:none;stroke:#000000;stroke-width:4" />
      <polygon
         points="617.695,-768.467 610.679,-760.528 611.213,-771.109 617.695,-768.467 "
         id="polygon3981"
         style="fill:#000000;stroke:#000000;stroke-width:4" />
    </g>
    <!-- 4&#45;&gt;3 -->
    <g
       id="edge28"
       class="edge">
      <title
         id="title3984">4-&gt;3</title>
      <path
         d="m 676.551,-979.365 c 0.601,-12.296 1.115,-24.785 1.449,-36.635 7.769,-275.46 6.512,-344.72 -6,-620 -0.392,-8.63 -0.852,-17.47 -1.361,-26.4"
         id="path3986"
         inkscape:connector-curvature="0"
         style="fill:none;stroke:#000000;stroke-width:3.53332996" />
      <polygon
         points="667.138,-1662.31 670.043,-1672.5 674.126,-1662.73 667.138,-1662.31 "
         id="polygon3988"
         style="fill:#000000;stroke:#000000;stroke-width:3.53332996" />
    </g>
    <!-- 4&#45;&gt;4 -->
    <g
       id="edge29"
       class="edge">
      <title
         id="title3991">4-&gt;4</title>
      <path
         d="M 749.585,-931.398 C 765.56,-926.997 777,-913.531 777,-891 c 0,17.779 -7.122,29.913 -17.976,36.403"
         id="path3993"
         inkscape:connector-curvature="0"
         style="fill:none;stroke:#000000;stroke-width:7.06666994" />
      <polygon
         points="761.205,-848.805 749.585,-850.602 756.384,-860.194 761.205,-848.805 "
         id="polygon3995"
         style="fill:#000000;stroke:#000000;stroke-width:7.06666994" />
    </g>
    <!-- 4&#45;&gt;6 -->
    <g
       id="edge30"
       class="edge">
      <title
         id="title3998">4-&gt;6</title>
      <path
         d="m 685.215,-978.608 c 7.678,-76.042 6.637,-186.252 -46.215,-263.392 -37.384,-54.56 -104.33,-87.43 -161.451,-106.59"
         id="path4000"
         inkscape:connector-curvature="0"
         style="fill:none;stroke:#000000;stroke-width:6.4000001" />
      <polygon
         points="475.52,-1343.36 467.742,-1351.78 478.984,-1354.01 475.52,-1343.36 "
         id="polygon4002"
         style="fill:#000000;stroke:#000000;stroke-width:6.4000001" />
    </g>
    <!-- 4&#45;&gt;7 -->
    <g
       id="edge31"
       class="edge">
      <title
         id="title4005">4-&gt;7</title>
      <path
         d="m 718.556,-816.046 c 8.035,15.925 15.155,33.084 19.444,50.046 21.575,85.314 31.032,115.653 0,198 -10.27,27.252 -26.716,53.07 -45.218,76.217"
         id="path4007"
         inkscape:connector-curvature="0"
         style="fill:none;stroke:#000000;stroke-width:4.4000001" />
      <polygon
         points="695.751,-489.331 686.434,-484.037 689.795,-494.212 695.751,-489.331 "
         id="polygon4009"
         style="fill:#000000;stroke:#000000;stroke-width:4.4000001" />
    </g>
    <!-- 4&#45;&gt;8 -->
    <g
       id="edge32"
       class="edge">
      <title
         id="title4012">4-&gt;8</title>
      <path
         d="m 696.442,-806.212 c 3.136,13.337 5.839,27.069 7.558,40.212 11.412,87.257 58.123,131.926 0,198 -41.435,47.104 -219.713,18.649 -280,36 -76.84,22.116 -158.702,60.457 -219.57,92.16"
         id="path4014"
         inkscape:connector-curvature="0"
         style="fill:none;stroke:#000000;stroke-width:6.80000019" />
      <polygon
         points="206.846,-434.388 195.226,-435.013 201.319,-444.926 206.846,-434.388 "
         id="polygon4016"
         style="fill:#000000;stroke:#000000;stroke-width:6.80000019" />
    </g>
    <!-- 4&#45;&gt;9 -->
    <g
       id="edge33"
       class="edge">
      <title
         id="title4019">4-&gt;9</title>
      <path
         d="m 724.368,-820.425 c 11.464,16.758 22.07,35.362 28.632,54.425 64.057,186.102 38.092,419.345 16.458,553.754"
         id="path4021"
         inkscape:connector-curvature="0"
         style="fill:none;stroke:#000000;stroke-width:3.93333006" />
      <polygon
         points="772.907,-211.649 767.843,-202.343 765.998,-212.776 772.907,-211.649 "
         id="polygon4023"
         style="fill:#000000;stroke:#000000;stroke-width:3.93333006" />
    </g>
    <!-- 4&#45;&gt;10 -->
    <g
       id="edge34"
       class="edge">
      <title
         id="title4026">4-&gt;10</title>
      <path
         d="m 627.574,-968.296 c -12.15,-19.192 -25.672,-40.074 -38.979,-60.214"
         id="path4028"
         inkscape:connector-curvature="0"
         style="fill:none;stroke:#000000;stroke-width:3.5999999" />
      <polygon
         points="585.515,-1026.82 582.909,-1037.09 591.351,-1030.69 585.515,-1026.82 "
         id="polygon4030"
         style="fill:#000000;stroke:#000000;stroke-width:3.5999999" />
    </g>
    <!-- 5&#45;&gt;5 -->
    <g
       id="edge35"
       class="edge">
      <title
         id="title4033">5-&gt;5</title>
      <path
         d="m 304.885,-1607.69 c 16.341,0.92 29.115,13.15 29.115,36.69 0,18.39 -7.796,29.88 -19,34.47"
         id="path4035"
         inkscape:connector-curvature="0"
         style="fill:none;stroke:#000000;stroke-width:3.46667004" />
      <polygon
         points="315.404,-1533.04 304.885,-1534.31 313.898,-1539.87 315.404,-1533.04 "
         id="polygon4037"
         style="fill:#000000;stroke:#000000;stroke-width:3.46667004" />
    </g>
    <!-- 5&#45;&gt;6 -->
    <g
       id="edge36"
       class="edge">
      <title
         id="title4040">5-&gt;6</title>
      <path
         d="m 280.998,-1513.07 c 9.973,16.42 21.437,34.71 32.864,52.47"
         id="path4042"
         inkscape:connector-curvature="0"
         style="fill:none;stroke:#000000;stroke-width:3.46667004" />
      <polygon
         points="316.973,-1462.23 319.462,-1451.94 311.094,-1458.43 316.973,-1462.23 "
         id="polygon4044"
         style="fill:#000000;stroke:#000000;stroke-width:3.46667004" />
    </g>
    <!-- 5&#45;&gt;7 -->
    <g
       id="edge37"
       class="edge">
      <title
         id="title4047">5-&gt;7</title>
      <path
         d="M 238.707,-1507.06 C 215.933,-1340.04 187.443,-877.211 377,-568 c 20.111,32.805 47.724,63.52 76.092,90.002"
         id="path4049"
         inkscape:connector-curvature="0"
         style="fill:none;stroke:#000000;stroke-width:3.5999999" />
      <polygon
         points="455.712,-480.344 460.71,-471.002 450.978,-475.188 455.712,-480.344 "
         id="polygon4051"
         style="fill:#000000;stroke:#000000;stroke-width:3.5999999" />
    </g>
    <!-- 5&#45;&gt;8 -->
    <g
       id="edge38"
       class="edge">
      <title
         id="title4054">5-&gt;8</title>
      <path
         d="m 193.589,-1540.07 c -24.99,17.32 -51.801,41.38 -66.589,70.07 -69.5557,134.95 -33,188.18 -33,340 0,0 0,0 0,240 0,136.363 2.604,293.499 6.677,395.344"
         id="path4056"
         inkscape:connector-curvature="0"
         style="fill:none;stroke:#000000;stroke-width:3.73333001" />
      <polygon
         points="104.187,-494.498 101.102,-484.362 97.1928,-494.209 104.187,-494.498 "
         id="polygon4058"
         style="fill:#000000;stroke:#000000;stroke-width:3.73333001" />
    </g>
    <!-- 6&#45;&gt;3 -->
    <g
       id="edge39"
       class="edge">
      <title
         id="title4061">6-&gt;3</title>
      <path
         d="m 428.371,-1453.36 c 40.294,-63.12 96.326,-153.69 142.859,-230.66"
         id="path4063"
         inkscape:connector-curvature="0"
         style="fill:none;stroke:#000000;stroke-width:3.5999999" />
      <polygon
         points="568.4,-1686.1 576.566,-1692.85 574.392,-1682.48 568.4,-1686.1 "
         id="polygon4065"
         style="fill:#000000;stroke:#000000;stroke-width:3.5999999" />
    </g>
    <!-- 6&#45;&gt;5 -->
    <g
       id="edge40"
       class="edge">
      <title
         id="title4068">6-&gt;5</title>
      <path
         d="m 329.061,-1457.75 c -11.001,-17.56 -22.715,-35.77 -33.649,-52.29"
         id="path4070"
         inkscape:connector-curvature="0"
         style="fill:none;stroke:#000000;stroke-width:3.79999995" />
      <polygon
         points="292.401,-1508.25 289.774,-1518.51 298.228,-1512.13 292.401,-1508.25 "
         id="polygon4072"
         style="fill:#000000;stroke:#000000;stroke-width:3.79999995" />
    </g>
    <!-- 6&#45;&gt;6 -->
    <g
       id="edge41"
       class="edge">
      <title
         id="title4075">6-&gt;6</title>
      <path
         d="m 464.519,-1407.68 c 13.962,5.04 23.481,16.26 23.481,33.68 0,13.34 -5.58,23.04 -14.462,29.12"
         id="path4077"
         inkscape:connector-curvature="0"
         style="fill:none;stroke:#000000;stroke-width:4.66666985" />
      <polygon
         points="475.285,-1341.19 464.519,-1340.32 471.6,-1348.48 475.285,-1341.19 "
         id="polygon4079"
         style="fill:#000000;stroke:#000000;stroke-width:4.66666985" />
    </g>
    <!-- 6&#45;&gt;7 -->
    <g
       id="edge42"
       class="edge">
      <title
         id="title4082">6-&gt;7</title>
      <path
         d="M 364.954,-1278.77 C 352.351,-1123.54 343.52,-807.403 447,-568 c 9.046,20.929 20.872,41.765 33.729,61.452"
         id="path4084"
         inkscape:connector-curvature="0"
         style="fill:none;stroke:#000000;stroke-width:6.66666985" />
      <polygon
         points="485.612,-509.741 486.298,-498.184 475.9,-503.275 485.612,-509.741 "
         id="polygon4086"
         style="fill:#000000;stroke:#000000;stroke-width:6.66666985" />
    </g>
    <!-- 6&#45;&gt;8 -->
    <g
       id="edge43"
       class="edge">
      <title
         id="title4089">6-&gt;8</title>
      <path
         d="m 296.423,-1319.42 c -25.176,21.17 -50.603,47.6 -66.423,77.42 -34.467,64.97 -86.615,532.837 -109.076,747.663"
         id="path4091"
         inkscape:connector-curvature="0"
         style="fill:none;stroke:#000000;stroke-width:5" />
      <polygon
         points="125.266,-493.794 119.877,-484.302 116.563,-494.702 125.266,-493.794 "
         id="polygon4093"
         style="fill:#000000;stroke:#000000;stroke-width:5" />
    </g>
    <!-- 6&#45;&gt;9 -->
    <g
       id="edge44"
       class="edge">
      <title
         id="title4096">6-&gt;9</title>
      <path
         d="M 333.122,-1287.76 C 294.681,-1192.88 244,-1034.15 244,-892 c 0,0 0,0 0,226 0,204.017 27.747,280.736 171,426 61.168,62.027 154.609,97.305 227.642,116.473"
         id="path4098"
         inkscape:connector-curvature="0"
         style="fill:none;stroke:#000000;stroke-width:4.93333006" />
      <polygon
         points="643.734,-127.703 652.351,-121.041 641.593,-119.34 643.734,-127.703 "
         id="polygon4100"
         style="fill:#000000;stroke:#000000;stroke-width:4.93333006" />
    </g>
    <!-- 6&#45;&gt;10 -->
    <g
       id="edge45"
       class="edge">
      <title
         id="title4103">6-&gt;10</title>
      <path
         d="m 417.999,-1288.35 c 10.218,17.97 21.345,37.13 32.335,55.69"
         id="path4105"
         inkscape:connector-curvature="0"
         style="fill:none;stroke:#000000;stroke-width:3.66667008" />
      <polygon
         points="453.443,-1234.28 455.541,-1223.89 447.425,-1230.7 453.443,-1234.28 "
         id="polygon4107"
         style="fill:#000000;stroke:#000000;stroke-width:3.66667008" />
    </g>
    <!-- 7&#45;&gt;3 -->
    <g
       id="edge46"
       class="edge">
      <title
         id="title4110">7-&gt;3</title>
      <path
         d="m 697.235,-471.323 c 28.931,-27.632 56.493,-60.605 73.765,-96.677 45.149,-94.294 18.66,-129.591 24,-234 15.71,-307.16 -46.597,-662.45 -92.706,-865.84"
         id="path4112"
         inkscape:connector-curvature="0"
         style="fill:none;stroke:#000000;stroke-width:3.46667004" />
      <polygon
         points="698.854,-1667.19 700.042,-1677.71 705.679,-1668.74 698.854,-1667.19 "
         id="polygon4114"
         style="fill:#000000;stroke:#000000;stroke-width:3.46667004" />
    </g>
    <!-- 7&#45;&gt;5 -->
    <g
       id="edge47"
       class="edge">
      <title
         id="title4117">7-&gt;5</title>
      <path
         d="M 468.212,-480.155 C 441.236,-506.142 414.567,-536.082 395,-568 209.595,-870.438 232.79,-1319.83 246.348,-1495.67"
         id="path4119"
         inkscape:connector-curvature="0"
         style="fill:none;stroke:#000000;stroke-width:7.13332987" />
      <polygon
         points="240.142,-1496.36 247.145,-1505.85 252.587,-1495.39 240.142,-1496.36 "
         id="polygon4121"
         style="fill:#000000;stroke:#000000;stroke-width:7.13332987" />
    </g>
    <!-- 7&#45;&gt;9 -->
    <g
       id="edge48"
       class="edge">
      <title
         id="title4124">7-&gt;9</title>
      <path
         d="m 654.629,-261.721 c 13.206,21.527 26.756,43.614 39.391,64.211"
         id="path4126"
         inkscape:connector-curvature="0"
         style="fill:none;stroke:#000000;stroke-width:4.06666994" />
      <polygon
         points="697.18,-199.165 699.376,-188.78 691.114,-195.443 697.18,-199.165 "
         id="polygon4128"
         style="fill:#000000;stroke:#000000;stroke-width:4.06666994" />
    </g>
    <!-- 7&#45;&gt;10 -->
    <g
       id="edge49"
       class="edge">
      <title
         id="title4131">7-&gt;10</title>
      <path
         d="M 496.278,-505.611 C 485.867,-525.647 476.835,-546.834 471,-568 c -40.997,-148.718 -13.79,-327.395 13.002,-442.27"
         id="path4133"
         inkscape:connector-curvature="0"
         style="fill:none;stroke:#000000;stroke-width:3.93333006" />
      <polygon
         points="480.631,-1011.22 486.341,-1020.15 487.442,-1009.61 480.631,-1011.22 "
         id="polygon4135"
         style="fill:#000000;stroke:#000000;stroke-width:3.93333006" />
    </g>
    <!-- 8&#45;&gt;3 -->
    <g
       id="edge50"
       class="edge">
      <title
         id="title4138">8-&gt;3</title>
      <path
         d="M 97.3242,-483.917 C 81.073,-584.879 56,-747.866 56,-890 c 0,-485 0,-485 0,-485 0,-129.59 34.269,-173.65 130,-261 85.228,-77.77 205.213,-127.26 302.775,-157.32"
         id="path4140"
         inkscape:connector-curvature="0"
         style="fill:none;stroke:#000000;stroke-width:3.4000001" />
      <polygon
         points="487.858,-1796.7 498.444,-1796.26 489.894,-1790 487.858,-1796.7 "
         id="polygon4142"
         style="fill:#000000;stroke:#000000;stroke-width:3.4000001" />
    </g>
    <!-- 8&#45;&gt;5 -->
    <g
       id="edge51"
       class="edge">
      <title
         id="title4145">8-&gt;5</title>
      <path
         d="M 114.584,-484.833 C 114.777,-586.188 112,-749.173 112,-890 c 0,-240 0,-240 0,-240 0,-151.82 -36.5557,-205.05 33,-340 10.88,-21.11 28.266,-39.71 45.872,-54.96"
         id="path4147"
         inkscape:connector-curvature="0"
         style="fill:none;stroke:#000000;stroke-width:8.19999981" />
      <polygon
         points="186.681,-1530.81 198.954,-1531.73 195.896,-1519.81 186.681,-1530.81 "
         id="polygon4149"
         style="fill:#000000;stroke:#000000;stroke-width:8.19999981" />
    </g>
    <!-- 8&#45;&gt;9 -->
    <g
       id="edge52"
       class="edge">
      <title
         id="title4152">8-&gt;9</title>
      <path
         d="m 163.143,-303.011 c 18.645,23.309 41.379,46.75 66.857,63.011 126.562,80.776 299.214,114.107 410.663,127.741"
         id="path4154"
         inkscape:connector-curvature="0"
         style="fill:none;stroke:#000000;stroke-width:7.73332977" />
      <polygon
         points="641.788,-118.94 650.919,-111.039 640.19,-105.501 641.788,-118.94 "
         id="polygon4156"
         style="fill:#000000;stroke:#000000;stroke-width:7.73332977" />
    </g>
    <!-- 8&#45;&gt;10 -->
    <g
       id="edge53"
       class="edge">
      <title
         id="title4159">8-&gt;10</title>
      <path
         d="M 157.001,-472.572 C 231.485,-608.18 376.518,-872.234 457.925,-1020.45"
         id="path4161"
         inkscape:connector-curvature="0"
         style="fill:none;stroke:#000000;stroke-width:5.73332977" />
      <polygon
         points="453.742,-1023.25 462.954,-1029.6 462.536,-1018.42 453.742,-1023.25 "
         id="polygon4163"
         style="fill:#000000;stroke:#000000;stroke-width:5.73332977" />
    </g>
    <!-- 9&#45;&gt;3 -->
    <g
       id="edge54"
       class="edge">
      <title
         id="title4166">9-&gt;3</title>
      <path
         d="M 805.295,-188.585 C 866.923,-295.915 960,-487.557 960,-666 c 0,-226 0,-226 0,-226 0,-290.16 -131.891,-607.48 -221.64,-789.83"
         id="path4168"
         inkscape:connector-curvature="0"
         style="fill:none;stroke:#000000;stroke-width:3.33332992" />
      <polygon
         points="735.146,-1680.43 733.851,-1690.95 741.421,-1683.53 735.146,-1680.43 "
         id="polygon4170"
         style="fill:#000000;stroke:#000000;stroke-width:3.33332992" />
    </g>
    <!-- 9&#45;&gt;4 -->
    <g
       id="edge55"
       class="edge">
      <title
         id="title4173">9-&gt;4</title>
      <path
         d="M 779.536,-199.803 C 807.361,-331.865 837.082,-574.016 771,-766 c -6.722,-19.529 -17.688,-38.576 -29.969,-55.649"
         id="path4175"
         inkscape:connector-curvature="0"
         style="fill:none;stroke:#000000;stroke-width:9.60000038" />
      <polygon
         points="734.147,-816.829 734.909,-829.866 747.62,-826.866 734.147,-816.829 "
         id="polygon4177"
         style="fill:#000000;stroke:#000000;stroke-width:9.60000038" />
    </g>
    <!-- 9&#45;&gt;6 -->
    <g
       id="edge56"
       class="edge">
      <title
         id="title4180">9-&gt;6</title>
      <path
         d="M 653.262,-124.734 C 583.768,-144.162 492.906,-179.253 433,-240 289.747,-385.264 262,-461.983 262,-666 c 0,-226 0,-226 0,-226 0,-135.35 45.947,-285.72 79.366,-381.71"
         id="path4182"
         inkscape:connector-curvature="0"
         style="fill:none;stroke:#000000;stroke-width:6" />
      <polygon
         points="336.502,-1275.7 344.763,-1283.4 346.411,-1272.23 336.502,-1275.7 "
         id="polygon4184"
         style="fill:#000000;stroke:#000000;stroke-width:6" />
    </g>
    <!-- 9&#45;&gt;9 -->
    <g
       id="edge57"
       class="edge">
      <title
         id="title4187">9-&gt;9</title>
      <path
         d="m 839.436,-153.455 c 18.345,5.321 31.564,22.473 31.564,51.455 0,23.7746 -8.895,39.5882 -22.218,47.4408"
         id="path4189"
         inkscape:connector-curvature="0"
         style="fill:none;stroke:#000000;stroke-width:7.33333015" />
      <polygon
         points="851.157,-48.596 839.436,-50.5449 846.092,-60.3875 851.157,-48.596 "
         id="polygon4191"
         style="fill:#000000;stroke:#000000;stroke-width:7.33333015" />
    </g>
    <!-- 10&#45;&gt;3 -->
    <g
       id="edge58"
       class="edge">
      <title
         id="title4194">10-&gt;3</title>
      <path
         d="m 543.705,-1238.92 c 24.522,-113.5 60.473,-292.89 85.358,-425.06"
         id="path4196"
         inkscape:connector-curvature="0"
         style="fill:none;stroke:#000000;stroke-width:3.33332992" />
      <polygon
         points="625.624,-1664.63 630.91,-1673.81 632.504,-1663.34 625.624,-1664.63 "
         id="polygon4198"
         style="fill:#000000;stroke:#000000;stroke-width:3.33332992" />
    </g>
    <!-- 10&#45;&gt;4 -->
    <g
       id="edge59"
       class="edge">
      <title
         id="title4201">10-&gt;4</title>
      <path
         d="m 573.65,-1030.99 c 12.824,19.94 26.451,40.696 39.332,59.906"
         id="path4203"
         inkscape:connector-curvature="0"
         style="fill:none;stroke:#000000;stroke-width:10" />
      <polygon
         points="620.323,-975.847 618.646,-962.665 605.804,-966.078 620.323,-975.847 "
         id="polygon4205"
         style="fill:#000000;stroke:#000000;stroke-width:10" />
    </g>
    <!-- 10&#45;&gt;6 -->
    <g
       id="edge60"
       class="edge">
      <title
         id="title4208">10-&gt;6</title>
      <path
         d="m 465.336,-1229.8 c -10.598,-18.42 -21.811,-37.52 -32.605,-55.55"
         id="path4210"
         inkscape:connector-curvature="0"
         style="fill:none;stroke:#000000;stroke-width:6" />
      <polygon
         points="428.121,-1282.83 427.47,-1294.1 437.121,-1288.24 428.121,-1282.83 "
         id="polygon4212"
         style="fill:#000000;stroke:#000000;stroke-width:6" />
    </g>
  </g>
</svg>
