<?xml version="1.0" encoding="UTF-8" standalone="no"?>
<!-- Generated by graphviz version 2.36.0 (20140111.2315)
 -->

<!-- Title: G Pages: 1 -->

<svg
   xmlns:dc="http://purl.org/dc/elements/1.1/"
   xmlns:cc="http://creativecommons.org/ns#"
   xmlns:rdf="http://www.w3.org/1999/02/22-rdf-syntax-ns#"
   xmlns:svg="http://www.w3.org/2000/svg"
   xmlns="http://www.w3.org/2000/svg"
   xmlns:sodipodi="http://sodipodi.sourceforge.net/DTD/sodipodi-0.dtd"
   xmlns:inkscape="http://www.inkscape.org/namespaces/inkscape"
   width="2885.2703"
   height="1312.8562"
   viewBox="0 0 2308.5001 1050.285"
   id="svg4220"
   version="1.1"
   inkscape:version="0.48.4 r9939"
   sodipodi:docname="PuntaBanda-Par_10_1.dot.svg">
  <metadata
     id="metadata4706">
    <rdf:RDF>
      <cc:Work
         rdf:about="">
        <dc:format>image/svg+xml</dc:format>
        <dc:type
           rdf:resource="http://purl.org/dc/dcmitype/StillImage" />
      </cc:Work>
    </rdf:RDF>
  </metadata>
  <defs
     id="defs4704" />
  <sodipodi:namedview
     pagecolor="#ffffff"
     bordercolor="#666666"
     borderopacity="1"
     objecttolerance="10"
     gridtolerance="10"
     guidetolerance="10"
     inkscape:pageopacity="0"
     inkscape:pageshadow="2"
     inkscape:window-width="701"
     inkscape:window-height="480"
     id="namedview4702"
     showgrid="false"
     fit-margin-top="0"
     fit-margin-left="0"
     fit-margin-right="0"
     fit-margin-bottom="0"
     inkscape:zoom="0.081519862"
     inkscape:cx="1443.7573"
     inkscape:cy="3154.3851"
     inkscape:window-x="65"
     inkscape:window-y="24"
     inkscape:window-maximized="0"
     inkscape:current-layer="svg4220" />
  <g
     id="graph0"
     class="graph"
     transform="matrix(0,-1,1,0,2308.5,1048.7326)">
    <title
       id="title4223">G</title>
    <!-- 1 -->
    <g
       id="node1"
       class="node">
      <title
         id="title4226">1</title>
      <path
         d="m 815.13,-2190 c 0,0 118,0 118,0 0,-2.69 -0.092,-5.37 -0.276,-8.05 -0.183,-2.68 -0.458,-5.36 -0.824,-8.02 -0.365,-2.66 -0.822,-5.31 -1.369,-7.94 -0.546,-2.63 -1.182,-5.24 -1.907,-7.83 -0.725,-2.58 -1.538,-5.14 -2.438,-7.68 -0.899,-2.53 -1.885,-5.03 -2.956,-7.49 -1.07,-2.47 -2.224,-4.89 -3.46,-7.28 -1.236,-2.38 -2.553,-4.73 -3.949,-7.02 -1.396,-2.3 -2.87,-4.54 -4.419,-6.74 -1.549,-2.19 -3.173,-4.33 -4.869,-6.42 -1.695,-2.08 -3.461,-4.11 -5.295,-6.07 -1.834,-1.96 -3.734,-3.86 -5.697,-5.7 -1.964,-1.83 -3.989,-3.6 -6.073,-5.29 -2.084,-1.7 -4.225,-3.32 -6.42,-4.87 -2.195,-1.55 -4.442,-3.03 -6.738,-4.42 -2.295,-1.4 -4.637,-2.71 -7.023,-3.95 -2.385,-1.24 -4.812,-2.39 -7.276,-3.46 -2.464,-1.07 -4.964,-2.06 -7.496,-2.96 -2.531,-0.9 -5.093,-1.71 -7.679,-2.43 -2.587,-0.73 -5.198,-1.37 -7.829,-1.91 -2.63,-0.55 -5.278,-1.01 -7.94,-1.37 -2.661,-0.37 -5.335,-0.64 -8.015,-0.82 -2.68,-0.19 -5.366,-0.28 -8.052,-0.28 -2.687,0 -5.373,0.09 -8.053,0.28 -2.68,0.18 -5.354,0.45 -8.015,0.82 -2.662,0.36 -5.31,0.82 -7.94,1.37 -2.631,0.54 -5.242,1.18 -7.828,1.91 -2.587,0.72 -5.149,1.53 -7.68,2.43 -2.532,0.9 -5.032,1.89 -7.496,2.96 -2.464,1.07 -4.891,2.22 -7.276,3.46 -2.385,1.24 -4.728,2.55 -7.023,3.95 -2.296,1.39 -4.543,2.87 -6.738,4.42 0,0 68.049,96.4 68.049,96.4"
         id="path4228"
         inkscape:connector-curvature="0"
         style="fill:#abdda4;stroke:#000000;stroke-width:0.5" />
      <path
         d="m 815.13,-2190 c 0,0 -68.049,-96.4 -68.049,-96.4 -2.195,1.55 -4.336,3.17 -6.42,4.87 -2.084,1.69 -4.109,3.46 -6.073,5.29 -1.963,1.84 -3.863,3.74 -5.697,5.7 -1.834,1.96 -3.6,3.99 -5.295,6.07 -1.696,2.09 -3.32,4.23 -4.869,6.42 -1.549,2.2 -3.023,4.44 -4.419,6.74 -1.396,2.29 -2.713,4.64 -3.949,7.02 -1.236,2.39 -2.39,4.81 -3.46,7.28 -1.071,2.46 -2.057,4.96 -2.956,7.49 -0.9,2.54 -1.713,5.1 -2.438,7.68 -0.725,2.59 -1.361,5.2 -1.907,7.83 -0.547,2.63 -1.004,5.28 -1.369,7.94 -0.366,2.66 -0.641,5.34 -0.824,8.02 -0.184,2.68 -0.275,5.36 -0.275,8.05 0,2.69 0.091,5.37 0.275,8.05 0.183,2.68 0.458,5.36 0.824,8.02 0.365,2.66 0.822,5.31 1.369,7.94 0.546,2.63 1.182,5.24 1.907,7.83 0.725,2.58 1.538,5.14 2.438,7.68 0.899,2.53 1.885,5.03 2.956,7.49 1.07,2.47 2.224,4.89 3.46,7.28 1.236,2.38 2.553,4.73 3.949,7.02 1.396,2.3 2.87,4.54 4.419,6.74 1.549,2.19 3.173,4.33 4.869,6.42 1.695,2.08 3.461,4.11 5.295,6.07 1.834,1.96 3.734,3.86 5.697,5.7 1.964,1.83 3.989,3.6 6.073,5.29 2.084,1.7 4.225,3.32 6.42,4.87 2.195,1.55 4.442,3.03 6.738,4.42 2.295,1.4 4.638,2.71 7.023,3.95 2.385,1.24 4.812,2.39 7.276,3.46 2.464,1.07 4.964,2.06 7.496,2.96 0,0 39.516,-111.19 39.516,-111.19"
         id="path4230"
         inkscape:connector-curvature="0"
         style="fill:#2b83ba;stroke:#000000;stroke-width:0.5" />
      <path
         d="m 815.13,-2190 c 0,0 -39.516,111.19 -39.516,111.19 2.531,0.9 5.093,1.71 7.68,2.43 2.586,0.73 5.197,1.37 7.828,1.91 2.63,0.55 5.278,1.01 7.94,1.37 2.661,0.37 5.335,0.64 8.015,0.82 2.68,0.19 5.366,0.28 8.053,0.28 2.686,0 5.372,-0.09 8.052,-0.28 2.68,-0.18 5.354,-0.45 8.015,-0.82 2.662,-0.36 5.31,-0.82 7.94,-1.37 2.631,-0.54 5.242,-1.18 7.829,-1.91 2.586,-0.72 5.148,-1.53 7.679,-2.43 2.532,-0.9 5.032,-1.89 7.496,-2.96 2.464,-1.07 4.891,-2.22 7.276,-3.46 2.386,-1.24 4.728,-2.55 7.023,-3.95 2.296,-1.39 4.543,-2.87 6.738,-4.42 2.195,-1.55 4.336,-3.17 6.42,-4.87 2.084,-1.69 4.109,-3.46 6.073,-5.29 0,0 -80.541,-86.24 -80.541,-86.24"
         id="path4232"
         inkscape:connector-curvature="0"
         style="fill:#fdae61;stroke:#000000;stroke-width:0.5" />
      <path
         d="m 815.13,-2190 c 0,0 80.541,86.24 80.541,86.24 1.472,-1.38 2.909,-2.79 4.31,-4.24 1.4,-1.45 2.763,-2.93 4.087,-4.45 1.324,-1.52 2.609,-3.07 3.854,-4.66 1.244,-1.58 2.448,-3.2 3.61,-4.84 1.162,-1.65 2.281,-3.32 3.358,-5.03 1.076,-1.7 2.108,-3.43 3.095,-5.19 0.988,-1.75 1.93,-3.53 2.827,-5.34 0.896,-1.8 1.746,-3.63 2.548,-5.48 0.803,-1.85 1.558,-3.71 2.265,-5.6 0.708,-1.89 1.366,-3.79 1.976,-5.71 0.609,-1.92 1.169,-3.86 1.68,-5.81 0.51,-1.95 0.971,-3.91 1.38,-5.88 0.41,-1.97 0.77,-3.96 1.078,-5.95 0.309,-1.99 0.566,-3.99 0.772,-5.99 0.206,-2.01 0.361,-4.02 0.464,-6.03 0.103,-2.01 0.155,-4.03 0.155,-6.04 0,0 -118,0 -118,0"
         id="path4234"
         inkscape:connector-curvature="0"
         style="fill:#d7191c;stroke:#000000;stroke-width:0.5" />
      <ellipse
         cx="815.13"
         cy="-2190"
         rx="118"
         ry="118"
         id="ellipse4236"
         d="m 933.13,-2190 c 0,65.1696 -52.83039,118 -118,118 -65.1696,0 -118,-52.8304 -118,-118 0,-65.1696 52.8304,-118 118,-118 65.16961,0 118,52.8304 118,118 z"
         sodipodi:cx="815.13"
         sodipodi:cy="-2190"
         sodipodi:rx="118"
         sodipodi:ry="118"
         style="fill:none;stroke:#000000" />
    </g>
    <!-- 1&#45;&gt;1 -->
    <g
       id="edge1"
       class="edge">
      <title
         id="title4239">1-&gt;1</title>
      <path
         d="m 925.053,-2233.41 c 15.605,7.02 26.077,21.49 26.077,43.41 0,17.47 -6.65,30.2 -17.248,38.21"
         id="path4241"
         inkscape:connector-curvature="0"
         style="fill:none;stroke:#000000;stroke-width:3.46667004" />
      <polygon
         points="935.446,-2148.65 925.053,-2146.59 931.893,-2154.68 935.446,-2148.65 "
         id="polygon4243"
         style="fill:#000000;stroke:#000000;stroke-width:3.46667004" />
    </g>
    <!-- 3 -->
    <g
       id="node3"
       class="node">
      <title
         id="title4246">3</title>
      <path
         d="m 571.13,-1931 c 0,0 104.25,0 104.25,0 0,-3.04 -0.132,-6.07 -0.396,-9.09 -0.263,-3.03 -0.658,-6.04 -1.183,-9.03 -0.525,-2.99 -1.179,-5.95 -1.962,-8.88 -0.782,-2.93 -1.692,-5.83 -2.726,-8.68 -1.033,-2.86 -2.191,-5.66 -3.468,-8.41 -1.278,-2.76 -2.675,-5.45 -4.186,-8.08 -1.512,-2.63 -3.137,-5.19 -4.871,-7.68 -1.734,-2.49 -3.576,-4.9 -5.519,-7.23 0,0 -79.939,67.08 -79.939,67.08"
         id="path4248"
         inkscape:connector-curvature="0"
         style="fill:#abdda4;stroke:#000000;stroke-width:0.5" />
      <path
         d="m 571.13,-1931 c 0,0 79.939,-67.08 79.939,-67.08 -1.095,-1.31 -2.222,-2.59 -3.38,-3.85 -1.158,-1.25 -2.346,-2.48 -3.564,-3.68 -1.218,-1.2 -2.465,-2.36 -3.74,-3.5 -1.275,-1.13 -2.578,-2.24 -3.907,-3.31 -1.329,-1.07 -2.684,-2.11 -4.064,-3.12 -1.38,-1 -2.785,-1.97 -4.212,-2.91 -1.428,-0.94 -2.878,-1.84 -4.35,-2.7 -1.471,-0.87 -2.964,-1.69 -4.476,-2.49 -1.512,-0.79 -3.044,-1.54 -4.593,-2.26 -1.549,-0.71 -3.115,-1.39 -4.698,-2.03 -1.582,-0.64 -3.18,-1.24 -4.791,-1.8 -1.612,-0.56 -3.237,-1.08 -4.874,-1.56 -1.637,-0.48 -3.286,-0.92 -4.945,-1.32 -1.659,-0.4 -3.327,-0.76 -5.003,-1.08 -1.676,-0.31 -3.36,-0.59 -5.05,-0.82 -1.69,-0.24 -3.385,-0.43 -5.084,-0.58 -1.699,-0.15 -3.402,-0.26 -5.106,-0.33 -1.705,-0.07 -3.411,-0.09 -5.117,-0.08 -1.706,0.02 -3.411,0.08 -5.114,0.18 -1.702,0.1 -3.403,0.24 -5.099,0.43 -1.696,0.18 -3.387,0.41 -5.072,0.68 -1.685,0.26 -3.363,0.57 -5.032,0.92 -1.67,0.35 -3.331,0.74 -4.982,1.17 -1.65,0.44 -3.29,0.91 -4.918,1.42 -1.627,0.51 -3.242,1.06 -4.843,1.66 -1.6,0.59 -3.186,1.22 -4.755,1.89 -1.57,0.67 -3.123,1.38 -4.658,2.12 -1.535,0.75 -3.051,1.53 -4.548,2.35 -1.496,0.82 -2.973,1.68 -4.427,2.57 -1.455,0.9 -2.887,1.83 -4.296,2.79 -1.409,0.96 -2.795,1.96 -4.155,2.99 -1.36,1.04 -2.695,2.1 -4.003,3.2 -1.308,1.1 -2.589,2.23 -3.842,3.39 -1.252,1.16 -2.477,2.35 -3.671,3.57 -1.194,1.22 -2.359,2.47 -3.492,3.75 -1.133,1.28 -2.235,2.58 -3.304,3.91 -1.07,1.34 -2.106,2.7 -3.109,4.08 -1.003,1.38 -1.972,2.79 -2.906,4.22 -0.933,1.43 -1.832,2.89 -2.695,4.36 -0.863,1.48 -1.689,2.97 -2.479,4.49 -0.789,1.51 -1.541,3.05 -2.256,4.6 -0.714,1.55 -1.39,3.12 -2.027,4.71 -0.638,1.59 -1.236,3.19 -1.795,4.8 -0.56,1.62 -1.079,3.25 -1.558,4.89 -0.479,1.64 -0.919,3.29 -1.317,4.96 -0.398,1.66 -0.756,3.33 -1.072,5.01 -0.317,1.68 -0.592,3.37 -0.826,5.06 -0.234,1.7 -0.426,3.4 -0.577,5.1 -0.151,1.7 -0.26,3.41 -0.327,5.12 -0.067,1.71 -0.092,3.42 -0.076,5.13 0.017,1.71 0.076,3.42 0.176,5.12 0.1,1.71 0.242,3.41 0.426,5.11 0.184,1.7 0.409,3.4 0.676,5.09 0.266,1.69 0.574,3.37 0.923,5.04 0.349,1.68 0.739,3.34 1.17,5 0.431,1.65 0.902,3.29 1.413,4.93 0.511,1.63 1.062,3.25 1.652,4.85 0.59,1.6 1.22,3.19 1.888,4.77 0.668,1.57 1.374,3.13 2.119,4.67 0.744,1.54 1.526,3.06 2.345,4.56 0.818,1.5 1.674,2.98 2.565,4.43 0.891,1.46 1.818,2.9 2.779,4.31 0.962,1.41 1.958,2.8 2.987,4.16 1.03,1.37 2.092,2.71 3.187,4.02 0,0 79.94,-67.08 79.94,-67.08"
         id="path4250"
         inkscape:connector-curvature="0"
         style="fill:#2b83ba;stroke:#000000;stroke-width:0.5" />
      <path
         d="m 571.13,-1931 c 0,0 -79.94,67.08 -79.94,67.08 1.462,1.75 2.98,3.45 4.553,5.1 1.572,1.65 3.198,3.25 4.875,4.79 1.677,1.54 3.404,3.03 5.178,4.46 1.774,1.43 3.595,2.8 5.458,4.12 1.864,1.31 3.77,2.56 5.715,3.74 1.946,1.19 3.929,2.31 5.948,3.36 2.019,1.06 4.071,2.05 6.154,2.97 2.084,0.92 4.196,1.77 6.335,2.55 2.139,0.79 4.303,1.5 6.488,2.14 2.186,0.64 4.391,1.2 6.614,1.7 2.222,0.5 4.46,0.92 6.71,1.27 2.25,0.34 4.511,0.62 6.779,0.82 2.268,0.2 4.542,0.32 6.818,0.37 2.276,0.05 4.553,0.03 6.828,-0.07 2.274,-0.1 4.545,-0.27 6.808,-0.52 2.264,-0.25 4.518,-0.57 6.76,-0.96 2.243,-0.4 4.471,-0.87 6.683,-1.41 2.211,-0.54 4.404,-1.16 6.576,-1.84 2.171,-0.69 4.32,-1.45 6.442,-2.27 2.121,-0.83 4.216,-1.73 6.279,-2.69 2.063,-0.97 4.095,-2 6.091,-3.1 1.996,-1.09 3.955,-2.26 5.875,-3.48 1.92,-1.23 3.799,-2.52 5.635,-3.87 1.836,-1.35 3.627,-2.76 5.371,-4.23 1.743,-1.46 3.439,-2.99 5.083,-4.57 1.644,-1.58 3.236,-3.21 4.773,-4.89 1.538,-1.69 3.02,-3.42 4.444,-5.2 1.424,-1.78 2.79,-3.61 4.095,-5.48 1.304,-1.87 2.548,-3.78 3.728,-5.73 1.18,-1.95 2.296,-3.94 3.346,-5.97 1.05,-2.02 2.033,-4.08 2.948,-6.17 0.916,-2.09 1.763,-4.21 2.54,-6.35 0,0 -97.99,-35.67 -97.99,-35.67"
         id="path4252"
         inkscape:connector-curvature="0"
         style="fill:#fdae61;stroke:#000000;stroke-width:0.5" />
      <path
         d="m 571.13,-1931 c 0,0 97.99,35.67 97.99,35.67 1.033,-2.86 1.941,-5.75 2.723,-8.68 0.781,-2.93 1.435,-5.9 1.96,-8.88 0.524,-2.99 0.918,-6 1.182,-9.02 0.263,-3.02 0.395,-6.06 0.395,-9.09 0,0 -104.25,0 -104.25,0"
         id="path4254"
         inkscape:connector-curvature="0"
         style="fill:#d7191c;stroke:#000000;stroke-width:0.5" />
      <ellipse
         cx="571.13"
         cy="-1931"
         rx="104.25"
         ry="104.5"
         id="ellipse4256"
         d="m 675.38,-1931 c 0,57.7138 -46.67431,104.5 -104.25,104.5 -57.57568,0 -104.25,-46.7862 -104.25,-104.5 0,-57.7138 46.67432,-104.5 104.25,-104.5 57.57569,0 104.25,46.7862 104.25,104.5 z"
         sodipodi:cx="571.13"
         sodipodi:cy="-1931"
         sodipodi:rx="104.25"
         sodipodi:ry="104.5"
         style="fill:none;stroke:#000000" />
    </g>
    <!-- 1&#45;&gt;3 -->
    <g
       id="edge2"
       class="edge">
      <title
         id="title4259">1-&gt;3</title>
      <path
         d="m 730.914,-2106.98 c -27.405,28.32 -57.62,60.12 -84.344,88.76"
         id="path4261"
         inkscape:connector-curvature="0"
         style="fill:none;stroke:#000000;stroke-width:3.93333006" />
      <polygon
         points="648.87,-2015.55 639.494,-2010.62 643.747,-2020.32 648.87,-2015.55 "
         id="polygon4263"
         style="fill:#000000;stroke:#000000;stroke-width:3.93333006" />
    </g>
    <!-- 4 -->
    <g
       id="node4"
       class="node">
      <title
         id="title4266">4</title>
      <path
         d="m 188.13,-133 c 0,0 132.25,0 132.25,0 0,-2.243 -0.057,-4.485 -0.171,-6.725 -0.114,-2.24 -0.284,-4.477 -0.511,-6.708 -0.227,-2.231 -0.51,-4.456 -0.85,-6.673 -0.34,-2.217 -0.735,-4.424 -1.187,-6.621 -0.451,-2.197 -0.959,-4.382 -1.521,-6.552 -0.562,-2.171 -1.179,-4.328 -1.851,-6.467 -0.671,-2.14 -1.397,-4.262 -2.176,-6.364 -0.779,-2.103 -1.611,-4.185 -2.496,-6.245 -0.884,-2.061 -1.821,-4.098 -2.808,-6.111 -0.988,-2.012 -2.027,-4 -3.115,-5.959 -1.089,-1.96 -2.227,-3.892 -3.413,-5.794 -1.186,-1.902 -2.421,-3.773 -3.702,-5.612 -1.281,-1.84 -2.608,-3.646 -3.981,-5.417 -1.373,-1.772 -2.79,-3.508 -4.251,-5.208 -1.46,-1.7 -2.964,-3.362 -4.509,-4.985 -1.545,-1.623 -3.13,-3.206 -4.755,-4.749 -1.625,-1.542 -3.289,-3.043 -4.99,-4.501 -1.702,-1.458 -3.439,-2.872 -5.212,-4.241 -1.773,-1.37 -3.58,-2.694 -5.42,-3.971 -1.84,-1.278 -3.712,-2.508 -5.614,-3.691 -1.902,-1.182 -3.834,-2.316 -5.794,-3.4 -1.96,-1.084 -3.946,-2.118 -5.958,-3.101 -2.013,-0.983 -4.049,-1.915 -6.108,-2.794 -2.06,-0.879 -4.141,-1.706 -6.242,-2.48 -2.101,-0.773 -4.222,-1.493 -6.359,-2.159 -2.138,-0.666 -4.292,-1.277 -6.461,-1.833 -2.168,-0.556 -4.351,-1.057 -6.545,-1.503 -2.194,-0.445 -4.399,-0.834 -6.612,-1.167 -2.214,-0.333 -4.436,-0.61 -6.664,-0.83 -2.227,-0.22 -4.46,-0.383 -6.696,-0.49 -2.236,-0.106 -4.475,-0.156 -6.713,-0.148 -2.239,0.007 -4.477,0.071 -6.712,0.193 -2.235,0.121 -4.467,0.299 -6.693,0.534 -2.227,0.234 -4.446,0.526 -6.658,0.873 -2.211,0.348 -4.414,0.752 -6.605,1.211 -2.191,0.46 -4.37,0.975 -6.535,1.545 -2.165,0.571 -4.315,1.196 -6.448,1.876 -2.133,0.68 -4.249,1.414 -6.345,2.201 -2.096,0.788 -4.172,1.628 -6.225,2.521 -2.054,0.893 -4.084,1.838 -6.09,2.834 -2.005,0.997 -3.985,2.044 -5.938,3.141 -1.952,1.097 -3.877,2.243 -5.771,3.438 -1.895,1.195 -3.758,2.437 -5.59,3.727 -1.831,1.29 -3.63,2.626 -5.394,4.007 -1.763,1.381 -3.492,2.807 -5.183,4.276 -1.6918,1.468 -3.3459,2.98 -4.9608,4.533 -1.6149,1.553 -3.1902,3.147 -4.7244,4.781 -1.5342,1.633 -3.0267,3.305 -4.4762,5.014 -1.4494,1.709 -2.8553,3.455 -4.2163,5.235 -1.361,1.781 -2.6767,3.596 -3.9457,5.444 -1.2691,1.847 -2.4911,3.727 -3.6649,5.636 -1.1738,1.91 -2.2991,3.849 -3.3746,5.816 -1.0756,1.967 -2.1011,3.961 -3.0756,5.98 -0.9746,2.019 -1.8978,4.063 -2.7688,6.129 -0.8709,2.066 -1.6894,4.154 -2.4546,6.261 -0.7652,2.108 -1.4769,4.235 -2.1343,6.379 -0.6575,2.144 -1.2605,4.304 -1.8085,6.478 -0.548,2.175 -1.0407,4.363 -1.4779,6.563 -0.4371,2.199 -0.8184,4.41 -1.1435,6.629 -0.3252,2.219 -0.594,4.445 -0.8063,6.678 -0.2123,2.233 -0.368,4.47 -0.4669,6.711 -0.0989,2.241 -0.141,4.483 -0.1263,6.726 0.0147,2.243 0.0863,4.485 0.2146,6.724 0.1283,2.239 0.3133,4.474 0.5549,6.704 0,0 131.4781,-14.299 131.4781,-14.299"
         id="path4268"
         inkscape:connector-curvature="0"
         style="fill:#2b83ba;stroke:#000000;stroke-width:0.5" />
      <path
         d="m 188.13,-133 c 0,0 -131.4781,14.299 -131.4781,14.299 0.2255,2.081 0.5002,4.157 0.8239,6.225 0.3236,2.068 0.6962,4.129 1.1173,6.179 0.4211,2.051 0.8907,4.091 1.4083,6.119 0.5176,2.0286 1.0831,4.0442 1.6961,6.0456 0.6129,2.0014 1.2731,3.988 1.9801,5.9581 0.7069,1.97 1.4603,3.923 2.2596,5.8573 0.7992,1.9343 1.6442,3.8494 2.534,5.7436 0.8899,1.8941 1.8244,3.7669 2.8029,5.6167 0.9784,1.8498 2.0005,3.6762 3.0653,5.4774 1.0648,1.8013 2.1721,3.5771 3.3209,5.3258 1.1488,1.7487 2.3388,3.4699 3.569,5.1621 1.2302,1.6923 2.5003,3.355 3.8092,4.9869 1.3088,1.632 2.6561,3.2326 4.0407,4.8005 1.3845,1.568 2.806,3.1029 4.2631,4.6033 1.4572,1.5005 2.9496,2.9662 4.4761,4.3958 1.5265,1.4296 3.0866,2.8228 4.6786,4.1783 1.593,1.3556 3.217,2.6731 4.872,3.9515 1.654,1.2785 3.339,2.5175 5.052,3.7159 1.714,1.1985 3.455,2.3561 5.223,3.4718 1.768,1.1158 3.562,2.1895 5.381,3.2201 1.819,1.0306 3.662,2.0178 5.527,2.9609 1.866,0.9431 3.753,1.8418 5.661,2.6953 1.909,0.8535 3.836,1.6615 5.783,2.42348 1.946,0.76195 3.91,1.47759 5.89,2.1463 1.98,0.66871 3.976,1.29031 5.985,1.86427 2.01,0.57397 4.032,1.10014 6.067,1.57807 2.034,0.47793 4.08,0.90749 6.134,1.28831 2.055,0.38083 4.118,0.71281 6.189,0.99567 2.07,0.28286 4.147,0.51652 6.228,0.70078 2.082,0.18426 4.167,0.319072 6.255,0.404321 2.088,0.085249 4.178,0.12091 6.267,0.106955 2.09,-0.013955 4.179,-0.077524 6.265,-0.190651 2.087,-0.113128 4.17,-0.275784 6.249,-0.487835 2.079,-0.21204 4.152,-0.47342 6.219,-0.78391 2.066,-0.31049 4.125,-0.67 6.174,-1.07823 2.05,-0.40824 4.089,-0.86508 6.117,-1.37014 2.028,-0.50506 4.044,-1.0582 6.045,-1.65896 2.002,-0.60075 3.989,-1.24895 5.96,-1.94405 1.971,-0.6951 3.925,-1.4369 5.861,-2.22478 1.936,-0.7879 3.853,-1.6216 5.75,-2.5005 1.896,-0.8789 3.772,-1.8027 5.624,-2.7707 1.853,-0.9679 3.683,-1.9797 5.488,-3.0345 1.805,-1.0548 3.585,-2.1523 5.338,-3.2916 1.753,-1.1393 3.478,-2.32 5.176,-3.5413 1.697,-1.2212 3.365,-2.4826 5.002,-3.783 1.638,-1.3004 3.245,-2.6395 4.819,-4.0162 1.574,-1.3767 3.115,-2.7906 4.623,-4.2405 1.507,-1.4499 2.98,-2.9353 4.417,-4.4551 1.437,-1.5198 2.838,-3.0736 4.201,-4.6599 1.364,-1.5863 2.69,-3.2047 3.977,-4.854 1.287,-1.6493 2.535,-3.3289 3.742,-5.0374 1.208,-1.7085 2.375,-3.4454 3.5,-5.2093 1.126,-1.7639 2.209,-3.5543 3.25,-5.3696 1.041,-1.8154 2.038,-3.6552 2.992,-5.5179 0.954,-1.8627 1.863,-3.7478 2.728,-5.6537 0.865,-1.9059 1.684,-3.8321 2.457,-5.7769 0.774,-1.9448 1.501,-3.9077 2.182,-5.887 0.681,-1.9793 1.314,-3.9745 1.901,-5.9839 0.586,-2.0095 1.124,-4.0325 1.615,-6.0675 0.491,-2.035 0.933,-4.081 1.327,-6.137 0.394,-2.056 0.739,-4.121 1.035,-6.194 0.296,-2.072 0.543,-4.151 0.741,-6.235 0.198,-2.084 0.346,-4.173 0.445,-6.264 0.099,-2.091 0.149,-4.184 0.149,-6.278 0,0 -132.25,0 -132.25,0"
         id="path4270"
         inkscape:connector-curvature="0"
         style="fill:#d7191c;stroke:#000000;stroke-width:0.5" />
      <ellipse
         cx="188.13"
         cy="-133"
         rx="132.25"
         ry="132.5"
         id="ellipse4272"
         d="m 320.38,-133 c 0,73.177729 -59.21034,132.5 -132.25,132.5 -73.03965,0 -132.249995,-59.322271 -132.249995,-132.5 0,-73.17773 59.210345,-132.5 132.249995,-132.5 73.03966,0 132.25,59.32227 132.25,132.5 z"
         sodipodi:cx="188.13"
         sodipodi:cy="-133"
         sodipodi:rx="132.25"
         sodipodi:ry="132.5"
         style="fill:none;stroke:#000000" />
    </g>
    <!-- 1&#45;&gt;4 -->
    <g
       id="edge3"
       class="edge">
      <title
         id="title4275">1-&gt;4</title>
      <path
         d="m 697.591,-2176.43 c -173.042,20.71 -484.918,67.17 -568.461,140.43 -125.58646,110.13 -129.000464,185.96 -129.000464,353 0,0 0,0 0,1052 0,148.477 -2.072586,193.218 57.999964,329 9.4003,21.247 22.0469,42.211 35.7728,61.745"
         id="path4277"
         inkscape:connector-curvature="0"
         style="fill:none;stroke:#000000;stroke-width:3.33332992" />
      <polygon
         points="96.8578,-242.14 99.8446,-231.975 91.1707,-238.058 96.8578,-242.14 "
         id="polygon4279"
         style="fill:#000000;stroke:#000000;stroke-width:3.33332992" />
    </g>
    <!-- 7 -->
    <g
       id="node7"
       class="node">
      <title
         id="title4282">7</title>
      <path
         d="m 713.13,-398 c 0,0 95.25,0 95.25,0 0,-2.71 -0.115,-5.418 -0.345,-8.118 -0.23,-2.7 -0.574,-5.388 -1.032,-8.059 -0.458,-2.67 -1.029,-5.32 -1.711,-7.942 -0.683,-2.621 -1.476,-5.213 -2.378,-7.767 -0.903,-2.554 -1.913,-5.068 -3.029,-7.536 -1.115,-2.468 -2.335,-4.888 -3.656,-7.252 -1.321,-2.363 -2.741,-4.67 -4.258,-6.913 -1.516,-2.243 -3.127,-4.42 -4.828,-6.525 -1.701,-2.106 -3.491,-4.138 -5.364,-6.09 -1.874,-1.953 -3.829,-3.825 -5.861,-5.612 -2.033,-1.786 -4.14,-3.484 -6.316,-5.091 -2.176,-1.606 -4.42,-3.119 -6.724,-4.534 -2.305,-1.416 -4.669,-2.732 -7.085,-3.945 -2.416,-1.214 -4.883,-2.324 -7.393,-3.327 -2.51,-1.004 -5.062,-1.9 -7.649,-2.685 -2.586,-0.786 -5.205,-1.461 -7.848,-2.024 -2.644,-0.562 -5.31,-1.011 -7.992,-1.347 -2.682,-0.335 -5.376,-0.555 -8.077,-0.661 -2.7,-0.105 -5.404,-0.095 -8.104,0.03 -2.699,0.125 -5.392,0.365 -8.072,0.72 -2.679,0.355 -5.342,0.824 -7.981,1.406 -2.64,0.581 -5.253,1.276 -7.834,2.08 -2.58,0.805 -5.126,1.719 -7.629,2.741 -2.503,1.022 -4.961,2.15 -7.369,3.381 -2.407,1.231 -4.761,2.565 -7.055,3.997 -2.294,1.432 -4.527,2.961 -6.691,4.584 -2.165,1.622 -4.26,3.336 -6.279,5.137 -2.019,1.801 -3.961,3.687 -5.82,5.654 -1.859,1.966 -3.634,4.011 -5.319,6.129 -1.686,2.118 -3.281,4.307 -4.781,6.561 -1.5,2.253 -2.904,4.57 -4.208,6.944 -1.303,2.373 -2.505,4.801 -3.603,7.278 -1.097,2.476 -2.089,4.997 -2.973,7.558 -0.884,2.561 -1.659,5.158 -2.322,7.784 -0.663,2.627 -1.215,5.281 -1.653,7.955 -0.439,2.673 -0.763,5.365 -0.973,8.066 -0.21,2.701 -0.306,5.41 -0.286,8.12 0.02,2.71 0.155,5.417 0.404,8.115 0.249,2.698 0.613,5.384 1.09,8.051 0.477,2.667 1.068,5.313 1.769,7.929 0.702,2.617 1.514,5.203 2.435,7.75 0.921,2.547 1.95,5.054 3.083,7.514 1.134,2.46 2.371,4.87 3.709,7.224 1.338,2.355 2.775,4.651 4.308,6.882 1.533,2.232 3.159,4.397 4.876,6.49 1.716,2.093 3.52,4.112 5.408,6.051 1.888,1.939 3.857,3.797 5.902,5.568 2.045,1.771 4.164,3.454 6.352,5.045 2.188,1.59 4.443,3.087 6.758,4.485 2.314,1.398 4.688,2.697 7.113,3.893 2.425,1.196 4.899,2.288 7.417,3.273 2.518,0.985 5.076,1.862 7.668,2.629 2.592,0.767 5.215,1.423 7.863,1.966 2.648,0.543 5.317,0.973 8.001,1.288 2.684,0.316 5.381,0.517 8.082,0.602 2.701,0.086 5.404,0.056 8.103,-0.089 2.699,-0.145 5.39,-0.405 8.067,-0.779 2.676,-0.374 5.336,-0.863 7.971,-1.464 2.635,-0.601 5.243,-1.314 7.818,-2.138 2.575,-0.823 5.113,-1.756 7.609,-2.796 2.495,-1.04 4.945,-2.186 7.344,-3.435 2.398,-1.249 4.742,-2.6 7.026,-4.048 2.284,-1.449 4.505,-2.995 6.658,-4.633 2.152,-1.638 4.234,-3.367 6.24,-5.183 0,0 -63.826,-70.887 -63.826,-70.887"
         id="path4284"
         inkscape:connector-curvature="0"
         style="fill:#fdae61;stroke:#000000;stroke-width:0.5" />
      <path
         d="m 713.13,-398 c 0,0 63.826,70.887 63.826,70.887 1.233,-1.115 2.435,-2.263 3.608,-3.441 1.172,-1.178 2.313,-2.387 3.423,-3.625 1.109,-1.238 2.186,-2.505 3.229,-3.8 1.043,-1.294 2.053,-2.616 3.027,-3.963 0.974,-1.347 1.914,-2.72 2.816,-4.117 0.903,-1.396 1.769,-2.816 2.598,-4.258 0.829,-1.442 1.62,-2.906 2.373,-4.389 0.752,-1.484 1.466,-2.987 2.14,-4.508 0.674,-1.52 1.309,-3.059 1.903,-4.613 0.594,-1.554 1.147,-3.123 1.659,-4.706 0.512,-1.583 0.983,-3.18 1.412,-4.787 0.429,-1.608 0.816,-3.227 1.161,-4.855 0.344,-1.628 0.646,-3.265 0.905,-4.909 0.26,-1.643 0.476,-3.294 0.649,-4.949 0.174,-1.655 0.304,-3.315 0.39,-4.977 0.087,-1.662 0.131,-3.326 0.131,-4.99 0,0 -95.25,0 -95.25,0"
         id="path4286"
         inkscape:connector-curvature="0"
         style="fill:#d7191c;stroke:#000000;stroke-width:0.5" />
      <ellipse
         cx="713.13"
         cy="-398"
         rx="95.25"
         ry="95.5"
         id="ellipse4288"
         d="m 808.38,-398 c 0,52.74319 -42.64487,95.5 -95.25,95.5 -52.60512,0 -95.25,-42.75681 -95.25,-95.5 0,-52.74319 42.64488,-95.5 95.25,-95.5 52.60513,0 95.25,42.75681 95.25,95.5 z"
         sodipodi:cx="713.13"
         sodipodi:cy="-398"
         sodipodi:rx="95.25"
         sodipodi:ry="95.5"
         style="fill:none;stroke:#000000" />
    </g>
    <!-- 1&#45;&gt;7 -->
    <g
       id="edge4"
       class="edge">
      <title
         id="title4291">1-&gt;7</title>
      <path
         d="m 849.829,-2076.7 c 32.014,101.4 74.301,255.46 74.301,393.7 0,0 0,0 0,245 0,410.09 -46.213,515.195 -164,908 -3.187,10.628 -6.977,21.554 -11.012,32.347"
         id="path4293"
         inkscape:connector-curvature="0"
         style="fill:none;stroke:#000000;stroke-width:3.73333001" />
      <polygon
         points="752.352,-496.31 745.519,-488.214 745.812,-498.805 752.352,-496.31 "
         id="polygon4295"
         style="fill:#000000;stroke:#000000;stroke-width:3.73333001" />
    </g>
    <!-- 8 -->
    <g
       id="node8"
       class="node">
      <title
         id="title4298">8</title>
      <ellipse
         cx="512.13"
         cy="-896"
         rx="125.25"
         ry="125.5"
         id="ellipse4300"
         d="m 637.38,-896 c 0,69.31174 -56.07633,125.5 -125.25,125.5 -69.17366,0 -125.25,-56.18826 -125.25,-125.5 0,-69.31174 56.07634,-125.5 125.25,-125.5 69.17367,0 125.25,56.18826 125.25,125.5 z"
         sodipodi:cx="512.13"
         sodipodi:cy="-896"
         sodipodi:rx="125.25"
         sodipodi:ry="125.5"
         style="fill:#fdae61;stroke:#000000" />
    </g>
    <!-- 1&#45;&gt;8 -->
    <g
       id="edge5"
       class="edge">
      <title
         id="title4303">1-&gt;8</title>
      <path
         d="m 816.703,-2072 c 4.993,102.51 13.427,255.54 13.427,389 0,0 0,0 0,245 0,171.42 30.083,238.04 -66,380 -31.33,46.29 -80.858,81.687 -127.768,107.344"
         id="path4305"
         inkscape:connector-curvature="0"
         style="fill:none;stroke:#000000;stroke-width:5.66666985" />
      <polygon
         points="638.487,-946.169 627.33,-945.816 633.803,-954.91 638.487,-946.169 "
         id="polygon4307"
         style="fill:#000000;stroke:#000000;stroke-width:5.66666985" />
    </g>
    <!-- 9 -->
    <g
       id="node9"
       class="node">
      <title
         id="title4310">9</title>
      <ellipse
         cx="327.13"
         cy="-632"
         rx="101.25"
         ry="101.5"
         id="ellipse4312"
         d="m 428.38,-632 c 0,56.0569 -45.33116,101.5 -101.25,101.5 -55.91883,0 -101.25,-45.4431 -101.25,-101.5 0,-56.0569 45.33117,-101.5 101.25,-101.5 55.91884,0 101.25,45.4431 101.25,101.5 z"
         sodipodi:cx="327.13"
         sodipodi:cy="-632"
         sodipodi:rx="101.25"
         sodipodi:ry="101.5"
         style="fill:#d7191c;stroke:#000000" />
    </g>
    <!-- 1&#45;&gt;9 -->
    <g
       id="edge6"
       class="edge">
      <title
         id="title4315">1-&gt;9</title>
      <path
         d="m 699.688,-2164.29 c -203.684,51.12 -605.5585,189.02 -605.5585,481.29 0,0 0,0 0,245 0,303.43 22.9245,388.49 141.0005,668 6.914,16.367 15.877,32.844 25.49,48.417"
         id="path4317"
         inkscape:connector-curvature="0"
         style="fill:none;stroke:#000000;stroke-width:3.4000001" />
      <polygon
         points="263.641,-723.355 266.019,-713.03 257.722,-719.618 263.641,-723.355 "
         id="polygon4319"
         style="fill:#000000;stroke:#000000;stroke-width:3.4000001" />
    </g>
    <!-- 2 -->
    <g
       id="node2"
       class="node">
      <title
         id="title4322">2</title>
      <path
         d="m 623.13,-1181 c 0,0 123,0 123,0 0,-2.58 -0.081,-5.15 -0.243,-7.72 -0.162,-2.57 -0.404,-5.14 -0.727,-7.7 -0.323,-2.55 -0.726,-5.1 -1.209,-7.63 -0.483,-2.53 -1.045,-5.04 -1.686,-7.54 -0.64,-2.49 -1.359,-4.97 -2.156,-7.42 -0.796,-2.45 -1.669,-4.87 -2.617,-7.27 -0.948,-2.39 -1.972,-4.76 -3.069,-7.09 -1.097,-2.33 -2.267,-4.63 -3.508,-6.89 -1.241,-2.25 -2.553,-4.47 -3.933,-6.65 -1.381,-2.17 -2.829,-4.3 -4.343,-6.39 -1.515,-2.08 -3.094,-4.12 -4.736,-6.1 -1.643,-1.99 -3.347,-3.92 -5.11,-5.8 -1.764,-1.88 -3.586,-3.7 -5.464,-5.46 -1.878,-1.77 -3.811,-3.47 -5.796,-5.11 -1.985,-1.65 -4.022,-3.22 -6.106,-4.74 -2.084,-1.51 -4.216,-2.96 -6.391,-4.34 0,0 -65.906,103.85 -65.906,103.85"
         id="path4324"
         inkscape:connector-curvature="0"
         style="fill:#abdda4;stroke:#000000;stroke-width:0.5" />
      <path
         d="m 623.13,-1181 c 0,0 65.906,-103.85 65.906,-103.85 -2.175,-1.38 -4.393,-2.69 -6.651,-3.94 -2.257,-1.24 -4.553,-2.41 -6.885,-3.5 -2.331,-1.1 -4.696,-2.12 -7.091,-3.07 -2.396,-0.95 -4.82,-1.82 -7.27,-2.62 -2.451,-0.8 -4.925,-1.52 -7.421,-2.16 -2.495,-0.64 -5.01,-1.2 -7.541,-1.68 -2.53,-0.48 -5.075,-0.89 -7.631,-1.21 -2.556,-0.32 -5.122,-0.57 -7.693,-0.73 0,0 -7.723,122.76 -7.723,122.76"
         id="path4326"
         inkscape:connector-curvature="0"
         style="fill:#2b83ba;stroke:#000000;stroke-width:0.5" />
      <path
         d="m 623.13,-1181 c 0,0 7.723,-122.76 7.723,-122.76 -1.929,-0.12 -3.86,-0.19 -5.791,-0.22 -1.932,-0.04 -3.865,-0.02 -5.796,0.04 -1.931,0.06 -3.861,0.17 -5.787,0.32 -1.926,0.15 -3.849,0.35 -5.765,0.59 -1.917,0.24 -3.828,0.53 -5.732,0.86 -1.903,0.33 -3.798,0.71 -5.684,1.13 -1.886,0.42 -3.761,0.89 -5.625,1.4 -1.864,0.51 -3.715,1.06 -5.553,1.66 -1.837,0.6 -3.66,1.24 -5.468,1.92 -1.807,0.68 -3.598,1.41 -5.372,2.18 -1.773,0.76 -3.528,1.57 -5.263,2.42 -1.735,0.85 -3.45,1.74 -5.143,2.67 -1.693,0.94 -3.364,1.91 -5.012,2.92 -1.647,1 -3.271,2.05 -4.869,3.14 -1.598,1.09 -3.17,2.21 -4.715,3.37 -1.545,1.16 -3.063,2.36 -4.552,3.59 -1.488,1.23 -2.948,2.49 -4.377,3.8 -1.429,1.3 -2.827,2.63 -4.194,4 -1.366,1.36 -2.7,2.76 -4,4.19 -1.3,1.43 -2.567,2.89 -3.799,4.38 -1.231,1.49 -2.428,3 -3.588,4.55 -1.16,1.54 -2.283,3.12 -3.369,4.71 -1.086,1.6 -2.135,3.23 -3.144,4.87 -1.01,1.65 -1.98,3.32 -2.911,5.01 -0.931,1.7 -1.822,3.41 -2.672,5.15 -0.85,1.73 -1.659,3.49 -2.426,5.26 -0.768,1.77 -1.493,3.57 -2.176,5.37 -0.683,1.81 -1.323,3.63 -1.92,5.47 -0.597,1.84 -1.151,3.69 -1.661,5.55 -0.51,1.87 -0.976,3.74 -1.397,5.63 -0.422,1.88 -0.799,3.78 -1.131,5.68 -0.332,1.91 -0.619,3.82 -0.862,5.73 0,0 122.031,15.42 122.031,15.42"
         id="path4328"
         inkscape:connector-curvature="0"
         style="fill:#fdae61;stroke:#000000;stroke-width:0.5" />
      <path
         d="m 623.13,-1181 c 0,0 -122.031,-15.42 -122.031,-15.42 -0.262,2.08 -0.471,4.16 -0.627,6.25 -0.156,2.09 -0.259,4.18 -0.308,6.27 -0.05,2.09 -0.046,4.19 0.012,6.28 0.058,2.09 0.168,4.18 0.333,6.27 0.164,2.09 0.381,4.17 0.652,6.25 0.27,2.07 0.594,4.14 0.97,6.2 0.376,2.06 0.805,4.11 1.285,6.14 0.481,2.04 1.013,4.07 1.597,6.08 0.584,2.01 1.22,4 1.905,5.98 0.686,1.98 1.422,3.94 2.208,5.88 0.786,1.94 1.621,3.86 2.505,5.75 0.884,1.9 1.816,3.78 2.795,5.63 0.98,1.85 2.006,3.67 3.079,5.47 1.073,1.79 2.191,3.56 3.354,5.31 1.163,1.74 2.37,3.45 3.62,5.12 1.25,1.68 2.543,3.33 3.877,4.94 1.335,1.62 2.71,3.19 4.125,4.74 1.415,1.54 2.868,3.05 4.36,4.51 1.492,1.47 3.021,2.9 4.585,4.29 1.565,1.39 3.165,2.74 4.799,4.05 1.633,1.31 3.3,2.58 4.998,3.8 1.699,1.23 3.428,2.41 5.186,3.54 1.759,1.14 3.546,2.23 5.36,3.27 1.814,1.05 3.655,2.04 5.52,2.99 1.865,0.95 3.754,1.86 5.665,2.71 1.911,0.85 3.844,1.66 5.796,2.41 1.952,0.76 3.923,1.47 5.911,2.12 1.989,0.65 3.993,1.26 6.012,1.81 2.019,0.55 4.052,1.05 6.097,1.5 2.044,0.45 4.1,0.85 6.165,1.19 2.064,0.34 4.138,0.64 6.217,0.87 2.08,0.24 4.165,0.43 6.254,0.56 2.089,0.13 4.181,0.21 6.275,0.23 2.093,0.03 4.186,0 6.277,-0.08 2.092,-0.09 4.181,-0.22 6.266,-0.41 2.085,-0.19 4.164,-0.43 6.236,-0.73 2.073,-0.29 4.137,-0.64 6.192,-1.04 2.054,-0.4 4.098,-0.85 6.13,-1.36 2.031,-0.5 4.049,-1.06 6.053,-1.67 2.003,-0.6 3.99,-1.26 5.959,-1.97 1.97,-0.71 3.921,-1.47 5.851,-2.28 1.931,-0.81 3.841,-1.66 5.728,-2.57 1.887,-0.91 3.75,-1.86 5.589,-2.86 1.838,-1 3.65,-2.05 5.435,-3.15 1.785,-1.09 3.541,-2.23 5.268,-3.41 1.726,-1.18 3.422,-2.41 5.086,-3.68 1.664,-1.27 3.296,-2.58 4.893,-3.94 1.597,-1.35 3.159,-2.74 4.685,-4.18 1.526,-1.43 3.015,-2.9 4.466,-4.41 1.45,-1.51 2.862,-3.05 4.234,-4.64 1.372,-1.58 2.703,-3.19 3.993,-4.84 1.289,-1.65 2.536,-3.33 3.74,-5.04 1.204,-1.72 2.363,-3.46 3.478,-5.23 1.115,-1.77 2.184,-3.57 3.207,-5.4 1.022,-1.83 1.998,-3.68 2.927,-5.55 0.928,-1.88 1.808,-3.78 2.639,-5.7 0.832,-1.92 1.614,-3.86 2.346,-5.82 0.732,-1.97 1.414,-3.95 2.045,-5.94 0.632,-2 1.212,-4.01 1.74,-6.03 0.529,-2.03 1.005,-4.07 1.43,-6.12 0.424,-2.05 0.796,-4.11 1.116,-6.18 0.319,-2.06 0.586,-4.14 0.799,-6.22 0.213,-2.09 0.373,-4.17 0.48,-6.26 0.107,-2.09 0.161,-4.19 0.161,-6.28 0,0 -123,0 -123,0"
         id="path4330"
         inkscape:connector-curvature="0"
         style="fill:#d7191c;stroke:#000000;stroke-width:0.5" />
      <ellipse
         cx="623.13"
         cy="-1181"
         rx="123"
         ry="123"
         id="ellipse4332"
         d="m 746.13,-1181 c 0,67.931 -55.06897,123 -123,123 -67.93102,0 -123,-55.069 -123,-123 0,-67.931 55.06898,-123 123,-123 67.93103,0 123,55.069 123,123 z"
         sodipodi:cx="623.13"
         sodipodi:cy="-1181"
         sodipodi:rx="123"
         sodipodi:ry="123"
         style="fill:none;stroke:#000000" />
    </g>
    <!-- 2&#45;&gt;1 -->
    <g
       id="edge7"
       class="edge">
      <title
         id="title4335">2-&gt;1</title>
      <path
         d="m 646.038,-1302.15 c 36.63,-192.12 108.039,-566.64 145.251,-761.81"
         id="path4337"
         inkscape:connector-curvature="0"
         style="fill:none;stroke:#000000;stroke-width:3.66667008" />
      <polygon
         points="787.887,-2064.81 793.198,-2073.97 794.763,-2063.5 787.887,-2064.81 "
         id="polygon4339"
         style="fill:#000000;stroke:#000000;stroke-width:3.66667008" />
    </g>
    <!-- 2&#45;&gt;2 -->
    <g
       id="edge8"
       class="edge">
      <title
         id="title4342">2-&gt;2</title>
      <path
         d="m 738.476,-1223.79 c 15.412,7.24 25.654,21.5 25.654,42.79 0,16.97 -6.504,29.47 -16.945,37.51"
         id="path4344"
         inkscape:connector-curvature="0"
         style="fill:none;stroke:#000000;stroke-width:3.33332992" />
      <polygon
         points="748.842,-1140.4 738.476,-1138.21 745.213,-1146.39 748.842,-1140.4 "
         id="polygon4346"
         style="fill:#000000;stroke:#000000;stroke-width:3.33332992" />
    </g>
    <!-- 2&#45;&gt;3 -->
    <g
       id="edge9"
       class="edge">
      <title
         id="title4349">2-&gt;3</title>
      <path
         d="m 619.784,-1304.13 c -7.69,-142.09 -23.916,-374.79 -35.798,-512.86"
         id="path4351"
         inkscape:connector-curvature="0"
         style="fill:none;stroke:#000000;stroke-width:3.93333006" />
      <polygon
         points="580.48,-1816.91 583.102,-1827.17 587.453,-1817.51 580.48,-1816.91 "
         id="polygon4353"
         style="fill:#000000;stroke:#000000;stroke-width:3.93333006" />
    </g>
    <!-- 2&#45;&gt;4 -->
    <g
       id="edge10"
       class="edge">
      <title
         id="title4356">2-&gt;4</title>
      <path
         d="m 648.393,-1060.27 c 12.975,82.724 21.594,194.639 -2.263,290.27 -57.03,228.602 -98.783,286.49 -249,468 -26.337,31.823 -59.525,61.769 -91.651,87.315"
         id="path4358"
         inkscape:connector-curvature="0"
         style="fill:none;stroke:#000000;stroke-width:4.4000001" />
      <polygon
         points="307.58,-211.439 297.339,-208.286 302.822,-217.493 307.58,-211.439 "
         id="polygon4360"
         style="fill:#000000;stroke:#000000;stroke-width:4.4000001" />
    </g>
    <!-- 5 -->
    <g
       id="node5"
       class="node">
      <title
         id="title4363">5</title>
      <path
         d="m 335.13,-1439 c 0,0 98.25,0 98.25,0 0,-1.61 -0.04,-3.22 -0.118,-4.82 -0.079,-1.61 -0.197,-3.21 -0.353,-4.81 -0.157,-1.6 -0.353,-3.2 -0.588,-4.79 -0.235,-1.59 -0.508,-3.18 -0.821,-4.75 -0.312,-1.58 -0.663,-3.15 -1.052,-4.71 -0.388,-1.56 -0.815,-3.11 -1.28,-4.65 -0.464,-1.54 -0.967,-3.07 -1.506,-4.58 -0.539,-1.52 -1.115,-3.02 -1.728,-4.5 0,0 -90.804,37.61 -90.804,37.61"
         id="path4365"
         inkscape:connector-curvature="0"
         style="fill:#2b83ba;stroke:#000000;stroke-width:0.5" />
      <path
         d="m 335.13,-1439 c 0,0 90.804,-37.61 90.804,-37.61 -1.074,-2.61 -2.26,-5.17 -3.555,-7.68 -1.294,-2.5 -2.695,-4.95 -4.198,-7.34 -1.504,-2.38 -3.11,-4.7 -4.812,-6.95 -1.703,-2.25 -3.501,-4.42 -5.389,-6.51 -1.889,-2.09 -3.866,-4.1 -5.927,-6.03 -2.061,-1.92 -4.203,-3.75 -6.42,-5.49 -2.218,-1.74 -4.509,-3.38 -6.868,-4.92 -2.358,-1.54 -4.781,-2.98 -7.262,-4.31 -2.482,-1.33 -5.019,-2.55 -7.605,-3.67 -2.587,-1.11 -5.22,-2.11 -7.892,-3 -2.672,-0.89 -5.381,-1.66 -8.119,-2.31 -2.738,-0.65 -5.503,-1.19 -8.287,-1.61 -2.784,-0.41 -5.584,-0.71 -8.393,-0.88 -2.81,-0.18 -5.625,-0.23 -8.439,-0.16 -2.814,0.07 -5.624,0.26 -8.421,0.56 -2.798,0.31 -5.581,0.74 -8.342,1.29 -2.761,0.55 -5.497,1.22 -8.2,2.01 -2.704,0.78 -5.373,1.68 -7.999,2.7 -2.627,1.01 -5.208,2.14 -7.738,3.37 -2.53,1.24 -5.006,2.59 -7.421,4.04 -2.414,1.45 -4.766,3 -7.048,4.65 -2.281,1.65 -4.491,3.4 -6.623,5.25 -2.132,1.84 -4.183,3.77 -6.15,5.79 -1.966,2.02 -3.845,4.12 -5.631,6.31 -1.786,2.18 -3.478,4.43 -5.07,6.76 -1.593,2.33 -3.086,4.72 -4.473,7.18 -1.388,2.45 -2.67,4.96 -3.842,7.53 -1.173,2.56 -2.235,5.18 -3.183,7.84 -0.949,2.65 -1.783,5.35 -2.501,8.08 -0.717,2.73 -1.318,5.48 -1.799,8.26 -0.481,2.79 -0.843,5.58 -1.085,8.4 -0.242,2.81 -0.362,5.63 -0.362,8.45 0,2.82 0.12,5.64 0.362,8.45 0.242,2.82 0.604,5.61 1.085,8.4 0.481,2.78 1.082,5.53 1.799,8.26 0.718,2.73 1.552,5.43 2.501,8.08 0.948,2.66 2.01,5.28 3.183,7.84 1.172,2.57 2.454,5.08 3.842,7.53 1.387,2.46 2.88,4.85 4.473,7.18 1.592,2.33 3.284,4.58 5.07,6.76 1.786,2.19 3.665,4.29 5.631,6.31 1.967,2.02 4.018,3.95 6.15,5.79 2.132,1.85 4.342,3.6 6.623,5.25 2.282,1.65 4.634,3.2 7.048,4.65 2.415,1.45 4.891,2.8 7.421,4.04 2.53,1.23 5.111,2.36 7.738,3.37 2.626,1.02 5.295,1.92 7.999,2.7 2.703,0.79 5.439,1.46 8.2,2.01 2.761,0.55 5.544,0.98 8.342,1.29 2.797,0.3 5.607,0.49 8.421,0.56 2.814,0.07 5.629,0.02 8.439,-0.16 2.809,-0.17 5.609,-0.47 8.393,-0.88 2.784,-0.42 5.549,-0.96 8.287,-1.61 2.738,-0.65 5.447,-1.42 8.119,-2.31 2.672,-0.89 5.305,-1.89 7.892,-3 2.586,-1.12 5.123,-2.34 7.605,-3.67 2.481,-1.33 4.904,-2.77 7.262,-4.31 2.359,-1.54 4.65,-3.18 6.868,-4.92 2.217,-1.74 4.359,-3.57 6.42,-5.49 2.061,-1.93 4.038,-3.94 5.927,-6.03 1.888,-2.09 3.686,-4.26 5.389,-6.51 1.702,-2.25 3.308,-4.57 4.812,-6.95 1.503,-2.39 2.904,-4.84 4.198,-7.34 1.295,-2.51 2.481,-5.07 3.555,-7.68 0,0 -90.804,-37.61 -90.804,-37.61"
         id="path4367"
         inkscape:connector-curvature="0"
         style="fill:#fdae61;stroke:#000000;stroke-width:0.5" />
      <path
         d="m 335.13,-1439 c 0,0 90.804,37.61 90.804,37.61 0.613,-1.48 1.189,-2.98 1.728,-4.5 0.539,-1.51 1.042,-3.04 1.506,-4.58 0.465,-1.54 0.892,-3.09 1.28,-4.65 0.389,-1.56 0.74,-3.13 1.052,-4.71 0.313,-1.57 0.586,-3.16 0.821,-4.75 0.235,-1.59 0.431,-3.19 0.588,-4.79 0.156,-1.6 0.274,-3.2 0.353,-4.81 0.078,-1.6 0.118,-3.21 0.118,-4.82 0,0 -98.25,0 -98.25,0"
         id="path4369"
         inkscape:connector-curvature="0"
         style="fill:#d7191c;stroke:#000000;stroke-width:0.5" />
      <ellipse
         cx="335.13"
         cy="-1439"
         rx="98.25"
         ry="98.5"
         id="ellipse4371"
         d="m 433.38,-1439 c 0,54.4 -43.98802,98.5 -98.25,98.5 -54.26197,0 -98.25,-44.1 -98.25,-98.5 0,-54.4 43.98803,-98.5 98.25,-98.5 54.26198,0 98.25,44.1 98.25,98.5 z"
         sodipodi:cx="335.13"
         sodipodi:cy="-1439"
         sodipodi:rx="98.25"
         sodipodi:ry="98.5"
         style="fill:none;stroke:#000000" />
    </g>
    <!-- 2&#45;&gt;5 -->
    <g
       id="edge11"
       class="edge">
      <title
         id="title4374">2-&gt;5</title>
      <path
         d="m 534.335,-1266.61 c -36.954,-33.36 -79.604,-71.17 -115.954,-102.77"
         id="path4376"
         inkscape:connector-curvature="0"
         style="fill:none;stroke:#000000;stroke-width:4.13332987" />
      <polygon
         points="415.905,-1366.74 410.725,-1376.03 420.647,-1372.21 415.905,-1366.74 "
         id="polygon4378"
         style="fill:#000000;stroke:#000000;stroke-width:4.13332987" />
    </g>
    <!-- 6 -->
    <g
       id="node6"
       class="node">
      <title
         id="title4381">6</title>
      <path
         d="m 923.13,-133 c 0,0 125.25,0 125.25,0 0,-3.16 -0.12,-6.318 -0.36,-9.469 -0.24,-3.151 -0.59,-6.291 -1.07,-9.415 -0.47,-3.124 -1.06,-6.229 -1.77,-9.308 -0.71,-3.079 -1.53,-6.13 -2.47,-9.146 -0.94,-3.017 -1.99,-5.997 -3.15,-8.934 -1.17,-2.937 -2.44,-5.83 -3.82,-8.67 -1.38,-2.841 -2.87,-5.629 -4.46,-8.357 -1.59,-2.729 -3.28,-5.396 -5.07,-7.996 -1.8,-2.601 -3.68,-5.132 -5.67,-7.59 -1.98,-2.457 -4.05,-4.839 -6.21,-7.14 -2.17,-2.3 -4.41,-4.518 -6.74,-6.649 -2.33,-2.131 -4.74,-4.172 -7.22,-6.121 -2.483,-1.949 -5.038,-3.802 -7.66,-5.558 -2.622,-1.755 -5.31,-3.411 -8.057,-4.963 -2.746,-1.552 -5.551,-2.999 -8.406,-4.339 -2.856,-1.34 -5.762,-2.572 -8.71,-3.692 -2.949,-1.12 -5.939,-2.129 -8.963,-3.023 -3.025,-0.894 -6.082,-1.674 -9.165,-2.336 -3.083,-0.663 -6.19,-1.21 -9.315,-1.637 -3.124,-0.428 -6.264,-0.738 -9.411,-0.929 -3.148,-0.19 -6.302,-0.262 -9.455,-0.214 -3.153,0.048 -6.303,0.216 -9.444,0.502 -3.14,0.286 -6.269,0.691 -9.379,1.214 -3.11,0.523 -6.199,1.163 -9.261,1.919 -3.061,0.757 -6.094,1.629 -9.09,2.615 -2.996,0.986 -5.954,2.084 -8.867,3.294 -2.913,1.209 -5.78,2.529 -8.594,3.955 -2.814,1.426 -5.573,2.958 -8.271,4.593 -2.699,1.635 -5.335,3.372 -7.902,5.206 -2.568,1.834 -5.066,3.765 -7.488,5.788 -2.422,2.023 -4.767,4.138 -7.03,6.338 -2.263,2.201 -4.443,4.486 -6.533,6.851 -2.091,2.366 -4.092,4.809 -5.999,7.326 -1.907,2.517 -3.718,5.105 -5.43,7.758 -1.712,2.654 -3.323,5.371 -4.83,8.147 -1.507,2.775 -2.909,5.607 -4.203,8.489 -1.294,2.881 -2.478,5.811 -3.552,8.782 -1.073,2.971 -2.034,5.982 -2.88,9.025 -0.846,3.044 -1.578,6.119 -2.192,9.218 -0.615,3.099 -1.113,6.22 -1.493,9.357 -0.379,3.137 -0.64,6.287 -0.783,9.444 -0.142,3.156 -0.165,6.317 -0.07,9.475 0.096,3.158 0.311,6.312 0.644,9.454 0.333,3.142 0.785,6.27 1.354,9.378 0.569,3.108 1.255,6.193 2.056,9.249 0.801,3.0565 1.718,6.0811 2.747,9.0678 1.029,2.9868 2.17,5.9335 3.421,8.8339 1.252,2.9004 2.612,5.7524 4.078,8.55 1.466,2.7975 3.036,5.5386 4.709,8.2173 1.672,2.6788 3.445,5.2933 5.315,7.838 1.869,2.5446 3.834,5.0177 5.889,7.4138 2.056,2.396 4.201,4.7135 6.432,6.9473 2.23,2.2339 4.544,4.3825 6.936,6.4414 2.392,2.0589 4.861,4.0265 7.401,5.8986 2.54,1.8722 5.15,3.6475 7.824,5.3223 2.674,1.6747 5.411,3.2477 8.203,4.7155 2.793,1.4678 5.64,2.8295 8.535,4.082 2.895,1.2525 5.836,2.395 8.817,3.4251 2.981,1.0301 6,1.947 9.051,2.7487 3.05,0.8018 6.129,1.4878 9.231,2.05666 3.102,0.56887 6.224,1.02015 9.36,1.35288 3.136,0.33273 6.284,0.54668 9.436,0.64138 3.152,0.0947 6.306,0.07009 9.456,-0.07377 3.15,-0.14387 6.294,-0.40689 9.424,-0.7885 0,0 -15.126,-124.58135 -15.126,-124.58135"
         id="path4383"
         inkscape:connector-curvature="0"
         style="fill:#fdae61;stroke:#000000;stroke-width:0.5" />
      <path
         d="m 923.13,-133 c 0,0 15.126,124.58135 15.126,124.58135 1.878,-0.22891 3.75,-0.5004 5.616,-0.81427 1.865,-0.31388 3.723,-0.67005 5.573,-1.06828 1.849,-0.3982 3.689,-0.8383 5.518,-1.32 1.83,-0.4817 3.648,-1.0049 5.454,-1.5691 1.806,-0.5643 3.598,-1.1694 5.377,-1.815 1.778,-0.6456 3.542,-1.3315 5.289,-2.0571 1.747,-0.7257 3.478,-1.4909 5.191,-2.2951 1.713,-0.8042 3.407,-1.6471 5.082,-2.5282 1.675,-0.8811 3.329,-1.8001 4.962,-2.7563 1.634,-0.9562 3.245,-1.9493 4.833,-2.9786 1.588,-1.0293 3.153,-2.0945 4.693,-3.1949 1.54,-1.1003 3.055,-2.2354 4.546,-3.4045 1.49,-1.1691 2.95,-2.3719 4.38,-3.6073 1.44,-1.2354 2.84,-2.5033 4.22,-3.8026 1.38,-1.2992 2.73,-2.6296 4.04,-3.99 1.32,-1.3605 2.61,-2.7506 3.86,-4.1694 1.25,-1.4188 2.48,-2.8659 3.67,-4.3402 1.18,-1.4742 2.34,-2.9753 3.46,-4.502 1.12,-1.5266 2.21,-3.0786 3.26,-4.6546 1.05,-1.5759 2.06,-3.1756 3.04,-4.7976 0.98,-1.6221 1.92,-3.2661 2.83,-4.9309 0.9,-1.6648 1.77,-3.3499 2.59,-5.054 0.83,-1.7041 1.62,-3.4268 2.37,-5.1667 0.75,-1.7399 1.46,-3.4966 2.13,-5.2688 0.67,-1.7722 1.3,-3.5593 1.89,-5.3601 0.59,-1.8008 1.14,-3.6148 1.65,-5.4405 0.51,-1.8253 0.98,-3.6623 1.4,-5.5093 0.42,-1.847 0.81,-3.703 1.15,-5.568 0.34,-1.864 0.64,-3.736 0.89,-5.614 0.26,-1.877 0.47,-3.761 0.65,-5.648 0.17,-1.888 0.3,-3.779 0.38,-5.672 0.09,-1.894 0.13,-3.789 0.13,-5.684 0,0 -125.25,0 -125.25,0"
         id="path4385"
         inkscape:connector-curvature="0"
         style="fill:#d7191c;stroke:#000000;stroke-width:0.5" />
      <ellipse
         cx="923.13"
         cy="-133"
         rx="125.25"
         ry="125.5"
         id="ellipse4387"
         d="m 1048.38,-133 c 0,69.311736 -56.07633,125.5 -125.25,125.5 -69.17366,0 -125.25,-56.188264 -125.25,-125.5 0,-69.31174 56.07634,-125.5 125.25,-125.5 69.17367,0 125.25,56.18826 125.25,125.5 z"
         sodipodi:cx="923.13"
         sodipodi:cy="-133"
         sodipodi:rx="125.25"
         sodipodi:ry="125.5"
         style="fill:none;stroke:#000000" />
    </g>
    <!-- 2&#45;&gt;6 -->
    <g
       id="edge12"
       class="edge">
      <title
         id="title4390">2-&gt;6</title>
      <path
         d="m 691.327,-1078.37 c 10.359,18.25 20.131,37.49 27.803,56.37 104.158,256.378 161.226,577.045 186.922,754.407"
         id="path4392"
         inkscape:connector-curvature="0"
         style="fill:none;stroke:#000000;stroke-width:3.33332992" />
      <polygon
         points="909.517,-268.085 907.476,-257.688 902.589,-267.088 909.517,-268.085 "
         id="polygon4394"
         style="fill:#000000;stroke:#000000;stroke-width:3.33332992" />
    </g>
    <!-- 2&#45;&gt;7 -->
    <g
       id="edge13"
       class="edge">
      <title
         id="title4397">2-&gt;7</title>
      <path
         d="m 660.433,-1063.75 c 4.183,13.9 7.922,28.03 10.697,41.75 36.289,179.412 39.046,393.45 39.319,518.208"
         id="path4399"
         inkscape:connector-curvature="0"
         style="fill:none;stroke:#000000;stroke-width:3.73333001" />
      <polygon
         points="713.949,-503.49 710.467,-493.484 706.949,-503.478 713.949,-503.49 "
         id="polygon4401"
         style="fill:#000000;stroke:#000000;stroke-width:3.73333001" />
    </g>
    <!-- 2&#45;&gt;8 -->
    <g
       id="edge14"
       class="edge">
      <title
         id="title4404">2-&gt;8</title>
      <path
         d="m 578.461,-1066.12 c -5.633,14.37 -11.422,29.12 -17.121,43.65"
         id="path4406"
         inkscape:connector-curvature="0"
         style="fill:none;stroke:#000000;stroke-width:3.4000001" />
      <polygon
         points="564.521,-1020.99 557.611,-1012.96 558.004,-1023.54 564.521,-1020.99 "
         id="polygon4408"
         style="fill:#000000;stroke:#000000;stroke-width:3.4000001" />
    </g>
    <!-- 3&#45;&gt;1 -->
    <g
       id="edge15"
       class="edge">
      <title
         id="title4411">3-&gt;1</title>
      <path
         d="m 646.032,-2004.42 c 26.779,-27.54 57.117,-59.35 84.643,-88.72"
         id="path4413"
         inkscape:connector-curvature="0"
         style="fill:none;stroke:#000000;stroke-width:3.33332992" />
      <polygon
         points="728.221,-2095.64 737.608,-2100.56 733.332,-2090.86 728.221,-2095.64 "
         id="polygon4415"
         style="fill:#000000;stroke:#000000;stroke-width:3.33332992" />
    </g>
    <!-- 3&#45;&gt;2 -->
    <g
       id="edge16"
       class="edge">
      <title
         id="title4418">3-&gt;2</title>
      <path
         d="m 573.495,-1826.39 c 6.903,133.67 22.927,366.33 35.175,512.49"
         id="path4420"
         inkscape:connector-curvature="0"
         style="fill:none;stroke:#000000;stroke-width:4.26667023" />
      <polygon
         points="612.424,-1313.81 609.545,-1303.53 604.984,-1313.18 612.424,-1313.81 "
         id="polygon4422"
         style="fill:#000000;stroke:#000000;stroke-width:4.26667023" />
    </g>
    <!-- 3&#45;&gt;3 -->
    <g
       id="edge17"
       class="edge">
      <title
         id="title4425">3-&gt;3</title>
      <path
         d="m 666.018,-1974.31 c 16.029,5.98 27.112,20.42 27.112,43.31 0,18.24 -7.038,31.11 -18.008,38.62"
         id="path4427"
         inkscape:connector-curvature="0"
         style="fill:none;stroke:#000000;stroke-width:3.73333001" />
      <polygon
         points="676.51,-1889.16 666.018,-1887.69 673.301,-1895.38 676.51,-1889.16 "
         id="polygon4429"
         style="fill:#000000;stroke:#000000;stroke-width:3.73333001" />
    </g>
    <!-- 3&#45;&gt;4 -->
    <g
       id="edge18"
       class="edge">
      <title
         id="title4432">3-&gt;4</title>
      <path
         d="m 467.444,-1920.07 c -92.113,14.16 -224.369,48.29 -306.314,130.07 -116.7089,116.47 -123.0005,185.12 -123.0005,350 0,0 0,0 0,809 0,129.679 44.9771,271.412 85.7475,370.217"
         id="path4434"
         inkscape:connector-curvature="0"
         style="fill:none;stroke:#000000;stroke-width:3.46667004" />
      <polygon
         points="127.189,-261.934 127.808,-251.357 120.729,-259.24 127.189,-261.934 "
         id="polygon4436"
         style="fill:#000000;stroke:#000000;stroke-width:3.46667004" />
    </g>
    <!-- 3&#45;&gt;6 -->
    <g
       id="edge19"
       class="edge">
      <title
         id="title4439">3-&gt;6</title>
      <path
         d="m 644.487,-1856.34 c 117.698,126.38 335.643,397.75 335.643,674.34 0,0 0,0 0,551 0,146.611 -4.502,183.692 -24,329 -1.56,11.623 -3.423,23.653 -5.458,35.69"
         id="path4441"
         inkscape:connector-curvature="0"
         style="fill:none;stroke:#000000;stroke-width:3.86666989" />
      <polygon
         points="954.078,-265.464 948.925,-256.207 947.18,-266.657 954.078,-265.464 "
         id="polygon4443"
         style="fill:#000000;stroke:#000000;stroke-width:3.86666989" />
    </g>
    <!-- 3&#45;&gt;7 -->
    <g
       id="edge20"
       class="edge">
      <title
         id="title4446">3-&gt;7</title>
      <path
         d="m 612.241,-1834.71 c 49.667,120.79 130.358,336.68 160.889,530.71 45.384,288.44 -6.459,633.846 -38.49,802.359"
         id="path4448"
         inkscape:connector-curvature="0"
         style="fill:none;stroke:#000000;stroke-width:4.86667013" />
      <polygon
         points="738.815,-500.802 732.75,-491.783 730.451,-502.406 738.815,-500.802 "
         id="polygon4450"
         style="fill:#000000;stroke:#000000;stroke-width:4.86667013" />
    </g>
    <!-- 3&#45;&gt;8 -->
    <g
       id="edge21"
       class="edge">
      <title
         id="title4453">3-&gt;8</title>
      <path
         d="m 551.403,-1828.11 c -29.142,162.62 -78.401,490.97 -60.273,770.11 0.583,8.99 1.348,18.24 2.24,27.54"
         id="path4455"
         inkscape:connector-curvature="0"
         style="fill:none;stroke:#000000;stroke-width:6.53332996" />
      <polygon
         points="499.074,-1030.86 494.385,-1020.34 487.698,-1029.72 499.074,-1030.86 "
         id="polygon4457"
         style="fill:#000000;stroke:#000000;stroke-width:6.53332996" />
    </g>
    <!-- 3&#45;&gt;9 -->
    <g
       id="edge22"
       class="edge">
      <title
         id="title4460">3-&gt;9</title>
      <path
         d="m 467.433,-1919.8 c -82.842,14.21 -193.926,48.26 -249.303,129.8 -114.868,169.13 20.453,795.608 81.822,1049.297"
         id="path4462"
         inkscape:connector-curvature="0"
         style="fill:none;stroke:#000000;stroke-width:4.46667004" />
      <polygon
         points="303.81,-741.376 302.371,-730.737 296.214,-739.532 303.81,-741.376 "
         id="polygon4464"
         style="fill:#000000;stroke:#000000;stroke-width:4.46667004" />
    </g>
    <!-- 10 -->
    <g
       id="node10"
       class="node">
      <title
         id="title4467">10</title>
      <ellipse
         cx="335.13"
         cy="-1682"
         rx="107.25"
         ry="107.5"
         id="ellipse4469"
         d="m 442.38,-1682 c 0,59.3706 -48.01746,107.5 -107.25,107.5 -59.23253,0 -107.25,-48.1294 -107.25,-107.5 0,-59.3706 48.01747,-107.5 107.25,-107.5 59.23254,0 107.25,48.1294 107.25,107.5 z"
         sodipodi:cx="335.13"
         sodipodi:cy="-1682"
         sodipodi:rx="107.25"
         sodipodi:ry="107.5"
         style="fill:#d7191c;stroke:#000000" />
    </g>
    <!-- 3&#45;&gt;10 -->
    <g
       id="edge23"
       class="edge">
      <title
         id="title4472">3-&gt;10</title>
      <path
         d="m 499.361,-1854.89 c -26.267,27.5 -56.164,58.79 -83.185,87.07"
         id="path4474"
         inkscape:connector-curvature="0"
         style="fill:none;stroke:#000000;stroke-width:4" />
      <polygon
         points="418.444,-1765.13 409.005,-1760.32 413.383,-1769.97 418.444,-1765.13 "
         id="polygon4476"
         style="fill:#000000;stroke:#000000;stroke-width:4" />
    </g>
    <!-- 4&#45;&gt;3 -->
    <g
       id="edge24"
       class="edge">
      <title
         id="title4479">4-&gt;3</title>
      <path
         d="M 140.217,-256.629 C 102.384,-355.588 56.1295,-499.492 56.1295,-631 c 0,-809 0,-809 0,-809 0,-164.88 6.2916,-233.53 123.0005,-350 74.884,-74.73 191.781,-109.67 278.496,-125.95"
         id="path4481"
         inkscape:connector-curvature="0"
         style="fill:none;stroke:#000000;stroke-width:4.13332987" />
      <polygon
         points="457.027,-1919.51 467.513,-1917.75 458.322,-1912.4 457.027,-1919.51 "
         id="polygon4483"
         style="fill:#000000;stroke:#000000;stroke-width:4.13332987" />
    </g>
    <!-- 4&#45;&gt;5 -->
    <g
       id="edge25"
       class="edge">
      <title
         id="title4486">4-&gt;5</title>
      <path
         d="m 196.704,-265.441 c 4.535,-121.794 11.157,-307.85 28.426,-468.559 22.916,-213.271 69.224,-459.89 94.05,-597.32"
         id="path4488"
         inkscape:connector-curvature="0"
         style="fill:none;stroke:#000000;stroke-width:6.5999999" />
      <polygon
         points="313.545,-1332.62 321.003,-1341.43 324.912,-1330.57 313.545,-1332.62 "
         id="polygon4490"
         style="fill:#000000;stroke:#000000;stroke-width:6.5999999" />
    </g>
    <!-- 4&#45;&gt;7 -->
    <g
       id="edge26"
       class="edge">
      <title
         id="title4493">4-&gt;7</title>
      <path
         d="m 311.809,-180.322 c 77.008,-31.525 177.193,-75.731 262.321,-121.678 18.125,-9.783 36.976,-21.007 54.745,-32.234"
         id="path4495"
         inkscape:connector-curvature="0"
         style="fill:none;stroke:#000000;stroke-width:4.93333006" />
      <polygon
         points="626.751,-337.999 637.504,-339.738 631.395,-330.721 626.751,-337.999 "
         id="polygon4497"
         style="fill:#000000;stroke:#000000;stroke-width:4.93333006" />
    </g>
    <!-- 4&#45;&gt;8 -->
    <g
       id="edge27"
       class="edge">
      <title
         id="title4500">4-&gt;8</title>
      <path
         d="M 273.9,-234.041 C 334.388,-310.16 412.03,-420.207 455.13,-530 c 28.647,-72.977 42.933,-159.482 50.04,-229.957"
         id="path4502"
         inkscape:connector-curvature="0"
         style="fill:none;stroke:#000000;stroke-width:4.5999999" />
      <polygon
         points="501.195,-760.671 506.167,-770.235 509.208,-759.893 501.195,-760.671 "
         id="polygon4504"
         style="fill:#000000;stroke:#000000;stroke-width:4.5999999" />
    </g>
    <!-- 4&#45;&gt;9 -->
    <g
       id="edge28"
       class="edge">
      <title
         id="title4507">4-&gt;9</title>
      <path
         d="m 223.624,-260.911 c 22.79,-81.487 52.054,-186.122 73.648,-263.33"
         id="path4509"
         inkscape:connector-curvature="0"
         style="fill:none;stroke:#000000;stroke-width:3.46667004" />
      <polygon
         points="293.935,-525.306 299.999,-533.994 300.676,-523.42 293.935,-525.306 "
         id="polygon4511"
         style="fill:#000000;stroke:#000000;stroke-width:3.46667004" />
    </g>
    <!-- 4&#45;&gt;10 -->
    <g
       id="edge29"
       class="edge">
      <title
         id="title4514">4-&gt;10</title>
      <path
         d="m 184.803,-265.542 c -1.865,-77.062 -4.12,-176.277 -5.673,-264.458 -7.891,-447.994 -165.5977,-598.83 17,-1008 11.309,-25.34 29.164,-48.83 48.356,-69.15"
         id="path4516"
         inkscape:connector-curvature="0"
         style="fill:none;stroke:#000000;stroke-width:3.33332992" />
      <polygon
         points="242.132,-1609.75 251.608,-1614.49 247.155,-1604.88 242.132,-1609.75 "
         id="polygon4518"
         style="fill:#000000;stroke:#000000;stroke-width:3.33332992" />
    </g>
    <!-- 5&#45;&gt;2 -->
    <g
       id="edge30"
       class="edge">
      <title
         id="title4521">5-&gt;2</title>
      <path
         d="m 405.512,-1370.07 c 34.813,31.66 77.449,69.67 115.741,103.2"
         id="path4523"
         inkscape:connector-curvature="0"
         style="fill:none;stroke:#000000;stroke-width:4.73332977" />
      <polygon
         points="524.049,-1269.93 528.85,-1260.23 518.596,-1263.69 524.049,-1269.93 "
         id="polygon4525"
         style="fill:#000000;stroke:#000000;stroke-width:4.73332977" />
    </g>
    <!-- 5&#45;&gt;3 -->
    <g
       id="edge31"
       class="edge">
      <title
         id="title4528">5-&gt;3</title>
      <path
         d="m 405.181,-1508.39 c 17.116,-19.8 33.939,-42.38 45.949,-65.61 45.388,-87.81 19.71,-122.93 53,-216 4.527,-12.66 9.834,-25.7 15.446,-38.49"
         id="path4530"
         inkscape:connector-curvature="0"
         style="fill:none;stroke:#000000;stroke-width:5.13332987" />
      <polygon
         points="515.532,-1830.46 523.709,-1837.76 523.736,-1826.8 515.532,-1830.46 "
         id="polygon4532"
         style="fill:#000000;stroke:#000000;stroke-width:5.13332987" />
    </g>
    <!-- 5&#45;&gt;4 -->
    <g
       id="edge32"
       class="edge">
      <title
         id="title4535">5-&gt;4</title>
      <path
         d="m 309.501,-1343.71 c -30.271,134.6 -78.749,389.869 -102.371,609.71 -16.797,156.315 -23.521,336.609 -24.373,458.426"
         id="path4537"
         inkscape:connector-curvature="0"
         style="fill:none;stroke:#000000;stroke-width:3.46667004" />
      <polygon
         points="186.257,-275.42 182.699,-265.441 179.257,-275.46 186.257,-275.42 "
         id="polygon4539"
         style="fill:#000000;stroke:#000000;stroke-width:3.46667004" />
    </g>
    <!-- 5&#45;&gt;5 -->
    <g
       id="edge33"
       class="edge">
      <title
         id="title4542">5-&gt;5</title>
      <path
         d="m 423.639,-1481.88 c 16.158,5.43 27.491,19.72 27.491,42.88 0,18.46 -7.197,31.28 -18.297,38.48"
         id="path4544"
         inkscape:connector-curvature="0"
         style="fill:none;stroke:#000000;stroke-width:8.39999962" />
      <polygon
         points="435.833,-1393.81 423.639,-1396.12 429.481,-1407.07 435.833,-1393.81 "
         id="polygon4546"
         style="fill:#000000;stroke:#000000;stroke-width:8.39999962" />
    </g>
    <!-- 5&#45;&gt;7 -->
    <g
       id="edge34"
       class="edge">
      <title
         id="title4549">5-&gt;7</title>
      <path
         d="m 341.728,-1340.66 c 0.819,12.34 1.636,24.79 2.402,36.66 3.825,59.32 -0.569,484.938 33,534 21.56,31.511 49.51,10.581 78,36 79.169,70.639 57.992,120.93 124,204 16.69,21.005 36.533,42.071 55.764,60.979"
         id="path4551"
         inkscape:connector-curvature="0"
         style="fill:none;stroke:#000000;stroke-width:6.4000001" />
      <polygon
         points="638.966,-472.872 642.227,-461.885 631.155,-464.846 638.966,-472.872 "
         id="polygon4553"
         style="fill:#000000;stroke:#000000;stroke-width:6.4000001" />
    </g>
    <!-- 5&#45;&gt;8 -->
    <g
       id="edge35"
       class="edge">
      <title
         id="title4556">5-&gt;8</title>
      <path
         d="m 362.022,-1344.16 c 3.564,13.44 7.04,27.12 10.108,40.16 25.509,108.43 9.183,141.59 48,246 5.767,15.51 12.928,31.29 20.69,46.6"
         id="path4558"
         inkscape:connector-curvature="0"
         style="fill:none;stroke:#000000;stroke-width:6.33333015" />
      <polygon
         points="445.779,-1013.88 445.454,-1002.45 435.936,-1008.79 445.779,-1013.88 "
         id="polygon4560"
         style="fill:#000000;stroke:#000000;stroke-width:6.33333015" />
    </g>
    <!-- 5&#45;&gt;9 -->
    <g
       id="edge36"
       class="edge">
      <title
         id="title4563">5-&gt;9</title>
      <path
         d="m 329.569,-1340.5 c -4.294,150.53 -7.234,438.619 -6.164,596.781"
         id="path4565"
         inkscape:connector-curvature="0"
         style="fill:none;stroke:#000000;stroke-width:4.19999981" />
      <polygon
         points="327.082,-743.519 323.481,-733.492 319.732,-743.464 327.082,-743.519 "
         id="polygon4567"
         style="fill:#000000;stroke:#000000;stroke-width:4.19999981" />
    </g>
    <!-- 5&#45;&gt;10 -->
    <g
       id="edge37"
       class="edge">
      <title
         id="title4570">5-&gt;10</title>
      <path
         d="m 341.769,-1537.45 c 0.086,-8.88 0.122,-17.94 0.107,-26.97"
         id="path4572"
         inkscape:connector-curvature="0"
         style="fill:none;stroke:#000000;stroke-width:3.66667008" />
      <polygon
         points="338.376,-1564.58 341.838,-1574.59 345.376,-1564.61 338.376,-1564.58 "
         id="polygon4574"
         style="fill:#000000;stroke:#000000;stroke-width:3.66667008" />
    </g>
    <!-- 6&#45;&gt;1 -->
    <g
       id="edge38"
       class="edge">
      <title
         id="title4577">6-&gt;1</title>
      <path
         d="m 967.045,-250.538 c 5.359,-17.088 10.276,-34.608 14.085,-51.462 32.43,-143.526 37,-181.856 37,-329 0,-1052 0,-1052 0,-1052 0,-163.06 -31.39,-205.07 -100,-353 -7.731,-16.67 -17.17,-33.55 -27.163,-49.71"
         id="path4579"
         inkscape:connector-curvature="0"
         style="fill:none;stroke:#000000;stroke-width:4.80000019" />
      <polygon
         points="887.138,-2083.91 885.365,-2094.61 894.247,-2088.38 887.138,-2083.91 "
         id="polygon4581"
         style="fill:#000000;stroke:#000000;stroke-width:4.80000019" />
    </g>
    <!-- 6&#45;&gt;9 -->
    <g
       id="edge39"
       class="edge">
      <title
         id="title4584">6-&gt;9</title>
      <path
         d="M 807.909,-182.652 C 745.343,-212.113 668.641,-253.372 608.13,-302 522.292,-370.981 442.615,-468.848 390.193,-539.896"
         id="path4586"
         inkscape:connector-curvature="0"
         style="fill:none;stroke:#000000;stroke-width:4.5999999" />
      <polygon
         points="386.926,-537.544 384.254,-547.988 393.416,-542.307 386.926,-537.544 "
         id="polygon4588"
         style="fill:#000000;stroke:#000000;stroke-width:4.5999999" />
    </g>
    <!-- 6&#45;&gt;10 -->
    <g
       id="edge40"
       class="edge">
      <title
         id="title4591">6-&gt;10</title>
      <path
         d="M 935.945,-258.055 C 953.173,-482.251 962.503,-963.219 773.13,-1304 694.205,-1446.03 539.853,-1559.23 437.09,-1623.24"
         id="path4593"
         inkscape:connector-curvature="0"
         style="fill:none;stroke:#000000;stroke-width:4.13332987" />
      <polygon
         points="435.152,-1620.19 428.549,-1628.52 438.956,-1626.34 435.152,-1620.19 "
         id="polygon4595"
         style="fill:#000000;stroke:#000000;stroke-width:4.13332987" />
    </g>
    <!-- 7&#45;&gt;1 -->
    <g
       id="edge41"
       class="edge">
      <title
         id="title4598">7-&gt;1</title>
      <path
         d="m 760.39,-481.116 c 6.693,-15.979 12.909,-32.774 17.74,-48.884 117.787,-392.805 164,-497.91 164,-908 0,-245 0,-245 0,-245 0,-136.1 -40.991,-287.54 -76.496,-388.96"
         id="path4600"
         inkscape:connector-curvature="0"
         style="fill:none;stroke:#000000;stroke-width:3.53332996" />
      <polygon
         points="862.254,-2071.03 862.217,-2081.62 868.852,-2073.36 862.254,-2071.03 "
         id="polygon4602"
         style="fill:#000000;stroke:#000000;stroke-width:3.53332996" />
    </g>
    <!-- 7&#45;&gt;2 -->
    <g
       id="edge42"
       class="edge">
      <title
         id="title4605">7-&gt;2</title>
      <path
         d="m 722.827,-493.219 c 5.481,-122.952 3.639,-344.193 -33.697,-528.781 -2.534,-12.53 -5.871,-25.4 -9.707,-38.12"
         id="path4607"
         inkscape:connector-curvature="0"
         style="fill:none;stroke:#000000;stroke-width:4" />
      <polygon
         points="676.035,-1059.23 676.397,-1069.82 682.717,-1061.31 676.035,-1059.23 "
         id="polygon4609"
         style="fill:#000000;stroke:#000000;stroke-width:4" />
    </g>
    <!-- 7&#45;&gt;4 -->
    <g
       id="edge43"
       class="edge">
      <title
         id="title4612">7-&gt;4</title>
      <path
         d="m 632.126,-347.396 c -24.077,15.335 -50.74,31.764 -75.996,45.396 -76.793,41.448 -165.839,81.48 -237.133,112.064"
         id="path4614"
         inkscape:connector-curvature="0"
         style="fill:none;stroke:#000000;stroke-width:3.79999995" />
      <polygon
         points="320.075,-186.591 309.504,-185.875 317.321,-193.026 320.075,-186.591 "
         id="polygon4616"
         style="fill:#000000;stroke:#000000;stroke-width:3.79999995" />
    </g>
    <!-- 7&#45;&gt;6 -->
    <g
       id="edge44"
       class="edge">
      <title
         id="title4619">7-&gt;6</title>
      <path
         d="m 772.185,-323.04 c 20.736,25.97 44.45,55.669 66.843,83.713"
         id="path4621"
         inkscape:connector-curvature="0"
         style="fill:none;stroke:#000000;stroke-width:8.66666985" />
      <polygon
         points="844.991,-244.012 845.305,-231.466 833.139,-234.549 844.991,-244.012 "
         id="polygon4623"
         style="fill:#000000;stroke:#000000;stroke-width:8.66666985" />
    </g>
    <!-- 7&#45;&gt;7 -->
    <g
       id="edge45"
       class="edge">
      <title
         id="title4626">7-&gt;7</title>
      <path
         d="m 798.866,-439.623 c 15.997,5.126 27.264,19 27.264,41.623 0,18.028 -7.155,30.5 -18.156,37.417"
         id="path4628"
         inkscape:connector-curvature="0"
         style="fill:none;stroke:#000000;stroke-width:4.66666985" />
      <polygon
         points="809.657,-356.863 798.866,-356.377 806.233,-364.277 809.657,-356.863 "
         id="polygon4630"
         style="fill:#000000;stroke:#000000;stroke-width:4.66666985" />
    </g>
    <!-- 7&#45;&gt;8 -->
    <g
       id="edge46"
       class="edge">
      <title
         id="title4633">7-&gt;8</title>
      <path
         d="m 677.517,-486.88 c -31.878,-78.664 -78.97,-194.871 -114.76,-283.187"
         id="path4635"
         inkscape:connector-curvature="0"
         style="fill:none;stroke:#000000;stroke-width:4.46667004" />
      <polygon
         points="559.135,-768.6 559.001,-779.336 566.379,-771.536 559.135,-768.6 "
         id="polygon4637"
         style="fill:#000000;stroke:#000000;stroke-width:4.46667004" />
    </g>
    <!-- 7&#45;&gt;9 -->
    <g
       id="edge47"
       class="edge">
      <title
         id="title4640">7-&gt;9</title>
      <path
         d="m 649.698,-469.444 c -11.845,-9.219 -24.589,-17.793 -37.568,-24.556 -57.741,-30.084 -83.292,-7.851 -142,-36 -18.737,-8.984 -37.436,-20.802 -54.857,-33.178"
         id="path4642"
         inkscape:connector-curvature="0"
         style="fill:none;stroke:#000000;stroke-width:5.26667023" />
      <polygon
         points="412.228,-559.693 406.828,-569.288 417.631,-567.16 412.228,-559.693 "
         id="polygon4644"
         style="fill:#000000;stroke:#000000;stroke-width:5.26667023" />
    </g>
    <!-- 8&#45;&gt;1 -->
    <g
       id="edge48"
       class="edge">
      <title
         id="title4647">8-&gt;1</title>
      <path
         d="m 629.899,-938.943 c 54.84,-26.181 115.823,-65.267 152.231,-119.057 96.083,-141.96 66,-208.58 66,-380 0,-245 0,-245 0,-245 0,-129.58 -7.951,-277.62 -16.416,-379.95"
         id="path4649"
         inkscape:connector-curvature="0"
         style="fill:none;stroke:#000000;stroke-width:5" />
      <polygon
         points="827.346,-2062.68 830.867,-2073.01 836.065,-2063.42 827.346,-2062.68 "
         id="polygon4651"
         style="fill:#000000;stroke:#000000;stroke-width:5" />
    </g>
    <!-- 8&#45;&gt;9 -->
    <g
       id="edge49"
       class="edge">
      <title
         id="title4654">8-&gt;9</title>
      <path
         d="m 440.074,-792.954 c -16.103,22.806 -33.077,46.844 -48.833,69.158"
         id="path4656"
         inkscape:connector-curvature="0"
         style="fill:none;stroke:#000000;stroke-width:7.33333015" />
      <polygon
         points="396.276,-719.802 385.266,-715.334 385.792,-727.204 396.276,-719.802 "
         id="polygon4658"
         style="fill:#000000;stroke:#000000;stroke-width:7.33333015" />
    </g>
    <!-- 8&#45;&gt;10 -->
    <g
       id="edge50"
       class="edge">
      <title
         id="title4661">8-&gt;10</title>
      <path
         d="m 468.118,-1013.71 c -4.107,-14.73 -7.614,-29.74 -9.988,-44.29 -17.614,-107.91 -3.034,-136.71 0,-246 0.444,-16.02 1.555,-19.98 2,-36 2.441,-87.97 30.931,-115.62 0,-198 -8.659,-23.06 -22.909,-44.84 -38.75,-64.12"
         id="path4663"
         inkscape:connector-curvature="0"
         style="fill:none;stroke:#000000;stroke-width:6.80000019" />
      <polygon
         points="416.675,-1598.47 414.752,-1609.95 425.755,-1606.16 416.675,-1598.47 "
         id="polygon4665"
         style="fill:#000000;stroke:#000000;stroke-width:6.80000019" />
    </g>
    <!-- 9&#45;&gt;5 -->
    <g
       id="edge51"
       class="edge">
      <title
         id="title4668">9-&gt;5</title>
      <path
         d="m 332.775,-733.492 c 4.276,-152.327 7.181,-440.458 6.057,-596.898"
         id="path4670"
         inkscape:connector-curvature="0"
         style="fill:none;stroke:#000000;stroke-width:10" />
      <polygon
         points="330.082,-1330.43 338.753,-1340.5 347.581,-1330.57 330.082,-1330.43 "
         id="polygon4672"
         style="fill:#000000;stroke:#000000;stroke-width:10" />
    </g>
    <!-- 9&#45;&gt;7 -->
    <g
       id="edge52"
       class="edge">
      <title
         id="title4675">9-&gt;7</title>
      <path
         d="m 400.057,-561.45 c 16.382,11.745 34.21,22.885 52.073,31.45 58.708,28.149 84.259,5.916 142,36 13.584,7.078 26.911,16.14 39.459,25.849"
         id="path4677"
         inkscape:connector-curvature="0"
         style="fill:none;stroke:#000000;stroke-width:7.80000019" />
      <polygon
         points="638.133,-473.257 641.717,-461.693 629.641,-462.57 638.133,-473.257 "
         id="polygon4679"
         style="fill:#000000;stroke:#000000;stroke-width:7.80000019" />
    </g>
    <!-- 9&#45;&gt;9 -->
    <g
       id="edge53"
       class="edge">
      <title
         id="title4682">9-&gt;9</title>
      <path
         d="m 419.932,-672.779 c 15.501,5.705 26.198,19.299 26.198,40.779 0,16.949 -6.66,28.988 -17.085,36.116"
         id="path4684"
         inkscape:connector-curvature="0"
         style="fill:none;stroke:#000000;stroke-width:9.06667042" />
      <polygon
         points="432.448,-588.714 419.932,-591.221 425.22,-602.839 432.448,-588.714 "
         id="polygon4686"
         style="fill:#000000;stroke:#000000;stroke-width:9.06667042" />
    </g>
    <!-- 10&#45;&gt;5 -->
    <g
       id="edge54"
       class="edge">
      <title
         id="title4689">10-&gt;5</title>
      <path
         d="m 328.421,-1574.59 c -0.053,8.98 -0.055,18.06 -0.007,27.05"
         id="path4691"
         inkscape:connector-curvature="0"
         style="fill:none;stroke:#000000;stroke-width:9.60000038" />
      <polygon
         points="336.815,-1547.51 328.491,-1537.45 320.015,-1547.38 336.815,-1547.51 "
         id="polygon4693"
         style="fill:#000000;stroke:#000000;stroke-width:9.60000038" />
    </g>
    <!-- 10&#45;&gt;7 -->
    <g
       id="edge55"
       class="edge">
      <title
         id="title4696">10-&gt;7</title>
      <path
         d="m 262.235,-1602.65 c -14.303,19.74 -27.286,41.84 -35.105,64.65 -36.324,105.95 -79.367,919.278 -11,1008 47.508,61.654 261.07,100.113 392.303,118.359"
         id="path4698"
         inkscape:connector-curvature="0"
         style="fill:none;stroke:#000000;stroke-width:8.19999981" />
      <polygon
         points="609.587,-418.725 618.518,-410.256 607.635,-404.508 609.587,-418.725 "
         id="polygon4700"
         style="fill:#000000;stroke:#000000;stroke-width:8.19999981" />
    </g>
  </g>
</svg>
