<?xml version="1.0" encoding="UTF-8" standalone="no"?>
<!-- Generated by graphviz version 2.36.0 (20140111.2315)
 -->

<!-- Title: G Pages: 1 -->

<svg
   xmlns:dc="http://purl.org/dc/elements/1.1/"
   xmlns:cc="http://creativecommons.org/ns#"
   xmlns:rdf="http://www.w3.org/1999/02/22-rdf-syntax-ns#"
   xmlns:svg="http://www.w3.org/2000/svg"
   xmlns="http://www.w3.org/2000/svg"
   xmlns:sodipodi="http://sodipodi.sourceforge.net/DTD/sodipodi-0.dtd"
   xmlns:inkscape="http://www.inkscape.org/namespaces/inkscape"
   width="558.125"
   height="335.15625"
   viewBox="0 0 446.5 268.125"
   id="svg3103"
   version="1.1"
   inkscape:version="0.48.4 r9939"
   sodipodi:docname="PuntaBanda-Par_3_0.dot.svg">
  <metadata
     id="metadata3203">
    <rdf:RDF>
      <cc:Work
         rdf:about="">
        <dc:format>image/svg+xml</dc:format>
        <dc:type
           rdf:resource="http://purl.org/dc/dcmitype/StillImage" />
      </cc:Work>
    </rdf:RDF>
  </metadata>
  <defs
     id="defs3201" />
  <sodipodi:namedview
     pagecolor="#ffffff"
     bordercolor="#666666"
     borderopacity="1"
     objecttolerance="10"
     gridtolerance="10"
     guidetolerance="10"
     inkscape:pageopacity="0"
     inkscape:pageshadow="2"
     inkscape:window-width="701"
     inkscape:window-height="480"
     id="namedview3199"
     showgrid="false"
     fit-margin-top="0"
     fit-margin-left="0"
     fit-margin-right="0"
     fit-margin-bottom="0"
     inkscape:zoom="0.41585903"
     inkscape:cx="278.975"
     inkscape:cy="167.275"
     inkscape:window-x="65"
     inkscape:window-y="24"
     inkscape:window-maximized="0"
     inkscape:current-layer="svg3103" />
  <g
     id="graph0"
     class="graph"
     transform="matrix(0,-1,1,0,446.5,267.625)">
    <title
       id="title3106">G</title>
    <!-- 1 -->
    <g
       id="node1"
       class="node">
      <title
         id="title3109">1</title>
      <path
         d="m 183,-380 c 0,0 66,0 66,0 0,-1.296 -0.038,-2.592 -0.114,-3.885 -0.077,-1.294 -0.191,-2.585 -0.343,-3.872 -0.153,-1.287 -0.343,-2.57 -0.571,-3.846 -0.228,-1.275 -0.493,-2.544 -0.796,-3.804 -0.302,-1.261 -0.642,-2.512 -1.018,-3.752 -0.376,-1.24 -0.789,-2.469 -1.237,-3.685 -0.449,-1.216 -0.933,-2.418 -1.453,-3.605 -0.519,-1.188 -1.073,-2.36 -1.662,-3.514 0,0 -58.806,29.963 -58.806,29.963"
         id="path3111"
         inkscape:connector-curvature="0"
         style="fill:#abdda4;stroke:#000000;stroke-width:0.5" />
      <path
         d="m 183,-380 c 0,0 58.806,-29.963 58.806,-29.963 -0.686,-1.348 -1.419,-2.671 -2.196,-3.968 -0.777,-1.297 -1.599,-2.567 -2.464,-3.807 -0.864,-1.24 -1.771,-2.451 -2.719,-3.629 -0.947,-1.178 -1.935,-2.324 -2.962,-3.434 -1.026,-1.11 -2.09,-2.185 -3.191,-3.222 -1.1,-1.037 -2.235,-2.036 -3.404,-2.996 -1.169,-0.959 -2.37,-1.878 -3.602,-2.754 -1.232,-0.877 -2.494,-1.711 -3.783,-2.501 -1.289,-0.79 -2.605,-1.536 -3.946,-2.235 -1.34,-0.7 -2.704,-1.353 -4.09,-1.959 -1.385,-0.606 -2.791,-1.165 -4.214,-1.674 -1.424,-0.509 -2.865,-0.97 -4.32,-1.38 -1.455,-0.41 -2.924,-0.771 -4.404,-1.08 -1.48,-0.31 -2.97,-0.568 -4.468,-0.776 -1.498,-0.207 -3.002,-0.362 -4.511,-0.466 -1.508,-0.104 -3.02,-0.156 -4.532,-0.156 -1.512,0 -3.024,0.052 -4.532,0.156 -1.509,0.104 -3.013,0.259 -4.511,0.466 -1.498,0.208 -2.988,0.466 -4.468,0.776 -1.48,0.309 -2.949,0.67 -4.404,1.08 -1.455,0.41 -2.896,0.871 -4.32,1.38 -1.423,0.509 -2.829,1.068 -4.214,1.674 -1.386,0.606 -2.75,1.259 -4.09,1.959 -1.341,0.699 -2.657,1.445 -3.946,2.235 -1.289,0.79 -2.551,1.624 -3.783,2.501 -1.232,0.876 -2.433,1.795 -3.602,2.754 -1.169,0.96 -2.304,1.959 -3.404,2.996 -1.101,1.037 -2.165,2.112 -3.191,3.222 -1.027,1.11 -2.015,2.256 -2.962,3.434 -0.948,1.178 -1.855,2.389 -2.719,3.629 -0.865,1.24 -1.687,2.51 -2.464,3.807 -0.777,1.297 -1.51,2.62 -2.196,3.968 0,0 58.806,29.963 58.806,29.963"
         id="path3113"
         inkscape:connector-curvature="0"
         style="fill:#2b83ba;stroke:#000000;stroke-width:0.5" />
      <path
         d="m 183,-380 c 0,0 -58.806,-29.963 -58.806,-29.963 -0.613,1.202 -1.189,2.424 -1.727,3.662 -0.538,1.238 -1.038,2.493 -1.499,3.761 -0.461,1.269 -0.883,2.552 -1.265,3.847 -0.383,1.294 -0.725,2.601 -1.028,3.916 -0.302,1.316 -0.564,2.641 -0.785,3.973 -0.221,1.331 -0.401,2.67 -0.54,4.013 -0.139,1.342 -0.236,2.689 -0.293,4.038 -0.056,1.349 -0.071,2.699 -0.044,4.049 0.026,1.35 0.094,2.698 0.203,4.044 0.11,1.345 0.26,2.687 0.452,4.024 0.191,1.336 0.424,2.666 0.697,3.988 0.273,1.322 0.586,2.636 0.94,3.939 0.354,1.302 0.747,2.594 1.18,3.873 0.433,1.279 0.905,2.544 1.416,3.793 0.51,1.25 1.059,2.484 1.645,3.7 0.586,1.216 1.21,2.414 1.869,3.592 0.66,1.178 1.356,2.335 2.086,3.47 0.731,1.136 1.496,2.248 2.295,3.336 0.799,1.089 1.631,2.152 2.495,3.189 0.864,1.038 1.76,2.048 2.686,3.03 0.926,0.983 1.882,1.936 2.867,2.86 0.984,0.924 1.997,1.817 3.036,2.679 1.039,0.861 2.105,1.691 3.195,2.487 1.09,0.796 2.205,1.558 3.342,2.286 1.137,0.728 2.296,1.421 3.475,2.078 1.18,0.656 2.379,1.277 3.597,1.86 1.217,0.583 2.453,1.129 3.704,1.636 1.251,0.508 2.517,0.977 3.797,1.406 1.279,0.43 2.572,0.821 3.876,1.171 1.304,0.351 2.618,0.661 3.94,0.931 1.323,0.27 2.654,0.499 3.991,0.687 1.337,0.188 2.679,0.336 4.025,0.442 0,0 5.178,-65.797 5.178,-65.797"
         id="path3115"
         inkscape:connector-curvature="0"
         style="fill:#fdae61;stroke:#000000;stroke-width:0.5" />
      <path
         d="m 183,-380 c 0,0 -5.178,65.797 -5.178,65.797 2.261,0.178 4.53,0.239 6.798,0.183 2.267,-0.056 4.531,-0.228 6.781,-0.517 2.249,-0.289 4.483,-0.693 6.691,-1.212 2.208,-0.518 4.388,-1.151 6.532,-1.894 2.143,-0.743 4.246,-1.596 6.301,-2.556 2.056,-0.96 4.06,-2.025 6.006,-3.191 1.945,-1.166 3.83,-2.432 5.645,-3.792 1.815,-1.36 3.559,-2.813 5.225,-4.353 1.666,-1.539 3.251,-3.164 4.749,-4.867 1.499,-1.703 2.908,-3.482 4.223,-5.33 1.316,-1.848 2.535,-3.763 3.653,-5.737 1.118,-1.973 2.133,-4.003 3.042,-6.082 0.909,-2.078 1.711,-4.202 2.401,-6.362 0.69,-2.161 1.269,-4.356 1.733,-6.576 0.465,-2.22 0.814,-4.463 1.048,-6.72 0.233,-2.256 0.35,-4.523 0.35,-6.791 0,0 -66,0 -66,0"
         id="path3117"
         inkscape:connector-curvature="0"
         style="fill:#d7191c;stroke:#000000;stroke-width:0.5" />
      <ellipse
         cx="183"
         cy="-380"
         rx="66"
         ry="66"
         id="ellipse3119"
         d="m 249,-380 c 0,36.45079 -29.54921,66 -66,66 -36.45079,0 -66,-29.54921 -66,-66 0,-36.45079 29.54921,-66 66,-66 36.45079,0 66,29.54921 66,66 z"
         sodipodi:cx="183"
         sodipodi:cy="-380"
         sodipodi:rx="66"
         sodipodi:ry="66"
         style="fill:none;stroke:#000000" />
    </g>
    <!-- 1&#45;&gt;1 -->
    <g
       id="edge1"
       class="edge">
      <title
         id="title3122">1-&gt;1</title>
      <path
         d="m 241.491,-410.698 c 14.598,2.147 25.509,12.38 25.509,30.698 0,13.882 -6.266,23.12 -15.654,27.715"
         id="path3124"
         inkscape:connector-curvature="0"
         style="fill:none;stroke:#000000;stroke-width:1.27999997" />
      <polygon
         points="252.076,-348.849 241.491,-349.302 250.049,-355.549 252.076,-348.849 "
         id="polygon3126"
         style="fill:#000000;stroke:#000000;stroke-width:1.27999997" />
    </g>
    <!-- 2 -->
    <g
       id="node2"
       class="node">
      <title
         id="title3129">2</title>
      <path
         d="m 64,-214 c 0,0 64,0 64,0 0,-1.787 -0.075,-3.574 -0.224,-5.355 -0.15,-1.782 -0.374,-3.556 -0.672,-5.318 -0.298,-1.763 -0.67,-3.512 -1.115,-5.243 -0.444,-1.731 -0.961,-3.443 -1.549,-5.131 -0.588,-1.689 -1.246,-3.351 -1.973,-4.984 -0.727,-1.633 -1.522,-3.235 -2.383,-4.801 -0.861,-1.567 -1.788,-3.096 -2.777,-4.585 -0.989,-1.489 -2.04,-2.936 -3.151,-4.336 0,0 -50.156,39.753 -50.156,39.753"
         id="path3131"
         inkscape:connector-curvature="0"
         style="fill:#abdda4;stroke:#000000;stroke-width:0.5" />
      <path
         d="m 64,-214 c 0,0 50.156,-39.753 50.156,-39.753 -0.971,-1.226 -1.987,-2.416 -3.046,-3.567 -1.058,-1.151 -2.159,-2.263 -3.299,-3.334 -1.14,-1.071 -2.319,-2.099 -3.534,-3.083 -1.216,-0.985 -2.467,-1.924 -3.751,-2.817 -1.2846,-0.892 -2.6012,-1.737 -3.9474,-2.533 -1.3461,-0.797 -2.7211,-1.543 -4.1219,-2.239 -1.4009,-0.695 -2.8268,-1.339 -4.2749,-1.93 -1.448,-0.591 -2.9173,-1.128 -4.4047,-1.612 C 83.7771,-274.868 64,-214 64,-214"
         id="path3133"
         inkscape:connector-curvature="0"
         style="fill:#2b83ba;stroke:#000000;stroke-width:0.5" />
      <path
         d="m 64,-214 c 0,0 19.7771,-60.868 19.7771,-60.868 -1.2218,-0.397 -2.4553,-0.757 -3.6987,-1.079 -1.2435,-0.323 -2.4964,-0.608 -3.757,-0.856 -1.2606,-0.247 -2.5284,-0.456 -3.8016,-0.627 -1.2733,-0.171 -2.5513,-0.304 -3.8326,-0.398 -1.2812,-0.094 -2.5649,-0.15 -3.8495,-0.167 -1.2845,-0.016 -2.5693,0.006 -3.8525,0.066 -1.2832,0.061 -2.5644,0.16 -3.8416,0.297 -1.2773,0.138 -2.5501,0.314 -3.8168,0.528 -1.2667,0.214 -2.5266,0.467 -3.7781,0.757 -1.2515,0.29 -2.4939,0.618 -3.7257,0.983 -1.2317,0.364 -2.4522,0.766 -3.6598,1.205 -1.2076,0.438 -2.4017,0.913 -3.5807,1.423 -1.179,0.51 -2.3423,1.055 -3.4885,1.636 -1.1462,0.58 -2.2746,1.195 -3.3838,1.843 -1.1091,0.648 -2.1985,1.329 -3.2667,2.043 -1.0682,0.714 -2.1146,1.459 -3.1378,2.236 -1.0233,0.777 -2.023,1.584 -2.9976,2.421 -0.9747,0.837 -1.924,1.703 -2.8465,2.597 -0.9226,0.894 -1.818,1.816 -2.6851,2.763 -0.867,0.948 -1.7054,1.922 -2.5138,2.92 -0.8085,0.999 -1.5867,2.021 -2.3336,3.067 -0.747,1.045 -1.4622,2.112 -2.1449,3.2 -0.68267,1.089 -1.33242,2.197 -1.94836,3.325 -0.61594,1.127 -1.19779,2.273 -1.74477,3.435 -0.54698,1.163 -1.05884,2.341 -1.53488,3.534 -0.47604,1.194 -0.91605,2.401 -1.31942,3.62 -0.40337,1.22 -0.76993,2.452 -1.09918,3.693 -0.32924,1.242 -0.62102,2.494 -0.87495,3.753 -0.25392,1.259 -0.469866,2.526 -0.647546,3.798 -0.177679,1.273 -0.31701,2.55 -0.417804,3.831 -0.1007928,1.28 -0.1630022,2.564 -0.1865435,3.848 -0.0235412,1.285 -0.0084035,2.57 0.0453925,3.853 C 0.056139,-211.32 64,-214 64,-214"
         id="path3135"
         inkscape:connector-curvature="0"
         style="fill:#fdae61;stroke:#000000;stroke-width:0.5" />
      <path
         d="m 64,-214 c 0,0 -63.943861,2.68 -63.943861,2.68 0.086552,2.065 0.273089,4.125 0.558956,6.172 0.285867,2.047 0.670725,4.079 1.153235,6.089 0.4825,2.009 1.06207,3.994 1.73669,5.948 0.67461,1.954 1.44347,3.874 2.30387,5.753 0.8604,1.879 1.81133,3.716 2.84945,5.503 1.03812,1.787 2.16216,3.523 3.36836,5.202 1.2061,1.678 2.4928,3.297 3.8556,4.851 1.3627,1.554 2.8,3.041 4.3067,4.456 1.5067,1.415 3.081,2.756 4.7175,4.018 1.6364,1.263 3.3331,2.445 5.084,3.544 1.7509,1.098 3.554,2.111 5.4029,3.035 1.8489,0.924 3.7415,1.757 5.6711,2.498 1.9295,0.741 3.8939,1.388 5.8861,1.938 1.9922,0.551 4.0098,1.005 6.0459,1.36 2.0361,0.355 4.0883,0.612 6.1492,0.769 2.0609,0.156 4.1282,0.213 6.1946,0.17 2.0664,-0.043 4.1295,-0.187 6.1821,-0.43 2.0525,-0.243 4.0921,-0.585 6.1115,-1.025 2.0195,-0.44 4.0164,-0.978 5.9838,-1.612 1.9673,-0.633 3.9029,-1.362 5.7998,-2.183 1.8968,-0.821 3.7529,-1.733 5.5615,-2.733 1.8086,-1.001 3.5676,-2.088 5.271,-3.259 1.703,-1.171 3.349,-2.423 4.931,-3.753 1.582,-1.33 3.099,-2.736 4.545,-4.213 1.446,-1.476 2.82,-3.022 4.117,-4.632 1.296,-1.61 2.514,-3.281 3.649,-5.009 1.134,-1.727 2.185,-3.509 3.147,-5.338 0.963,-1.829 1.836,-3.704 2.617,-5.617 0.781,-1.914 1.468,-3.864 2.061,-5.844 0.592,-1.981 1.088,-3.988 1.486,-6.017 0.398,-2.028 0.697,-4.074 0.897,-6.131 0.2,-2.057 0.3,-4.123 0.3,-6.19 0,0 -64,0 -64,0"
         id="path3137"
         inkscape:connector-curvature="0"
         style="fill:#d7191c;stroke:#000000;stroke-width:0.5" />
      <ellipse
         cx="64"
         cy="-214"
         rx="64"
         ry="64"
         id="ellipse3139"
         d="m 128,-214 c 0,35.34622 -28.653776,64 -64,64 -35.346224,0 -64,-28.65378 -64,-64 0,-35.34622 28.653776,-64 64,-64 35.346224,0 64,28.65378 64,64 z"
         sodipodi:cx="64"
         sodipodi:cy="-214"
         sodipodi:rx="64"
         sodipodi:ry="64"
         style="fill:none;stroke:#000000" />
    </g>
    <!-- 1&#45;&gt;2 -->
    <g
       id="edge2"
       class="edge">
      <title
         id="title3142">1-&gt;2</title>
      <path
         d="m 144.693,-326.207 c -11.97,16.497 -25.256,34.807 -37.536,51.73"
         id="path3144"
         inkscape:connector-curvature="0"
         style="fill:none;stroke:#000000;stroke-width:1.17999995" />
      <polygon
         points="109.926,-272.333 101.22,-266.295 104.26,-276.444 109.926,-272.333 "
         id="polygon3146"
         style="fill:#000000;stroke:#000000;stroke-width:1.17999995" />
    </g>
    <!-- 3 -->
    <g
       id="node3"
       class="node">
      <title
         id="title3149">3</title>
      <path
         d="m 123,-57 c 0,0 56.25,0 56.25,0 0,-1.2846 -0.044,-2.5688 -0.131,-3.8504 -0.087,-1.2816 -0.218,-2.5598 -0.391,-3.8324 -0.174,-1.2727 -0.391,-2.539 -0.651,-3.7968 -0.26,-1.2578 -0.563,-2.5063 -0.907,-3.7434 -0.345,-1.237 -0.731,-2.4619 -1.159,-3.6725 -0.428,-1.2107 -0.896,-2.4063 -1.405,-3.5848 -0.509,-1.1785 -1.058,-2.3392 -1.645,-3.4802 -0.588,-1.1409 -1.214,-2.2614 -1.878,-3.3595 -0.663,-1.0981 -1.364,-2.1731 -2.101,-3.2232 -0.736,-1.0501 -1.509,-2.0746 -2.315,-3.0718 -0.806,-0.9973 -1.646,-1.9666 -2.518,-2.9063 -0.872,-0.9397 -1.775,-1.8493 -2.709,-2.7272 -0.933,-0.8778 -1.897,-1.7234 -2.888,-2.5355 -0.991,-0.812 -2.009,-1.589 -3.053,-2.332 -1.044,-0.742 -2.113,-1.448 -3.204,-2.117 -1.092,-0.669 -2.206,-1.3 -3.341,-1.893 -1.134,-0.593 -2.289,-1.147 -3.461,-1.66 -1.172,-0.514 -2.362,-0.987 -3.566,-1.419 -1.204,-0.433 -2.423,-0.824 -3.654,-1.172 -1.231,-0.349 -2.473,-0.656 -3.725,-0.919 -1.251,-0.264 -2.511,-0.485 -3.778,-0.662 -1.267,-0.178 -2.539,-0.312 -3.815,-0.402 -1.275,-0.09 -2.554,-0.137 -3.833,-0.14 -1.279,-0.003 -2.557,0.038 -3.833,0.123 -1.276,0.085 -2.549,0.213 -3.817,0.385 -1.267,0.172 -2.528,0.387 -3.781,0.646 -1.253,0.258 -2.496,0.559 -3.729,0.902 -1.232,0.344 -2.452,0.729 -3.659,1.156 -1.206,0.427 -2.397,0.896 -3.572,1.404 -1.174,0.509 -2.3308,1.057 -3.468,1.645 -1.1371,0.588 -2.254,1.214 -3.3487,1.879 -1.0946,0.664 -2.1664,1.365 -3.2135,2.103 -1.047,0.737 -2.0687,1.511 -3.0633,2.318 -0.9945,0.808 -1.9614,1.6493 -2.8988,2.5231 -0.9375,0.8737 -1.845,1.7794 -2.721,2.7153 -0.876,0.9359 -1.72,1.9015 -2.5304,2.8952 -0.8105,0.9937 -1.587,2.0149 -2.3282,3.0618 -0.7411,1.0468 -1.4465,2.1188 -2.1149,3.2139 -0.6684,1.0952 -1.2995,2.2129 -1.892,3.3513 -0.5926,1.1384 -1.1463,2.2967 -1.6603,3.473 -0.5139,1.1763 -0.9878,2.3698 -1.4207,3.5786 -0.4329,1.2087 -0.8247,2.4319 -1.1746,3.6675 -0.35,1.2355 -0.6578,2.4827 -0.9231,3.7393 -0.2653,1.2567 -0.4878,2.522 -0.6673,3.7939 -0.1794,1.2719 -0.3155,2.5495 -0.4082,3.8307 -0.0927,1.2812 -0.1419,2.5652 -0.1475,3.8498 -0.0055,1.2846 0.0325,2.5689 0.1141,3.8509 0.0816,1.282 0.2068,2.5608 0.3751,3.8341 0.1684,1.2734 0.38,2.5407 0.6344,3.7996 0.2544,1.2589 0.5515,2.5087 0.8907,3.7473 0.3392,1.2386 0.7204,2.4651 1.1429,3.6776 0.4224,1.2125 0.8859,2.4101 1.3897,3.5908 0.5037,1.1808 1.0474,2.3439 1.6301,3.4874 0.5827,1.1435 1.204,2.2667 1.8629,3.3677 0.6589,1.1009 1.355,2.179 2.0871,3.2323 0.732,1.0533 1.4997,2.0812 2.3015,3.0819 0.8018,1.0008 1.6374,1.9738 2.5053,2.9173 0.8678,0.9435 1.7675,1.857 2.6973,2.7389 0.9299,0.882 1.8894,1.7318 2.877,2.548 0.9875,0.8162 2.0025,1.5984 3.0431,2.3451 1.0406,0.7467 2.1063,1.45761 3.1951,2.13137 1.0889,0.67376 2.2003,1.31003 3.3324,1.90769 1.132,0.59766 2.284,1.15637 3.4538,1.67515 1.17,0.51878 2.357,0.99734 3.56,1.43483 C 103.843,-3.87766 123,-57 123,-57"
         id="path3151"
         inkscape:connector-curvature="0"
         style="fill:#fdae61;stroke:#000000;stroke-width:0.5" />
      <path
         d="m 123,-57 c 0,0 -19.157,53.12234 -19.157,53.12234 2.114,0.76925 4.272,1.41046 6.463,1.92018 2.191,0.50972 4.41,0.88703 6.646,1.129903 2.235,0.242871 4.483,0.350865 6.732,0.3234 2.249,-0.027465 4.493,-0.190339 6.723,-0.487746 2.229,-0.297407 4.438,-0.728807 6.616,-1.291887 2.177,-0.56308 4.32,-1.25682 6.415,-2.07749 2.095,-0.82066 4.139,-1.76678 6.121,-2.83325 1.982,-1.06647 3.899,-2.25137 5.74,-3.54835 1.841,-1.2969 3.603,-2.7036 5.277,-4.2125 1.673,-1.5088 3.255,-3.1171 4.736,-4.8161 1.482,-1.699 2.861,-3.4858 4.13,-5.3507 1.269,-1.8648 2.425,-3.8044 3.462,-5.8083 1.038,-2.0039 1.955,-4.0685 2.746,-6.1826 0.792,-2.1142 1.456,-4.2741 1.991,-6.4682 0.534,-2.1941 0.936,-4.4184 1.205,-6.6608 0.269,-2.2425 0.404,-4.4992 0.404,-6.7579 0,0 -56.25,0 -56.25,0"
         id="path3153"
         inkscape:connector-curvature="0"
         style="fill:#d7191c;stroke:#000000;stroke-width:0.5" />
      <ellipse
         cx="123"
         cy="-57"
         rx="56.25"
         ry="56.5"
         id="ellipse3155"
         d="m 179.25,-57 c 0,31.204088 -25.18398,56.5 -56.25,56.5 -31.066017,0 -56.25,-25.295912 -56.25,-56.5 0,-31.204088 25.183983,-56.5 56.25,-56.5 31.06602,0 56.25,25.295912 56.25,56.5 z"
         sodipodi:cx="123"
         sodipodi:cy="-57"
         sodipodi:rx="56.25"
         sodipodi:ry="56.5"
         style="fill:none;stroke:#000000" />
    </g>
    <!-- 1&#45;&gt;3 -->
    <g
       id="edge3"
       class="edge">
      <title
         id="title3158">1-&gt;3</title>
      <path
         d="M 171.306,-314.693 C 165.921,-268.44 158.731,-204.816 146,-150 c -2.13,9.169 -4.846,18.701 -7.701,28.003"
         id="path3160"
         inkscape:connector-curvature="0"
         style="fill:none;stroke:#000000;stroke-width:2.70000005" />
      <polygon
         points="141.625,-120.905 135.293,-112.41 134.946,-122.999 141.625,-120.905 "
         id="polygon3162"
         style="fill:#000000;stroke:#000000;stroke-width:2.70000005" />
    </g>
    <!-- 2&#45;&gt;2 -->
    <g
       id="edge4"
       class="edge">
      <title
         id="title3165">2-&gt;2</title>
      <path
         d="m 121.476,-242.793 c 14.06,2.133 24.524,11.731 24.524,28.793 0,12.797 -5.886,21.395 -14.76,25.794"
         id="path3167"
         inkscape:connector-curvature="0"
         style="fill:none;stroke:#000000;stroke-width:1.10000002" />
      <polygon
         points="132.063,-184.798 121.476,-185.207 130.007,-191.489 132.063,-184.798 "
         id="polygon3169"
         style="fill:#000000;stroke:#000000;stroke-width:1.10000002" />
    </g>
    <!-- 2&#45;&gt;3 -->
    <g
       id="edge5"
       class="edge">
      <title
         id="title3172">2-&gt;3</title>
      <path
         d="m 80.7018,-151.74 c 4.1388,11.371 8.6651,23.23 13.1832,34.538"
         id="path3174"
         inkscape:connector-curvature="0"
         style="fill:none;stroke:#000000;stroke-width:1.12" />
      <polygon
         points="97.1604,-118.439 97.6696,-107.856 90.6721,-115.811 97.1604,-118.439 "
         id="polygon3176"
         style="fill:#000000;stroke:#000000;stroke-width:1.12" />
    </g>
    <!-- 3&#45;&gt;1 -->
    <g
       id="edge6"
       class="edge">
      <title
         id="title3179">3-&gt;1</title>
      <path
         d="m 150.72,-106.609 c 5.19,-13.844 9.952,-29.06 13.28,-43.391 11.727,-50.492 18.753,-108.459 21.671,-153.438"
         id="path3181"
         inkscape:connector-curvature="0"
         style="fill:none;stroke:#000000;stroke-width:1.44000006" />
      <polygon
         points="182.194,-303.927 186.279,-313.703 189.182,-303.514 182.194,-303.927 "
         id="polygon3183"
         style="fill:#000000;stroke:#000000;stroke-width:1.44000006" />
    </g>
    <!-- 3&#45;&gt;2 -->
    <g
       id="edge7"
       class="edge">
      <title
         id="title3186">3-&gt;2</title>
      <path
         d="m 109.005,-111.736 c -4.026,-11.326 -8.548,-23.402 -13.1441,-35.124"
         id="path3188"
         inkscape:connector-curvature="0"
         style="fill:none;stroke:#000000;stroke-width:1.39999998" />
      <polygon
         points="92.6042,-145.578 92.1665,-156.164 99.1101,-148.162 92.6042,-145.578 "
         id="polygon3190"
         style="fill:#000000;stroke:#000000;stroke-width:1.39999998" />
    </g>
    <!-- 3&#45;&gt;3 -->
    <g
       id="edge8"
       class="edge">
      <title
         id="title3193">3-&gt;3</title>
      <path
         d="M 171.397,-86.1857 C 185.796,-85.3145 197,-75.5859 197,-57 c 0,14.0847 -6.434,23.0827 -15.817,26.9942"
         id="path3195"
         inkscape:connector-curvature="0"
         style="fill:none;stroke:#000000;stroke-width:3" />
      <polygon
         points="181.92,-26.5843 171.397,-27.8143 180.39,-33.4151 181.92,-26.5843 "
         id="polygon3197"
         style="fill:#000000;stroke:#000000;stroke-width:3" />
    </g>
  </g>
</svg>
