<?xml version="1.0" encoding="UTF-8" standalone="no"?>
<!-- Generated by graphviz version 2.36.0 (20140111.2315)
 -->

<!-- Title: G Pages: 1 -->

<svg
   xmlns:dc="http://purl.org/dc/elements/1.1/"
   xmlns:cc="http://creativecommons.org/ns#"
   xmlns:rdf="http://www.w3.org/1999/02/22-rdf-syntax-ns#"
   xmlns:svg="http://www.w3.org/2000/svg"
   xmlns="http://www.w3.org/2000/svg"
   xmlns:sodipodi="http://sodipodi.sourceforge.net/DTD/sodipodi-0.dtd"
   xmlns:inkscape="http://www.inkscape.org/namespaces/inkscape"
   width="300.625"
   height="151.40625"
   viewBox="0 0 240.5 121.125"
   id="svg3038"
   version="1.1"
   inkscape:version="0.48.4 r9939"
   sodipodi:docname="PuntaBanda-Par_2_1.dot.svg">
  <metadata
     id="metadata3101">
    <rdf:RDF>
      <cc:Work
         rdf:about="">
        <dc:format>image/svg+xml</dc:format>
        <dc:type
           rdf:resource="http://purl.org/dc/dcmitype/StillImage" />
      </cc:Work>
    </rdf:RDF>
  </metadata>
  <defs
     id="defs3099" />
  <sodipodi:namedview
     pagecolor="#ffffff"
     bordercolor="#666666"
     borderopacity="1"
     objecttolerance="10"
     gridtolerance="10"
     guidetolerance="10"
     inkscape:pageopacity="0"
     inkscape:pageshadow="2"
     inkscape:window-width="701"
     inkscape:window-height="480"
     id="namedview3097"
     showgrid="false"
     fit-margin-top="0"
     fit-margin-left="0"
     fit-margin-right="0"
     fit-margin-bottom="0"
     inkscape:zoom="0.76129032"
     inkscape:cx="150.55209"
     inkscape:cy="76.010412"
     inkscape:window-x="65"
     inkscape:window-y="24"
     inkscape:window-maximized="0"
     inkscape:current-layer="svg3038" />
  <g
     id="graph0"
     class="graph"
     transform="matrix(0,-1,1,0,240,120.375)">
    <title
       id="title3041">G</title>
    <!-- 1 -->
    <g
       id="node1"
       class="node">
      <title
         id="title3044">1</title>
      <path
         d="m 51,-188 c 0,0 51.25,0 51.25,0 0,-2.198 -0.14,-4.394 -0.419,-6.574 -0.279,-2.18 -0.697,-4.34 -1.251,-6.466 -0.554,-2.127 -1.2429,-4.215 -2.0623,-6.253 -0.8195,-2.038 -1.768,-4.022 -2.8396,-5.938 C 95.6781,-213.231 51,-188 51,-188"
         id="path3046"
         inkscape:connector-curvature="0"
         style="fill:#abdda4;stroke:#000000;stroke-width:0.5" />
      <path
         d="m 51,-188 c 0,0 44.6781,-25.231 44.6781,-25.231 -0.8989,-1.607 -1.8831,-3.165 -2.9482,-4.666 -1.0652,-1.501 -2.2098,-2.944 -3.4289,-4.322 -1.2191,-1.378 -2.511,-2.689 -3.8701,-3.928 -1.359,-1.238 -2.7833,-2.403 -4.2666,-3.488 -1.4833,-1.085 -3.0236,-2.089 -4.6141,-3.009 -1.5906,-0.919 -3.2291,-1.752 -4.9084,-2.494 -1.6794,-0.743 -3.3973,-1.394 -5.1462,-1.952 -1.749,-0.557 -3.5264,-1.02 -5.3247,-1.386 -1.7983,-0.366 -3.6149,-0.634 -5.4418,-0.804 -1.827,-0.17 -3.6618,-0.242 -5.4963,-0.214 -1.8346,0.027 -3.6664,0.154 -5.4875,0.379 -1.8211,0.225 -3.6288,0.548 -5.4154,0.968 -1.7866,0.42 -3.5495,0.936 -5.281,1.546 -1.7316,0.609 -3.4293,1.312 -5.0858,2.105 -1.6565,0.793 -3.2694,1.674 -4.8319,2.641 -1.5624,0.967 -3.072,2.017 -4.5224,3.146 0,0 31.3912,40.709 31.3912,40.709"
         id="path3048"
         inkscape:connector-curvature="0"
         style="fill:#2b83ba;stroke:#000000;stroke-width:0.5" />
      <path
         d="m 51,-188 c 0,0 -31.3912,-40.709 -31.3912,-40.709 -1.155,0.9 -2.2712,1.848 -3.3455,2.843 -1.0744,0.996 -2.1059,2.036 -3.0917,3.12 -0.9858,1.084 -1.9251,2.21 -2.8151,3.374 -0.89014,1.165 -1.73028,2.367 -2.51814,3.603 -0.78787,1.237 -1.52275,2.507 -2.20262,3.806 -0.67988,1.3 -1.30413,2.628 -1.87105,3.982 -0.56692,1.353 -1.07599,2.73 -1.52581,4.127 -0.44981,1.397 -0.83997,2.813 -1.1694,4.243 C 1.06948,-199.611 51,-188 51,-188"
         id="path3050"
         inkscape:connector-curvature="0"
         style="fill:#fdae61;stroke:#000000;stroke-width:0.5" />
      <path
         d="m 51,-188 c 0,0 -49.93052,-11.611 -49.93052,-11.611 -0.405581,1.761 -0.718601,3.543 -0.937758,5.337 -0.2191571,1.794 -0.344147,3.599 -0.37445,5.406 -0.030304,1.808 0.034121,3.616 0.1930068,5.416 0.1588862,1.801 0.4120122,3.592 0.7583272,5.366 0.346314,1.774 0.785344,3.528 1.315254,5.256 0.52991,1.728 1.14997,3.426 1.8576,5.088 0.70764,1.662 1.50187,3.285 2.3794,4.863 0.87752,1.578 1.83713,3.109 2.87483,4.586 1.03771,1.476 2.15201,2.897 3.33841,4.256 1.1864,1.359 2.4432,2.654 3.7651,3.88 1.3219,1.226 2.7072,2.382 4.15,3.462 1.4428,1.079 2.9412,2.082 4.489,3.003 1.5477,0.922 3.1427,1.761 4.7782,2.513 1.6356,0.753 3.3094,1.419 5.0146,1.995 1.7053,0.576 3.4395,1.061 5.1955,1.454 1.756,0.393 3.5314,0.692 5.3187,0.897 1.7874,0.206 3.5842,0.316 5.3831,0.331 1.7989,0.015 3.5974,-0.065 5.3879,-0.239 1.7906,-0.175 3.5707,-0.445 5.3331,-0.808 1.7623,-0.363 3.5044,-0.818 5.219,-1.365 1.7147,-0.547 3.3994,-1.185 5.0474,-1.91 1.6479,-0.725 3.2567,-1.537 4.8197,-2.432 1.563,-0.895 3.078,-1.872 4.5387,-2.927 1.4607,-1.055 2.8651,-2.187 4.2074,-3.391 1.3423,-1.203 2.6206,-2.477 3.8296,-3.816 1.209,-1.338 2.347,-2.74 3.4093,-4.199 1.0623,-1.459 2.0474,-2.973 2.9513,-4.536 0.9038,-1.563 1.7252,-3.173 2.4606,-4.822 0.7354,-1.65 1.3838,-3.338 1.9426,-5.056 0.5591,-1.718 1.0271,-3.465 1.4031,-5.233 0.376,-1.768 0.659,-3.554 0.848,-5.352 0.189,-1.798 0.284,-3.604 0.284,-5.412 0,0 -51.25,0 -51.25,0"
         id="path3052"
         inkscape:connector-curvature="0"
         style="fill:#d7191c;stroke:#000000;stroke-width:0.5" />
      <ellipse
         cx="51"
         cy="-188"
         rx="51.25"
         ry="51.5"
         id="ellipse3054"
         d="m 102.25,-188 c 0,28.44266 -22.945407,51.5 -51.25,51.5 -28.304593,0 -51.25,-23.05734 -51.25,-51.5 0,-28.44266 22.945407,-51.5 51.25,-51.5 28.304593,0 51.25,23.05734 51.25,51.5 z"
         sodipodi:cx="51"
         sodipodi:cy="-188"
         sodipodi:rx="51.25"
         sodipodi:ry="51.5"
         style="fill:none;stroke:#000000" />
    </g>
    <!-- 1&#45;&gt;1 -->
    <g
       id="edge1"
       class="edge">
      <title
         id="title3057">1-&gt;1</title>
      <path
         d="m 95.464,-213.85 c 13.744,0.522 24.536,9.139 24.536,25.85 0,12.403 -5.945,20.347 -14.629,23.832"
         id="path3059"
         inkscape:connector-curvature="0"
         style="fill:none;stroke:#000000;stroke-width:0.73333299" />
      <polygon
         points="104.564,-167.576 105.961,-160.717 105.961,-160.717 95.464,-162.15 "
         id="polygon3061"
         style="fill:#000000;stroke:#000000;stroke-width:0.73333299" />
    </g>
    <!-- 2 -->
    <g
       id="node2"
       class="node">
      <title
         id="title3064">2</title>
      <path
         d="m 51,-50 c 0,0 50,0 50,0 0,-1.2588 -0.048,-2.5172 -0.143,-3.7724 -0.094,-1.2552 -0.237,-2.5064 -0.426,-3.7508 -0.19,-1.2445 -0.426,-2.4814 -0.7087,-3.708 -0.2828,-1.2266 -0.6118,-2.4421 -0.9863,-3.644 C 98.736,-64.8752 51,-50 51,-50"
         id="path3066"
         inkscape:connector-curvature="0"
         style="fill:#abdda4;stroke:#000000;stroke-width:0.5" />
      <path
         d="m 51,-50 c 0,0 47.736,-14.8752 47.736,-14.8752 -0.3745,-1.2018 -0.7942,-2.389 -1.2583,-3.5591 -0.4641,-1.1701 -0.9722,-2.3223 -1.5233,-3.4541 -0.5511,-1.1318 -1.1447,-2.2423 -1.7795,-3.3293 -0.6349,-1.087 -1.3106,-2.1496 -2.0257,-3.1855 C 92.1492,-78.4032 51,-50 51,-50"
         id="path3068"
         inkscape:connector-curvature="0"
         style="fill:#2b83ba;stroke:#000000;stroke-width:0.5" />
      <path
         d="m 51,-50 c 0,0 41.1492,-28.4032 41.1492,-28.4032 -0.6883,-0.9972 -1.4125,-1.9689 -2.1714,-2.9134 -0.7588,-0.9445 -1.5518,-1.8611 -2.3772,-2.748 -0.8255,-0.8869 -1.6829,-1.7435 -2.5706,-2.5681 -0.8876,-0.8246 -1.805,-1.6167 -2.7502,-2.3747 -0.9452,-0.7579 -1.9177,-1.4813 -2.9154,-2.1686 -0.9978,-0.6873 -2.0202,-1.3381 -3.0652,-1.9512 -1.0451,-0.613 -2.1121,-1.1879 -3.1989,-1.7234 -1.0868,-0.5355 -2.1927,-1.0314 -3.3155,-1.4866 -1.1229,-0.4551 -2.2619,-0.8694 -3.4148,-1.2418 -1.1529,-0.3725 -2.319,-0.7029 -3.4959,-0.9906 -1.1769,-0.2877 -2.3639,-0.5326 -3.5586,-0.7341 -1.1947,-0.2015 -2.3964,-0.3595 -3.6026,-0.4737 -1.2062,-0.1142 -2.4161,-0.1845 -3.6274,-0.2108 -1.2113,-0.0268 -2.4232,-0.0086 -3.6332,0.0531 -1.21,0.0618 -2.4173,0.1675 -3.6197,0.3169 -1.2023,0.1495 -2.3988,0.3426 -3.5871,0.5789 -1.1883,0.2364 -2.3676,0.5159 -3.5356,0.8379 -1.168,0.3221 -2.324,0.6865 -3.4655,1.0925 -1.1415,0.406 -2.2679,0.8534 -3.3769,1.3412 -1.1091,0.4879 -2.2,1.0159 -3.2707,1.583 -1.0706,0.5671 -2.1203,1.1729 -3.147,1.8162 -1.0267,0.6434 -2.0296,1.3239 -3.0068,2.0401 -0.9773,0.7162 -1.9281,1.4677 -2.8508,2.253 -0.9226,0.7853 -1.8164,1.6038 -2.6795,2.4541 -0.8632,0.8502 -1.6952,1.7315 -2.4943,2.6422 -0.7992,0.9107 -1.5649,1.8501 -2.2958,2.8164 -0.7309,0.9663 -1.42645,1.9588 -2.08524,2.9756 -0.65879,1.0169 -1.2804,2.0573 -1.86361,3.1193 -0.5832,1.062 -1.12761,2.1448 -1.63215,3.2463 -0.50454,1.1016 -0.96888,2.2211 -1.39209,3.3563 -0.42321,1.1353 -0.80501,2.2856 -1.14466,3.4486 -0.33965,1.163 -0.63691,2.3379 -0.8912,3.5225 -0.25429,1.1846 -0.46543,2.3781 -0.63302,3.578 -0.16759,1.2 -0.29151,2.4056 -0.37151,3.6145 -0.08,1.209 -0.116034,2.4204 -0.10803,3.632 0.00801,1.2116 0.06005,2.4224 0.15602,3.6302 0.09597,1.2078 0.23581,2.4117 0.41924,3.6093 0.18344,1.1976 0.41034,2.3882 0.68026,3.5693 0.26992,1.1811 0.58268,2.3521 0.93767,3.5105 0.35499,1.1584 0.75196,2.3035 1.19014,3.4331 0.43818,1.1296 0.91726,2.2428 1.43632,3.3376 0.51905,1.0948 1.07772,2.1703 1.67491,3.2245 0.59719,1.0542 1.2325,2.0863 1.90467,3.0944 0.67218,1.008 1.38078,1.9913 2.12438,2.9478 0.7436,0.9566 1.5217,1.8858 2.3328,2.7858 0.8111,0.9 1.6547,1.7703 2.529,2.609 0.8743,0.8388 1.7788,1.6454 2.7118,2.4185 0.9329,0.773 1.8936,1.51188 2.8802,2.21512 0.9866,0.70324 1.9985,1.37039 3.0335,2.00012 1.0351,0.62973 2.0927,1.22164 3.1708,1.77453 1.0781,0.5529 2.1759,1.06644 3.2913,1.53958 1.1153,0.47315 2.2476,0.9056 3.3944,1.29649 1.1467,0.3909 2.3074,0.73998 3.4795,1.04656 1.1722,0.30658 2.3551,0.57045 3.5464,0.791093 1.1913,0.220644 2.3903,0.397913 3.5945,0.531456 1.2042,0.133544 2.4129,0.2232731 3.6236,0.2690109 1.2107,0.0457379 2.4227,0.0474539 3.6335,0.0051446 1.2109,-0.0423093 2.4198,-0.1286155 3.6244,-0.2587485 1.2045,-0.130133 2.404,-0.304007 3.5959,-0.521276 1.192,-0.21727 2.3756,-0.47779 3.5486,-0.78105 1.1731,-0.30326 2.3347,-0.64905 3.4826,-1.0367 1.1479,-0.38764 2.2813,-0.81689 3.398,-1.28687 1.1167,-0.46999 2.216,-0.98041 3.2956,-1.53025 1.0797,-0.54985 2.1389,-1.13875 3.1758,-1.76555 C 76.8669,-7.21094 51,-50 51,-50"
         id="path3070"
         inkscape:connector-curvature="0"
         style="fill:#fdae61;stroke:#000000;stroke-width:0.5" />
      <path
         d="m 51,-50 c 0,0 25.8669,42.78906 25.8669,42.78906 1.8317,-1.10733 3.5905,-2.33114 5.2654,-3.66386 1.6749,-1.3328 3.2625,-2.7717 4.753,-4.3079 1.4905,-1.5362 2.8808,-3.1665 4.1623,-4.8809 1.2816,-1.7144 2.4517,-3.5093 3.5032,-5.3737 1.0515,-1.8643 1.9822,-3.7943 2.7864,-5.7779 0.8041,-1.9837 1.4801,-4.0169 2.0236,-6.0872 0.5436,-2.0702 0.9532,-4.1733 1.2282,-6.2961 0.274,-2.1228 0.411,-4.2611 0.411,-6.4015 0,0 -50,0 -50,0"
         id="path3072"
         inkscape:connector-curvature="0"
         style="fill:#d7191c;stroke:#000000;stroke-width:0.5" />
      <ellipse
         cx="51"
         cy="-50"
         rx="50"
         ry="50"
         id="ellipse3074"
         d="M 101,-50 C 101,-22.385763 78.614237,0 51,0 23.385763,0 1,-22.385763 1,-50 c 0,-27.614237 22.385763,-50 50,-50 27.614237,0 50,22.385763 50,50 z"
         sodipodi:cx="51"
         sodipodi:cy="-50"
         sodipodi:rx="50"
         sodipodi:ry="50"
         style="fill:none;stroke:#000000" />
    </g>
    <!-- 1&#45;&gt;2 -->
    <g
       id="edge2"
       class="edge">
      <title
         id="title3077">1-&gt;2</title>
      <path
         d="m 44.4586,-136.745 c -0.2112,8.796 -0.262,18.018 -0.1525,27.02"
         id="path3079"
         inkscape:connector-curvature="0"
         style="fill:none;stroke:#000000;stroke-width:2" />
      <polygon
         points="40.8074,-109.622 47.8061,-109.756 47.8061,-109.756 44.4979,-99.691 "
         id="polygon3081"
         style="fill:#000000;stroke:#000000;stroke-width:2" />
    </g>
    <!-- 2&#45;&gt;1 -->
    <g
       id="edge3"
       class="edge">
      <title
         id="title3084">2-&gt;1</title>
      <path
         d="m 57.5021,-99.691 c 0.2302,-8.743 0.3001,-17.951 0.2096,-26.976"
         id="path3086"
         inkscape:connector-curvature="0"
         style="fill:none;stroke:#000000;stroke-width:1.69333005" />
      <polygon
         points="61.21,-126.806 54.211,-126.687 54.211,-126.687 57.5414,-136.745 "
         id="polygon3088"
         style="fill:#000000;stroke:#000000;stroke-width:1.69333005" />
    </g>
    <!-- 2&#45;&gt;2 -->
    <g
       id="edge4"
       class="edge">
      <title
         id="title3091">2-&gt;2</title>
      <path
         d="M 93.8315,-75.8734 C 107.843,-75.7397 119,-67.1152 119,-50 c 0,12.7027 -6.146,20.7284 -15.043,24.0769"
         id="path3093"
         inkscape:connector-curvature="0"
         style="fill:none;stroke:#000000;stroke-width:1.89332998" />
      <polygon
         points="103.066,-29.3198 104.289,-22.4274 104.289,-22.4274 93.8315,-24.1266 "
         id="polygon3095"
         style="fill:#000000;stroke:#000000;stroke-width:1.89332998" />
    </g>
  </g>
</svg>
