<?xml version="1.0" encoding="UTF-8" standalone="no"?>
<!-- Generated by graphviz version 2.36.0 (20140111.2315)
 -->

<!-- Title: G Pages: 1 -->

<svg
   xmlns:dc="http://purl.org/dc/elements/1.1/"
   xmlns:cc="http://creativecommons.org/ns#"
   xmlns:rdf="http://www.w3.org/1999/02/22-rdf-syntax-ns#"
   xmlns:svg="http://www.w3.org/2000/svg"
   xmlns="http://www.w3.org/2000/svg"
   xmlns:sodipodi="http://sodipodi.sourceforge.net/DTD/sodipodi-0.dtd"
   xmlns:inkscape="http://www.inkscape.org/namespaces/inkscape"
   width="300.625"
   height="166.09375"
   viewBox="0 0 240.5 132.875"
   id="svg2"
   version="1.1"
   inkscape:version="0.48.4 r9939"
   sodipodi:docname="PuntaBanda-Par_2_0.dot.svg">
  <metadata
     id="metadata61">
    <rdf:RDF>
      <cc:Work
         rdf:about="">
        <dc:format>image/svg+xml</dc:format>
        <dc:type
           rdf:resource="http://purl.org/dc/dcmitype/StillImage" />
        <dc:title></dc:title>
      </cc:Work>
    </rdf:RDF>
  </metadata>
  <defs
     id="defs59" />
  <sodipodi:namedview
     pagecolor="#ffffff"
     bordercolor="#666666"
     borderopacity="1"
     objecttolerance="10"
     gridtolerance="10"
     guidetolerance="10"
     inkscape:pageopacity="0"
     inkscape:pageshadow="2"
     inkscape:window-width="721"
     inkscape:window-height="480"
     id="namedview57"
     showgrid="false"
     fit-margin-top="0"
     fit-margin-left="0"
     fit-margin-right="0"
     fit-margin-bottom="0"
     inkscape:zoom="0.76129032"
     inkscape:cx="163.52726"
     inkscape:cy="194.24575"
     inkscape:window-x="65"
     inkscape:window-y="24"
     inkscape:window-maximized="0"
     inkscape:current-layer="svg2" />
  <g
     id="graph0"
     class="graph"
     transform="matrix(0,-1,1,0,240.5,132.375)">
    <title
       id="title5">G</title>
    <!-- 1 -->
    <g
       id="node1"
       class="node">
      <title
         id="title8">1</title>
      <path
         d="m 57,-183 c 0,0 57,0 57,0 0,-1.571 -0.065,-3.141 -0.195,-4.707 -0.129,-1.566 -0.324,-3.125 -0.582,-4.675 -0.259,-1.549 -0.582,-3.088 -0.967,-4.611 -0.386,-1.523 -0.834,-3.029 -1.344,-4.515 -0.511,-1.486 -1.082,-2.95 -1.713,-4.389 -0.631,-1.438 -1.321,-2.85 -2.069,-4.232 -0.748,-1.382 -1.552,-2.732 -2.412,-4.047 -0.859,-1.315 -1.772,-2.594 -2.737,-3.834 0,0 -44.981,35.01 -44.981,35.01"
         id="path10"
         inkscape:connector-curvature="0"
         style="fill:#abdda4;stroke:#000000;stroke-width:0.5" />
      <path
         d="m 57,-183 c 0,0 44.981,-35.01 44.981,-35.01 -1.206,-1.55 -2.4918,-3.036 -3.8515,-4.453 -1.3598,-1.418 -2.7918,-2.764 -4.2904,-4.033 -1.4987,-1.269 -3.0619,-2.46 -4.6835,-3.568 -1.6216,-1.108 -3.2994,-2.131 -5.0266,-3.066 -1.7272,-0.935 -3.5016,-1.78 -5.316,-2.531 -1.8145,-0.752 -3.6666,-1.409 -5.5488,-1.969 -1.8823,-0.561 -3.7923,-1.023 -5.7224,-1.387 -1.93,-0.363 -3.8776,-0.626 -5.8348,-0.788 -1.9572,-0.162 -3.9215,-0.223 -5.885,-0.183 -1.9635,0.041 -3.9236,0.183 -5.8725,0.426 -1.9488,0.243 -3.8838,0.586 -5.7972,1.029 -1.9134,0.442 -3.8027,0.984 -5.6602,1.621 -1.8575,0.638 -3.6808,1.371 -5.4626,2.197 -1.7819,0.826 -3.5198,1.744 -5.207,2.749 -1.6871,1.005 -3.3211,2.097 -4.8955,3.271 -1.5744,1.174 -3.0871,2.429 -4.5321,3.759 0,0 38.6051,41.936 38.6051,41.936"
         id="path12"
         inkscape:connector-curvature="0"
         style="fill:#2b83ba;stroke:#000000;stroke-width:0.5" />
      <path
         d="m 57,-183 c 0,0 -38.6051,-41.936 -38.6051,-41.936 -1.4449,1.33 -2.8201,2.734 -4.1201,4.206 -1.2999,1.472 -2.523,3.01 -3.6642,4.609 -1.14117,1.598 -2.199,3.254 -3.16923,4.962 -0.97022,1.707 -1.85155,3.464 -2.64045,5.262 -0.7889,1.799 -1.48433,3.637 -2.08349,5.507 -0.59916,1.871 -1.10126,3.771 -1.50429,5.693 -0.40303,1.922 -0.706449,3.864 -0.909044,5.817 C 0.1015,-186.927 -1.83876e-7,-184.964 0,-183 c 1.83877e-7,1.964 0.101501,3.927 0.304097,5.88 0.202595,1.953 0.506015,3.895 0.909043,5.817 0.40303,1.922 0.90513,3.822 1.50429,5.693 0.59917,1.87 1.29459,3.708 2.08349,5.507 0.78891,1.798 1.67023,3.555 2.64046,5.262 0.97022,1.708 2.02805,3.364 3.16922,4.962 1.1412,1.599 2.3643,3.137 3.6643,4.609 1.2999,1.472 2.6751,2.876 4.1201,4.206 0,0 38.605,-41.936 38.605,-41.936"
         id="path14"
         inkscape:connector-curvature="0"
         style="fill:#fdae61;stroke:#000000;stroke-width:0.5" />
      <path
         d="m 57,-183 c 0,0 -38.605,41.936 -38.605,41.936 1.0113,0.931 2.0559,1.825 3.1319,2.681 1.076,0.855 2.1825,1.672 3.3175,2.447 1.135,0.775 2.2977,1.51 3.4857,2.201 1.1881,0.691 2.4008,1.34 3.6357,1.943 1.2349,0.604 2.4913,1.163 3.7666,1.676 1.2753,0.513 2.5688,0.979 3.8779,1.399 1.309,0.419 2.6328,0.791 3.9688,1.114 1.3359,0.324 2.6832,0.599 4.039,0.826 1.3559,0.226 2.7195,0.403 4.0881,0.531 1.3687,0.127 2.7415,0.205 4.1158,0.234 1.3743,0.028 2.7492,0.007 4.1219,-0.064 1.3728,-0.071 2.7425,-0.192 4.1066,-0.362 1.364,-0.17 2.7215,-0.389 4.0697,-0.657 1.3481,-0.268 2.6862,-0.585 4.0115,-0.95 1.3252,-0.365 2.6369,-0.778 3.9323,-1.238 1.2954,-0.459 2.5738,-0.966 3.8326,-1.518 1.2589,-0.552 2.4973,-1.15 3.7129,-1.791 1.2156,-0.642 2.4076,-1.328 3.5737,-2.055 1.1661,-0.728 2.3054,-1.498 3.4158,-2.308 1.1104,-0.811 2.1911,-1.661 3.2401,-2.549 1.0489,-0.889 2.0653,-1.815 3.0473,-2.777 0.982,-0.961 1.9289,-1.959 2.8388,-2.989 0.9098,-1.03 1.7818,-2.093 2.6148,-3.187 0.833,-1.093 1.627,-2.216 2.378,-3.367 0.752,-1.151 1.462,-2.328 2.129,-3.53 0.667,-1.203 1.29,-2.428 1.868,-3.675 0.578,-1.248 1.111,-2.515 1.597,-3.801 0.486,-1.286 0.926,-2.588 1.318,-3.906 0.393,-1.317 0.737,-2.648 1.033,-3.991 0.296,-1.342 0.543,-2.695 0.741,-4.055 0.199,-1.36 0.348,-2.727 0.447,-4.098 0.099,-1.371 0.149,-2.745 0.149,-4.12 0,0 -57,0 -57,0"
         id="path16"
         inkscape:connector-curvature="0"
         style="fill:#d7191c;stroke:#000000;stroke-width:0.5" />
      <ellipse
         cx="57"
         cy="-183"
         rx="57"
         ry="57"
         id="ellipse18"
         d="m 114,-183 c 0,31.48023 -25.519769,57 -57,57 -31.480231,0 -57,-25.51977 -57,-57 0,-31.48023 25.519769,-57 57,-57 31.480231,0 57,25.51977 57,57 z"
         sodipodi:cx="57"
         sodipodi:cy="-183"
         sodipodi:rx="57"
         sodipodi:ry="57"
         style="fill:none;stroke:#000000" />
    </g>
    <!-- 1&#45;&gt;1 -->
    <g
       id="edge1"
       class="edge">
      <title
         id="title21">1-&gt;1</title>
      <path
         d="m 108.179,-208.648 c 13.555,1.466 23.821,10.015 23.821,25.648 0,11.602 -5.655,19.303 -14.112,23.102"
         id="path23"
         inkscape:connector-curvature="0"
         style="fill:none;stroke:#000000;stroke-width:0.74666703" />
      <polygon
         points="118.74,-156.504 108.179,-157.352 116.964,-163.275 118.74,-156.504 "
         id="polygon25"
         style="fill:#000000;stroke:#000000;stroke-width:0.74666703" />
    </g>
    <!-- 2 -->
    <g
       id="node2"
       class="node">
      <title
         id="title28">2</title>
      <path
         d="m 57,-45 c 0,0 44.25,0 44.25,0 0,-1.9412 -0.126,-3.8804 -0.378,-5.805 -0.252,-1.9247 -0.629,-3.8307 -1.128,-5.7059 -0.4994,-1.8752 -1.1202,-3.7155 -1.8585,-5.5091 -0.7383,-1.7936 -1.5925,-3.5368 -2.5571,-5.2182 -0.9647,-1.6815 -2.0377,-3.2977 -3.2122,-4.8382 -1.1746,-1.5405 -2.4481,-3.0021 -3.8124,-4.3754 -1.3643,-1.3733 -2.8165,-2.6554 -4.3474,-3.8379 -1.5308,-1.1826 -3.1369,-2.2632 -4.808,-3.2348 -1.6711,-0.9717 -3.4037,-1.8323 -5.1866,-2.5764 -1.7829,-0.7441 -3.6123,-1.3701 -5.4764,-1.874 -1.8642,-0.5039 -3.7592,-0.8845 -5.6728,-1.1395 -1.9136,-0.255 -3.8417,-0.3838 -5.7721,-0.3856 -1.9303,-0.0018 -3.8587,0.1235 -5.7727,0.375 -1.9141,0.2514 -3.8098,0.6286 -5.6749,1.129 -1.865,0.5004 -3.6956,1.1231 -5.4798,1.8639 -1.7843,0.7408 -3.5184,1.5983 -5.1913,2.5668 -1.6729,0.9686 -3.281,2.0462 -4.8139,3.226 -1.533,1.1797 -2.9875,2.4591 -4.3544,3.8298 -1.3668,1.3708 -2.6429,2.8301 -3.8203,4.3684 -1.1773,1.5384 -2.2533,3.1526 -3.221,4.8323 -0.9677,1.6797 -1.8251,3.4212 -2.5667,5.2135 -0.7415,1.7923 -1.3657,3.6314 -1.8684,5.5057 -0.5028,1.8742 -0.883,3.7795 -1.1383,5.7037 -0.2553,1.9242 -0.3852,3.8631 -0.3887,5.8044 -0.0036,1.9412 0.1192,3.8806 0.3675,5.8057 0.2483,1.9251 0.6216,3.8318 1.1175,5.7079 0.4959,1.8761 1.1134,3.7175 1.8484,5.5125 0.735,1.795 1.5861,3.5397 2.5477,5.223 0.9616,1.6832 2.0316,3.3014 3.2034,4.8441 1.1717,1.5427 2.4425,3.0066 3.8043,4.3824 1.3619,1.3758 2.8118,2.6605 4.3404,3.84592 1.5287,1.18539 3.1328,2.26892 4.8022,3.24364 C 34.7815,-6.51634 57,-45 57,-45"
         id="path30"
         inkscape:connector-curvature="0"
         style="fill:#fdae61;stroke:#000000;stroke-width:0.5" />
      <path
         d="m 57,-45 c 0,0 -22.2185,38.48366 -22.2185,38.48366 1.6722,0.97643 3.4064,1.84158 5.1912,2.58987 1.7848,0.7483 3.6165,1.37813 5.4832,1.88545 1.8668,0.50733 3.7646,0.89105 5.6813,1.148701 1.9166,0.257652 3.848,0.388682 5.7817,0.392244 1.9337,0.003563 3.8656,-0.120348 5.7832,-0.370936 1.9176,-0.250589 3.8168,-0.627319 5.6854,-1.127759 1.8686,-0.50044 3.7025,-1.12352 5.4901,-1.86523 1.7875,-0.74171 3.5248,-1.60046 5.2006,-2.57072 1.6758,-0.97026 3.2866,-2.04995 4.822,-3.23212 1.5353,-1.18216 2.992,-2.46426 4.3606,-3.83806 1.3686,-1.3738 2.6462,-2.8364 3.8245,-4.3783 1.1784,-1.5419 2.2549,-3.1598 3.2228,-4.8433 0.9679,-1.6835 1.825,-3.429 2.5658,-5.2253 0.7408,-1.7962 1.3638,-3.6394 1.8648,-5.5176 0.5013,-1.8783 0.8793,-3.7875 1.1323,-5.7154 0.252,-1.928 0.379,-3.8706 0.379,-5.8152 0,0 -44.25,0 -44.25,0"
         id="path32"
         inkscape:connector-curvature="0"
         style="fill:#d7191c;stroke:#000000;stroke-width:0.5" />
      <ellipse
         cx="57"
         cy="-45"
         rx="44.25"
         ry="44.5"
         id="ellipse34"
         d="m 101.25,-45 c 0,24.576671 -19.8114,44.5 -44.25,44.5 -24.4386,0 -44.25,-19.923329 -44.25,-44.5 0,-24.576671 19.8114,-44.5 44.25,-44.5 24.4386,0 44.25,19.923329 44.25,44.5 z"
         sodipodi:cx="57"
         sodipodi:cy="-45"
         sodipodi:rx="44.25"
         sodipodi:ry="44.5"
         style="fill:none;stroke:#000000" />
    </g>
    <!-- 1&#45;&gt;2 -->
    <g
       id="edge2"
       class="edge">
      <title
         id="title37">1-&gt;2</title>
      <path
         d="m 50.349,-126.291 c -0.1441,8.858 -0.1309,18.003 0.0396,26.808"
         id="path39"
         inkscape:connector-curvature="0"
         style="fill:none;stroke:#000000;stroke-width:1.24000001" />
      <polygon
         points="53.8912,-99.4313 50.661,-89.3408 46.8937,-99.2432 53.8912,-99.4313 "
         id="polygon41"
         style="fill:#000000;stroke:#000000;stroke-width:1.24000001" />
    </g>
    <!-- 2&#45;&gt;1 -->
    <g
       id="edge3"
       class="edge">
      <title
         id="title44">2-&gt;1</title>
      <path
         d="m 63.339,-89.3408 c 0.2968,-8.534 0.4328,-17.6672 0.4082,-26.7502"
         id="path46"
         inkscape:connector-curvature="0"
         style="fill:none;stroke:#000000;stroke-width:0.88" />
      <polygon
         points="60.2455,-116.259 63.651,-126.291 67.2452,-116.325 60.2455,-116.259 "
         id="polygon48"
         style="fill:#000000;stroke:#000000;stroke-width:0.88" />
    </g>
    <!-- 2&#45;&gt;2 -->
    <g
       id="edge4"
       class="edge">
      <title
         id="title51">2-&gt;2</title>
      <path
         d="M 93.2997,-70.7739 C 107.335,-71.9194 119,-63.3281 119,-45 c 0,13.6029 -6.426,21.8424 -15.477,24.7184"
         id="path53"
         inkscape:connector-curvature="0"
         style="fill:none;stroke:#000000;stroke-width:2" />
      <polygon
         points="103.606,-16.7717 93.2997,-19.2261 102.887,-23.7347 103.606,-16.7717 "
         id="polygon55"
         style="fill:#000000;stroke:#000000;stroke-width:2" />
    </g>
  </g>
</svg>
