<?xml version="1.0" encoding="UTF-8" standalone="no"?>
<!-- Generated by graphviz version 2.36.0 (20140111.2315)
 -->

<!-- Title: G Pages: 1 -->

<svg
   xmlns:dc="http://purl.org/dc/elements/1.1/"
   xmlns:cc="http://creativecommons.org/ns#"
   xmlns:rdf="http://www.w3.org/1999/02/22-rdf-syntax-ns#"
   xmlns:svg="http://www.w3.org/2000/svg"
   xmlns="http://www.w3.org/2000/svg"
   xmlns:sodipodi="http://sodipodi.sourceforge.net/DTD/sodipodi-0.dtd"
   xmlns:inkscape="http://www.inkscape.org/namespaces/inkscape"
   width="298.125"
   height="166.40625"
   viewBox="0 0 238.5 133.125"
   id="svg4708"
   version="1.1"
   inkscape:version="0.48.4 r9939"
   sodipodi:docname="PuntaBanda-ParCon_2_0.dot.svg">
  <metadata
     id="metadata4763">
    <rdf:RDF>
      <cc:Work
         rdf:about="">
        <dc:format>image/svg+xml</dc:format>
        <dc:type
           rdf:resource="http://purl.org/dc/dcmitype/StillImage" />
      </cc:Work>
    </rdf:RDF>
  </metadata>
  <defs
     id="defs4761" />
  <sodipodi:namedview
     pagecolor="#ffffff"
     bordercolor="#666666"
     borderopacity="1"
     objecttolerance="10"
     gridtolerance="10"
     guidetolerance="10"
     inkscape:pageopacity="0"
     inkscape:pageshadow="2"
     inkscape:window-width="701"
     inkscape:window-height="480"
     id="namedview4759"
     showgrid="false"
     fit-margin-top="0"
     fit-margin-left="0"
     fit-margin-right="0"
     fit-margin-bottom="0"
     inkscape:zoom="0.76747967"
     inkscape:cx="149.29791"
     inkscape:cy="83.514588"
     inkscape:window-x="65"
     inkscape:window-y="24"
     inkscape:window-maximized="0"
     inkscape:current-layer="svg4708" />
  <g
     id="graph0"
     class="graph"
     transform="matrix(0,-1,1,0,238,132.375)">
    <title
       id="title4711">G</title>
    <!-- 1 -->
    <g
       id="node1"
       class="node">
      <title
         id="title4714">1</title>
      <path
         d="m 57,-180 c 0,0 57.25,0 57.25,0 0,-1.534 -0.061,-3.066 -0.183,-4.595 -0.122,-1.529 -0.305,-3.052 -0.548,-4.566 -0.243,-1.514 -0.547,-3.017 -0.91,-4.507 -0.363,-1.489 -0.785,-2.964 -1.265,-4.419 -0.48,-1.456 -1.019,-2.892 -1.613,-4.304 -0.595,-1.413 -1.245,-2.801 -1.95,-4.161 -0.705,-1.36 -1.464,-2.691 -2.275,-3.991 -0.811,-1.299 -1.674,-2.565 -2.586,-3.795 0,0 -45.92,34.338 -45.92,34.338"
         id="path4716"
         inkscape:connector-curvature="0"
         style="fill:#abdda4;stroke:#000000;stroke-width:0.5" />
      <path
         d="m 57,-180 c 0,0 45.92,-34.338 45.92,-34.338 -1.146,-1.547 -2.37,-3.035 -3.665,-4.458 -1.2954,-1.423 -2.6613,-2.78 -4.0924,-4.066 -1.4312,-1.285 -2.9259,-2.497 -4.4783,-3.632 -1.5525,-1.135 -3.1608,-2.19 -4.8189,-3.162 -1.658,-0.973 -3.3637,-1.86 -5.1106,-2.661 -1.7469,-0.8 -3.5327,-1.511 -5.3508,-2.131 -1.818,-0.62 -3.666,-1.147 -5.5368,-1.581 -1.8709,-0.433 -3.7622,-0.772 -5.6669,-1.014 -1.9048,-0.243 -3.8204,-0.389 -5.7398,-0.438 -1.9193,-0.049 -3.8399,-0.002 -5.7544,0.143 -1.9146,0.145 -3.8207,0.386 -5.7111,0.723 -1.8904,0.337 -3.7628,0.769 -5.6099,1.295 -1.8472,0.526 -3.6668,1.145 -5.4521,1.855 -1.7852,0.709 -3.5338,1.509 -5.2391,2.395 -1.7052,0.886 -3.3651,1.857 -4.9731,2.911 -1.6081,1.053 -3.1624,2.188 -4.657,3.398 0,0 35.9362,44.761 35.9362,44.761"
         id="path4718"
         inkscape:connector-curvature="0"
         style="fill:#2b83ba;stroke:#000000;stroke-width:0.5" />
      <path
         d="m 57,-180 c 0,0 -35.9362,-44.761 -35.9362,-44.761 -1.0206,0.827 -2.0127,1.688 -2.9745,2.583 -0.9618,0.895 -1.8927,1.823 -2.791,2.783 -0.8983,0.959 -1.7636,1.949 -2.5942,2.968 -0.8307,1.019 -1.6262,2.066 -2.3853,3.14 -0.759,1.073 -1.4811,2.173 -2.16496,3.297 -0.68387,1.123 -1.3291,2.27 -1.93456,3.438 -0.60545,1.168 -1.17078,2.357 -1.69497,3.564 -0.5242,1.207 -1.00695,2.432 -1.4474,3.672 C 3.07691,-199.316 57,-180 57,-180"
         id="path4720"
         inkscape:connector-curvature="0"
         style="fill:#fdae61;stroke:#000000;stroke-width:0.5" />
      <path
         d="m 57,-180 c 0,0 -53.92309,-19.316 -53.92309,-19.316 -0.69817,1.966 -1.28922,3.969 -1.77053,6 -0.481308,2.03 -0.852167,4.086 -1.110925,6.157 -0.258759,2.071 -0.405034,4.155 -0.438176,6.242 -0.033141,2.087 0.0469,4.175 0.23976767,6.253 0.19286833,2.078 0.49827633,4.145 0.91487033,6.19 0.416593,2.045 0.943753,4.065 1.579133,6.053 0.63539,1.987 1.37806,3.939 2.22471,5.845 0.84665,1.906 1.79603,3.765 2.84392,5.568 1.04789,1.802 2.19274,3.546 3.42942,5.224 1.2368,1.677 2.5635,3.286 3.9744,4.819 1.4109,1.533 2.9039,2.987 4.4722,4.357 1.5684,1.369 3.2099,2.652 4.9172,3.842 1.7072,1.191 3.4778,2.287 5.3037,3.284 1.826,0.997 3.7046,1.893 5.6276,2.685 1.923,0.792 3.8875,1.478 5.8848,2.055 1.9973,0.577 4.0244,1.045 6.0723,1.4 2.0479,0.356 4.1136,0.6 6.1878,0.73 2.0743,0.13 4.1541,0.147 6.2302,0.05 2.076,-0.097 4.1453,-0.307 6.1986,-0.63 2.0533,-0.323 4.0876,-0.758 6.0938,-1.304 2.0061,-0.545 3.9813,-1.199 5.9166,-1.96 1.9353,-0.761 3.828,-1.627 5.6695,-2.595 1.8416,-0.967 3.6293,-2.035 5.3553,-3.198 1.7259,-1.163 3.3875,-2.419 4.9775,-3.763 1.5899,-1.345 3.1057,-2.775 4.5408,-4.285 1.435,-1.51 2.7876,-3.097 4.0506,-4.755 1.263,-1.657 2.435,-3.383 3.512,-5.168 1.076,-1.786 2.055,-3.629 2.932,-5.522 0.877,-1.892 1.65,-3.831 2.317,-5.808 0.667,-1.977 1.226,-3.989 1.675,-6.027 0.449,-2.039 0.787,-4.1 1.013,-6.175 0.226,-2.075 0.339,-4.161 0.339,-6.248 0,0 -57.25,0 -57.25,0"
         id="path4722"
         inkscape:connector-curvature="0"
         style="fill:#d7191c;stroke:#000000;stroke-width:0.5" />
      <ellipse
         cx="57"
         cy="-180"
         rx="57.25"
         ry="57.5"
         id="ellipse4724"
         d="m 114.25,-180 c 0,31.75637 -25.631698,57.5 -57.25,57.5 -31.618302,0 -57.25,-25.74363 -57.25,-57.5 0,-31.75637 25.631698,-57.5 57.25,-57.5 31.618302,0 57.25,25.74363 57.25,57.5 z"
         sodipodi:cx="57"
         sodipodi:cy="-180"
         sodipodi:rx="57.25"
         sodipodi:ry="57.5"
         style="fill:none;stroke:#000000" />
    </g>
    <!-- 1&#45;&gt;1 -->
    <g
       id="edge1"
       class="edge">
      <title
         id="title4727">1-&gt;1</title>
      <path
         d="m 108.529,-205.237 c 13.381,1.551 23.471,9.964 23.471,25.237 0,11.216 -5.442,18.733 -13.632,22.549"
         id="path4729"
         inkscape:connector-curvature="0"
         style="fill:none;stroke:#000000;stroke-width:0.74666703" />
      <polygon
         points="119.098,-154.023 108.529,-154.763 117.253,-160.775 119.098,-154.023 "
         id="polygon4731"
         style="fill:#000000;stroke:#000000;stroke-width:0.74666703" />
    </g>
    <!-- 2 -->
    <g
       id="node2"
       class="node">
      <title
         id="title4734">2</title>
      <ellipse
         cx="57"
         cy="-43"
         rx="43"
         ry="43"
         id="ellipse4736"
         d="M 100,-43 C 100,-19.251756 80.748244,0 57,0 33.251756,0 14,-19.251756 14,-43 c 0,-23.748244 19.251756,-43 43,-43 23.748244,0 43,19.251756 43,43 z"
         sodipodi:cx="57"
         sodipodi:cy="-43"
         sodipodi:rx="43"
         sodipodi:ry="43"
         style="fill:#fdae61;stroke:#000000" />
    </g>
    <!-- 1&#45;&gt;2 -->
    <g
       id="edge2"
       class="edge">
      <title
         id="title4739">1-&gt;2</title>
      <path
         d="m 50.3307,-122.53 c -0.1303,8.828 -0.1029,17.915 0.0823,26.6351"
         id="path4741"
         inkscape:connector-curvature="0"
         style="fill:none;stroke:#000000;stroke-width:2" />
      <polygon
         points="53.9124,-95.9622 50.7027,-85.8653 46.9153,-95.76 53.9124,-95.9622 "
         id="polygon4743"
         style="fill:#000000;stroke:#000000;stroke-width:2" />
    </g>
    <!-- 2&#45;&gt;1 -->
    <g
       id="edge3"
       class="edge">
      <title
         id="title4746">2-&gt;1</title>
      <path
         d="m 63.2973,-85.8653 c 0.3119,-8.4266 0.4626,-17.4797 0.4522,-26.5107"
         id="path4748"
         inkscape:connector-curvature="0"
         style="fill:none;stroke:#000000;stroke-width:0.973333" />
      <polygon
         points="60.2485,-112.503 63.6693,-122.53 67.2483,-112.558 60.2485,-112.503 "
         id="polygon4750"
         style="fill:#000000;stroke:#000000;stroke-width:0.973333" />
    </g>
    <!-- 2&#45;&gt;2 -->
    <g
       id="edge4"
       class="edge">
      <title
         id="title4753">2-&gt;2</title>
      <path
         d="M 91.7972,-68.3117 C 106.011,-69.8982 118,-61.4609 118,-43 c 0,13.8457 -6.744,22.0531 -16.112,24.6221"
         id="path4755"
         inkscape:connector-curvature="0"
         style="fill:none;stroke:#000000;stroke-width:1.09333003" />
      <polygon
         points="102.013,-14.8784 91.7972,-17.6883 101.535,-21.8621 102.013,-14.8784 "
         id="polygon4757"
         style="fill:#000000;stroke:#000000;stroke-width:1.09333003" />
    </g>
  </g>
</svg>
