<?xml version="1.0" encoding="UTF-8" standalone="no"?>
<!-- Created with Inkscape (http://www.inkscape.org/) -->

<svg
   xmlns:dc="http://purl.org/dc/elements/1.1/"
   xmlns:cc="http://creativecommons.org/ns#"
   xmlns:rdf="http://www.w3.org/1999/02/22-rdf-syntax-ns#"
   xmlns:svg="http://www.w3.org/2000/svg"
   xmlns="http://www.w3.org/2000/svg"
   xmlns:sodipodi="http://sodipodi.sourceforge.net/DTD/sodipodi-0.dtd"
   xmlns:inkscape="http://www.inkscape.org/namespaces/inkscape"
   id="svg2"
   version="1.1"
   inkscape:version="0.91 r"
   xml:space="preserve"
   width="685.07001"
   height="257.03625"
   viewBox="0 0 685.07001 257.03625"
   sodipodi:docname="PuntaBandaImbalanceTable.svg"><metadata
     id="metadata8"><rdf:RDF><cc:Work
         rdf:about=""><dc:format>image/svg+xml</dc:format><dc:type
           rdf:resource="http://purl.org/dc/dcmitype/StillImage" /><dc:title></dc:title></cc:Work></rdf:RDF></metadata><defs
     id="defs6" /><sodipodi:namedview
     pagecolor="#ffffff"
     bordercolor="#666666"
     borderopacity="1"
     objecttolerance="10"
     gridtolerance="10"
     guidetolerance="10"
     inkscape:pageopacity="0"
     inkscape:pageshadow="2"
     inkscape:window-width="960"
     inkscape:window-height="1028"
     id="namedview4"
     showgrid="false"
     fit-margin-top="0"
     fit-margin-left="0"
     fit-margin-right="0"
     fit-margin-bottom="0"
     inkscape:zoom="0.95353535"
     inkscape:cx="401.14076"
     inkscape:cy="-70.566437"
     inkscape:window-x="960"
     inkscape:window-y="0"
     inkscape:window-maximized="1"
     inkscape:current-layer="g10" /><g
     id="g10"
     inkscape:groupmode="layer"
     inkscape:label="PuntaBandaTable"
     transform="matrix(1.25,0,0,-1.25,-34.9775,833.9975)"><g
       id="g12"
       transform="translate(27.982,666.999)"><path
         d="M 0,0 548.056,0"
         style="fill:none;stroke:#000000;stroke-width:0.398;stroke-linecap:butt;stroke-linejoin:miter;stroke-miterlimit:10;stroke-dasharray:none;stroke-opacity:1"
         id="path14"
         inkscape:connector-curvature="0" /></g><text
       transform="matrix(1,0,0,-1,33.96,658.431)"
       style="font-variant:normal;font-weight:normal;font-size:9.96259975px;font-family:CMR10;-inkscape-font-specification:CMR10;writing-mode:lr-tb;fill:#000000;fill-opacity:1;fill-rule:nonzero;stroke:none"
       id="text16"><tspan
         x="0 7.1949897 12.17629 17.71151 22.138889 27.12019 35.422024 38.189636 42.064091 47.045391 52.301659 59.50362 65.730247 68.497856 74.023117 79.281372 95.175705 102.78614 107.21352 112.19482 116.09717 120.52454 128.26947 135.46446 140.44576 144.34811 148.25046 152.67784 157.10522 160.97968 165.40706 185.38805 204.81511"
         y="0"
         sodipodi:role="line"
         id="tspan18">ConcomitantLinksDegreeCorrectedg1</tspan></text>
<text
       transform="matrix(1,0,0,-1,243.757,662.046)"
       style="font-variant:normal;font-weight:normal;font-size:6.97380018px;font-family:CMSY7;-inkscape-font-specification:CMSY7;writing-mode:lr-tb;fill:#000000;fill-opacity:1;fill-rule:nonzero;stroke:none"
       id="text20"><tspan
         x="0"
         y="0"
         id="tspan22">◦</tspan></text>
<text
       transform="matrix(1,0,0,-1,251.658,658.431)"
       style="font-variant:normal;font-weight:normal;font-size:9.96259975px;font-family:CMR10;-inkscape-font-specification:CMR10;writing-mode:lr-tb;fill:#000000;fill-opacity:1;fill-rule:nonzero;stroke:none"
       id="text24"><tspan
         x="0 6.7805457 10.682896 15.943149 21.478369 27.01359 31.440969 35.868347 39.770699 55.764656 63.236607 67.663986 71.566338 77.101555 79.869171 84.848473 89.829773 93.732124 98.159508 124.41494 131.60992 136.59123 142.12645 146.05569 151.59093 159.89276 164.32013 168.22249 193.06323 199.56482 204.54613 208.44847 213.42978 217.35902 220.12663 224.00108 228.42847 261.70755 269.1795 271.94711"
         y="0"
         sodipodi:role="line"
         id="tspan26">ProducersHerbivoresConsumersParasitesAll</tspan></text>
<g
       id="g28"
       transform="translate(27.982,654.645)"><path
         d="M 0,0 548.056,0"
         style="fill:none;stroke:#000000;stroke-width:0.398;stroke-linecap:butt;stroke-linejoin:miter;stroke-miterlimit:10;stroke-dasharray:none;stroke-opacity:1"
         id="path30"
         inkscape:connector-curvature="0" /></g><text
       transform="matrix(1,0,0,-1,69.341,628.145)"
       style="font-variant:normal;font-weight:normal;font-size:9.96259975px;font-family:CMR10;-inkscape-font-specification:CMR10;writing-mode:lr-tb;fill:#000000;fill-opacity:1;fill-rule:nonzero;stroke:none"
       id="text32"><tspan
         x="0 7.4719501 91.446709 98.918655"
         y="0"
         sodipodi:role="line"
         id="tspan34">NoNo</tspan><tspan
         x="150.007 169.43407 174.41537 177.18298 182.16428 187.14558 192.12688 197.10818 202.08948 238.08435 243.06566 245.83327 250.81456 255.79587 260.77716 265.75845 270.73978 306.73465 311.71594 314.48355 319.46484 324.44614 329.42746 334.40875 339.39005 375.37497 380.35626 383.12387 388.10516 393.08646 444.02524 449.00653 451.77414 456.75546 461.73676 466.71805 471.69934 476.68066"
         y="-17.931999"
         sodipodi:role="line"
         id="tspan36">20.895***0.737***0.491***0.4210.246***</tspan><tspan
         x="150.007 169.43407 174.41537 177.18298 182.16428 187.14558 192.12688 197.10818 238.08435 243.06566 245.83327 250.81456 255.79587 306.73465 311.71594 314.48355 319.46484 324.44614 329.42746 334.40875 339.39005 375.37497 380.35626 383.12387 388.10516 393.08646 444.02524 449.00653 451.77414 456.75546 461.73676 466.71805 471.69934 476.68066"
         y="-5.9770002"
         sodipodi:role="line"
         id="tspan38">30.826**0.5890.331***0.2600.120***</tspan><tspan
         x="150.007 169.43407 174.41537 177.18298 182.16428 187.14558 192.12688 197.10818 202.08948 238.08435 243.06566 245.83327 250.81456 255.79587 260.77716 265.75845 270.73978 306.73465 311.71594 314.48355 319.46484 324.44614 329.42746 334.40875 339.39005 375.37497 380.35626 383.12387 388.10516 393.08646 398.06778 403.04907 408.03036 444.02524 449.00653 451.77414 456.75546 461.73676 466.71805 471.69934 476.68066"
         y="5.9780002"
         sodipodi:role="line"
         id="tspan40">50.757***0.551***0.628***0.430***0.307***</tspan><tspan
         x="147.517 152.49831 169.43472 174.41602 177.18362 182.16493 187.14622 192.12753 238.08501 243.0663 245.83391 250.81522 255.79651 260.7778 265.75912 270.74042 306.73529 311.71658 314.47424 319.45554 324.44681 329.4281 334.40939 339.39069 375.37561 380.3569 383.12451 388.10583 393.08713 398.06842 403.04971 408.03101 444.02588 449.0072 451.77481 456.7561 461.7374 466.71869 471.70001 476.6813"
         y="17.933001"
         sodipodi:role="line"
         id="tspan42">100.585*0.448***0.439***0.445***0.214***</tspan></text>
<g
       id="g44"
       transform="translate(27.982,606.426)"><path
         d="M 0,0 548.056,0"
         style="fill:none;stroke:#000000;stroke-width:0.398;stroke-linecap:butt;stroke-linejoin:miter;stroke-miterlimit:10;stroke-dasharray:none;stroke-opacity:1"
         id="path46"
         inkscape:connector-curvature="0" /></g><text
       transform="matrix(1,0,0,-1,69.341,579.925)"
       style="font-variant:normal;font-weight:normal;font-size:9.96259975px;font-family:CMR10;-inkscape-font-specification:CMR10;writing-mode:lr-tb;fill:#000000;fill-opacity:1;fill-rule:nonzero;stroke:none"
       id="text48"><tspan
         x="0 7.4719501 90.171494 96.816544 101.24393"
         y="0"
         sodipodi:role="line"
         id="tspan50">NoYes</tspan><tspan
         x="150.007 169.43407 174.41537 177.18298 182.16428 187.14558 238.08435 243.06566 245.83327 250.81456 255.79587 306.73465 311.71594 314.48355 319.46484 324.44614 329.42746 334.40875 339.39005 375.37497 380.35626 383.12387 388.10516 393.08646 398.06778 403.04907 408.03036 444.02524 449.00653 451.77414 456.75546 461.73676 466.71805 471.69934 476.68066"
         y="-17.933001"
         sodipodi:role="line"
         id="tspan52">20.8740.6920.660***0.449***0.397***</tspan><tspan
         x="150.007 169.43407 174.41537 177.18298 182.16428 187.14558 238.08435 243.06566 245.83327 250.81456 255.79587 306.73465 311.71594 314.48355 319.46484 324.44614 329.42746 334.40875 339.39005 375.37497 380.35626 383.12387 388.10516 393.08646 398.06778 403.04907 408.03036 444.02524 449.00653 451.77414 456.75546 461.73676 466.71805 471.69934 476.68066"
         y="-5.9780002"
         sodipodi:role="line"
         id="tspan54">30.8150.5650.381***0.521***0.250***</tspan><tspan
         x="150.007 169.43407 174.41537 177.18298 182.16428 187.14558 238.08435 243.06566 245.83327 250.81456 255.79587 306.73465 311.71594 314.48355 319.46484 324.44614 329.42746 334.40875 339.39005 375.37497 380.35626 383.12387 388.10516 393.08646 398.06778 403.04907 408.03036 444.02524 449.00653 451.77414 456.75546 461.73676 466.71805 471.69934 476.68066"
         y="5.9770002"
         sodipodi:role="line"
         id="tspan56">50.6890.3500.289***0.559***0.109***</tspan><tspan
         x="147.517 152.49831 169.43472 174.41602 177.18362 182.16493 187.14622 238.08501 243.0663 245.83391 250.81522 255.79651 306.73529 311.71658 314.47424 319.45554 324.44681 329.4281 334.40939 339.39069 375.37561 380.3569 383.12451 388.10583 393.08713 398.06842 403.04971 408.03101 444.02588 449.0072 451.77481 456.7561 461.7374 466.71869 471.70001 476.6813"
         y="17.931999"
         sodipodi:role="line"
         id="tspan58">100.4870.1450.244***0.138***0.027***</tspan></text>
<g
       id="g60"
       transform="translate(27.982,558.207)"><path
         d="M 0,0 548.056,0"
         style="fill:none;stroke:#000000;stroke-width:0.398;stroke-linecap:butt;stroke-linejoin:miter;stroke-miterlimit:10;stroke-dasharray:none;stroke-opacity:1"
         id="path62"
         inkscape:connector-curvature="0" /></g><text
       transform="matrix(1,0,0,-1,68.068,531.706)"
       style="font-variant:normal;font-weight:normal;font-size:9.96259975px;font-family:CMR10;-inkscape-font-specification:CMR10;writing-mode:lr-tb;fill:#000000;fill-opacity:1;fill-rule:nonzero;stroke:none"
       id="text64"><tspan
         x="0 6.6450543 11.072433 92.719925 100.19188"
         y="0"
         sodipodi:role="line"
         id="tspan66">YesNo</tspan><tspan
         x="151.28 170.70708 175.68837 178.45598 183.43729 188.41858 193.39989 198.38118 239.35736 244.33865 247.10626 252.08757 257.06888 262.05017 267.03146 272.01276 308.00763 312.98895 315.75656 320.73785 325.71915 330.70044 335.68176 340.66306 376.64795 381.62927 384.39688 389.37817 394.35947 399.34076 404.32208 409.30338 445.29825 450.27954 453.04715 458.02844 463.00977 467.99106 472.97235 477.95364"
         y="-17.933001"
         sodipodi:role="line"
         id="tspan68">20.898**0.745***0.912***0.555***0.555***</tspan><tspan
         x="151.28 170.70708 175.68837 178.45598 183.43729 188.41858 193.39989 198.38118 239.35736 244.33865 247.10626 252.08757 257.06888 308.00763 312.98895 315.75656 320.73785 325.71915 330.70044 335.68176 340.66306 376.64795 381.62927 384.39688 389.37817 394.35947 399.34076 404.32208 409.30338 445.29825 450.27954 453.04715 458.02844 463.00977 467.99106 472.97235 477.95364"
         y="-5.9780002"
         sodipodi:role="line"
         id="tspan70">30.839**0.5980.835***0.603***0.370***</tspan><tspan
         x="151.28 170.70708 175.68837 178.45598 183.43729 188.41858 239.35736 244.33865 247.10626 252.08757 257.06888 262.05017 308.00763 312.98895 315.75656 320.73785 325.71915 330.70044 335.68176 340.66306 376.64795 381.62927 384.39688 389.37817 394.35947 399.34076 404.32208 409.30338 445.29825 450.27954 453.04715 458.02844 463.00977 467.99106 472.97235 477.95364"
         y="5.9770002"
         sodipodi:role="line"
         id="tspan72">50.7310.440*0.702***0.710***0.327***</tspan><tspan
         x="148.78999 153.7713 170.70772 175.68903 178.45663 183.43793 188.41924 193.40053 198.38184 203.36313 239.358 244.33931 247.10692 252.08821 257.06952 262.05081 267.0321 272.01343 308.0083 312.98959 315.74722 320.73849 325.71979 330.70111 335.6824 340.6637 376.64862 381.62991 384.39752 389.37881 394.36011 399.34143 404.32272 409.30402 445.29889 450.28018 453.04779 458.02911 463.01041 467.9917 472.97299 477.95432"
         y="17.933001"
         sodipodi:role="line"
         id="tspan74">100.702***0.284***0.582***0.343***0.164***</tspan></text>
<g
       id="g76"
       transform="translate(27.982,509.988)"><path
         d="M 0,0 548.056,0"
         style="fill:none;stroke:#000000;stroke-width:0.398;stroke-linecap:butt;stroke-linejoin:miter;stroke-miterlimit:10;stroke-dasharray:none;stroke-opacity:1"
         id="path78"
         inkscape:connector-curvature="0" /></g><text
       transform="matrix(1,0,0,-1,68.068,483.487)"
       style="font-variant:normal;font-weight:normal;font-size:9.96259975px;font-family:CMR10;-inkscape-font-specification:CMR10;writing-mode:lr-tb;fill:#000000;fill-opacity:1;fill-rule:nonzero;stroke:none"
       id="text80"><tspan
         x="0 6.6450543 11.072433 91.44471 98.089767 102.51714"
         y="0"
         sodipodi:role="line"
         id="tspan82">YesYes</tspan><tspan
         x="151.28 170.70708 175.68837 178.45598 183.43729 188.41858 239.35736 244.33865 247.10626 252.08757 257.06888 262.05017 267.03146 272.01276 308.00763 312.98895 315.75656 320.73785 325.71915 330.70044 335.68176 340.66306 376.64795 381.62927 384.39688 389.37817 394.35947 399.34076 404.32208 409.30338 445.29825 450.27954 453.04715 458.02844 463.00977 467.99106 472.97235 477.95364"
         y="-17.933001"
         sodipodi:role="line"
         id="tspan84">20.8740.709***0.812***0.609***0.537***</tspan><tspan
         x="151.28 170.70708 175.68837 178.45598 183.43729 188.41858 193.39989 198.38118 239.35736 244.33865 247.10626 252.08757 257.06888 262.05017 267.03146 272.01276 308.00763 312.98895 315.75656 320.73785 325.71915 330.70044 335.68176 340.66306 376.64795 381.62927 384.39688 389.37817 394.35947 399.34076 404.32208 409.30338 445.29825 450.27954 453.04715 458.02844 463.00977 467.99106 472.97235 477.95364"
         y="-5.9780002"
         sodipodi:role="line"
         id="tspan86">30.833**0.609***0.564***0.515***0.282***</tspan><tspan
         x="151.28 170.70708 175.68837 178.45598 183.43729 188.41858 239.35736 244.33865 247.10626 252.08757 257.06888 308.00763 312.98895 315.75656 320.73785 325.71915 330.70044 335.68176 340.66306 376.64795 381.62927 384.39688 389.37817 394.35947 399.34076 404.32208 409.30338 445.29825 450.27954 453.04715 458.02844 463.00977 467.99106 472.97235 477.95364"
         y="5.9780002"
         sodipodi:role="line"
         id="tspan88">50.7160.3600.365***0.506***0.173***</tspan><tspan
         x="148.78999 153.7713 170.70772 175.68903 178.45663 183.43793 188.41924 239.358 244.33931 247.10692 252.08821 257.06952 262.05081 267.0321 272.01343 308.0083 312.98959 315.74722 320.73849 325.71979 330.70111 335.6824 340.6637 376.64862 381.62991 384.39752 389.37881 394.36011 399.34143 404.32272 409.30402 445.29889 450.28018 453.04779 458.02911 463.01041 467.9917 472.97299 477.95432"
         y="17.933001"
         sodipodi:role="line"
         id="tspan90">100.4510.198***0.364***0.445***0.114***</tspan></text>
<g
       id="g92"
       transform="translate(27.982,461.768)"><path
         d="M 0,0 548.056,0"
         style="fill:none;stroke:#000000;stroke-width:0.398;stroke-linecap:butt;stroke-linejoin:miter;stroke-miterlimit:10;stroke-dasharray:none;stroke-opacity:1"
         id="path94"
         inkscape:connector-curvature="0" /></g></g></svg>