<?xml version="1.0" encoding="UTF-8" standalone="no"?>
<svg
   xmlns:dc="http://purl.org/dc/elements/1.1/"
   xmlns:cc="http://creativecommons.org/ns#"
   xmlns:rdf="http://www.w3.org/1999/02/22-rdf-syntax-ns#"
   xmlns:svg="http://www.w3.org/2000/svg"
   xmlns="http://www.w3.org/2000/svg"
   xmlns:sodipodi="http://sodipodi.sourceforge.net/DTD/sodipodi-0.dtd"
   xmlns:inkscape="http://www.inkscape.org/namespaces/inkscape"
   class="svglite"
   width="576.00pt"
   height="180.00pt"
   viewBox="0 0 576.00 180.00"
   version="1.1"
   id="svg361"
   sodipodi:docname="dampening_cycles_one.svg"
   inkscape:version="0.92.5 (2060ec1f9f, 2020-04-08)">
  <metadata
     id="metadata365">
    <rdf:RDF>
      <cc:Work
         rdf:about="">
        <dc:format>image/svg+xml</dc:format>
        <dc:type
           rdf:resource="http://purl.org/dc/dcmitype/StillImage" />
        <dc:title />
      </cc:Work>
    </rdf:RDF>
  </metadata>
  <sodipodi:namedview
     pagecolor="#ffffff"
     bordercolor="#666666"
     borderopacity="1"
     objecttolerance="10"
     gridtolerance="10"
     guidetolerance="10"
     inkscape:pageopacity="0"
     inkscape:pageshadow="2"
     inkscape:window-width="1920"
     inkscape:window-height="1009"
     id="namedview363"
     showgrid="false"
     inkscape:zoom="1.4479167"
     inkscape:cx="8.6841709"
     inkscape:cy="132.00255"
     inkscape:window-x="0"
     inkscape:window-y="0"
     inkscape:window-maximized="1"
     inkscape:current-layer="svg361" />
  <defs
     id="defs4">
    <style
       type="text/css"
       id="style2"><![CDATA[
    .svglite line, .svglite polyline, .svglite polygon, .svglite path, .svglite rect, .svglite circle {
      fill: none;
      stroke: #000000;
      stroke-linecap: round;
      stroke-linejoin: round;
      stroke-miterlimit: 10.00;
    }
    .svglite text {
      white-space: pre;
    }
  ]]></style>
  </defs>
  <defs
     id="defs11">
    <clipPath
       id="cpMC4wMHw1NzYuMDB8MC4wMHwxODAuMDA=">
      <rect
         x="0.00"
         y="0.00"
         width="576.00"
         height="180.00"
         id="rect8" />
    </clipPath>
  </defs>
  <defs
     id="defs20">
    <clipPath
       id="cpNDMuMDR8MTcwLjgwfDIyLjQ5fDE0OC4yOQ==">
      <rect
         x="43.04"
         y="22.49"
         width="127.76"
         height="125.80"
         id="rect17" />
    </clipPath>
  </defs>
  <g
     clip-path="url(#cpMC4wMHw1NzYuMDB8MC4wMHwxODAuMDA=)"
     id="g66" />
  <defs
     id="defs71">
    <clipPath
       id="cpMTc2LjI4fDMwNC4wNHwyMi40OXwxNDguMjk=">
      <rect
         x="176.28"
         y="22.49"
         width="127.76"
         height="125.80"
         id="rect68" />
    </clipPath>
  </defs>
  <g
     clip-path="url(#cpMC4wMHw1NzYuMDB8MC4wMHwxODAuMDA=)"
     id="g117" />
  <defs
     id="defs122">
    <clipPath
       id="cpMzA5LjUyfDQzNy4yOHwyMi40OXwxNDguMjk=">
      <rect
         x="309.52"
         y="22.49"
         width="127.76"
         height="125.80"
         id="rect119" />
    </clipPath>
  </defs>
  <g
     clip-path="url(#cpMC4wMHw1NzYuMDB8MC4wMHwxODAuMDA=)"
     id="g168" />
  <defs
     id="defs173">
    <clipPath
       id="cpNDQyLjc2fDU3MC41MnwyMi40OXwxNDguMjk=">
      <rect
         x="442.76"
         y="22.49"
         width="127.76"
         height="125.80"
         id="rect170" />
    </clipPath>
  </defs>
  <g
     clip-path="url(#cpMC4wMHw1NzYuMDB8MC4wMHwxODAuMDA=)"
     id="g219" />
  <defs
     id="defs224">
    <clipPath
       id="cpNDMuMDR8MTcwLjgwfDUuNDh8MjIuNDk=">
      <rect
         x="43.04"
         y="5.48"
         width="127.76"
         height="17.01"
         id="rect221" />
    </clipPath>
  </defs>
  <g
     clip-path="url(#cpMC4wMHw1NzYuMDB8MC4wMHwxODAuMDA=)"
     id="g232" />
  <defs
     id="defs237">
    <clipPath
       id="cpMTc2LjI4fDMwNC4wNHw1LjQ4fDIyLjQ5">
      <rect
         x="176.28"
         y="5.48"
         width="127.76"
         height="17.01"
         id="rect234" />
    </clipPath>
  </defs>
  <g
     clip-path="url(#cpMC4wMHw1NzYuMDB8MC4wMHwxODAuMDA=)"
     id="g245" />
  <defs
     id="defs250">
    <clipPath
       id="cpMzA5LjUyfDQzNy4yOHw1LjQ4fDIyLjQ5">
      <rect
         x="309.52"
         y="5.48"
         width="127.76"
         height="17.01"
         id="rect247" />
    </clipPath>
  </defs>
  <g
     clip-path="url(#cpMC4wMHw1NzYuMDB8MC4wMHwxODAuMDA=)"
     id="g258" />
  <defs
     id="defs263">
    <clipPath
       id="cpNDQyLjc2fDU3MC41Mnw1LjQ4fDIyLjQ5">
      <rect
         x="442.76"
         y="5.48"
         width="127.76"
         height="17.01"
         id="rect260" />
    </clipPath>
  </defs>
  <polyline
     transform="translate(2.5e-7,1.5583816e-6)"
     id="polyline60"
     style="fill:none;stroke:#f74700;stroke-width:1.60000002;stroke-linecap:butt;stroke-linejoin:round;stroke-miterlimit:10"
     points="43.04,142.58 43.55,142.58 44.07,142.58 44.58,142.58 45.10,142.58 45.61,142.58 46.13,142.58 46.64,142.58 47.16,142.58 47.67,142.58 48.19,142.58 48.70,30.30 49.22,140.86 49.74,142.57 50.25,142.58 50.77,142.58 51.28,142.58 51.80,142.58 52.31,142.58 52.83,142.58 53.34,142.58 53.86,142.58 54.37,142.58 54.89,142.58 55.40,142.58 55.92,142.58 56.43,142.58 56.95,142.58 57.46,39.58 57.98,142.34 58.49,142.58 59.01,142.58 59.52,142.58 60.04,142.58 60.55,142.58 61.07,142.58 61.58,142.58 62.10,142.58 62.61,142.58 63.13,142.58 63.64,142.58 64.16,142.58 64.67,142.58 65.19,142.58 65.71,142.41 66.22,114.26 66.74,142.54 67.25,142.58 67.77,142.58 68.28,142.58 68.80,142.58 69.31,142.58 69.83,142.58 70.34,142.58 70.86,142.58 71.37,142.58 71.89,142.58 72.40,142.58 72.92,142.58 73.43,142.58 73.95,142.58 74.46,93.57 74.98,138.88 75.49,142.57 76.01,142.58 76.52,142.58 77.04,142.58 77.55,142.58 78.07,142.58 78.58,142.58 79.10,142.58 79.61,142.58 80.13,142.58 80.64,142.58 81.16,142.58 81.68,142.58 82.19,142.58 82.71,142.58 83.22,30.52 83.74,142.12 84.25,142.58 84.77,142.58 85.28,142.58 85.80,142.58 86.31,142.58 86.83,142.58 87.34,142.58 87.86,142.58 88.37,142.58 88.89,142.58 89.40,142.58 89.92,142.58 90.43,142.58 90.95,142.58 91.46,142.53 91.98,97.22 92.49,142.52 93.01,142.58 93.52,142.58 94.04,142.58 94.55,142.58 95.07,142.58 95.58,142.58 96.10,142.58 96.62,142.58 97.13,142.58 97.65,142.58 98.16,142.58 98.68,142.58 99.19,142.58 99.71,142.58 100.22,126.59 100.74,136.95 101.25,142.57 101.77,142.58 102.28,142.58 102.80,142.58 103.31,142.58 103.83,142.58 104.34,142.58 104.86,142.58 105.37,142.58 105.89,142.58 106.40,142.58 106.92,142.58 107.43,142.58 107.95,142.58 108.46,142.58 108.98,28.63 109.49,141.94 110.01,142.58 110.52,142.58 111.04,142.58 111.55,142.58 112.07,142.58 112.59,142.58 113.10,142.58 113.62,142.58 114.13,142.58 114.65,142.58 115.16,142.58 115.68,142.58 116.19,142.58 116.71,142.58 117.22,142.56 117.74,86.77 118.25,142.51 118.77,142.58 119.28,142.58 119.80,142.58 120.31,142.58 120.83,142.58 121.34,142.58 121.86,142.58 122.37,142.58 122.89,142.58 123.40,142.58 123.92,142.58 124.43,142.58 124.95,142.58 125.46,142.58 125.98,133.14 126.49,135.79 127.01,142.57 127.53,142.58 128.04,142.58 128.56,142.58 129.07,142.58 129.59,142.58 130.10,142.58 130.62,142.58 131.13,142.58 131.65,142.58 132.16,142.58 132.68,142.58 133.19,142.58 133.71,142.58 134.22,142.58 134.74,28.21 135.25,141.86 135.77,142.58 136.28,142.58 136.80,142.58 137.31,142.58 137.83,142.58 138.34,142.58 138.86,142.58 139.37,142.58 139.89,142.58 140.40,142.58 140.92,142.58 141.43,142.58 141.95,142.58 142.46,142.58 142.98,142.56 143.50,83.42 144.01,142.50 144.53,142.58 145.04,142.58 145.56,142.58 146.07,142.58 146.59,142.58 147.10,142.58 147.62,142.58 148.13,142.58 148.65,142.58 149.16,142.58 149.68,142.58 150.19,142.58 150.71,142.58 151.22,142.58 151.74,133.96 152.25,135.57 152.77,142.57 153.28,142.58 153.80,142.58 154.31,142.58 154.83,142.58 155.34,142.58 155.86,142.58 156.37,142.58 156.89,142.58 157.40,142.58 157.92,142.58 158.43,142.58 158.95,142.58 159.47,142.58 159.98,142.58 160.50,28.23 161.01,141.86 161.53,142.58 162.04,142.58 162.56,142.58 163.07,142.58 163.59,142.58 164.10,142.58 164.62,142.58 165.13,142.58 165.65,142.58 166.16,142.58 166.68,142.58 167.19,142.58 167.71,142.58 168.22,142.58 168.74,142.56 169.25,85.24 169.77,142.50 170.28,142.58 170.80,142.58 " />
</svg>
