<?xml version="1.0" encoding="UTF-8" standalone="no"?>
<svg
   xmlns:dc="http://purl.org/dc/elements/1.1/"
   xmlns:cc="http://creativecommons.org/ns#"
   xmlns:rdf="http://www.w3.org/1999/02/22-rdf-syntax-ns#"
   xmlns:svg="http://www.w3.org/2000/svg"
   xmlns="http://www.w3.org/2000/svg"
   xmlns:sodipodi="http://sodipodi.sourceforge.net/DTD/sodipodi-0.dtd"
   xmlns:inkscape="http://www.inkscape.org/namespaces/inkscape"
   class="svglite"
   width="576.00pt"
   height="180.00pt"
   viewBox="0 0 576.00 180.00"
   version="1.1"
   id="svg361"
   sodipodi:docname="dampening_cycles_two.svg"
   inkscape:version="0.92.5 (2060ec1f9f, 2020-04-08)">
  <metadata
     id="metadata365">
    <rdf:RDF>
      <cc:Work
         rdf:about="">
        <dc:format>image/svg+xml</dc:format>
        <dc:type
           rdf:resource="http://purl.org/dc/dcmitype/StillImage" />
        <dc:title />
      </cc:Work>
    </rdf:RDF>
  </metadata>
  <sodipodi:namedview
     pagecolor="#ffffff"
     bordercolor="#666666"
     borderopacity="1"
     objecttolerance="10"
     gridtolerance="10"
     guidetolerance="10"
     inkscape:pageopacity="0"
     inkscape:pageshadow="2"
     inkscape:window-width="1920"
     inkscape:window-height="1009"
     id="namedview363"
     showgrid="false"
     inkscape:zoom="1.4479167"
     inkscape:cx="-111.48849"
     inkscape:cy="145.00237"
     inkscape:window-x="0"
     inkscape:window-y="0"
     inkscape:window-maximized="1"
     inkscape:current-layer="svg361" />
  <defs
     id="defs4">
    <style
       type="text/css"
       id="style2"><![CDATA[
    .svglite line, .svglite polyline, .svglite polygon, .svglite path, .svglite rect, .svglite circle {
      fill: none;
      stroke: #000000;
      stroke-linecap: round;
      stroke-linejoin: round;
      stroke-miterlimit: 10.00;
    }
    .svglite text {
      white-space: pre;
    }
  ]]></style>
  </defs>
  <defs
     id="defs11">
    <clipPath
       id="cpMC4wMHw1NzYuMDB8MC4wMHwxODAuMDA=">
      <rect
         x="0.00"
         y="0.00"
         width="576.00"
         height="180.00"
         id="rect8" />
    </clipPath>
  </defs>
  <defs
     id="defs20">
    <clipPath
       id="cpNDMuMDR8MTcwLjgwfDIyLjQ5fDE0OC4yOQ==">
      <rect
         x="43.04"
         y="22.49"
         width="127.76"
         height="125.80"
         id="rect17" />
    </clipPath>
  </defs>
  <g
     clip-path="url(#cpMC4wMHw1NzYuMDB8MC4wMHwxODAuMDA=)"
     id="g66" />
  <defs
     id="defs71">
    <clipPath
       id="cpMTc2LjI4fDMwNC4wNHwyMi40OXwxNDguMjk=">
      <rect
         x="176.28"
         y="22.49"
         width="127.76"
         height="125.80"
         id="rect68" />
    </clipPath>
  </defs>
  <g
     clip-path="url(#cpMC4wMHw1NzYuMDB8MC4wMHwxODAuMDA=)"
     id="g117" />
  <defs
     id="defs122">
    <clipPath
       id="cpMzA5LjUyfDQzNy4yOHwyMi40OXwxNDguMjk=">
      <rect
         x="309.52"
         y="22.49"
         width="127.76"
         height="125.80"
         id="rect119" />
    </clipPath>
  </defs>
  <g
     clip-path="url(#cpMC4wMHw1NzYuMDB8MC4wMHwxODAuMDA=)"
     id="g168" />
  <defs
     id="defs173">
    <clipPath
       id="cpNDQyLjc2fDU3MC41MnwyMi40OXwxNDguMjk=">
      <rect
         x="442.76"
         y="22.49"
         width="127.76"
         height="125.80"
         id="rect170" />
    </clipPath>
  </defs>
  <g
     clip-path="url(#cpMC4wMHw1NzYuMDB8MC4wMHwxODAuMDA=)"
     id="g219" />
  <defs
     id="defs224">
    <clipPath
       id="cpNDMuMDR8MTcwLjgwfDUuNDh8MjIuNDk=">
      <rect
         x="43.04"
         y="5.48"
         width="127.76"
         height="17.01"
         id="rect221" />
    </clipPath>
  </defs>
  <g
     clip-path="url(#cpMC4wMHw1NzYuMDB8MC4wMHwxODAuMDA=)"
     id="g232" />
  <defs
     id="defs237">
    <clipPath
       id="cpMTc2LjI4fDMwNC4wNHw1LjQ4fDIyLjQ5">
      <rect
         x="176.28"
         y="5.48"
         width="127.76"
         height="17.01"
         id="rect234" />
    </clipPath>
  </defs>
  <g
     clip-path="url(#cpMC4wMHw1NzYuMDB8MC4wMHwxODAuMDA=)"
     id="g245" />
  <defs
     id="defs250">
    <clipPath
       id="cpMzA5LjUyfDQzNy4yOHw1LjQ4fDIyLjQ5">
      <rect
         x="309.52"
         y="5.48"
         width="127.76"
         height="17.01"
         id="rect247" />
    </clipPath>
  </defs>
  <g
     clip-path="url(#cpMC4wMHw1NzYuMDB8MC4wMHwxODAuMDA=)"
     id="g258" />
  <defs
     id="defs263">
    <clipPath
       id="cpNDQyLjc2fDU3MC41Mnw1LjQ4fDIyLjQ5">
      <rect
         x="442.76"
         y="5.48"
         width="127.76"
         height="17.01"
         id="rect260" />
    </clipPath>
  </defs>
  <polyline
     transform="translate(2.5e-7,1.5583816e-6)"
     id="polyline111"
     style="fill:none;stroke:#016394;stroke-width:1.60000002;stroke-linecap:butt;stroke-linejoin:round;stroke-miterlimit:10"
     points="176.28,129.90 176.79,106.98 177.31,129.93 177.82,131.14 178.34,106.20 178.85,127.40 179.37,127.74 179.88,104.89 180.40,126.20 180.91,107.73 181.43,117.87 181.95,101.39 182.46,131.86 182.98,139.10 183.49,133.90 184.01,99.25 184.52,135.86 185.04,139.00 185.55,125.21 186.07,115.85 186.58,137.74 187.10,135.79 187.61,94.12 188.13,132.78 188.64,132.18 189.16,96.85 189.67,129.16 190.19,97.57 190.70,115.41 191.22,135.78 191.73,134.07 192.25,102.40 192.76,131.01 193.28,136.66 193.79,120.83 194.31,118.09 194.82,135.89 195.34,130.07 195.85,104.43 196.37,133.00 196.89,126.32 197.40,107.85 197.92,128.52 198.43,99.06 198.95,121.16 199.46,113.06 199.98,135.40 200.49,134.38 201.01,103.34 201.52,130.17 202.04,136.56 202.55,121.72 203.07,117.10 203.58,135.62 204.10,129.61 204.61,105.00 205.13,132.74 205.64,123.94 206.16,110.78 206.67,127.11 207.19,99.14 207.70,119.40 208.22,124.29 208.73,134.58 209.25,123.73 209.76,114.12 210.28,133.73 210.79,130.33 211.31,105.69 211.82,131.09 212.34,132.08 212.86,104.66 213.37,128.02 213.89,128.67 214.40,103.32 214.92,126.71 215.43,106.78 215.95,118.23 216.46,99.56 216.98,133.53 217.49,138.17 218.01,125.75 218.52,113.92 219.04,137.08 219.55,136.75 220.07,102.96 220.58,129.68 221.10,137.57 221.61,123.52 222.13,115.76 222.64,134.87 223.16,114.44 223.67,120.14 224.19,123.54 224.70,105.65 225.22,119.87 225.73,133.45 226.25,125.75 226.76,111.62 227.28,132.24 227.79,130.25 228.31,106.90 228.83,129.63 229.34,131.50 229.86,106.78 230.37,126.90 230.89,128.62 231.40,104.33 231.92,126.16 232.43,110.48 232.95,116.81 233.46,108.91 233.98,128.37 234.49,139.20 235.01,136.90 235.52,96.19 236.04,133.40 236.55,139.45 237.07,133.41 237.58,100.61 238.10,136.50 238.61,138.08 239.13,106.82 239.64,127.45 240.16,135.25 240.67,96.37 241.19,127.26 241.70,111.03 242.22,108.53 242.73,136.40 243.25,137.85 243.77,114.75 244.28,124.12 244.80,138.15 245.31,135.25 245.83,97.25 246.34,133.47 246.86,137.65 247.37,116.10 247.89,122.36 248.40,135.33 248.92,108.57 249.43,123.41 249.95,122.21 250.46,108.33 250.98,117.01 251.49,132.32 252.01,126.51 252.52,110.95 253.04,130.97 253.55,129.79 254.07,108.24 254.58,128.59 255.10,130.58 255.61,107.89 256.13,126.40 256.64,127.42 257.16,105.85 257.67,125.61 258.19,109.68 258.70,117.03 259.22,108.31 259.74,128.09 260.25,139.15 260.77,136.88 261.28,96.35 261.80,133.32 262.31,139.41 262.83,133.30 263.34,100.85 263.86,136.49 264.37,138.02 264.89,106.47 265.40,127.56 265.92,135.23 266.43,96.34 266.95,127.30 267.46,111.12 267.98,108.11 268.49,136.05 269.01,137.58 269.52,114.02 270.04,124.40 270.55,137.96 271.07,134.46 271.58,98.16 272.10,133.81 272.61,137.25 273.13,112.24 273.64,124.39 274.16,134.98 274.68,104.72 275.19,124.84 275.71,120.20 276.22,110.63 276.74,115.26 277.25,132.01 277.77,127.66 278.28,109.85 278.80,130.37 279.31,130.47 279.83,108.55 280.34,127.67 280.86,131.03 281.37,108.89 281.89,125.40 282.40,128.03 282.92,105.48 283.43,125.22 283.95,111.07 284.46,116.19 284.98,109.29 285.49,127.55 286.01,139.04 286.52,136.80 287.04,96.61 287.55,133.22 288.07,139.33 288.58,132.92 289.10,101.72 289.61,136.51 290.13,137.84 290.65,104.86 291.16,128.10 291.68,135.01 292.19,95.46 292.71,127.57 293.22,109.89 293.74,108.49 294.25,135.80 294.77,137.14 295.28,111.98 295.80,125.40 296.31,137.76 296.83,133.09 297.34,100.35 297.86,134.37 298.37,136.58 298.89,106.55 299.40,126.94 299.92,134.32 300.43,99.97 300.95,126.52 301.46,116.56 301.98,113.77 302.49,113.64 303.01,132.09 303.52,129.09 304.04,108.47 " />
  <g
     transform="matrix(0.75,0,0,0.75,-119.49406,-5.1084771)"
     aria-label="long-arrow-alt-right"
     inkscape:transform-center-x="70.971447"
     inkscape:transform-center-y="58.924989"
     style="font-style:normal;font-variant:normal;font-weight:normal;font-stretch:normal;font-size:43.82711411px;line-height:1.25;font-family:'Font Awesome 5 Pro';-inkscape-font-specification:'Font Awesome 5 Pro';letter-spacing:0px;word-spacing:0px;fill:#000000;fill-opacity:1;stroke:none;stroke-width:1.09567785"
     id="text1574-9-0-9">
    <path
       inkscape:connector-curvature="0"
       d="m 400.85248,30.173074 8.47438,-8.474383 c 0.428,-0.342399 0.428,-1.027198 0,-1.455197 l -8.47438,-8.474383 c -0.6848,-0.599199 -1.712,-0.1712 -1.712,0.770398 v 6.077588 h -26.36475 c -0.5992,0 -1.02719,0.427999 -1.02719,1.027198 v 2.739195 c 0,0.599199 0.42799,1.027198 1.02719,1.027198 h 26.36475 v 6.077588 c 0,0.941598 1.0272,1.369597 1.712,0.684798 z"
       style="fill:#000000;fill-opacity:1;stroke:#000000;stroke-width:1.09567785;stroke-linecap:round;stroke-linejoin:round;stroke-miterlimit:10"
       id="path3685" />
  </g>
</svg>
