<?xml version="1.0" encoding="UTF-8" standalone="no"?>
<svg
   xmlns:dc="http://purl.org/dc/elements/1.1/"
   xmlns:cc="http://creativecommons.org/ns#"
   xmlns:rdf="http://www.w3.org/1999/02/22-rdf-syntax-ns#"
   xmlns:svg="http://www.w3.org/2000/svg"
   xmlns="http://www.w3.org/2000/svg"
   xmlns:sodipodi="http://sodipodi.sourceforge.net/DTD/sodipodi-0.dtd"
   xmlns:inkscape="http://www.inkscape.org/namespaces/inkscape"
   class="svglite"
   width="576.00pt"
   height="180.00pt"
   viewBox="0 0 576.00 180.00"
   version="1.1"
   id="svg361"
   sodipodi:docname="dampening_cycles_four.svg"
   inkscape:version="0.92.5 (2060ec1f9f, 2020-04-08)">
  <metadata
     id="metadata365">
    <rdf:RDF>
      <cc:Work
         rdf:about="">
        <dc:format>image/svg+xml</dc:format>
        <dc:type
           rdf:resource="http://purl.org/dc/dcmitype/StillImage" />
        <dc:title />
      </cc:Work>
    </rdf:RDF>
  </metadata>
  <sodipodi:namedview
     pagecolor="#ffffff"
     bordercolor="#666666"
     borderopacity="1"
     objecttolerance="10"
     gridtolerance="10"
     guidetolerance="10"
     inkscape:pageopacity="0"
     inkscape:pageshadow="2"
     inkscape:window-width="1920"
     inkscape:window-height="1009"
     id="namedview363"
     showgrid="false"
     inkscape:zoom="1.4479167"
     inkscape:cx="439.92653"
     inkscape:cy="145.00237"
     inkscape:window-x="0"
     inkscape:window-y="0"
     inkscape:window-maximized="1"
     inkscape:current-layer="svg361" />
  <defs
     id="defs4">
    <style
       type="text/css"
       id="style2"><![CDATA[
    .svglite line, .svglite polyline, .svglite polygon, .svglite path, .svglite rect, .svglite circle {
      fill: none;
      stroke: #000000;
      stroke-linecap: round;
      stroke-linejoin: round;
      stroke-miterlimit: 10.00;
    }
    .svglite text {
      white-space: pre;
    }
  ]]></style>
  </defs>
  <defs
     id="defs11">
    <clipPath
       id="cpMC4wMHw1NzYuMDB8MC4wMHwxODAuMDA=">
      <rect
         x="0.00"
         y="0.00"
         width="576.00"
         height="180.00"
         id="rect8" />
    </clipPath>
  </defs>
  <defs
     id="defs20">
    <clipPath
       id="cpNDMuMDR8MTcwLjgwfDIyLjQ5fDE0OC4yOQ==">
      <rect
         x="43.04"
         y="22.49"
         width="127.76"
         height="125.80"
         id="rect17" />
    </clipPath>
  </defs>
  <g
     clip-path="url(#cpMC4wMHw1NzYuMDB8MC4wMHwxODAuMDA=)"
     id="g66" />
  <defs
     id="defs71">
    <clipPath
       id="cpMTc2LjI4fDMwNC4wNHwyMi40OXwxNDguMjk=">
      <rect
         x="176.28"
         y="22.49"
         width="127.76"
         height="125.80"
         id="rect68" />
    </clipPath>
  </defs>
  <g
     clip-path="url(#cpMC4wMHw1NzYuMDB8MC4wMHwxODAuMDA=)"
     id="g117" />
  <defs
     id="defs122">
    <clipPath
       id="cpMzA5LjUyfDQzNy4yOHwyMi40OXwxNDguMjk=">
      <rect
         x="309.52"
         y="22.49"
         width="127.76"
         height="125.80"
         id="rect119" />
    </clipPath>
  </defs>
  <g
     clip-path="url(#cpMC4wMHw1NzYuMDB8MC4wMHwxODAuMDA=)"
     id="g168" />
  <defs
     id="defs173">
    <clipPath
       id="cpNDQyLjc2fDU3MC41MnwyMi40OXwxNDguMjk=">
      <rect
         x="442.76"
         y="22.49"
         width="127.76"
         height="125.80"
         id="rect170" />
    </clipPath>
  </defs>
  <g
     clip-path="url(#cpMC4wMHw1NzYuMDB8MC4wMHwxODAuMDA=)"
     id="g219" />
  <defs
     id="defs224">
    <clipPath
       id="cpNDMuMDR8MTcwLjgwfDUuNDh8MjIuNDk=">
      <rect
         x="43.04"
         y="5.48"
         width="127.76"
         height="17.01"
         id="rect221" />
    </clipPath>
  </defs>
  <g
     clip-path="url(#cpMC4wMHw1NzYuMDB8MC4wMHwxODAuMDA=)"
     id="g232" />
  <defs
     id="defs237">
    <clipPath
       id="cpMTc2LjI4fDMwNC4wNHw1LjQ4fDIyLjQ5">
      <rect
         x="176.28"
         y="5.48"
         width="127.76"
         height="17.01"
         id="rect234" />
    </clipPath>
  </defs>
  <g
     clip-path="url(#cpMC4wMHw1NzYuMDB8MC4wMHwxODAuMDA=)"
     id="g245" />
  <defs
     id="defs250">
    <clipPath
       id="cpMzA5LjUyfDQzNy4yOHw1LjQ4fDIyLjQ5">
      <rect
         x="309.52"
         y="5.48"
         width="127.76"
         height="17.01"
         id="rect247" />
    </clipPath>
  </defs>
  <g
     clip-path="url(#cpMC4wMHw1NzYuMDB8MC4wMHwxODAuMDA=)"
     id="g258" />
  <defs
     id="defs263">
    <clipPath
       id="cpNDQyLjc2fDU3MC41Mnw1LjQ4fDIyLjQ5">
      <rect
         x="442.76"
         y="5.48"
         width="127.76"
         height="17.01"
         id="rect260" />
    </clipPath>
  </defs>
  <polyline
     transform="translate(2.5e-7,1.5583816e-6)"
     id="polyline213"
     style="fill:none;stroke:#005342;stroke-width:1.60000002;stroke-linecap:butt;stroke-linejoin:round;stroke-miterlimit:10"
     points="442.76,118.95 443.27,114.61 443.79,119.10 444.30,116.62 444.82,115.77 445.34,120.00 445.85,114.25 446.37,118.01 446.88,118.96 447.40,114.03 447.91,119.33 448.43,117.27 448.94,115.14 449.46,119.96 449.97,114.65 450.49,117.67 451.00,119.15 451.52,114.11 452.03,118.67 452.55,117.68 453.06,115.50 453.58,118.23 454.09,116.56 454.61,117.20 455.12,117.17 455.64,116.39 456.15,118.40 456.67,115.64 457.18,117.70 457.70,118.47 458.21,114.16 458.73,119.75 459.24,116.58 459.76,115.71 460.28,119.40 460.79,115.18 461.31,117.91 461.82,117.27 462.34,116.07 462.85,118.72 463.37,115.38 463.88,117.71 464.40,118.28 464.91,114.69 465.43,119.27 465.94,116.74 466.46,115.69 466.97,119.70 467.49,114.41 468.00,118.60 468.52,117.94 469.03,114.46 469.55,120.24 470.06,115.41 470.58,116.53 471.09,119.38 471.61,115.06 472.12,117.53 472.64,117.71 473.15,116.67 473.67,116.36 474.18,118.31 474.70,116.77 475.21,115.84 475.73,119.30 476.25,114.93 476.76,118.18 477.28,117.80 477.79,114.89 478.31,120.07 478.82,114.81 479.34,117.34 479.85,119.61 480.37,113.72 480.88,118.96 481.40,117.92 481.91,114.76 482.43,119.17 482.94,116.87 483.46,115.63 483.97,119.35 484.49,115.19 485.00,117.39 485.52,118.97 486.03,114.25 486.55,118.74 487.06,117.88 487.58,115.01 488.09,118.60 488.61,116.88 489.12,116.45 489.64,117.48 490.15,117.04 490.67,117.25 491.19,116.00 491.70,118.83 492.22,115.77 492.73,116.76 493.25,119.24 493.76,114.45 494.28,118.61 494.79,117.16 495.31,115.98 495.82,118.69 496.34,115.31 496.85,118.38 497.37,116.86 497.88,115.95 498.40,119.36 498.91,114.81 499.43,117.99 499.94,118.57 500.46,114.25 500.97,120.05 501.49,115.22 502.00,117.00 502.52,119.78 503.03,113.78 503.55,118.68 504.06,117.79 504.58,115.42 505.09,118.63 505.61,115.85 506.12,117.76 506.64,117.31 507.16,115.73 507.67,118.99 508.19,115.90 508.70,116.58 509.22,119.71 509.73,113.82 510.25,118.67 510.76,118.58 511.28,114.25 511.79,119.28 512.31,116.36 512.82,116.60 513.34,118.48 513.85,115.22 514.37,118.48 514.88,117.03 515.40,115.63 515.91,119.13 516.43,116.10 516.94,116.04 517.46,119.84 517.97,114.56 518.49,117.53 519.00,119.10 519.52,114.34 520.03,118.77 520.55,116.98 521.06,116.14 521.58,118.46 522.09,115.65 522.61,118.04 523.13,116.96 523.64,116.13 524.16,118.84 524.67,115.36 525.19,117.69 525.70,118.32 526.22,114.73 526.73,119.56 527.25,115.42 527.76,117.06 528.28,119.40 528.79,114.17 529.31,118.51 529.82,117.67 530.34,115.62 530.85,118.46 531.37,115.90 531.88,117.81 532.40,117.22 532.91,115.78 533.43,119.02 533.94,115.83 534.46,116.63 534.97,119.72 535.49,113.78 536.00,118.70 536.52,118.58 537.03,114.23 537.55,119.31 538.07,116.38 538.58,116.57 539.10,118.46 539.61,115.29 540.13,118.45 540.64,116.98 541.16,115.70 541.67,119.17 542.19,115.91 542.70,116.28 543.22,119.78 543.73,114.33 544.25,117.97 544.76,118.66 545.28,114.53 545.79,119.07 546.31,116.30 546.82,116.73 547.34,118.37 547.85,115.28 548.37,118.61 548.88,116.55 549.40,116.22 549.91,119.11 550.43,115.04 550.94,117.83 551.46,118.43 551.97,114.56 552.49,119.62 553.00,115.56 553.52,116.83 554.04,119.55 554.55,114.19 555.07,118.30 555.58,117.95 556.10,115.43 556.61,118.40 557.13,116.17 557.64,117.53 558.16,117.33 558.67,115.84 559.19,118.85 559.70,115.96 560.22,116.64 560.73,119.62 561.25,113.83 561.76,118.79 562.28,118.43 562.79,114.32 563.31,119.37 563.82,116.22 564.34,116.72 564.85,118.35 565.37,115.32 565.88,118.57 566.40,116.68 566.91,115.97 567.43,119.21 567.94,115.49 568.46,116.85 568.98,119.48 569.49,114.13 570.01,118.60 570.52,117.84 " />
  <g
     transform="matrix(0.75,0,0,0.75,146.94251,-5.1084779)"
     aria-label="long-arrow-alt-right"
     inkscape:transform-center-x="70.971447"
     inkscape:transform-center-y="58.924989"
     style="font-style:normal;font-variant:normal;font-weight:normal;font-stretch:normal;font-size:43.82711411px;line-height:1.25;font-family:'Font Awesome 5 Pro';-inkscape-font-specification:'Font Awesome 5 Pro';letter-spacing:0px;word-spacing:0px;fill:#000000;fill-opacity:1;stroke:none;stroke-width:1.09567785"
     id="text1574-9-0-9-7">
    <path
       inkscape:connector-curvature="0"
       d="m 400.85248,30.173074 8.47438,-8.474383 c 0.428,-0.342399 0.428,-1.027198 0,-1.455197 l -8.47438,-8.474383 c -0.6848,-0.599199 -1.712,-0.1712 -1.712,0.770398 v 6.077588 h -26.36475 c -0.5992,0 -1.02719,0.427999 -1.02719,1.027198 v 2.739195 c 0,0.599199 0.42799,1.027198 1.02719,1.027198 h 26.36475 v 6.077588 c 0,0.941598 1.0272,1.369597 1.712,0.684798 z"
       style="fill:#000000;fill-opacity:1;stroke:#000000;stroke-width:1.09567785;stroke-linecap:round;stroke-linejoin:round;stroke-miterlimit:10"
       id="path3685-5" />
  </g>
</svg>
