<?xml version="1.0" encoding="UTF-8" standalone="no"?>
<svg
   xmlns:dc="http://purl.org/dc/elements/1.1/"
   xmlns:cc="http://creativecommons.org/ns#"
   xmlns:rdf="http://www.w3.org/1999/02/22-rdf-syntax-ns#"
   xmlns:svg="http://www.w3.org/2000/svg"
   xmlns="http://www.w3.org/2000/svg"
   xmlns:sodipodi="http://sodipodi.sourceforge.net/DTD/sodipodi-0.dtd"
   xmlns:inkscape="http://www.inkscape.org/namespaces/inkscape"
   class="svglite"
   width="576.00pt"
   height="180.00pt"
   viewBox="0 0 576.00 180.00"
   version="1.1"
   id="svg281"
   sodipodi:docname="dynamics-hierarchy_two.svg"
   inkscape:version="0.92.5 (2060ec1f9f, 2020-04-08)">
  <metadata
     id="metadata285">
    <rdf:RDF>
      <cc:Work
         rdf:about="">
        <dc:format>image/svg+xml</dc:format>
        <dc:type
           rdf:resource="http://purl.org/dc/dcmitype/StillImage" />
        <dc:title></dc:title>
      </cc:Work>
    </rdf:RDF>
  </metadata>
  <sodipodi:namedview
     pagecolor="#ffffff"
     bordercolor="#666666"
     borderopacity="1"
     objecttolerance="10"
     gridtolerance="10"
     guidetolerance="10"
     inkscape:pageopacity="0"
     inkscape:pageshadow="2"
     inkscape:window-width="1920"
     inkscape:window-height="1009"
     id="namedview283"
     showgrid="false"
     inkscape:zoom="1.4479167"
     inkscape:cx="435.32654"
     inkscape:cy="141.02896"
     inkscape:window-x="0"
     inkscape:window-y="0"
     inkscape:window-maximized="1"
     inkscape:current-layer="svg281" />
  <defs
     id="defs4">
    <style
       type="text/css"
       id="style2"><![CDATA[
    .svglite line, .svglite polyline, .svglite polygon, .svglite path, .svglite rect, .svglite circle {
      fill: none;
      stroke: #000000;
      stroke-linecap: round;
      stroke-linejoin: round;
      stroke-miterlimit: 10.00;
    }
    .svglite text {
      white-space: pre;
    }
  ]]></style>
  </defs>
  <defs
     id="defs11">
    <clipPath
       id="cpMC4wMHw1NzYuMDB8MC4wMHwxODAuMDA=">
      <rect
         x="0.00"
         y="0.00"
         width="576.00"
         height="180.00"
         id="rect8" />
    </clipPath>
  </defs>
  <defs
     id="defs20">
    <clipPath
       id="cpNDMuMDR8MjE1LjIxfDIyLjQ5fDE0OC4yOQ==">
      <rect
         x="43.04"
         y="22.49"
         width="172.17"
         height="125.80"
         id="rect17" />
    </clipPath>
  </defs>
  <g
     clip-path="url(#cpMC4wMHw1NzYuMDB8MC4wMHwxODAuMDA=)"
     id="g66" />
  <defs
     id="defs71">
    <clipPath
       id="cpMjIwLjY5fDM5Mi44N3wyMi40OXwxNDguMjk=">
      <rect
         x="220.69"
         y="22.49"
         width="172.17"
         height="125.80"
         id="rect68" />
    </clipPath>
  </defs>
  <g
     clip-path="url(#cpMC4wMHw1NzYuMDB8MC4wMHwxODAuMDA=)"
     id="g117" />
  <defs
     id="defs122">
    <clipPath
       id="cpMzk4LjM1fDU3MC41MnwyMi40OXwxNDguMjk=">
      <rect
         x="398.35"
         y="22.49"
         width="172.17"
         height="125.80"
         id="rect119" />
    </clipPath>
  </defs>
  <g
     clip-path="url(#cpMC4wMHw1NzYuMDB8MC4wMHwxODAuMDA=)"
     id="g168" />
  <defs
     id="defs173">
    <clipPath
       id="cpNDMuMDR8MjE1LjIxfDUuNDh8MjIuNDk=">
      <rect
         x="43.04"
         y="5.48"
         width="172.17"
         height="17.01"
         id="rect170" />
    </clipPath>
  </defs>
  <g
     clip-path="url(#cpMC4wMHw1NzYuMDB8MC4wMHwxODAuMDA=)"
     id="g181" />
  <defs
     id="defs186">
    <clipPath
       id="cpMjIwLjY5fDM5Mi44N3w1LjQ4fDIyLjQ5">
      <rect
         x="220.69"
         y="5.48"
         width="172.17"
         height="17.01"
         id="rect183" />
    </clipPath>
  </defs>
  <g
     clip-path="url(#cpMC4wMHw1NzYuMDB8MC4wMHwxODAuMDA=)"
     id="g194" />
  <defs
     id="defs199">
    <clipPath
       id="cpMzk4LjM1fDU3MC41Mnw1LjQ4fDIyLjQ5">
      <rect
         x="398.35"
         y="5.48"
         width="172.17"
         height="17.01"
         id="rect196" />
    </clipPath>
  </defs>
  <g
     id="g1543-3-5"
     transform="matrix(0.18996576,0,0,0.18996576,289.5324,38.154464)"
     style="fill:#b6003b;fill-opacity:1">
    <path
       style="fill:#b6003b;fill-opacity:1;stroke:#000000;stroke-width:0.19629999;stroke-linecap:round;stroke-linejoin:round;stroke-miterlimit:10"
       id="path6-03-3"
       class="fa-secondary"
       d="m 71.573629,-163.28192 -10.89073,21.7893 a 12.631904,12.631904 0 0 0 -1.32699,5.61418 v 49.361592 h -25.12639 v -78.519992 a 21.971858,21.971858 0 0 1 43.55308,-4.13997 l -0.0726,0.0334 a 12.586755,12.586755 0 0 0 -6.13633,5.86152 z"
       inkscape:connector-curvature="0" />
    <path
       style="fill:#b6003b;fill-opacity:1;stroke:#000000;stroke-width:0.19629999;stroke-linecap:round;stroke-linejoin:round;stroke-miterlimit:10"
       id="path8-3-5"
       class="fa-primary"
       d="m 146.63482,-138.68946 -10.89269,-21.7893 a 6.2815997,6.2815997 0 0 0 -3.06621,-2.93076 l -23.65611,-10.50794 a 6.2815997,6.2815997 0 0 0 -5.1038,0 l -23.656111,10.51383 a 6.2815997,6.2815997 0 0 0 -3.0662,2.93076 l -10.89269,21.7893 a 6.2973037,6.2973037 0 0 0 -0.6635,2.80513 v 49.361592 h 25.1264 v -18.844802 h 31.408001 v 18.844802 h 25.1264 v -49.361592 a 6.2973037,6.2973037 0 0 0 -0.66349,-2.81102 z m -30.74451,14.48301 H 97.045509 v -18.8448 h 18.844801 z"
       inkscape:connector-curvature="0" />
  </g>
  <polyline
     transform="translate(-177.64386,2.9999964)"
     id="polyline162-3"
     style="fill:none;stroke:#b6003b;stroke-width:1.60000002;stroke-linecap:butt;stroke-linejoin:round;stroke-miterlimit:10"
     points="398.35,108.39 399.04,125.64 399.73,117.50 400.43,115.71 401.12,122.85 401.82,110.74 402.51,119.79 403.21,112.62 403.90,114.46 404.59,111.17 405.29,110.54 405.98,101.91 406.68,128.91 407.37,128.44 408.07,105.20 408.76,128.01 409.45,120.47 410.15,113.69 410.84,126.18 411.54,112.00 412.23,120.23 412.93,120.09 413.62,112.05 414.31,120.02 415.01,110.14 415.70,115.84 416.40,108.63 417.09,111.28 417.79,104.39 418.48,131.65 419.17,121.88 419.87,113.07 420.56,128.91 421.26,112.76 421.95,120.20 422.64,124.43 423.34,110.02 424.03,122.97 424.73,115.59 425.42,115.70 426.12,118.09 426.81,110.68 427.50,115.20 428.20,108.25 428.89,110.30 429.59,117.68 430.28,131.96 430.98,111.30 431.67,121.74 432.36,127.40 433.06,107.92 433.75,124.56 434.45,120.13 435.14,113.36 435.84,123.40 436.53,111.50 437.22,118.93 437.92,114.37 438.61,113.30 439.31,112.59 440.00,109.78 440.70,107.53 441.39,126.83 442.08,129.93 442.78,104.48 443.47,126.93 444.17,122.95 444.86,111.15 445.56,126.20 446.25,114.01 446.94,118.59 447.64,121.40 448.33,111.12 449.03,120.16 449.72,110.80 450.41,115.49 451.11,109.41 451.80,111.15 452.50,101.19 453.19,131.03 453.89,124.46 454.58,110.06 455.27,128.85 455.97,115.27 456.66,118.27 457.36,125.23 458.05,110.05 458.75,122.32 459.44,117.10 460.13,114.48 460.83,118.90 461.52,110.19 462.22,115.60 462.91,108.09 463.61,110.76 464.30,114.37 464.99,132.06 465.69,114.18 466.38,119.79 467.08,128.01 467.77,108.48 468.47,123.70 469.16,121.45 469.85,112.16 470.55,123.50 471.24,112.29 471.94,118.26 472.63,115.37 473.33,112.59 474.02,113.35 474.71,109.33 475.41,108.56 476.10,125.40 476.80,130.54 477.49,104.92 478.18,126.16 478.88,124.10 479.57,109.97 480.27,126.06 480.96,115.24 481.66,117.59 482.35,121.98 483.04,110.83 483.74,120.09 484.43,111.33 485.13,115.18 485.82,109.94 486.52,110.98 487.21,100.25 487.90,130.59 488.60,125.60 489.29,108.60 489.99,128.72 490.68,116.60 491.38,117.19 492.07,125.54 492.76,110.31 493.46,121.90 494.15,117.86 494.85,113.85 495.54,119.23 496.24,110.04 496.93,115.73 497.62,108.10 498.32,110.93 499.01,112.64 499.71,132.05 500.40,115.59 501.10,118.76 501.79,128.24 502.48,108.95 503.18,123.21 503.87,122.02 504.57,111.65 505.26,123.49 505.96,112.74 506.65,117.89 507.34,115.84 508.04,112.25 508.73,113.68 509.43,109.12 510.12,108.86 510.81,124.68 511.51,130.76 512.20,105.31 512.90,125.76 513.59,124.57 514.29,109.52 514.98,125.97 515.67,115.79 516.37,117.14 517.06,122.20 517.76,110.76 518.45,120.02 519.15,111.59 519.84,115.02 520.53,110.18 521.23,110.89 521.92,100.07 522.62,130.39 523.31,126.01 524.01,108.08 524.70,128.64 525.39,117.10 526.09,116.76 526.78,125.63 527.48,110.45 528.17,121.71 528.87,118.14 529.56,113.62 530.25,119.34 530.95,110.00 531.64,115.75 532.34,108.12 533.03,110.98 533.73,112.10 534.42,132.03 535.11,116.01 535.81,118.43 536.50,128.29 537.20,109.12 537.89,123.05 538.58,122.18 539.28,111.51 539.97,123.47 540.67,112.88 541.36,117.78 542.06,115.97 542.75,112.15 543.44,113.77 544.14,109.06 544.83,108.93 545.53,124.53 546.22,130.79 546.92,105.40 547.61,125.69 548.30,124.63 549.00,109.45 549.69,125.94 550.39,115.88 551.08,117.06 551.78,122.23 552.47,110.76 553.16,120.01 553.86,111.63 554.55,114.99 555.25,110.21 555.94,110.87 556.64,100.09 557.33,130.38 558.02,125.98 558.72,108.12 559.41,128.64 560.11,117.06 560.80,116.79 561.50,125.62 562.19,110.45 562.88,121.72 563.58,118.11 564.27,113.64 564.97,119.32 565.66,110.00 566.36,115.74 567.05,108.11 567.74,110.97 568.44,112.37 569.13,132.02 569.83,115.78 570.52,118.60 " />
  <g
     transform="matrix(0.75,0,0,0.75,-75.073497,-3.5775766)"
     aria-label="long-arrow-alt-right"
     inkscape:transform-center-x="70.971447"
     inkscape:transform-center-y="58.924989"
     style="font-style:normal;font-variant:normal;font-weight:normal;font-stretch:normal;font-size:43.82711411px;line-height:1.25;font-family:'Font Awesome 5 Pro';-inkscape-font-specification:'Font Awesome 5 Pro';letter-spacing:0px;word-spacing:0px;fill:#000000;fill-opacity:1;stroke:none;stroke-width:1.09567785"
     id="text1574-9-0-9-7">
    <path
       inkscape:connector-curvature="0"
       d="m 400.85248,30.173074 8.47438,-8.474383 c 0.428,-0.342399 0.428,-1.027198 0,-1.455197 l -8.47438,-8.474383 c -0.6848,-0.599199 -1.712,-0.1712 -1.712,0.770398 v 6.077588 h -26.36475 c -0.5992,0 -1.02719,0.427999 -1.02719,1.027198 v 2.739195 c 0,0.599199 0.42799,1.027198 1.02719,1.027198 h 26.36475 v 6.077588 c 0,0.941598 1.0272,1.369597 1.712,0.684798 z"
       style="fill:#000000;fill-opacity:1;stroke:#000000;stroke-width:1.09567785;stroke-linecap:round;stroke-linejoin:round;stroke-miterlimit:10"
       id="path3685-5" />
  </g>
  <g
     transform="matrix(-0.75,0,0,0.75,688.62237,-3.5775766)"
     aria-label="long-arrow-alt-right"
     inkscape:transform-center-x="-70.971448"
     inkscape:transform-center-y="58.924989"
     style="font-style:normal;font-variant:normal;font-weight:normal;font-stretch:normal;font-size:43.82711411px;line-height:1.25;font-family:'Font Awesome 5 Pro';-inkscape-font-specification:'Font Awesome 5 Pro';letter-spacing:0px;word-spacing:0px;fill:#000000;fill-opacity:1;stroke:none;stroke-width:1.09567785"
     id="text1574-9-0-9-7-6">
    <path
       inkscape:connector-curvature="0"
       d="m 400.85248,30.173074 8.47438,-8.474383 c 0.428,-0.342399 0.428,-1.027198 0,-1.455197 l -8.47438,-8.474383 c -0.6848,-0.599199 -1.712,-0.1712 -1.712,0.770398 v 6.077588 h -26.36475 c -0.5992,0 -1.02719,0.427999 -1.02719,1.027198 v 2.739195 c 0,0.599199 0.42799,1.027198 1.02719,1.027198 h 26.36475 v 6.077588 c 0,0.941598 1.0272,1.369597 1.712,0.684798 z"
       style="fill:#000000;fill-opacity:1;stroke:#000000;stroke-width:1.09567785;stroke-linecap:round;stroke-linejoin:round;stroke-miterlimit:10"
       id="path3685-5-7" />
  </g>
</svg>
