<?xml version="1.0" encoding="UTF-8" standalone="no"?>
<svg
   xmlns:dc="http://purl.org/dc/elements/1.1/"
   xmlns:cc="http://creativecommons.org/ns#"
   xmlns:rdf="http://www.w3.org/1999/02/22-rdf-syntax-ns#"
   xmlns:svg="http://www.w3.org/2000/svg"
   xmlns="http://www.w3.org/2000/svg"
   xmlns:sodipodi="http://sodipodi.sourceforge.net/DTD/sodipodi-0.dtd"
   xmlns:inkscape="http://www.inkscape.org/namespaces/inkscape"
   class="svglite"
   width="576.00pt"
   height="180.00pt"
   viewBox="0 0 576.00 180.00"
   version="1.1"
   id="svg281"
   sodipodi:docname="dynamics-hierarchy_one-prime.svg"
   inkscape:version="0.92.5 (2060ec1f9f, 2020-04-08)">
  <metadata
     id="metadata285">
    <rdf:RDF>
      <cc:Work
         rdf:about="">
        <dc:format>image/svg+xml</dc:format>
        <dc:type
           rdf:resource="http://purl.org/dc/dcmitype/StillImage" />
        <dc:title />
      </cc:Work>
    </rdf:RDF>
  </metadata>
  <sodipodi:namedview
     pagecolor="#ffffff"
     bordercolor="#666666"
     borderopacity="1"
     objecttolerance="10"
     gridtolerance="10"
     guidetolerance="10"
     inkscape:pageopacity="0"
     inkscape:pageshadow="2"
     inkscape:window-width="1920"
     inkscape:window-height="1009"
     id="namedview283"
     showgrid="false"
     inkscape:zoom="1.4479167"
     inkscape:cx="315.15388"
     inkscape:cy="141.02896"
     inkscape:window-x="0"
     inkscape:window-y="0"
     inkscape:window-maximized="1"
     inkscape:current-layer="svg281" />
  <defs
     id="defs4">
    <style
       type="text/css"
       id="style2"><![CDATA[
    .svglite line, .svglite polyline, .svglite polygon, .svglite path, .svglite rect, .svglite circle {
      fill: none;
      stroke: #000000;
      stroke-linecap: round;
      stroke-linejoin: round;
      stroke-miterlimit: 10.00;
    }
    .svglite text {
      white-space: pre;
    }
  ]]></style>
  </defs>
  <defs
     id="defs11">
    <clipPath
       id="cpMC4wMHw1NzYuMDB8MC4wMHwxODAuMDA=">
      <rect
         x="0.00"
         y="0.00"
         width="576.00"
         height="180.00"
         id="rect8" />
    </clipPath>
  </defs>
  <defs
     id="defs20">
    <clipPath
       id="cpNDMuMDR8MjE1LjIxfDIyLjQ5fDE0OC4yOQ==">
      <rect
         x="43.04"
         y="22.49"
         width="172.17"
         height="125.80"
         id="rect17" />
    </clipPath>
  </defs>
  <g
     clip-path="url(#cpMC4wMHw1NzYuMDB8MC4wMHwxODAuMDA=)"
     id="g66" />
  <defs
     id="defs71">
    <clipPath
       id="cpMjIwLjY5fDM5Mi44N3wyMi40OXwxNDguMjk=">
      <rect
         x="220.69"
         y="22.49"
         width="172.17"
         height="125.80"
         id="rect68" />
    </clipPath>
  </defs>
  <g
     clip-path="url(#cpMC4wMHw1NzYuMDB8MC4wMHwxODAuMDA=)"
     id="g117" />
  <defs
     id="defs122">
    <clipPath
       id="cpMzk4LjM1fDU3MC41MnwyMi40OXwxNDguMjk=">
      <rect
         x="398.35"
         y="22.49"
         width="172.17"
         height="125.80"
         id="rect119" />
    </clipPath>
  </defs>
  <g
     clip-path="url(#cpMC4wMHw1NzYuMDB8MC4wMHwxODAuMDA=)"
     id="g168" />
  <defs
     id="defs173">
    <clipPath
       id="cpNDMuMDR8MjE1LjIxfDUuNDh8MjIuNDk=">
      <rect
         x="43.04"
         y="5.48"
         width="172.17"
         height="17.01"
         id="rect170" />
    </clipPath>
  </defs>
  <g
     clip-path="url(#cpMC4wMHw1NzYuMDB8MC4wMHwxODAuMDA=)"
     id="g181" />
  <defs
     id="defs186">
    <clipPath
       id="cpMjIwLjY5fDM5Mi44N3w1LjQ4fDIyLjQ5">
      <rect
         x="220.69"
         y="5.48"
         width="172.17"
         height="17.01"
         id="rect183" />
    </clipPath>
  </defs>
  <g
     clip-path="url(#cpMC4wMHw1NzYuMDB8MC4wMHwxODAuMDA=)"
     id="g194" />
  <defs
     id="defs199">
    <clipPath
       id="cpMzk4LjM1fDU3MC41Mnw1LjQ4fDIyLjQ5">
      <rect
         x="398.35"
         y="5.48"
         width="172.17"
         height="17.01"
         id="rect196" />
    </clipPath>
  </defs>
  <polyline
     transform="translate(177.655,2.9999964)"
     id="polyline60"
     style="fill:none;stroke:#b6003b;stroke-width:1.60000002;stroke-linecap:butt;stroke-linejoin:round;stroke-miterlimit:10;stroke-opacity:1"
     points="43.04,123.96 43.73,123.96 44.43,123.96 45.12,123.96 45.81,123.96 46.51,123.96 47.20,123.96 47.90,123.96 48.59,123.96 49.29,123.96 49.98,123.96 50.67,123.96 51.37,123.96 52.06,123.96 52.76,123.96 53.45,123.96 54.15,123.96 54.84,123.96 55.53,123.96 56.23,123.96 56.92,123.96 57.62,123.96 58.31,123.96 59.01,123.96 59.70,123.96 60.39,123.96 61.09,123.96 61.78,123.96 62.48,123.96 63.17,123.96 63.87,123.96 64.56,123.96 65.25,123.96 65.95,123.96 66.64,123.96 67.34,123.96 68.03,123.96 68.73,123.96 69.42,123.96 70.11,123.96 70.81,123.96 71.50,123.96 72.20,123.96 72.89,123.96 73.58,123.96 74.28,123.96 74.97,123.96 75.67,123.96 76.36,123.96 77.06,123.96 77.75,123.96 78.44,123.96 79.14,123.96 79.83,123.96 80.53,123.96 81.22,123.96 81.92,123.96 82.61,123.96 83.30,123.96 84.00,123.96 84.69,123.96 85.39,123.96 86.08,123.96 86.78,123.96 87.47,123.96 88.16,123.96 88.86,123.96 89.55,123.96 90.25,123.96 90.94,123.96 91.64,123.96 92.33,123.96 93.02,123.96 93.72,123.96 94.41,123.96 95.11,123.96 95.80,123.96 96.50,123.96 97.19,123.96 97.88,123.96 98.58,123.96 99.27,123.96 99.97,123.96 100.66,123.96 101.36,123.96 102.05,123.96 102.74,123.96 103.44,123.96 104.13,123.96 104.83,123.96 105.52,123.96 106.21,123.96 106.91,123.96 107.60,123.96 108.30,123.96 108.99,123.96 109.69,123.96 110.38,123.96 111.07,123.96 111.77,123.96 112.46,123.96 113.16,123.96 113.85,123.96 114.55,123.96 115.24,123.96 115.93,123.96 116.63,123.96 117.32,123.96 118.02,123.96 118.71,123.96 119.41,123.96 120.10,123.96 120.79,123.96 121.49,123.96 122.18,123.96 122.88,123.96 123.57,123.96 124.27,123.96 124.96,123.96 125.65,123.96 126.35,123.96 127.04,123.96 127.74,123.96 128.43,123.96 129.13,123.96 129.82,123.96 130.51,123.96 131.21,123.96 131.90,123.96 132.60,123.96 133.29,123.96 133.98,123.96 134.68,123.96 135.37,123.96 136.07,123.96 136.76,123.96 137.46,123.96 138.15,123.96 138.84,123.96 139.54,123.96 140.23,123.96 140.93,123.96 141.62,123.96 142.32,123.96 143.01,123.96 143.70,123.96 144.40,123.96 145.09,123.96 145.79,123.96 146.48,123.96 147.18,123.96 147.87,123.96 148.56,123.96 149.26,123.96 149.95,123.96 150.65,123.96 151.34,123.96 152.04,123.96 152.73,123.96 153.42,123.96 154.12,123.96 154.81,123.96 155.51,123.96 156.20,123.96 156.90,123.96 157.59,123.96 158.28,123.96 158.98,123.96 159.67,123.96 160.37,123.96 161.06,123.96 161.76,123.96 162.45,123.96 163.14,123.96 163.84,123.96 164.53,123.96 165.23,123.96 165.92,123.96 166.61,123.96 167.31,123.96 168.00,123.96 168.70,123.96 169.39,123.96 170.09,123.96 170.78,123.96 171.47,123.96 172.17,123.96 172.86,123.96 173.56,123.96 174.25,123.96 174.95,123.96 175.64,123.96 176.33,123.96 177.03,123.96 177.72,123.96 178.42,123.96 179.11,123.96 179.81,123.96 180.50,123.96 181.19,123.96 181.89,123.96 182.58,123.96 183.28,123.96 183.97,123.96 184.67,123.96 185.36,123.96 186.05,123.96 186.75,123.96 187.44,123.96 188.14,123.96 188.83,123.96 189.53,123.96 190.22,123.96 190.91,123.96 191.61,123.96 192.30,123.96 193.00,123.96 193.69,123.96 194.38,123.96 195.08,123.96 195.77,123.96 196.47,123.96 197.16,123.96 197.86,123.96 198.55,123.96 199.24,123.96 199.94,123.96 200.63,123.96 201.33,123.96 202.02,123.96 202.72,123.96 203.41,123.96 204.10,123.96 204.80,123.96 205.49,123.96 206.19,123.96 206.88,123.96 207.58,123.96 208.27,123.96 208.96,123.96 209.66,123.96 210.35,123.96 211.05,123.96 211.74,123.96 212.44,123.96 213.13,123.96 213.82,123.96 214.52,123.96 215.21,123.96 " />
  <g
     id="g1543-3-5"
     transform="matrix(0.18996576,0,0,0.18996576,289.53796,38.154464)"
     style="fill:#b6003b;fill-opacity:1">
    <path
       style="fill:#b6003b;fill-opacity:1;stroke:#000000;stroke-width:0.19629999;stroke-linecap:round;stroke-linejoin:round;stroke-miterlimit:10"
       id="path6-03-3"
       class="fa-secondary"
       d="m 71.573629,-163.28192 -10.89073,21.7893 a 12.631904,12.631904 0 0 0 -1.32699,5.61418 v 49.361592 h -25.12639 v -78.519992 a 21.971858,21.971858 0 0 1 43.55308,-4.13997 l -0.0726,0.0334 a 12.586755,12.586755 0 0 0 -6.13633,5.86152 z"
       inkscape:connector-curvature="0" />
    <path
       style="fill:#b6003b;fill-opacity:1;stroke:#000000;stroke-width:0.19629999;stroke-linecap:round;stroke-linejoin:round;stroke-miterlimit:10"
       id="path8-3-5"
       class="fa-primary"
       d="m 146.63482,-138.68946 -10.89269,-21.7893 a 6.2815997,6.2815997 0 0 0 -3.06621,-2.93076 l -23.65611,-10.50794 a 6.2815997,6.2815997 0 0 0 -5.1038,0 l -23.656111,10.51383 a 6.2815997,6.2815997 0 0 0 -3.0662,2.93076 l -10.89269,21.7893 a 6.2973037,6.2973037 0 0 0 -0.6635,2.80513 v 49.361592 h 25.1264 v -18.844802 h 31.408001 v 18.844802 h 25.1264 v -49.361592 a 6.2973037,6.2973037 0 0 0 -0.66349,-2.81102 z m -30.74451,14.48301 H 97.045509 v -18.8448 h 18.844801 z"
       inkscape:connector-curvature="0" />
  </g>
</svg>
